<svg xmlns="http://www.w3.org/2000/svg" xmlns:xlink="http://www.w3.org/1999/xlink" width="3500" height="950" viewBox="0 0 3500 950">
  <defs>
    <clipPath id="clip-path">
      <rect id="矩形_4" data-name="矩形 4" width="1612" height="550" fill="#fda2a2" stroke="#707070" stroke-width="1"/>
    </clipPath>
    <clipPath id="clip-header_2">
      <rect width="3500" height="950"/>
    </clipPath>
  </defs>
  <g id="header_2" data-name="header – 2" clip-path="url(#clip-header_2)">
    <rect width="3500" height="950" fill="#fff"/>
    <path id="路径_1500" data-name="路径 1500" d="M0,184.8s38.051,21.9,558.52,0c203.887-8.58,643.643-144.01,1224.845-139.784s733.872,85.6,1097.151,80.25,617.632-80.25,617.632-80.25V424H0Z" transform="translate(0 526)" fill="#4497ff" opacity="0.002"/>
    <g id="蒙版组_4" data-name="蒙版组 4" transform="translate(1888 263.834)" opacity="0.401" clip-path="url(#clip-path)">
      <path id="路径_1501" data-name="路径 1501" d="M3232.258,866.268V850.981h-10.653v15.287h-5.094V845.886h-42.148v9.624h-5.095v-9.624h-11.115v9.624h-5.093V809.087h-24.085v25.476h-14.821v6.793h-31.492V681.219h.155l-21.869-20.642v9.8h-.055v-9.625h-2.315v-6.793h-18.525v6.793h-2.318v9.625H3033.1V683.4h2.317v78.527c-8.059-3.764-18.312-6.948-30.1-9.685V700.951h4.632V686.8h-10.189V670.379H2980.3V686.8h-10.653v14.154h4.169v45.413c-15.588-2.369-32.426-4.317-49.557-6.041V700.951h-46.778v35.074l-4.631-.405V717.935h-6.02v-5.661h-44.926v5.661h-5.095v12.333q-2.523-.208-5.094-.385V648.87h.337l-5.943-13.6-29.044-25.505-26.1,21.79-7.446,17.315h.108v80.788q-7.622.351-15.454.84a17.623,17.623,0,0,0-6.537.426q-7.222.493-14.6,1.086V692.265c0-.148.016-.291.017-.441,0-.128-.01-.248-.017-.372v-1.258h-.179c-1.65-6.406-13.68-6.058-21.521-.3-8.453,6.209-11.824,14.343-11.98,20.8,0,.152.008.3.02.444h-.15v24l-.985.1c-3.79-1.632-9.565-1.067-14.284,1.547q-14.679,1.648-29.656,3.546V715.105h-8.337v-12.1l.1-.073V691.545l-13.648-18.469h-10.116l-8.754,12.59v12.455h-12.505v49.453q-3.96.571-7.925,1.152v-4.182h-92.165v18.4q-9.1,1.445-18.069,2.875V737.573c.005-.235.014-.469.014-.705,0-10.318-5.163-19.157-12.5-22.88V703.673c0-4.1-2.131-7.581-5.11-8.906v-9.01h-6.1v9.427a9.854,9.854,0,0,0-4.312,8.488v10.446c-7.173,3.808-12.157,12.589-12.069,22.749,0,.07,0,.14,0,.21h-.039v35.074c-16.988,2.65-33.4,5.148-49.027,7.4l-24.214-14.485V746.879h-7.9v18.185l-38.772,23.191q-10.421.944-19.724,1.474l-3.014-5.706H2262.4V737.078h-.035c0-.07,0-.14,0-.21.088-10.16-4.9-18.941-12.07-22.749V703.673a9.854,9.854,0,0,0-4.31-8.488v-9.427h-6.1v9.01c-2.978,1.325-5.109,4.806-5.109,8.906v10.314c-7.338,3.723-12.5,12.563-12.5,22.88,0,.166.008.331.011.5v46.663H2212.5v1.917q-9.842-.949-20.5-1.573V683.983h.016l-27.14-83.263-44.4-10.206L2098.8,668.681l.108.024V783.893c-20.821.741-42.423,1.954-64.376,3.554V701.855l-4.785-1.089V689.9l-.055-.013-15.507-40.64-45.534-15.054-.006-.02-.006.016-.122-.04.051.2-18.9,43.951h30.1l0-.018.079.019h-30.062v11.322h-5.559V795.9q-7.2.811-14.357,1.659V749.074H1924.3v-8.491h-6.946v-7.926h-26.4v7.926h-8.336v8.491h-6.946v55.5q-11.493,1.615-22.694,3.3v-23.7h-6.022V770.021h-30.568v43.653c-17.2,2.877-33.544,5.829-48.7,8.8-44.034,8.635-96.76,10.108-150.361,7.526V778.248H1511.579v42.145q-6.266-.806-12.439-1.652v-55.7h-30.211V747.835h-63.089V648.99h-58.647v27.154H1335.64v86.9h-8.884V747.835H1292.1V608.8h-13.327V592.51h-16V577.3H1212.13V592.51H1198.8V608.8h-10.664V824.955h-27.546v-330.2h-10.664V473.028h-57.679l.153-.036-.008.034h57.742L1113.873,388.7l.1-.39-.234.078-.013-.031-.009.039-87.363,28.882L996.6,495.248l-.1.024V516.12l-9.18,2.09V685.921H906.458V766.3H894.906V736.974H875.357V766.3H863.806V454.607l.207-.046L822.428,304.593l-85.186,19.581-52.07,159.747h.029V760.869H674.539V740.232H645.862V675.86H627.089V586.341c.005-.32.02-.638.02-.959,0-19.794-9.9-36.754-23.984-43.9V521.7c0-7.864-4.088-14.542-9.8-17.084V487.325h-11.7v18.087c-4.9,2.98-8.271,9.142-8.271,16.284v20.042c-13.764,7.305-23.324,24.152-23.155,43.645,0,.135.005.269.005.4h-.067v90.069H527.623l-13.735,26L409.611,639.478V604.59H394.454v34.891l-104.269,62.37-13.731-26H253.935V585.786h-.075c0-.135.005-.269,0-.4.17-19.492-9.39-36.34-23.154-43.645V521.7c0-7.141-3.373-13.3-8.271-16.284V487.325h-11.7v17.286c-5.714,2.542-9.8,9.221-9.8,17.084v19.79c-14.079,7.143-23.982,24.1-23.982,43.9,0,.456.019.909.028,1.362V675.86H158.206v85.009H142.318V600.113H-34.509V760.869h-15.2V511.045H-73.705v-23.9l-16.8-24.156h-19.409l-26.184,35.435v21.849l.189.141V543.63H-151.9V747.835h-15.106V727.2h-10.662v20.637h-7.108V625.1h-.106c.052-11.971-5.5-26.731-20.173-37.509-10.285-7.554-24.989-9.2-33.035-4.4v-47.16h-.289a8.118,8.118,0,0,0,.038-.851c-.3-12.4-6.766-28-22.984-39.913-15.042-11.047-38.123-11.713-41.286.576h-.346v2.412c-.011.237-.034.468-.031.715,0,.288.023.562.031.846v97.227a50.552,50.552,0,0,0-14.947-17.055c-14.724-10.814-38.524-9.529-38.845,5.446a43.341,43.341,0,0,0,.921,10.339h-.443V747.835h-16.882V416.552h.207l-14.283-33.22-50.068-41.8-55.721,48.935-11.4,26.09h.649v408.4h-9.774V549.06h-9.775V538.2h-86.191V549.06h-11.552V849.938h0V785.851h-8.885V516.474H-719.7V753.266h-40.877V733.714h-39.1v19.552h-15.1V516.474h8V489.32h-20.436v-31.5h-37.32v31.5h-19.549v27.155h8.884V785.851h-23.1V766.3h-11.552V747.835h-15.995V766.3h-7.107V482.8h4.443V457.822H-937.4V439.354h-4.445V426.321h-35.542v13.033h-4.443v18.468h-.105V439.013l-41.959,39.6h.3V785.851h-60.422V772.818h-28.437V723.94h-46.207v89.067h-9.772V794.542h-21.325v18.465h-9.775V794.542h-80.86v39.1h-9.776V804.318h-20.437v29.328h-68.419V853.2h188.438v49.964h-19.549v92.327H1654.607V903.163H1619.1V876.188l86.133,1.32V902.5h-18.508v48.122H3179.891V902.5H3169.7V876.458h98.219V866.268Z" transform="translate(-1511.371 -374.654)" fill="#fda2a2"/>
    </g>
    <path id="路径_1502" data-name="路径 1502" d="M0,211.873s246.3-35.421,861.265-38.667,946.689,62.445,1620.009,63.721S3500,115.086,3500,115.086V397H0Z" transform="translate(0 553)" fill="#96c5ff"/>
    <g id="组_122" data-name="组 122" transform="translate(2816.695 404.816)">
      <path id="路径_1454" data-name="路径 1454" d="M1635.065,7700.907c-.733-3.691-2.613-6.484-4.37-6.664l-.017-.084-231.606,45.96,2.909,14.658,231.606-45.959-.017-.083C1635.126,7707.9,1635.8,7704.6,1635.065,7700.907Z" transform="translate(-1063.585 -7599.796)" fill="#0c2e5a"/>
      <path id="路径_1455" data-name="路径 1455" d="M1206.5,7602.9a178.96,178.96,0,1,0,210.37,140.705A178.961,178.961,0,0,0,1206.5,7602.9Zm65.064,327.879a155.312,155.312,0,1,1,122.11-182.571A155.313,155.313,0,0,1,1271.563,7930.781Z" transform="translate(-1062.338 -7599.445)" fill="#0c2e5a"/>
    </g>
    <g id="组_123" data-name="组 123" transform="translate(2729.048 105)" opacity="0.399">
      <path id="路径_29" data-name="路径 29" d="M16829.23,1013.1c1.07-.726-9.738-3.99-10.906-5.985s-.2-4.722,2.318-7.338,11.408-7.968,15.045-7.968-3.137-2.546-6.457-1.988-15.184,4.087-15.184,4.087.834,7.319-2.631,10.133-14.17,1.181-17.635,5.981-2.744,17.9-2.744,17.9,5.471-11.925,10.234-14.824,7.57-3.493,12.775-3.079S16828.16,1013.827,16829.23,1013.1Z" transform="translate(-16615.277 -918.999)" fill="#fda2a2"/>
      <path id="路径_30" data-name="路径 30" d="M16832.371,1007.988a9.884,9.884,0,0,0,6.531,11.64c8.656,3.306,11.332,4.41,12.961,7.541s0,7.28,0,7.28,10.789-3.176,11.777-7.28-4.287-3.045-2.275-7.541,7.057-13.469,7.057-13.469-10.9,10.2-10.9,13.469-.326,3.425-1.691,4.06-3.523-4.687-12.635-6.869S16832.371,1007.988,16832.371,1007.988Z" transform="translate(-16208.704 -1006.158)" fill="#fda2a2"/>
      <path id="路径_31" data-name="路径 31" d="M16787.916,930.159c-2.037,2.03,2.506,3.641,6.234,5.576s2.787,5.662,5.422,7.9,6.25,2.324,9.117,3.549,3.645,4.86,3.645,4.86,3.811,1.819,6.77,0a8.994,8.994,0,0,0,3.775-4.86s-5.781-4.682-8.557-4.78,5.588-27.357,9.768-31.376-2.281-2.6-4.986,0-11.545,11.741-11.842,14.386-.055,5.6-1.742,7.886-5.16.874-8.27,0S16787.916,930.159,16787.916,930.159Z" transform="translate(-16588.873 -695.532)" fill="#fda2a2"/>
      <path id="路径_32" data-name="路径 32" d="M16827.063,947.721s3.748-10.968,9.707-11.816,5.852,3.738,11.9,1.823,11.926-10.119,11.926-10.119,16.73,2.226,21.053,4.037-15.732-1.874-19.957,1.59-6.279,7.588-6.279,14.484-4.109-8.2-12.422-6.161A76.674,76.674,0,0,0,16827.063,947.721Z" transform="translate(-16365.791 -859.306)" fill="#fda2a2"/>
      <path id="路径_34" data-name="路径 34" d="M16829.23,1013.1c1.07-.726-9.738-3.99-10.906-5.985s-.2-4.722,2.318-7.338,11.408-7.968,15.045-7.968-3.137-2.546-6.457-1.988-15.184,4.087-15.184,4.087.834,7.319-2.631,10.133-14.17,1.181-17.635,5.981-2.744,17.9-2.744,17.9,5.471-11.925,10.234-14.824,7.57-3.493,12.775-3.079S16828.16,1013.827,16829.23,1013.1Z" transform="translate(-16660.883 -619.196)" fill="#fda2a2"/>
      <path id="路径_36" data-name="路径 36" d="M16787.916,930.159c-2.037,2.03,2.506,3.641,6.234,5.576s2.787,5.662,5.422,7.9,6.25,2.324,9.117,3.549,3.645,4.86,3.645,4.86,3.811,1.819,6.77,0a8.994,8.994,0,0,0,3.775-4.86s-5.781-4.682-8.557-4.78,5.588-27.357,9.768-31.376-2.281-2.6-4.986,0-11.545,11.741-11.842,14.386-.055,5.6-1.742,7.886-5.16.874-8.27,0S16787.916,930.159,16787.916,930.159Z" transform="translate(-16214.004 -616.084)" fill="#fda2a2"/>
      <path id="路径_37" data-name="路径 37" d="M16827.063,947.721s3.748-10.968,9.707-11.816,5.852,3.738,11.9,1.823,11.926-10.119,11.926-10.119,16.73,2.226,21.053,4.037-15.732-1.874-19.957,1.59-6.279,7.588-6.279,14.484-4.109-8.2-12.422-6.161A76.674,76.674,0,0,0,16827.063,947.721Z" transform="translate(-16827.063 -703.262)" fill="#fda2a2"/>
      <path id="路径_38" data-name="路径 38" d="M16890.684,952.06a25.86,25.86,0,0,1,5.188-2.246c3.652-1.25,2.754,2.1,11.23,0s9.375-6.759,14.141-7.345,12.084,1.813,12.084,1.813-8.281-5.625-13.393-5.067-12.832,1.433-12.832,1.433.961-7.435-1.348-12.858-13.219-12.727-14.172-14.966-4.453,10.168,0,14.966,8.557,9.971,7.744,12.858S16890.684,952.06,16890.684,952.06Z" transform="translate(-16472.16 -688.261)" fill="#fda2a2"/>
    </g>
    <g id="组_124" data-name="组 124" transform="translate(-22 266.934)">
      <path id="路径_1473" data-name="路径 1473" d="M1418.663,5338.856a730.271,730.271,0,0,1,482.07,105.973,780.4,780.4,0,0,1-182.3,36.131c-38.685,2.95-99.845,7.216-175.731-6.569-19.31-3.508-34.222-6.357-50.218-11.4-13.772-4.343-12.309-5.382-17.929-6.424-33.072-6.127-56.382,26.676-68.323,18.322-6.558-4.587-5.828-18.888-1.831-27.464,3.767-8.083,8.762-7.489,13.592-14.194,9.424-13.082-.119-28.5-1.691-58.129A157.382,157.382,0,0,1,1418.663,5338.856Z" transform="translate(-1401.349 -4759.895)" fill="#ebe0bc"/>
      <g id="_5gUDqE" data-name="5gUDqE" transform="translate(108.126)" opacity="0.3">
        <g id="组_113" data-name="组 113">
          <path id="路径_1474" data-name="路径 1474" d="M1586.547,4992.047l-6.575-.306a1.066,1.066,0,0,0-.582,1.988,41.441,41.441,0,0,1,5.317,3.489c6.712,5.392,10.4,12.679,12.343,20.986,2.189,9.381,1.643,18.8,1.06,28.653a1.069,1.069,0,0,1-1.8.711c-5.566-5.106-11.653-7.146-19.118-5.062a1.073,1.073,0,0,0-.224,1.974c6.977,3.812,13.523,7.435,20.145,10.915a4.458,4.458,0,0,1,2.807,4.291c1,33.294-7.016,64.183-24.521,92.566q-.275.445-.551.887l-2.665-.786a26.692,26.692,0,0,0-.134-3.6c-.942-7.992-4.665-14.882-9.166-21.341-6.048-8.679-12.965-16.818-18.349-25.878-11.482-19.319-11.706-39.652-3.409-60.283a2.277,2.277,0,0,0,.211-1.55l-12.018,17.174-2.647-1.173c.55-2.417,1.116-4.829,1.772-7.217,1.2-4.369,2.538-8.708,4.04-12.982q2.21-6.285,4.892-12.4c.9-2.044,1.862-4.059,2.814-6.1a1.068,1.068,0,0,0-1.762-1.166l-21.626,24.123a1.072,1.072,0,0,1-1.614-.023c-10.19-11.851-16.226-38.486-2.559-61.917a1.066,1.066,0,0,0-1.592-1.36c-1.684,1.344-3.376,2.677-5.1,3.971-3.068,2.306-6.227,4.492-9.669,6.592a1.071,1.071,0,0,1-1.622-.906,217.688,217.688,0,0,1,2.35-34.792c1.775-11.612,4.464-23.083,6.815-34.667a1.068,1.068,0,0,0-1.139-1.279l-14.184,1.273a1.07,1.07,0,0,1-.82-1.851c3.537-3.261,6.94-6.326,10.154-9.579,5.694-5.763,11.19-11.72,16.76-17.6,1.933-2.042,3.564-2.178,5.154.243,4.633,7.052,9.525,14,13.422,21.456,8.784,16.8,13.868,34.953,18.5,53.264,7.026,27.769,10.925,56.047,14.143,84.433,2.436,21.495,4.414,43.042,6.611,64.564.037.364.248.711.86.994,0-1.362.065-2.727-.009-4.083-1.23-22.414-2.114-44.854-3.818-67.23-1.905-25.033-4.791-49.979-9.155-74.728-3.98-22.568-11.156-43.95-24.127-63.04-3.126-4.6-6.776-8.847-10.267-13.1a1.07,1.07,0,0,1,1.175-1.687,65.46,65.46,0,0,1,15.166,7.393,98.178,98.178,0,0,1,34.866,39.271c2.771,5.613,3.949,12.155,5.06,18.415,2.128,11.994,3.69,24.089,5.473,36.145a5.1,5.1,0,0,1,.032.875A1.076,1.076,0,0,1,1586.547,4992.047Z" transform="translate(-1287.452 -4722.151)" fill="#005951"/>
          <path id="路径_1475" data-name="路径 1475" d="M1654.985,5329.5h-48.566a1.071,1.071,0,0,1-1.07-1.039c-4.064-137.472,30.513-263.418,108.107-376.832l2.614,1.158c-.793,3.3-1.589,6.592-2.424,9.876a75.231,75.231,0,0,0-2.7,21.114,8.495,8.495,0,0,1-.909,3.764c-7.551,15.806-15.435,31.458-22.687,47.4a414.027,414.027,0,0,0-19.7,53.768,374.747,374.747,0,0,0-12.326,56.24,544,544,0,0,0-4.913,83.657c.5,26.164,2.219,52.308,3.559,78.452.323,6.3,1.273,12.575,1.916,18.863.082.795.116,1.595.157,2.459A1.071,1.071,0,0,1,1654.985,5329.5Z" transform="translate(-1511.277 -4727.675)" fill="#754c24"/>
          <path id="路径_1476" data-name="路径 1476" d="M1807.693,4876.685a1.071,1.071,0,0,1,.268,1.562c-3.275,4.213-6.481,8.312-9.647,12.44-1.894,2.47-3.6,5.1-5.616,7.458a8.145,8.145,0,0,1-3.724,2.574c-3.883,1.048-7.84,1.82-11.972,2.7a1.069,1.069,0,0,1-1.29-1.153c.357-3.3.785-6.505.966-9.669a1.066,1.066,0,0,0-2.094-.34,58.182,58.182,0,0,1-3.776,10.1,6.007,6.007,0,0,1-3.865,2.92,332.545,332.545,0,0,1-60.607,4.932,9.456,9.456,0,0,1-1.053-.083,1.073,1.073,0,0,1-.937-1.175c.885-8.4,1.762-16.722,2.638-25.04l-2.659-1.112a60.373,60.373,0,0,0-4.657,6.194,45.5,45.5,0,0,0-7.3,26.082,2.92,2.92,0,0,1-2.067,3.185q-17.484,7.935-34.918,15.976c-5.136,2.368-10.252,4.782-15.322,7.283a3.489,3.489,0,0,1-4.381-1.077,59.9,59.9,0,0,1-11.148-29.8c-.068-.709-.112-1.42-.195-2.127-.017-.148-.159-.28-.7-1.168-.465,3.851-1.05,7.018-1.195,10.205a118.255,118.255,0,0,0,2.367,29.75,4.452,4.452,0,0,1-1.641,5.029,134.1,134.1,0,0,0-35.773,46.654,1.974,1.974,0,0,1-.218.354,1.082,1.082,0,0,1-.933.439l-.21-.013c-.1-6.468-.54-12.951-.241-19.4A134.715,134.715,0,0,1,1602.7,4920.8c14.209-25.706,34.083-45.615,60.861-58.3a120.754,120.754,0,0,1,43.152-11.152c5.639-.418,11.378.4,17.065.765,13.249.843,26.45,2.008,39.259,5.85a253.86,253.86,0,0,1,44.22,18.469C1807.407,4876.511,1807.549,4876.595,1807.693,4876.685Z" transform="translate(-1585.693 -4719.19)" fill="#005951"/>
          <path id="路径_1477" data-name="路径 1477" d="M1708.577,4861.275c-2.658-6.811-5.107-13.655-7.977-20.318-5.268-12.234-13.659-22.194-23.262-31.259a321.946,321.946,0,0,0-46.583-36.486c-19.407-12.521-40.219-21.639-63.033-25.868-1.136-.21-2.267-.448-3.4-.649-.148-.025-.322.1-1.214.391a176.767,176.767,0,0,1,33.962,12,1.069,1.069,0,0,1,.083,1.88c-8.54,5.07-15.9,10.935-19.741,20.415a1.064,1.064,0,0,1-1.6.453c-2.154-1.535-4.181-3.079-6.373-4.334-5.939-3.4-11.941-6.7-18.028-9.819a2.835,2.835,0,0,1-1.841-3.011,37.171,37.171,0,0,1,2.877-14.459,1.065,1.065,0,0,0-1.673-1.228c-2.432,2.149-4.78,6.229-8.514,14.3a1.072,1.072,0,0,1-1.235.59c-5.176-1.328-10.458-2.44-15.531-4.164-5.585-1.9-11.133-3.061-17.016-2.2a7.5,7.5,0,0,1-1.306-.094,36.874,36.874,0,0,1,17.093-13.848c13.553-5.454,27.623-6.242,42-4.872a179.468,179.468,0,0,1,34.268,6.533,186.54,186.54,0,0,1,37.245,15.151,133.973,133.973,0,0,1,37.675,30.707c5.671,6.677,10.783,13.828,16.02,20.79a1.067,1.067,0,0,0,1.922-.641v-2.308l2.711-1.2.108.1,1.826-1.6q-1.193-1.733-2.351-3.489a5.611,5.611,0,0,1-.983-3.4,104.939,104.939,0,0,1,11.607-37.012,1.067,1.067,0,0,1,1.849-.052,29.364,29.364,0,0,0,8.892,9.4,1.066,1.066,0,0,0,1.378-1.609,37.869,37.869,0,0,1-6.129-8.694c-.159-.317-.365-.61-.543-.918-1.632-2.842-1.976-5.462.479-8.222a62.987,62.987,0,0,0,4.722-6.518,1.073,1.073,0,0,1,1.568-.221l2.955,2.442,2.224-1.631c-.537-1.326-1.085-2.648-1.667-3.955a2.8,2.8,0,0,1,.617-3.505,112.513,112.513,0,0,1,26.905-21.721,4.089,4.089,0,0,1,.977-.222l.323,1.814,2.536.225a17,17,0,0,0,.589-1.892c.6-2.463,2.183-3.659,4.421-4.425,5.51-1.884,11.005-3.815,16.613-5.564a1.069,1.069,0,0,1,1.167,1.673c-4.744,5.9-5.757,13.166-6.589,20.471-.19,1.672-.773,2.269-2.345,2.917-3.74,1.541-7.38,3.322-11.029,5.08l.336,2.583c2.346.446,4.694.89,6.991,1.518,4.686,1.28,4.534,1.384,4.025,6.274-.547,5.271-.878,10.564-1.29,15.9a1.076,1.076,0,0,1-.954.981l-11.679,1.278-.085,2.6,11.392,2.015a1.077,1.077,0,0,1,.883,1.147c-.69,8.116-1.357,15.949-2.01,23.632a1.07,1.07,0,0,1-1.308.945l-13.066-2.988-.2.662,1.588.73a62.889,62.889,0,0,1,5.781,2.7c4.282,2.529,7.133,5.48,5.607,11.352-2.074,7.986-3.245,16.205-4.841,24.317a18.136,18.136,0,0,1-.761,2.446,1.074,1.074,0,0,1-1.262.688l-14.561-3.524a1.068,1.068,0,0,0-.965,1.835,42.847,42.847,0,0,0,13.771,7.658,1.074,1.074,0,0,1,.662,1.343c-3.593,10.869-8.075,21.169-14.513,30.754a1.072,1.072,0,0,1-1.48.288A78.711,78.711,0,0,0,1711.607,4863a1.066,1.066,0,0,1-.811-1.28c1.249-5.381,2.381-10.589,3.7-15.746,4.548-17.734,8.847-35.542,13.87-53.141,4.5-15.776,11.224-30.755,18.855-45.258,4.673-8.88,10.042-17.4,15.091-26.077a2.5,2.5,0,0,0,.363-1.667,7.3,7.3,0,0,0-1.187,1.025,296.388,296.388,0,0,0-36.074,62.133c-10.589,24.717-17.571,50.2-16.714,77.378A4.535,4.535,0,0,1,1708.577,4861.275Z" transform="translate(-1482.028 -4707)" fill="#005951"/>
          <path id="路径_1478" data-name="路径 1478" d="M1526.545,4901.776c-.967-.683-1.95-1.336-2.971-1.925-8.154-4.7-16.319-9.4-24.658-13.756a7.521,7.521,0,0,1-4.3-5.192c-.223-.883-.484-1.759-.781-2.709a1.068,1.068,0,0,0-2.053.045c-.286,1.09-.556,2.11-.825,3.133a1.069,1.069,0,0,1-1.343.748c-2.666-.8-5.272-1.552-7.823-2.459a2.618,2.618,0,0,1-1.135-1.82,66.947,66.947,0,0,0-6.289-17.845,1.07,1.07,0,0,0-2.031.465V4876a1.063,1.063,0,0,1-1.142,1.064c-4.616-.34-9.335-.657-14.039-1.129-.576-.058-1.265-1.071-1.532-1.78a85.517,85.517,0,0,0-11.413-20.735,15.237,15.237,0,0,0-2.428-2.559,73.462,73.462,0,0,1,5.891,24.3,1.072,1.072,0,0,1-.968,1.127c-14.905,1.494-28.57,6.152-41.038,14.991a1.068,1.068,0,0,1-1.693-.793,71.9,71.9,0,0,1,1.838-20.686l-.76-.2c-1.1,3.412-2.529,6.76-3.219,10.252-.944,4.78-1.3,9.674-1.974,14.51a4.984,4.984,0,0,1-.885,2.354c-4.609,5.754-9.283,11.455-13.941,17.169-.125.154-.254.306-.413.49a1.068,1.068,0,0,1-1.8-.288c-1.73-4.173-3.418-8.02-4.821-11.968-1.139-3.205-2.086-6.479-3.022-9.685a1.07,1.07,0,0,0-2.074.083c-1.672,8.365-.165,19.039,4.388,29.2a1.063,1.063,0,0,1-.3,1.271l-5.418,4.292a1.065,1.065,0,0,1-1.609-.351c-8.26-16-19.035-29.265-33.364-39.705a1.065,1.065,0,0,1,.005-1.731c3.8-2.707,7.4-5.369,11.133-7.836,12.1-7.993,23.979-16.364,36.464-23.7,14.842-8.725,30.918-14.468,48.227-16.109a78.581,78.581,0,0,1,46.821,9.556c17.723,9.887,30.96,24.321,42.037,40.971,2.516,3.782,4.89,7.658,7.268,11.531Z" transform="translate(-1077.613 -4718.024)" fill="#005951"/>
          <path id="路径_1479" data-name="路径 1479" d="M1701.738,4866.934a1.067,1.067,0,0,1-1.58,1.183c-6.7-3.975-12.771-7.679-18.973-11.146a159.712,159.712,0,0,0-49.024-18.186c-5.4-1-10.959-1.145-16.423-1.853a6.549,6.549,0,0,1-3.277-1.639c-4.433-3.985-4.214-8.662-2.464-13.981a84.44,84.44,0,0,1,12.372-24.131,1.065,1.065,0,0,0-1.385-1.56,76.573,76.573,0,0,0-21.124,19.016,1.07,1.07,0,0,1-1.63.062c-2.43-2.65-2.344-3.026-.585-6.5,1.911-3.771,3.949-7.48,5.946-11.162a1.07,1.07,0,0,0-1.453-1.448c-2.941,1.591-5.39,4.416-9.039,10.185a1.069,1.069,0,0,1-1.688.156c-2.461-2.668-4.918-5.3-7.278-8.017a3.537,3.537,0,0,1-.44-2.239c.306-8.387,5.263-22.343,10.6-29.854a1.058,1.058,0,0,1,1.359-.311c3.03,1.606,6.137,3.185,9.159,4.913a251.445,251.445,0,0,1,48.744,36.7q11.78,11.243,23.421,22.629c8.748,8.578,14.966,18.972,20.87,29.57q1.95,3.5,3.708,7.1A2.832,2.832,0,0,1,1701.738,4866.934Z" transform="translate(-1477.444 -4711.935)" fill="#005951"/>
        </g>
      </g>
      <g id="_5gUDqE-2" data-name="5gUDqE" transform="translate(9.462 175.825)">
        <g id="组_114" data-name="组 114">
          <path id="路径_1480" data-name="路径 1480" d="M1757.949,5109.211l-4.847-.226a.786.786,0,0,0-.428,1.467,30.667,30.667,0,0,1,3.92,2.572c4.948,3.976,7.671,9.349,9.1,15.473,1.614,6.917,1.211,13.858.782,21.125a.788.788,0,0,1-1.326.524c-4.1-3.764-8.593-5.268-14.1-3.732a.792.792,0,0,0-.166,1.456c5.144,2.81,9.971,5.481,14.853,8.046a3.286,3.286,0,0,1,2.069,3.164,120.334,120.334,0,0,1-18.078,68.246l-.406.654-1.965-.58a19.772,19.772,0,0,0-.1-2.658c-.694-5.892-3.439-10.972-6.758-15.733-4.458-6.4-9.558-12.4-13.528-19.079-8.465-14.244-8.63-29.235-2.513-44.444a1.686,1.686,0,0,0,.156-1.144L1715.756,5157l-1.951-.864c.406-1.782.823-3.561,1.306-5.321.884-3.221,1.871-6.42,2.979-9.572,1.086-3.088,2.291-6.142,3.607-9.14.661-1.507,1.372-2.992,2.074-4.494a.787.787,0,0,0-1.3-.859l-15.945,17.786a.791.791,0,0,1-1.19-.019c-7.513-8.736-11.963-28.375-1.886-45.648a.786.786,0,0,0-1.174-1c-1.241.992-2.489,1.974-3.758,2.928-2.262,1.7-4.591,3.311-7.129,4.859a.79.79,0,0,1-1.2-.668,160.463,160.463,0,0,1,1.733-25.651c1.308-8.561,3.291-17.019,5.024-25.559a.787.787,0,0,0-.839-.942l-10.457.938a.788.788,0,0,1-.605-1.364c2.608-2.4,5.117-4.665,7.486-7.062,4.2-4.249,8.25-8.641,12.356-12.979,1.425-1.506,2.627-1.6,3.8.18,3.416,5.2,7.022,10.321,9.9,15.819,6.476,12.386,10.224,25.769,13.64,39.268,5.18,20.474,8.054,41.324,10.426,62.251,1.8,15.847,3.255,31.732,4.874,47.6.027.269.183.525.634.732,0-1,.048-2.009-.007-3.01-.906-16.525-1.558-33.069-2.814-49.567-1.4-18.455-3.532-36.848-6.75-55.094-2.933-16.638-8.225-32.4-17.788-46.477-2.305-3.393-5-6.523-7.569-9.659a.789.789,0,0,1,.866-1.244,48.245,48.245,0,0,1,11.182,5.451,72.376,72.376,0,0,1,25.7,28.953c2.042,4.138,2.912,8.961,3.731,13.577,1.569,8.843,2.721,17.76,4.035,26.649a3.685,3.685,0,0,1,.024.645A.793.793,0,0,1,1757.949,5109.211Z" transform="translate(-1537.437 -4910.227)" fill="#007651"/>
          <path id="路径_1481" data-name="路径 1481" d="M1808.406,5358.006H1772.6a.791.791,0,0,1-.789-.766c-3-101.354,22.5-194.208,79.7-277.825l1.927.854c-.585,2.43-1.172,4.859-1.788,7.28a55.5,55.5,0,0,0-1.987,15.566,6.252,6.252,0,0,1-.67,2.776c-5.567,11.653-11.379,23.193-16.726,34.945a305.141,305.141,0,0,0-14.521,39.642,276.325,276.325,0,0,0-9.087,41.464,401.073,401.073,0,0,0-3.622,61.676c.367,19.29,1.636,38.565,2.625,57.84.238,4.647.938,9.271,1.412,13.907.06.586.085,1.177.115,1.813A.789.789,0,0,1,1808.406,5358.006Z" transform="translate(-1702.456 -4914.3)" fill="#754c24"/>
          <path id="路径_1482" data-name="路径 1482" d="M1920.992,5024.16a.789.789,0,0,1,.2,1.15c-2.415,3.107-4.779,6.129-7.112,9.172-1.4,1.822-2.653,3.758-4.141,5.5a6,6,0,0,1-2.746,1.9c-2.863.772-5.78,1.342-8.826,1.991a.788.788,0,0,1-.951-.85c.263-2.434.579-4.8.711-7.129a.785.785,0,0,0-1.543-.251,42.921,42.921,0,0,1-2.785,7.444,4.425,4.425,0,0,1-2.849,2.152,245.157,245.157,0,0,1-44.684,3.637,7.077,7.077,0,0,1-.776-.062.791.791,0,0,1-.69-.866c.653-6.19,1.3-12.329,1.945-18.461l-1.96-.819a44.508,44.508,0,0,0-3.434,4.566,33.546,33.546,0,0,0-5.384,19.23,2.154,2.154,0,0,1-1.525,2.348q-12.889,5.849-25.743,11.777c-3.786,1.747-7.558,3.525-11.3,5.371a2.572,2.572,0,0,1-3.23-.794,44.166,44.166,0,0,1-8.218-21.967c-.049-.523-.083-1.047-.144-1.569a5.153,5.153,0,0,0-.513-.861c-.343,2.839-.774,5.174-.882,7.525a87.169,87.169,0,0,0,1.746,21.933,3.283,3.283,0,0,1-1.21,3.708,98.856,98.856,0,0,0-26.373,34.4,1.551,1.551,0,0,1-.161.262.8.8,0,0,1-.689.324l-.154-.01c-.074-4.768-.4-9.549-.178-14.3a99.309,99.309,0,0,1,12.466-43.915c10.476-18.952,25.127-33.63,44.871-42.982a89.034,89.034,0,0,1,31.815-8.223c4.157-.309,8.388.3,12.581.565,9.768.621,19.5,1.48,28.944,4.313a187.178,187.178,0,0,1,32.6,13.617C1920.781,5024.032,1920.886,5024.093,1920.992,5024.16Z" transform="translate(-1757.319 -4908.044)" fill="#007651"/>
          <path id="路径_1483" data-name="路径 1483" d="M1847.918,5012.8c-1.959-5.021-3.765-10.066-5.881-14.979-3.884-9.019-10.07-16.363-17.15-23.045a237.39,237.39,0,0,0-34.344-26.9c-14.308-9.23-29.652-15.953-46.472-19.071-.838-.155-1.672-.33-2.51-.479-.109-.019-.237.071-.895.288a130.36,130.36,0,0,1,25.04,8.844.788.788,0,0,1,.062,1.386c-6.3,3.738-11.725,8.062-14.555,15.052a.784.784,0,0,1-1.183.333c-1.588-1.132-3.083-2.27-4.7-3.195-4.379-2.506-8.8-4.938-13.291-7.241a2.09,2.09,0,0,1-1.358-2.22,27.4,27.4,0,0,1,2.121-10.66.785.785,0,0,0-1.233-.9c-1.792,1.584-3.524,4.591-6.276,10.542a.789.789,0,0,1-.91.434c-3.816-.979-7.711-1.8-11.451-3.069-4.119-1.4-8.209-2.257-12.546-1.623a5.549,5.549,0,0,1-.963-.069,27.188,27.188,0,0,1,12.6-10.209c9.992-4.02,20.365-4.6,30.963-3.592a132.382,132.382,0,0,1,25.265,4.816,137.591,137.591,0,0,1,27.461,11.171,98.777,98.777,0,0,1,27.776,22.64c4.18,4.922,7.95,10.194,11.812,15.327a.787.787,0,0,0,1.416-.473v-1.7l2-.886.08.072,1.346-1.179q-.879-1.277-1.733-2.573a4.137,4.137,0,0,1-.725-2.507,77.382,77.382,0,0,1,8.558-27.288.786.786,0,0,1,1.363-.039,21.636,21.636,0,0,0,6.556,6.932.786.786,0,0,0,1.016-1.186,27.938,27.938,0,0,1-4.52-6.409c-.116-.234-.269-.45-.4-.677-1.2-2.1-1.457-4.028.353-6.062a46.482,46.482,0,0,0,3.481-4.8.792.792,0,0,1,1.156-.164l2.179,1.8,1.64-1.2c-.4-.978-.8-1.953-1.229-2.916a2.067,2.067,0,0,1,.455-2.584,82.935,82.935,0,0,1,19.836-16.014,3.008,3.008,0,0,1,.721-.164l.238,1.336,1.87.167a12.871,12.871,0,0,0,.436-1.394,4.4,4.4,0,0,1,3.259-3.263c4.062-1.39,8.113-2.813,12.248-4.1a.788.788,0,0,1,.86,1.234c-3.5,4.351-4.244,9.707-4.857,15.092a2.24,2.24,0,0,1-1.729,2.15c-2.757,1.136-5.441,2.45-8.131,3.746l.248,1.9c1.729.329,3.46.656,5.153,1.119,3.455.944,3.343,1.02,2.968,4.625-.4,3.886-.647,7.789-.951,11.721a.793.793,0,0,1-.7.724l-8.61.943-.063,1.919,8.4,1.485a.794.794,0,0,1,.65.846c-.509,5.983-1,11.758-1.482,17.423a.789.789,0,0,1-.964.7l-9.633-2.2-.146.487,1.17.539a46.018,46.018,0,0,1,4.263,1.991c3.156,1.865,5.259,4.04,4.133,8.37-1.529,5.887-2.392,11.947-3.57,17.928a13.3,13.3,0,0,1-.56,1.8.792.792,0,0,1-.93.508l-10.736-2.6a.787.787,0,0,0-.71,1.353,31.6,31.6,0,0,0,10.152,5.647.79.79,0,0,1,.488.989,91.474,91.474,0,0,1-10.7,22.675.791.791,0,0,1-1.091.212,58,58,0,0,0-19.667-8.352.786.786,0,0,1-.6-.945c.92-3.967,1.756-7.807,2.731-11.609,3.354-13.074,6.522-26.2,10.226-39.178a175.437,175.437,0,0,1,13.9-33.368c3.445-6.547,7.4-12.824,11.127-19.226a1.845,1.845,0,0,0,.268-1.228,5.434,5.434,0,0,0-.876.755,218.556,218.556,0,0,0-26.6,45.809c-7.807,18.223-12.955,37.007-12.323,57.048A3.311,3.311,0,0,1,1847.918,5012.8Z" transform="translate(-1680.892 -4899.057)" fill="#007651"/>
          <path id="路径_1484" data-name="路径 1484" d="M1713.711,5042.659c-.712-.5-1.437-.986-2.19-1.42-6.012-3.466-12.031-6.929-18.18-10.142a5.546,5.546,0,0,1-3.173-3.828c-.165-.652-.356-1.3-.575-2a.788.788,0,0,0-1.513.034l-.609,2.31a.787.787,0,0,1-.99.551c-1.965-.59-3.887-1.144-5.767-1.812a1.932,1.932,0,0,1-.837-1.342,49.334,49.334,0,0,0-4.637-13.157.789.789,0,0,0-1.5.343v11.459a.785.785,0,0,1-.842.785c-3.4-.251-6.883-.485-10.35-.833-.424-.043-.932-.789-1.13-1.313a63.1,63.1,0,0,0-8.413-15.287,11.235,11.235,0,0,0-1.79-1.886,54.182,54.182,0,0,1,4.343,17.915.791.791,0,0,1-.713.831,61.722,61.722,0,0,0-30.257,11.053.786.786,0,0,1-1.247-.584,53,53,0,0,1,1.355-15.251l-.56-.146a68.213,68.213,0,0,0-2.373,7.56c-.7,3.523-.958,7.132-1.456,10.7a3.669,3.669,0,0,1-.653,1.737c-3.4,4.242-6.844,8.444-10.278,12.658-.092.113-.187.225-.3.362a.789.789,0,0,1-1.326-.213c-1.276-3.076-2.52-5.913-3.555-8.824-.839-2.364-1.538-4.777-2.228-7.14a.788.788,0,0,0-1.528.06c-1.234,6.167-.122,14.038,3.234,21.525a.781.781,0,0,1-.224.937l-3.993,3.165a.786.786,0,0,1-1.187-.258,81.5,81.5,0,0,0-24.6-29.274.786.786,0,0,1,0-1.276c2.8-1.995,5.455-3.958,8.208-5.776,8.919-5.893,17.678-12.064,26.883-17.477a85.751,85.751,0,0,1,35.555-11.876,57.937,57.937,0,0,1,34.519,7.045c13.067,7.288,22.826,17.931,30.993,30.207,1.855,2.788,3.6,5.646,5.358,8.5Z" transform="translate(-1382.73 -4907.185)" fill="#007651"/>
          <path id="路径_1485" data-name="路径 1485" d="M1842.876,5016.971a.787.787,0,0,1-1.165.873c-4.941-2.932-9.416-5.663-13.989-8.218a117.794,117.794,0,0,0-36.144-13.408c-3.983-.736-8.079-.844-12.108-1.366a4.83,4.83,0,0,1-2.416-1.208c-3.268-2.938-3.107-6.387-1.817-10.307a62.288,62.288,0,0,1,9.122-17.792.785.785,0,0,0-1.022-1.149,56.439,56.439,0,0,0-15.573,14.019.788.788,0,0,1-1.2.046c-1.792-1.955-1.728-2.231-.432-4.79,1.41-2.781,2.912-5.515,4.384-8.229a.789.789,0,0,0-1.071-1.067c-2.169,1.173-3.974,3.255-6.665,7.508a.788.788,0,0,1-1.245.115c-1.814-1.967-3.625-3.908-5.366-5.911a2.607,2.607,0,0,1-.325-1.65c.226-6.183,3.881-16.472,7.814-22.011a.778.778,0,0,1,1-.229c2.235,1.184,4.525,2.348,6.753,3.622a185.358,185.358,0,0,1,35.937,27.055q8.684,8.287,17.267,16.684c6.45,6.324,11.035,13.986,15.387,21.8q1.438,2.579,2.734,5.236A2.105,2.105,0,0,1,1842.876,5016.971Z" transform="translate(-1677.511 -4902.696)" fill="#007651"/>
        </g>
      </g>
      <g id="_5gUDqE-3" data-name="5gUDqE" transform="translate(245.418 160.634)">
        <g id="组_115" data-name="组 115">
          <path id="路径_1486" data-name="路径 1486" d="M1492.363,5101.853l-5.06-.236a.821.821,0,0,0-.448,1.531,31.973,31.973,0,0,1,4.093,2.685c5.165,4.151,8.008,9.76,9.5,16.153,1.685,7.221,1.264,14.468.816,22.054a.822.822,0,0,1-1.385.547c-4.284-3.93-8.969-5.5-14.715-3.9a.826.826,0,0,0-.172,1.519c5.369,2.934,10.408,5.723,15.5,8.4a3.433,3.433,0,0,1,2.161,3.3,125.621,125.621,0,0,1-18.874,71.244c-.14.228-.282.456-.424.683l-2.052-.6a20.451,20.451,0,0,0-.1-2.775c-.724-6.151-3.591-11.454-7.055-16.425-4.654-6.68-9.978-12.944-14.122-19.917-8.837-14.869-9.009-30.519-2.624-46.4a1.756,1.756,0,0,0,.163-1.192l-9.25,13.217-2.037-.9c.424-1.859.86-3.716,1.364-5.554.924-3.363,1.954-6.7,3.11-9.992q1.7-4.837,3.765-9.542c.69-1.574,1.434-3.124,2.166-4.691a.822.822,0,0,0-1.357-.9q-8.32,9.281-16.645,18.566a.825.825,0,0,1-1.242-.018c-7.843-9.121-12.488-29.622-1.969-47.654a.82.82,0,0,0-1.225-1.047c-1.3,1.035-2.6,2.06-3.924,3.056-2.361,1.775-4.793,3.457-7.442,5.073a.824.824,0,0,1-1.249-.7,167.6,167.6,0,0,1,1.809-26.779c1.366-8.937,3.436-17.766,5.246-26.681a.822.822,0,0,0-.877-.984l-10.916.979a.823.823,0,0,1-.632-1.424c2.723-2.509,5.342-4.869,7.816-7.373,4.381-4.435,8.612-9.021,12.9-13.549,1.488-1.572,2.743-1.676,3.967.186,3.566,5.427,7.33,10.775,10.33,16.514,6.76,12.931,10.673,26.9,14.239,41,5.408,21.374,8.409,43.139,10.886,64.986,1.875,16.543,3.4,33.127,5.087,49.691.029.28.191.547.663.764,0-1.047.049-2.1-.008-3.143-.947-17.25-1.627-34.521-2.938-51.744-1.467-19.266-3.688-38.468-7.046-57.515-3.063-17.37-8.587-33.826-18.571-48.519-2.406-3.541-5.215-6.81-7.9-10.083a.824.824,0,0,1,.9-1.3,50.438,50.438,0,0,1,11.672,5.69,75.559,75.559,0,0,1,26.835,30.226c2.133,4.32,3.04,9.355,3.894,14.174,1.639,9.231,2.841,18.54,4.212,27.819a3.858,3.858,0,0,1,.025.673A.827.827,0,0,1,1492.363,5101.853Z" transform="translate(-1262.162 -4894.125)" fill="#005951"/>
          <path id="路径_1487" data-name="路径 1487" d="M1545.038,5361.581h-37.379a.826.826,0,0,1-.824-.8c-3.127-105.807,23.485-202.743,83.206-290.034l2.012.892c-.611,2.537-1.223,5.073-1.866,7.6a57.908,57.908,0,0,0-2.074,16.25,6.545,6.545,0,0,1-.7,2.9c-5.812,12.165-11.88,24.212-17.461,36.48a318.643,318.643,0,0,0-15.159,41.384,288.485,288.485,0,0,0-9.486,43.286,418.672,418.672,0,0,0-3.782,64.387c.384,20.138,1.708,40.259,2.739,60.382.249,4.852.98,9.678,1.475,14.519.062.611.09,1.228.121,1.892A.826.826,0,0,1,1545.038,5361.581Z" transform="translate(-1434.432 -4898.377)" fill="#754c24"/>
          <path id="路径_1488" data-name="路径 1488" d="M1662.572,5013.064a.825.825,0,0,1,.206,1.2c-2.52,3.243-4.988,6.4-7.425,9.575-1.458,1.9-2.769,3.923-4.323,5.739a6.264,6.264,0,0,1-2.866,1.982c-2.988.806-6.034,1.4-9.214,2.079a.823.823,0,0,1-.992-.888c.275-2.541.6-5.007.743-7.442a.82.82,0,0,0-1.611-.262,44.78,44.78,0,0,1-2.907,7.772,4.619,4.619,0,0,1-2.974,2.246,255.959,255.959,0,0,1-46.648,3.8,7.031,7.031,0,0,1-.81-.064.824.824,0,0,1-.72-.9c.681-6.462,1.356-12.871,2.031-19.273l-2.046-.855a46.5,46.5,0,0,0-3.585,4.767,35.021,35.021,0,0,0-5.621,20.075,2.246,2.246,0,0,1-1.591,2.451q-13.456,6.107-26.876,12.3c-3.952,1.823-7.89,3.68-11.792,5.605a2.684,2.684,0,0,1-3.372-.828,46.1,46.1,0,0,1-8.58-22.933c-.052-.545-.086-1.094-.15-1.638a5.37,5.37,0,0,0-.536-.9c-.358,2.963-.808,5.4-.919,7.854a90.97,90.97,0,0,0,1.822,22.9,3.428,3.428,0,0,1-1.263,3.871,103.189,103.189,0,0,0-27.532,35.907,1.534,1.534,0,0,1-.168.274.834.834,0,0,1-.718.337l-.161-.01c-.078-4.978-.416-9.968-.186-14.932a103.689,103.689,0,0,1,13.014-45.846c10.936-19.784,26.232-35.108,46.843-44.87a92.931,92.931,0,0,1,33.213-8.583c4.34-.323,8.758.311,13.135.589,10.2.648,20.358,1.544,30.216,4.5a195.515,195.515,0,0,1,34.035,14.216C1662.351,5012.93,1662.461,5012.994,1662.572,5013.064Z" transform="translate(-1491.707 -4891.847)" fill="#005951"/>
          <path id="路径_1489" data-name="路径 1489" d="M1586.286,5001.2c-2.045-5.242-3.931-10.51-6.139-15.638-4.055-9.416-10.513-17.082-17.9-24.059a247.746,247.746,0,0,0-35.853-28.083c-14.937-9.635-30.955-16.654-48.514-19.909-.874-.162-1.744-.345-2.62-.5-.114-.019-.247.074-.934.3a136.1,136.1,0,0,1,26.14,9.232.823.823,0,0,1,.063,1.447c-6.572,3.9-12.239,8.417-15.194,15.713a.819.819,0,0,1-1.235.349c-1.658-1.182-3.218-2.37-4.905-3.336-4.571-2.616-9.191-5.154-13.875-7.558a2.181,2.181,0,0,1-1.417-2.317,28.593,28.593,0,0,1,2.214-11.128.82.82,0,0,0-1.287-.945c-1.872,1.653-3.679,4.793-6.553,11.006a.823.823,0,0,1-.95.453c-3.984-1.021-8.049-1.877-11.954-3.2-4.3-1.46-8.569-2.356-13.1-1.694a5.838,5.838,0,0,1-1.005-.072,28.372,28.372,0,0,1,13.156-10.658c10.431-4.2,21.26-4.8,32.325-3.751a138.1,138.1,0,0,1,26.374,5.029,143.571,143.571,0,0,1,28.667,11.661,103.093,103.093,0,0,1,29,23.634c4.365,5.139,8.3,10.643,12.331,16a.822.822,0,0,0,1.48-.493v-1.777l2.085-.925.083.076,1.405-1.231q-.919-1.333-1.809-2.685a4.316,4.316,0,0,1-.758-2.618,80.791,80.791,0,0,1,8.934-28.487.821.821,0,0,1,1.424-.04,22.594,22.594,0,0,0,6.844,7.238.821.821,0,0,0,1.06-1.239,29.127,29.127,0,0,1-4.717-6.691c-.123-.244-.281-.47-.418-.707-1.257-2.188-1.521-4.2.368-6.329a48.405,48.405,0,0,0,3.634-5.016.827.827,0,0,1,1.208-.17l2.274,1.88,1.712-1.254c-.414-1.021-.836-2.039-1.284-3.044a2.157,2.157,0,0,1,.475-2.7,86.6,86.6,0,0,1,20.708-16.719,3.206,3.206,0,0,1,.751-.171l.249,1.4,1.952.174a13.137,13.137,0,0,0,.454-1.456,4.593,4.593,0,0,1,3.4-3.405c4.24-1.451,8.47-2.937,12.787-4.283a.823.823,0,0,1,.9,1.288c-3.651,4.541-4.431,10.133-5.071,15.755a2.34,2.34,0,0,1-1.805,2.246c-2.878,1.186-5.68,2.556-8.488,3.909l.259,1.988c1.805.344,3.612.686,5.38,1.168,3.606.985,3.489,1.066,3.1,4.829-.422,4.057-.676,8.132-.993,12.237a.827.827,0,0,1-.733.755l-8.99.983-.065,2,8.768,1.55a.83.83,0,0,1,.679.884c-.532,6.246-1.045,12.274-1.548,18.188a.824.824,0,0,1-1.006.728l-10.057-2.3-.152.509,1.222.562a48.306,48.306,0,0,1,4.45,2.078c3.3,1.947,5.489,4.217,4.316,8.737-1.6,6.146-2.5,12.473-3.726,18.716a14.088,14.088,0,0,1-.586,1.883.827.827,0,0,1-.97.53l-11.207-2.712a.822.822,0,0,0-.742,1.412,32.983,32.983,0,0,0,10.6,5.895.824.824,0,0,1,.509,1.033,95.492,95.492,0,0,1-11.17,23.671.824.824,0,0,1-1.139.222,60.577,60.577,0,0,0-20.531-8.719.821.821,0,0,1-.624-.986c.961-4.142,1.833-8.149,2.851-12.12,3.5-13.648,6.809-27.354,10.676-40.9a183.085,183.085,0,0,1,14.512-34.833c3.6-6.835,7.729-13.388,11.616-20.071a1.928,1.928,0,0,0,.279-1.283,5.664,5.664,0,0,0-.915.788,228.159,228.159,0,0,0-27.764,47.822c-8.151,19.024-13.524,38.633-12.864,59.555A3.532,3.532,0,0,1,1586.286,5001.2Z" transform="translate(-1411.92 -4882.464)" fill="#005951"/>
          <path id="路径_1490" data-name="路径 1490" d="M1446.182,5032.375c-.744-.524-1.5-1.028-2.286-1.481-6.276-3.619-12.56-7.234-18.978-10.588a5.788,5.788,0,0,1-3.313-4c-.172-.681-.373-1.354-.6-2.084a.822.822,0,0,0-1.579.035l-.635,2.411a.823.823,0,0,1-1.033.576c-2.052-.617-4.057-1.194-6.021-1.892a2.018,2.018,0,0,1-.873-1.4,51.542,51.542,0,0,0-4.841-13.735.823.823,0,0,0-1.563.358v11.962a.819.819,0,0,1-.879.819c-3.552-.262-7.185-.505-10.805-.87-.442-.045-.973-.824-1.179-1.37a65.829,65.829,0,0,0-8.783-15.96,11.733,11.733,0,0,0-1.869-1.968,56.522,56.522,0,0,1,4.534,18.7.825.825,0,0,1-.744.867,64.426,64.426,0,0,0-31.586,11.538.821.821,0,0,1-1.3-.609,55.348,55.348,0,0,1,1.414-15.921l-.585-.152a71.528,71.528,0,0,0-2.477,7.892c-.726,3.678-1,7.445-1.519,11.167a3.837,3.837,0,0,1-.682,1.813c-3.547,4.429-7.144,8.816-10.729,13.215-.1.119-.2.235-.318.377a.823.823,0,0,1-1.384-.223c-1.332-3.211-2.631-6.172-3.71-9.21-.876-2.467-1.606-4.988-2.326-7.454a.823.823,0,0,0-1.6.063c-1.287,6.438-.126,14.654,3.377,22.47a.818.818,0,0,1-.234.979l-4.17,3.3a.82.82,0,0,1-1.239-.27c-6.357-12.316-14.65-22.524-25.678-30.56a.82.82,0,0,1,0-1.332c2.92-2.083,5.7-4.132,8.569-6.031,9.31-6.151,18.455-12.595,28.064-18.243a89.5,89.5,0,0,1,37.118-12.4,60.481,60.481,0,0,1,36.036,7.354c13.641,7.609,23.829,18.719,32.355,31.534,1.936,2.91,3.763,5.894,5.594,8.875Z" transform="translate(-1100.656 -4890.949)" fill="#005951"/>
          <path id="路径_1491" data-name="路径 1491" d="M1581.023,5005.559a.821.821,0,0,1-1.217.91c-5.158-3.059-9.83-5.91-14.6-8.578a122.957,122.957,0,0,0-37.733-14c-4.158-.768-8.434-.88-12.64-1.425a5.038,5.038,0,0,1-2.522-1.263c-3.412-3.066-3.244-6.666-1.9-10.76a65.005,65.005,0,0,1,9.522-18.573.82.82,0,0,0-1.067-1.2,58.958,58.958,0,0,0-16.258,14.635.822.822,0,0,1-1.253.047c-1.87-2.04-1.8-2.328-.451-5,1.471-2.9,3.04-5.759,4.577-8.591a.824.824,0,0,0-1.118-1.115c-2.265,1.225-4.149,3.4-6.958,7.839a.823.823,0,0,1-1.3.119c-1.893-2.053-3.786-4.078-5.6-6.169a2.725,2.725,0,0,1-.339-1.724c.236-6.455,4.051-17.2,8.156-22.978a.813.813,0,0,1,1.046-.239c2.333,1.235,4.724,2.451,7.049,3.781a193.479,193.479,0,0,1,37.517,28.243q9.066,8.653,18.026,17.417c6.733,6.6,11.52,14.6,16.063,22.758q1.5,2.693,2.854,5.465A2.3,2.3,0,0,1,1581.023,5005.559Z" transform="translate(-1408.391 -4886.262)" fill="#005951"/>
        </g>
      </g>
    </g>
    <path id="路径_1503" data-name="路径 1503" d="M1352.108,9.758C1192.5-2.188,945.344-9.6,654.113,27.2,358.881,64.507,137.071,132.249,0,182.234c133.874,25.3,306.961,49.761,511.313,58.8,108.5,4.8,280.046,11.745,492.889-10.692,54.162-5.71,95.985-10.346,140.851-18.557,38.626-7.068,34.523-8.759,50.286-10.455,92.76-9.972,158.14,43.417,191.631,29.821,18.392-7.467,16.346-30.741,5.135-44.7-10.566-13.155-24.576-12.188-38.123-23.1-26.432-21.292.334-46.383,4.743-94.608C1359.929,55.561,1359.96,35.219,1352.108,9.758Z" transform="matrix(0.996, 0.087, -0.087, 0.996, 2181.518, 766.581)" fill="#ebe0bc"/>
    <g id="组_125" data-name="组 125" transform="translate(2675.001 417.443)">
      <path id="路径_1465" data-name="路径 1465" d="M1000.338,7698c-11.956,0-21.919,8.966-23.911,29.889-.736,7.726-.925,14.223.079,19.453l-.694-.164s-11.34,27.536-18.314,28.532,33.874,15.941,33.874,4.981a120.653,120.653,0,0,1,1.934-18.2c.663.1,1.341.2,2.051.271,18.93,1.992,20.922-4.982,25.9-22.915S1012.293,7698,1000.338,7698Z" transform="translate(-888.752 -7673.383)" fill="#ffd394"/>
      <path id="路径_1466" data-name="路径 1466" d="M1081.481,7816.978c1.993-1.992,4.981-4.981,7.97-4.981s10.959,1.992,12.952,1,9.963-2.988,10.959-1-6.974,10.959-9.963,10.959-9.963-2.989-11.955-1.992-2.989,4.982-2.989,4.982l-11.956-2.99Z" transform="translate(-889.196 -7673.802)" fill="#ffd394"/>
      <path id="路径_1467" data-name="路径 1467" d="M892.493,8146.958c1.992-2.99,13.948-3.986,15.941-3.986s15.941-6.974,18.93-6.974,11.956-1.992,14.944,1.992,1,11.955-2.989,14.945c-4.064,3.048-16.937,7.97-22.915,8.967-5.9.981-19.926,2.988-22.915,0C887.511,8155.923,892.493,8146.958,892.493,8146.958Z" transform="translate(-888.508 -7675.002)" fill="#bac8e0"/>
      <path id="路径_1468" data-name="路径 1468" d="M1007.161,7692.927a53.417,53.417,0,0,0-13.948,0c-7.97,1-11.956,7.97-16.937,9.963-2.664,1.065-5.713,2.26-8.531,3.355-7.468.853,9.03-19.629.561-25.274-8.967-5.978-18.93-10.959-30.885-4.981s-27.9,19.925-18.93,24.907,16.937-2.988,21.919,0-.3,4.683,3.985,8.967c2.989,2.988,10.561-2.54,13.948,0,0,0,7.97,6.974,1,18.93a22.561,22.561,0,0,0,2.989,25.9c7.97,8.966,11.955-3.986,14.944,0s9.963,2.988,16.937-1,11.956-12.953,6.974-11.957-4.982-8.966-2.989-11.955,2.989-3.984,8.967-1.992,7.97,1,14.944-7.97S1018.12,7696.913,1007.161,7692.927Z" transform="translate(-888.601 -7673.292)" fill="#0c2e5a"/>
      <path id="路径_1469" data-name="路径 1469" d="M959.493,8151.957c1.993-2.99,13.948-3.985,15.941-3.985s15.941-6.975,18.93-6.975,11.955-1.991,14.944,1.992,1,11.956-2.989,14.945c-4.064,3.048-16.937,7.97-22.915,8.966-5.9.982-19.926,2.989-22.915,0C954.511,8160.923,959.493,8151.957,959.493,8151.957Z" transform="translate(-888.756 -7675.021)" fill="#bac8e0"/>
      <path id="路径_1470" data-name="路径 1470" d="M897.51,7897.545c2.738-4.564,24.647-.913,24.647-.913l41.079,6.389s23.619,8.106,23.734,11.868c.3,9.822-.913,30.125,0,35.6,1.826,10.954,9.129,75.347,9.129,83.072,0,11.867-8.215,115.021-17.344,117.76s-17.344,5.478-21-.912,4.564-100.416.912-115.936c-2.438-10.363-19.17-84.9-23.735-72.116s9.129,62.987,5.478,73.942c-3.175,9.526-13.693,105.893-18.257,108.631-4.7,2.818-23.735,6.391-24.647-4.564-.922-11.066,10.954-98.589,10.954-105.893s-24.647-72.116-19.171-99.5C892.181,7920.539,897.51,7897.545,897.51,7897.545Z" transform="translate(-888.5 -7674.113)" fill="#7f3344"/>
      <path id="路径_1471" data-name="路径 1471" d="M1081.815,7821.821c-2.989-2.988-1-4.981-1-4.981s-22.915-1-30.885-3.984c-7.286-2.732-19.926-10.96-30.885-15.941s-13.948-13.947-20.922-16.937-14.945,0-24.907-1-16.937-8.966-31.882-2.988c-13.752,5.5-30.885,34.87-32.878,48.818-1,6.975-10.959,50.812-10.959,66.753s81.7,26.9,87.674,20.922c3.474-3.475-5.505-28.04-3.037-47.412a21.87,21.87,0,0,0,13-8.381c8.271-10.752,4.726-22.222,1.684-28.367,5.928,3.318,20.182,11.021,27.209,12.427,9.963,1.991,23.589,2.557,31.882-1,6.974-2.989,31.881-13.947,31.881-13.947A17.1,17.1,0,0,1,1081.815,7821.821Z" transform="translate(-888.533 -7673.664)" fill="#bac8e0"/>
    </g>
    <g id="组_126" data-name="组 126" transform="translate(3191.286 378.911)">
      <path id="路径_1456" data-name="路径 1456" d="M1587.8,8165.958c-1.992-2.989-13.948-3.985-15.941-3.985s-15.941-6.974-18.93-6.974-11.956-1.994-14.945,1.991-1,11.956,2.989,14.945c4.065,3.048,16.937,7.97,22.915,8.966,5.9.982,19.926,2.99,22.915,0C1592.782,8174.923,1587.8,8165.958,1587.8,8165.958Z" transform="translate(-1438.686 -7654.541)" fill="#bac8e0"/>
      <path id="路径_1457" data-name="路径 1457" d="M1520.8,8170.957c-1.993-2.988-13.948-3.985-15.941-3.985s-15.941-6.974-18.93-6.974-11.956-1.993-14.945,1.992-1,11.956,2.989,14.944c4.065,3.048,16.937,7.971,22.915,8.967,5.9.982,19.926,2.989,22.915,0C1525.782,8179.924,1520.8,8170.957,1520.8,8170.957Z" transform="translate(-1438.438 -7654.559)" fill="#bac8e0"/>
      <path id="路径_1458" data-name="路径 1458" d="M1496.469,7802.776c-1.992,19.927,10.112,36.613,11.956,45.83,1.993,9.963-30.885,56.789-16.937,61.771s35.866,11.956,49.815,9.964,50.811,1.992,49.815-9.964-15.941-46.825-15.941-57.785,12.952-33.874,13.948-49.815,1-58.78-6.974-59.776-28.893,1-36.863,0S1496.469,7802.776,1496.469,7802.776Z" transform="translate(-1438.506 -7653.017)" fill="#ec8c69"/>
      <path id="路径_1459" data-name="路径 1459" d="M1508.5,7700.921c-1.711,12.839,3.985,31.882,21.919,31.882s27.9-11.956,26.9-23.911S1547.354,7680,1533.406,7680,1510.491,7685.977,1508.5,7700.921Z" transform="translate(-1438.581 -7652.784)" fill="#ffd394"/>
      <path id="路径_1460" data-name="路径 1460" d="M1532.373,7661.965c8.035-2.983,8.967-10.96,20.922-8.968s32.878,6.976,33.874,26.9,1,26.9,5.978,36.864c5.08,10.159,13.948,11.955,13.948,25.9s-8.52,27.839-7.97,33.874c1,10.96,22.915,23.911,16.937,40.849s-15.941,24.906-48.819,21.919-54.8-12.952-53.8-31.883,9.963-21.917,13.948-34.87,1-16.937-4.982-22.915-10.382-15.679-6.974-25.9c1.993-5.978,13.068-14.027,18.93-17.934,5.978-3.985,12.952-5.978,9.963-11.955-4.108-8.217-23.911,1.992-29.889,1-5.366-.895-14.471-6.077-15.941-11.955-1.993-7.972,7.4-14.718,12.952-16.937C1516.432,7663.957,1528.4,7663.441,1532.373,7661.965Z" transform="translate(-1438.544 -7652.682)" fill="#6a85b6"/>
      <path id="路径_1461" data-name="路径 1461" d="M1454.131,7771.82s-2.92-15.7-.435-20.02,11.891-9.481,8.924-9.119l-4.945.6c-.989.122-4.2-1.494-4.68-5.45s-.1-9.021,2.87-9.384,4.945-.6,4.7-2.581-1.472-3.835-5.428-3.353a19.926,19.926,0,0,0-8.659,3.063c-1.857,1.231-8.419,5.043-7.694,10.977s5.357,27.45,4.1,33.625S1454.131,7771.82,1454.131,7771.82Z" transform="translate(-1438.324 -7652.941)" fill="#ffd394"/>
      <path id="路径_1462" data-name="路径 1462" d="M1447.109,7763.794c5.813-1.711,14.328,2.268,16.042,8.081s10.484,42.856,10.219,48.911,1,15.94-4.005,19.929c-6.115,4.875-13.591,2.318-16.654-6.342s-15.659-54.3-14.284-59.481S1443.22,7764.941,1447.109,7763.794Z" transform="translate(-1438.322 -7653.093)" fill="#ec8c69"/>
      <path id="路径_1463" data-name="路径 1463" d="M1511.3,7741.978a80.988,80.988,0,0,0-19.926,25.9c-4.981,9.964-25.9,43.838-28.893,52.8-2.541,7.62-9.319,18.778-1.992,21.918,6.974,2.989,13.1-4.814,19.926-10.958,9.963-8.968,38.856-50.812,42.841-55.793,4.235-5.294,13.948-20.923,12.952-25.9S1534.214,7736,1527.24,7736,1517.276,7737,1511.3,7741.978Z" transform="translate(-1438.392 -7652.991)" fill="#ec8c69"/>
      <path id="路径_1464" data-name="路径 1464" d="M1588.23,7896.994c-2.989-4.979-26.9,5.978-26.9,5.978l-44.833,6.976s-27.9-3.11-28.026,1c-.328,10.721.129,37.858-.867,43.836-1.992,11.957-6.974,82.232-6.974,90.663,0,12.953,8.967,125.534,18.93,128.523s18.929,5.978,22.915-1-4.982-109.594-1-126.529c2.661-11.312,15.811-104.612,20.793-90.663s-4.852,80.7-.867,92.655c3.466,10.4,14.944,115.57,19.926,118.56,5.126,3.074,25.9,6.974,26.9-4.981,1.006-12.08-11.956-107.6-11.956-115.57s26.9-78.708,20.922-108.6C1594.047,7922.091,1588.23,7896.994,1588.23,7896.994Z" transform="translate(-1438.479 -7653.583)" fill="#6a85b6"/>
    </g>
  </g>
</svg>
