<?xml version="1.0" encoding="utf-8"?>
<!-- Generator: Adobe Illustrator 23.0.4, SVG Export Plug-In . SVG Version: 6.00 Build 0)  -->
<svg version="1.1" id="Layer_1" xmlns="http://www.w3.org/2000/svg" xmlns:xlink="http://www.w3.org/1999/xlink" x="0px" y="0px"
	 viewBox="0 0 1280 240" style="enable-background:new 0 0 1280 240;" xml:space="preserve">
<style type="text/css">
	.st0{clip-path:url(#SVGID_2_);}
	.st1{clip-path:url(#SVGID_4_);}
	.st2{fill:#FFFFFF;}
	.st3{opacity:2.000000e-03;fill:#4497FF;enable-background:new    ;}
	.st4{opacity:0.5;}
	.st5{opacity:0.401;clip-path:url(#SVGID_6_);}
	.st6{fill:#FDA2A2;}
	.st7{fill:#96C5FF;}
	.st8{fill:#0C2E5A;stroke:#0C2E5A;stroke-width:3;stroke-miterlimit:10;}
	.st9{fill:#0C2E5A;stroke:#0C2E5A;stroke-width:5;stroke-miterlimit:10;}
	.st10{opacity:0.399;}
	.st11{fill:#EBE0BC;}
	.st12{opacity:0.3;}
	.st13{fill:#005951;}
	.st14{fill:#754C24;}
	.st15{fill:#007651;}
	.st16{fill:#FFD394;}
	.st17{fill:#BAC8E0;}
	.st18{fill:#0C2E5A;}
	.st19{fill:#7F3344;}
	.st20{fill:#EC8C69;}
	.st21{fill:#6A85B6;}
</style>
<g>
	<defs>
		<rect id="SVGID_1_" width="1280" height="240"/>
	</defs>
	<clipPath id="SVGID_2_">
		<use xlink:href="#SVGID_1_"  style="overflow:visible;"/>
	</clipPath>
	<g class="st0">
		<defs>
			<rect id="SVGID_3_" x="-8.1" y="-85.4" width="1288.1" height="349.6"/>
		</defs>
		<clipPath id="SVGID_4_">
			<use xlink:href="#SVGID_3_"  style="overflow:visible;"/>
		</clipPath>
		<g id="header_2" class="st1">
			<rect x="-8.1" y="-85.4" class="st2" width="1288.1" height="349.6"/>
			<path id="路径_1500" class="st3" d="M-8.1,176.2c0,0,14,8.1,205.6,0c75-3.2,236.9-53,450.8-51.4s270.1,31.5,403.8,29.5
				c133.7-2,227.3-29.5,227.3-29.5v139.5H-8.1V176.2z"/>
			<g class="st4">
				<defs>
					<rect id="SVGID_5_" x="382.3" y="13.5" class="st4" width="919.2" height="218.9"/>
				</defs>
				<clipPath id="SVGID_6_">
					<use xlink:href="#SVGID_5_"  style="overflow:visible;"/>
				</clipPath>
				<g id="蒙版组_4" transform="translate(1888 263.834)" class="st5">
					<path id="路径_1501_2_" class="st6" d="M-1512.7-73.6v-22.2h-17.2v-6.1h-36v-39.3h-33.4v10.8h-6.6v34.6h-5.1v-6.1h-19.8
						v-55.3h-7.6v-6.5h-9.1v-6.1h-28.9v6.1h-7.6v6.5h-6.1v86h-15.7v-131.4h-6.1v-8.6h-32.9l0.1,0l0,0h32.9l-20.7-33.6l0.1-0.2
						l-0.1,0l0,0l0,0l-49.8,11.5l-17,31l-0.1,0v8.3l-5.2,0.8v66.7h-46.1v32h-6.6v-11.7h-11.1v11.7h-6.6v-124l0.1,0l-23.7-59.7
						l-48.6,7.8l-29.7,63.6h0v110.2h-6.1v-8.2h-16.4v-25.6h-10.7v-35.6c0-0.1,0-0.3,0-0.4c0-7.9-5.6-14.6-13.7-17.5v-7.9
						c0-3.1-2.3-5.8-5.6-6.8v-6.9h-6.7v7.2c-2.8,1.2-4.7,3.6-4.7,6.5v8c-7.8,2.9-13.3,9.6-13.2,17.4c0,0.1,0,0.1,0,0.2h0v35.8h-12.8
						l-7.8,10.3l-59.5-24.8v-13.9h-8.6v13.9l-59.5,24.8l-7.8-10.3h-12.8v-35.8h0c0-0.1,0-0.1,0-0.2c0.1-7.8-5.4-14.5-13.2-17.4v-8
						c0-2.8-1.9-5.3-4.7-6.5v-7.2h-6.7v6.9c-3.3,1-5.6,3.7-5.6,6.8v7.9c-8,2.8-13.7,9.6-13.7,17.5c0,0.2,0,0.4,0,0.5v35.5h-10.7
						v33.8h-9.1v-64h-100.8v64h-8.7v-99.4h-13.7v-9.5l-9.6-9.6h-11.1l-14.9,14.1v8.7l0.1,0.1v9.2h-9.1v81.3h-8.6v-8.2h-6.1v8.2h-4.1
						v-48.8h-0.1c0-4.8-3.1-10.6-11.5-14.9c-5.9-3-14.2-3.7-18.8-1.8v-18.8h-0.2c0-0.1,0-0.2,0-0.3c-0.2-4.9-3.9-11.1-13.1-15.9
						c-8.6-4.4-21.7-4.7-23.5,0.2h-0.2v1c0,0.1,0,0.2,0,0.3c0,0.1,0,0.2,0,0.3v38.7c-2.1-2.7-5-5-8.5-6.8c-8.4-4.3-22-3.8-22.2,2.2
						c-0.1,1.4,0.1,2.8,0.5,4.1h-0.3v60.5h-9.6v-131.8h0.1l-8.1-13.2l-28.5-16.6l-31.8,19.5l-6.5,10.4h0.4v162.5h-5.6v-109.8h-5.6
						v-4.3h-49.1v4.3h-6.6v119.7l0,0v-25.5h-5.1v-107.2h-51.2v94.2h-23.3v-7.8h-22.3v7.8h-8.6v-94.2h4.6v-10.8h-11.7v-12.5h-21.3
						v12.5h-11.1v10.8h5.1v107.2h-13.2v-7.8h-6.6v-7.3h-9.1v7.3h-4.1v-112.8h2.5v-9.9h-5.1v-7.3h-2.5v-5.2h-20.3v5.2h-2.5v7.3h-0.1
						v-7.5l-23.9,15.8h0.2v122.3h-34.5v-5.2h-16.2v-19.5h-26.3v35.4h-5.6v-7.3h-12.2v7.3h-5.6v-7.3h-46.1v15.6h-5.6v-11.7h-11.7
						v11.7h-39v7.8h107.5V-40h-11.1v36.7"/>
					<path id="路径_1501_1_" class="st6" d="M-1395.1-40.3h-10.6v19.1h851.4v-19.1h-5.8v-10.4h56v-4.1h-20.3v-6.1h-6.1v6.1h-2.9
						v-8.1h-24v3.8h-2.9v-3.8h-6.3v3.8h-2.9v-18.5h-13.7v10.1h-8.5v2.7h-18v-63.7h0.1l-12.5-8.2v3.9h0v-3.8h-1.3v-2.7H-634v2.7h-1.3
						v3.8h-2.6v5.2h1.3v31.2c-4.6-1.5-10.4-2.8-17.2-3.9v-20.4h2.6v-5.6h-5.8v-6.5h-11.1v6.5h-6.1v5.6h2.4v18.1
						c-8.9-0.9-18.5-1.7-28.3-2.4v-15.7h-26.7v14l-2.6-0.2v-7h-3.4v-2.3h-25.6v2.3h-2.9v4.9c-1-0.1-1.9-0.1-2.9-0.2v-32.2h0.2
						l-3.4-5.4l-16.6-10.1l-14.9,8.7l-4.2,6.9h0.1v32.1c-2.9,0.1-5.8,0.2-8.8,0.3c-1.2-0.1-2.5,0-3.7,0.2c-2.7,0.1-5.5,0.3-8.3,0.4
						V-124c0-0.1,0-0.1,0-0.2c0-0.1,0-0.1,0-0.1v-0.5h-0.1c-0.9-2.5-7.8-2.4-12.3-0.1c-4.8,2.5-6.7,5.7-6.8,8.3c0,0.1,0,0.1,0,0.2
						h-0.1v9.6l-0.6,0c-2.2-0.6-5.5-0.4-8.1,0.6c-5.6,0.4-11.2,0.9-16.9,1.4v-10h-4.8v-4.8l0.1,0v-4.5l-7.8-7.3h-5.8l-5,5v5h-7.1
						v19.7c-1.5,0.2-3,0.3-4.5,0.5v-1.7h-52.6v7.3c-3.5,0.4-6.9,0.8-10.3,1.1v-11.2c0-0.1,0-0.2,0-0.3c0-4.1-2.9-7.6-7.1-9.1v-4.1
						c0-1.6-1.2-3-2.9-3.5v-3.6h-3.5v3.8c-1.6,0.8-2.5,2-2.5,3.4v4.2c-4.1,1.5-6.9,5-6.9,9.1c0,0,0,0.1,0,0.1h0v14
						c-9.7,1.1-19,2-28,2.9l-13.8-5.8v-7.2h-4.5v7.2l-22.1,9.2c-4,0.3-7.7,0.4-11.2,0.6l-1.7-2.3h-6.7v-18.7h0c0,0,0-0.1,0-0.1
						c0.1-4-2.8-7.5-6.9-9.1v-4.2c0.1-1.3-0.9-2.6-2.5-3.4v-3.8h-3.5v3.6c-1.7,0.5-2.9,1.9-2.9,3.5v4.1c-4.2,1.5-7.1,5-7.1,9.1
						c0,0.1,0,0.1,0,0.2v18.6h-5.6v0.8c-3.7-0.3-7.6-0.5-11.7-0.6v-39.9h0l-15.5-33.1l-25.3-4.1l-12.4,31.1l0.1,0v45.8
						c-11.9,0.3-24.2,0.8-36.7,1.4v-34.1l-2.7-0.4v-4.3l0,0l-8.8-16.2l-26-6l0,0l0,0l-0.1,0l0,0.1l-10.8,17.5h17.2v0l0,0h-17.1v4.5
						h-3.2v42.3c-2.7,0.2-5.5,0.4-8.2,0.7v-19.3h-3.2v-3.4h-4v-3.2h-15.1v3.2h-4.8v3.4h-4v22.1c-4.4,0.4-8.7,0.9-12.9,1.3v-9.4h-3.4
						V-93h-17.4v17.4c-9.8,1.1-56.3,11.2-64.9,12.4c-25.1,3.4-217.9,27.2-248.5,26.2"/>
				</g>
			</g>
			<path id="路径_1502" class="st7" d="M-8.1,202.6c0,0,90.6-11.8,317-12.9c226.3-1.1,348.4,20.8,596.2,21.2
				s374.9-40.6,374.9-40.6v93.8H-8.1V202.6z"/>
			<g id="组_122" transform="translate(2816.695 404.816)">
				<path id="路径_1454" class="st8" d="M-1590.6-298.6c-0.5-0.7-1.1-1.2-1.5-1.1l0,0l-46.7,28.8l1.8,3l46.7-28.8l0,0
					C-1590-297.1-1590.1-297.9-1590.6-298.6z"/>
				<path id="路径_1455" class="st9" d="M-1691.5-285.3c-19.6,12-25.6,37.7-13.6,57.2c12,19.6,37.7,25.6,57.2,13.6
					c19.6-12,25.6-37.7,13.6-57.2C-1646.4-291.2-1672-297.3-1691.5-285.3z M-1650.8-219.1c-17,10.5-39.2,5.2-49.7-11.8
					s-5.2-39.2,11.8-49.7c17-10.5,39.2-5.2,49.7,11.8c0,0,0,0,0,0C-1628.5-251.8-1633.8-229.6-1650.8-219.1L-1650.8-219.1z"/>
			</g>
			<g id="组_123" transform="translate(2729.048 105)" class="st10">
				<path id="路径_29" class="st6" d="M-1654-117.2c0.4-0.3-3.6-1.5-4-2.2c-0.4-0.7-0.1-1.7,0.9-2.7c0.9-1,4.2-2.9,5.5-2.9
					s-1.2-0.9-2.4-0.7s-5.6,1.5-5.6,1.5s0.3,2.7-1,3.7c-1.3,1-5.2,0.4-6.5,2.2c-1.3,1.8-1,6.6-1,6.6s2-4.4,3.8-5.5
					c1.8-1.1,2.8-1.3,4.7-1.1C-1657.7-118.1-1654.4-116.9-1654-117.2z"/>
				<path id="路径_30" class="st6" d="M-1503.3-151.1c-0.4,1.8,0.6,3.7,2.4,4.3c3.2,1.2,4.2,1.6,4.8,2.8c0.6,1.2,0,2.7,0,2.7
					s4-1.2,4.3-2.7c0.4-1.5-1.6-1.1-0.8-2.8c0.7-1.7,2.6-5,2.6-5s-4,3.8-4,5s-0.1,1.3-0.6,1.5c-0.5,0.2-1.3-1.7-4.7-2.5
					S-1503.3-151.1-1503.3-151.1z"/>
				<path id="路径_31" class="st6" d="M-1659.5-65.4c-0.7,0.7,0.9,1.3,2.3,2.1c1.4,0.7,1,2.1,2,2.9c1,0.8,2.3,0.9,3.4,1.3
					c1.1,0.5,1.3,1.8,1.3,1.8s1.4,0.7,2.5,0c0.7-0.4,1.2-1,1.4-1.8c0,0-2.1-1.7-3.1-1.8s2.1-10.1,3.6-11.5c1.5-1.5-0.8-1-1.8,0
					c-1,1-4.2,4.3-4.4,5.3c-0.1,1,0,2.1-0.6,2.9c-0.6,0.8-1.9,0.3-3,0S-1659.5-65.4-1659.5-65.4z"/>
				<path id="路径_32" class="st6" d="M-1563-119.3c0,0,1.4-4,3.6-4.3c2.2-0.3,2.2,1.4,4.4,0.7c2.2-0.7,4.4-3.7,4.4-3.7
					s6.2,0.8,7.7,1.5c1.6,0.7-5.8-0.7-7.3,0.6s-2.3,2.8-2.3,5.3s-1.5-3-4.6-2.3C-1559.2-121-1561.2-120.2-1563-119.3z"/>
				<path id="路径_34" class="st6" d="M-1670.8-6.8c0.4-0.3-3.6-1.5-4-2.2c-0.4-0.7-0.1-1.7,0.9-2.7c0.9-1,4.2-2.9,5.5-2.9
					c1.3,0-1.2-0.9-2.4-0.7c-1.2,0.2-5.6,1.5-5.6,1.5s0.3,2.7-1,3.7c-1.3,1-5.2,0.4-6.5,2.2c-1.3,1.8-1,6.6-1,6.6s2-4.4,3.8-5.5
					c1.8-1.1,2.8-1.3,4.7-1.1S-1671.2-6.6-1670.8-6.8z"/>
				<path id="路径_36" class="st6" d="M-1521.6-36.2c-0.7,0.7,0.9,1.3,2.3,2.1c1.4,0.7,1,2.1,2,2.9s2.3,0.9,3.4,1.3
					c1.1,0.5,1.3,1.8,1.3,1.8s1.4,0.7,2.5,0c0.7-0.4,1.2-1,1.4-1.8c0,0-2.1-1.7-3.1-1.8c-1,0,2.1-10.1,3.6-11.5s-0.8-1-1.8,0
					c-1,1-4.2,4.3-4.4,5.3c-0.1,1,0,2.1-0.6,2.9c-0.6,0.8-1.9,0.3-3,0C-1519.3-35.4-1521.6-36.2-1521.6-36.2z"/>
				<path id="路径_37" class="st6" d="M-1732.8-61.8c0,0,1.4-4,3.6-4.3c2.2-0.3,2.2,1.4,4.4,0.7c2.2-0.7,4.4-3.7,4.4-3.7
					s6.2,0.8,7.7,1.5c1.6,0.7-5.8-0.7-7.3,0.6c-1.6,1.3-2.3,2.8-2.3,5.3c0,2.5-1.5-3-4.6-2.3C-1729-63.6-1730.9-62.8-1732.8-61.8z"
					/>
				<path id="路径_38" class="st6" d="M-1578.8-54.7c0.6-0.3,1.2-0.6,1.9-0.8c1.3-0.5,1,0.8,4.1,0c3.1-0.8,3.5-2.5,5.2-2.7
					c1.8-0.2,4.4,0.7,4.4,0.7s-3-2.1-4.9-1.9c-1.9,0.2-4.7,0.5-4.7,0.5s0.4-2.7-0.5-4.7c-0.8-2-4.9-4.7-5.2-5.5
					c-0.4-0.8-1.6,3.7,0,5.5c1.6,1.8,3.1,3.7,2.9,4.7S-1578.8-54.7-1578.8-54.7z"/>
			</g>
			<g id="组_124" transform="translate(-22 266.934)">
				<path id="路径_1473" class="st11" d="M2.5-53.3c50.1-6.5,100.9,4.7,143.7,31.6c-17.6,5.7-35.9,9.4-54.3,10.8
					c-11.5,0.9-29.8,2.2-52.4-2c-5.8-1-10.2-1.9-15-3.4c-4.1-1.3-3.7-1.6-5.3-1.9c-9.9-1.8-16.8,8-20.4,5.5c-2-1.4-1.7-5.6-0.5-8.2
					c1.1-2.4,2.6-2.2,4.1-4.2c2.8-3.9,0-8.5-0.5-17.3C1.6-46.1,1.8-49.7,2.5-53.3z"/>
				<g id="_5gUDqE" transform="translate(108.126)" class="st12">
					<g id="组_113">
						<path id="路径_1474" class="st13" d="M10.6-145.4l-2-0.1c-0.2,0-0.3,0.1-0.3,0.3c0,0.1,0.1,0.2,0.2,0.3
							c0.6,0.3,1.1,0.7,1.6,1c2,1.6,3.1,3.8,3.7,6.3c0.7,2.8,0.5,5.6,0.3,8.5c0,0.2-0.2,0.3-0.3,0.3c-0.1,0-0.1,0-0.2-0.1
							c-1.7-1.5-3.5-2.1-5.7-1.5c-0.2,0-0.3,0.2-0.2,0.4c0,0.1,0.1,0.2,0.2,0.2c2.1,1.1,4,2.2,6,3.3c0.5,0.2,0.9,0.7,0.8,1.3
							c0.3,9.9-2.1,19.1-7.3,27.6c-0.1,0.1-0.1,0.2-0.2,0.3l-0.8-0.2c0-0.4,0-0.7,0-1.1c-0.3-2.4-1.4-4.4-2.7-6.4
							c-1.8-2.6-3.9-5-5.5-7.7c-3.4-5.8-3.5-11.8-1-18c0.1-0.1,0.1-0.3,0.1-0.5l-3.6,5.1l-0.8-0.3c0.2-0.7,0.3-1.4,0.5-2.2
							c0.4-1.3,0.8-2.6,1.2-3.9c0.4-1.2,0.9-2.5,1.5-3.7c0.3-0.6,0.6-1.2,0.8-1.8c0.1-0.2,0-0.3-0.2-0.4c-0.1-0.1-0.3,0-0.4,0.1
							l-6.4,7.2c-0.1,0.1-0.3,0.1-0.5,0c0,0,0,0,0,0c-3-3.5-4.8-11.5-0.8-18.5c0.1-0.2,0-0.3-0.1-0.4c-0.1-0.1-0.3-0.1-0.4,0
							c-0.5,0.4-1,0.8-1.5,1.2c-0.9,0.7-1.9,1.3-2.9,2c-0.2,0.1-0.3,0-0.4-0.1c0,0,0-0.1,0-0.2c0-3.5,0.2-6.9,0.7-10.4
							c0.5-3.5,1.3-6.9,2-10.3c0-0.2-0.1-0.3-0.2-0.4c0,0-0.1,0-0.1,0l-4.2,0.4c-0.2,0-0.3-0.1-0.3-0.3c0-0.1,0-0.2,0.1-0.3
							c1.1-1,2.1-1.9,3-2.9c1.7-1.7,3.3-3.5,5-5.2c0.6-0.6,1.1-0.6,1.5,0.1c1.4,2.1,2.8,4.2,4,6.4c2.6,5,4.1,10.4,5.5,15.9
							c2.1,8.3,3.3,16.7,4.2,25.2c0.7,6.4,1.3,12.8,2,19.2c0,0.1,0.1,0.2,0.3,0.3c0-0.4,0-0.8,0-1.2c-0.4-6.7-0.6-13.4-1.1-20
							C4.9-138.2,4-145.6,2.7-153c-1.2-6.7-3.3-13.1-7.2-18.8c-0.9-1.4-2-2.6-3.1-3.9c-0.1-0.1-0.1-0.3,0-0.4
							c0.1-0.1,0.2-0.1,0.3-0.1c1.6,0.5,3.1,1.3,4.5,2.2c4.5,2.9,8.1,6.9,10.4,11.7c0.8,1.7,1.2,3.6,1.5,5.5
							c0.6,3.6,1.1,7.2,1.6,10.8c0,0.1,0,0.2,0,0.3C10.9-145.6,10.7-145.4,10.6-145.4C10.6-145.4,10.6-145.4,10.6-145.4z"/>
						<path id="路径_1475" class="st14" d="M-35.8-46.5h-14.5c-0.2,0-0.3-0.1-0.3-0.3c-1.2-41,9.1-78.5,32.2-112.3l0.8,0.3
							c-0.2,1-0.5,2-0.7,2.9c-0.6,2-0.8,4.2-0.8,6.3c0,0.4-0.1,0.8-0.3,1.1c-2.3,4.7-4.6,9.4-6.8,14.1c-2.3,5.2-4.3,10.6-5.9,16
							c-1.7,5.5-2.9,11.1-3.7,16.8c-1.1,8.3-1.6,16.6-1.5,24.9c0.1,7.8,0.7,15.6,1.1,23.4c0.1,1.9,0.4,3.7,0.6,5.6
							c0,0.2,0,0.5,0,0.7C-35.4-46.6-35.6-46.5-35.8-46.5C-35.7-46.5-35.7-46.5-35.8-46.5z"/>
						<path id="路径_1476" class="st13" d="M-12.4-178.9c0.1,0.1,0.2,0.3,0.1,0.4c0,0,0,0,0,0c-1,1.3-1.9,2.5-2.9,3.7
							c-0.6,0.7-1.1,1.5-1.7,2.2c-0.3,0.4-0.7,0.6-1.1,0.8c-1.2,0.3-2.3,0.5-3.6,0.8c-0.2,0-0.3-0.1-0.4-0.2c0,0,0-0.1,0-0.1
							c0.1-1,0.2-1.9,0.3-2.9c0-0.2-0.1-0.3-0.3-0.3c-0.2,0-0.3,0.1-0.3,0.2c-0.3,1-0.7,2-1.1,3c-0.2,0.4-0.7,0.8-1.2,0.9
							c-6,1-12,1.5-18.1,1.5c-0.1,0-0.2,0-0.3,0c-0.2,0-0.3-0.2-0.3-0.4c0.3-2.5,0.5-5,0.8-7.5l-0.8-0.3c-0.5,0.6-1,1.2-1.4,1.8
							c-1.5,2.3-2.3,5-2.2,7.8c0.1,0.4-0.2,0.8-0.6,0.9c-3.5,1.6-6.9,3.2-10.4,4.8c-1.5,0.7-3.1,1.4-4.6,2.2c-0.5,0.2-1,0.1-1.3-0.3
							c-1.9-2.6-3-5.7-3.3-8.9c0-0.2,0-0.4-0.1-0.6c0,0,0-0.1-0.2-0.3c-0.1,1.1-0.3,2.1-0.4,3c-0.1,3,0.1,6,0.7,8.9
							c0.2,0.6,0,1.2-0.5,1.5c-4.5,3.8-8.2,8.5-10.7,13.9c0,0,0,0.1-0.1,0.1c-0.1,0.1-0.2,0.1-0.3,0.1l-0.1,0c0-1.9-0.2-3.9-0.1-5.8
							c0.3-6.2,2-12.3,5-17.8c4.2-7.7,10.2-13.6,18.1-17.4c4-1.9,8.4-3,12.9-3.3c1.7-0.1,3.4,0.1,5.1,0.2c3.9,0.3,7.9,0.6,11.7,1.7
							c4.6,1.4,9,3.3,13.2,5.5C-12.5-179-12.5-179-12.4-178.9z"/>
						<path id="路径_1477" class="st13" d="M-11.1-179.9c-0.8-2-1.5-4.1-2.4-6.1c-1.6-3.6-4.1-6.6-6.9-9.3
							c-4.3-4-8.9-7.7-13.9-10.9c-5.8-3.7-12-6.5-18.8-7.7c-0.3-0.1-0.7-0.1-1-0.2c0,0-0.1,0-0.4,0.1c3.5,0.8,6.9,2,10.1,3.6
							c0.2,0.1,0.2,0.3,0.1,0.4c0,0.1-0.1,0.1-0.1,0.1c-2.5,1.5-4.7,3.3-5.9,6.1c-0.1,0.2-0.3,0.2-0.4,0.2c0,0,0,0-0.1,0
							c-0.6-0.5-1.2-0.9-1.9-1.3c-1.8-1-3.6-2-5.4-2.9c-0.4-0.1-0.6-0.5-0.5-0.9c0-1.5,0.3-2.9,0.9-4.3c0.1-0.2,0-0.3-0.2-0.4
							c-0.1,0-0.2,0-0.3,0.1c-0.7,0.6-1.4,1.9-2.5,4.3c-0.1,0.1-0.2,0.2-0.4,0.2c-1.5-0.4-3.1-0.7-4.6-1.2c-1.7-0.6-3.3-0.9-5.1-0.7
							c-0.1,0-0.3,0-0.4,0c1.2-1.9,3-3.3,5.1-4.1c4-1.6,8.2-1.9,12.5-1.5c3.5,0.3,6.9,1,10.2,1.9c3.9,1.1,7.6,2.6,11.1,4.5
							c4.3,2.3,8.1,5.4,11.2,9.2c1.7,2,3.2,4.1,4.8,6.2c0.1,0.1,0.3,0.2,0.4,0.1c0.1-0.1,0.1-0.2,0.1-0.3v-0.7l0.8-0.4l0,0l0.5-0.5
							c-0.2-0.3-0.5-0.7-0.7-1c-0.2-0.3-0.3-0.7-0.3-1c0.5-3.9,1.6-7.6,3.5-11c0.1-0.2,0.3-0.2,0.4-0.1c0,0,0.1,0.1,0.1,0.1
							c0.7,1.1,1.6,2.1,2.7,2.8c0.1,0.1,0.3,0.1,0.4-0.1c0.1-0.1,0.1-0.3,0-0.4c-0.7-0.8-1.3-1.6-1.8-2.6c0-0.1-0.1-0.2-0.2-0.3
							c-0.5-0.8-0.6-1.6,0.1-2.5c0.5-0.6,1-1.3,1.4-1.9c0.1-0.1,0.3-0.2,0.4-0.1c0,0,0,0,0,0l0.9,0.7l0.7-0.5
							c-0.2-0.4-0.3-0.8-0.5-1.2c-0.2-0.3-0.1-0.8,0.2-1c2.3-2.6,5-4.7,8-6.5c0.1,0,0.2-0.1,0.3-0.1l0.1,0.5l0.8,0.1
							c0.1-0.2,0.1-0.4,0.2-0.6c0.2-0.7,0.7-1.1,1.3-1.3c1.6-0.6,3.3-1.1,5-1.7c0.2-0.1,0.3,0,0.4,0.2c0,0.1,0,0.2-0.1,0.3
							c-1.4,1.8-1.7,3.9-2,6.1c-0.1,0.5-0.2,0.7-0.7,0.9c-1.1,0.5-2.2,1-3.3,1.5l0.1,0.8c0.7,0.1,1.4,0.3,2.1,0.5
							c1.4,0.4,1.4,0.4,1.2,1.9c-0.2,1.6-0.3,3.1-0.4,4.7c0,0.2-0.1,0.3-0.3,0.3l-3.5,0.4l0,0.8l3.4,0.6c0.2,0,0.3,0.2,0.3,0.3
							c-0.2,2.4-0.4,4.8-0.6,7c0,0.2-0.2,0.3-0.3,0.3c0,0,0,0,0,0l-3.9-0.9L1.1-200l0.5,0.2c0.6,0.2,1.2,0.5,1.7,0.8
							c1.3,0.8,2.1,1.6,1.7,3.4c-0.6,2.4-1,4.8-1.4,7.2c-0.1,0.2-0.1,0.5-0.2,0.7c-0.1,0.2-0.2,0.2-0.4,0.2l-4.3-1.1
							c-0.2,0-0.3,0.1-0.4,0.2c0,0.1,0,0.2,0.1,0.3c1.2,1,2.6,1.8,4.1,2.3c0.2,0.1,0.3,0.2,0.2,0.4c-1.1,3.2-2.4,6.3-4.3,9.2
							c-0.1,0.1-0.3,0.2-0.4,0.1c-2.4-1.6-5.1-2.8-8-3.4c-0.2,0-0.3-0.2-0.2-0.4c0,0,0,0,0,0c0.4-1.6,0.7-3.2,1.1-4.7
							c1.4-5.3,2.6-10.6,4.1-15.8c1.3-4.7,3.3-9.2,5.6-13.5c1.4-2.6,3-5.2,4.5-7.8c0.1-0.1,0.1-0.3,0.1-0.5
							c-0.1,0.1-0.2,0.2-0.4,0.3C0.4-216-3.2-209.8-6-203.2c-3.2,7.4-5.2,15-5,23.1C-11-180.1-11-180-11.1-179.9z"/>
						<path id="路径_1478" class="st13" d="M55.2-171.1c-0.3-0.2-0.6-0.4-0.9-0.6c-2.4-1.4-4.9-2.8-7.4-4.1
							c-0.6-0.3-1.1-0.9-1.3-1.5c-0.1-0.3-0.1-0.5-0.2-0.8c-0.1-0.2-0.2-0.3-0.4-0.2c-0.1,0-0.2,0.1-0.2,0.2
							c-0.1,0.3-0.2,0.6-0.2,0.9c0,0.2-0.2,0.3-0.4,0.2c0,0,0,0,0,0c-0.8-0.2-1.6-0.5-2.3-0.7c-0.2-0.1-0.3-0.3-0.3-0.5
							c-0.4-1.9-1-3.6-1.9-5.3c-0.1-0.2-0.3-0.2-0.4-0.1c-0.1,0.1-0.2,0.2-0.2,0.3v4.6c0,0.2-0.1,0.3-0.3,0.3c0,0,0,0,0,0
							c-1.4-0.1-2.8-0.2-4.2-0.3c-0.2,0-0.4-0.3-0.5-0.5c-0.8-2.2-2-4.3-3.4-6.2c-0.2-0.3-0.5-0.5-0.7-0.8c1,2.3,1.6,4.7,1.8,7.2
							c0,0.2-0.1,0.3-0.3,0.3c-4.4,0.4-8.5,1.8-12.2,4.5c-0.1,0.1-0.3,0.1-0.4-0.1c0,0-0.1-0.1-0.1-0.2c-0.1-2.1,0.1-4.1,0.5-6.2
							l-0.2-0.1c-0.3,1-0.8,2-1,3.1c-0.3,1.4-0.4,2.9-0.6,4.3c0,0.3-0.1,0.5-0.3,0.7c-1.4,1.7-2.8,3.4-4.2,5.1c0,0-0.1,0.1-0.1,0.1
							c-0.1,0.1-0.3,0.1-0.4,0c0,0-0.1-0.1-0.1-0.1c-0.5-1.2-1-2.4-1.4-3.6c-0.3-1-0.6-1.9-0.9-2.9c0-0.2-0.2-0.3-0.4-0.2
							c-0.1,0-0.2,0.1-0.2,0.2c-0.5,2.5,0,5.7,1.3,8.7c0.1,0.1,0,0.3-0.1,0.4L9-163.5c-0.1,0.1-0.3,0.1-0.4-0.1c0,0,0,0,0-0.1
							c-2.5-4.8-5.7-8.7-9.9-11.8c-0.1-0.1-0.2-0.3-0.1-0.4c0,0,0-0.1,0.1-0.1c1.1-0.8,2.2-1.6,3.3-2.3c3.6-2.4,7.1-4.9,10.9-7.1
							c4.4-2.6,9.2-4.3,14.4-4.8c4.8-0.5,9.7,0.5,14,2.8c5.3,2.9,9.2,7.2,12.5,12.2c0.8,1.1,1.5,2.3,2.2,3.4L55.2-171.1z"/>
						<path id="路径_1479" class="st13" d="M-11.7-179.7c0,0.2-0.1,0.3-0.2,0.4c-0.1,0-0.2,0-0.2,0c-2-1.2-3.8-2.3-5.7-3.3
							c-4.5-2.6-9.5-4.4-14.6-5.4c-1.6-0.3-3.3-0.3-4.9-0.6c-0.4-0.1-0.7-0.2-1-0.5c-1.3-1.2-1.3-2.6-0.7-4.2c0.8-2.6,2.1-5,3.7-7.2
							c0.1-0.1,0.1-0.3-0.1-0.4c-0.1-0.1-0.2-0.1-0.3,0c-2.4,1.5-4.6,3.4-6.3,5.7c-0.1,0.1-0.3,0.2-0.4,0.1c0,0,0,0,0,0
							c-0.7-0.8-0.7-0.9-0.2-1.9c0.6-1.1,1.2-2.2,1.8-3.3c0.1-0.2,0-0.3-0.1-0.4c-0.1-0.1-0.2-0.1-0.3,0c-0.9,0.5-1.6,1.3-2.7,3
							c-0.1,0.1-0.3,0.2-0.4,0.1c0,0,0,0-0.1-0.1c-0.7-0.8-1.5-1.6-2.2-2.4c-0.1-0.2-0.2-0.4-0.1-0.7c0.1-2.5,1.6-6.7,3.2-8.9
							c0.1-0.1,0.3-0.2,0.4-0.1c0.9,0.5,1.8,0.9,2.7,1.5c5.3,3,10.1,6.7,14.5,10.9c2.3,2.2,4.7,4.5,7,6.7c2.6,2.6,4.5,5.7,6.2,8.8
							c0.4,0.7,0.8,1.4,1.1,2.1C-11.8-179.8-11.7-179.7-11.7-179.7z"/>
					</g>
				</g>
				<g id="_5gUDqE-2" transform="translate(9.462 175.825)">
					<g id="组_114">
						<path id="路径_1480" class="st15" d="M56.4-290L55-290c-0.1,0-0.2,0.1-0.2,0.2c0,0.1,0,0.2,0.1,0.2c0.4,0.2,0.8,0.5,1.2,0.8
							c1.5,1.2,2.3,2.8,2.7,4.6c0.5,2.1,0.4,4.1,0.2,6.3c0,0.1-0.1,0.2-0.2,0.2c-0.1,0-0.1,0-0.1-0.1c-1.2-1.1-2.6-1.6-4.2-1.1
							c-0.1,0-0.2,0.2-0.2,0.3c0,0.1,0.1,0.1,0.1,0.1c1.5,0.8,3,1.6,4.4,2.4c0.4,0.2,0.6,0.5,0.6,0.9c0.3,7.2-1.6,14.3-5.4,20.3
							l-0.1,0.2l-0.6-0.2c0-0.3,0-0.5,0-0.8c-0.2-1.8-1-3.3-2-4.7c-1.3-1.9-2.8-3.7-4-5.7c-2.5-4.2-2.6-8.7-0.7-13.2
							c0.1-0.1,0.1-0.2,0-0.3l-2.6,3.8l-0.6-0.3c0.1-0.5,0.2-1.1,0.4-1.6c0.3-1,0.6-1.9,0.9-2.9c0.3-0.9,0.7-1.8,1.1-2.7
							c0.2-0.4,0.4-0.9,0.6-1.3c0.1-0.1,0-0.3-0.1-0.3c-0.1,0-0.2,0-0.3,0.1l-4.8,5.3c-0.1,0.1-0.2,0.1-0.3,0c0,0,0,0,0,0
							c-2.2-2.6-3.6-8.5-0.6-13.6c0.1-0.1,0-0.3-0.1-0.3c-0.1,0-0.2,0-0.3,0c-0.4,0.3-0.7,0.6-1.1,0.9c-0.7,0.5-1.4,1-2.1,1.4
							c-0.1,0.1-0.3,0-0.3-0.1c0,0,0-0.1,0-0.1c0-2.6,0.1-5.1,0.5-7.6c0.4-2.6,1-5.1,1.5-7.6c0-0.1-0.1-0.3-0.2-0.3c0,0,0,0-0.1,0
							l-3.1,0.3c-0.1,0-0.2-0.1-0.3-0.2c0-0.1,0-0.1,0.1-0.2c0.8-0.7,1.5-1.4,2.2-2.1c1.3-1.3,2.5-2.6,3.7-3.9
							c0.4-0.4,0.8-0.5,1.1,0.1c1,1.6,2.1,3.1,3,4.7c1.9,3.7,3,7.7,4.1,11.7c1.5,6.1,2.4,12.3,3.1,18.6c0.5,4.7,1,9.5,1.5,14.2
							c0,0.1,0.1,0.2,0.2,0.2c0-0.3,0-0.6,0-0.9c-0.3-4.9-0.5-9.9-0.8-14.8c-0.4-5.5-1.1-11-2-16.4c-0.9-5-2.5-9.7-5.3-13.9
							c-0.7-1-1.5-1.9-2.3-2.9c-0.1-0.1-0.1-0.2,0-0.3c0.1-0.1,0.1-0.1,0.2,0c1.2,0.4,2.3,0.9,3.3,1.6c3.3,2.1,5.9,5.1,7.7,8.6
							c0.6,1.2,0.9,2.7,1.1,4c0.5,2.6,0.8,5.3,1.2,7.9c0,0.1,0,0.1,0,0.2C56.6-290.1,56.5-290,56.4-290C56.4-290,56.4-290,56.4-290z
							"/>
						<path id="路径_1481" class="st14" d="M22.2-217H11.6c-0.1,0-0.2-0.1-0.2-0.2c-0.9-30.2,6.7-57.9,23.8-82.8l0.6,0.3
							c-0.2,0.7-0.3,1.4-0.5,2.2c-0.4,1.5-0.6,3.1-0.6,4.6c0,0.3-0.1,0.6-0.2,0.8c-1.7,3.5-3.4,6.9-5,10.4
							c-1.7,3.8-3.2,7.8-4.3,11.8c-1.2,4-2.1,8.2-2.7,12.4c-0.8,6.1-1.2,12.2-1.1,18.4c0.1,5.8,0.5,11.5,0.8,17.2
							c0.1,1.4,0.3,2.8,0.4,4.1c0,0.2,0,0.4,0,0.5C22.5-217.1,22.4-217,22.2-217C22.3-217,22.2-217,22.2-217z"/>
						<path id="路径_1482" class="st15" d="M39.5-314.7c0.1,0.1,0.1,0.2,0.1,0.3c0,0,0,0,0,0c-0.7,0.9-1.4,1.8-2.1,2.7
							c-0.4,0.5-0.8,1.1-1.2,1.6c-0.2,0.3-0.5,0.5-0.8,0.6c-0.9,0.2-1.7,0.4-2.6,0.6c-0.1,0-0.3-0.1-0.3-0.2c0,0,0,0,0-0.1
							c0.1-0.7,0.2-1.4,0.2-2.1c0-0.1-0.1-0.2-0.2-0.2c-0.1,0-0.2,0.1-0.2,0.2c-0.2,0.8-0.5,1.5-0.8,2.2c-0.2,0.3-0.5,0.6-0.8,0.6
							c-4.4,0.8-8.9,1.1-13.3,1.1c-0.1,0-0.2,0-0.2,0c-0.1,0-0.2-0.1-0.2-0.3c0.2-1.8,0.4-3.7,0.6-5.5l-0.6-0.2
							c-0.4,0.4-0.7,0.9-1,1.4c-1.1,1.7-1.7,3.7-1.6,5.7c0,0.3-0.2,0.6-0.5,0.7c-2.6,1.2-5.1,2.3-7.7,3.5c-1.1,0.5-2.3,1.1-3.4,1.6
							c-0.3,0.2-0.7,0.1-1-0.2c-1.4-1.9-2.2-4.2-2.4-6.5c0-0.2,0-0.3,0-0.5c0-0.1-0.1-0.2-0.2-0.3c-0.1,0.8-0.2,1.5-0.3,2.2
							c-0.1,2.2,0.1,4.4,0.5,6.5c0.1,0.4,0,0.9-0.4,1.1c-3.3,2.8-6,6.3-7.9,10.3c0,0,0,0.1,0,0.1c0,0.1-0.1,0.1-0.2,0.1l0,0
							c0-1.4-0.1-2.8-0.1-4.3c0.2-4.6,1.5-9.1,3.7-13.1c3.1-5.6,7.5-10,13.4-12.8c3-1.4,6.2-2.2,9.5-2.5c1.2-0.1,2.5,0.1,3.8,0.2
							c2.9,0.2,5.8,0.4,8.6,1.3C33-317.7,36.3-316.4,39.5-314.7C39.4-314.7,39.4-314.7,39.5-314.7z"/>
						<path id="路径_1483" class="st15" d="M40.5-315.4c-0.6-1.5-1.1-3-1.8-4.5c-1.2-2.7-3-4.9-5.1-6.9c-3.2-3-6.6-5.7-10.2-8
							c-4.3-2.8-8.8-4.8-13.9-5.7c-0.2,0-0.5-0.1-0.7-0.1c0,0-0.1,0-0.3,0.1c2.6,0.6,5.1,1.5,7.5,2.6c0.1,0.1,0.2,0.2,0.1,0.3
							c0,0-0.1,0.1-0.1,0.1c-1.9,1.1-3.5,2.4-4.3,4.5c0,0.1-0.2,0.2-0.3,0.1c0,0,0,0,0,0c-0.5-0.3-0.9-0.7-1.4-1
							c-1.3-0.7-2.6-1.5-4-2.2c-0.3-0.1-0.4-0.4-0.4-0.7c0-1.1,0.2-2.2,0.6-3.2c0-0.1,0-0.3-0.1-0.3c-0.1,0-0.2,0-0.2,0
							c-0.5,0.5-1.1,1.4-1.9,3.1c0,0.1-0.2,0.2-0.3,0.1c-1.1-0.3-2.3-0.5-3.4-0.9c-1.2-0.4-2.4-0.7-3.7-0.5c-0.1,0-0.2,0-0.3,0
							c0.9-1.4,2.2-2.4,3.8-3c3-1.2,6.1-1.4,9.2-1.1c2.6,0.2,5.1,0.7,7.5,1.4c2.8,0.8,5.6,1.9,8.2,3.3c3.1,1.7,6,4,8.3,6.7
							c1.2,1.5,2.4,3,3.5,4.6c0.1,0.1,0.2,0.1,0.3,0c0.1,0,0.1-0.1,0.1-0.2v-0.5l0.6-0.3l0,0l0.4-0.4c-0.2-0.3-0.3-0.5-0.5-0.8
							c-0.2-0.2-0.2-0.5-0.2-0.7c0.3-2.8,1.2-5.6,2.6-8.1c0.1-0.1,0.2-0.2,0.3-0.1c0,0,0.1,0,0.1,0.1c0.5,0.8,1.2,1.5,2,2.1
							c0.1,0.1,0.3,0,0.3-0.1c0.1-0.1,0.1-0.2,0-0.3c-0.5-0.6-1-1.2-1.3-1.9c0-0.1-0.1-0.1-0.1-0.2c-0.4-0.6-0.4-1.2,0.1-1.8
							c0.4-0.5,0.7-0.9,1-1.4c0.1-0.1,0.2-0.1,0.3-0.1c0,0,0,0,0,0l0.6,0.5l0.5-0.4c-0.1-0.3-0.2-0.6-0.4-0.9
							c-0.1-0.3-0.1-0.6,0.1-0.8c1.7-1.9,3.7-3.5,5.9-4.8c0.1,0,0.1,0,0.2,0l0.1,0.4l0.6,0c0.1-0.1,0.1-0.3,0.1-0.4
							c0.1-0.5,0.5-0.9,1-1c1.2-0.4,2.4-0.8,3.7-1.2c0.1,0,0.3,0,0.3,0.2c0,0.1,0,0.2,0,0.2c-1,1.3-1.3,2.9-1.4,4.5
							c0,0.3-0.2,0.6-0.5,0.6c-0.8,0.3-1.6,0.7-2.4,1.1l0.1,0.6c0.5,0.1,1,0.2,1.5,0.3c1,0.3,1,0.3,0.9,1.4
							c-0.1,1.2-0.2,2.3-0.3,3.5c0,0.1-0.1,0.2-0.2,0.2l-2.6,0.3l0,0.6l2.5,0.4c0.1,0,0.2,0.1,0.2,0.3c-0.2,1.8-0.3,3.5-0.4,5.2
							c0,0.1-0.1,0.2-0.3,0.2c0,0,0,0,0,0l-2.9-0.7l0,0.1l0.3,0.2c0.4,0.2,0.9,0.4,1.3,0.6c0.9,0.6,1.6,1.2,1.2,2.5
							c-0.5,1.8-0.7,3.6-1.1,5.3c0,0.2-0.1,0.4-0.2,0.5c0,0.1-0.2,0.2-0.3,0.2l-3.2-0.8c-0.1,0-0.3,0-0.3,0.2c0,0.1,0,0.2,0.1,0.2
							c0.9,0.7,1.9,1.3,3,1.7c0.1,0,0.2,0.2,0.1,0.3c-0.7,2.4-1.8,4.7-3.2,6.8c-0.1,0.1-0.2,0.1-0.3,0.1c-1.8-1.2-3.8-2-5.9-2.5
							c-0.1,0-0.2-0.2-0.2-0.3c0,0,0,0,0,0c0.3-1.2,0.5-2.3,0.8-3.5c1-3.9,1.9-7.8,3-11.7c1-3.4,2.4-6.8,4.1-9.9
							c1-2,2.2-3.8,3.3-5.7c0.1-0.1,0.1-0.2,0.1-0.4c-0.1,0.1-0.2,0.1-0.3,0.2c-3.2,4.2-5.8,8.8-7.9,13.7c-2.3,5.4-3.9,11-3.7,17
							C40.5-315.5,40.5-315.4,40.5-315.4z"/>
						<path id="路径_1484" class="st15" d="M89.3-308.9c-0.2-0.1-0.4-0.3-0.7-0.4c-1.8-1-3.6-2.1-5.4-3c-0.5-0.2-0.8-0.6-0.9-1.1
							c0-0.2-0.1-0.4-0.2-0.6c0-0.1-0.2-0.2-0.3-0.2c-0.1,0-0.1,0.1-0.2,0.2l-0.2,0.7c0,0.1-0.2,0.2-0.3,0.2c0,0,0,0,0,0
							c-0.6-0.2-1.2-0.3-1.7-0.5c-0.1-0.1-0.2-0.2-0.2-0.4c-0.3-1.4-0.7-2.7-1.4-3.9c-0.1-0.1-0.2-0.2-0.3-0.1
							c-0.1,0-0.1,0.1-0.1,0.2v3.4c0,0.1-0.1,0.2-0.2,0.2c0,0,0,0,0,0c-1-0.1-2.1-0.1-3.1-0.2c-0.1,0-0.3-0.2-0.3-0.4
							c-0.6-1.6-1.5-3.2-2.5-4.6c-0.2-0.2-0.3-0.4-0.5-0.6c0.7,1.7,1.2,3.5,1.3,5.3c0,0.1-0.1,0.2-0.2,0.2c-3.2,0.3-6.4,1.4-9,3.3
							c-0.1,0.1-0.3,0.1-0.3-0.1c0,0,0-0.1,0-0.1c-0.1-1.5,0-3.1,0.4-4.5l-0.2,0c-0.3,0.7-0.5,1.5-0.7,2.3c-0.2,1.1-0.3,2.1-0.4,3.2
							c0,0.2-0.1,0.4-0.2,0.5c-1,1.3-2,2.5-3.1,3.8c0,0-0.1,0.1-0.1,0.1c-0.1,0.1-0.2,0.1-0.3,0c0,0,0-0.1-0.1-0.1
							c-0.4-0.9-0.8-1.8-1.1-2.6c-0.3-0.7-0.5-1.4-0.7-2.1c0-0.1-0.2-0.2-0.3-0.2c-0.1,0-0.1,0.1-0.2,0.2c-0.4,1.8,0,4.2,1,6.4
							c0,0.1,0,0.2-0.1,0.3l-1.2,0.9c-0.1,0.1-0.2,0.1-0.3,0c0,0,0,0,0,0c-1.7-3.4-4.2-6.4-7.3-8.7c-0.1-0.1-0.1-0.2-0.1-0.3
							c0,0,0,0,0.1-0.1c0.8-0.6,1.6-1.2,2.4-1.7c2.7-1.8,5.3-3.6,8-5.2c3.2-1.9,6.8-3.2,10.6-3.5c3.6-0.4,7.2,0.3,10.3,2.1
							c3.9,2.2,6.8,5.3,9.2,9c0.6,0.8,1.1,1.7,1.6,2.5L89.3-308.9z"/>
						<path id="路径_1485" class="st15" d="M40-315.2c0,0.1,0,0.3-0.2,0.3c-0.1,0-0.1,0-0.2,0c-1.5-0.9-2.8-1.7-4.2-2.4
							c-3.3-1.9-7-3.3-10.8-4c-1.2-0.2-2.4-0.3-3.6-0.4c-0.3,0-0.5-0.2-0.7-0.4c-1-0.9-0.9-1.9-0.5-3.1c0.6-1.9,1.5-3.7,2.7-5.3
							c0.1-0.1,0.1-0.3,0-0.3c-0.1-0.1-0.2-0.1-0.3,0c-1.8,1.1-3.4,2.5-4.6,4.2c-0.1,0.1-0.2,0.1-0.3,0c0,0,0,0,0,0
							c-0.5-0.6-0.5-0.7-0.1-1.4c0.4-0.8,0.9-1.6,1.3-2.5c0.1-0.1,0-0.3-0.1-0.3c-0.1,0-0.2,0-0.2,0c-0.6,0.3-1.2,1-2,2.2
							c-0.1,0.1-0.2,0.1-0.3,0.1c0,0,0,0,0,0c-0.5-0.6-1.1-1.2-1.6-1.8c-0.1-0.1-0.1-0.3-0.1-0.5c0.1-1.8,1.2-4.9,2.3-6.6
							c0.1-0.1,0.2-0.1,0.3-0.1c0.7,0.4,1.3,0.7,2,1.1c3.9,2.2,7.5,5,10.7,8.1c1.7,1.6,3.4,3.3,5.1,5c1.9,1.9,3.3,4.2,4.6,6.5
							c0.3,0.5,0.6,1,0.8,1.6C39.9-315.3,39.9-315.3,40-315.2z"/>
					</g>
				</g>
				<g id="_5gUDqE-3" transform="translate(245.418 160.634)">
					<g id="组_115">
						<path id="路径_1486" class="st13" d="M-106.3-276.7l-1.5-0.1c-0.1,0-0.2,0.1-0.3,0.2c0,0.1,0,0.2,0.1,0.2
							c0.4,0.2,0.8,0.5,1.2,0.8c1.5,1.2,2.4,2.9,2.8,4.8c0.5,2.2,0.4,4.3,0.2,6.6c0,0.1-0.1,0.2-0.3,0.2c-0.1,0-0.1,0-0.2-0.1
							c-1.3-1.2-2.7-1.6-4.4-1.2c-0.1,0-0.2,0.2-0.2,0.3c0,0.1,0.1,0.1,0.1,0.1c1.6,0.9,3.1,1.7,4.6,2.5c0.4,0.2,0.7,0.6,0.6,1
							c0.3,7.5-1.7,14.9-5.6,21.2c0,0.1-0.1,0.1-0.1,0.2l-0.6-0.2c0-0.3,0-0.6,0-0.8c-0.2-1.8-1.1-3.4-2.1-4.9c-1.4-2-3-3.9-4.2-5.9
							c-2.6-4.4-2.7-9.1-0.8-13.8c0.1-0.1,0.1-0.2,0-0.4l-2.8,3.9l-0.6-0.3c0.1-0.6,0.3-1.1,0.4-1.7c0.3-1,0.6-2,0.9-3
							c0.3-1,0.7-1.9,1.1-2.8c0.2-0.5,0.4-0.9,0.6-1.4c0.1-0.1,0-0.3-0.1-0.3c-0.1,0-0.2,0-0.3,0.1c-1.7,1.8-3.3,3.7-5,5.5
							c-0.1,0.1-0.2,0.1-0.3,0c0,0,0,0,0,0c-2.3-2.7-3.7-8.8-0.6-14.2c0.1-0.1,0-0.3-0.1-0.3c-0.1,0-0.2,0-0.3,0
							c-0.4,0.3-0.8,0.6-1.2,0.9c-0.7,0.5-1.4,1-2.2,1.5c-0.1,0.1-0.3,0-0.3-0.1c0,0,0-0.1,0-0.1c0-2.7,0.1-5.3,0.5-8
							c0.4-2.7,1-5.3,1.6-8c0-0.1-0.1-0.3-0.2-0.3c0,0,0,0-0.1,0l-3.3,0.3c-0.1,0-0.3-0.1-0.3-0.2c0-0.1,0-0.2,0.1-0.2
							c0.8-0.7,1.6-1.5,2.3-2.2c1.3-1.3,2.6-2.7,3.8-4c0.4-0.5,0.8-0.5,1.2,0.1c1.1,1.6,2.2,3.2,3.1,4.9c2,3.9,3.2,8,4.2,12.2
							c1.6,6.4,2.5,12.9,3.2,19.4c0.6,4.9,1,9.9,1.5,14.8c0,0.1,0.1,0.2,0.2,0.2c0-0.3,0-0.6,0-0.9c-0.3-5.1-0.5-10.3-0.9-15.4
							c-0.4-5.7-1.1-11.5-2.1-17.1c-0.9-5.2-2.6-10.1-5.5-14.5c-0.7-1.1-1.6-2-2.4-3c-0.1-0.1-0.1-0.3,0-0.3c0.1-0.1,0.2-0.1,0.2,0
							c1.2,0.4,2.4,1,3.5,1.7c3.4,2.2,6.2,5.3,8,9c0.6,1.3,0.9,2.8,1.2,4.2c0.5,2.8,0.8,5.5,1.3,8.3c0,0.1,0,0.1,0,0.2
							C-106.1-276.8-106.2-276.7-106.3-276.7C-106.3-276.7-106.3-276.7-106.3-276.7z"/>
						<path id="路径_1487" class="st14" d="M-142-200.5h-11.1c-0.1,0-0.2-0.1-0.2-0.2c-0.9-31.5,7-60.4,24.8-86.5l0.6,0.3
							c-0.2,0.8-0.4,1.5-0.6,2.3c-0.4,1.6-0.6,3.2-0.6,4.8c0,0.3-0.1,0.6-0.2,0.9c-1.7,3.6-3.5,7.2-5.2,10.9
							c-1.8,4-3.3,8.1-4.5,12.3c-1.3,4.2-2.2,8.5-2.8,12.9c-0.9,6.4-1.2,12.8-1.1,19.2c0.1,6,0.5,12,0.8,18c0.1,1.4,0.3,2.9,0.4,4.3
							c0,0.2,0,0.4,0,0.6C-141.7-200.7-141.8-200.6-142-200.5C-142-200.5-142-200.5-142-200.5z"/>
						<path id="路径_1488" class="st13" d="M-124-302.5c0.1,0.1,0.1,0.2,0.1,0.3c0,0,0,0,0,0c-0.8,1-1.5,1.9-2.2,2.9
							c-0.4,0.6-0.8,1.2-1.3,1.7c-0.2,0.3-0.5,0.5-0.9,0.6c-0.9,0.2-1.8,0.4-2.7,0.6c-0.1,0-0.3-0.1-0.3-0.2c0,0,0-0.1,0-0.1
							c0.1-0.8,0.2-1.5,0.2-2.2c0-0.1-0.1-0.3-0.2-0.3c-0.1,0-0.2,0.1-0.3,0.2c-0.2,0.8-0.5,1.6-0.9,2.3c-0.2,0.3-0.5,0.6-0.9,0.7
							c-4.6,0.8-9.2,1.2-13.9,1.1c-0.1,0-0.2,0-0.2,0c-0.1,0-0.2-0.1-0.2-0.3c0.2-1.9,0.4-3.8,0.6-5.7l-0.6-0.3
							c-0.4,0.5-0.7,0.9-1.1,1.4c-1.2,1.8-1.7,3.9-1.7,6c0,0.3-0.2,0.6-0.5,0.7c-2.7,1.2-5.3,2.4-8,3.7c-1.2,0.5-2.4,1.1-3.5,1.7
							c-0.4,0.2-0.8,0.1-1-0.2c-1.5-2-2.3-4.4-2.6-6.8c0-0.2,0-0.3,0-0.5c0-0.1-0.1-0.2-0.2-0.3c-0.1,0.9-0.2,1.6-0.3,2.3
							c-0.1,2.3,0.1,4.6,0.5,6.8c0.1,0.4,0,0.9-0.4,1.2c-3.5,2.9-6.3,6.6-8.2,10.7c0,0,0,0.1-0.1,0.1c0,0.1-0.1,0.1-0.2,0.1l0,0
							c0-1.5-0.1-3-0.1-4.5c0.2-4.8,1.5-9.5,3.9-13.7c3.3-5.9,7.8-10.5,14-13.4c3.1-1.5,6.5-2.3,9.9-2.6c1.3-0.1,2.6,0.1,3.9,0.2
							c3,0.2,6.1,0.5,9,1.3C-130.8-305.7-127.4-304.3-124-302.5C-124.1-302.5-124.1-302.5-124-302.5z"/>
						<path id="路径_1489" class="st13" d="M-123-303.2c-0.6-1.6-1.2-3.1-1.8-4.7c-1.2-2.8-3.1-5.1-5.3-7.2
							c-3.3-3.1-6.9-5.9-10.7-8.4c-4.5-2.9-9.2-5-14.5-5.9c-0.3,0-0.5-0.1-0.8-0.1c0,0-0.1,0-0.3,0.1c2.7,0.6,5.3,1.6,7.8,2.8
							c0.1,0.1,0.2,0.2,0.1,0.3c0,0-0.1,0.1-0.1,0.1c-2,1.2-3.6,2.5-4.5,4.7c-0.1,0.1-0.2,0.2-0.3,0.1c0,0,0,0,0,0
							c-0.5-0.4-1-0.7-1.5-1c-1.4-0.8-2.7-1.5-4.1-2.3c-0.3-0.1-0.5-0.4-0.4-0.7c0-1.1,0.2-2.3,0.7-3.3c0.1-0.1,0-0.3-0.1-0.3
							c-0.1,0-0.2,0-0.3,0c-0.6,0.5-1.1,1.4-2,3.3c0,0.1-0.2,0.2-0.3,0.1c-1.2-0.3-2.4-0.6-3.6-1c-1.3-0.4-2.6-0.7-3.9-0.5
							c-0.1,0-0.2,0-0.3,0c1-1.4,2.3-2.5,3.9-3.2c3.1-1.3,6.3-1.4,9.6-1.1c2.7,0.2,5.3,0.7,7.9,1.5c3,0.8,5.8,2,8.5,3.5
							c3.3,1.8,6.2,4.2,8.6,7c1.3,1.5,2.5,3.2,3.7,4.8c0.1,0.1,0.2,0.1,0.3,0c0.1,0,0.1-0.1,0.1-0.2v-0.5l0.6-0.3l0,0l0.4-0.4
							c-0.2-0.3-0.4-0.5-0.5-0.8c-0.2-0.2-0.2-0.5-0.2-0.8c0.4-3,1.3-5.9,2.7-8.5c0.1-0.1,0.2-0.2,0.3-0.1c0,0,0.1,0.1,0.1,0.1
							c0.5,0.9,1.2,1.6,2,2.2c0.1,0.1,0.3,0,0.3-0.1c0.1-0.1,0.1-0.2,0-0.3c-0.6-0.6-1-1.3-1.4-2c0-0.1-0.1-0.1-0.1-0.2
							c-0.4-0.7-0.5-1.3,0.1-1.9c0.4-0.5,0.8-1,1.1-1.5c0.1-0.1,0.2-0.1,0.3-0.1c0,0,0,0,0,0l0.7,0.6l0.5-0.4
							c-0.1-0.3-0.2-0.6-0.4-0.9c-0.2-0.3-0.1-0.6,0.1-0.8c1.8-2,3.9-3.7,6.2-5c0.1,0,0.1,0,0.2-0.1l0.1,0.4l0.6,0.1
							c0.1-0.1,0.1-0.3,0.1-0.4c0.1-0.5,0.5-0.9,1-1c1.3-0.4,2.5-0.9,3.8-1.3c0.1,0,0.3,0,0.3,0.2c0,0.1,0,0.2,0,0.2
							c-1.1,1.4-1.3,3-1.5,4.7c0,0.3-0.2,0.6-0.5,0.7c-0.9,0.4-1.7,0.8-2.5,1.2l0.1,0.6c0.5,0.1,1.1,0.2,1.6,0.3
							c1.1,0.3,1,0.3,0.9,1.4c-0.1,1.2-0.2,2.4-0.3,3.6c0,0.1-0.1,0.2-0.2,0.2l-2.7,0.3l0,0.6l2.6,0.5c0.1,0,0.2,0.1,0.2,0.3
							c-0.2,1.9-0.3,3.7-0.5,5.4c0,0.1-0.1,0.2-0.3,0.2c0,0,0,0,0,0l-3-0.7l0,0.2l0.4,0.2c0.5,0.2,0.9,0.4,1.3,0.6
							c1,0.6,1.6,1.3,1.3,2.6c-0.5,1.8-0.7,3.7-1.1,5.6c0,0.2-0.1,0.4-0.2,0.6c0,0.1-0.2,0.2-0.3,0.2l-3.3-0.8c-0.1,0-0.3,0-0.3,0.2
							c0,0.1,0,0.2,0.1,0.2c0.9,0.8,2,1.4,3.2,1.8c0.1,0,0.2,0.2,0.2,0.3c-0.8,2.5-1.9,4.9-3.3,7.1c-0.1,0.1-0.2,0.1-0.3,0.1
							c-1.9-1.2-3.9-2.1-6.1-2.6c-0.1,0-0.2-0.2-0.2-0.3c0,0,0,0,0,0c0.3-1.2,0.5-2.4,0.8-3.6c1-4.1,2-8.2,3.2-12.2
							c1.1-3.6,2.5-7.1,4.3-10.4c1.1-2,2.3-4,3.5-6c0.1-0.1,0.1-0.2,0.1-0.4c-0.1,0.1-0.2,0.1-0.3,0.2c-3.3,4.4-6.1,9.2-8.3,14.3
							c-2.4,5.7-4,11.5-3.8,17.8C-122.9-303.4-123-303.3-123-303.2z"/>
						<path id="路径_1490" class="st13" d="M-72-296.5c-0.2-0.2-0.4-0.3-0.7-0.4c-1.9-1.1-3.7-2.2-5.7-3.2c-0.5-0.2-0.9-0.7-1-1.2
							c-0.1-0.2-0.1-0.4-0.2-0.6c0-0.1-0.2-0.2-0.3-0.2c-0.1,0-0.1,0.1-0.2,0.2l-0.2,0.7c0,0.1-0.2,0.2-0.3,0.2c0,0,0,0,0,0
							c-0.6-0.2-1.2-0.4-1.8-0.6c-0.1-0.1-0.2-0.2-0.3-0.4c-0.3-1.4-0.8-2.8-1.4-4.1c-0.1-0.1-0.2-0.2-0.3-0.1
							c-0.1,0-0.1,0.1-0.1,0.2v3.6c0,0.1-0.1,0.2-0.2,0.2c0,0,0,0,0,0c-1.1-0.1-2.1-0.2-3.2-0.3c-0.1,0-0.3-0.2-0.4-0.4
							c-0.6-1.7-1.5-3.3-2.6-4.8c-0.2-0.2-0.3-0.4-0.6-0.6c0.8,1.8,1.2,3.7,1.4,5.6c0,0.1-0.1,0.2-0.2,0.3c-3.4,0.3-6.6,1.5-9.4,3.4
							c-0.1,0.1-0.3,0.1-0.3-0.1c0,0,0-0.1,0-0.1c-0.1-1.6,0.1-3.2,0.4-4.7l-0.2,0c-0.3,0.8-0.5,1.6-0.7,2.4
							c-0.2,1.1-0.3,2.2-0.5,3.3c0,0.2-0.1,0.4-0.2,0.5c-1.1,1.3-2.1,2.6-3.2,3.9c0,0-0.1,0.1-0.1,0.1c-0.1,0.1-0.2,0.1-0.3,0
							c0,0-0.1-0.1-0.1-0.1c-0.4-1-0.8-1.8-1.1-2.7c-0.3-0.7-0.5-1.5-0.7-2.2c0-0.1-0.2-0.2-0.3-0.2c-0.1,0-0.2,0.1-0.2,0.2
							c-0.4,1.9,0,4.4,1,6.7c0,0.1,0,0.2-0.1,0.3l-1.2,1c-0.1,0.1-0.3,0.1-0.3,0c0,0,0,0,0,0c-1.9-3.7-4.4-6.7-7.7-9.1
							c-0.1-0.1-0.1-0.2-0.1-0.3c0,0,0,0,0.1-0.1c0.9-0.6,1.7-1.2,2.6-1.8c2.8-1.8,5.5-3.8,8.4-5.4c3.4-2,7.1-3.3,11.1-3.7
							c3.7-0.4,7.5,0.4,10.7,2.2c4.1,2.3,7.1,5.6,9.6,9.4c0.6,0.9,1.1,1.8,1.7,2.6L-72-296.5z"/>
						<path id="路径_1491" class="st13" d="M-123.5-303.1c0,0.1,0,0.3-0.2,0.3c-0.1,0-0.1,0-0.2,0c-1.5-0.9-2.9-1.8-4.4-2.6
							c-3.5-2-7.3-3.4-11.2-4.2c-1.2-0.2-2.5-0.3-3.8-0.4c-0.3-0.1-0.5-0.2-0.8-0.4c-1-0.9-1-2-0.6-3.2c0.6-2,1.6-3.9,2.8-5.5
							c0.1-0.1,0.1-0.3-0.1-0.3c-0.1-0.1-0.2-0.1-0.3,0c-1.9,1.1-3.5,2.6-4.8,4.4c-0.1,0.1-0.2,0.1-0.3,0c0,0,0,0,0,0
							c-0.6-0.6-0.5-0.7-0.1-1.5c0.4-0.9,0.9-1.7,1.4-2.6c0.1-0.1,0-0.3-0.1-0.3c-0.1,0-0.2,0-0.2,0c-0.7,0.4-1.2,1-2.1,2.3
							c-0.1,0.1-0.2,0.1-0.3,0.1c0,0,0,0,0,0c-0.6-0.6-1.1-1.2-1.7-1.8c-0.1-0.2-0.1-0.3-0.1-0.5c0.1-1.9,1.2-5.1,2.4-6.8
							c0.1-0.1,0.2-0.1,0.3-0.1c0.7,0.4,1.4,0.7,2.1,1.1c4.1,2.3,7.8,5.2,11.2,8.4c1.8,1.7,3.6,3.5,5.4,5.2c2,2,3.4,4.4,4.8,6.8
							c0.3,0.5,0.6,1.1,0.9,1.6C-123.5-303.1-123.5-303.1-123.5-303.1z"/>
					</g>
				</g>
			</g>
			<path id="路径_1503" class="st11" d="M1290.1,243.6c-58.1-9.5-148.5-20.1-256.4-16c-109.4,4.2-192.9,22-244.7,35.9
				c48.3,13.6,110.9,28.1,185.5,37.9c39.6,5.2,102.3,13.3,181,11.9c20-0.4,35.5-0.7,52.2-2.3c14.4-1.4,12.9-2.1,18.8-2.2
				c34.3-0.7,56.6,21,69.3,17.1c7-2.1,7-10.7,3.3-16.2c-3.5-5.2-8.6-5.3-13.2-9.7c-9-8.7,1.6-17,4.8-34.5
				C1291.5,260.6,1292.1,253.1,1290.1,243.6z"/>
			<g id="组_125" transform="translate(2675.001 417.443)">
				<path id="路径_1465" class="st16" d="M-1585.3-314.6c-4.4,0-8.1,3.3-8.8,11c-0.3,2.8-0.3,5.2,0,7.2l-0.3-0.1
					c0,0-4.2,10.1-6.7,10.5c-2.6,0.4,12.5,5.9,12.5,1.8c0.1-2.2,0.3-4.5,0.7-6.7c0.2,0,0.5,0.1,0.8,0.1c7,0.7,7.7-1.8,9.5-8.4
					C-1575.8-305.8-1580.9-314.6-1585.3-314.6z"/>
				<path id="路径_1466" class="st16" d="M-1555.6-270.9c0.7-0.7,1.8-1.8,2.9-1.8c1.1,0,4,0.7,4.8,0.4c0.7-0.4,3.7-1.1,4-0.4
					c0.4,0.7-2.6,4-3.7,4s-3.7-1.1-4.4-0.7c-0.7,0.4-1.1,1.8-1.1,1.8l-4.4-1.1L-1555.6-270.9z"/>
				<path id="路径_1467" class="st17" d="M-1624.9-149.9c0.7-1.1,5.1-1.5,5.9-1.5s5.9-2.6,7-2.6s4.4-0.7,5.5,0.7
					c1.1,1.5,0.4,4.4-1.1,5.5c-1.5,1.1-6.2,2.9-8.4,3.3c-2.2,0.4-7.3,1.1-8.4,0C-1626.7-146.6-1624.9-149.9-1624.9-149.9z"/>
				<path id="路径_1468" class="st18" d="M-1582.7-316.4c-1.7-0.2-3.4-0.2-5.1,0c-2.9,0.4-4.4,2.9-6.2,3.7c-1,0.4-2.1,0.8-3.1,1.2
					c-2.7,0.3,3.3-7.2,0.2-9.3c-3.3-2.2-7-4-11.4-1.8c-4.4,2.2-10.3,7.3-7,9.2c3.3,1.8,6.2-1.1,8.1,0c1.8,1.1-0.1,1.7,1.5,3.3
					c1.1,1.1,3.9-0.9,5.1,0c0,0,2.9,2.6,0.4,7c-1.7,3.1-1.3,6.9,1.1,9.5c2.9,3.3,4.4-1.5,5.5,0s3.7,1.1,6.2-0.4
					c2.6-1.5,4.4-4.8,2.6-4.4s-1.8-3.3-1.1-4.4c0.7-1.1,1.1-1.5,3.3-0.7c2.2,0.7,2.9,0.4,5.5-2.9
					C-1574.6-309.8-1578.7-314.9-1582.7-316.4z"/>
				<path id="路径_1469" class="st17" d="M-1600.3-148.1c0.7-1.1,5.1-1.5,5.9-1.5s5.9-2.6,7-2.6s4.4-0.7,5.5,0.7
					c1.1,1.5,0.4,4.4-1.1,5.5c-1.5,1.1-6.2,2.9-8.4,3.3c-2.2,0.4-7.3,1.1-8.4,0C-1602.2-144.8-1600.3-148.1-1600.3-148.1z"/>
				<path id="路径_1470" class="st19" d="M-1623-241.4c1-1.7,9.1-0.3,9.1-0.3l15.1,2.4c0,0,8.7,3,8.7,4.4c0.1,3.6-0.3,11.1,0,13.1
					c0.7,4,3.4,27.7,3.4,30.6c0,4.4-3,42.3-6.4,43.3s-6.4,2-7.7-0.3s1.7-37,0.3-42.7c-0.9-3.8-7.1-31.2-8.7-26.5
					c-1.7,4.7,3.4,23.2,2,27.2c-1.2,3.5-5,39-6.7,40c-1.7,1-8.7,2.4-9.1-1.7c-0.3-4.1,4-36.3,4-39s-9.1-26.5-7.1-36.6
					C-1625-232.9-1623-241.4-1623-241.4z"/>
				<path id="路径_1471" class="st17" d="M-1555.2-269.1c-1.1-1.1-0.4-1.8-0.4-1.8s-8.4-0.4-11.4-1.5c-2.7-1-7.3-4-11.4-5.9
					c-4-1.8-5.1-5.1-7.7-6.2c-2.6-1.1-5.5,0-9.2-0.4s-6.2-3.3-11.7-1.1c-5.1,2-11.4,12.8-12.1,18c-0.4,2.6-4,18.7-4,24.6
					s30.1,9.9,32.3,7.7c1.3-1.3-2-10.3-1.1-17.4c1.9-0.4,3.6-1.5,4.8-3.1c3-4,1.7-8.2,0.6-10.4c2.2,1.2,7.4,4.1,10,4.6
					c3.7,0.7,8.7,0.9,11.7-0.4c2.6-1.1,11.7-5.1,11.7-5.1C-1553.8-268-1554.6-268.5-1555.2-269.1z"/>
			</g>
			<g id="组_126" transform="translate(3191.286 378.911)">
				<path id="路径_1456" class="st17" d="M-1936.5-103.1c-0.7-1.1-5.1-1.5-5.9-1.5s-5.9-2.6-7-2.6s-4.4-0.7-5.5,0.7
					c-1.1,1.5-0.4,4.4,1.1,5.5c1.5,1.1,6.2,2.9,8.4,3.3c2.2,0.4,7.3,1.1,8.4,0C-1934.7-99.8-1936.5-103.1-1936.5-103.1z"/>
				<path id="路径_1457" class="st17" d="M-1961.1-101.2c-0.7-1.1-5.1-1.5-5.9-1.5s-5.9-2.6-7-2.6s-4.4-0.7-5.5,0.7
					c-1.1,1.5-0.4,4.4,1.1,5.5c1.5,1.1,6.2,2.9,8.4,3.3c2.2,0.4,7.3,1.1,8.4,0C-1959.2-97.9-1961.1-101.2-1961.1-101.2z"/>
				<path id="路径_1458" class="st20" d="M-1970.1-236.2c-0.7,7.3,3.7,13.5,4.4,16.9c0.7,3.7-11.4,20.9-6.2,22.7
					c5.1,1.8,13.2,4.4,18.3,3.7s18.7,0.7,18.3-3.7s-5.9-17.2-5.9-21.3s4.8-12.5,5.1-18.3s0.4-21.6-2.6-22c-2.9-0.4-10.6,0.4-13.6,0
					S-1970.1-236.2-1970.1-236.2z"/>
				<path id="路径_1459" class="st16" d="M-1965.7-273.6c-0.6,4.7,1.5,11.7,8.1,11.7s10.3-4.4,9.9-8.8c-0.4-4.4-3.7-10.6-8.8-10.6
					S-1964.9-279.1-1965.7-273.6z"/>
				<path id="路径_1460" class="st21" d="M-1956.9-287.9c3-1.1,3.3-4,7.7-3.3c4.4,0.7,12.1,2.6,12.5,9.9c0.4,7.3,0.4,9.9,2.2,13.6
					c1.9,3.7,5.1,4.4,5.1,9.5c0,5.1-3.1,10.2-2.9,12.5c0.4,4,8.4,8.8,6.2,15c-2.2,6.2-5.9,9.2-18,8.1s-20.2-4.8-19.8-11.7
					c0.4-7,3.7-8.1,5.1-12.8s0.4-6.2-1.8-8.4c-2.2-2.2-3.8-5.8-2.6-9.5c0.7-2.2,4.8-5.2,7-6.6c2.2-1.5,4.8-2.2,3.7-4.4
					c-1.5-3-8.8,0.7-11,0.4c-2-0.3-5.3-2.2-5.9-4.4c-0.7-2.9,2.7-5.4,4.8-6.2C-1962.7-287.1-1958.3-287.3-1956.9-287.9z"/>
				<path id="路径_1461" class="st16" d="M-1985.6-247.5c0,0-1.1-3.8-0.2-5.4c0.9-1.6,5-5.9,3.9-5.8l-2.1,1.3
					c-0.4,0-1.9-1.2-2.1-2.7c-0.2-1.5-0.1-3.7,0.7-4.1c1-0.5,2.3-1.1,2.3-1.8c-0.1-0.7-0.7-0.9-2.1-0.7c-1.1,0.1-2.2,0.5-3.2,1.1
					c-0.7,0.5-2.6,4.2-2.3,6.4s1.4,8.8,1,11.1C-1990.2-245.9-1985.6-247.5-1985.6-247.5z"/>
				<path id="路径_1462" class="st20" d="M-1988.2-250.6c2.1-0.6,5.3,0.8,5.9,3c0.6,2.1,3.9,15.8,3.8,18s0.4,5.9-1.5,7.3
					c-2.3,1.8-5,0.9-6.1-2.3c-1.1-3.2-5.8-20-5.3-21.9S-1989.6-250.1-1988.2-250.6z"/>
				<path id="路径_1463" class="st20" d="M-1964.6-258.5c-3.1,2.6-5.6,5.9-7.3,9.5c-1.8,3.7-9.5,16.1-10.6,19.4
					c-0.9,2.8-3.4,6.9-0.7,8.1c2.6,1.1,4.8-1.8,7.3-4c3.7-3.3,14.3-18.7,15.8-20.5c1.6-1.9,5.1-7.7,4.8-9.5
					c-0.4-1.8-0.7-5.1-3.3-5.1C-1961.3-260.7-1962.4-260.4-1964.6-258.5z"/>
				<path id="路径_1464" class="st21" d="M-1936.3-201.7c-1.1-1.8-9.9,2.2-9.9,2.2l-16.5,2.6c0,0-10.3-1.1-10.3,0.4
					c-0.1,3.9,0,13.9-0.3,16.1c-0.7,4.4-2.6,30.3-2.6,33.4c0,4.8,3.3,46.2,7,47.3c3.7,1.1,7,2.2,8.4-0.4s-1.8-40.3-0.4-46.6
					c1-4.2,5.8-38.5,7.7-33.4c1.8,5.1-1.8,29.7-0.3,34.1c1.3,3.8,5.5,42.5,7.3,43.6c1.9,1.1,9.5,2.6,9.9-1.8
					c0.4-4.4-4.4-39.6-4.4-42.5s9.9-29,7.7-40C-1934.1-192.5-1936.3-201.7-1936.3-201.7z"/>
			</g>
		</g>
	</g>
</g>
</svg>
