<svg xmlns="http://www.w3.org/2000/svg" width="200" height="200" viewBox="0 0 200 200">
  <g id="communicate" transform="translate(-1142 -440.997)">
    <g id="dianhua1" transform="translate(1188.577 440.997)">
      <path id="路径_23" data-name="路径 23" d="M39.646,133.268a9.384,9.384,0,0,0-5.99,2.2,77.471,77.471,0,0,0-7.637,5.89c-8.236,7.038-12.978,16.123-12.03,23.062,1.8,13.528,18.17,42.779,38.736,63.445S102.641,264.6,116.468,266.4c7.138.948,13.877-2.146,22.413-10.433a36.839,36.839,0,0,0,7.488-9.984,8.436,8.436,0,0,0,.549-6.29l-1.847-2.5a54.909,54.909,0,0,0-5.691-5.491c-3.844-3.344-8.236-6.739-11.381-8.935s-6.29-4.493-6.839-4.892l-3.045-1.6a4.043,4.043,0,0,0-3,0,4.293,4.293,0,0,0-2.2,2,42.081,42.081,0,0,0-3.145,4.992c-.449.849-.948,1.9-1.5,3.045s-1.547,3.245-2.446,4.992a14.576,14.576,0,0,1-8.386,6.988,10.882,10.882,0,0,1-8.835-1.148,125.791,125.791,0,0,1-25.607-19.268,89.1,89.1,0,0,1-20.466-27.4A12.33,12.33,0,0,1,47.533,175.5c2.047-1.048,3.744-1.747,4.992-2.346a32.147,32.147,0,0,0,4.193-2,42.781,42.781,0,0,0,4.992-3,5.691,5.691,0,0,0,2-2.646c.9-2.6-.749-4.992-5.691-13.028-4.293-7.238-4.542-7.737-5.691-9.484a31.148,31.148,0,0,0-8.686-8.486,8.286,8.286,0,0,0-3.993-1.248Z" transform="translate(-11.765 -115.048)" fill="#ff6e6d"/>
      <path id="路径_24" data-name="路径 24" d="M107.2,256.9a20.963,20.963,0,0,1-2.8,0c-13.927-1.847-43.977-18.32-64.892-39.085S2.124,167.045.127,153.268c-1-7.587,3.943-17.371,12.679-24.959a79.868,79.868,0,0,1,7.887-5.99,11.231,11.231,0,0,1,7.238-2.546,10.333,10.333,0,0,1,4.992,1.747,33.544,33.544,0,0,1,9.235,8.985c1,1.348,1.348,1.9,4.043,6.19l2.146,3.444c4.992,8.137,6.839,10.882,5.641,14.326a7.587,7.587,0,0,1-2.7,3.594,44.925,44.925,0,0,1-4.992,3.195,35.291,35.291,0,0,1-4.343,2.1c-1.448.6-3.045,1.3-4.992,2.3a10.383,10.383,0,0,0-4.243,12.479A87.256,87.256,0,0,0,52.69,204.882,124.044,124.044,0,0,0,78,224a8.885,8.885,0,0,0,7.238.948,12.529,12.529,0,0,0,7.188-6.04c.9-1.647,1.7-3.344,2.446-4.992s1.1-2.3,1.547-3.145a48.119,48.119,0,0,1,3.195-5.391,6.29,6.29,0,0,1,3.145-2.745,6.09,6.09,0,0,1,4.443,0l3.195,1.647c.7.449,3.394,2.2,7.038,4.692s7.488,6.14,11.481,9.484a55.66,55.66,0,0,1,5.99,5.741l1.9,2.546a9.984,9.984,0,0,1-.349,8.286,38.935,38.935,0,0,1-7.937,10.732C120.527,253.452,114.038,256.9,107.2,256.9ZM27.482,123.816a8.186,8.186,0,0,0-4.493,1.847,75.872,75.872,0,0,0-7.438,5.89c-7.737,6.489-12.18,14.975-11.331,21.165C5.968,165.9,22.091,194.6,42.357,214.766s49.318,36.24,62.6,37.987c6.489.9,12.729-2.1,20.765-9.983a34.643,34.643,0,0,0,7.038-9.484,7.987,7.987,0,0,0,.7-4.393l-1.747-2.5a57.053,57.053,0,0,0-5.391-4.992c-3.794-3.295-8.087-6.639-11.181-8.785s-6.24-4.193-6.789-4.543l-2.9-1.647a2.146,2.146,0,0,0-1.348,0,2.3,2.3,0,0,0-1.148,1.048v.349a43.527,43.527,0,0,0-2.9,4.992c-.4.749-.849,1.7-1.3,2.646-.9,1.9-1.747,3.594-2.646,5.341a16.672,16.672,0,0,1-9.584,7.937A12.829,12.829,0,0,1,76.151,227.4a127.787,127.787,0,0,1-26.107-19.967,90.9,90.9,0,0,1-20.865-28.054,14.276,14.276,0,0,1,5.89-17.172c2.1-1.048,3.794-1.8,5.291-2.4A30.3,30.3,0,0,0,44,158.06h.4A40.682,40.682,0,0,0,49,155.214a3.594,3.594,0,0,0,1.3-1.7c.449-2-.8-3.993-5.241-11.182l-2.146-3.444c-2.845-4.193-2.845-4.692-3.993-5.94a29.4,29.4,0,0,0-8.136-7.987,6.339,6.339,0,0,0-3.045-1.2Z" transform="translate(0 -103.6)" fill="#ff6e6d"/>
      <path id="路径_25" data-name="路径 25" d="M568.984,95.027a5.391,5.391,0,0,1-5.241-5.491c-.05-36.04-28-65.342-62.446-65.342a5.391,5.391,0,0,1-5.241-5.491,5.391,5.391,0,0,1,5.241-5.541c40.183,0,72.929,34.243,72.929,76.374A5.391,5.391,0,0,1,568.984,95.027Z" transform="translate(-420.803 -13.162)" fill="#ffc6c6"/>
      <path id="路径_27" data-name="路径 27" d="M547.644,210.869a5.391,5.391,0,0,1-5.241-5.491,43.678,43.678,0,0,0-42.629-44.626,5.516,5.516,0,0,1,0-11.032,54.46,54.46,0,0,1,53.112,55.608A5.391,5.391,0,0,1,547.644,210.869Z" transform="translate(-419.28 -129.005)" fill="#ff9595"/>
      <path id="路径_29" data-name="路径 29" d="M524.791,348.764a5.391,5.391,0,0,1-5.241-5.491,19.568,19.568,0,0,0-19.118-19.967,5.516,5.516,0,0,1,0-11.032,30.35,30.35,0,0,1,29.351,30.949A5.391,5.391,0,0,1,524.791,348.764Z" transform="translate(-419.838 -266.899)" fill="#ff6e6d"/>
    </g>
    <g id="组_24" data-name="组 24" transform="translate(1142 553.521)">
      <path id="路径_30" data-name="路径 30" d="M34,0H68a34,34,0,0,1,34,34v5A34,34,0,0,1,68,73H55.714a20.576,20.576,0,0,1-9.048,10.6c-6.845,3.78-20.551,3.938-20.983,3.868s5.424-4.959,6.981-8.455A13.361,13.361,0,0,0,34,73,34,34,0,0,1,0,39V34A34,34,0,0,1,34,0Z" fill="#4497ff"/>
      <circle id="椭圆_16" data-name="椭圆 16" cx="5.67" cy="5.67" r="5.67" transform="translate(24 32)" fill="#fff"/>
      <circle id="椭圆_17" data-name="椭圆 17" cx="5.67" cy="5.67" r="5.67" transform="translate(44.425 32)" fill="#fff"/>
      <circle id="椭圆_18" data-name="椭圆 18" cx="5.67" cy="5.67" r="5.67" transform="translate(65.849 32)" fill="#fff"/>
    </g>
  </g>
</svg>
