<svg id="Layer_1" data-name="Layer 1" xmlns="http://www.w3.org/2000/svg" viewBox="0 0 1440 442"><defs><style>.cls-1{fill:#566ed1;}.cls-2{fill:#b7dfe6;}.cls-3{fill:#4497ff;}.cls-4{fill:#ff6d6d;}.cls-5{fill:#ffd38f;}.cls-6{fill:#25497a;}</style></defs><title>attend_header</title><path class="cls-1" d="M0,442H1440V401.3C1218.82,363.13,975.45,342,720,342S221.18,363.13,0,401.3Z"/><path class="cls-2" d="M540.48,385.14c105.94.83,127.91,31.75,212.4,25.26,72.66-5.58,157.6-19.71,228.15-19.71,76,1,158.35,27.78,213.83,35.4,45.88,5.88,163.89,21,197.18,2.77,17.32-9.47,6.45-25-6.45-37C1038.84,337.61,659.92,327,298,361.35c4,12.89,14.47,28.91,44.91,36.28C393.53,409.85,441.52,384.41,540.48,385.14Z"/><path class="cls-3" d="M1333.41,415.89c-.86-1.67-7.06-2.8-8.09-2.85s-7.92-4.42-9.48-4.58-6.09-1.68-7.87.26-1.13,6.15.76,7.93,8.4,5,11.42,5.87,10.19,2.59,11.91,1.19C1335.51,420.85,1333.41,415.89,1333.41,415.89Z"/><path class="cls-3" d="M1298.43,415c-.86-1.67-7.06-2.8-8.08-2.85s-7.92-4.42-9.49-4.59-6.09-1.67-7.86.27-1.14,6.15.75,7.93,8.41,5,11.42,5.82,10.19,2.59,11.91,1.18C1300.59,419.94,1298.43,415,1298.43,415Z"/><path class="cls-4" d="M1304.79,223.31c-2,10.24,3.34,19.56,3.83,24.41.54,5.29-19,27.93-12,31.21s18,8.09,25.38,7.77,26.3,3.66,26.41-2.59-5.88-25.17-5.28-30.83,8.46-16.93,9.8-25.17,3.56-30.51-.53-31.43-15-1-19.14-1.89S1304.79,223.31,1304.79,223.31Z"/><path class="cls-5" d="M1316.27,171.13c-1.56,6.58.43,16.77,9.75,17.68s15.09-4.74,15.2-11.05-3.66-15.52-10.88-16.22S1318.1,163.48,1316.27,171.13Z"/><path class="cls-6" d="M1330.71,152.21c4.31-1.13,5.23-5.23,11.32-3.55s16.71,5.33,16.22,15.73-.86,14,1.19,19.46,6.63,7,5.92,14.18-5.87,14-5.87,17.19c0,5.72,10.67,13.59,6.68,22.1s-9.59,12.13-26.51,8.84-27.75-9.59-26.3-19.35,6.31-10.89,9.05-17.41,1.41-8.73-1.4-12.18-4.58-8.68-2.26-13.8c1.35-3,7.49-6.63,10.78-8.35s7.06-2.43,5.76-5.72c-1.72-4.47-12.5-.21-15.57-1.08-2.75-.75-7.22-3.88-7.65-7-.65-4.26,4.63-7.28,7.6-8.14C1322.31,152.37,1328.56,152.75,1330.71,152.21Z"/><path class="cls-5" d="M1284.53,205.09s-.7-8.3.81-10.4,6.68-4.31,5.12-4.26l-2.59,0a3.09,3.09,0,0,1-2.16-3.07c0-2.1.43-4.69,2-4.74s2.58-.06,2.58-1.08-.53-2.05-2.64-2a9.75,9.75,0,0,0-4.63,1.13c-1,.54-4.64,2.21-4.58,5.28s1.35,14.55.38,17.68S1284.53,205.09,1284.53,205.09Z"/><path class="cls-4" d="M1281.29,200.45c3.13-.59,7.33,1.94,7.93,5s3.23,22.8,2.74,25.92-.26,8.3-3.12,10.14c-3.45,2.21-7.17.48-8.3-4.15s-5.34-29-4.31-31.64S1279.19,200.83,1281.29,200.45Z"/><path class="cls-4" d="M1315.73,192.53a42.53,42.53,0,0,0-11.69,12.4c-3.13,4.9-15.74,21.45-17.73,25.92-1.67,3.83-5.82,9.27-2.16,11.27,3.45,1.94,7.06-1.84,10.94-4.64,5.66-4.15,22.8-24.36,25.17-26.73,2.48-2.54,8.35-10.14,8.08-12.78s-.32-7.33-3.93-7.71S1319.07,190.21,1315.73,192.53Z"/><path class="cls-6" d="M1347.63,276.72c-1.29-2.75-14.28,1.73-14.28,1.73l-23.66,1.29s-14.33-3.07-14.6-.92c-.7,5.55-1.89,19.68-2.75,22.75-1.67,6.09-7.87,42.37-8.3,46.73-.7,6.74-1.83,65.71,3.18,67.75s9.54,4.1,12,.65,3.12-57.19,6-65.81c2-5.71,13.64-53.52,15.52-46s-6.68,41.66-5.28,48.08c1.24,5.6,1.78,60.8,4.2,62.58s13.1,5,14.23-1.19-.64-56.54-.21-60.64,18-39.51,16.49-55.35C1349.36,290,1347.63,276.72,1347.63,276.72Z"/></svg>