<?xml version="1.0" encoding="utf-8"?>
<!-- Generator: Adobe Illustrator 23.0.4, SVG Export Plug-In . SVG Version: 6.00 Build 0)  -->
<svg version="1.1" id="Layer_1" xmlns="http://www.w3.org/2000/svg" xmlns:xlink="http://www.w3.org/1999/xlink" x="0px" y="0px"
	 viewBox="0 0 500 500" style="enable-background:new 0 0 500 500;" xml:space="preserve">
<style type="text/css">
	.st0{clip-path:url(#SVGID_2_);}
	.st1{fill:#B7DFE6;}
	.st2{opacity:0.5;clip-path:url(#SVGID_2_);fill:#4497FF;enable-background:new    ;}
	.st3{fill:#566ED1;stroke:#566ED1;stroke-width:6;stroke-miterlimit:10;}
	.st4{fill:#4497FF;stroke:#4497FF;stroke-width:6;stroke-miterlimit:10;}
	.st5{fill:#25497A;}
</style>
<g>
	<defs>
		<circle id="SVGID_1_" cx="250" cy="250" r="250"/>
	</defs>
	<clipPath id="SVGID_2_">
		<use xlink:href="#SVGID_1_"  style="overflow:visible;"/>
	</clipPath>
	<g class="st0">
		<circle class="st1" cx="250" cy="250" r="250"/>
	</g>
	<path class="st2" d="M252,136.1c0-19-15.4-34.4-34.4-34.4c-2.6,0-5.2,0.3-7.8,0.9c-7.6-16.4-24.2-27.8-43.4-27.8
		c-19.2,0-35.7,11.3-43.3,27.6c-2.3-0.5-4.8-0.8-7.3-0.8c-19,0-34.4,15.4-34.4,34.4c0,0-28.3-4.2-28.3,16.3
		c0,19.9,66.4,14.6,66.4,14.6s12.2,15.1,35.2,17.6c33.2,3.6,53.5-12.6,53.5-12.6s66.3,10.8,70.1-2.3C284.5,149,252,136,252,136.1
		L252,136.1z"/>
	<path class="st2" d="M301.9,93.7c1.1-11.6,11.5-20.1,23.1-18.9c1.6,0.2,0.9-0.1,2.4,0.4c5.6-9.6,18.5-10.2,30.2-9
		c11.7,1.2,17.9,5.6,21.5,16.1c1.5-0.2,6.6-1.4,8.1-1.3c11.6,1.1,20.1,11.5,18.9,23.1c0,0,17.6-0.8,16.3,11.7
		c-1.2,12.1-41.5,4.9-41.5,4.9s-8.4,8.5-22.6,8.6c-20.5,0.2-32-10.9-32-10.9s-41.2,2.6-42.8-5.6C281.3,99.7,301.9,93.7,301.9,93.7
		L301.9,93.7z"/>
	<g class="st0">
		<path class="st3" d="M427.3,332.4L427.3,332.4c-2.1,0-3.7,1.6-3.8,3.6L419,500.6c-0.1,2.1,1.7,3.8,3.8,3.8h8.7
			c2.1,0,3.9-1.7,3.8-3.8L431,336C431.1,333.9,429.4,332.4,427.3,332.4z"/>
		<path class="st4" d="M435.6,257.9L435.6,257.9c0.3,0.4,0.4,0.9,0.4,1.3l-6.2,65.7c-0.1,1-1,1.8-2.1,1.8h-1.3
			c-1.2,0-2.1-0.9-2.1-2.1l0.3-4.7c0-0.5-0.2-1-0.4-1.4l-3.8-4.3c-0.4-0.5-0.6-1.1-0.4-1.7l12-53.8
			C432.2,256.9,434.6,256.4,435.6,257.9z"/>
		<path class="st4" d="M488.5,373.2L488.5,373.2c-0.4,0.1-1-0.1-1.3-0.3l-56.6-37.3c-0.9-0.6-1.2-1.7-0.6-2.7l0.6-1.1
			c0.6-1,2-1.3,2.9-0.7l4.1,2.6c0.4,0.3,1,0.3,1.5,0.3l5.8-1c0.6-0.1,1.2,0.1,1.8,0.4l43,36.4C491.1,370.8,490.3,373,488.5,373.2z"
			/>
		<path class="st4" d="M357,359.4L357,359.4c0.2-0.4,0.5-0.8,1-0.9l62.3-27.8c1-0.4,2.1-0.1,2.7,0.8l0.7,1.1c0.6,1,0.2,2.2-0.9,2.7
			l-4.4,2.1c-0.4,0.3-0.8,0.6-1,1.1l-2,5.3c-0.2,0.6-0.7,1-1.3,1.2l-54.5,17C357.8,362.7,356.2,361,357,359.4z"/>
		<ellipse class="st5" cx="427.2" cy="333.1" rx="8.6" ry="8.2"/>
	</g>
	<g class="st0">
		<path class="st3" d="M249.7,306.5L249.7,306.5c-2.8,0-5.2,2.3-5.3,5l-6.1,228.3c-0.1,2.9,2.4,5.2,5.3,5.2h12c3,0,5.4-2.4,5.3-5.2
			l-6.1-228.3C255,308.6,252.7,306.5,249.7,306.5z"/>
		<path class="st4" d="M355.6,308.3L355.6,308.3c-0.5,0.4-1.1,0.8-1.7,0.7l-91.4,2.5c-1.4,0-2.6-1.1-2.8-2.5l-0.2-1.8
			c-0.2-1.6,0.9-3.1,2.6-3.2l6.5-0.4c0.7-0.1,1.4-0.4,1.8-0.8l5.3-6c0.6-0.7,1.4-1,2.3-0.9l76.1,7.5
			C356.3,303.6,357.4,306.7,355.6,308.3z"/>
		<path class="st4" d="M205.6,400.4L205.6,400.4c-0.2-0.6,0-1.4,0.2-1.9l41.9-84.1c0.7-1.3,2.2-1.9,3.6-1.3l1.6,0.7
			c1.5,0.7,2.1,2.5,1.4,3.9l-2.9,6.1c-0.3,0.7-0.3,1.4-0.1,2.1l2.4,7.8c0.2,0.8,0.1,1.7-0.3,2.5l-43,65.3
			C209.3,403.6,206.2,403,205.6,400.4z"/>
		<path class="st4" d="M202.7,217.2L202.7,217.2c0.6,0.2,1.2,0.6,1.5,1.2l48.6,81.1c0.8,1.3,0.5,2.9-0.6,3.8l-1.4,1.2
			c-1.3,1-3,0.6-3.9-0.8l-3.7-5.7c-0.4-0.6-1-1-1.7-1.2l-7.6-1.8c-0.9-0.1-1.5-0.8-1.9-1.6l-32.5-72.2
			C198.2,218.8,200.3,216.3,202.7,217.2z"/>
		
			<ellipse transform="matrix(0.9927 -0.1204 0.1204 0.9927 -35.4184 32.4017)" class="st5" cx="250.5" cy="309.4" rx="11.4" ry="11.9"/>
	</g>
	<g class="st0">
		<path class="st3" d="M104.4,337.8L104.4,337.8c-2.2,0-4.1,1.8-4.2,3.9l-4.8,179.2c-0.1,2.2,1.8,4.1,4.2,4.1h9.4
			c2.3,0,4.3-1.9,4.2-4.1l-4.8-179.2C108.6,339.5,106.7,337.8,104.4,337.8z"/>
		<path class="st4" d="M136.2,262.5L136.2,262.5c0.2,0.5,0.2,1,0,1.5l-25.7,67c-0.4,1.1-1.6,1.6-2.7,1.3l-1.4-0.4
			c-1.2-0.3-2-1.6-1.5-2.8l1.7-4.9c0.2-0.5,0.1-1.1-0.1-1.6l-2.8-5.6c-0.3-0.7-0.3-1.4,0-1.9l28.3-52.9
			C133,260.5,135.6,260.7,136.2,262.5z"/>
		<path class="st4" d="M157.8,398.9L157.8,398.9c-0.5,0-1-0.4-1.3-0.8l-48.3-55.7c-0.8-0.9-0.7-2.1,0.1-3l1-1c1-0.9,2.4-0.8,3.3,0.1
			l3.5,3.9c0.4,0.4,0.9,0.6,1.5,0.7l6.4,0.6c0.7,0.1,1.3,0.5,1.7,1l34.4,50.8C161.2,397.2,159.8,399.3,157.8,398.9z"/>
		<path class="st4" d="M24.1,345.8L24.1,345.8c0.3-0.4,0.8-0.7,1.3-0.7l73.4-10.8c1.2-0.2,2.3,0.5,2.6,1.6l0.4,1.4
			c0.4,1.3-0.5,2.4-1.7,2.6l-5.2,1c-0.5,0.1-1,0.4-1.4,0.9l-3.6,5c-0.4,0.6-1.1,0.9-1.8,0.9L26,349.4
			C23.9,349.5,22.8,347.3,24.1,345.8z"/>
		
			<ellipse transform="matrix(0.2698 -0.9629 0.9629 0.2698 -249.4488 348.9232)" class="st5" cx="105.3" cy="338.9" rx="9" ry="9.3"/>
	</g>
</g>
</svg>
