<?xml version="1.0" encoding="utf-8"?>
<!-- Generator: Adobe Illustrator 23.0.4, SVG Export Plug-In . SVG Version: 6.00 Build 0)  -->
<svg version="1.1" id="Layer_1" xmlns="http://www.w3.org/2000/svg" xmlns:xlink="http://www.w3.org/1999/xlink" x="0px" y="0px"
	 viewBox="0 0 1280 240" style="enable-background:new 0 0 1280 240;" xml:space="preserve">
<style type="text/css">
	.st0{opacity:8.000000e-02;clip-path:url(#SVGID_2_);fill:#5870C9;enable-background:new    ;}
	.st1{opacity:0.1;clip-path:url(#SVGID_4_);}
	.st2{fill:#26497A;}
	.st3{clip-path:url(#SVGID_6_);fill:#26497A;}
	.st4{fill:#4497FF;}
	.st5{fill:#E4F2FF;}
	.st6{fill:#FF6D6D;}
	.st7{fill:#566ED1;}
</style>
<g>
	<g>
		<defs>
			<rect id="SVGID_1_" y="-30" width="1280" height="269.5"/>
		</defs>
		<clipPath id="SVGID_2_">
			<use xlink:href="#SVGID_1_"  style="overflow:visible;"/>
		</clipPath>
		<path class="st0" d="M1275,200.4v-4.6h-2.6v4.6h-1.2v-6.2H1261v2.9h-1.2v-2.9h-2.7v2.9h-1.2v-14h-5.8v7.7h-3.6v2.1h-7.6v-48.4l0,0
			l-5.3-6.2v3l0,0v-2.9h-0.6v-2.1h-4.5v2.1h-0.6v2.9h-0.6h-0.6v4h0.6v23.7c-1.9-1.2-4.4-2.1-7.3-3v-15.4h1.1v-4.3h-1.1h-1.3v-4.9
			h-4.7v4.9h-1.6h-1v4.3h1v13.7c-3.8-0.7-7.8-1.3-11.9-1.8v-11.9h-11.3v10.6c-0.4-0.1-0.8-0.1-1.1-0.1v-5.3h-1.4v-1.7h-10.8v1.7
			h-1.2v3.7c-0.4-0.1-0.8-0.1-1.2-0.1v-24.4h0.1l-1.4-4.1l-7-7.7l-6.3,6.6l-1.8,5.2l0,0v24.4c-1.2,0.1-2.5,0.2-3.7,0.3
			c-0.5-0.1-1,0-1.6,0.1c-1.2,0.1-2.3,0.2-3.5,0.4v-12.1c0-0.1,0-0.1,0-0.1v-0.1v-0.4l0,0c-0.4-1.9-3.3-1.8-5.2-0.1
			c-2,1.9-2.8,4.3-2.9,6.3c0,0.1,0,0.1,0,0.1l0,0v7.3c-0.1,0-0.2,0-0.2,0c-0.9-0.5-2.3-0.4-3.4,0.4c-2.4,0.4-4.7,0.7-7.2,1.1v-7.6
			h-2v-3.7l0,0v-3.4l-3.3-5.6h-2.4l-2.1,3.8v3.8h-3v14.9c-0.6,0.1-1.3,0.3-1.9,0.4v-1.3h-22.2v5.6c-1.5,0.3-2.9,0.5-4.3,0.9v-8.5
			c0-0.1,0-0.2,0-0.2c0-3.1-1.2-5.7-3-6.9v-3.1c0-1.3-0.5-2.3-1.2-2.7V146h-1.5v2.9c-0.6,0.4-1,1.4-1,2.6v3.1
			c-1.7,1.2-2.9,3.8-2.9,6.8v0.1l0,0v10.6c-4.1,0.8-8.1,1.5-11.8,2.2l-5.8-4.4v-5.5l0,0h-1.8l0,0v5.5l-9.3,7
			c-1.7,0.2-3.3,0.4-4.8,0.4l-0.7-1.7h-2.8v-14.2l0,0v-0.1c0-3.1-1.2-5.7-2.9-6.8v-3.1c0-1.1-0.4-2.1-1-2.6V146h-1.5v2.7
			c-0.7,0.4-1.2,1.4-1.2,2.7v3.1c-1.8,1.1-3,3.8-3,6.9c0,0.1,0,0.1,0,0.2v14.1h-2.4v0.5c-1.6-0.2-3.2-0.4-4.9-0.4v-30.4l0,0
			l-6.5-25.2l-10.7-3.1l-5.2,23.6l0,0v4.6v4.3v25.9c-5,0.2-10.2,0.6-15.5,1.1v-25.9l-1.2-0.4v-3.2l0,0l-3.7-12.3l-11-4.6l0,0l0,0
			l0,0v0.1l-4.6,13.3h7.2l0,0l0,0h-7.2v3.4H965v32.1c-1.2,0.2-2.3,0.4-3.5,0.5v-14.6h-1.3v-2.6h-1.7v-2.4h-6.4v2.4h-2v2.6H948v16.8
			c-1.8,0.4-3.7,0.6-5.5,1v-7.2H941v-4.3h-7.4v4.3v8.9c-4.2,0.9-8.1,1.8-11.7,2.7c-10.6,2.6-23.3,3.1-36.2,2.2v-15.6h-25.5v12.8
			c-1-0.2-2-0.4-3-0.5v-16.8H850v-4.6h-15.2v-21.6v-8.2h-14.1v8.2h-2.8v26.2h-2.1v-4.6h-8.3v-42h-3.2v-4.9h-3.9v-4.6h-12.2v4.6H785
			v4.9h-2.6V188h-6.6V88.2h-2.6v-6.6h-13.9l0,0l0,0h13.9l-8.7-25.5v-0.1h-0.1l0,0l0,0l-21.1,8.7l-7.2,23.5l0,0v6.3l-2.2,0.6v50.7
			h-19.5v24.3h-2.8v-8.9h-4.7v8.9h-2.8v-1.6V93.1V85v-8.8l0,0l-10-45.3l-20.5,5.9L661.1,85l0,0v83.6h-2.6v-6.2h-6.9V143h-4.5v-27
			c0-0.1,0-0.2,0-0.3c0-6-2.4-11.1-5.8-13.3v-6c0-2.3-1-4.4-2.4-5.2V86h-2.8v5.5c-1.2,0.9-2,2.8-2,4.9v6c-3.3,2.2-5.6,7.3-5.6,13.2
			c0,0.1,0,0.1,0,0.1l0,0v27.2h-5.4l-3.3,7.8l-25.1-18.9v-10.5h-0.1h-3.5H591v10.5l-25.1,18.9l-3.3-7.8h-5.4v-27.2l0,0
			c0-0.1,0-0.1,0-0.1c0-5.9-2.3-11-5.6-13.2v-6c0-2.2-0.8-4-2-4.9V86h-2.8v5.2c-1.4,0.8-2.4,2.8-2.4,5.2v6
			c-3.4,2.2-5.8,7.3-5.8,13.3c0,0.1,0,0.3,0,0.4v26.9h-4.5v25.7h-3.8V120h-42.6v48.6H484V93.2h-5.8V86l-4-7.3h-4.7l-6.3,10.7V96v0.1
			v7h-3.9v61.7h-3.6v-6.2h-2.6v6.2h-1.7v-37.1l0,0c0-3.6-1.3-8.1-4.9-11.3c-2.5-2.2-6-2.8-8-1.3v-14.3h-0.1c0-0.1,0-0.2,0-0.3
			c-0.1-3.8-1.6-8.4-5.5-12c-3.6-3.3-9.2-3.5-10,0.2h0.1v0.7c0,0.1,0,0.2,0,0.2c0,0.1,0,0.2,0,0.3v29.3c-0.8-1.9-2-3.6-3.6-5.1
			c-3.5-3.2-9.3-2.9-9.4,1.6c0,1.2,0,2.2,0.2,3.1h-0.1v45.9H406V64.6l0,0l-3.4-10.1l-12.1-12.7l-13.4,14.8l-2.8,7.9h0.2v123.3h-2.4
			v-83.4h-2.4v-3.2h-20.8v3.2h-2.8v90.9l0,0v-19.3H344V94.8h-21.7v71.5h-9.9v-5.8H303v5.9h-3.6V94.9h1.9v-8.2h-1.9h-3v-9.5h-9v9.5
			H285h-2.1v8.2h2.1v81.4h-5.6v-5.9h-2.8v-5.6h-3.9v5.6H271V84.7h1.1v-7.5H271h-1v-5.7h-1v-4h-8.6v4h-1.1v5.6l0,0v-5.7l-10.1,11.9
			h0.1v92.8h-5.5v-15c-0.5-1.4-1.3-2.5-2.3-3.1v-3.1c0-1.1-0.4-2.1-1-2.6v-2.9H239v2.7c-0.7,0.4-1.2,1.4-1.2,2.7v3.1
			c-1.8,1.1-3,3.8-3,6.9c0,0.1,0,0.1,0,0.2v14.1h-2.4v0.5c-1.6-0.2-3.2-0.4-4.9-0.4v-30.4l0,0l-6.5-25.2l-10.7-3.1l-5.3,23.6l0,0
			v4.6v4.3V179c-5,0.2-10.2,0.6-15.5,1.1v-25.9l-1.1-0.4v-3.2l0,0l-3.7-12.3l-11-4.6l0,0l0,0l0,0v0.1l-4.6,13.3h7.2l0,0l0,0h-7.2
			v3.4h-1.3v32.1c-1.2,0.2-2.3,0.4-3.5,0.5v-14.6H163v-2.6h-1.7v-2.4h-6.4v2.4h-2v2.6h-1.7v16.8c-1.9,0.4-3.7,0.6-5.5,1v-7.2h-1.4
			v-4.3h-7.4v4.3v8.9c-4.1,0.9-8.1,1.8-11.7,2.7c-1.6,0.4-3.2,0.7-4.8,1v-0.3H-2.3c-0.4,0.1-0.8,0.2-1.3,0.2v37.6h123.4v0.2h123.6
			v10.1h651.3v-27.8h-8.6v-8.2l20.8,0.4v7.5h-4.5v14.6h4.5h353h2.5v-14.6h-2.5v-7.8h12.5h2.6h8.6v-3.1L1275,200.4L1275,200.4
			L1275,200.4z"/>
	</g>
</g>
<g>
	<g>
		<defs>
			<rect id="SVGID_3_" y="-30" width="1280" height="269.5"/>
		</defs>
		<clipPath id="SVGID_4_">
			<use xlink:href="#SVGID_3_"  style="overflow:visible;"/>
		</clipPath>
		<g class="st1">
			<path class="st2" d="M1361.3,200.2c0-12.4,5-25.3,1-36.6c-4.2-11.6-16.9-19.4-24.7-29.1c-7.9-9.8-12.3-23-23.2-30.1
				c-10.8-7-26.1-6.7-39-10.5c-12.5-3.7-24.6-12.1-38.5-12.1s-26,8.4-38.5,12.1c-12.9,3.8-28.2,3.5-39,10.5
				c-10.9,7.1-15.3,20.3-23.2,30.1c-7.8,9.6-20.5,17.5-24.7,29.1c-4.1,11.2,1,24.2,1,36.6c0,12.4-5,25.3-1,36.6
				c4.2,11.6,16.9,19.4,24.7,29.1c7.9,9.8,12.3,23,23.2,30.1c10.8,7,26.1,6.7,39,10.5c12.5,3.7,24.6,12.1,38.5,12.1
				s26-8.4,38.5-12.1c12.9-3.8,28.2-3.5,39-10.5c10.9-7.1,15.3-20.3,23.2-30.1c7.8-9.6,20.5-17.5,24.7-29.1
				C1366.3,225.6,1361.3,212.6,1361.3,200.2z"/>
		</g>
	</g>
</g>
<g>
	<g>
		<defs>
			<rect id="SVGID_5_" y="-30" width="1280" height="269.5"/>
		</defs>
		<clipPath id="SVGID_6_">
			<use xlink:href="#SVGID_5_"  style="overflow:visible;"/>
		</clipPath>
		<rect y="225.5" class="st3" width="1280" height="14"/>
	</g>
</g>
<g>
	<g>
		<polygon class="st4" points="1230.4,168.1 1207.1,122.6 1088.6,122.6 1059.4,168.1 1007.5,168.1 1007.5,203.7 1266.8,203.7 
			1266.8,168.1 		"/>
		<path class="st5" d="M1007.5,182L1007.5,182c8.5,0,15.4-6.2,15.4-13.8l0,0h-15.4V182z"/>
		<path class="st5" d="M1084.9,128.1l-25.5,40h27.3c1.1,0,2.1-0.6,2.6-1.6l15.8-36.2c0.7-1.6-0.6-3.4-2.6-3.4h-15.1
			C1086.3,126.9,1085.5,127.4,1084.9,128.1z"/>
		<path class="st5" d="M1117.7,129l-11.2,32.5c-0.6,1.6,0.7,3.2,2.7,3.2h48.9c1.8,0,3.1-1.6,2.7-3.1l-9.6-32.5
			c-0.3-1.1-1.4-1.8-2.7-1.8h-28.1C1119.2,127.1,1118.1,127.9,1117.7,129z"/>
		<path class="st5" d="M1163,130.4l11.7,32.4c0.4,1,1.5,1.7,2.6,1.7h38.4c2,0,3.4-1.9,2.5-3.6l-17.7-32.5c-0.5-0.8-1.5-1.4-2.5-1.4
			h-32.3C1163.7,127.1,1162.4,128.8,1163,130.4z"/>
		<g>
			<polygon class="st2" points="1170.8,203.7 1169.9,203.7 1169.9,168.2 1153.9,122.8 1154.7,122.6 1170.8,168.1 			"/>
		</g>
		<ellipse class="st2" cx="1072.1" cy="203.7" rx="22.4" ry="20.1"/>
		<ellipse class="st5" cx="1072" cy="203.7" rx="9.3" ry="8.4"/>
		<g>
			<polygon class="st2" points="1098.6,203.7 1097.6,203.7 1097.6,168 1113,122.6 1113.8,122.8 1098.6,168.2 			"/>
		</g>
		<g>
			<polygon class="st2" points="1226.7,192.2 1225.8,192.2 1225.8,168.2 1201.6,122.9 1202.4,122.5 1226.7,168 			"/>
		</g>
		<ellipse class="st2" cx="1211" cy="203.7" rx="22.4" ry="20.1"/>
		<ellipse class="st5" cx="1211" cy="203.7" rx="9.3" ry="8.4"/>
		<path class="st6" d="M1266.7,182L1266.7,182v-13.8h-15.4l0,0C1251.3,175.8,1258.3,182,1266.7,182z"/>
	</g>
</g>
<g>
	<g>
		<path class="st7" d="M58.2,225.5l-2.4-118.7c0-1-0.9-1.8-2.1-1.8l0,0c-1.2,0-2.1,0.8-2.1,1.8l-2.4,118.7H58.2z"/>
		<path class="st7" d="M213.7,225.5l-2.4-118.7c0-1-0.9-1.8-2.1-1.8l0,0c-1.2,0-2.1,0.8-2.1,1.8l-2.4,118.7H213.7z"/>
		<path class="st7" d="M136.6,225.5l-2.4-133.3c0-1-0.9-1.8-2.1-1.8l0,0c-1.2,0-2.1,0.8-2.1,1.8l-2.4,133.3H136.6z"/>
		<path class="st4" d="M58.2,67.8L58.2,67.8c0.2,0.2,0.2,0.4,0.2,0.6l-3.3,32.8c-0.1,0.5-0.6,0.9-1.2,0.9h-0.7
			c-0.7,0-1.2-0.4-1.2-1.1l0.2-2.3c0-0.2-0.1-0.5-0.2-0.6l-2.1-2.2c-0.2-0.2-0.3-0.5-0.2-0.8l6.6-26.9
			C56.4,67.3,57.7,67.1,58.2,67.8z"/>
		<path class="st4" d="M87.5,125.4L87.5,125.4c-0.2,0-0.5-0.1-0.7-0.2l-31.2-18.6c-0.5-0.3-0.7-0.8-0.3-1.3l0.3-0.6
			c0.3-0.5,1.1-0.6,1.6-0.4l2.3,1.3c0.2,0.2,0.6,0.2,0.8,0.2l3.2-0.5c0.3-0.1,0.7,0,1,0.2l23.6,18.2
			C88.9,124.3,88.5,125.3,87.5,125.4z"/>
		<path class="st4" d="M14.9,118.5L14.9,118.5c0.1-0.2,0.3-0.4,0.6-0.4l34.4-13.8c0.5-0.2,1.2-0.1,1.5,0.4l0.3,0.6
			c0.3,0.5,0.1,1.1-0.5,1.4l-2.4,1.1c-0.2,0.1-0.5,0.3-0.6,0.5l-1.1,2.7c-0.1,0.3-0.4,0.5-0.7,0.6l-30,8.4
			C15.3,120.2,14.5,119.4,14.9,118.5z"/>
		<ellipse class="st2" cx="53.6" cy="104.2" rx="3.4" ry="2.9"/>
	</g>
</g>
<g>
	<g>
		<path class="st4" d="M213.7,70.4L213.7,70.4c0.2,0.2,0.2,0.4,0.2,0.6l-3.3,32.1c-0.1,0.5-0.5,0.9-1.1,0.9h-0.7
			c-0.7,0-1.2-0.4-1.2-1.1l0.2-2.3c0-0.2-0.1-0.5-0.2-0.6l-2.1-2.1c-0.2-0.2-0.3-0.5-0.2-0.8l6.5-26.3
			C211.9,70,213.1,69.8,213.7,70.4z"/>
		<path class="st4" d="M242.3,126.8L242.3,126.8c-0.2,0-0.5-0.1-0.7-0.2L211,108.4c-0.5-0.3-0.7-0.8-0.3-1.3l0.3-0.5
			c0.3-0.4,1-0.6,1.6-0.4l2.2,1.3c0.2,0.2,0.5,0.2,0.8,0.2l3.1-0.5c0.3-0.1,0.7,0,0.9,0.2l23.2,17.8
			C243.7,125.7,243.3,126.8,242.3,126.8z"/>
		<path class="st4" d="M171.3,120.1L171.3,120.1c0.1-0.2,0.3-0.4,0.5-0.4l33.6-13.6c0.5-0.2,1.2-0.1,1.4,0.4l0.3,0.5
			c0.3,0.4,0.1,1.1-0.5,1.3l-2.4,1.1c-0.2,0.1-0.4,0.3-0.6,0.5l-1.1,2.6c-0.1,0.3-0.4,0.5-0.7,0.6l-29.1,8.3
			C171.8,121.6,170.9,120.8,171.3,120.1z"/>
		<ellipse class="st2" cx="209.2" cy="106.1" rx="3.3" ry="2.9"/>
	</g>
</g>
<g>
	<g>
		<path class="st4" d="M162.4,124.2L162.4,124.2c-0.3-0.1-0.6-0.2-0.7-0.4l-28-29.1c-0.4-0.4-0.4-1.1,0.1-1.5l0.6-0.5
			c0.5-0.4,1.4-0.4,1.9,0.1l2.1,2c0.2,0.2,0.5,0.4,0.8,0.4l3.7,0.3c0.4,0,0.7,0.2,1,0.5l19.8,26.5
			C164.3,123.3,163.5,124.3,162.4,124.2z"/>
		<path class="st4" d="M84.7,98L84.7,98c0.2-0.2,0.5-0.4,0.7-0.4l42.9-6.9c0.7-0.1,1.3,0.2,1.5,0.8l0.2,0.6c0.2,0.6-0.2,1.3-1,1.4
			l-3.1,0.6c-0.3,0.1-0.7,0.2-0.8,0.4l-2.1,2.7c-0.2,0.3-0.6,0.4-1,0.5l-36.3,2C84.6,99.9,84,98.7,84.7,98z"/>
		<path class="st4" d="M150.2,52.2L150.2,52.2c0.1,0.2,0.1,0.5,0,0.7l-15,35.6c-0.2,0.6-0.9,0.9-1.6,0.6l-0.8-0.2
			c-0.7-0.2-1.2-0.8-0.9-1.5l1-2.5c0.1-0.3,0.1-0.6-0.1-0.8l-1.6-2.9c-0.2-0.3-0.2-0.6,0-1.1l16.6-28.2
			C148.3,51.2,149.8,51.3,150.2,52.2z"/>
		<ellipse class="st2" cx="132.1" cy="91.3" rx="3.9" ry="3.3"/>
	</g>
</g>
</svg>
