<?xml version="1.0" encoding="utf-8"?>
<!-- Generator: Adobe Illustrator 24.0.0, SVG Export Plug-In . SVG Version: 6.00 Build 0)  -->
<svg version="1.1" id="Layer_1" xmlns="http://www.w3.org/2000/svg" xmlns:xlink="http://www.w3.org/1999/xlink" x="0px" y="0px"
	 viewBox="0 0 1280 300" style="enable-background:new 0 0 1280 300;" xml:space="preserve">
<style type="text/css">
	.st0{opacity:8.000000e-02;clip-path:url(#SVGID_2_);fill:#5870C9;enable-background:new    ;}
	.st1{opacity:0.1;clip-path:url(#SVGID_4_);}
	.st2{fill:#26497A;}
	.st3{clip-path:url(#SVGID_6_);fill:#26497A;}
	.st4{fill:#4497FF;}
	.st5{fill:#E4F2FF;}
	.st6{fill:#FF6D6D;}
	.st7{fill:#566ED1;}
</style>
<g>
	<defs>
		<rect id="SVGID_1_" width="1280" height="300"/>
	</defs>
	<clipPath id="SVGID_2_">
		<use xlink:href="#SVGID_1_"  style="overflow:visible;"/>
	</clipPath>
	<path class="st0" d="M1275,256.5v-5.1h-2.6v5.1h-1.2v-6.9H1261v3.2h-1.2v-3.2h-2.7v3.2h-1.2v-15.6h-5.8v8.6h-3.6v2.3h-7.6v-53.9
		l0,0l-5.3-6.9v3.3l0,0v-3.2h-0.6v-2.3h-4.5v2.3h-0.6v3.2h-0.6h-0.6v4.4h0.6v26.4c-1.9-1.3-4.4-2.3-7.3-3.3V201h1.1v-4.8h-1.1h-1.3
		v-5.5h-4.7v5.5h-1.6h-1v4.8h1v15.3c-3.8-0.8-7.8-1.4-11.9-2V201h-11.3v11.8c-0.4-0.1-0.8-0.1-1.1-0.1v-5.9h-1.4v-1.9h-10.8v1.9
		h-1.2v4.1c-0.4-0.1-0.8-0.1-1.2-0.1v-27.2h0.1l-1.4-4.6l-7-8.6l-6.3,7.3l-1.8,5.8l0,0v27.2c-1.2,0.1-2.5,0.2-3.7,0.3
		c-0.5-0.1-1,0-1.6,0.1c-1.2,0.1-2.3,0.2-3.5,0.4V198c0-0.1,0-0.1,0-0.1v-0.1v-0.4l0,0c-0.4-2.1-3.3-2-5.2-0.1c-2,2.1-2.8,4.8-2.9,7
		c0,0.1,0,0.1,0,0.1l0,0v8.1c-0.1,0-0.2,0-0.2,0c-0.9-0.6-2.3-0.4-3.4,0.5c-2.4,0.4-4.7,0.8-7.2,1.2v-8.5h-2v-4.1l0,0v-3.8l-3.3-6.2
		h-2.4l-2.1,4.2v4.2h-3v16.6c-0.6,0.1-1.3,0.3-1.9,0.4v-1.4h-22.2v6.2c-1.5,0.3-2.9,0.6-4.3,1v-9.5c0-0.1,0-0.2,0-0.2
		c0-3.5-1.2-6.4-3-7.7v-3.5c0-1.4-0.5-2.6-1.2-3v-3h-1.5v3.2c-0.6,0.5-1,1.6-1,2.9v3.5c-1.7,1.3-2.9,4.2-2.9,7.6v0.1l0,0V225
		c-4.1,0.9-8.1,1.7-11.8,2.5l-5.8-4.9v-6.1l0,0h-1.8l0,0v6.1l-9.3,7.8c-1.7,0.2-3.3,0.4-4.8,0.5l-0.7-1.9h-2.8v-15.8l0,0v-0.1
		c0-3.4-1.2-6.4-2.9-7.6V202c0-1.2-0.4-2.3-1-2.9v-3.2h-1.5v3c-0.7,0.4-1.2,1.6-1.2,3v3.5c-1.8,1.2-3,4.2-3,7.7c0,0.1,0,0.1,0,0.2
		V229h-2.4v0.6c-1.6-0.2-3.2-0.4-4.9-0.5v-33.8l0,0l-6.5-28l-10.7-3.4l-5.2,26.3l0,0v5.1v4.8v28.8c-5,0.2-10.2,0.7-15.5,1.2v-28.8
		l-1.2-0.4v-3.6l0,0l-3.7-13.7l-11-5.1l0,0l0,0l0,0v0.1l-4.6,14.8h7.2l0,0l0,0h-7.2v3.8H965v35.7c-1.2,0.2-2.3,0.4-3.5,0.6v-16.3
		h-1.3v-2.9h-1.7v-2.7h-6.4v2.7h-2v2.9H948v18.7c-1.8,0.4-3.7,0.7-5.5,1.1v-8H941v-4.8h-7.4v4.8v9.9c-4.2,1-8.1,2-11.7,3
		c-10.6,2.9-23.3,3.4-36.2,2.5V227h-25.5v14.2c-1-0.2-2-0.4-3-0.6v-18.7H850v-5.1h-15.2v-24.1v-9.1h-14.1v9.1h-2.8v29.2h-2.1v-5.1
		h-8.3V170h-3.2v-5.5h-3.9v-5.1h-12.2v5.1H785v5.5h-2.6v72.7h-6.6V131.6h-2.6v-7.3h-13.9l0,0l0,0h13.9l-8.7-28.4v-0.1h-0.1l0,0l0,0
		l-21.1,9.7l-7.2,26.2l0,0v7l-2.2,0.7v56.4h-19.5v27h-2.8v-9.9h-4.7v9.9h-2.8V221v-84v-9v-9.8l0,0l-10-50.4l-20.5,6.6L661.1,128l0,0
		v93.1h-2.6v-6.9h-6.9v-21.6h-4.5v-30.1c0-0.1,0-0.2,0-0.3c0-6.7-2.4-12.4-5.8-14.8v-6.7c0-2.6-1-4.9-2.4-5.8v-5.8h-2.8v6.1
		c-1.2,1-2,3.1-2,5.5v6.7c-3.3,2.5-5.6,8.1-5.6,14.7c0,0.1,0,0.1,0,0.1l0,0v30.3h-5.4l-3.3,8.7l-25.1-21v-11.7h-0.1h-3.5H591v11.7
		l-25.1,21l-3.3-8.7h-5.4v-30.3l0,0c0-0.1,0-0.1,0-0.1c0-6.6-2.3-12.2-5.6-14.7v-6.7c0-2.4-0.8-4.5-2-5.5v-6.1h-2.8v5.8
		c-1.4,0.9-2.4,3.1-2.4,5.8v6.7c-3.4,2.4-5.8,8.1-5.8,14.8c0,0.1,0,0.3,0,0.5v30h-4.5v28.6h-3.8V167h-42.6v54.1H484v-84h-5.8v-8
		l-4-8.1h-4.7l-6.3,11.9v7.4v0.1v7.8h-3.9v68.7h-3.6V210h-2.6v6.9h-1.7v-41.3l0,0c0-4-1.3-9-4.9-12.6c-2.5-2.5-6-3.1-8-1.5v-15.9
		h-0.1c0-0.1,0-0.2,0-0.3c-0.1-4.2-1.6-9.4-5.5-13.4c-3.6-3.7-9.2-3.9-10,0.2h0.1v0.8c0,0.1,0,0.2,0,0.2c0,0.1,0,0.2,0,0.3V166
		c-0.8-2.1-2-4-3.6-5.7c-3.5-3.6-9.3-3.2-9.4,1.8c0,1.3,0,2.4,0.2,3.5h-0.1v51.1H406V105.3l0,0l-3.4-11.2L390.5,80l-13.4,16.5
		l-2.8,8.8h0.2v137.3h-2.4v-92.8h-2.4v-3.6h-20.8v3.6h-2.8V251l0,0v-21.5H344v-90.6h-21.7v79.6h-9.9V212H303v6.6h-3.6V139h1.9v-9.1
		h-1.9h-3v-10.6h-9v10.6H285h-2.1v9.1h2.1v90.6h-5.6V223h-2.8v-6.2h-3.9v6.2H271v-95.3h1.1v-8.4H271h-1V113h-1v-4.4h-8.6v4.4h-1.1
		v6.2l0,0v-6.3l-10.1,13.3h0.1v103.3h-5.5v-16.7c-0.5-1.6-1.3-2.8-2.3-3.5v-3.5c0-1.2-0.4-2.3-1-2.9v-3.2H239v3
		c-0.7,0.4-1.2,1.6-1.2,3v3.5c-1.8,1.2-3,4.2-3,7.7c0,0.1,0,0.1,0,0.2v15.7h-2.4v0.6c-1.6-0.2-3.2-0.4-4.9-0.5v-33.8l0,0l-6.5-28
		l-10.7-3.4L205,194l0,0v5.1v4.8v28.8c-5,0.2-10.2,0.7-15.5,1.2v-28.8l-1.1-0.4v-3.6l0,0l-3.7-13.7l-11-5.1l0,0l0,0l0,0v0.1
		l-4.6,14.8h7.2l0,0l0,0h-7.2v3.8h-1.3v35.7c-1.2,0.2-2.3,0.4-3.5,0.6V221H163v-2.9h-1.7v-2.7h-6.4v2.7h-2v2.9h-1.7v18.7
		c-1.9,0.4-3.7,0.7-5.5,1.1v-8h-1.4V228h-7.4v4.8v9.9c-4.1,1-8.1,2-11.7,3c-1.6,0.4-3.2,0.8-4.8,1.1v-0.3H-2.3
		c-0.4,0.1-0.8,0.2-1.3,0.2v41.9h123.4v0.2h123.6V300h651.3v-31h-8.6v-9.1l20.8,0.4v8.4h-4.5v16.2h4.5h353h2.5v-16.2h-2.5V260h12.5
		h2.6h8.6v-3.4h-8.6V256.5z"/>
</g>
<g>
	<defs>
		<rect id="SVGID_3_" width="1280" height="300"/>
	</defs>
	<clipPath id="SVGID_4_">
		<use xlink:href="#SVGID_3_"  style="overflow:visible;"/>
	</clipPath>
	<g class="st1">
		<path class="st2" d="M1361.3,256.3c0-13.8,5-28.2,1-40.7c-4.2-12.9-16.9-21.6-24.7-32.4c-7.9-10.9-12.3-25.6-23.2-33.5
			c-10.8-7.8-26.1-7.5-39-11.7c-12.5-4.1-24.6-13.5-38.5-13.5s-26,9.4-38.5,13.5c-12.9,4.2-28.2,3.9-39,11.7
			c-10.9,7.9-15.3,22.6-23.2,33.5c-7.8,10.7-20.5,19.5-24.7,32.4c-4.1,12.5,1,26.9,1,40.7c0,13.8-5,28.2-1,40.7
			c4.2,12.9,16.9,21.6,24.7,32.4c7.9,10.9,12.3,25.6,23.2,33.5c10.8,7.8,26.1,7.5,39,11.7c12.5,4.1,24.6,13.5,38.5,13.5
			s26-9.4,38.5-13.5c12.9-4.2,28.2-3.9,39-11.7c10.9-7.9,15.3-22.6,23.2-33.5c7.8-10.7,20.5-19.5,24.7-32.4
			C1366.3,284.5,1361.3,270.1,1361.3,256.3z"/>
	</g>
</g>
<g>
	<defs>
		<rect id="SVGID_5_" width="1280" height="300"/>
	</defs>
	<clipPath id="SVGID_6_">
		<use xlink:href="#SVGID_5_"  style="overflow:visible;"/>
	</clipPath>
	<rect y="284.4" class="st3" width="1280" height="15.6"/>
</g>
<g>
	<g>
		<polygon class="st4" points="1230.4,220.5 1207.1,169.9 1088.6,169.9 1059.4,220.5 1007.5,220.5 1007.5,260.2 1266.8,260.2 
			1266.8,220.5 		"/>
		<path class="st5" d="M1007.5,236L1007.5,236c8.5,0,15.4-6.9,15.4-15.4l0,0h-15.4V236z"/>
		<path class="st5" d="M1084.9,176l-25.5,44.5h27.3c1.1,0,2.1-0.7,2.6-1.8l15.8-40.3c0.7-1.8-0.6-3.8-2.6-3.8h-15.1
			C1086.3,174.7,1085.5,175.2,1084.9,176z"/>
		<path class="st5" d="M1117.7,177l-11.2,36.2c-0.6,1.8,0.7,3.6,2.7,3.6h48.9c1.8,0,3.1-1.8,2.7-3.5l-9.6-36.2c-0.3-1.2-1.4-2-2.7-2
			h-28.1C1119.2,174.9,1118.1,175.8,1117.7,177z"/>
		<path class="st5" d="M1163,178.6l11.7,36.1c0.4,1.1,1.5,1.9,2.6,1.9h38.4c2,0,3.4-2.1,2.5-4l-17.7-36.2c-0.5-0.9-1.5-1.6-2.5-1.6
			h-32.3C1163.7,174.9,1162.4,176.8,1163,178.6z"/>
		<g>
			<polygon class="st2" points="1170.8,260.2 1169.9,260.2 1169.9,220.6 1153.9,170.1 1154.7,169.9 1170.8,220.5 			"/>
		</g>
		
			<ellipse transform="matrix(0.329 -0.9443 0.9443 0.329 473.7175 1186.9977)" class="st2" cx="1072.1" cy="260.1" rx="22.4" ry="22.4"/>
		<circle class="st5" cx="1072" cy="260.2" r="9.3"/>
		<g>
			<polygon class="st2" points="1098.6,260.2 1097.6,260.2 1097.6,220.4 1113,169.9 1113.8,170.1 1098.6,220.6 			"/>
		</g>
		<g>
			<polygon class="st2" points="1226.7,247.3 1225.8,247.3 1225.8,220.6 1201.6,170.2 1202.4,169.8 1226.7,220.4 			"/>
		</g>
		<circle class="st2" cx="1211" cy="260.2" r="22.4"/>
		<circle class="st5" cx="1211" cy="260.2" r="9.3"/>
		<path class="st6" d="M1266.7,236L1266.7,236v-15.4h-15.4l0,0C1251.3,229.1,1258.3,236,1266.7,236z"/>
	</g>
</g>
<g>
	<g>
		<path class="st7" d="M58.2,284.4l-2.4-132.1c0-1.1-0.9-2-2.1-2l0,0c-1.2,0-2.1,0.9-2.1,2l-2.4,132.1H58.2z"/>
		<path class="st7" d="M213.7,284.4l-2.4-132.1c0-1.1-0.9-2-2.1-2l0,0c-1.2,0-2.1,0.9-2.1,2l-2.4,132.1H213.7z"/>
		<path class="st7" d="M136.6,284.4L134.2,136c0-1.1-0.9-2-2.1-2l0,0c-1.2,0-2.1,0.9-2.1,2l-2.4,148.4H136.6z"/>
		<path class="st4" d="M58.2,108.9L58.2,108.9c0.2,0.2,0.2,0.5,0.2,0.7l-3.3,36.5c-0.1,0.6-0.6,1-1.2,1h-0.7c-0.7,0-1.2-0.5-1.2-1.2
			l0.2-2.6c0-0.2-0.1-0.6-0.2-0.7l-2.1-2.4c-0.2-0.2-0.3-0.6-0.2-0.9l6.6-30C56.4,108.3,57.7,108.1,58.2,108.9z"/>
		<path class="st4" d="M87.5,173L87.5,173c-0.2,0-0.5-0.1-0.7-0.2l-31.2-20.7c-0.5-0.3-0.7-0.9-0.3-1.5l0.3-0.7
			c0.3-0.6,1.1-0.7,1.6-0.4l2.3,1.4c0.2,0.2,0.6,0.2,0.8,0.2l3.2-0.6c0.3-0.1,0.7,0,1,0.2L88.1,171C88.9,171.8,88.5,172.9,87.5,173z
			"/>
		<path class="st4" d="M14.9,165.3L14.9,165.3c0.1-0.2,0.3-0.4,0.6-0.5l34.4-15.4c0.5-0.2,1.2-0.1,1.5,0.4l0.3,0.7
			c0.3,0.6,0.1,1.2-0.5,1.6l-2.4,1.2c-0.2,0.1-0.5,0.3-0.6,0.6l-1.1,3c-0.1,0.3-0.4,0.6-0.7,0.7l-30,9.4
			C15.3,167.2,14.5,166.3,14.9,165.3z"/>
		<ellipse class="st2" cx="53.6" cy="149.4" rx="3.4" ry="3.2"/>
	</g>
</g>
<g>
	<g>
		<path class="st4" d="M213.7,111.8L213.7,111.8c0.2,0.2,0.2,0.5,0.2,0.7l-3.3,35.7c-0.1,0.6-0.5,1-1.1,1h-0.7
			c-0.7,0-1.2-0.5-1.2-1.2l0.2-2.6c0-0.2-0.1-0.6-0.2-0.7l-2.1-2.3c-0.2-0.2-0.3-0.6-0.2-0.9l6.5-29.3
			C211.9,111.3,213.1,111.1,213.7,111.8z"/>
		<path class="st4" d="M242.3,174.6L242.3,174.6c-0.2,0-0.5-0.1-0.7-0.2L211,154.1c-0.5-0.3-0.7-0.9-0.3-1.4l0.3-0.6
			c0.3-0.5,1-0.7,1.6-0.4l2.2,1.4c0.2,0.2,0.5,0.2,0.8,0.2l3.1-0.6c0.3-0.1,0.7,0,0.9,0.2l23.2,19.8
			C243.7,173.3,243.3,174.5,242.3,174.6z"/>
		<path class="st4" d="M171.3,167.1L171.3,167.1c0.1-0.2,0.3-0.4,0.5-0.5l33.6-15.1c0.5-0.2,1.2-0.1,1.4,0.4l0.3,0.6
			c0.3,0.5,0.1,1.2-0.5,1.5l-2.4,1.2c-0.2,0.1-0.4,0.3-0.6,0.6l-1.1,2.9c-0.1,0.3-0.4,0.6-0.7,0.7l-29.1,9.2
			C171.8,168.8,170.9,167.9,171.3,167.1z"/>
		<ellipse class="st2" cx="209.2" cy="151.5" rx="3.3" ry="3.2"/>
	</g>
</g>
<g>
	<g>
		<path class="st4" d="M162.4,171.6L162.4,171.6c-0.3-0.1-0.6-0.2-0.7-0.4l-28-32.4c-0.4-0.5-0.4-1.2,0.1-1.7l0.6-0.6
			c0.5-0.5,1.4-0.5,1.9,0.1l2.1,2.2c0.2,0.2,0.5,0.4,0.8,0.4l3.7,0.3c0.4,0,0.7,0.2,1,0.6l19.8,29.5
			C164.3,170.6,163.5,171.8,162.4,171.6z"/>
		<path class="st4" d="M84.7,142.5L84.7,142.5c0.2-0.2,0.5-0.4,0.7-0.4l42.9-7.7c0.7-0.1,1.3,0.2,1.5,0.9l0.2,0.7
			c0.2,0.7-0.2,1.4-1,1.6l-3.1,0.7c-0.3,0.1-0.7,0.2-0.8,0.5l-2.1,3c-0.2,0.3-0.6,0.5-1,0.6l-36.3,2.2
			C84.6,144.6,84,143.3,84.7,142.5z"/>
		<path class="st4" d="M150.2,91.5L150.2,91.5c0.1,0.2,0.1,0.6,0,0.8l-15,39.6c-0.2,0.7-0.9,1-1.6,0.7l-0.8-0.2
			c-0.7-0.2-1.2-0.9-0.9-1.7l1-2.8c0.1-0.3,0.1-0.7-0.1-0.9l-1.6-3.2c-0.2-0.3-0.2-0.7,0-1.2l16.6-31.4
			C148.3,90.4,149.8,90.5,150.2,91.5z"/>
		<ellipse class="st2" cx="132.1" cy="135" rx="3.9" ry="3.7"/>
	</g>
</g>
</svg>
