<?xml version="1.0" encoding="utf-8"?>
<!-- Generator: Adobe Illustrator 23.0.4, SVG Export Plug-In . SVG Version: 6.00 Build 0)  -->
<svg version="1.1" id="Layer_1" xmlns="http://www.w3.org/2000/svg" xmlns:xlink="http://www.w3.org/1999/xlink" x="0px" y="0px"
	 viewBox="0 0 500 500" style="enable-background:new 0 0 500 500;" xml:space="preserve">
<style type="text/css">
	.st0{clip-path:url(#SVGID_2_);}
	.st1{fill:#B7DFE6;}
	.st2{clip-path:url(#SVGID_2_);fill:#566ED1;}
	.st3{clip-path:url(#SVGID_2_);fill:#FF9493;}
	.st4{clip-path:url(#SVGID_2_);fill:#FF6C6A;}
	.st5{fill:#FFAD63;}
	.st6{fill:#FF9965;}
	.st7{fill:#3F93FF;}
	.st8{fill:#23487C;}
	.st9{fill:#B5DEE6;}
	.st10{fill:#3663AA;}
	.st11{fill:#63A7FF;}
</style>
<g>
	<defs>
		<circle id="SVGID_1_" cx="250" cy="250" r="250"/>
	</defs>
	<clipPath id="SVGID_2_">
		<use xlink:href="#SVGID_1_"  style="overflow:visible;"/>
	</clipPath>
	<g class="st0">
		<circle class="st1" cx="250" cy="250" r="250"/>
	</g>
	<g id="Group_69-2" class="st0">
		<g id="Group_63-2">
			<g>
				<g>
					<defs>
						<rect id="SVGID_3_" x="-219.3" y="-50.2" width="852.3" height="510.7"/>
					</defs>
					<clipPath id="SVGID_4_">
						<use xlink:href="#SVGID_3_"  style="overflow:visible;"/>
					</clipPath>
				</g>
			</g>
		</g>
	</g>
	<path class="st2" d="M506.2,337.1c1,1.2-47-68.5-223.6-77.3C106.1,251,11.3,323.9-148.1,307c-159.4-16.8-276.1,80.5-385.5,126.2
		S-686.8,556-749.3,567.4c-62.5,11.4,1308.7-17.7,1308.7-17.7L506.2,337.1z"/>
	<path class="st3" d="M77.2,316c-7.9,10.8-41.7,45.6-26.2,52.6s148.7,20.9,178.4,20.9s196.5,13.9,204.8,2.6s13.4-72.8-3.1-74.9
		c-16.5-2.1-318.4-15.6-333.9-12.6C86.6,306.7,80,312.2,77.2,316z"/>
	<path class="st4" d="M138.1,348.1c3.3-0.8-36.6,0-39.3,9.6c-4.2,14.4,75.5,14.9,91.7,18.1s248.6,2,235.8-7.2
		s-122.1-19.3-145.2-20.5c-23.1-1.1-76.4-10.1-99.7-12.3S138,348.2,138.1,348.1z"/>
	<g class="st0">
		<path class="st5" d="M128.2,335.9c0,0-0.9,9.4-7.9,11.6c-7.1,2.1-24.4,6.4-22.9,9.4s23.3,1.5,28,0c4.7-1.5,15.8,7.3,18,1.7
			c2.1-5.6,0-21.2,0-21.2L128.2,335.9z"/>
		<path class="st5" d="M380.4,366.2c0,0,10.7,1.9,14.3,2.4c3.6,0.4,16-3.4,19-2.4s12.8,3.9,12.4-0.2c-0.4-4.1-12.6-9.9-15-9.4
			c-2.4,0.4-7.9,1.1-10.1-1.5s-7.1-10.7-10.7-9c-3.6,1.7-10.1,5.6-10.1,5.6V366.2z"/>
		<path class="st6" d="M252.6,96.7c1.2,1.6,7.2,6.3,7.9,3c0.7-3.2,6.5-23.1,5.3-24c-1.2-0.8,1.9-15.9-0.6-14.9
			c-2.5,0.9-2.4,16-4.3,15.7c-1.9-0.2-1.4-14.8-3.2-14.4c-1.9,0.5-0.9,15.5-2.1,15.7s-9.1-10.4-9.4-9.1c-0.3,1.3,6.6,10.5,5.9,13.5
			C251.4,85.3,252.6,96.7,252.6,96.7z"/>
		<path class="st7" d="M252.6,96.7c-2.2,1.4-21.1,38.5-21.2,43.4s-6.6,46.9-8.8,49.4c-2.2,2.5-14.5,8.1-12,12.5
			c2.5,4.4,26.7,9.7,28.6,0c1.9-9.7,26-97.5,22-101.2C257.1,97.1,252.6,96.7,252.6,96.7z"/>
		<path class="st5" d="M235,135.8c-3.9,2.5-18.1,15.3-20.8,17.6c-2.8,2.3,1.4,2.1,1.9,3.7c0.5,1.6-6,9.3-1.9,12.7
			c4.2,3.5,10.9-0.2,12.5,5.6c1.6,5.8-1.9,16-2.8,17.4s18.5-0.7,19.5-4.9s4.4-37.7,2.1-43.8C243.1,138.1,235,135.8,235,135.8z"/>
		<path class="st5" d="M274.6,89.7c2.1-0.9,3.2-5.1,8.8-7.4s12.7-2.1,12.7-3.5s-2.1-2.8-4.2-2.8c-2.1,0-7.4,1.6-9.3-1.2
			c-1.9-2.8,9-20.6,6.7-21.3c-2.3-0.7-7.9,11.6-9.5,10.9c-1.6-0.7,1.2-16.4-0.9-16.7s-2.8,15.7-4.4,15.7s-2.8-14.8-4.6-14.4
			c-1.9,0.5,1.4,20.1,0,19.6s-5.3-11.2-7.2-10.1c-1.9,1.2,3,9.5,3.5,12.7c0.5,3.2-3.5,13.4-0.9,14.6
			C267.8,87.2,274.6,89.7,274.6,89.7z"/>
		<path class="st8" d="M231.2,135.8c-2.9,2.8,2.5,8.4,10.2,10.9c7.6,2.5,9.2,34,11.7,34.3c2.5,0.3,3.3,19.1,4,25.1
			c0.6,6,4,22.2,4.6,32.3c1.2,19.2,0.5-26,4.5-33.9c4.1-7.9,2.6-15.6,0-20c-2.6-4.4-6.4-6-6.4-6s9.3-16.2,6.4-25.1
			c-2.9-8.9-10.9-19.7-18.5-20C240.1,133.1,234.2,132.9,231.2,135.8z"/>
		<path class="st9" d="M260.9,176.5c2.1,0.4-6.8,8.4-7.8,6.6C252.1,181.3,258.4,175.9,260.9,176.5z"/>
		<path class="st8" d="M218,278.7c-0.2-0.8-70.8-43.3-85.7-30.2c-10.2,9-3.2,82.7-5.2,87.3c-2,4.6,16.9,8.9,17.7,5
			c0.8-4,2.2-28.8,3.8-33.1c1.6-4.4,5-24.4,0.4-29.6c-4.6-5.2,30,24,40.9,28.6c10.9,4.6,39.9,15.6,42.6,3.7S218,278.7,218,278.7z"/>
		<path class="st10" d="M232.6,286.3c-5.5,1.6-25.2,18.1-22.4,25s22.6,29,35.9,36.5c13.3,7.5,37.7,18.1,47.2,19.6
			c9.5,1.6,73.9-3.7,77.9-1.6c4,2.2,10.6,1.8,10.6,1.8v-17.9c0,0-7.1,5.6-11.7,3.2c-4.6-2.4-50.2-11.5-70.6-9.1
			c-5.6,0.7-24.5-25.6-40.1-29.6c-6.6-1.7-2.7-13.8-6.8-18.2C246.7,289.7,232.6,286.3,232.6,286.3z"/>
		<path class="st11" d="M266.2,84.7c-3.1-0.8-25.6,40.6-27.3,53.7s-2.3,52.2-9.5,54.6c-7.2,2.4-28.6,1.6-33,10.8
			c-4.4,9.2-11.2,45.3-9.7,60.9c1.4,14.5,12.8,38.9,18.9,41.4c6.1,2.5,21.4,10.6,28.4,3.1c7-7.5,18.2-13.6,15.6-19.7
			s-20.8-30.2-19.1-41.1c4.2-27,23.7-31.1,22.4-38.9s2.7-65.9,3.2-70.9c0.6-5,19.2-44.7,18.4-48.6C273.7,85.8,266.2,84.7,266.2,84.7
			z"/>
	</g>
</g>
</svg>
