<?xml version="1.0" encoding="utf-8"?>
<!-- Generator: Adobe Illustrator 23.0.4, SVG Export Plug-In . SVG Version: 6.00 Build 0)  -->
<svg version="1.1" id="Layer_1" xmlns="http://www.w3.org/2000/svg" xmlns:xlink="http://www.w3.org/1999/xlink" x="0px" y="0px"
	 viewBox="0 0 500 500" style="enable-background:new 0 0 500 500;" xml:space="preserve">
<style type="text/css">
	.st0{clip-path:url(#SVGID_2_);}
	.st1{fill:#B7DFE6;}
	.st2{fill:#224B80;}
	.st3{fill:#25497A;}
	.st4{clip-path:url(#SVGID_2_);fill:url(#SVGID_3_);}
	.st5{fill:#4497FF;}
	.st6{fill:#8FC0FF;}
</style>
<g>
	<defs>
		<circle id="SVGID_1_" cx="250" cy="250" r="250"/>
	</defs>
	<clipPath id="SVGID_2_">
		<use xlink:href="#SVGID_1_"  style="overflow:visible;"/>
	</clipPath>
	<g class="st0">
		<circle class="st1" cx="250" cy="250" r="250"/>
	</g>
	<g class="st0">
		<path id="Path_5_3_" class="st2" d="M472.1,303.2l50.3-41.8l27.3,1094.3l-56.6-21.8L472.1,303.2z"/>
		<path id="Path_6_3_" class="st2" d="M457.9,302.9l-50.3-34.6l-33.1,1087.3l50.3-19.8L457.9,302.9z"/>
		<path id="Path_5_1_" class="st2" d="M241.7,305.5L269,1328.6l-56.6-19.8l-20.9-965.6"/>
		<path id="Path_6_1_" class="st2" d="M127,344.7l-33.1,983.9l50.3-17.7l33.1-954"/>
	</g>
	<g class="st0">
		<path class="st3" d="M-719.7,382.6c-79.6,54-159.5,140.9-698.6,232.7c-336.7,57.2-961.5,129.6-1360.7,129.6
			c-554.9,0-983.9-18.9-1517.6-22.9c-59,93.8-40.4,454.6-99.4,548.5c530.4,146.4,1783.7-132.8,2566.8-239.4
			C-915.8,906.7-567.8,739.6-238.4,535.4C121.8,312.3,1486,409.3,1486,409.3l-88.9-213.2c0,0-999.6-7-1266.6,0
			C-101,202.2-499.8,233.6-719.7,382.6z"/>
	</g>
	
		<linearGradient id="SVGID_3_" gradientUnits="userSpaceOnUse" x1="-3911.0037" y1="713.9609" x2="1423.2526" y2="713.9609" gradientTransform="matrix(1 0 0 1 0 -24)">
		<stop  offset="0" style="stop-color:#224B80"/>
		<stop  offset="7.621223e-02" style="stop-color:#365383"/>
		<stop  offset="0.415" style="stop-color:#8A7490"/>
		<stop  offset="0.6923" style="stop-color:#C88D9A"/>
		<stop  offset="0.8942" style="stop-color:#EE9CA0"/>
		<stop  offset="1" style="stop-color:#FDA2A2"/>
	</linearGradient>
	<path class="st4" d="M-3846.4,821.5c0,0,1024,0,1392.1-22.9c651.6-41,1302-168.8,1507.1-225.7c212.1-58.7,400.3-240,586.2-275.4
		c169.1-32.2,431.7-65.7,881.7-65.7c342.8,0,842.4-2,842.4-2l60.1,97.9C1036,315.8,235.4,313.5-55.1,388.1
		c-161.2,41.5-380.8,152.5-468.3,207.7c-353.2,224-973.5,306.8-1277,344.5s-1703.5,211.5-1967.5,209.7
		C-4034.9,1148.4-3846.4,821.5-3846.4,821.5z"/>
	<g class="st0">
		<g>
			<path class="st5" d="M104.6,250.3c-0.6,0.9-1.2,1.5-1.5,2.6c-3.5,7.3-1.2,16,5.5,19.2c3.5,1.7,7.3,1.5,10.7,0.3L104.6,250.3z"/>
			
				<ellipse transform="matrix(0.4366 -0.8996 0.8996 0.4366 -192.2418 335.6864)" class="st5" cx="171.9" cy="321.3" rx="15.1" ry="14.8"/>
			
				<ellipse transform="matrix(0.4366 -0.8996 0.8996 0.4366 -101.0026 455.1148)" class="st5" cx="312.9" cy="308.2" rx="14.8" ry="13.4"/>
			<path class="st5" d="M295.8,248.8l-101.7,4.4l-33.7-50.8c0,0-6.7-5.8,6.4-6.7c13.1-0.6,95.9-1.7,95.9-1.7s10.2,13.1,18.6,14.8
				l18.6-0.6l49.7,74.1l-31.4,4.1C318.1,286.6,301.9,286.9,295.8,248.8z"/>
			<path class="st5" d="M348.1,281.9c0,0,11.9,20.9-18.6,23.5c0,0-0.3-17.1-15.7-13.9c0,0-8.1,1.2-24.7,17.1L188,315.9
				c0,0-0.3-15.7-16.8-11.3c-16.8,4.6-17.1,11.3-17.1,11.3l10.2-27.3l30.8-37.8l101.4-5.8l17.1,34.6L348.1,281.9z"/>
			<path class="st5" d="M155.8,198.9L118,223c-1.7,1.2-2.3,3.5-0.9,5.2l46.5,59.8c1.5,1.7,4.4,1.7,5.8,0l27.3-35.7
				c0.9-1.2,0.9-2.9,0-4.4L164.5,200c-0.6-0.9-1.7-1.5-2.9-1.7l-3.5-0.3C156.9,198,156.3,198.3,155.8,198.9z"/>
			<path class="st6" d="M303.9,278.4c0,0-9.9-17.7-12.8-29.3l-27.6,1.2c0,0-7.3,29-4.6,31.7C261.2,284.3,303.9,278.4,303.9,278.4z"
				/>
			<path class="st6" d="M252.5,281.6c0,0,5.2-25.6,1.2-31.1l-27.3,1.7c0,0-13.4,29.3-11.6,31.7S252.5,281.6,252.5,281.6z"/>
			<polygon class="st6" points="194.1,253.5 163.3,290.4 118.3,228.8 159.8,199.1 			"/>
			<path class="st6" d="M208,286c0,0,15.4-29.6,6.1-34l-9.6,0.9c0,0-4.1-1.2-18.9,33.1H208z"/>
			<path class="st5" d="M165.1,289.8L118.9,227c0,0-6.4-5.2-13.4,20.3l45.9,67.4C151.7,314.8,155.2,319.7,165.1,289.8z"/>
			<path class="st6" d="M269.1,202.9c0,0,7,5.5,12.2,8.7l34,62.2l-7.3,2l-12.2-24.4L269.1,202.9z"/>
		</g>
	</g>
</g>
</svg>
