<svg width="401" height="101" viewBox="0 0 401 101" fill="none" xmlns="http://www.w3.org/2000/svg">
<path d="M248.566 101.001C271.94 101.001 284.787 87.4625 284.787 70.8982C284.137 37.1943 237.219 47.1281 237.219 28.8513C237.219 22.6236 241.543 17.5264 252.764 17.5264C260.019 17.5264 263.647 18.9344 271.233 24.1737L284.17 11.2513C276.573 5.44672 270.083 1.48673 251.07 1.75073C229.568 2.21781 217.988 14.1756 217.988 31.0174C218.093 64.5622 265.875 51.3047 265.951 72.577C265.951 78.6693 259.784 85.2625 248.537 85.2625C238.721 85.2625 234.824 81.8 227.931 75.7145L214.345 88.2511C221.594 95.044 230.841 100.943 248.566 101.001Z" fill="#F2F2F2"/>
<path d="M308.364 98.2938H350.084C380.231 94.9701 399.683 78.0775 400.013 50.2324C400.344 22.3873 379.248 6.01593 351.172 4.01562H308.364V98.2938ZM326.358 82.7009L326.423 19.2633H348.038C365.593 20.4276 380.866 31.6374 380.866 50.2324C380.866 68.8274 366.685 80.7412 348.038 82.6975L326.358 82.7009Z" fill="#F2F2F2"/>
<path d="M97.4276 97.3209L188.199 97.1686V0L97.4276 97.3209ZM169.037 81.4776L137.62 81.3253L169.132 46.7752L169.037 81.4776Z" fill="#F2F2F2"/>
<path d="M0 98.2938H41.7199C71.8671 94.9701 91.3195 78.0775 91.6497 50.2324C91.9798 22.3873 70.884 6.01593 42.8083 4.01562H0V98.2938ZM17.994 82.7009L18.0593 19.2633H39.6739C57.2289 20.4276 72.502 31.6374 72.502 50.2324C72.502 68.8274 58.3209 80.7412 39.6739 82.6975L17.994 82.7009Z" fill="#F2F2F2"/>
</svg>
