<svg xmlns="http://www.w3.org/2000/svg" viewBox="0 0 502.86 502.86"><defs><style>.cls-1{fill:#b7dfe6;}.cls-2{fill:#ffe700;}.cls-3{fill:#dbc300;}.cls-4{fill:#00d2a1;}.cls-5{fill:#00996e;}.cls-6{fill:#00b8ff;}.cls-7{fill:#009fff;}.cls-8{fill:#ff6d6d;}.cls-9{fill:#ea3546;}</style></defs><g id="Layer_2" data-name="Layer 2"><g id="Layer_1-2" data-name="Layer 1"><circle class="cls-1" cx="251.43" cy="251.43" r="251.43"/><path class="cls-2" d="M179,77.5H124.32a6.68,6.68,0,0,0-6.69,6.69v54.65a6.68,6.68,0,0,0,6.69,6.69H169V135a6.59,6.59,0,0,1,6.59-6.59h10.09V84.19A6.68,6.68,0,0,0,179,77.5Z"/><path class="cls-3" d="M169,135v10.53h0L177.1,137l8.56-8.56H175.57A6.59,6.59,0,0,0,169,135Z"/><path class="cls-2" d="M251.83,76.62H197.18a6.7,6.7,0,0,0-6.69,6.69V138a6.69,6.69,0,0,0,6.69,6.69h44.66V134.12a6.58,6.58,0,0,1,6.59-6.58h10.09V83.31A6.69,6.69,0,0,0,251.83,76.62Z"/><path class="cls-3" d="M241.84,134.12v10.53h0l8.12-8.56,8.56-8.55H248.43A6.58,6.58,0,0,0,241.84,134.12Z"/><path class="cls-4" d="M336.52,117.2H281.87a6.68,6.68,0,0,0-6.69,6.69v54.65a6.68,6.68,0,0,0,6.69,6.69h44.66V174.7a6.59,6.59,0,0,1,6.58-6.59h10.1V123.89A6.69,6.69,0,0,0,336.52,117.2Z"/><path class="cls-5" d="M326.53,174.7v10.53h0l8.12-8.56,8.56-8.56h-10.1A6.59,6.59,0,0,0,326.53,174.7Z"/><path class="cls-4" d="M336.68,192.37H282a6.7,6.7,0,0,0-6.69,6.69v54.65A6.69,6.69,0,0,0,282,260.4H326.7V249.87a6.57,6.57,0,0,1,6.58-6.58h10.1V199.06A6.7,6.7,0,0,0,336.68,192.37Z"/><path class="cls-5" d="M326.7,249.87V260.4h0l8.12-8.56,8.56-8.55h-10.1A6.57,6.57,0,0,0,326.7,249.87Z"/><path class="cls-4" d="M410.74,116.39H356.09a6.69,6.69,0,0,0-6.69,6.69v54.66a6.69,6.69,0,0,0,6.69,6.69h44.66V173.89a6.59,6.59,0,0,1,6.58-6.58h10.1V123.08A6.7,6.7,0,0,0,410.74,116.39Z"/><path class="cls-5" d="M400.75,173.89v10.54h0l8.12-8.56,8.56-8.56h-10.1A6.59,6.59,0,0,0,400.75,173.89Z"/><path class="cls-4" d="M410.74,190.45H356.09a6.68,6.68,0,0,0-6.69,6.69v54.65a6.69,6.69,0,0,0,6.69,6.69h44.66V248a6.59,6.59,0,0,1,6.58-6.59h10.1V197.14A6.69,6.69,0,0,0,410.74,190.45Z"/><path class="cls-5" d="M400.75,248v10.53h0l8.12-8.56,8.56-8.56h-10.1A6.59,6.59,0,0,0,400.75,248Z"/><path class="cls-6" d="M135.17,189H80.52a6.69,6.69,0,0,0-6.69,6.69v54.65a6.69,6.69,0,0,0,6.69,6.7h44.66V246.51a6.59,6.59,0,0,1,6.59-6.58h10.09V195.7A6.69,6.69,0,0,0,135.17,189Z"/><path class="cls-7" d="M125.18,246.51v10.54h0l8.12-8.56,8.56-8.56H131.77A6.59,6.59,0,0,0,125.18,246.51Z"/><path class="cls-6" d="M212,188.83H157.31a6.7,6.7,0,0,0-6.69,6.69v54.65a6.69,6.69,0,0,0,6.69,6.69H202V246.33a6.57,6.57,0,0,1,6.58-6.58h10.1V195.52A6.7,6.7,0,0,0,212,188.83Z"/><path class="cls-7" d="M202,246.33v10.53h0l8.12-8.55,8.56-8.56h-10.1A6.57,6.57,0,0,0,202,246.33Z"/><path class="cls-6" d="M135,266.73H80.37a6.7,6.7,0,0,0-6.69,6.69v54.65a6.69,6.69,0,0,0,6.69,6.69H125V324.23a6.58,6.58,0,0,1,6.58-6.58h10.1V273.42A6.7,6.7,0,0,0,135,266.73Z"/><path class="cls-7" d="M125,324.23v10.53h0l8.12-8.55,8.56-8.56h-10.1A6.58,6.58,0,0,0,125,324.23Z"/><path class="cls-6" d="M212,264.81H157.31a6.69,6.69,0,0,0-6.69,6.69v54.65a6.69,6.69,0,0,0,6.69,6.69H202V322.31a6.58,6.58,0,0,1,6.58-6.59h10.1V271.5A6.69,6.69,0,0,0,212,264.81Z"/><path class="cls-7" d="M202,322.31v10.53h0l8.12-8.56,8.56-8.56h-10.1A6.58,6.58,0,0,0,202,322.31Z"/><path class="cls-8" d="M316.67,310.51H262a6.68,6.68,0,0,0-6.69,6.69v54.65a6.69,6.69,0,0,0,6.69,6.69h44.66V368a6.59,6.59,0,0,1,6.59-6.59h10.09V317.2A6.68,6.68,0,0,0,316.67,310.51Z"/><path class="cls-9" d="M306.68,368v10.53h0L314.8,370l8.56-8.56H313.27A6.59,6.59,0,0,0,306.68,368Z"/><path class="cls-8" d="M392.5,309.27H337.85a6.69,6.69,0,0,0-6.69,6.69v54.65a6.7,6.7,0,0,0,6.69,6.69h44.66V366.77a6.59,6.59,0,0,1,6.59-6.59h10.09V316A6.68,6.68,0,0,0,392.5,309.27Z"/><path class="cls-9" d="M382.51,366.77V377.3h0l8.12-8.56,8.56-8.56H389.1A6.59,6.59,0,0,0,382.51,366.77Z"/><path class="cls-8" d="M318.45,391H263.8a6.69,6.69,0,0,0-6.69,6.7v54.65a6.69,6.69,0,0,0,6.69,6.69h44.66V448.51a6.59,6.59,0,0,1,6.58-6.58h10.1V397.71A6.7,6.7,0,0,0,318.45,391Z"/><path class="cls-9" d="M308.46,448.51v10.54h0l8.12-8.56,8.56-8.56H315A6.59,6.59,0,0,0,308.46,448.51Z"/></g></g></svg>