<?xml version="1.0" encoding="utf-8"?>
<!-- Generator: Adobe Illustrator 24.0.0, SVG Export Plug-In . SVG Version: 6.00 Build 0)  -->
<svg version="1.1" id="Layer_1" xmlns="http://www.w3.org/2000/svg" xmlns:xlink="http://www.w3.org/1999/xlink" x="0px" y="0px"
	 viewBox="0 0 1280 300" style="enable-background:new 0 0 1280 300;" xml:space="preserve">
<style type="text/css">
	.st0{clip-path:url(#SVGID_2_);}
	.st1{fill:#E6F2FE;}
	.st2{fill:none;stroke:#2C4976;stroke-width:5;stroke-miterlimit:10;}
	.st3{fill:#2C4976;}
	.st4{fill:#FFFFFF;}
	.st5{opacity:0.4;clip-path:url(#SVGID_2_);}
	.st6{fill:none;}
	.st7{clip-path:url(#SVGID_2_);fill:none;stroke:#2C4976;stroke-width:15;stroke-miterlimit:10;}
	.st8{fill:#5597F6;}
	.st9{fill:#E5F1FD;}
	.st10{fill:#BDDDE4;}
	.st11{fill:#D8EFFC;}
	.st12{clip-path:url(#SVGID_4_);}
	.st13{fill:#5870CA;}
	.st14{fill:#25497A;}
	.st15{clip-path:url(#SVGID_4_);fill:#E4F2FF;}
	.st16{clip-path:url(#SVGID_4_);fill:#25497A;}
</style>
<g>
	<defs>
		<rect id="SVGID_1_" width="1280" height="300"/>
	</defs>
	<clipPath id="SVGID_2_">
		<use xlink:href="#SVGID_1_"  style="overflow:visible;"/>
	</clipPath>
	<g class="st0">
		<path class="st1" d="M64.82,158.29c0,3.07,3.72,4.61,5.89,2.44l7.39-7.55c4.29-4.38,10.16-6.85,16.29-6.85h66.64
			c4.96,0,9.02-4.06,9.02-9.02V70.42c0-4.96-4.06-9.02-9.02-9.02H52.79c-4.96,0-9.02,4.06-9.02,9.02v66.89
			c0,4.96,4.06,9.02,9.02,9.02h6.03c3.31,0,5.99,2.68,5.99,5.99L64.82,158.29z"/>
		<line class="st2" x1="64.44" y1="83.95" x2="149.37" y2="83.95"/>
		<line class="st2" x1="64.44" y1="99.91" x2="104.65" y2="99.91"/>
		<line class="st2" x1="64.44" y1="115.88" x2="82.86" y2="115.88"/>
		<g>
			<path class="st3" d="M92.94,111.06c0-0.65-0.6-1.05-1.44-1.05c-0.88,0-1.62,0.44-2.04,1.18l-2.44-1.31
				c0.87-1.46,2.45-2.42,4.86-2.42c2.52,0,4.32,1.08,4.32,3.08c0,2.55-2.68,2.93-2.68,4.43h-2.91
				C90.61,112.82,92.94,112.29,92.94,111.06z M90.21,117.57c0-0.96,0.75-1.68,1.85-1.68c1.1,0,1.86,0.72,1.86,1.68
				c0,0.95-0.77,1.72-1.86,1.72C90.97,119.29,90.21,118.52,90.21,117.57z"/>
		</g>
		<g>
			<path class="st1" d="M205.64,196.56c-1.57,0-3.05-0.62-4.18-1.75l-7.4-7.57c-3.79-3.88-9.08-6.1-14.5-6.1h-66.64
				c-6.35,0-11.52-5.17-11.52-11.52v-66.89c0-6.35,5.17-11.52,11.52-11.52h108.22c6.35,0,11.52,5.17,11.52,11.52v66.89
				c0,6.35-5.17,11.52-11.52,11.52h-6.03c-1.92,0-3.49,1.57-3.49,3.49l0,5.98C211.61,193.89,208.93,196.56,205.64,196.56z"/>
			<path class="st4" d="M221.14,93.72c4.96,0,9.02,4.06,9.02,9.02v66.89c0,4.96-4.06,9.02-9.02,9.02h-6.03
				c-3.31,0-5.99,2.68-5.99,5.99l0,5.98c0,2.08-1.7,3.46-3.47,3.46c-0.85,0-1.71-0.31-2.41-1.02l-7.39-7.55
				c-4.29-4.38-10.16-6.85-16.29-6.85h-66.64c-4.96,0-9.02-4.06-9.02-9.02v-66.89c0-4.96,4.06-9.02,9.02-9.02H221.14 M221.14,88.72
				H112.92c-7.73,0-14.02,6.29-14.02,14.02v66.89c0,7.73,6.29,14.02,14.02,14.02h66.64c4.75,0,9.39,1.95,12.71,5.35l7.39,7.55
				l0.02,0.02l0.02,0.02c1.6,1.6,3.71,2.48,5.95,2.48c4.67,0,8.47-3.79,8.47-8.46l0-5.98c0-0.55,0.44-0.99,0.99-0.99h6.03
				c7.73,0,14.02-6.29,14.02-14.02v-66.89C235.15,95,228.87,88.72,221.14,88.72L221.14,88.72z"/>
		</g>
		<path class="st1" d="M209.11,190.6c0,3.07-3.72,4.61-5.89,2.44l-7.39-7.55c-4.29-4.38-10.16-6.85-16.29-6.85h-66.64
			c-4.96,0-9.02-4.06-9.02-9.02v-66.89c0-4.96,4.06-9.02,9.02-9.02h108.22c4.96,0,9.02,4.06,9.02,9.02v66.89
			c0,4.96-4.06,9.02-9.02,9.02h-6.03c-3.31,0-5.99,2.68-5.99,5.99L209.11,190.6z"/>
		<line class="st2" x1="124.57" y1="118.8" x2="209.49" y2="118.8"/>
		<line class="st2" x1="124.57" y1="134.77" x2="209.49" y2="134.77"/>
		<line class="st2" x1="124.57" y1="150.73" x2="186.94" y2="150.73"/>
	</g>
	<g class="st5">
		<path class="st6" d="M67.07,215.08h35.34v-13.5c0-2.36-1.92-4.27-4.27-4.27h-69.9c-2.36,0-4.27,1.92-4.27,4.27v43.2
			c0,2.36,1.92,4.27,4.27,4.27h3.9c2.99,0,5.42,2.43,5.42,5.42l0,3.86c0,0.39,0.26,0.56,0.42,0.62c0.16,0.06,0.46,0.13,0.73-0.15
			l4.76-4.87c3.04-3.11,7.28-4.89,11.63-4.89h4.6v-26.6C59.69,218.39,63,215.08,67.07,215.08z"/>
		<path class="st3" d="M136.98,215.08h-31.46v-13.5c0-4.07-3.31-7.38-7.38-7.38h-69.9c-4.07,0-7.38,3.31-7.38,7.38v43.2
			c0,4.07,3.31,7.38,7.38,7.38h3.9c1.28,0,2.31,1.04,2.32,2.31l0,3.86c0,1.53,0.92,2.91,2.33,3.49c0.47,0.19,0.96,0.29,1.45,0.29
			c0.98,0,1.95-0.39,2.69-1.12l4.77-4.88c2.46-2.52,5.89-3.96,9.41-3.96h4.6v13.5c0,4.07,3.31,7.38,7.38,7.38h43.04
			c3.52,0,6.95,1.44,9.41,3.96l4.78,4.89c0.73,0.73,1.69,1.11,2.67,1.11c0.49,0,0.98-0.1,1.45-0.29c1.42-0.59,2.33-1.96,2.34-3.49
			l0-3.86c0-1.28,1.04-2.31,2.32-2.31h3.9c4.07,0,7.38-3.31,7.38-7.38v-43.2C144.36,218.39,141.05,215.08,136.98,215.08z
			 M55.1,249.06c-4.35,0-8.59,1.78-11.63,4.89l-4.76,4.87c-0.28,0.28-0.58,0.21-0.73,0.15c-0.16-0.06-0.42-0.23-0.42-0.62l0-3.86
			c0-2.99-2.43-5.42-5.42-5.42h-3.9c-2.36,0-4.27-1.92-4.27-4.27v-43.2c0-2.36,1.92-4.27,4.27-4.27h69.9c2.36,0,4.27,1.92,4.27,4.27
			v13.5H67.07c-4.07,0-7.38,3.31-7.38,7.38v26.6H55.1z M141.25,265.66c0,2.36-1.92,4.27-4.27,4.27h-3.9c-2.99,0-5.42,2.43-5.42,5.42
			l0,3.86c0,0.39-0.26,0.56-0.42,0.62c-0.16,0.06-0.46,0.13-0.72-0.13l-4.77-4.88c-3.04-3.11-7.28-4.89-11.63-4.89H67.07
			c-2.36,0-4.27-1.92-4.27-4.27v-13.5v-3.11v-26.6c0-2.36,1.92-4.27,4.27-4.27h35.34h3.11h31.46c2.36,0,4.27,1.92,4.27,4.27V265.66z
			"/>
		<rect x="35.76" y="208.77" class="st3" width="54.85" height="3.11"/>
		<rect x="35.76" y="219.08" class="st3" width="25.97" height="3.11"/>
		<rect x="74.6" y="231.28" class="st3" width="54.85" height="3.11"/>
		<rect x="74.6" y="241.59" class="st3" width="54.85" height="3.11"/>
		<rect x="74.6" y="251.91" class="st3" width="40.29" height="3.11"/>
		<rect x="35.76" y="229.39" class="st3" width="11.89" height="3.11"/>
		<path class="st3" d="M54.17,227.84c0-0.42-0.39-0.68-0.93-0.68c-0.57,0-1.05,0.29-1.32,0.76l-1.57-0.85
			c0.56-0.94,1.58-1.56,3.14-1.56c1.63,0,2.79,0.7,2.79,1.99c0,1.65-1.73,1.89-1.73,2.86h-1.88
			C52.66,228.98,54.17,228.63,54.17,227.84z M52.41,232.04c0-0.62,0.49-1.09,1.19-1.09c0.71,0,1.2,0.46,1.2,1.09
			c0,0.61-0.5,1.11-1.2,1.11C52.89,233.15,52.41,232.65,52.41,232.04z"/>
	</g>
	<g class="st5">
		<path class="st6" d="M211.23-25.65h40.08v-15.3c0-2.67-2.17-4.84-4.84-4.84h-79.27c-2.67,0-4.84,2.17-4.84,4.84V8.04
			c0,2.67,2.17,4.84,4.84,4.84h4.42c3.39,0,6.15,2.76,6.15,6.15l0,4.38c0,0.44,0.3,0.63,0.47,0.71c0.18,0.07,0.52,0.15,0.83-0.17
			l5.4-5.52c3.45-3.53,8.26-5.55,13.19-5.55h5.21v-30.17C202.87-21.9,206.62-25.65,211.23-25.65z"/>
		<path class="st3" d="M290.51-25.65h-35.67v-15.3c0-4.61-3.75-8.37-8.37-8.37h-79.27c-4.61,0-8.37,3.75-8.37,8.37V8.04
			c0,4.61,3.75,8.37,8.37,8.37h4.42c1.45,0,2.63,1.18,2.63,2.63l0,4.38c0,1.74,1.04,3.3,2.65,3.96c0.53,0.22,1.09,0.33,1.64,0.33
			c1.12,0,2.21-0.44,3.04-1.27l5.41-5.53c2.79-2.85,6.68-4.49,10.67-4.49h5.21v15.3c0,4.61,3.75,8.37,8.37,8.37h48.81
			c3.99,0,7.88,1.64,10.67,4.49l5.42,5.55c0.82,0.82,1.91,1.26,3.03,1.26c0.55,0,1.11-0.11,1.64-0.33c1.61-0.67,2.65-2.22,2.65-3.96
			l0-4.38c0-1.45,1.18-2.63,2.63-2.63h4.42c4.61,0,8.37-3.75,8.37-8.37v-48.99C298.87-21.9,295.12-25.65,290.51-25.65z
			 M197.66,12.88c-4.93,0-9.74,2.02-13.19,5.55l-5.4,5.52c-0.31,0.31-0.66,0.24-0.83,0.17c-0.18-0.07-0.47-0.26-0.47-0.71l0-4.38
			c0-3.39-2.76-6.15-6.15-6.15h-4.42c-2.67,0-4.84-2.17-4.84-4.84v-48.99c0-2.67,2.17-4.84,4.84-4.84h79.27
			c2.67,0,4.84,2.17,4.84,4.84v15.3h-40.08c-4.61,0-8.37,3.75-8.37,8.37v30.17H197.66z M295.35,31.71c0,2.67-2.17,4.84-4.84,4.84
			h-4.42c-3.39,0-6.15,2.76-6.15,6.15l0,4.38c0,0.44-0.3,0.63-0.47,0.71c-0.18,0.07-0.52,0.15-0.82-0.15l-5.41-5.53
			c-3.45-3.53-8.26-5.55-13.19-5.55h-48.81c-2.67,0-4.84-2.17-4.84-4.84v-15.3v-3.52v-30.17c0-2.67,2.17-4.84,4.84-4.84h40.08h3.52
			h35.67c2.67,0,4.84,2.17,4.84,4.84V31.71z"/>
		<rect x="219.77" y="4.42" class="st3" width="62.21" height="3.52"/>
		<rect x="219.77" y="16.11" class="st3" width="45.69" height="3.52"/>
	</g>
	<g class="st0">
		<path class="st1" d="M1190.03,205.34c0,3.07-3.72,4.61-5.89,2.44l-7.39-7.55c-4.29-4.38-10.16-6.85-16.29-6.85h-66.64
			c-4.96,0-9.02-4.06-9.02-9.02v-66.89c0-4.96,4.06-9.02,9.02-9.02h108.22c4.96,0,9.02,4.06,9.02,9.02v66.89
			c0,4.96-4.06,9.02-9.02,9.02h-6.03c-3.31,0-5.99,2.68-5.99,5.99L1190.03,205.34z"/>
		<path class="st1" d="M1045.74,237.66c0,3.07,3.72,4.61,5.89,2.44l7.39-7.55c4.29-4.38,10.16-6.85,16.29-6.85h66.64
			c4.96,0,9.02-4.06,9.02-9.02v-66.89c0-4.96-4.06-9.02-9.02-9.02h-108.22c-4.96,0-9.02,4.06-9.02,9.02v66.89
			c0,4.96,4.06,9.02,9.02,9.02h6.03c3.31,0,5.99,2.68,5.99,5.99L1045.74,237.66z"/>
		<line class="st2" x1="1190.41" y1="131" x2="1105.49" y2="131"/>
		<line class="st2" x1="1190.41" y1="146.97" x2="1150.2" y2="146.97"/>
		<line class="st2" x1="1169.37" y1="162.93" x2="1150.95" y2="162.93"/>
		<g>
			<path class="st1" d="M1049.21,243.61c-3.29,0-5.97-2.67-5.97-5.96l0-5.98c0-1.92-1.57-3.49-3.49-3.49h-6.03
				c-6.35,0-11.52-5.17-11.52-11.52v-66.89c0-6.35,5.17-11.52,11.52-11.52h108.22c6.35,0,11.52,5.17,11.52,11.52v66.89
				c0,6.35-5.17,11.52-11.52,11.52h-66.64c-5.42,0-10.71,2.22-14.5,6.1l-7.39,7.55C1052.27,242.99,1050.78,243.61,1049.21,243.61
				C1049.21,243.61,1049.21,243.61,1049.21,243.61z"/>
			<path class="st4" d="M1141.94,140.77c4.96,0,9.02,4.06,9.02,9.02v66.89c0,4.96-4.06,9.02-9.02,9.02h-66.64
				c-6.13,0-12,2.47-16.29,6.85l-7.39,7.55c-0.7,0.7-1.57,1.02-2.41,1.02c-1.77,0-3.47-1.38-3.47-3.46l0-5.98
				c0-3.31-2.68-5.99-5.99-5.99h-6.03c-4.96,0-9.02-4.06-9.02-9.02v-66.89c0-4.96,4.06-9.02,9.02-9.02H1141.94 M1141.94,135.77
				h-108.22c-7.73,0-14.02,6.29-14.02,14.02v66.89c0,7.73,6.29,14.02,14.02,14.02h6.03c0.55,0,0.99,0.44,0.99,0.99l0,5.98
				c0,4.66,3.8,8.46,8.47,8.46c2.24,0,4.35-0.88,5.95-2.48l0.02-0.02l0.02-0.02l7.39-7.55c3.32-3.4,7.96-5.35,12.71-5.35h66.64
				c7.73,0,14.02-6.29,14.02-14.02v-66.89C1155.95,142.06,1149.67,135.77,1141.94,135.77L1141.94,135.77z"/>
		</g>
		<line class="st2" x1="1130.29" y1="165.85" x2="1045.37" y2="165.85"/>
		<line class="st2" x1="1130.29" y1="181.82" x2="1045.37" y2="181.82"/>
		<line class="st2" x1="1107.74" y1="197.79" x2="1045.37" y2="197.79"/>
		<g>
			<path class="st3" d="M1180.18,158.11c0-0.65-0.61-1.05-1.44-1.05c-0.88,0-1.62,0.44-2.04,1.18l-2.44-1.31
				c0.87-1.46,2.45-2.42,4.86-2.42c2.52,0,4.32,1.08,4.32,3.07c0,2.55-2.68,2.93-2.68,4.43h-2.91
				C1177.84,159.88,1180.18,159.34,1180.18,158.11z M1177.45,164.62c0-0.96,0.75-1.68,1.85-1.68s1.86,0.72,1.86,1.68
				c0,0.95-0.77,1.72-1.86,1.72S1177.45,165.57,1177.45,164.62z"/>
		</g>
	</g>
	<g class="st5">
		<path class="st6" d="M1196.36,22.75v27.3h4.72c4.46,0,8.81,1.83,11.93,5.02l4.89,5.01c0.27,0.27,0.58,0.2,0.74,0.14
			c0.16-0.07,0.43-0.24,0.43-0.64v-3.96c0-3.07,2.5-5.56,5.56-5.56h4c2.42,0,4.38-1.97,4.38-4.38V1.33c0-2.42-1.97-4.38-4.38-4.38
			h-71.73c-2.42,0-4.38,1.97-4.38,4.38v13.85h36.26C1192.96,15.18,1196.36,18.57,1196.36,22.75z"/>
		<rect x="1164.63" y="8.7" class="st3" width="56.29" height="3.19"/>
		<rect x="1124.78" y="31.8" class="st3" width="56.29" height="3.19"/>
		<rect x="1124.78" y="42.39" class="st3" width="56.29" height="3.19"/>
		<rect x="1124.78" y="52.97" class="st3" width="41.34" height="3.19"/>
		<path class="st3" d="M1228.63-6.24h-71.73c-4.17,0-7.57,3.4-7.57,7.57v13.85h-32.28c-4.17,0-7.57,3.4-7.57,7.57v44.33
			c0,4.17,3.4,7.57,7.57,7.57h4c1.31,0,2.38,1.07,2.38,2.38v3.96c0,1.57,0.94,2.98,2.4,3.58c0.48,0.2,0.99,0.3,1.49,0.3
			c1.01,0,2-0.4,2.76-1.15l4.89-5.01c2.52-2.58,6.04-4.06,9.65-4.06h44.16c4.17,0,7.57-3.4,7.57-7.57V53.23h4.72
			c3.61,0,7.13,1.48,9.65,4.06l4.91,5.02c0.74,0.74,1.73,1.14,2.74,1.14c0.5,0,1.01-0.1,1.49-0.3c1.46-0.6,2.4-2.01,2.4-3.58v-3.96
			c0-1.31,1.07-2.38,2.38-2.38h4c4.17,0,7.57-3.4,7.57-7.57V1.33C1236.2-2.84,1232.81-6.24,1228.63-6.24z M1193.17,50.04v3.19v13.85
			c0,2.42-1.97,4.38-4.38,4.38h-44.16c-4.46,0-8.81,1.83-11.93,5.02l-4.88,4.99c-0.28,0.28-0.59,0.22-0.75,0.15
			c-0.16-0.07-0.43-0.24-0.43-0.64v-3.96c0-3.07-2.5-5.56-5.56-5.56h-4c-2.42,0-4.38-1.97-4.38-4.38V22.75
			c0-2.42,1.97-4.38,4.38-4.38h32.28h3.19h36.26c2.42,0,4.38,1.97,4.38,4.38V50.04z M1233.02,45.66c0,2.42-1.97,4.38-4.38,4.38h-4
			c-3.07,0-5.56,2.5-5.56,5.56v3.96c0,0.4-0.27,0.57-0.43,0.64c-0.16,0.07-0.47,0.13-0.74-0.14l-4.89-5.01
			c-3.12-3.19-7.47-5.02-11.93-5.02h-4.72V33.05h10.61v-3.19h-10.61v-7.12c0-0.09-0.01-0.18-0.01-0.28h24.57v-3.19h-25.4
			c-1.26-2.44-3.8-4.11-6.72-4.11h-36.26V1.33c0-2.42,1.97-4.38,4.38-4.38h71.73c2.42,0,4.38,1.97,4.38,4.38V45.66z"/>
		<path class="st3" d="M1214.13,28.27c0-0.43-0.4-0.69-0.95-0.69c-0.59,0-1.07,0.29-1.36,0.78l-1.61-0.87
			c0.57-0.96,1.63-1.6,3.22-1.6c1.67,0,2.86,0.72,2.86,2.04c0,1.69-1.78,1.94-1.78,2.94h-1.93
			C1212.58,29.44,1214.13,29.08,1214.13,28.27z M1212.32,32.58c0-0.64,0.5-1.12,1.22-1.12c0.73,0,1.24,0.48,1.24,1.12
			c0,0.63-0.51,1.14-1.24,1.14C1212.82,33.72,1212.32,33.21,1212.32,32.58z"/>
	</g>
	<g class="st5">
		<path class="st6" d="M1250.62,271.44h-36.26v27.3c0,2.42,1.97,4.38,4.38,4.38H1255v-27.3
			C1255,273.41,1253.04,271.44,1250.62,271.44z"/>
		<path class="st6" d="M1211.17,298.74v-27.3h-32.28c-2.42,0-4.38,1.97-4.38,4.38v44.33c0,2.42,1.97,4.38,4.38,4.38h4
			c3.07,0,5.56,2.5,5.56,5.56v3.96c0,0.4,0.27,0.57,0.43,0.64c0.16,0.07,0.47,0.14,0.75-0.15l4.88-4.99
			c3.12-3.19,7.47-5.02,11.93-5.02h44.16c2.42,0,4.38-1.97,4.38-4.38v-13.85h-36.26C1214.57,306.31,1211.17,302.91,1211.17,298.74z"
			/>
		<path class="st6" d="M1258.19,275.82v27.3h4.72c4.46,0,8.81,1.83,11.93,5.02l4.89,5.01c0.27,0.27,0.58,0.2,0.74,0.14
			c0.16-0.07,0.43-0.24,0.43-0.64v-3.96c0-3.07,2.5-5.56,5.56-5.56h4c2.42,0,4.38-1.97,4.38-4.38v-44.33c0-2.42-1.97-4.38-4.38-4.38
			h-71.73c-2.42,0-4.38,1.97-4.38,4.38v13.85h36.26C1254.79,268.25,1258.19,271.65,1258.19,275.82z"/>
		<rect x="1226.46" y="261.78" class="st3" width="56.29" height="3.19"/>
		<rect x="1186.61" y="284.88" class="st3" width="56.29" height="3.19"/>
		<rect x="1186.61" y="295.46" class="st3" width="56.29" height="3.19"/>
		<path class="st3" d="M1290.47,246.83h-71.73c-4.17,0-7.57,3.4-7.57,7.57v13.85h-32.28c-4.17,0-7.57,3.4-7.57,7.57v44.33
			c0,4.17,3.4,7.57,7.57,7.57h4c1.31,0,2.38,1.07,2.38,2.38v3.96c0,1.57,0.94,2.98,2.4,3.58c0.48,0.2,0.99,0.3,1.49,0.3
			c1.01,0,2-0.4,2.76-1.15l4.89-5.01c2.52-2.58,6.04-4.06,9.65-4.06h44.16c4.17,0,7.57-3.4,7.57-7.57v-13.85h4.72
			c3.61,0,7.13,1.48,9.65,4.06l4.91,5.02c0.74,0.74,1.73,1.14,2.74,1.14c0.5,0,1.01-0.1,1.49-0.3c1.46-0.6,2.4-2.01,2.4-3.58v-3.96
			c0-1.31,1.07-2.38,2.38-2.38h4c4.17,0,7.57-3.4,7.57-7.57v-44.33C1298.04,250.23,1294.64,246.83,1290.47,246.83z M1255,303.12
			v3.19v13.85c0,2.42-1.97,4.38-4.38,4.38h-44.16c-4.46,0-8.81,1.83-11.93,5.02l-4.88,4.99c-0.28,0.28-0.59,0.22-0.75,0.15
			c-0.16-0.07-0.43-0.24-0.43-0.64v-3.96c0-3.07-2.5-5.56-5.56-5.56h-4c-2.42,0-4.38-1.97-4.38-4.38v-44.33
			c0-2.42,1.97-4.38,4.38-4.38h32.28h3.19h36.26c2.42,0,4.38,1.97,4.38,4.38V303.12z M1294.85,298.74c0,2.42-1.97,4.38-4.38,4.38h-4
			c-3.07,0-5.56,2.5-5.56,5.56v3.96c0,0.4-0.27,0.57-0.43,0.64c-0.16,0.07-0.47,0.13-0.74-0.14l-4.89-5.01
			c-3.12-3.19-7.47-5.02-11.93-5.02h-4.72v-16.99h10.61v-3.19h-10.61v-7.12c0-0.09-0.01-0.18-0.01-0.28h24.57v-3.19h-25.4
			c-1.26-2.44-3.8-4.11-6.72-4.11h-36.26v-13.85c0-2.42,1.97-4.38,4.38-4.38h71.73c2.42,0,4.38,1.97,4.38,4.38V298.74z"/>
		<path class="st3" d="M1275.97,281.34c0-0.43-0.4-0.69-0.95-0.69c-0.59,0-1.07,0.29-1.36,0.78l-1.61-0.87
			c0.57-0.96,1.63-1.6,3.22-1.6c1.67,0,2.86,0.72,2.86,2.04c0,1.69-1.78,1.94-1.78,2.94h-1.93
			C1274.42,282.51,1275.97,282.16,1275.97,281.34z M1274.16,285.66c0-0.64,0.5-1.12,1.22-1.12c0.73,0,1.24,0.48,1.24,1.12
			c0,0.63-0.51,1.14-1.24,1.14C1274.66,286.79,1274.16,286.28,1274.16,285.66z"/>
	</g>
	<line class="st7" x1="0" y1="300" x2="1280" y2="300"/>
</g>
</svg>
