<svg xmlns="http://www.w3.org/2000/svg" xmlns:xlink="http://www.w3.org/1999/xlink" width="3500" height="1000" viewBox="0 0 3500 1000">
  <defs>
    <clipPath id="clip-path">
      <rect id="矩形_4" data-name="矩形 4" width="1612" height="550" transform="translate(37)" fill="#fda2a2" stroke="#707070" stroke-width="1"/>
    </clipPath>
    <clipPath id="clip-header">
      <rect width="3500" height="1000"/>
    </clipPath>
  </defs>
  <g id="header" clip-path="url(#clip-header)">
    <rect width="3500" height="1000" fill="#fff"/>
    <path id="路径_1500" data-name="路径 1500" d="M0,184.8s38.051,21.9,558.52,0c203.887-8.58,643.643-144.01,1224.845-139.784s733.872,85.6,1097.151,80.25,617.632-80.25,617.632-80.25V424H0Z" transform="translate(0 606)" fill="#4497ff" opacity="0.209"/>
    <g id="蒙版组_3" data-name="蒙版组 3" transform="translate(1851 279)" clip-path="url(#clip-path)">
      <path id="路径_1501" data-name="路径 1501" d="M3232.258,866.268V850.981h-10.653v15.287h-5.094V845.886h-42.148v9.624h-5.095v-9.624h-11.115v9.624h-5.093V809.087h-24.085v25.476h-14.821v6.793h-31.492V681.219h.155l-21.869-20.642v9.8h-.055v-9.625h-2.315v-6.793h-18.525v6.793h-2.318v9.625H3033.1V683.4h2.317v78.527c-8.059-3.764-18.312-6.948-30.1-9.685V700.951h4.632V686.8h-10.189V670.379H2980.3V686.8h-10.653v14.154h4.169v45.413c-15.588-2.369-32.426-4.317-49.557-6.041V700.951h-46.778v35.074l-4.631-.405V717.935h-6.02v-5.661h-44.926v5.661h-5.095v12.333q-2.523-.208-5.094-.385V648.87h.337l-5.943-13.6-29.044-25.505-26.1,21.79-7.446,17.315h.108v80.788q-7.622.351-15.454.84a17.623,17.623,0,0,0-6.537.426q-7.222.493-14.6,1.086V692.265c0-.148.016-.291.017-.441,0-.128-.01-.248-.017-.372v-1.258h-.179c-1.65-6.406-13.68-6.058-21.521-.3-8.453,6.209-11.824,14.343-11.98,20.8,0,.152.008.3.02.444h-.15v24l-.985.1c-3.79-1.632-9.565-1.067-14.284,1.547q-14.679,1.648-29.656,3.546V715.105h-8.337v-12.1l.1-.073V691.545l-13.648-18.469h-10.116l-8.754,12.59v12.455h-12.505v49.453q-3.96.571-7.925,1.152v-4.182h-92.165v18.4q-9.1,1.445-18.069,2.875V737.573c.005-.235.014-.469.014-.705,0-10.318-5.163-19.157-12.5-22.88V703.673c0-4.1-2.131-7.581-5.11-8.906v-9.01h-6.1v9.427a9.854,9.854,0,0,0-4.312,8.488v10.446c-7.173,3.808-12.157,12.589-12.069,22.749,0,.07,0,.14,0,.21h-.039v35.074c-16.988,2.65-33.4,5.148-49.027,7.4l-24.214-14.485V746.879h-7.9v18.185l-38.772,23.191q-10.421.944-19.724,1.474l-3.014-5.706H2262.4V737.078h-.035c0-.07,0-.14,0-.21.088-10.16-4.9-18.941-12.07-22.749V703.673a9.854,9.854,0,0,0-4.31-8.488v-9.427h-6.1v9.01c-2.978,1.325-5.109,4.806-5.109,8.906v10.314c-7.338,3.723-12.5,12.563-12.5,22.88,0,.166.008.331.011.5v46.663H2212.5v1.917q-9.842-.949-20.5-1.573V683.983h.016l-27.14-83.263-44.4-10.206L2098.8,668.681l.108.024V783.893c-20.821.741-42.423,1.954-64.376,3.554V701.855l-4.785-1.089V689.9l-.055-.013-15.507-40.64-45.534-15.054-.006-.02-.006.016-.122-.04.051.2-18.9,43.951h30.1l0-.018.079.019h-30.062v11.322h-5.559V795.9q-7.2.811-14.357,1.659V749.074H1924.3v-8.491h-6.946v-7.926h-26.4v7.926h-8.336v8.491h-6.946v55.5q-11.493,1.615-22.694,3.3v-23.7h-6.022V770.021h-30.568v43.653c-17.2,2.877-33.544,5.829-48.7,8.8-44.034,8.635-96.76,10.108-150.361,7.526V778.248H1511.579v42.145q-6.266-.806-12.439-1.652v-55.7h-30.211V747.835h-63.089V648.99h-58.647v27.154H1335.64v86.9h-8.884V747.835H1292.1V608.8h-13.327V592.51h-16V577.3H1212.13V592.51H1198.8V608.8h-10.664V824.955h-27.546v-330.2h-10.664V473.028h-57.679l.153-.036-.008.034h57.742L1113.873,388.7l.1-.39-.234.078-.013-.031-.009.039-87.363,28.882L996.6,495.248l-.1.024V516.12l-9.18,2.09V685.921H906.458V766.3H894.906V736.974H875.357V766.3H863.806V454.607l.207-.046L822.428,304.593l-85.186,19.581-52.07,159.747h.029V760.869H674.539V740.232H645.862V675.86H627.089V586.341c.005-.32.02-.638.02-.959,0-19.794-9.9-36.754-23.984-43.9V521.7c0-7.864-4.088-14.542-9.8-17.084V487.325h-11.7v18.087c-4.9,2.98-8.271,9.142-8.271,16.284v20.042c-13.764,7.305-23.324,24.152-23.155,43.645,0,.135.005.269.005.4h-.067v90.069H527.623l-13.735,26L409.611,639.478V604.59H394.454v34.891l-104.269,62.37-13.731-26H253.935V585.786h-.075c0-.135.005-.269,0-.4.17-19.492-9.39-36.34-23.154-43.645V521.7c0-7.141-3.373-13.3-8.271-16.284V487.325h-11.7v17.286c-5.714,2.542-9.8,9.221-9.8,17.084v19.79c-14.079,7.143-23.982,24.1-23.982,43.9,0,.456.019.909.028,1.362V675.86H158.206v85.009H142.318V600.113H-34.509V760.869h-15.2V511.045H-73.705v-23.9l-16.8-24.156h-19.409l-26.184,35.435v21.849l.189.141V543.63H-151.9V747.835h-15.106V727.2h-10.662v20.637h-7.108V625.1h-.106c.052-11.971-5.5-26.731-20.173-37.509-10.285-7.554-24.989-9.2-33.035-4.4v-47.16h-.289a8.118,8.118,0,0,0,.038-.851c-.3-12.4-6.766-28-22.984-39.913-15.042-11.047-38.123-11.713-41.286.576h-.346v2.412c-.011.237-.034.468-.031.715,0,.288.023.562.031.846v97.227a50.552,50.552,0,0,0-14.947-17.055c-14.724-10.814-38.524-9.529-38.845,5.446a43.341,43.341,0,0,0,.921,10.339h-.443V747.835h-16.882V416.552h.207l-14.283-33.22-50.068-41.8-55.721,48.935-11.4,26.09h.649v408.4h-9.774V549.06h-9.775V538.2h-86.191V549.06h-11.552V849.938h0V785.851h-8.885V516.474H-719.7V753.266h-40.877V733.714h-39.1v19.552h-15.1V516.474h8V489.32h-20.436v-31.5h-37.32v31.5h-19.549v27.155h8.884V785.851h-23.1V766.3h-11.552V747.835h-15.995V766.3h-7.107V482.8h4.443V457.822H-937.4V439.354h-4.445V426.321h-35.542v13.033h-4.443v18.468h-.105V439.013l-41.959,39.6h.3V785.851h-60.422V772.818h-28.437V723.94h-46.207v89.067h-9.772V794.542h-21.325v18.465h-9.775V794.542h-80.86v39.1h-9.776V804.318h-20.437v29.328h-68.419V853.2h188.438v49.964h-19.549v92.327H1654.607V903.163H1619.1V876.188l86.133,1.32V902.5h-18.508v48.122H3179.891V902.5H3169.7V876.458h98.219V866.268Z" transform="translate(-1474.371 -374.654)" fill="#fda2a2"/>
    </g>
    <path id="路径_1502" data-name="路径 1502" d="M0,211.873S221.254,100.571,834.1,86.16s945.512,84.8,1618.832,86.077S3500,8.883,3500,8.883V397H0Z" transform="translate(0 633)" fill="#8fc0ff"/>
    <g id="组_122" data-name="组 122" transform="translate(2816.695 375.87)">
      <path id="路径_1454" data-name="路径 1454" d="M1635.065,7700.907c-.733-3.691-2.613-6.484-4.37-6.664l-.017-.084-231.606,45.96,2.909,14.658,231.606-45.959-.017-.083C1635.126,7707.9,1635.8,7704.6,1635.065,7700.907Z" transform="translate(-1063.585 -7599.796)" fill="#0c2e5a"/>
      <path id="路径_1455" data-name="路径 1455" d="M1206.5,7602.9a178.96,178.96,0,1,0,210.37,140.705A178.961,178.961,0,0,0,1206.5,7602.9Zm65.064,327.879a155.312,155.312,0,1,1,122.11-182.571A155.313,155.313,0,0,1,1271.563,7930.781Z" transform="translate(-1062.338 -7599.445)" fill="#0c2e5a"/>
    </g>
    <g id="组_123" data-name="组 123" transform="translate(2756.048 -21.108)">
      <path id="路径_29" data-name="路径 29" d="M16829.23,1013.1c1.07-.726-9.738-3.99-10.906-5.985s-.2-4.722,2.318-7.338,11.408-7.968,15.045-7.968-3.137-2.546-6.457-1.988-15.184,4.087-15.184,4.087.834,7.319-2.631,10.133-14.17,1.181-17.635,5.981-2.744,17.9-2.744,17.9,5.471-11.925,10.234-14.824,7.57-3.493,12.775-3.079S16828.16,1013.827,16829.23,1013.1Z" transform="translate(-16615.277 -918.999)" fill="#fda2a2"/>
      <path id="路径_30" data-name="路径 30" d="M16832.371,1007.988a9.884,9.884,0,0,0,6.531,11.64c8.656,3.306,11.332,4.41,12.961,7.541s0,7.28,0,7.28,10.789-3.176,11.777-7.28-4.287-3.045-2.275-7.541,7.057-13.469,7.057-13.469-10.9,10.2-10.9,13.469-.326,3.425-1.691,4.06-3.523-4.687-12.635-6.869S16832.371,1007.988,16832.371,1007.988Z" transform="translate(-16208.704 -1006.158)" fill="#fda2a2"/>
      <path id="路径_31" data-name="路径 31" d="M16787.916,930.159c-2.037,2.03,2.506,3.641,6.234,5.576s2.787,5.662,5.422,7.9,6.25,2.324,9.117,3.549,3.645,4.86,3.645,4.86,3.811,1.819,6.77,0a8.994,8.994,0,0,0,3.775-4.86s-5.781-4.682-8.557-4.78,5.588-27.357,9.768-31.376-2.281-2.6-4.986,0-11.545,11.741-11.842,14.386-.055,5.6-1.742,7.886-5.16.874-8.27,0S16787.916,930.159,16787.916,930.159Z" transform="translate(-16588.873 -695.532)" fill="#fda2a2"/>
      <path id="路径_32" data-name="路径 32" d="M16827.063,947.721s3.748-10.968,9.707-11.816,5.852,3.738,11.9,1.823,11.926-10.119,11.926-10.119,16.73,2.226,21.053,4.037-15.732-1.874-19.957,1.59-6.279,7.588-6.279,14.484-4.109-8.2-12.422-6.161A76.674,76.674,0,0,0,16827.063,947.721Z" transform="translate(-16365.791 -859.306)" fill="#fda2a2"/>
      <path id="路径_34" data-name="路径 34" d="M16829.23,1013.1c1.07-.726-9.738-3.99-10.906-5.985s-.2-4.722,2.318-7.338,11.408-7.968,15.045-7.968-3.137-2.546-6.457-1.988-15.184,4.087-15.184,4.087.834,7.319-2.631,10.133-14.17,1.181-17.635,5.981-2.744,17.9-2.744,17.9,5.471-11.925,10.234-14.824,7.57-3.493,12.775-3.079S16828.16,1013.827,16829.23,1013.1Z" transform="translate(-16660.883 -619.196)" fill="#fda2a2"/>
      <path id="路径_36" data-name="路径 36" d="M16787.916,930.159c-2.037,2.03,2.506,3.641,6.234,5.576s2.787,5.662,5.422,7.9,6.25,2.324,9.117,3.549,3.645,4.86,3.645,4.86,3.811,1.819,6.77,0a8.994,8.994,0,0,0,3.775-4.86s-5.781-4.682-8.557-4.78,5.588-27.357,9.768-31.376-2.281-2.6-4.986,0-11.545,11.741-11.842,14.386-.055,5.6-1.742,7.886-5.16.874-8.27,0S16787.916,930.159,16787.916,930.159Z" transform="translate(-16214.004 -616.084)" fill="#fda2a2"/>
      <path id="路径_37" data-name="路径 37" d="M16827.063,947.721s3.748-10.968,9.707-11.816,5.852,3.738,11.9,1.823,11.926-10.119,11.926-10.119,16.73,2.226,21.053,4.037-15.732-1.874-19.957,1.59-6.279,7.588-6.279,14.484-4.109-8.2-12.422-6.161A76.674,76.674,0,0,0,16827.063,947.721Z" transform="translate(-16827.063 -703.262)" fill="#fda2a2"/>
      <path id="路径_38" data-name="路径 38" d="M16890.684,952.06a25.86,25.86,0,0,1,5.188-2.246c3.652-1.25,2.754,2.1,11.23,0s9.375-6.759,14.141-7.345,12.084,1.813,12.084,1.813-8.281-5.625-13.393-5.067-12.832,1.433-12.832,1.433.961-7.435-1.348-12.858-13.219-12.727-14.172-14.966-4.453,10.168,0,14.966,8.557,9.971,7.744,12.858S16890.684,952.06,16890.684,952.06Z" transform="translate(-16472.16 -688.261)" fill="#fda2a2"/>
    </g>
    <g id="组_124" data-name="组 124" transform="translate(-20 319)">
      <path id="路径_1473" data-name="路径 1473" d="M1420.261,5339.409a797.689,797.689,0,0,1,526.574,115.757,852.469,852.469,0,0,1-199.129,39.467c-42.256,3.222-109.063,7.882-191.954-7.176-21.093-3.832-37.381-6.944-54.854-12.454-15.043-4.744-13.445-5.879-19.584-7.017-36.125-6.693-61.587,29.139-74.63,20.014-7.163-5.011-6.366-20.632-2-30,4.115-8.829,9.571-8.18,14.847-15.5,10.294-14.29-.13-31.13-1.847-63.5A171.912,171.912,0,0,1,1420.261,5339.409Z" transform="translate(-1401.349 -4707)" fill="#ebe0bc"/>
      <g id="_5gUDqE" data-name="5gUDqE" transform="translate(118.108)" opacity="0.3">
        <g id="组_113" data-name="组 113">
          <path id="路径_1474" data-name="路径 1474" d="M1595.707,5001.812l-7.182-.334a1.165,1.165,0,0,0-.636,2.172,45.267,45.267,0,0,1,5.808,3.811c7.332,5.89,11.365,13.85,13.482,22.924,2.391,10.247,1.795,20.532,1.158,31.3a1.168,1.168,0,0,1-1.966.777c-6.08-5.578-12.729-7.806-20.883-5.53a1.172,1.172,0,0,0-.245,2.156c7.621,4.164,14.772,8.121,22.005,11.922a4.87,4.87,0,0,1,3.066,4.687c1.094,36.368-7.663,70.108-26.785,101.111q-.3.486-.6.969l-2.911-.859a29.15,29.15,0,0,0-.146-3.938c-1.029-8.73-5.1-16.256-10.012-23.311-6.606-9.48-14.162-18.37-20.043-28.267-12.542-21.1-12.787-43.313-3.724-65.848a2.486,2.486,0,0,0,.231-1.693l-13.127,18.759-2.891-1.281c.6-2.64,1.219-5.275,1.936-7.883,1.31-4.772,2.772-9.512,4.413-14.18q2.414-6.866,5.344-13.543c.979-2.233,2.034-4.433,3.074-6.658a1.167,1.167,0,0,0-1.925-1.273l-23.623,26.35a1.171,1.171,0,0,1-1.763-.026c-11.131-12.945-17.724-42.039-2.795-67.633a1.164,1.164,0,0,0-1.739-1.485c-1.839,1.468-3.688,2.924-5.568,4.337-3.351,2.519-6.8,4.907-10.562,7.2a1.17,1.17,0,0,1-1.772-.99,237.786,237.786,0,0,1,2.567-38c1.939-12.684,4.876-25.214,7.444-37.867a1.166,1.166,0,0,0-1.244-1.4l-15.493,1.391a1.169,1.169,0,0,1-.9-2.022c3.864-3.562,7.581-6.91,11.091-10.463,6.219-6.295,12.223-12.8,18.307-19.23,2.112-2.231,3.893-2.379,5.63.265,5.061,7.7,10.4,15.293,14.661,23.437,9.6,18.352,15.148,38.18,20.208,58.181,7.675,30.333,11.934,61.222,15.449,92.228,2.661,23.479,4.822,47.015,7.221,70.524.04.4.271.777.939,1.085,0-1.487.071-2.978-.01-4.46-1.344-24.482-2.309-48.994-4.17-73.437-2.081-27.343-5.233-54.593-10-81.626-4.347-24.651-12.186-48.007-26.354-68.859-3.415-5.026-7.4-9.664-11.215-14.311a1.168,1.168,0,0,1,1.283-1.843,71.507,71.507,0,0,1,16.566,8.075,107.24,107.24,0,0,1,38.085,42.9c3.027,6.131,4.314,13.277,5.527,20.115,2.325,13.1,4.031,26.313,5.978,39.482a5.578,5.578,0,0,1,.035.956A1.175,1.175,0,0,1,1595.707,5001.812Z" transform="translate(-1269 -4707)" fill="#005951"/>
          <path id="路径_1475" data-name="路径 1475" d="M1659.6,5364.386h-53.049a1.17,1.17,0,0,1-1.169-1.135c-4.439-150.163,33.33-287.736,118.087-411.62l2.855,1.265c-.866,3.6-1.736,7.2-2.648,10.788a82.175,82.175,0,0,0-2.944,23.063,9.28,9.28,0,0,1-.993,4.112c-8.248,17.265-16.86,34.362-24.781,51.775a452.265,452.265,0,0,0-21.514,58.731,409.349,409.349,0,0,0-13.464,61.432,594.21,594.21,0,0,0-5.367,91.38c.544,28.579,2.424,57.136,3.888,85.694.353,6.886,1.391,13.736,2.093,20.6.089.868.127,1.742.171,2.686A1.169,1.169,0,0,1,1659.6,5364.386Z" transform="translate(-1502.622 -4707)" fill="#754c24"/>
          <path id="路径_1476" data-name="路径 1476" d="M1828.187,4879.034a1.17,1.17,0,0,1,.293,1.706c-3.577,4.6-7.079,9.08-10.538,13.589-2.069,2.7-3.93,5.568-6.134,8.146a8.9,8.9,0,0,1-4.068,2.812c-4.241,1.145-8.564,1.988-13.077,2.95a1.168,1.168,0,0,1-1.409-1.26c.39-3.606.857-7.106,1.055-10.562a1.164,1.164,0,0,0-2.287-.372,63.557,63.557,0,0,1-4.125,11.029,6.561,6.561,0,0,1-4.222,3.189,363.278,363.278,0,0,1-66.2,5.388,10.344,10.344,0,0,1-1.15-.091,1.171,1.171,0,0,1-1.023-1.283c.967-9.171,1.925-18.266,2.882-27.351l-2.9-1.215a65.967,65.967,0,0,0-5.087,6.766,49.7,49.7,0,0,0-7.978,28.49,3.189,3.189,0,0,1-2.258,3.479q-19.1,8.667-38.142,17.45c-5.61,2.587-11.2,5.223-16.737,7.956a3.811,3.811,0,0,1-4.785-1.176,65.428,65.428,0,0,1-12.177-32.546c-.074-.775-.123-1.552-.213-2.324-.019-.161-.174-.306-.76-1.275-.508,4.206-1.147,7.666-1.3,11.147a129.17,129.17,0,0,0,2.586,32.5c.486,2.316.178,3.82-1.793,5.493a146.48,146.48,0,0,0-39.075,50.961,2.147,2.147,0,0,1-.238.387,1.182,1.182,0,0,1-1.019.48l-.229-.014c-.11-7.065-.59-14.147-.263-21.191a147.153,147.153,0,0,1,18.469-65.065c15.521-28.079,37.229-49.826,66.48-63.681a131.91,131.91,0,0,1,47.136-12.182c6.159-.457,12.428.441,18.64.836,14.472.92,28.892,2.193,42.883,6.39,16.806,5.041,32.77,12.088,48.3,20.174C1827.875,4878.844,1828.03,4878.936,1828.187,4879.034Z" transform="translate(-1585.693 -4707)" fill="#005951"/>
          <path id="路径_1477" data-name="路径 1477" d="M1727.171,4875.518c-2.9-7.44-5.579-14.916-8.713-22.194-5.754-13.363-14.92-24.243-25.41-34.145a351.656,351.656,0,0,0-50.883-39.854c-21.2-13.676-43.932-23.637-68.852-28.256-1.241-.23-2.476-.49-3.718-.709-.162-.028-.352.1-1.326.427a193.079,193.079,0,0,1,37.1,13.1,1.168,1.168,0,0,1,.091,2.054c-9.328,5.538-17.37,11.944-21.564,22.3a1.162,1.162,0,0,1-1.753.495c-2.353-1.677-4.567-3.363-6.962-4.734-6.487-3.712-13.043-7.315-19.692-10.726a3.1,3.1,0,0,1-2.011-3.289,40.6,40.6,0,0,1,3.143-15.794,1.164,1.164,0,0,0-1.827-1.341c-2.656,2.347-5.221,6.8-9.3,15.62a1.171,1.171,0,0,1-1.349.644c-5.654-1.45-11.423-2.665-16.965-4.548-6.1-2.073-12.161-3.344-18.587-2.4a8.224,8.224,0,0,1-1.426-.1,40.277,40.277,0,0,1,18.671-15.126c14.8-5.957,30.173-6.818,45.875-5.322a196.005,196.005,0,0,1,37.432,7.136,203.756,203.756,0,0,1,40.684,16.55,146.338,146.338,0,0,1,41.153,33.542c6.194,7.293,11.778,15.1,17.5,22.709a1.166,1.166,0,0,0,2.1-.7v-2.521l2.961-1.313.118.107,1.994-1.747q-1.3-1.893-2.568-3.811a6.129,6.129,0,0,1-1.074-3.716,114.627,114.627,0,0,1,12.679-40.429,1.165,1.165,0,0,1,2.02-.057,32.069,32.069,0,0,0,9.713,10.271,1.165,1.165,0,0,0,1.505-1.757,41.358,41.358,0,0,1-6.695-9.5c-.174-.346-.4-.666-.593-1-1.783-3.1-2.158-5.967.523-8.981a68.8,68.8,0,0,0,5.158-7.119,1.172,1.172,0,0,1,1.713-.242l3.228,2.668,2.429-1.781c-.587-1.449-1.185-2.893-1.821-4.32a3.063,3.063,0,0,1,.674-3.829,122.892,122.892,0,0,1,29.389-23.726,4.444,4.444,0,0,1,1.067-.243l.353,1.981,2.77.246a18.546,18.546,0,0,0,.644-2.066c.653-2.69,2.384-4,4.829-4.833,6.019-2.059,12.021-4.168,18.147-6.078a1.167,1.167,0,0,1,1.275,1.828c-5.182,6.445-6.289,14.381-7.2,22.36-.208,1.827-.844,2.478-2.562,3.186-4.085,1.683-8.061,3.629-12.047,5.549l.367,2.822c2.563.487,5.127.972,7.636,1.658,5.119,1.4,4.953,1.511,4.4,6.853-.6,5.757-.959,11.539-1.409,17.366a1.174,1.174,0,0,1-1.042,1.072l-12.757,1.4-.093,2.843,12.444,2.2a1.176,1.176,0,0,1,.964,1.253c-.754,8.865-1.482,17.421-2.2,25.814a1.169,1.169,0,0,1-1.429,1.032l-14.272-3.264-.216.723,1.735.8a68.615,68.615,0,0,1,6.315,2.95c4.677,2.763,7.792,5.986,6.125,12.4-2.266,8.723-3.545,17.7-5.288,26.562a19.794,19.794,0,0,1-.831,2.672,1.173,1.173,0,0,1-1.378.752l-15.9-3.85a1.167,1.167,0,0,0-1.054,2,46.809,46.809,0,0,0,15.042,8.365,1.173,1.173,0,0,1,.723,1.466c-3.925,11.872-8.82,23.124-15.853,33.594a1.171,1.171,0,0,1-1.617.315,85.972,85.972,0,0,0-29.137-12.375,1.164,1.164,0,0,1-.886-1.4c1.364-5.878,2.6-11.566,4.046-17.2,4.968-19.371,9.664-38.822,15.151-58.046,4.918-17.232,12.26-33.595,20.6-49.436,5.1-9.7,10.969-19,16.484-28.485a2.728,2.728,0,0,0,.4-1.821,7.974,7.974,0,0,0-1.3,1.12,323.741,323.741,0,0,0-39.4,67.869c-11.567,27-19.193,54.83-18.257,84.522A4.968,4.968,0,0,1,1727.171,4875.518Z" transform="translate(-1479.708 -4707)" fill="#005951"/>
          <path id="路径_1478" data-name="路径 1478" d="M1544.121,4907.716c-1.056-.746-2.13-1.46-3.245-2.1-8.907-5.136-17.825-10.267-26.934-15.026a8.215,8.215,0,0,1-4.7-5.672c-.244-.965-.529-1.921-.853-2.959a1.167,1.167,0,0,0-2.242.05c-.313,1.191-.607,2.3-.9,3.422a1.168,1.168,0,0,1-1.467.817c-2.912-.875-5.759-1.7-8.545-2.686a2.86,2.86,0,0,1-1.24-1.988c-1.2-6.829-3.754-13.129-6.87-19.493a1.168,1.168,0,0,0-2.219.508v16.977a1.161,1.161,0,0,1-1.247,1.162c-5.042-.371-10.2-.717-15.335-1.234-.629-.063-1.382-1.169-1.674-1.944a93.415,93.415,0,0,0-12.466-22.65,16.644,16.644,0,0,0-2.652-2.795,80.239,80.239,0,0,1,6.435,26.543,1.171,1.171,0,0,1-1.057,1.231c-16.281,1.632-31.208,6.72-44.826,16.375a1.167,1.167,0,0,1-1.849-.866,78.54,78.54,0,0,1,2.008-22.6l-.83-.215c-1.2,3.727-2.763,7.384-3.516,11.2-1.031,5.221-1.419,10.567-2.156,15.85a5.445,5.445,0,0,1-.967,2.572c-5.034,6.285-10.14,12.512-15.228,18.754-.137.168-.277.334-.451.536a1.167,1.167,0,0,1-1.964-.315c-1.89-4.558-3.734-8.76-5.266-13.073-1.244-3.5-2.279-7.077-3.3-10.579a1.168,1.168,0,0,0-2.265.091c-1.827,9.137-.18,20.8,4.793,31.891a1.16,1.16,0,0,1-.332,1.388l-5.918,4.689a1.163,1.163,0,0,1-1.757-.383c-9.023-17.48-20.792-31.967-36.444-43.371a1.164,1.164,0,0,1,.006-1.891c4.146-2.956,8.083-5.864,12.161-8.559,13.214-8.731,26.193-17.875,39.83-25.893,16.212-9.53,33.772-15.8,52.679-17.6,18.093-1.716,35.165,1.525,51.143,10.438,19.359,10.8,33.818,26.566,45.918,44.753,2.749,4.131,5.341,8.365,7.939,12.6Z" transform="translate(-1053.745 -4707)" fill="#005951"/>
          <path id="路径_1479" data-name="路径 1479" d="M1712.636,4876.308a1.165,1.165,0,0,1-1.726,1.292c-7.32-4.342-13.95-8.388-20.725-12.174-16.808-9.4-34.572-16.358-53.55-19.865-5.9-1.09-11.971-1.25-17.939-2.024a7.153,7.153,0,0,1-3.58-1.79c-4.842-4.353-4.6-9.462-2.692-15.272a92.236,92.236,0,0,1,13.514-26.359,1.163,1.163,0,0,0-1.513-1.7,83.633,83.633,0,0,0-23.074,20.771,1.168,1.168,0,0,1-1.78.067c-2.654-2.9-2.56-3.305-.639-7.1,2.088-4.12,4.314-8.171,6.495-12.192a1.169,1.169,0,0,0-1.587-1.582c-3.213,1.738-5.888,4.823-9.874,11.125a1.168,1.168,0,0,1-1.844.17c-2.688-2.915-5.372-5.79-7.95-8.757a3.864,3.864,0,0,1-.481-2.446c.334-9.161,5.749-24.405,11.575-32.61a1.155,1.155,0,0,1,1.484-.34c3.31,1.754,6.7,3.479,10,5.366A274.642,274.642,0,0,1,1660,4810.973q12.867,12.281,25.583,24.718c9.556,9.37,16.348,20.723,22.8,32.3q2.13,3.82,4.05,7.757A3.108,3.108,0,0,1,1712.636,4876.308Z" transform="translate(-1467.636 -4707)" fill="#005951"/>
        </g>
      </g>
      <g id="_5gUDqE-2" data-name="5gUDqE" transform="translate(10.335 192.057)">
        <g id="组_114" data-name="组 114">
          <path id="路径_1480" data-name="路径 1480" d="M1764.7,5116.411l-5.3-.246a.859.859,0,0,0-.468,1.6,33.508,33.508,0,0,1,4.282,2.809c5.405,4.343,8.379,10.212,9.939,16.9,1.763,7.555,1.323,15.138.854,23.075a.86.86,0,0,1-1.449.573c-4.483-4.112-9.386-5.754-15.4-4.077a.865.865,0,0,0-.181,1.59c5.619,3.07,10.891,5.987,16.224,8.789a3.59,3.59,0,0,1,2.26,3.456,131.444,131.444,0,0,1-19.747,74.546l-.444.714-2.146-.633a21.6,21.6,0,0,0-.108-2.9c-.758-6.436-3.757-11.985-7.382-17.186-4.87-6.989-10.44-13.544-14.777-20.84-9.246-15.559-9.427-31.934-2.745-48.547a1.84,1.84,0,0,0,.171-1.249l-9.679,13.83-2.131-.944c.443-1.946.9-3.889,1.427-5.812.966-3.518,2.044-7.013,3.254-10.455,1.186-3.373,2.5-6.709,3.94-9.984.722-1.646,1.5-3.268,2.266-4.909a.86.86,0,0,0-1.419-.938L1708.534,5155a.864.864,0,0,1-1.3-.02c-8.206-9.543-13.067-30.994-2.06-49.863a.858.858,0,0,0-1.282-1.1c-1.356,1.083-2.719,2.156-4.1,3.2-2.471,1.857-5.015,3.617-7.787,5.308a.863.863,0,0,1-1.307-.73,175.28,175.28,0,0,1,1.893-28.019c1.429-9.351,3.595-18.59,5.488-27.918a.86.86,0,0,0-.917-1.03l-11.422,1.025a.861.861,0,0,1-.661-1.49c2.849-2.626,5.589-5.1,8.177-7.714,4.585-4.641,9.012-9.439,13.5-14.178,1.557-1.645,2.87-1.753,4.151.2,3.731,5.679,7.67,11.274,10.809,17.279,7.074,13.53,11.168,28.148,14.9,42.894,5.658,22.364,8.8,45.138,11.389,68,1.963,17.31,3.556,34.662,5.324,51.994.03.294.2.573.693.8,0-1.1.052-2.195-.008-3.288-.99-18.05-1.7-36.122-3.074-54.143-1.534-20.159-3.858-40.25-7.373-60.18-3.2-18.174-8.984-35.393-19.43-50.767-2.518-3.706-5.457-7.125-8.268-10.551a.861.861,0,0,1,.946-1.359,52.705,52.705,0,0,1,12.214,5.954,79.057,79.057,0,0,1,28.078,31.626c2.231,4.52,3.181,9.789,4.075,14.83,1.714,9.659,2.972,19.4,4.407,29.109a4.01,4.01,0,0,1,.026.7A.866.866,0,0,1,1764.7,5116.411Z" transform="translate(-1523.833 -4899.057)" fill="#007651"/>
          <path id="路径_1481" data-name="路径 1481" d="M1811.807,5383.725h-39.112a.864.864,0,0,1-.862-.837c-3.272-110.71,24.574-212.137,87.062-303.473l2.105.933c-.639,2.654-1.28,5.308-1.953,7.953a60.619,60.619,0,0,0-2.17,17,6.827,6.827,0,0,1-.732,3.032c-6.081,12.729-12.43,25.334-18.27,38.172a333.3,333.3,0,0,0-15.862,43.3,301.846,301.846,0,0,0-9.926,45.292,438.108,438.108,0,0,0-3.957,67.37c.4,21.071,1.787,42.125,2.867,63.18.26,5.076,1.025,10.127,1.543,15.191.065.64.093,1.285.125,1.98A.861.861,0,0,1,1811.807,5383.725Z" transform="translate(-1696.075 -4899.057)" fill="#754c24"/>
          <path id="路径_1482" data-name="路径 1482" d="M1936.1,5025.892a.862.862,0,0,1,.216,1.257c-2.638,3.394-5.22,6.7-7.769,10.019-1.526,1.99-2.9,4.1-4.523,6.006a6.555,6.555,0,0,1-3,2.073c-3.127.844-6.314,1.466-9.641,2.175a.861.861,0,0,1-1.039-.929c.287-2.658.632-5.239.777-7.787a.858.858,0,0,0-1.685-.274,46.882,46.882,0,0,1-3.042,8.131,4.833,4.833,0,0,1-3.112,2.351,267.788,267.788,0,0,1-48.809,3.973,7.605,7.605,0,0,1-.848-.067.864.864,0,0,1-.754-.946c.713-6.762,1.419-13.467,2.125-20.166l-2.141-.9a48.609,48.609,0,0,0-3.751,4.988,36.642,36.642,0,0,0-5.881,21.005,2.352,2.352,0,0,1-1.666,2.565q-14.079,6.39-28.12,12.865c-4.136,1.908-8.256,3.851-12.34,5.866a2.81,2.81,0,0,1-3.528-.867,48.243,48.243,0,0,1-8.977-23.995c-.054-.571-.091-1.144-.157-1.714a5.635,5.635,0,0,0-.56-.94c-.375,3.1-.846,5.652-.963,8.219a95.218,95.218,0,0,0,1.907,23.958,3.586,3.586,0,0,1-1.322,4.05,107.987,107.987,0,0,0-28.808,37.572,1.682,1.682,0,0,1-.176.286.873.873,0,0,1-.752.354l-.168-.011c-.081-5.208-.435-10.43-.194-15.624a108.476,108.476,0,0,1,13.617-47.969c11.443-20.7,27.447-36.735,49.013-46.95a97.251,97.251,0,0,1,34.752-8.982c4.541-.337,9.162.326,13.742.617,10.67.678,21.3,1.616,31.616,4.711a204.479,204.479,0,0,1,35.612,14.874C1935.872,5025.752,1935.986,5025.819,1936.1,5025.892Z" transform="translate(-1757.319 -4899.057)" fill="#007651"/>
          <path id="路径_1483" data-name="路径 1483" d="M1861.627,5023.3c-2.14-5.485-4.113-11-6.424-16.363-4.242-9.851-11-17.873-18.733-25.173a259.325,259.325,0,0,0-37.515-29.384c-15.629-10.082-32.389-17.426-50.762-20.831-.915-.17-1.826-.361-2.742-.523-.119-.021-.259.077-.977.315a142.388,142.388,0,0,1,27.351,9.66.861.861,0,0,1,.067,1.514c-6.878,4.083-12.807,8.806-15.9,16.441a.856.856,0,0,1-1.292.365c-1.735-1.237-3.367-2.48-5.133-3.49-4.783-2.737-9.616-5.394-14.518-7.909a2.283,2.283,0,0,1-1.483-2.425,29.936,29.936,0,0,1,2.317-11.644.858.858,0,0,0-1.347-.988c-1.958,1.73-3.849,5.015-6.856,11.516a.862.862,0,0,1-.994.474c-4.169-1.069-8.423-1.965-12.508-3.353-4.5-1.528-8.967-2.465-13.7-1.772a6.056,6.056,0,0,1-1.052-.076,29.7,29.7,0,0,1,13.766-11.152c10.915-4.391,22.245-5.026,33.822-3.924a144.587,144.587,0,0,1,27.6,5.261,150.272,150.272,0,0,1,30,12.2,107.888,107.888,0,0,1,30.34,24.73c4.566,5.377,8.684,11.135,12.9,16.742a.859.859,0,0,0,1.547-.516v-1.859l2.183-.968.087.079,1.47-1.288q-.96-1.4-1.893-2.81a4.517,4.517,0,0,1-.792-2.739,84.522,84.522,0,0,1,9.348-29.807.859.859,0,0,1,1.489-.042,23.633,23.633,0,0,0,7.161,7.572.859.859,0,0,0,1.11-1.295,30.525,30.525,0,0,1-4.937-7c-.127-.256-.294-.492-.436-.74-1.315-2.289-1.591-4.4.385-6.622a50.774,50.774,0,0,0,3.8-5.248.865.865,0,0,1,1.263-.179l2.38,1.967,1.791-1.313c-.433-1.068-.874-2.133-1.343-3.185a2.258,2.258,0,0,1,.5-2.823,90.6,90.6,0,0,1,21.667-17.492,3.264,3.264,0,0,1,.787-.179l.26,1.46,2.042.182a14.038,14.038,0,0,0,.476-1.523,4.8,4.8,0,0,1,3.56-3.564c4.437-1.518,8.862-3.073,13.379-4.481a.861.861,0,0,1,.939,1.348c-3.82,4.752-4.636,10.6-5.3,16.485a2.446,2.446,0,0,1-1.889,2.349c-3.012,1.241-5.943,2.676-8.882,4.091l.271,2.081c1.889.359,3.78.717,5.629,1.222,3.774,1.031,3.652,1.114,3.242,5.052-.441,4.245-.707,8.508-1.039,12.8a.865.865,0,0,1-.768.79l-9.405,1.03-.069,2.1,9.175,1.622a.867.867,0,0,1,.71.924c-.556,6.536-1.092,12.844-1.619,19.032a.862.862,0,0,1-1.053.761l-10.522-2.406-.159.532,1.278.589a50.281,50.281,0,0,1,4.657,2.175c3.448,2.037,5.744,4.413,4.515,9.142-1.67,6.431-2.613,13.05-3.9,19.583a14.543,14.543,0,0,1-.612,1.97.865.865,0,0,1-1.016.555l-11.727-2.839a.86.86,0,0,0-.776,1.478,34.514,34.514,0,0,0,11.089,6.168.863.863,0,0,1,.533,1.08,99.922,99.922,0,0,1-11.687,24.768.864.864,0,0,1-1.192.232,63.361,63.361,0,0,0-21.483-9.123.859.859,0,0,1-.652-1.032c1.005-4.334,1.918-8.527,2.983-12.681,3.663-14.281,7.124-28.622,11.17-42.795,3.626-12.705,9.039-24.768,15.184-36.448,3.763-7.152,8.087-14.008,12.154-21a2.015,2.015,0,0,0,.293-1.342,5.94,5.94,0,0,0-.957.825,238.723,238.723,0,0,0-29.051,50.038c-8.528,19.905-14.151,40.424-13.46,62.315A3.617,3.617,0,0,1,1861.627,5023.3Z" transform="translate(-1679.181 -4899.057)" fill="#007651"/>
          <path id="路径_1484" data-name="路径 1484" d="M1726.669,5047.038c-.778-.55-1.57-1.077-2.392-1.551-6.567-3.786-13.142-7.569-19.858-11.078a6.058,6.058,0,0,1-3.466-4.181c-.18-.712-.389-1.416-.628-2.182a.86.86,0,0,0-1.653.037l-.665,2.523a.86.86,0,0,1-1.081.6c-2.147-.645-4.246-1.25-6.3-1.98a2.111,2.111,0,0,1-.914-1.466,53.889,53.889,0,0,0-5.065-14.371.861.861,0,0,0-1.636.374v12.517a.858.858,0,0,1-.92.857c-3.717-.274-7.518-.529-11.306-.91-.463-.047-1.018-.862-1.234-1.434a68.926,68.926,0,0,0-9.19-16.7,12.272,12.272,0,0,0-1.955-2.06,59.182,59.182,0,0,1,4.744,19.569.864.864,0,0,1-.779.907,67.419,67.419,0,0,0-33.05,12.073.859.859,0,0,1-1.362-.638,57.887,57.887,0,0,1,1.48-16.659l-.612-.159a74.522,74.522,0,0,0-2.592,8.257c-.76,3.849-1.047,7.791-1.59,11.685a4.006,4.006,0,0,1-.713,1.9c-3.711,4.633-7.476,9.224-11.227,13.826-.1.124-.2.246-.332.4a.861.861,0,0,1-1.448-.233c-1.394-3.36-2.753-6.458-3.883-9.638-.917-2.582-1.68-5.218-2.434-7.8a.861.861,0,0,0-1.669.066c-1.348,6.736-.133,15.334,3.533,23.512a.854.854,0,0,1-.245,1.024l-4.362,3.457a.858.858,0,0,1-1.3-.282c-6.652-12.888-15.329-23.569-26.869-31.977a.858.858,0,0,1,.005-1.394c3.056-2.179,5.959-4.323,8.966-6.31,9.742-6.437,19.31-13.178,29.365-19.09a93.662,93.662,0,0,1,38.838-12.973,63.287,63.287,0,0,1,37.706,7.7c14.273,7.961,24.933,19.586,33.854,33,2.026,3.045,3.937,6.167,5.853,9.286Z" transform="translate(-1365.133 -4899.057)" fill="#007651"/>
          <path id="路径_1485" data-name="路径 1485" d="M1850.911,5023.882a.86.86,0,0,1-1.273.953c-5.4-3.2-10.285-6.185-15.28-8.976a128.659,128.659,0,0,0-39.481-14.646c-4.351-.8-8.825-.922-13.226-1.492a5.276,5.276,0,0,1-2.639-1.32c-3.57-3.209-3.394-6.976-1.985-11.259a68.039,68.039,0,0,1,9.964-19.434.857.857,0,0,0-1.116-1.255,61.65,61.65,0,0,0-17.011,15.313.861.861,0,0,1-1.312.05c-1.957-2.135-1.888-2.437-.472-5.232,1.54-3.038,3.181-6.024,4.789-8.989a.862.862,0,0,0-1.17-1.166c-2.369,1.282-4.341,3.556-7.28,8.2a.861.861,0,0,1-1.36.125c-1.981-2.149-3.96-4.268-5.861-6.456a2.848,2.848,0,0,1-.355-1.8c.247-6.754,4.239-17.993,8.535-24.043a.849.849,0,0,1,1.093-.25c2.441,1.293,4.943,2.565,7.376,3.956a202.464,202.464,0,0,1,39.255,29.553q9.486,9.053,18.861,18.224c7.046,6.908,12.054,15.278,16.808,23.813q1.57,2.817,2.986,5.719A2.3,2.3,0,0,1,1850.911,5023.882Z" transform="translate(-1670.28 -4899.057)" fill="#007651"/>
        </g>
      </g>
      <g id="_5gUDqE-3" data-name="5gUDqE" transform="translate(268.074 175.464)">
        <g id="组_115" data-name="组 115">
          <path id="路径_1486" data-name="路径 1486" d="M1499.413,5109.369l-5.527-.257a.9.9,0,0,0-.49,1.672,34.97,34.97,0,0,1,4.471,2.933c5.642,4.534,8.747,10.661,10.376,17.644,1.84,7.887,1.381,15.8.891,24.089a.9.9,0,0,1-1.513.6c-4.679-4.293-9.8-6.008-16.073-4.256a.9.9,0,0,0-.188,1.659c5.865,3.2,11.369,6.251,16.936,9.176a3.749,3.749,0,0,1,2.36,3.608c.842,27.991-5.9,53.959-20.616,77.821-.153.249-.308.5-.463.746l-2.241-.661a22.337,22.337,0,0,0-.112-3.031c-.791-6.719-3.922-12.512-7.706-17.942-5.084-7.3-10.9-14.139-15.426-21.756-9.653-16.242-9.841-33.336-2.866-50.68a1.92,1.92,0,0,0,.178-1.3l-10.1,14.437-2.225-.986c.463-2.031.939-4.059,1.49-6.067,1.009-3.673,2.134-7.321,3.4-10.914q1.857-5.283,4.113-10.423c.754-1.719,1.566-3.412,2.366-5.124a.9.9,0,0,0-1.482-.981q-9.089,10.138-18.182,20.281a.9.9,0,0,1-1.357-.02c-8.567-9.963-13.641-32.356-2.151-52.054a.9.9,0,0,0-1.338-1.143c-1.415,1.13-2.838,2.25-4.286,3.338-2.579,1.939-5.235,3.776-8.129,5.541a.9.9,0,0,1-1.364-.761,183.058,183.058,0,0,1,1.976-29.251c1.492-9.762,3.753-19.406,5.73-29.145a.9.9,0,0,0-.958-1.075l-11.924,1.07a.9.9,0,0,1-.69-1.556c2.974-2.741,5.835-5.318,8.537-8.053,4.786-4.845,9.407-9.853,14.09-14.8,1.625-1.717,3-1.831,4.333.2,3.9,5.928,8.007,11.77,11.284,18.038,7.384,14.125,11.658,29.386,15.553,44.78,5.907,23.347,9.185,47.121,11.891,70.985,2.048,18.071,3.711,36.185,5.557,54.279.032.306.209.6.724.835,0-1.144.054-2.292-.009-3.433-1.034-18.843-1.777-37.708-3.209-56.521-1.6-21.045-4.028-42.019-7.7-62.825-3.346-18.973-9.38-36.949-20.285-53-2.628-3.868-5.7-7.438-8.631-11.014a.9.9,0,0,1,.988-1.419,55.084,55.084,0,0,1,12.75,6.215,82.532,82.532,0,0,1,29.312,33.016c2.33,4.719,3.321,10.219,4.254,15.482,1.79,10.084,3.1,20.252,4.6,30.388a4.2,4.2,0,0,1,.027.735A.9.9,0,0,1,1499.413,5109.369Z" transform="translate(-1247.96 -4882.464)" fill="#005951"/>
          <path id="路径_1487" data-name="路径 1487" d="M1548.588,5388.43h-40.83a.9.9,0,0,1-.9-.874c-3.416-115.575,25.653-221.46,90.887-316.809l2.2.974c-.667,2.771-1.336,5.541-2.038,8.3a63.266,63.266,0,0,0-2.266,17.75,7.146,7.146,0,0,1-.764,3.166c-6.348,13.288-12.977,26.447-19.073,39.848a348.035,348.035,0,0,0-16.559,45.2,315.088,315.088,0,0,0-10.362,47.282,457.309,457.309,0,0,0-4.131,70.331c.419,22,1.866,43.976,2.992,65.956.272,5.3,1.071,10.572,1.611,15.859.068.668.1,1.341.132,2.067A.9.9,0,0,1,1548.588,5388.43Z" transform="translate(-1427.771 -4882.464)" fill="#754c24"/>
          <path id="路径_1488" data-name="路径 1488" d="M1678.346,5014.872a.9.9,0,0,1,.225,1.313c-2.753,3.543-5.448,6.988-8.11,10.459-1.593,2.077-3.025,4.285-4.722,6.269a6.839,6.839,0,0,1-3.131,2.165c-3.264.881-6.591,1.53-10.065,2.271a.9.9,0,0,1-1.084-.97c.3-2.776.66-5.47.812-8.13a.9.9,0,0,0-1.76-.286,48.915,48.915,0,0,1-3.175,8.489,5.046,5.046,0,0,1-3.249,2.454,279.569,279.569,0,0,1-50.954,4.147,7.84,7.84,0,0,1-.885-.07.9.9,0,0,1-.787-.987c.744-7.059,1.481-14.059,2.218-21.052l-2.235-.934a50.77,50.77,0,0,0-3.916,5.207,38.252,38.252,0,0,0-6.14,21.928,2.453,2.453,0,0,1-1.738,2.677q-14.7,6.671-29.357,13.431c-4.317,1.991-8.618,4.02-12.881,6.123a2.931,2.931,0,0,1-3.683-.9,50.354,50.354,0,0,1-9.372-25.049c-.057-.6-.094-1.195-.164-1.789a5.882,5.882,0,0,0-.585-.981c-.391,3.237-.883,5.9-1,8.579a99.364,99.364,0,0,0,1.99,25.012,3.744,3.744,0,0,1-1.38,4.228,112.715,112.715,0,0,0-30.074,39.222,1.7,1.7,0,0,1-.184.3.912.912,0,0,1-.784.369l-.176-.011c-.085-5.437-.454-10.888-.2-16.31a113.263,113.263,0,0,1,14.215-50.078c11.946-21.611,28.654-38.349,51.167-49.013a101.519,101.519,0,0,1,36.279-9.376c4.741-.352,9.566.34,14.347.644,11.138.708,22.237,1.687,33.005,4.917a213.546,213.546,0,0,1,37.177,15.528C1678.1,5014.726,1678.225,5014.8,1678.346,5014.872Z" transform="translate(-1491.707 -4882.464)" fill="#005951"/>
          <path id="路径_1489" data-name="路径 1489" d="M1600.6,5012.166c-2.234-5.726-4.294-11.48-6.706-17.082-4.429-10.285-11.483-18.659-19.557-26.28a270.617,270.617,0,0,0-39.163-30.675c-16.316-10.525-33.813-18.192-52.993-21.747-.955-.177-1.9-.377-2.862-.546-.124-.021-.27.081-1.02.329a148.641,148.641,0,0,1,28.553,10.085.9.9,0,0,1,.069,1.58c-7.179,4.263-13.369,9.194-16.6,17.164a.9.9,0,0,1-1.349.381c-1.811-1.291-3.515-2.589-5.358-3.644-4.993-2.857-10.039-5.63-15.156-8.256a2.382,2.382,0,0,1-1.548-2.531,31.233,31.233,0,0,1,2.419-12.156.9.9,0,0,0-1.406-1.032c-2.045,1.806-4.019,5.236-7.158,12.022a.9.9,0,0,1-1.038.5c-4.352-1.115-8.792-2.051-13.058-3.5-4.7-1.595-9.36-2.574-14.305-1.85a6.338,6.338,0,0,1-1.1-.079,30.992,30.992,0,0,1,14.37-11.642c11.394-4.585,23.223-5.248,35.309-4.1a150.833,150.833,0,0,1,28.809,5.493,156.789,156.789,0,0,1,31.314,12.738,112.6,112.6,0,0,1,31.673,25.816c4.768,5.613,9.066,11.625,13.469,17.478a.9.9,0,0,0,1.616-.538v-1.941l2.278-1.011.091.083,1.535-1.345q-1-1.456-1.976-2.933a4.715,4.715,0,0,1-.828-2.86,88.248,88.248,0,0,1,9.759-31.117.9.9,0,0,1,1.555-.044,24.678,24.678,0,0,0,7.476,7.906.9.9,0,0,0,1.158-1.353,31.826,31.826,0,0,1-5.153-7.309c-.134-.267-.307-.513-.456-.772-1.373-2.39-1.661-4.593.4-6.913a52.854,52.854,0,0,0,3.97-5.479.9.9,0,0,1,1.319-.186l2.484,2.053,1.87-1.37c-.452-1.115-.913-2.227-1.4-3.325a2.356,2.356,0,0,1,.519-2.947,94.6,94.6,0,0,1,22.62-18.262,3.494,3.494,0,0,1,.82-.187l.272,1.525,2.132.19a14.323,14.323,0,0,0,.5-1.59,5.017,5.017,0,0,1,3.717-3.72c4.632-1.585,9.252-3.208,13.967-4.678a.9.9,0,0,1,.981,1.407c-3.988,4.96-4.84,11.069-5.539,17.209a2.555,2.555,0,0,1-1.972,2.453c-3.144,1.295-6.2,2.792-9.272,4.27l.283,2.172c1.972.376,3.945.749,5.877,1.276,3.939,1.076,3.811,1.164,3.384,5.275-.461,4.431-.738,8.882-1.085,13.366a.9.9,0,0,1-.8.825l-9.82,1.074-.071,2.189,9.578,1.693a.906.906,0,0,1,.742.965c-.581,6.823-1.141,13.408-1.691,19.868a.9.9,0,0,1-1.1.8l-10.985-2.512-.166.556,1.335.614a52.93,52.93,0,0,1,4.861,2.27c3.6,2.127,6,4.607,4.714,9.544-1.744,6.714-2.729,13.624-4.07,20.444a15.386,15.386,0,0,1-.64,2.057.9.9,0,0,1-1.06.579l-12.242-2.963a.9.9,0,0,0-.811,1.542,36.032,36.032,0,0,0,11.577,6.439.9.9,0,0,1,.556,1.128,104.316,104.316,0,0,1-12.2,25.856.9.9,0,0,1-1.244.242,66.174,66.174,0,0,0-22.426-9.524.9.9,0,0,1-.682-1.077c1.05-4.524,2-8.9,3.114-13.238,3.824-14.909,7.438-29.88,11.661-44.676,3.786-13.263,9.436-25.856,15.852-38.049,3.928-7.466,8.442-14.624,12.688-21.924a2.105,2.105,0,0,0,.305-1.4,6.188,6.188,0,0,0-1,.861,249.221,249.221,0,0,0-30.327,52.237c-8.9,20.78-14.773,42.2-14.052,65.053A3.848,3.848,0,0,1,1600.6,5012.166Z" transform="translate(-1410.134 -4882.464)" fill="#005951"/>
          <path id="路径_1490" data-name="路径 1490" d="M1459.71,5036.947c-.813-.573-1.639-1.124-2.5-1.618-6.856-3.953-13.72-7.9-20.73-11.566a6.322,6.322,0,0,1-3.619-4.365c-.188-.743-.407-1.478-.656-2.277a.9.9,0,0,0-1.725.038l-.694,2.634a.9.9,0,0,1-1.129.629c-2.241-.674-4.432-1.3-6.577-2.067a2.2,2.2,0,0,1-.954-1.53,56.3,56.3,0,0,0-5.288-15,.9.9,0,0,0-1.708.391v13.066a.9.9,0,0,1-.96.9c-3.88-.286-7.848-.552-11.8-.95-.483-.049-1.063-.9-1.288-1.5a71.905,71.905,0,0,0-9.594-17.434,12.832,12.832,0,0,0-2.041-2.15,61.743,61.743,0,0,1,4.952,20.429.9.9,0,0,1-.813.947,70.373,70.373,0,0,0-34.5,12.6.9.9,0,0,1-1.422-.666,60.46,60.46,0,0,1,1.545-17.391l-.639-.166a78.16,78.16,0,0,0-2.706,8.62c-.793,4.018-1.092,8.133-1.659,12.2a4.193,4.193,0,0,1-.745,1.98c-3.874,4.838-7.8,9.63-11.72,14.435-.1.129-.213.256-.347.412a.9.9,0,0,1-1.512-.243c-1.455-3.508-2.874-6.742-4.053-10.061-.957-2.7-1.754-5.448-2.541-8.142a.9.9,0,0,0-1.743.069c-1.406,7.033-.138,16.007,3.689,24.545a.893.893,0,0,1-.255,1.069l-4.555,3.609a.9.9,0,0,1-1.353-.295c-6.944-13.453-16-24.6-28.049-33.381a.9.9,0,0,1,.005-1.455c3.19-2.275,6.221-4.514,9.36-6.588,10.17-6.72,20.159-13.758,30.655-19.928a97.77,97.77,0,0,1,40.545-13.544,66.061,66.061,0,0,1,39.363,8.034c14.9,8.311,26.029,20.447,35.342,34.445,2.115,3.179,4.11,6.438,6.11,9.694Z" transform="translate(-1082.286 -4882.464)" fill="#005951"/>
          <path id="路径_1491" data-name="路径 1491" d="M1589.411,5012.774a.9.9,0,0,1-1.329.994c-5.634-3.341-10.737-6.456-15.951-9.37a134.31,134.31,0,0,0-41.216-15.289c-4.542-.839-9.213-.962-13.807-1.557a5.506,5.506,0,0,1-2.755-1.379c-3.727-3.35-3.543-7.282-2.072-11.754a71,71,0,0,1,10.4-20.287.9.9,0,0,0-1.165-1.311,64.4,64.4,0,0,0-17.759,15.986.9.9,0,0,1-1.369.052c-2.043-2.228-1.971-2.543-.492-5.461,1.607-3.172,3.32-6.29,5-9.384a.9.9,0,0,0-1.221-1.218c-2.474,1.338-4.532,3.713-7.6,8.563a.9.9,0,0,1-1.42.13c-2.068-2.243-4.135-4.455-6.119-6.739a2.977,2.977,0,0,1-.37-1.883c.258-7.051,4.425-18.784,8.909-25.1a.888.888,0,0,1,1.142-.261c2.548,1.349,5.16,2.677,7.7,4.13a211.339,211.339,0,0,1,40.98,30.851q9.9,9.452,19.69,19.025c7.355,7.211,12.583,15.949,17.546,24.859q1.639,2.941,3.118,5.97A2.5,2.5,0,0,1,1589.411,5012.774Z" transform="translate(-1400.843 -4882.464)" fill="#005951"/>
        </g>
      </g>
    </g>
    <path id="路径_1503" data-name="路径 1503" d="M1352.108,9.758C1192.5-2.188,945.344-9.6,654.113,27.2,358.881,64.507,137.071,132.249,0,182.234c133.874,25.3,306.961,49.761,511.313,58.8,108.5,4.8,280.046,11.745,492.889-10.692,54.162-5.71,95.985-10.346,140.851-18.557,38.626-7.068,34.523-8.759,50.286-10.455,92.76-9.972,158.14,43.417,191.631,29.821,18.392-7.467,16.346-30.741,5.135-44.7-10.566-13.155-24.576-12.188-38.123-23.1-26.432-21.292.334-46.383,4.743-94.608C1359.929,55.561,1359.96,35.219,1352.108,9.758Z" transform="matrix(0.996, 0.087, -0.087, 0.996, 2172.518, 834.385)" fill="#ebe0bc"/>
    <g id="组_125" data-name="组 125" transform="translate(2675.001 467.443)">
      <path id="路径_1465" data-name="路径 1465" d="M1000.338,7698c-11.956,0-21.919,8.966-23.911,29.889-.736,7.726-.925,14.223.079,19.453l-.694-.164s-11.34,27.536-18.314,28.532,33.874,15.941,33.874,4.981a120.653,120.653,0,0,1,1.934-18.2c.663.1,1.341.2,2.051.271,18.93,1.992,20.922-4.982,25.9-22.915S1012.293,7698,1000.338,7698Z" transform="translate(-888.752 -7673.383)" fill="#ffd394"/>
      <path id="路径_1466" data-name="路径 1466" d="M1081.481,7816.978c1.993-1.992,4.981-4.981,7.97-4.981s10.959,1.992,12.952,1,9.963-2.988,10.959-1-6.974,10.959-9.963,10.959-9.963-2.989-11.955-1.992-2.989,4.982-2.989,4.982l-11.956-2.99Z" transform="translate(-889.196 -7673.802)" fill="#ffd394"/>
      <path id="路径_1467" data-name="路径 1467" d="M892.493,8146.958c1.992-2.99,13.948-3.986,15.941-3.986s15.941-6.974,18.93-6.974,11.956-1.992,14.944,1.992,1,11.955-2.989,14.945c-4.064,3.048-16.937,7.97-22.915,8.967-5.9.981-19.926,2.988-22.915,0C887.511,8155.923,892.493,8146.958,892.493,8146.958Z" transform="translate(-888.508 -7675.002)" fill="#bac8e0"/>
      <path id="路径_1468" data-name="路径 1468" d="M1007.161,7692.927a53.417,53.417,0,0,0-13.948,0c-7.97,1-11.956,7.97-16.937,9.963-2.664,1.065-5.713,2.26-8.531,3.355-7.468.853,9.03-19.629.561-25.274-8.967-5.978-18.93-10.959-30.885-4.981s-27.9,19.925-18.93,24.907,16.937-2.988,21.919,0-.3,4.683,3.985,8.967c2.989,2.988,10.561-2.54,13.948,0,0,0,7.97,6.974,1,18.93a22.561,22.561,0,0,0,2.989,25.9c7.97,8.966,11.955-3.986,14.944,0s9.963,2.988,16.937-1,11.956-12.953,6.974-11.957-4.982-8.966-2.989-11.955,2.989-3.984,8.967-1.992,7.97,1,14.944-7.97S1018.12,7696.913,1007.161,7692.927Z" transform="translate(-888.601 -7673.292)" fill="#0c2e5a"/>
      <path id="路径_1469" data-name="路径 1469" d="M959.493,8151.957c1.993-2.99,13.948-3.985,15.941-3.985s15.941-6.975,18.93-6.975,11.955-1.991,14.944,1.992,1,11.956-2.989,14.945c-4.064,3.048-16.937,7.97-22.915,8.966-5.9.982-19.926,2.989-22.915,0C954.511,8160.923,959.493,8151.957,959.493,8151.957Z" transform="translate(-888.756 -7675.021)" fill="#bac8e0"/>
      <path id="路径_1470" data-name="路径 1470" d="M897.51,7897.545c2.738-4.564,24.647-.913,24.647-.913l41.079,6.389s23.619,8.106,23.734,11.868c.3,9.822-.913,30.125,0,35.6,1.826,10.954,9.129,75.347,9.129,83.072,0,11.867-8.215,115.021-17.344,117.76s-17.344,5.478-21-.912,4.564-100.416.912-115.936c-2.438-10.363-19.17-84.9-23.735-72.116s9.129,62.987,5.478,73.942c-3.175,9.526-13.693,105.893-18.257,108.631-4.7,2.818-23.735,6.391-24.647-4.564-.922-11.066,10.954-98.589,10.954-105.893s-24.647-72.116-19.171-99.5C892.181,7920.539,897.51,7897.545,897.51,7897.545Z" transform="translate(-888.5 -7674.113)" fill="#7f3344"/>
      <path id="路径_1471" data-name="路径 1471" d="M1081.815,7821.821c-2.989-2.988-1-4.981-1-4.981s-22.915-1-30.885-3.984c-7.286-2.732-19.926-10.96-30.885-15.941s-13.948-13.947-20.922-16.937-14.945,0-24.907-1-16.937-8.966-31.882-2.988c-13.752,5.5-30.885,34.87-32.878,48.818-1,6.975-10.959,50.812-10.959,66.753s81.7,26.9,87.674,20.922c3.474-3.475-5.505-28.04-3.037-47.412a21.87,21.87,0,0,0,13-8.381c8.271-10.752,4.726-22.222,1.684-28.367,5.928,3.318,20.182,11.021,27.209,12.427,9.963,1.991,23.589,2.557,31.882-1,6.974-2.989,31.881-13.947,31.881-13.947A17.1,17.1,0,0,1,1081.815,7821.821Z" transform="translate(-888.533 -7673.664)" fill="#bac8e0"/>
    </g>
    <g id="组_126" data-name="组 126" transform="translate(3191.286 428.911)">
      <path id="路径_1456" data-name="路径 1456" d="M1587.8,8165.958c-1.992-2.989-13.948-3.985-15.941-3.985s-15.941-6.974-18.93-6.974-11.956-1.994-14.945,1.991-1,11.956,2.989,14.945c4.065,3.048,16.937,7.97,22.915,8.966,5.9.982,19.926,2.99,22.915,0C1592.782,8174.923,1587.8,8165.958,1587.8,8165.958Z" transform="translate(-1438.686 -7654.541)" fill="#bac8e0"/>
      <path id="路径_1457" data-name="路径 1457" d="M1520.8,8170.957c-1.993-2.988-13.948-3.985-15.941-3.985s-15.941-6.974-18.93-6.974-11.956-1.993-14.945,1.992-1,11.956,2.989,14.944c4.065,3.048,16.937,7.971,22.915,8.967,5.9.982,19.926,2.989,22.915,0C1525.782,8179.924,1520.8,8170.957,1520.8,8170.957Z" transform="translate(-1438.438 -7654.559)" fill="#bac8e0"/>
      <path id="路径_1458" data-name="路径 1458" d="M1496.469,7802.776c-1.992,19.927,10.112,36.613,11.956,45.83,1.993,9.963-30.885,56.789-16.937,61.771s35.866,11.956,49.815,9.964,50.811,1.992,49.815-9.964-15.941-46.825-15.941-57.785,12.952-33.874,13.948-49.815,1-58.78-6.974-59.776-28.893,1-36.863,0S1496.469,7802.776,1496.469,7802.776Z" transform="translate(-1438.506 -7653.017)" fill="#ec8c69"/>
      <path id="路径_1459" data-name="路径 1459" d="M1508.5,7700.921c-1.711,12.839,3.985,31.882,21.919,31.882s27.9-11.956,26.9-23.911S1547.354,7680,1533.406,7680,1510.491,7685.977,1508.5,7700.921Z" transform="translate(-1438.581 -7652.784)" fill="#ffd394"/>
      <path id="路径_1460" data-name="路径 1460" d="M1532.373,7661.965c8.035-2.983,8.967-10.96,20.922-8.968s32.878,6.976,33.874,26.9,1,26.9,5.978,36.864c5.08,10.159,13.948,11.955,13.948,25.9s-8.52,27.839-7.97,33.874c1,10.96,22.915,23.911,16.937,40.849s-15.941,24.906-48.819,21.919-54.8-12.952-53.8-31.883,9.963-21.917,13.948-34.87,1-16.937-4.982-22.915-10.382-15.679-6.974-25.9c1.993-5.978,13.068-14.027,18.93-17.934,5.978-3.985,12.952-5.978,9.963-11.955-4.108-8.217-23.911,1.992-29.889,1-5.366-.895-14.471-6.077-15.941-11.955-1.993-7.972,7.4-14.718,12.952-16.937C1516.432,7663.957,1528.4,7663.441,1532.373,7661.965Z" transform="translate(-1438.544 -7652.682)" fill="#6a85b6"/>
      <path id="路径_1461" data-name="路径 1461" d="M1454.131,7771.82s-2.92-15.7-.435-20.02,11.891-9.481,8.924-9.119l-4.945.6c-.989.122-4.2-1.494-4.68-5.45s-.1-9.021,2.87-9.384,4.945-.6,4.7-2.581-1.472-3.835-5.428-3.353a19.926,19.926,0,0,0-8.659,3.063c-1.857,1.231-8.419,5.043-7.694,10.977s5.357,27.45,4.1,33.625S1454.131,7771.82,1454.131,7771.82Z" transform="translate(-1438.324 -7652.941)" fill="#ffd394"/>
      <path id="路径_1462" data-name="路径 1462" d="M1447.109,7763.794c5.813-1.711,14.328,2.268,16.042,8.081s10.484,42.856,10.219,48.911,1,15.94-4.005,19.929c-6.115,4.875-13.591,2.318-16.654-6.342s-15.659-54.3-14.284-59.481S1443.22,7764.941,1447.109,7763.794Z" transform="translate(-1438.322 -7653.093)" fill="#ec8c69"/>
      <path id="路径_1463" data-name="路径 1463" d="M1511.3,7741.978a80.988,80.988,0,0,0-19.926,25.9c-4.981,9.964-25.9,43.838-28.893,52.8-2.541,7.62-9.319,18.778-1.992,21.918,6.974,2.989,13.1-4.814,19.926-10.958,9.963-8.968,38.856-50.812,42.841-55.793,4.235-5.294,13.948-20.923,12.952-25.9S1534.214,7736,1527.24,7736,1517.276,7737,1511.3,7741.978Z" transform="translate(-1438.392 -7652.991)" fill="#ec8c69"/>
      <path id="路径_1464" data-name="路径 1464" d="M1588.23,7896.994c-2.989-4.979-26.9,5.978-26.9,5.978l-44.833,6.976s-27.9-3.11-28.026,1c-.328,10.721.129,37.858-.867,43.836-1.992,11.957-6.974,82.232-6.974,90.663,0,12.953,8.967,125.534,18.93,128.523s18.929,5.978,22.915-1-4.982-109.594-1-126.529c2.661-11.312,15.811-104.612,20.793-90.663s-4.852,80.7-.867,92.655c3.466,10.4,14.944,115.57,19.926,118.56,5.126,3.074,25.9,6.974,26.9-4.981,1.006-12.08-11.956-107.6-11.956-115.57s26.9-78.708,20.922-108.6C1594.047,7922.091,1588.23,7896.994,1588.23,7896.994Z" transform="translate(-1438.479 -7653.583)" fill="#6a85b6"/>
    </g>
  </g>
</svg>
