<?xml version="1.0" encoding="utf-8"?>
<!-- Generator: Adobe Illustrator 22.1.0, SVG Export Plug-In . SVG Version: 6.00 Build 0)  -->
<svg version="1.1" id="design-lab-logo" xmlns="http://www.w3.org/2000/svg" xmlns:xlink="http://www.w3.org/1999/xlink" x="0px"
	 y="0px" viewBox="0 0 288 85.8" style="enable-background:new 0 0 288 85.8;" xml:space="preserve">
<style type="text/css">
	.st0{fill:#11284A;}
	.st1{fill:#C89313;}
</style>
<path class="st0" d="M5.9,62.3H0v-2.1h14.5v2.1h-6v17.4H5.9V62.3z M16.4,59.1h2.5v8.8H19c0.4-0.8,1.1-1.4,1.8-1.8
	c0.8-0.5,1.7-0.7,2.6-0.7c1.9,0,4.9,1.2,4.9,6v8.3h-2.6v-8.1c0-2.3-0.8-4.2-3.2-4.2c-1.6,0-2.9,1-3.4,2.5c-0.1,0.4-0.2,0.8-0.2,1.2
	v8.5h-2.5V59.1z M33.9,73.1c0,3.5,2.2,4.9,4.8,4.9c1.3,0,2.7-0.2,3.9-0.7l0.4,1.8c-1.5,0.6-3.1,0.9-4.7,0.9c-4.3,0-6.9-2.9-6.9-7.1
	s2.5-7.5,6.6-7.5c4.6,0,5.8,4,5.8,6.6c0,0.4,0,0.8-0.1,1.2L33.9,73.1z M41.4,71.3c0-1.6-0.7-4.1-3.5-4.1c-2.6,0-3.7,2.3-3.9,4.1
	H41.4z M53.2,60.4c1.8-0.3,3.6-0.4,5.4-0.4c3.6,0,6.2,0.9,7.9,2.4c1.9,1.8,2.9,4.4,2.8,7c0.1,2.8-0.9,5.5-2.8,7.6
	c-1.9,1.8-4.9,2.8-8.7,2.8c-1.5,0-3.1-0.1-4.6-0.2L53.2,60.4z M55.7,77.7c0.8,0.1,1.7,0.1,2.5,0.1c5.4,0,8.3-3,8.3-8.3
	c0-4.6-2.6-7.5-7.9-7.5c-1,0-2,0.1-3,0.3L55.7,77.7z M74,73.2c0,3.4,2.2,4.8,4.8,4.8c1.3,0,2.7-0.2,3.9-0.7l0.5,1.8
	c-1.5,0.6-3.1,0.9-4.7,0.9c-4.3,0-6.9-2.9-6.9-7.1s2.5-7.5,6.6-7.5c4.6,0,5.8,4,5.8,6.6c0,0.4,0,0.8-0.1,1.2L74,73.2z M81.5,71.3
	c0-1.6-0.7-4.1-3.5-4.1c-2.6,0-3.7,2.3-3.9,4.1H81.5z M86.8,77.1c1,0.6,2.2,1,3.4,1c1.8,0,2.7-0.9,2.7-2.1s-0.7-1.9-2.6-2.6
	c-2.6-0.9-3.7-2.3-3.7-4c0-2.3,1.9-4.1,4.8-4.1c1.2,0,2.4,0.3,3.4,0.9l-0.6,1.9c-0.9-0.5-1.9-0.8-2.9-0.8c-1.5,0-2.3,0.9-2.3,1.9
	s0.8,1.7,2.6,2.4c2.4,0.9,3.7,2.1,3.7,4.2c0,2.5-1.9,4.2-5.2,4.2c-1.4,0-2.7-0.3-3.9-1L86.8,77.1z M101.4,61.7
	c0,0.8-0.6,1.5-1.5,1.6c-0.1,0-0.1,0-0.2,0c-0.8,0-1.5-0.6-1.5-1.5c0,0,0-0.1,0-0.1c0-0.9,0.7-1.6,1.5-1.6c0,0,0.1,0,0.1,0
	C100.7,60.1,101.4,60.8,101.4,61.7C101.4,61.7,101.4,61.7,101.4,61.7L101.4,61.7z M98.6,79.7v-14h2.6v14H98.6z M117.4,77.7
	c0,3.2-0.7,5.2-2,6.4c-1.5,1.2-3.3,1.8-5.1,1.7c-1.6,0-3.2-0.4-4.7-1.2l0.6-2c1.2,0.8,2.7,1.2,4.1,1.1c2.6,0,4.5-1.4,4.5-4.9v-1.5
	h-0.1c-1,1.5-2.7,2.4-4.5,2.3c-3.5,0-6-3-6-6.8c0-4.8,3.1-7.4,6.3-7.4c1.8-0.1,3.5,0.8,4.4,2.4h0.1l0.1-2.1h2.3
	c-0.1,1-0.1,2.2-0.1,3.8L117.4,77.7z M114.8,71.2c0-0.4,0-0.8-0.2-1.1c-0.4-1.6-1.9-2.8-3.6-2.7c-2.4,0-4.2,2.1-4.2,5.3
	c0,2.8,1.4,5,4.2,5c1.6,0,3.1-1.1,3.5-2.6c0.1-0.4,0.2-0.9,0.2-1.4L114.8,71.2z M121.4,69.5c0-1.5,0-2.6-0.1-3.8h2.3l0.2,2.3h0.1
	c1-1.7,2.7-2.7,4.6-2.6c1.9,0,5,1.2,5,6v8.3h-2.6v-8.1c0-2.3-0.8-4.2-3.2-4.2c-2,0.1-3.6,1.8-3.6,3.8v8.4h-2.6L121.4,69.5z
	 M143.7,60.2h2.6v17.4h8.4v2.1h-10.9L143.7,60.2z M167.2,76.4c0,1.1,0.1,2.3,0.2,3.4h-2.3l-0.2-1.8h-0.1c-1,1.3-2.6,2.1-4.3,2
	c-2.2,0.2-4.1-1.5-4.3-3.7c0-0.1,0-0.2,0-0.3c0-3.4,3-5.2,8.4-5.2v-0.3c0.2-1.6-0.9-3-2.5-3.2c-0.2,0-0.5,0-0.7,0
	c-1.3,0-2.6,0.3-3.7,1l-0.6-1.7c1.4-0.8,3-1.2,4.6-1.2c4.3,0,5.3,2.9,5.3,5.7L167.2,76.4z M164.7,72.6c-2.8-0.1-5.9,0.4-5.9,3.2
	c-0.1,1.2,0.8,2.3,2,2.4c0.1,0,0.2,0,0.4,0c1.5,0.1,2.9-0.9,3.4-2.3c0.1-0.3,0.1-0.5,0.1-0.8V72.6z M171.3,59.1h2.5v8.8h0.1
	c1-1.7,2.8-2.7,4.8-2.6c3.5,0,5.9,2.9,5.9,7.1c0,5-3.2,7.5-6.3,7.5c-1.9,0.1-3.8-0.9-4.7-2.6h-0.1l-0.1,2.3h-2.2
	c0.1-1,0.1-2.4,0.1-3.6L171.3,59.1z M173.8,74.1c0,0.3,0,0.6,0.1,0.9c0.4,1.8,2,3,3.8,3c2.7,0,4.3-2.2,4.3-5.4
	c0-2.8-1.4-5.2-4.2-5.2c-1.8,0.1-3.4,1.3-3.8,3.1c-0.1,0.3-0.1,0.7-0.1,1.1L173.8,74.1z"/>
<path class="st1" d="M238.8,52.9H0v-1.4h237.4C237.8,52.1,238.3,52.5,238.8,52.9z M287.6,51.5h-21.8c-0.5,0.5-1.1,1-1.6,1.4h23.5
	L287.6,51.5z"/>
<path class="st0" d="M34.5,27.7c0,8.5-1.2,15-14.2,15s-14.9-6.2-14.9-15V7c0-4.7-2-5.1-5.4-5.1V0.6h16.3v1.2C13,1.9,11,2.3,11,7
	v20.7c0,6.3,1.5,12.5,9.6,12.5c9,0,10.4-5.2,10.4-12.5V7c0-4.7-2-5.1-5.4-5.1V0.6h14.3v1.2c-3.4,0-5.4,0.4-5.4,5.1V27.7z M68.8,41
	c-3.6,1.2-7.3,1.8-11.1,1.7c-12.4,0-18.4-9.5-18.4-22.7c0-11.6,3.7-20,17-20c4,0,8,0.6,11.9,1.7l0.6,9.8h-1.5
	C66.5,8,64,2.4,56.3,2.4c-10,0-10.8,10.6-10.8,17c0,8,1.7,20.4,15.3,20.4c2.7,0.1,5.5-0.5,8-1.5L68.8,41z M102.2,9.6
	c-0.6-3.3-3.1-7.2-9.7-7.2c-4.2,0-7.8,2.7-7.8,6.8c0,5.5,7.4,7.3,12.8,10.5c4.9,2.9,8.2,5.4,8.2,11.3c0,7.9-6.8,11.6-15.3,11.6
	c-3.6-0.1-7.2-0.5-10.7-1.2l-0.4-8.8h1.6c0.5,3.3,3.4,7.2,10.1,7.2c5.5,0,9-3.5,9-7.8c0-6.7-10.3-8.8-16.1-13.2
	c-2.7-1.9-4.2-5-4-8.3C79.7,3,85.9,0,93.7,0c3.2,0,6.5,0.3,9.6,1l0.4,8.5L102.2,9.6z M131.1,42.1c-1.3,0.3-2.7,0.5-4,0.5
	c-3.2,0-4.2-1.7-4.2-4h-0.1c-1.7,2.6-4.7,4.2-7.8,4c-3.8,0-6.6-2.7-6.6-6.2c0-8,10.4-8,14.6-8.4v-2.1c0-3.9-0.1-8-4.7-8
	c-3.4,0-3.9,1.4-3.9,3.2c0.1,1.4-0.9,2.7-2.3,2.9c-0.1,0-0.2,0-0.3,0c-1.4,0.1-2.6-0.9-2.6-2.3c0-0.1,0-0.1,0-0.2
	c0-3.6,5.4-5.4,9.2-5.4c7.6,0,9,3.6,9,8.8v13.8c0,1.9,0.7,2.6,2.4,2.6c0.5,0,1-0.1,1.5-0.2L131.1,42.1z M122.9,29.7
	c-2.6,0.1-9.7,0.6-9.7,5.7c0,2.9,1.9,4.8,3.8,4.8c3.6,0,5.9-3.5,5.9-7.2L122.9,29.7z M132.3,41.1c2.3,0,4.2-0.5,4.2-4.1V21.9
	c0-3.3-2.6-3.5-4.2-3.6v-0.9l8.5-1.4v7.3h0.1c0.8-2,3.3-7.3,8.7-7.3c5.9,0,6.4,3.2,6.4,8.3V37c0,3.6,1.9,4.1,4.2,4.1V42h-12.7v-0.9
	c2.3,0,4.2-0.5,4.2-4.1V25.6c0-4.8-0.1-6.9-3.7-6.9c-3.2,0-7.2,6.2-7.2,11.5V37c0,3.6,1.9,4.1,4.2,4.1V42h-12.7V41.1z M166.6,40.8
	c3.4,0,5.4-0.4,5.4-5.1V7c0-4.7-2.1-5.1-5.4-5.1V0.6h14.6c10.3,0,21.2,2.2,21.2,20.8S190.9,42,181.1,42h-14.5V40.8z M177.5,34.4
	c0,4.5,0.5,5.2,3.6,5.2c10.7,0,15.1-5.7,15.1-18.2C196.2,9.9,193,3,181.1,3c-3.1,0-3.6,0.4-3.6,5.2L177.5,34.4z M204.7,41.1
	c2.3,0,4.2-0.5,4.2-4.1V21.9c0-3.3-2.5-3.5-4.2-3.6v-0.9l8.5-1.4v21c0,3.6,1.9,4.1,4.2,4.1V42h-12.7V41.1z M207.7,7.8
	c0-1.7,1.4-3.2,3.1-3.2c1.7,0,3.2,1.4,3.2,3.1s-1.4,3.2-3.2,3.2l0,0C209.1,10.9,207.7,9.5,207.7,7.8C207.7,7.8,207.7,7.8,207.7,7.8
	L207.7,7.8z M237.4,41.6c-2.1,0.7-4.3,1.1-6.6,1c-8.6,0-13.4-4.7-13.4-14c0-8.1,3.3-12.5,11.2-12.5c5,0,9.5,2.8,9.5,9.2v1.2H222
	c0,4.6,2.3,14.1,11.5,14.1c1.3,0,2.6-0.2,3.9-0.7L237.4,41.6z M233.2,24.6c0-2.9-1-6.7-5.2-6.7s-5.9,4.7-5.9,6.8L233.2,24.6z
	 M256,37.6c2.6,0,8.8,0.1,8.8,6.2c0,6.3-6.2,9.8-13.6,9.8c-5.4,0-11.1-2-11.1-7c0-3.4,2.5-4.9,4.3-5.8c-1.5-0.7-2.4-2.3-2.4-3.9
	c0-2,1.8-4.2,2.4-4.8c-1.3-1-3.2-2.7-3.2-7.4c0-7.1,5.2-8.7,10.4-8.7c2-0.1,4,0.4,5.7,1.4c0.9-2.1,2.2-5.9,5.6-5.9
	c1.4-0.1,2.6,0.9,2.7,2.3c0,0.1,0,0.2,0,0.3c0.1,1.3-0.9,2.4-2.2,2.5c-0.1,0-0.3,0-0.4,0c-1.4,0-1.8-0.8-2.5-0.8
	c-1.2,0-1.7,1.6-2,2.5c1.7,1.8,2.6,4.2,2.5,6.7c0,5.6-3.5,8.7-10.1,8.7c-1.7,0.1-3.4-0.2-5-0.8c-0.6,0.7-1,1.6-1,2.5
	c0,2.2,2.8,2.2,4.5,2.2L256,37.6z M246.5,41.5c-1.1,0.8-2.6,1.8-2.6,4.3c0,3.3,2.9,6.1,7.7,6.1c5,0,9.7-2.6,9.7-6.6
	c0-2.8-2.3-3.8-5.1-3.8L246.5,41.5z M251.3,31.9c4.6,0,5.2-3.6,5.2-6.6c0-4.1-1.4-7.5-5.4-7.5c-4.4,0-5.2,3.2-5.2,6.4
	C246,28.5,247.3,31.9,251.3,31.9L251.3,31.9z M264.9,29.3c0-8.3,4.5-13.3,11.6-13.3S288,21,288,29.3s-4.5,13.3-11.6,13.3
	S264.9,37.6,264.9,29.3L264.9,29.3z M276.4,40.7c5.5,0,6.6-6.8,6.6-11.4s-1.1-11.4-6.6-11.4s-6.6,6.9-6.6,11.4S271,40.7,276.4,40.7
	L276.4,40.7z"/>
</svg>
