<?xml version="1.0" encoding="utf-8"?>
<!-- Generator: Adobe Illustrator 23.0.1, SVG Export Plug-In . SVG Version: 6.00 Build 0)  -->
<svg version="1.1" id="Layer_1" xmlns="http://www.w3.org/2000/svg" xmlns:xlink="http://www.w3.org/1999/xlink" x="0px" y="0px"
	 viewBox="0 0 1920 1000" style="enable-background:new 0 0 1920 1000;" xml:space="preserve">
<style type="text/css">
	.st0{fill:#EFF8FF;}
	.st1{display:none;}
	.st2{display:none;opacity:0.5;fill:#F76C6C;}
	.st3{display:none;fill:#EFF8FF;}
	.st4{display:none;opacity:0.3;}
	.st5{display:inline;}
	.st6{fill:#224B80;}
	.st7{fill:#FDA2A2;}
	.st8{display:none;opacity:8.000000e-02;fill:#566ED1;}
	.st9{display:inline;fill:#A8D0E6;}
	.st10{display:inline;fill:#F9B8B8;}
	.st11{display:inline;fill:#F76C6C;}
	.st12{display:inline;fill:#F8E9A1;}
	.st13{display:inline;fill:#F9DE57;}
	.st14{display:inline;fill:#65BBEA;}
	.st15{display:inline;fill:#566ED1;}
	.st16{display:inline;fill:#374785;}
	.st17{display:inline;fill:#24305E;}
	.st18{fill:url(#SVGID_1_);}
	.st19{fill:#566ED1;}
	.st20{fill:#A8D0E6;}
	.st21{fill:#F76C6C;}
	.st22{fill:#F9B8B8;}
	.st23{fill:#4496FF;}
	.st24{fill:#8FC0FF;}
	.st25{fill:#24305E;}
	.st26{fill:#FC6464;}
	.st27{fill:#666666;}
	.st28{fill:#B3B3B3;}
	.st29{fill:#FFFFFF;stroke:#000000;stroke-miterlimit:10;}
</style>
<rect id="sky_1_" x="-106" y="-85" class="st0" width="2109" height="1284"/>
<g id="HEZ4iX.tif" class="st1">
	
		<image style="display:inline;overflow:visible;" width="2880" height="1470" id="Layer_0" xlink:href="7C1A0CD5422C5705.png"  transform="matrix(0.6639 0 0 0.6639 4 12)">
	</image>
</g>
<path class="st2" d="M800,545.2h70V403v-53.9h83.4V403h16.4v172.4h12.6v-30.2h49.3V269.4h18.9v-32.3h22.7v-30.2h72v30.2h18.9v32.3
	h15.2v428.8h39.2v-655h15.2V0.1l82,0l-0.2-0.1l0,0.1l-82.1,0l51.6-167.3l-0.1-0.8l0.3,0.2l0-0.1l0,0.1l124.2,57.3l42.3,154.7l0.1,0
	v41.4l13,4.1v332.7h115v159.4h16.4v-58.2h27.8v58.2h16.4v-10.8V75.5V21.6v-58.1l-0.3-0.1l59.1-297.5l121.1,38.8l74,316.9h0v549.3
	h15.2v-40.9h40.8V402.4h26.7V224.9c0-0.6,0-1.3,0-1.9c0-39.3,14.1-72.9,34.1-87.1V96.6c0-15.6,5.8-28.8,13.9-33.9V28.5h16.6v35.9
	c7,5.9,11.8,18.1,11.8,32.3v39.8c19.6,14.5,33.2,47.9,32.9,86.6c0,0.3,0,0.5,0,0.8h0.1v178.7h32L2138,454l148.2-123.7v-69.2h0.4
	h20.8h0.4v69.2L2456,454l19.5-51.6h32V223.8h0.1c0-0.3,0-0.5,0-0.8c-0.2-38.7,13.3-72.1,32.9-86.6V96.6c0-14.2,4.8-26.4,11.8-32.3
	V28.5h16.6v34.3c8.1,5,13.9,18.3,13.9,33.9v39.3c20,14.2,34.1,47.8,34.1,87.1c0,0.9,0,1.8,0,2.7v176.8h26.7v168.6h5.3v465.4H800
	V545.2z"/>
<rect id="sky" x="-82" y="-124" class="st3" width="2109" height="1284"/>
<g id="Group_80_9_" transform="translate(-64.111 1390.62)" class="st4">
	<g id="Group_74_9_" transform="translate(0 0)" class="st5">
		<g id="Group_72_9_">
			<rect id="Rectangle_197_9_" x="1910.1" y="-674.2" class="st6" width="297.6" height="540.8"/>
			<path id="Path_65_9_" class="st6" d="M1976.7-774.1c-25.6-23.9-66.9-21.1-67.4,12.1c-0.6,33.1,9.3,54.8,34.2,79.1
				c24.9,24.3,68.1,18.6,68.3-7.9C2011.9-717.3,2002.2-750.1,1976.7-774.1z"/>
			<rect id="Rectangle_200_9_" x="1910.1" y="-739.1" class="st6" width="63.2" height="605.7"/>
			<rect id="Rectangle_201_9_" x="1802.1" y="-402.7" class="st6" width="171.2" height="269.2"/>
			<rect id="Rectangle_202_9_" x="1654.1" y="-1135.7" class="st6" width="226.7" height="980.6"/>
			<path id="Path_66_9_" class="st6" d="M1769.5-1301.7l-96.7,108.3l-19.8,57.7h228.2l-24.8-73.5L1769.5-1301.7z"/>
			<rect id="Rectangle_203_9_" x="1450.5" y="-842.5" class="st6" width="186.6" height="713.8"/>
			<rect id="Rectangle_206_9_" x="1279.3" y="-914.6" class="st6" width="155.8" height="761.9"/>
			<rect id="Rectangle_207_9_" x="1009.5" y="-974.7" class="st6" width="104.9" height="670.6"/>
			<rect id="Rectangle_208_9_" x="1028" y="-1044.4" class="st6" width="64.8" height="670.6"/>
			<rect id="Rectangle_209_9_" x="994" y="-974.7" class="st6" width="134.2" height="60.1"/>
			<rect id="Rectangle_210_9_" x="1106.6" y="-390.6" class="st6" width="178.9" height="86.5"/>
			<rect id="Rectangle_211_9_" x="1140.5" y="-433.9" class="st6" width="67.9" height="86.5"/>
			<rect id="Rectangle_213_9_" x="921.5" y="-402.7" class="st6" width="27.8" height="110.6"/>
			<rect id="Rectangle_214_9_" x="824.4" y="-1044.4" class="st6" width="84.8" height="752.3"/>
			<rect id="Rectangle_215_9_" x="824.4" y="-1085.2" class="st6" width="77.1" height="752.3"/>
			<rect id="Rectangle_216_9_" x="832.1" y="-1114.1" class="st6" width="61.7" height="752.3"/>
			<rect id="Rectangle_217_9_" x="751.9" y="-998.7" class="st6" width="141.9" height="735.4"/>
			<rect id="Rectangle_218_9_" x="802.8" y="-1044.4" class="st6" width="114.1" height="55.3"/>
			<rect id="Rectangle_219_9_" x="1470.6" y="-866.5" class="st6" width="149.6" height="713.8"/>
			<path id="Path_67_9_" class="st6" d="M824.2-1086l-72.8,87.6l72.8,0.1V-1086z"/>
			<rect id="Rectangle_221_9_" x="517.5" y="-455.5" class="st6" width="80.2" height="274"/>
		</g>
	</g>
	<g id="Group_75_9_" transform="translate(6.051 0.164)" class="st5">
		<path id="Path_92_9_" class="st7" d="M1690.1-1211.4L1690.1-1211.4l11.1,77h38.6L1690.1-1211.4z"/>
		<path id="Path_93_9_" class="st7" d="M1800-1211.4l5.4,8.3l-66,68.7h-38.2l94.2-92.2L1800-1211.4z"/>
		<path id="Path_95_9_" class="st7" d="M1690.1-1211.4L1690.1-1211.4l52.5,22.3l19.9-109.5L1690.1-1211.4z"/>
		<path id="Path_90_9_" class="st7" d="M1974.1-792.1c-25.6-23.9-66.9-21.1-67.4,12.1c-0.6,33.1,9.3,54.8,34.2,79.1
			c24.9,24.3,68.1,18.6,68.3-7.9C2009.3-735.4,1999.7-768.2,1974.1-792.1z"/>
		<rect id="Rectangle_354_9_" x="1912.2" y="-509.6" class="st7" width="83.3" height="12"/>
		<rect id="Rectangle_355_9_" x="1912.2" y="-476" class="st7" width="83.3" height="16.8"/>
		<rect id="Rectangle_356_9_" x="1912.2" y="-430.3" class="st7" width="83.3" height="16.8"/>
		<rect id="Rectangle_357_9_" x="1912.2" y="-391.9" class="st7" width="83.3" height="16.8"/>
		<rect id="Rectangle_367_9_" x="1700.9" y="-1134.5" class="st7" width="38.6" height="925.3"/>
		<rect id="Rectangle_368_9_" x="1865.9" y="-1134.5" class="st7" width="9.3" height="925.3"/>
		<path id="Path_94_9_" class="st7" d="M1800-1211.4L1800-1211.4l66.2,102.4l9-25.5v-22.3l-23.9-72l-84.2-90.4L1800-1211.4z"/>
		<rect id="Rectangle_372_9_" x="1468" y="-884.6" class="st7" width="152.7" height="48.1"/>
		<rect id="Rectangle_373_9_" x="1449.5" y="-860.5" class="st7" width="177.4" height="50.5"/>
		<rect id="Rectangle_374_9_" x="1455.7" y="-795.6" class="st7" width="165" height="19.2"/>
		<rect id="Rectangle_375_9_" x="1455.7" y="-759.6" class="st7" width="165" height="19.2"/>
		<rect id="Rectangle_376_9_" x="1455.7" y="-723.5" class="st7" width="165" height="19.2"/>
		<rect id="Rectangle_377_9_" x="1455.7" y="-687.5" class="st7" width="165" height="19.2"/>
		<rect id="Rectangle_378_9_" x="1455.7" y="-651.4" class="st7" width="165" height="19.2"/>
		<rect id="Rectangle_379_9_" x="1455.7" y="-615.4" class="st7" width="165" height="19.2"/>
		<rect id="Rectangle_380_9_" x="1455.7" y="-579.3" class="st7" width="165" height="19.2"/>
		<rect id="Rectangle_381_9_" x="1455.7" y="-543.3" class="st7" width="165" height="19.2"/>
		<rect id="Rectangle_382_9_" x="1455.7" y="-507.2" class="st7" width="165" height="19.2"/>
		<rect id="Rectangle_383_9_" x="1455.7" y="-471.2" class="st7" width="165" height="19.2"/>
		<rect id="Rectangle_384_9_" x="1455.7" y="-435.1" class="st7" width="165" height="19.2"/>
		<rect id="Rectangle_385_9_" x="1455.7" y="-399.1" class="st7" width="165" height="19.2"/>
		<rect id="Rectangle_390_9_" x="1338.5" y="-930.2" class="st7" width="94.1" height="860.4"/>
		<rect id="Rectangle_397_9_" x="1150.3" y="-425.5" class="st7" width="30.8" height="72.1"/>
		<rect id="Rectangle_398_9_" x="1033.1" y="-1050.4" class="st7" width="52.4" height="36.1"/>
		<rect id="Rectangle_399_9_" x="1030" y="-954.3" class="st7" width="58.6" height="40.9"/>
		<rect id="Rectangle_400_9_" x="1076.3" y="-992.7" class="st7" width="12.3" height="74.5"/>
		<rect id="Rectangle_401_9_" x="1030" y="-992.7" class="st7" width="12.3" height="74.5"/>
		<rect id="Rectangle_402_9_" x="1042.4" y="-899" class="st7" width="33.9" height="16.8"/>
		<rect id="Rectangle_403_9_" x="1042.4" y="-867.8" class="st7" width="33.9" height="16.8"/>
		<rect id="Rectangle_404_9_" x="1006.9" y="-899" class="st7" width="15.5" height="16.8"/>
		<rect id="Rectangle_405_9_" x="1006.9" y="-867.8" class="st7" width="15.5" height="16.8"/>
		<rect id="Rectangle_406_9_" x="1096.3" y="-899" class="st7" width="15.5" height="16.8"/>
		<rect id="Rectangle_407_9_" x="1096.3" y="-867.8" class="st7" width="15.5" height="16.8"/>
		<rect id="Rectangle_408_9_" x="1042.4" y="-836.5" class="st7" width="33.9" height="16.8"/>
		<rect id="Rectangle_409_9_" x="1042.4" y="-805.3" class="st7" width="33.9" height="16.8"/>
		<rect id="Rectangle_410_9_" x="1006.9" y="-836.5" class="st7" width="15.5" height="16.8"/>
		<rect id="Rectangle_411_9_" x="1006.9" y="-805.3" class="st7" width="15.5" height="16.8"/>
		<rect id="Rectangle_412_9_" x="1096.3" y="-836.5" class="st7" width="15.5" height="16.8"/>
		<rect id="Rectangle_413_9_" x="1096.3" y="-805.3" class="st7" width="15.5" height="16.8"/>
		<rect id="Rectangle_414_9_" x="1042.4" y="-774" class="st7" width="33.9" height="16.8"/>
		<rect id="Rectangle_415_9_" x="1042.4" y="-742.8" class="st7" width="33.9" height="16.8"/>
		<rect id="Rectangle_416_9_" x="1006.9" y="-774" class="st7" width="15.5" height="16.8"/>
		<rect id="Rectangle_417_9_" x="1006.9" y="-742.8" class="st7" width="15.5" height="16.8"/>
		<rect id="Rectangle_418_9_" x="1096.3" y="-774" class="st7" width="15.5" height="16.8"/>
		<rect id="Rectangle_419_9_" x="1096.3" y="-742.8" class="st7" width="15.5" height="16.8"/>
		<rect id="Rectangle_420_9_" x="1042.4" y="-711.5" class="st7" width="33.9" height="16.8"/>
		<rect id="Rectangle_421_9_" x="1042.4" y="-680.3" class="st7" width="33.9" height="16.8"/>
		<rect id="Rectangle_422_9_" x="1006.9" y="-711.5" class="st7" width="15.5" height="16.8"/>
		<rect id="Rectangle_423_9_" x="1006.9" y="-680.3" class="st7" width="15.5" height="16.8"/>
		<rect id="Rectangle_424_9_" x="1096.3" y="-711.5" class="st7" width="15.5" height="16.8"/>
		<rect id="Rectangle_425_9_" x="1096.3" y="-680.3" class="st7" width="15.5" height="16.8"/>
		<rect id="Rectangle_426_9_" x="1006.9" y="-930.2" class="st7" width="15.5" height="16.8"/>
		<rect id="Rectangle_427_9_" x="1096.3" y="-930.2" class="st7" width="15.5" height="16.8"/>
		<rect id="Rectangle_428_9_" x="1042.4" y="-649" class="st7" width="33.9" height="16.8"/>
		<rect id="Rectangle_429_9_" x="1006.9" y="-649" class="st7" width="15.5" height="16.8"/>
		<rect id="Rectangle_430_9_" x="1096.3" y="-649" class="st7" width="15.5" height="16.8"/>
		<rect id="Rectangle_431_9_" x="1042.4" y="-617.8" class="st7" width="33.9" height="16.8"/>
		<rect id="Rectangle_432_9_" x="1042.4" y="-586.6" class="st7" width="33.9" height="16.8"/>
		<rect id="Rectangle_433_9_" x="1006.9" y="-617.8" class="st7" width="15.5" height="16.8"/>
		<rect id="Rectangle_434_9_" x="1006.9" y="-586.6" class="st7" width="15.5" height="16.8"/>
		<rect id="Rectangle_435_9_" x="1096.3" y="-617.8" class="st7" width="15.5" height="16.8"/>
		<rect id="Rectangle_436_9_" x="1096.3" y="-586.6" class="st7" width="15.5" height="16.8"/>
		<rect id="Rectangle_437_9_" x="1042.4" y="-555.3" class="st7" width="33.9" height="16.8"/>
		<rect id="Rectangle_438_9_" x="1006.9" y="-555.3" class="st7" width="15.5" height="16.8"/>
		<rect id="Rectangle_439_9_" x="1096.3" y="-555.3" class="st7" width="15.5" height="16.8"/>
		<rect id="Rectangle_440_9_" x="1042.4" y="-524.1" class="st7" width="33.9" height="16.8"/>
		<rect id="Rectangle_441_9_" x="1042.4" y="-492.8" class="st7" width="33.9" height="16.8"/>
		<rect id="Rectangle_442_9_" x="1006.9" y="-524.1" class="st7" width="15.5" height="16.8"/>
		<rect id="Rectangle_443_9_" x="1006.9" y="-492.8" class="st7" width="15.5" height="16.8"/>
		<rect id="Rectangle_444_9_" x="1096.3" y="-524.1" class="st7" width="15.5" height="16.8"/>
		<rect id="Rectangle_445_9_" x="1096.3" y="-492.8" class="st7" width="15.5" height="16.8"/>
		<rect id="Rectangle_446_9_" x="1042.4" y="-461.6" class="st7" width="33.9" height="16.8"/>
		<rect id="Rectangle_447_9_" x="1006.9" y="-461.6" class="st7" width="15.5" height="16.8"/>
		<rect id="Rectangle_448_9_" x="1096.3" y="-461.6" class="st7" width="15.5" height="16.8"/>
		<rect id="Rectangle_449_9_" x="1042.4" y="-430.3" class="st7" width="33.9" height="16.8"/>
		<rect id="Rectangle_450_9_" x="1042.4" y="-399.1" class="st7" width="33.9" height="16.8"/>
		<rect id="Rectangle_451_9_" x="1006.9" y="-430.3" class="st7" width="15.5" height="16.8"/>
		<rect id="Rectangle_452_9_" x="1006.9" y="-399.1" class="st7" width="15.5" height="16.8"/>
		<rect id="Rectangle_453_9_" x="1096.3" y="-430.3" class="st7" width="15.5" height="16.8"/>
		<rect id="Rectangle_454_9_" x="1096.3" y="-399.1" class="st7" width="15.5" height="16.8"/>
		<rect id="Rectangle_483_9_" x="820.8" y="-999.9" class="st7" width="83" height="16.8"/>
		<rect id="Rectangle_484_9_" x="820.8" y="-968.7" class="st7" width="83" height="16.8"/>
		<rect id="Rectangle_485_13_" x="820.8" y="-937.5" class="st7" width="83" height="16.8"/>
		<rect id="Rectangle_486_9_" x="820.8" y="-906.2" class="st7" width="83" height="16.8"/>
		<rect id="Rectangle_487_9_" x="820.8" y="-875" class="st7" width="83" height="16.8"/>
		<rect id="Rectangle_488_9_" x="820.8" y="-845.7" class="st7" width="83" height="16.8"/>
		<rect id="Rectangle_489_9_" x="820.8" y="-814.9" class="st7" width="83" height="16.8"/>
		<rect id="Rectangle_490_9_" x="820.8" y="-784" class="st7" width="83" height="16.8"/>
		<rect id="Rectangle_491_9_" x="820.8" y="-753.2" class="st7" width="83" height="16.8"/>
		<rect id="Rectangle_492_9_" x="820.8" y="-722.3" class="st7" width="83" height="16.8"/>
		<rect id="Rectangle_493_9_" x="820.8" y="-691.5" class="st7" width="83" height="16.8"/>
		<rect id="Rectangle_494_9_" x="820.8" y="-660.7" class="st7" width="83" height="16.8"/>
		<rect id="Rectangle_495_9_" x="820.8" y="-629.8" class="st7" width="83" height="16.8"/>
		<rect id="Rectangle_496_9_" x="820.8" y="-599" class="st7" width="83" height="16.8"/>
		<rect id="Rectangle_497_9_" x="820.8" y="-568.1" class="st7" width="83" height="16.8"/>
		<rect id="Rectangle_498_9_" x="820.8" y="-537.3" class="st7" width="83" height="16.8"/>
		<rect id="Rectangle_499_9_" x="820.8" y="-506.4" class="st7" width="83" height="16.8"/>
		<rect id="Rectangle_500_9_" x="820.8" y="-475.6" class="st7" width="83" height="16.8"/>
		<rect id="Rectangle_501_9_" x="820.8" y="-444.8" class="st7" width="83" height="16.8"/>
		<rect id="Rectangle_502_9_" x="820.8" y="-413.9" class="st7" width="83" height="16.8"/>
		<path id="Path_96_9_" class="st7" d="M800.3-992.7l68-103.6l-91.1,103.6v752.3h23.1L800.3-992.7z"/>
	</g>
</g>
<path class="st8" d="M7330.4,915.1v-30.3h-15.1v30.3h-7.2v-40.4h-59.9v19.1h-7.2v-19.1h-15.8v19.1h-7.2v-92.1h-34.2v50.5h-21.1v13.5
	h-44.8V548.1l0.2,0l-31.1-40.9v19.4h-0.1v-19.1h-3.3V494h-26.3v13.5h-3.3v19.1h-3.3h-3.3v25.8h3.3v155.8
	c-11.5-7.5-26-13.8-42.8-19.2V587.2h6.6v-28.1h-6.6h-7.9v-32.6h-27.7v32.6h-9.2h-5.9v28.1h5.9v90.1c-22.2-4.7-46.1-8.6-70.5-12
	v-78.1h-66.5v69.6c-2.2-0.3-4.4-0.5-6.6-0.8v-35.1h-8.6v-11.2h-63.9v11.2h-7.2v24.5c-2.4-0.3-4.8-0.5-7.2-0.8V483.9h0.5l-8.5-27
	l-41.3-50.6l-37.1,43.2l-10.6,34.3h0.2v160.3c-7.2,0.5-14.5,1-22,1.7c-2.9-0.6-6.1-0.3-9.3,0.8c-6.8,0.7-13.8,1.4-20.8,2.2V570
	c0-0.3,0-0.6,0-0.9c0-0.3,0-0.5,0-0.7v-2.5h-0.3c-2.3-12.7-19.4-12-30.6-0.6c-12,12.3-16.8,28.5-17,41.3c0,0.3,0,0.6,0,0.9h-0.2V655
	c-0.5,0.1-0.9,0.1-1.4,0.2c-5.4-3.2-13.6-2.1-20.3,3.1c-13.9,2.2-28,4.5-42.2,7v-50H6460v-24l0.1-0.1v-22.6l-19.4-36.6h-14.4
	l-12.4,25v24.7h-17.8v98.1c-3.8,0.8-7.5,1.5-11.3,2.3v-8.3h-131v36.5c-8.6,1.9-17.2,3.8-25.7,5.7v-56c0-0.5,0-0.9,0-1.4
	c0-20.5-7.3-38-17.8-45.4v-20.5c0-8.1-3-15-7.3-17.7v-17.9h-8.7v18.7c-3.6,3.1-6.1,9.5-6.1,16.8v20.7c-10.2,7.6-17.3,25-17.2,45.1
	c0,0.1,0,0.3,0,0.4h-0.1v69.6c-24.1,5.3-47.5,10.2-69.7,14.7l-34.4-28.7v-36.1h-0.2H6056h-0.2v36.1l-55.1,46
	c-9.9,1.2-19.2,2.2-28,2.9l-4.3-11.3h-16.7v-93.1h0c0-0.1,0-0.3,0-0.4c0.1-20.2-7-37.6-17.2-45.1v-20.7c0-7.4-2.5-13.8-6.1-16.8
	v-18.7h-8.7v17.9c-4.2,2.6-7.3,9.5-7.3,17.7v20.5c-10.4,7.4-17.8,24.9-17.8,45.4c0,0.3,0,0.7,0,1V752h-13.9v3.8
	c-9.3-1.3-19.1-2.3-29.1-3.1V553.6h0L5813,388.4l-63.1-20.2l-30.8,155.1l0.2,0v30.3v28.1v170.1c-29.6,1.5-60.3,3.9-91.5,7.1V589
	l-6.8-2.2v-21.6l-0.1,0l-22-80.6l-64.7-29.9l0,0l0,0l-0.2-0.1l0.1,0.4l-26.9,87.2h42.8l0,0l0.1,0h-42.7v22.5h-7.9v210.8
	c-6.8,1.1-13.6,2.2-20.4,3.3v-96.2h-7.9v-16.8h-9.9v-15.7h-37.5v15.7h-11.9v16.8h-9.9v110.1c-10.9,2.1-21.7,4.3-32.3,6.5v-47h-8.6
	v-28.1h-43.5v28.1v58.5c-24.5,5.7-47.7,11.6-69.2,17.5c-62.6,17.1-137.6,20-213.8,14.9V740.5h-150.3v83.6
	c-5.9-1.1-11.8-2.2-17.7-3.3V710.4h-43v-30.2H4734V538v-53.9h-83.4V538h-16.4v172.4h-12.6v-30.2h-49.3V404.4h-18.9v-32.3h-22.7
	v-30.2h-72v30.2h-18.9v32.3h-15.2v428.8h-39.2v-655h-15.2v-43.1h-82l0.2-0.1l0,0.1h82.1l-51.6-167.3l0.1-0.8l-0.3,0.2l0-0.1l0,0.1
	l-124.2,57.3l-42.3,154.7l-0.1,0v41.4l-13,4.1v332.7h-115v159.4h-16.4v-58.2h-27.8v58.2h-16.4v-10.8V210.5v-53.9V98.6l0.3-0.1
	L3904.6-199l-121.1,38.8l-74,316.9h0v549.3h-15.2v-40.9h-40.8V537.4h-26.7V359.9c0-0.6,0-1.3,0-1.9c0-39.3-14.1-72.9-34.1-87.1
	v-39.3c0-15.6-5.8-28.8-13.9-33.9v-34.3h-16.6v35.9c-7,5.9-11.8,18.1-11.8,32.3v39.8c-19.6,14.5-33.2,47.9-32.9,86.6
	c0,0.3,0,0.5,0,0.8h-0.1v178.7h-32L3466,589l-148.2-123.7v-69.2h-0.4h-20.8h-0.4v69.2L3148,589l-19.5-51.6h-32V358.8h-0.1
	c0-0.3,0-0.5,0-0.8c0.2-38.7-13.3-72.1-32.9-86.6v-39.8c0-14.2-4.8-26.4-11.8-32.3v-35.9H3035v34.3c-8.1,5-13.9,18.3-13.9,33.9v39.3
	c-20,14.2-34.1,47.8-34.1,87.1c0,0.9,0,1.8,0,2.7v176.8h-26.7v168.6h-22.6V387.2h-251.4v318.9h-21.6V210.5h-34.1v-47.4l-23.9-47.9
	h-27.6l-37.2,70.3v43.3l0.3,0.3v46h-22.7v405.1H2498v-40.9h-15.2v40.9h-10.1V436.7h-0.2c0.1-23.7-7.8-53-28.7-74.4
	c-14.6-15-35.5-18.2-47-8.7v-93.5h-0.4c0-0.6,0.1-1.1,0.1-1.7c-0.4-24.6-9.6-55.5-32.7-79.2c-21.4-21.9-54.2-23.2-58.7,1.1h-0.5v4.8
	c0,0.5,0,0.9,0,1.4c0,0.6,0,1.1,0,1.7v192.9c-4.6-12.1-11.5-23.8-21.2-33.8c-20.9-21.5-54.8-18.9-55.2,10.8
	c-0.1,7.4,0.3,14.2,1.3,20.5h-0.6v301.6h-24V23.1h0.3l-20.3-65.9l-71.2-82.9l-79.2,97.1l-16.2,51.8h0.9v810.1h-13.9V285.9h-13.9
	v-21.5h-122.5v21.5h-16.4v596.8h0V755.6h-12.6V221.3h-127.6V691h-58.1v-38.8h-55.6V691h-21.5V221.3h11.4v-53.9h-11.4h-17.7v-62.5
	h-53.1v62.5h-15.2h-12.6v53.9h12.6v534.3h-32.8v-38.8H1442v-36.6h-22.7v36.6h-10.1V154.5h6.3v-49.6h-6.3h-6.3V68.3h-6.3V42.5H1346
	v25.9h-6.3v36.6h-0.2V67.6l-59.6,78.6l0.4,0v609.4H1248v-98.4c-3-9.2-7.8-16.6-13.5-20.9v-20.7c0-7.4-2.5-13.8-6.1-16.8v-18.7h-8.7
	v17.9c-4.2,2.6-7.3,9.5-7.3,17.7v20.5c-10.4,7.4-17.8,24.9-17.8,45.4c0,0.3,0,0.7,0,1V775h-13.9v3.8c-9.3-1.3-19.1-2.3-29.1-3.1
	V576.6h0L1113,411.4l-63.1-20.2l-30.8,155.1l0.2,0v30.3v28.1v170.1c-29.6,1.5-60.3,3.9-91.5,7.1V612l-6.8-2.2v-21.6l-0.1,0l-22-80.6
	l-64.7-29.9l0,0l0,0l-0.2-0.1l0.1,0.4l-26.9,87.2h42.8l0,0l0.1,0h-42.7v22.5h-7.9v210.8c-6.8,1.1-13.6,2.2-20.4,3.3v-96.2H771v-16.8
	h-9.9v-15.7h-37.5v15.7h-11.9v16.8h-9.9v110.1c-10.9,2.1-21.7,4.3-32.3,6.5v-47h-8.6v-28.1h-43.5v28.1v58.5
	c-24.5,5.7-47.7,11.6-69.2,17.5c-9.2,2.5-18.7,4.7-28.4,6.6V856h-723.5c-2.5,0.5-5,1-7.5,1.5v247h728v1h729v66h3841.6V988.3h-50.5
	v-53.5l122.4,2.6V987h-26.3v95.5h26.3h2081.9h14.5V987h-14.5v-51.7h73.8h15.1h50.7v-20.2H7330.4z"/>
<g>
	<path id="Path_5_5_" class="st6" d="M1811.6,703.4l17.3-14.4l9.4,376.7l-19.5-7.5L1811.6,703.4z"/>
	<path id="Path_6_5_" class="st6" d="M1806.8,703.3l-17.3-11.9l-11.4,374.3l17.3-6.8L1806.8,703.3z"/>
	<path id="Path_5_4_" class="st6" d="M1683.2,703.4l17.3-14.4l9.4,376.7l-19.5-7.5L1683.2,703.4z"/>
	<path id="Path_6_4_" class="st6" d="M1678.3,703.3l-17.3-11.9l-11.4,374.3l17.3-6.8L1678.3,703.3z"/>
	<path id="Path_5_3_" class="st6" d="M1570.7,718.5l17.3-14.4l9.4,376.7l-19.5-7.5L1570.7,718.5z"/>
	<path id="Path_6_3_" class="st6" d="M1565.8,718.4l-17.3-11.9l-11.4,374.3l17.3-6.8L1565.8,718.4z"/>
	<g>
		<g>
			<path id="Path_5_40_" class="st6" d="M1347.5,750.1l17.3-13l9.4,340.9l-19.5-6.8L1347.5,750.1z"/>
			<path id="Path_6_40_" class="st6" d="M1342.6,750l-17.3-10.7L1314,1078l17.3-6.1L1342.6,750z"/>
			<path id="Path_5_39_" class="st6" d="M1184.7,802.5l19.9-11.4l10.8,299.2l-22.5-5.9L1184.7,802.5z"/>
			<path id="Path_6_39_" class="st6" d="M1179.1,802.4l-19.9-9.4l-13.1,297.3l19.9-5.4L1179.1,802.4z"/>
			<path id="Path_5_38_" class="st6" d="M848,897.2l19.8-7.2l10.7,189.1l-22.3-3.8L848,897.2z"/>
			<path id="Path_6_38_" class="st6" d="M837.2,867.4l-20.8-7l-13.6,219.7l20.8-4L837.2,867.4z"/>
			<path id="Path_5_37_" class="st6" d="M1017.5,876.3l19.4-8.2l10.5,214.5l-21.8-4.3L1017.5,876.3z"/>
			<path id="Path_6_37_" class="st6" d="M992.6,846.9l-17.8-7.9l-11.7,247.8l17.8-4.5L992.6,846.9z"/>
		</g>
	</g>
	<path id="Path_5_1_" class="st6" d="M1491.4,719.3l9.4,352.2l-19.5-6.8l-7.2-332.4"/>
	<path id="Path_6_1_" class="st6" d="M1451.9,732.8l-11.4,338.7l17.3-6.1l11.4-328.4"/>
</g>
<g>
	<path class="st6" d="M1215.5,739.3c-27.4,18.6-54.9,48.5-240.5,80.1c-115.9,19.7-331,44.6-468.4,44.6c-191,0-338.7-6.5-522.4-7.9
		c-20.3,32.3-13.9,156.5-34.2,188.8c182.6,50.4,614-45.7,883.6-82.4c314.4-42.8,434.2-100.3,547.6-170.6
		c124-76.8,593.6-43.4,593.6-43.4l-30.6-73.4c0,0-344.1-2.4-436,0C1428.5,677.2,1291.2,688,1215.5,739.3z"/>
</g>
<linearGradient id="SVGID_1_" gradientUnits="userSpaceOnUse" x1="116.9316" y1="845.0854" x2="1953.2241" y2="845.0854">
	<stop  offset="0" style="stop-color:#224B80"/>
	<stop  offset="7.621223e-02" style="stop-color:#365383"/>
	<stop  offset="0.415" style="stop-color:#8A7490"/>
	<stop  offset="0.6923" style="stop-color:#C88D9A"/>
	<stop  offset="0.8942" style="stop-color:#EE9CA0"/>
	<stop  offset="1" style="stop-color:#FDA2A2"/>
</linearGradient>
<path class="st18" d="M139.2,890.4c0,0,352.5,0,479.2-7.9c224.3-14.1,448.2-58.1,518.8-77.7c73-20.2,137.8-82.6,201.8-94.8
	c58.2-11.1,148.6-22.6,303.5-22.6c118,0,290-0.7,290-0.7l20.7,33.7c-133.3-4.1-408.9-4.9-508.9,20.8
	c-55.5,14.3-131.1,52.5-161.2,71.5C1161.5,889.8,948,918.3,843.5,931.3c-104.5,13-586.4,72.8-677.3,72.2
	C74.3,1002.9,139.2,890.4,139.2,890.4z"/>
<g>
	<g>
		<path class="st23" d="M1010.4,867.2c-0.2,0.4-0.3,0.8-0.3,1.3c-0.6,3.7,1.6,7.2,5,7.8c1.7,0.3,3.4-0.2,4.8-1.3L1010.4,867.2z"/>
		
			<ellipse transform="matrix(0.1697 -0.9855 0.9855 0.1697 -5.6555 1773.1841)" class="st23" cx="1049.5" cy="889.9" rx="7" ry="6.8"/>
		
			<ellipse transform="matrix(0.1697 -0.9855 0.9855 0.1697 68.4798 1813.3556)" class="st23" cx="1110.4" cy="866" rx="6.8" ry="6.2"/>
		<path class="st23" d="M1095,842.1l-44.6,15l-21.4-18.2c0,0-3.7-1.7,2.1-3.7c5.8-2,42.3-13.1,42.3-13.1s6.2,4.5,10.1,4.3l8.3-2.6
			l31.6,26.5l-13.4,5.8C1109.8,856,1102.6,858.1,1095,842.1z"/>
		<path class="st23" d="M1122.5,850c0,0,8,7.8-5.2,12.8c0,0-2.3-7.6-8.7-4.2c0,0-3.4,1.5-8.8,10.8l-43.9,16.2c0,0-2.1-7-9-2.8
			s-6.2,7.2-6.2,7.2l1.1-13.4l8.8-20.7l44.2-15.5l12.1,13.1L1122.5,850z"/>
		<path class="st23" d="M1026.4,837.8l-13.6,15.5c-0.7,0.7-0.5,1.9,0.3,2.5l28.2,20.6c0.9,0.6,2.2,0.3,2.6-0.7l7.5-19.4
			c0.3-0.7,0.1-1.4-0.5-1.9l-20.5-17.1c-0.4-0.3-1-0.5-1.5-0.3l-1.6,0.4C1027,837.3,1026.7,837.5,1026.4,837.8z"/>
		<path class="st24" d="M1102.5,854.1c0,0-6.7-6.6-9.5-11.3l-12.1,4.1c0,0,0.5,13.9,2,14.6C1084.3,862.1,1102.5,854.1,1102.5,854.1z
			"/>
		<path class="st24" d="M1080,862.2c0,0-1-12-3.5-14l-11.9,4.2c0,0-2.2,14.7-1.1,15.6C1064.6,868.8,1080,862.2,1080,862.2z"/>
		<polygon class="st24" points="1050.4,857.1 1041.6,877.5 1013.6,855.9 1028.3,837.5 		"/>
		<path class="st24" d="M1060.8,869.8c0,0,3.1-15.1-1.7-15.9l-4.1,1.6c0,0-2,0-4.1,17.2L1060.8,869.8z"/>
		<path class="st23" d="M1042.3,877l-28.5-22c0,0-3.5-1.5-3.3,10.8l29,24.1C1039.5,889.8,1041.7,891.5,1042.3,877z"/>
		<path class="st24" d="M1077.4,825.1c0,0,3.7,1.6,6.5,2.2l23,23.3l-3,1.8l-8.6-9.2L1077.4,825.1z"/>
	</g>
</g>
<g>
	<g>
		<path class="st26" d="M1277.6,763.2c-0.1,0.4-0.2,0.8-0.2,1.2c-0.3,3.4,2,6.3,5.1,6.5c1.6,0.1,3-0.5,4.1-1.5L1277.6,763.2z"/>
		
			<ellipse transform="matrix(8.208893e-02 -0.9966 0.9966 8.208893e-02 428.7165 2026.2031)" class="st26" cx="1314.3" cy="780.4" rx="6.3" ry="6.1"/>
		
			<ellipse transform="matrix(8.208893e-02 -0.9966 0.9966 8.208893e-02 502.9556 2054.4902)" class="st26" cx="1366.8" cy="754.2" rx="6.1" ry="5.6"/>
		<path class="st26" d="M1351.2,734.1l-38.6,16.9l-20.6-14.5c0,0-3.5-1.3,1.5-3.5c5-2.2,36.7-15,36.7-15s5.9,3.6,9.4,3l7.2-3
			l30.3,21.1l-11.5,6.2C1365.5,745.3,1359.2,747.8,1351.2,734.1z"/>
		<path class="st26" d="M1376.4,738.9c0,0,7.8,6.3-3.6,11.8c0,0-2.7-6.6-8.1-3c0,0-2.9,1.6-7,10.3l-37.9,17.9c0,0-2.4-6.1-8.2-1.8
			c-5.8,4.3-5,6.9-5,6.9l-0.1-12.1l6.3-19.2l38.3-17.4l11.8,10.7L1376.4,738.9z"/>
		<path class="st26" d="M1289.6,735.6l-10.9,15c-0.5,0.7-0.3,1.7,0.4,2.2l26.8,16.1c0.8,0.5,1.9,0.1,2.2-0.9l5.2-17.9
			c0.2-0.6-0.1-1.3-0.6-1.7l-19.6-13.7c-0.4-0.3-0.9-0.3-1.3-0.2l-1.4,0.5C1290.1,735.2,1289.8,735.4,1289.6,735.6z"/>
		<path class="st7" d="M1358.8,744.2c0,0-6.5-5.3-9.3-9.4l-10.5,4.6c0,0,1.6,12.3,2.9,12.9S1358.8,744.2,1358.8,744.2z"/>
		<path class="st7" d="M1339.4,753.2c0,0-1.8-10.6-4.2-12.2l-10.3,4.7c0,0-0.8,13.3,0.2,14S1339.4,753.2,1339.4,753.2z"/>
		<polygon class="st7" points="1312.6,751 1306.3,769.9 1279.6,752.8 1291.3,735.2 		"/>
		<path class="st7" d="M1322.9,761.5c0,0,1.5-13.7-2.8-14l-3.6,1.7c0,0-1.8,0.1-2.3,15.6L1322.9,761.5z"/>
		<path class="st26" d="M1306.9,769.3l-27.2-17.4c0,0-3.3-1-2.1,9.9l27.8,19.2C1305.4,781,1307.5,782.4,1306.9,769.3z"/>
		<path class="st7" d="M1334.1,720.3c0,0,3.5,1.1,6,1.5l22.4,18.9l-2.5,1.8l-8.4-7.5L1334.1,720.3z"/>
	</g>
</g>
<g>
	<g>
		<path class="st23" d="M1525.1,695.3c-0.2,0.3-0.4,0.5-0.5,0.9c-1.2,2.5-0.4,5.5,1.9,6.6c1.2,0.6,2.5,0.5,3.7,0.1L1525.1,695.3z"/>
		
			<ellipse transform="matrix(0.4366 -0.8996 0.8996 0.4366 224.8464 1798.4056)" class="st23" cx="1548.4" cy="719.7" rx="5.2" ry="5.1"/>
		
			<ellipse transform="matrix(0.4366 -0.8996 0.8996 0.4366 256.2655 1839.5449)" class="st23" cx="1596.9" cy="715.2" rx="5.1" ry="4.6"/>
		<path class="st23" d="M1590.9,694.8l-35,1.5l-11.6-17.5c0,0-2.3-2,2.2-2.3c4.5-0.2,33-0.6,33-0.6s3.5,4.5,6.4,5.1l6.4-0.2
			l17.1,25.5l-10.8,1.4C1598.6,707.8,1593,707.9,1590.9,694.8z"/>
		<path class="st23" d="M1608.9,706.2c0,0,4.1,7.2-6.4,8.1c0,0-0.1-5.9-5.4-4.8c0,0-2.8,0.4-8.5,5.9l-34.8,2.5c0,0-0.1-5.4-5.8-3.9
			c-5.8,1.6-5.9,3.9-5.9,3.9l3.5-9.4l10.6-13l34.9-2l5.9,11.9L1608.9,706.2z"/>
		<path class="st23" d="M1542.7,677.6l-13,8.3c-0.6,0.4-0.8,1.2-0.3,1.8l16,20.6c0.5,0.6,1.5,0.6,2,0l9.4-12.3c0.3-0.4,0.3-1,0-1.5
			l-11.1-16.5c-0.2-0.3-0.6-0.5-1-0.6l-1.2-0.1C1543.1,677.3,1542.9,677.4,1542.7,677.6z"/>
		<path class="st24" d="M1593.7,705c0,0-3.4-6.1-4.4-10.1l-9.5,0.4c0,0-2.5,10-1.6,10.9C1579,707,1593.7,705,1593.7,705z"/>
		<path class="st24" d="M1576,706.1c0,0,1.8-8.8,0.4-10.7l-9.4,0.6c0,0-4.6,10.1-4,10.9C1563.6,707.7,1576,706.1,1576,706.1z"/>
		<polygon class="st24" points="1555.9,696.4 1545.3,709.1 1529.8,687.9 1544.1,677.7 		"/>
		<path class="st24" d="M1560.7,707.6c0,0,5.3-10.2,2.1-11.7l-3.3,0.3c0,0-1.4-0.4-6.5,11.4L1560.7,707.6z"/>
		<path class="st23" d="M1545.9,708.9l-15.9-21.6c0,0-2.2-1.8-4.6,7l15.8,23.2C1541.3,717.5,1542.5,719.2,1545.9,708.9z"/>
		<path class="st24" d="M1581.7,679c0,0,2.4,1.9,4.2,3l11.7,21.4l-2.5,0.7l-4.2-8.4L1581.7,679z"/>
	</g>
</g>
<g>
	<g>
		<path class="st26" d="M704.2,898.6c-0.3,0.5-0.5,1-0.7,1.6c-1.6,4.6,0.5,9.5,4.7,10.9c2.1,0.7,4.4,0.4,6.3-0.7L704.2,898.6z"/>
		
			<ellipse transform="matrix(0.3237 -0.9462 0.9462 0.3237 -378.3752 1341.5)" class="st26" cx="749.2" cy="935.4" rx="9" ry="8.8"/>
		
			<ellipse transform="matrix(0.3237 -0.9462 0.9462 0.3237 -305.8333 1407.1094)" class="st26" cx="831.4" cy="917.5" rx="8.8" ry="8"/>
		<path class="st26" d="M816.7,884l-59.6,10l-23.5-27.4c0,0-4.4-3,3.4-4.3c7.7-1.4,56.3-8,56.3-8s7,7,12,7.5l11-1.6l34.7,40
			l-18.2,4.6C832.7,904.6,823.1,905.9,816.7,884z"/>
		<path class="st26" d="M850.1,899.6c0,0,8.6,11.5-9.2,15.2c0,0-1.4-10.1-10.2-7.1c0,0-4.6,1.3-13.3,11.9l-59,11.6
			c0,0-1.3-9.3-10.8-5.4c-9.6,3.9-9.3,7.9-9.3,7.9l4.1-16.8l15.4-24.4l59.3-10.7l12.7,19.1L850.1,899.6z"/>
		<path class="st26" d="M730.6,864.5l-20.5,17c-1,0.8-1,2.3-0.2,3.2l31.6,31.8c1,1,2.7,0.8,3.4-0.4l13.5-23c0.5-0.8,0.4-1.8-0.2-2.5
			l-22.5-25.9c-0.4-0.5-1.1-0.8-1.8-0.7l-2.2,0.2C731.4,864.1,730.9,864.3,730.6,864.5z"/>
		<path class="st7" d="M823.7,900.7c0,0-7.1-9.7-9.7-16.3l-16.2,2.7c0,0-2.2,17.7-0.5,18.9C799.1,907.2,823.7,900.7,823.7,900.7z"/>
		<path class="st7" d="M793.6,906.4c0,0,1.2-15.4-1.6-18.5l-16,3c0,0-5.8,18.2-4.6,19.5C772.7,911.7,793.6,906.4,793.6,906.4z"/>
		<polygon class="st7" points="757.1,893.9 741.7,918.1 710.7,884.9 733,864.5 		"/>
		<path class="st7" d="M767.7,912.2c0,0,7-18.5,1.1-20.5l-5.6,1.2c0,0-2.5-0.4-8.7,20.9L767.7,912.2z"/>
		<path class="st26" d="M742.7,917.5l-31.7-33.7c0,0-4.2-2.6-6.3,13l31.9,36.4C736.6,933.2,739,935.8,742.7,917.5z"/>
		<path class="st7" d="M797.8,858.8c0,0,4.4,2.8,7.9,4.2l24.5,34.2l-4.1,1.6l-9-13.4L797.8,858.8z"/>
	</g>
</g>
</svg>
