<?xml version="1.0" encoding="utf-8"?>
<!-- Generator: Adobe Illustrator 23.0.1, SVG Export Plug-In . SVG Version: 6.00 Build 0)  -->
<svg version="1.1" id="Layer_1" xmlns="http://www.w3.org/2000/svg" xmlns:xlink="http://www.w3.org/1999/xlink" x="0px" y="0px"
	 viewBox="0 0 1642.5 1000" style="enable-background:new 0 0 1642.5 1000;" xml:space="preserve">
<style type="text/css">
	.st0{fill:#EFF8FF;}
	.st1{opacity:8.400000e-02;fill:#566ECF;enable-background:new    ;}
	.st2{fill:#989898;}
	.st3{fill:#434171;}
	.st4{fill:#FC8863;}
	.st5{fill:#373463;}
	.st6{fill:#912323;}
	.st7{fill:#9B2E2E;}
	.st8{fill:#FFA236;}
	.st9{fill:#FFD394;}
	.st10{fill:#F1E0D3;}
	.st11{fill:#5ABAF8;}
	.st12{fill:#F2F2F2;}
	.st13{fill:#FFFFFF;}
	.st14{fill:#FFB884;}
	.st15{fill:#363362;}
	.st16{fill:#25294E;}
	.st17{fill:#224B80;}
	.st18{fill:#EC8C69;}
	.st19{fill:#EC6369;}
	.st20{fill:#EC7969;}
	.st21{fill:#7896A1;}
	.st22{fill:#005951;}
	.st23{fill:#0C2E5A;}
	.st24{fill:none;stroke:#000000;stroke-miterlimit:10;}
	.st25{fill:#FFC394;}
	.st26{fill:#844129;}
	.st27{fill:#6A72B6;}
	.st28{fill:#6A85B6;}
	.st29{fill:#7F5200;}
	.st30{fill:#7F3344;}
	.st31{fill:#007651;}
	.st32{fill:none;stroke:#E6E6E6;stroke-width:2;stroke-miterlimit:10;}
	.st33{fill:#7F4000;}
	.st34{fill:none;stroke:#754C24;stroke-miterlimit:10;}
	.st35{fill:#603813;}
	.st36{fill:#DDFFFD;}
	.st37{opacity:0.5;fill:none;stroke:#CCCCCC;stroke-width:2;stroke-miterlimit:10;enable-background:new    ;}
	.st38{fill:#FFFFFF;stroke:#E6E6E6;stroke-width:2;stroke-miterlimit:10;}
	.st39{fill:none;stroke:#844129;stroke-width:3;stroke-miterlimit:10;}
	.st40{fill:#AF4258;}
	.st41{fill:#782244;}
	.st42{fill:#E9FFFD;}
	.st43{clip-path:url(#SVGID_2_);}
	.st44{fill:none;stroke:#707070;}
	.st45{fill:#93A0C2;}
	.st46{fill:#5D80BC;}
	.st47{fill:#E65C5C;}
	.st48{font-family:'Montserrat-SemiBold';}
	.st49{font-size:29.2198px;}
</style>
<g id="_95RfKd.tif">
	<rect id="sky" x="0.7" y="-48.6" class="st0" width="1641.1" height="999.2"/>
</g>
<path id="路径_1819_2_" class="st1" d="M1919,1000.5V610.1h-6.9v17.8h-9.1v235.7h-23.6V503.5h-9.1v-23.7h-49.3l0.1,0l0,0h49.4
	l-31-92l0.1-0.4l-0.2,0.1l0,0l0,0l-74.7,31.5l-25.5,85l-0.1,0v22.7l-7.9,2.3v182.9H1662v87.7h-9.9v-32h-16.7v32h-9.9V459.7l0.2-0.1
	l-35.6-163.6l-72.9,21.4l-44.5,174.2h0v302h-9.1v-22.5H1439V701H1423v-97.6c0-0.3,0-0.7,0-1c0-21.6-8.5-40.1-20.5-47.9v-21.6
	c0-8.6-3.5-15.9-8.4-18.6v-18.9h-10v19.7c-4.2,3.2-7.1,10-7.1,17.8v21.9c-11.8,8-20,26.3-19.8,47.6c0,0.1,0,0.3,0,0.4h-0.1V701
	h-19.3l-11.7,28.4l-89.2-68v-38h-13v38.1l-89.2,68L1123,701h-19.3v-98.2h-0.1c0-0.1,0-0.3,0-0.4c0.1-21.3-8-39.6-19.8-47.6v-21.9
	c0-7.8-2.9-14.5-7.1-17.8v-19.7h-10v18.9c-4.9,2.8-8.4,10.1-8.4,18.6v21.6c-12,7.8-20.5,26.3-20.5,47.9c0,0.5,0,1,0,1.5V701h-16.1
	v92.7h-13.6V618.4H857v175.3h-13V521.2h-20.5v-26.1l-14.4-26.3h-16.6l-22.4,38.6v23.8l0.2,0.2v25.3h-13.7v222.7h-12.9V757h-9.1v22.5
	h-6.1V645.6h-0.1c0-13.1-4.7-29.2-17.3-40.9c-8.8-8.2-21.4-10-28.3-4.8v-51.4h-0.2c0-0.3,0-0.6,0-0.9c-0.5-16.5-7.6-32.2-19.7-43.5
	c-12.9-12-32.6-12.8-35.3,0.6h-0.3v2.6c0,0.3,0,0.5,0,0.8c0,0.3,0,0.6,0,0.9v106c-2.9-7-7.2-13.4-12.8-18.6
	c-12.6-11.8-33-10.4-33.2,5.9c-0.1,3.8,0.2,7.5,0.8,11.3h-0.4v165.8h-14.4V418.2h0.2l-12.2-36.2l-42.8-45.6l-47.7,53.4l-9.8,28.5
	h0.6v445.4h-8.4V562.7h-8.4v-11.8h-73.7v11.8h-9.9v328.1l0,0v-69.9h-7.6V527.2h-76.8v258.2h-35v-21.3h-33.4v21.3h-12.9V527.2h6.8
	v-29.6h-17.5v-34.4H147v34.4h-16.7v29.6h7.6v293.8h-19.8v-21.3h-9.9v-20.1H94.6v20.1h-6.1V490.4h3.8v-27.2h-7.6V443h-3.8v-14.2H50.5
	V443h-3.8v20.1h-0.1v-20.5l-35.9,43.2H11v335.1H-2.8l3.5,179.6H1919z"/>
<rect id="Rectangle_649" x="0.7" y="914" class="st2" width="1641.1" height="90.3"/>
<g id="Group_168">
	<path id="Path_1786" class="st3" d="M1012.2,854.2c0.3,8.3,3.2,11.2,3.7,15.6c0.5,4.5,1.6,15.3,2.3,19.8c0.8,4.5,0,9.8,0,13.7
		c0,3.9,0.9,22.6,1.6,26.5s-0.5,5.2,0,6s11.5,1.2,13,0s-1.4-2-3.4-2.9c-1.5-0.6-3.1-0.8-4.7-0.8v-3.3c0,0,1.3-1,1.2-1.3
		c-0.1-1.3,1.3-13.2,1.6-18c0.2-4.7,1.5-12,1.8-14.5s1-23.4,1.4-26.4c0.4-3,0-13.8,0-13.8L1012.2,854.2z"/>
	<path id="Path_1788" class="st4" d="M1018.6,859.8c1.7,0,3.1,1.4,3.1,3.1v0l0,0c0,0.6,1,2.8,0.6,3c-0.4,0.3-0.6-0.5-1.7-0.5
		c-0.6,0-1.8,1.1-2.6,0.9c-0.7-0.2-1.4-0.5-2-0.9c-0.2-0.2-0.3-0.4-0.4-1.1c-0.1-0.5-0.1-1,0-1.6
		C1015.6,861.1,1017,859.8,1018.6,859.8z"/>
	<path id="Path_1784" class="st5" d="M1019.6,792.4c3.2,0,5.4-0.1,7.2,2.5c1.6,2.3,2.7,7.2,2.6,10.3c-0.4,6.5,8.4,11.1,8.2,16.3
		s-9.3,6.3-13.1,4.9c-3.2-1.1-2.8-8.4-4.8-8.4c-2.8,0-4.1,2-6,0c-2.2-2.3-4-9-4-12.9C1009.5,798.1,1013.6,792.4,1019.6,792.4z"/>
	<path id="Path_1785" class="st4" d="M1022.3,795.3c3.3,0,4.9,2.4,4.9,6.4c0,0.4,1.8,1,1.6,1.8c-0.3,0.7-0.6,1.4-0.9,2.1
		c-0.3,1.1-0.6,2.2-1,3.2c-1,1.6-2.6,0.9-4.6,0.9c-3.3,0-5.9-3.2-5.9-7.2C1016.3,798.5,1019,795.3,1022.3,795.3z"/>
	<path id="Path_1780" class="st4" d="M1022.9,809.2c-0.8,1.8-1.5,3.6-2,5.5l-2.5-0.7l1.6-6.8L1022.9,809.2z"/>
	<path id="Path_1783" class="st5" d="M1016.4,794.1c2.5,0,5.4,6.8,5.4,11.6c0,4.7-2.9,5.6-5.4,5.6s-4.6-3.9-4.6-8.6
		S1013.9,794.1,1016.4,794.1z"/>
	<path id="Path_1781" class="st6" d="M1018.4,810.7c2,0,3.9,0.9,5.2,2.4c0,0,2.8,4.7,4.1,6.9c1.4,2.1,2.9,5.1,2.9,7.1
		c0,2-0.1,1.6-1.2,3.7c-1.2,2.1-1.7,1.9-1.6,3c0.1,1.1,2.5,14.6,3.1,15.9s1.5,2.1,1.3,4.5c-0.2,2.5-1.6,3.2-2.2,3.3
		s-17.8,1.9-17.8-4s1.8-14.1,1.6-19.8c-0.5-8-1-8-1-13.2c0-2.8,0.3-4.8,1.4-6.7C1015.1,811.9,1018.4,810.7,1018.4,810.7z"/>
	<path id="Path_1782" class="st5" d="M1018,799.1c0.8-0.2,1.6,4.4,2.7,2.6s2.8-3.7,3.7-4.1c1.4-0.6,2.6-0.6,2.6-1.5
		c0.1-0.9-1.1-3.3-4.5-3.7c-1.8-0.3-3.6-0.1-5.3,0.4L1018,799.1z"/>
	<path id="Path_1787" class="st7" d="M1020.4,816c2.1,2,2.7,2.8,3.2,8.2c0.5,5.5-1,15.6-1,15.6c0.4,1.4,0.6,2.9,0.7,4.4
		c0,0.4-0.2,0.5-0.2,1c0,2.3,0,5.3,0,7.5c0,4.7-0.1,4.8-0.4,5.4c-0.3,0.6-0.5,0.6-1.2,1.2c0,0.1,0.2,1.9,0,2.2
		c-0.6,0.8-1.8,0.9-3.1,0.8s-2.4,0.1-2.9-0.8c-0.1-0.2,0.8-1.6,0.6-1.9c-0.4-0.7-0.8-0.9-1.1-1.8c-0.2-0.9-0.7-5.2-0.7-5.2l1.6-8.1
		l0.6-5.6c0,0-0.7-7.2-0.6-9.1s-1.6-9.5-1.6-9.5s-0.4-2.8,0.9-4C1016.4,815.1,1018.3,814,1020.4,816z"/>
	<path id="Path_1789" class="st4" d="M1019.8,930c0,0,1.2-0.2,2.4-0.3c0.9-0.2,1.8-0.5,2.6-1v3.4c-0.9,0.1-1.8,0.2-2.6,0.5
		c-0.8,0.2-1.6,0.6-2.4,0.9V930z"/>
	<path id="Path_1790" d="M1026.3,932c1,0,1.9,0.4,2.9,0.4c1.2,0,2.5-0.7,3.5,0s0.9,2.2,0.9,2.7c0,1.3-3.3,1.6-7.1,1.6
		c-3.8,0-7-0.4-7-1.2c0.1-0.5,0.1-0.9,0.1-1.4c0-0.6,0.1-1.3,0.1-1.9c0.8,0.1,1.6,0.2,2.3,0.1C1023.5,932.3,1025.1,932,1026.3,932z"
		/>
</g>
<g id="Group_166">
	<path id="Path_1793" class="st8" d="M923,798.1c5.7,0,10.8,6.9,9.6,12.3c-1.3,5.4,1.6,4.9,1.8,8s-0.4,3.4-0.9,4.3
		c-1.6,2.5-6.7-3.1-10.4-3.1c-2.3,0-8.8,5.4-11.5,5c-1.5-0.2,1.9-3.1-0.2-6.8c-2.1-3.6,1.4-6.7,1.4-8.9
		C912.6,803,917.2,798.2,923,798.1z"/>
	<path id="Path_1794" class="st9" d="M922.6,800.5c3.8,0,6.9,3.6,6.9,8.1s-3.1,9-6.9,9c-3.8,0-6.9-4.6-6.9-9
		S918.9,800.5,922.6,800.5z"/>
	<path id="Path_1791" class="st8" d="M923.5,800.2c0.7-0.1,2.6-3,2.6,2.7c0,5.7-3.2,10.2-10.3,12.9c-7.1,2.7-1.9-3.9-1.9-9.6
		S922.8,800.3,923.5,800.2z"/>
	<path id="Path_1792" class="st8" d="M922.8,799.8c-7.1,0-3.1-0.1-2.7,3c0.4,3.1,4.7,6.2,6.5,7.3c1.8,1.1,3.8,2.6,4.7,1.6
		c0.5-0.6,0.9-4.7,1-5.7C932.5,803.5,929.8,799.8,922.8,799.8z"/>
	<path id="Path_1801" class="st9" d="M910.3,863.8l10.4,0.5c0,0-0.9,21.8-1.6,33.3c-0.3,5.1-3.1,19.1-3.5,25.5c-0.4,7.8-1.8,8-1.8,8
		l-3.9,0.2l0.7-33.3L910.3,863.8z"/>
	<path id="Path_1802" class="st9" d="M922.8,864.2l10.4-0.4c0,0,0.4,22.9,0.6,34.4c0.1,5.2-2,18.6-1.8,24.9c0.2,7.8-1.7,7.8-1.7,7.8
		l-3.7,0.5l-0.5-31.4L922.8,864.2z"/>
	<path id="Rectangle_650" class="st9" d="M923.4,815.8L923.4,815.8c1.1,0,2,0.9,2,2c0,0,0,0,0,0v0.3c0,1.1-0.9,2-2,2l0,0
		c-1.1,0-2-0.9-2-2v-0.3C921.4,816.7,922.3,815.8,923.4,815.8L923.4,815.8z"/>
	<path id="Path_1795" class="st10" d="M921.5,818.1h3.4c2.2,0,6.1,2.5,7.8,3.7c2.5,1.8,1.9,3.1,1.9,6.5v31.9c0,5.6,2.6,22.6-3,22.6
		c-23.5,0-21.3-1.2-21.6-3.6c-0.2-2.4,0.6-16,0.6-19v-31.9c0-3.7,0-5.4,3-7.2C915.2,820.3,919.7,818.1,921.5,818.1z"/>
	<path id="Path_1796" class="st11" d="M918.3,818.8c0,0-2.4,0.8-3.5,1.2c-1.2,0.3-2.4,0.8-3.4,1.6c-1.3,1.1-1,2.3-2.3,4.3
		c-1.4,1.9-2.8,3.1-3.4,4.2c-0.8,1.6-1.3,4-2.2,5.1c-0.9,1.1,0.5,2.3,0.7,3.6c0.2,1.3,0.6,1.7,0.9,2.9c0.3,1.2,4,1.7,4.5,1.4
		c0.5-0.2,1-0.4,1.5-0.5c0,0-1.3,5.4-1.5,7.6c-0.2,2.2-0.2,4.4,0,6.6c0.1,0.7,0.2,1.5,0.4,2.2c0.2,0.9-0.8,1.8-0.6,2.3
		c0.4,0.8,7.4,0.9,8.4,0.6c1-0.3,0.8-22.4,0.8-23.8C918.7,836.6,918.3,818.8,918.3,818.8z"/>
	<path id="Path_1798" class="st11" d="M927.4,818.8c0,0,2.4,0.8,3.5,1.2c1.2,0.3,2.4,0.8,3.4,1.6c1.3,1.1,1.6,2.6,2.1,3.2
		c1.3,1.4,2.7,2.6,3.3,3.7c0.8,1.6,1.7,5.6,2.6,6.7c0.9,1.1-0.5,2.3-0.7,3.6s0.3,2,0,3.2s-4.9,1.4-5.4,1.1c-0.5-0.2-1-0.4-1.5-0.5
		c0,0,1.3,5.4,1.5,7.6c0.2,2.2,0.2,4.4,0,6.6c0,0.7-0.2,1.3-0.5,2c-0.2,0.6,0.8,2.2,0.7,2.6c-0.4,0.8-7.4,0.8-8.4,0.5
		c-1-0.3-0.8-22.4-0.8-23.8C927,836.6,927.4,818.8,927.4,818.8z"/>
	<path id="Path_1800" class="st12" d="M909.9,821.2l12.7,0.8l12.6-0.8v26.5h-12.6c-4.3-0.1-8.5-0.5-12.7-1.4V821.2z"/>
	<path id="Path_1797" class="st9" d="M911.1,835.5c0.4,0.1,0.7,0.2,1,0.4c0.4,0.4,0.7,0.8,1,1.2c0.1,0.2,0.2,0.1,0.5,0.3
		c0.2,0.3,0.3,0.5,0.4,0.8c0.1,0.3,0.2,0.6-0.4,1.1s-3.2,2-4.8,1.6c-1.6-0.4-1.9-1.5-1.5-3.1c0.7-1.5,1.7-2.7,2.9-3.8
		C910.7,834,910.4,835.4,911.1,835.5z"/>
	<path id="Path_1799" class="st9" d="M934.6,835.5c-0.4,0.1-0.7,0.2-1,0.4c-0.4,0.4-0.7,0.8-1,1.2c-0.1,0.2-0.2,0.1-0.5,0.3
		c-0.2,0.3-0.3,0.5-0.4,0.8c-0.1,0.3-0.2,0.6,0.4,1.1c0.6,0.5,3.2,2,4.8,1.6c1.6-0.4,1.9-1.5,1.5-3.1c-0.7-1.5-1.7-2.7-2.9-3.7
		C935,834,935.3,835.4,934.6,835.5z"/>
	<path id="Path_1803" class="st13" d="M912,929c1.9,0,2.9,0.1,2.9,1.6c0,1.5,1.2,2.1,0.6,3.2c-0.7,1-2.2,1-3.2,1
		c-1.3,0-2.7-0.4-3-0.8c-0.6-0.8,0.4-2.2,0.4-2.9C909.6,929.5,910.1,929,912,929z"/>
	<path id="Path_1804" class="st13" d="M929,928.7c1.9,0.1,2.9,0.3,2.8,1.7c-0.1,1.5,1.1,2.2,0.3,3.2c-0.7,1-2.3,0.8-3.3,0.8
		c-1.3-0.1-2.7-0.6-3-1.1c-0.5-0.8,0.5-2.2,0.6-2.8C926.6,929,927.1,928.5,929,928.7z"/>
</g>
<g id="Group_167">
	<rect id="Rectangle_651" x="449.2" y="801.9" class="st14" width="5.3" height="14.1"/>
	<path id="Path_1817" class="st14" d="M476,847.9c1.2,0,4.2,1.3,4.8,2.3c0.3,0.5-1.5,0.4-1.5,1.1c0,0.3,1.6,1.1,1.5,1.5
		c-0.2,0.8-0.9,2.9-2.1,3.3c-0.8,0.2-3-1.1-3-1.1s-3.1-1.8-3.1-3.7C472.6,849.5,474.1,847.9,476,847.9z"/>
	<path id="Path_1814" class="st3" d="M445,866c3.4,7.6,7.2,9.2,9.3,13.1c2.1,4,7.2,13.6,9.6,17.5c2.4,3.9,3.7,9.1,5.1,12.7
		c1.4,3.6,9.3,20.6,11.3,23.9s1.4,5,2.3,5.6c0.8,0.6,11.1-3.2,12.1-4.9c0.9-1.7-2-1.3-4.2-1.4c-1.6,0-3.2,0.4-4.6,1l-1.2-3.1
		c0,0,0.8-1.4,0.7-1.6c-0.6-1.2-3.7-12.7-5.3-17.2c-1.6-4.5-3.1-11.7-3.8-14.1c-0.6-2.4-7.8-22.1-8.6-25s-5.2-12.7-5.2-12.7L445,866
		z"/>
	<path id="Path_1815" class="st3" d="M438.9,855.8c-2.6,7.9-0.8,11.6-1.9,16c-1.1,4.4-3.8,14.9-4.6,19.4c-0.8,4.5-3.4,9.2-4.7,12.8
		c-1.3,3.6-6.8,21.6-7.6,25.4c-0.8,3.8-2.3,4.7-2.1,5.6c0.2,1,10.4,5.1,12.2,4.5c1.8-0.6-0.6-2.3-2.2-3.9c-1.2-1-2.6-1.8-4.1-2.3
		l1.1-3.1c0,0,1.5-0.5,1.6-0.8c0.4-1.2,5.8-12,7.6-16.3c1.8-4.4,5.5-10.8,6.6-13c1.1-2.2,9-21.6,10.4-24.3
		c1.4-2.7,4.7-12.9,4.7-12.9L438.9,855.8z"/>
	<path id="Path_1807" class="st13" d="M450.2,806.9l7.7,4c1.1,0.5,3,0.6,2.5,1.6l-5.7,8.6c-0.5,1.1-1.8,1.5-2.8,1c0,0,0,0,0,0l0,0
		l-6.8-3.1c-1.1-0.5-1.5-1.8-1-2.8l3-8.1C447.6,807.1,449,806.5,450.2,806.9z"/>
	<path id="Path_1805" class="st14" d="M457.2,790.3c3.6,1.3,4.8,7.9,3.5,11.9s-1.8,7-5.4,5.8c-3.6-1.2-9.2-6.7-7.6-11.4
		S453.6,789,457.2,790.3z"/>
	<path id="Path_1806" class="st15" d="M445.9,808.3c4.2-2.6,11.5,6.4,13.8,8.8s1.1,6.1,0.8,8.7c-0.3,2.6,2.1,28.2,3.2,35.2
		c0.1,0.6,0.8,1.6,0.6,2.1c-2.1,4.8-25.8,2.5-26.7,0.4c-1-2.1,4.7-32.9,5-36.7C442.9,822.9,441.7,810.9,445.9,808.3z"/>
	<path id="Path_1808" class="st16" d="M443.9,791.5c1.4-2.8,4-4.3,7.6-4.2c3.5,0.1,6.4,2.5,8.3,2.4c3.6-0.1,1.9-3.2,5.1-3.1
		s1.7,3.9,0.7,4.8c-0.9,1-3.1,2.5-7.2,3.2c-4.1,0.7-7.8,1.8-8.7,2.9c-1,1.1,0.1,7.7-0.6,7.6c-1.9-0.4-4-2.9-3.4-6.7
		C445.9,797.3,442.5,794.3,443.9,791.5z"/>
	<path id="Path_1810" class="st14" d="M448.8,797.5c0.9-0.3,1.5,0.9,1.5,2.1c0,1.3-0.6,2.3-1.3,2.3c-0.7,0-1-1-1-2.3
		C448,798.3,447.9,797.8,448.8,797.5z"/>
	<path id="Path_1809" class="st16" d="M449.4,796.3l2.5-0.4l0.7,8.2l-1.1,0.1c-0.6-0.9-1-1.9-1.3-3
		C450,799.6,449.7,797.9,449.4,796.3z"/>
	<path id="Path_1811" class="st16" d="M457.6,802c1.1,0,2.9,0.1,3.1,0.3c0.2,0.3-0.4,1.4-0.6,2.1c-0.4,1.2-0.4,3.4-0.9,3.9
		c-0.5,0.5-0.8,0.4-1.6,0.4c-1.2-0.1-2.3-0.5-3.3-1.2c-1.5-0.9-3.5-4.2-3.5-5.2C450.8,800.8,455.1,802,457.6,802z"/>
	<path id="Path_1812" class="st15" d="M450.8,815.9c6.6,6.3,9.3,15.7,12.5,18.7s9.4,11,12.5,12.6s-1.1,4.2-2.3,5.2
		c-1.2,1-9.3-6.4-11-7.6c-1.7-1.3-12.3-10.3-12.3-10.3L450.8,815.9z"/>
	<path id="Path_1813" class="st15" d="M448.4,825c-0.7,2-4,6.9-6.9,10.1c-1.6,1.7-5.1,3.1-5.1,3.1c-0.5,1.9-1.3,3.7-2.3,5.3
		c-1.1,1.9-4,4.3-5.5,6.3c-4,5.4-5,9.3-6.2,9.6c-1.2,0.3-4.6-4.5-4.6-4.5s9.1-16,11.2-19.9c2.1-3.9,11.1-14.9,11.9-17.3
		s5.4-8.6,5.4-8.6l5.3,5.7L448.4,825z"/>
	<path id="Path_1816" class="st14" d="M419.5,854.3c1.9,0,3.4,1.6,3.3,3.5c0,0,0,0,0,0c0,1.5-1.2,3.8-2.3,4.1
		c-0.2,0.1,0.1-1.6-0.4-1.6c-0.3,0-1.4,0.5-1.8,0.4c-1.6-0.2-2.2-1.3-2.2-3C416.1,855.9,417.6,854.3,419.5,854.3
		C419.5,854.3,419.5,854.3,419.5,854.3z"/>
</g>
<rect id="Rectangle_642" x="1105.5" y="688.3" class="st17" width="245.2" height="251.4"/>
<rect id="Rectangle_485" x="1120.6" y="734.8" class="st18" width="214.2" height="176.6"/>
<path id="Path_1539" class="st19" d="M1334.8,875v36.1h-214.2l-0.3-36.3h33.6l174.1,0.1L1334.8,875z"/>
<path id="Rectangle_485-2" class="st20" d="M1120.4,911.4l-0.1-176.6h30.3v139.9L1120.4,911.4z"/>
<g id="content">
	<rect id="Rectangle_624" x="1216.3" y="848.6" class="st21" width="1" height="46.4"/>
	<path id="Path_1264" class="st22" d="M1260.1,828.3l15.6,2.1c0,0,5.2,23.5,5.2,26.1c0,2.6,4.2,33.9,3.1,33.9
		c-1.1,0-7.8,0.5-8.9-0.5c-1-1-4.2-28.7-4.7-30.3c-0.5-1.6-3.1-15.6-3.1-14.6c0,0.8-2.6,17.7-2.6,19.3c0,1.6,0.5,24.5,0,25
		c-0.5,0.5-7.8,0.5-7.8-0.5c0-1-2.1-23-2.1-24.5c0-1.6,1-24.5,2.1-24.5C1258,839.8,1260.1,828.3,1260.1,828.3z"/>
	<path id="Path_1265" class="st9" d="M1266,786.1l-0.1,3.6l-3.1,0.5c0,0,0.5,5.7,3.1,5.7s2.6,0.5,4.7,0c2.1-0.5,5.2-4.7,5.2-4.7
		l-3.6-1.6v-4.2L1266,786.1z"/>
	<path id="Path_1266" class="st9" d="M1192.8,786c0,1.6-1,6.8,3.1,7.3c3.4,0.4,3.7-3,3.7-4.3c0-0.3,0-0.6,0-0.9
		c0.1-1.6,0.4-6.9-3.2-7.4C1192.1,780.3,1192.8,783.9,1192.8,786z"/>
	<path id="Path_1268" class="st9" d="M1204.3,805.9c-0.3-1.6,5.7-2.6,6.2-1.6s0.5,6.2,2.1,6.2c1.6-0.1,3.2,0.1,4.7,0.5
		c1.6,0.5,5.7,2.1,6.8,2.1s3.6,0.5,4.2,0s0-2.6,1-3.1c0.7-0.3,1.4-0.5,2.1-0.5c0,0,0.5-1.6,1.6-1s3.6,4.2,2.6,4.7
		c-1,0.5-3.6,3.1-5.7,3.1c-2.1,0-20.3,0-21.4-1S1204.7,808.4,1204.3,805.9z"/>
	<path id="Path_1269" class="st9" d="M1206.1,781.4l-1.8-3.1c0-0.2,0-0.5,0-0.6c0-1.6-2.1-5.7-4.2-5.7c0,0-6.2,3.6-6.2,7.8
		c0,4.2,1,6.8,6.2,7.8c3,0.6,3.9-2.3,4.2-5.2L1206.1,781.4z"/>
	<path id="Path_1270" class="st23" d="M1201.1,775.1c2.6-0.5,2.1,2.1,3.1,1.6c0.7-0.3,1.6-4.2,1.6-4.7s-0.5-2.1-3.1-1.6
		c-2.6,0.5-6.2-0.5-7.8-0.5s-2.1,1-2.6,2.1c-0.5,1,0,1.6-0.5,2.1c-0.7,0.8-1,1.1-1,2.6c0.1,1.2,0.2,2.5,0.5,3.6c0,0,1-1.6,1.6-1
		c0.5,0.5,0,3.6,0.5,4.2s4.6,4.7,6.8,4.7c2.1,0,2.8-1,3.6-2.1c0.8-1.1,1.1-2.3,1-3.6c0-0.5-4.7-1-5.2,0c-0.5,1,0,2.6-1,2.6
		c-2.1,0-3.7-1.6-3.7-2.1v-3.6c0-1,0.6-1.2,1.6-1.6c1.6-0.5,1-3.7,1-3.7S1199.5,775.4,1201.1,775.1z"/>
	<path id="Path_1271" class="st9" d="M1191.3,780.8c0,0.5,0,2.1,1,2.1c2.1,0,1-2.1,1-2.1s0-2.6-1-2.6S1191.3,780.2,1191.3,780.8z"/>
	<path id="Path_1272" class="st24" d="M1199.6,778.7c0.1-0.5,1-0.8,1.4-0.9c0.5-0.1,0.9-0.1,1.4-0.1"/>
	<ellipse id="Ellipse_17" cx="1201.1" cy="779.5" rx="0.5" ry="0.8"/>
	<path id="Path_1273" class="st25" d="M1179.2,801.7c-1,2.1-2.6,6.8-2.6,9.4c0,2.6,1.6,23.5,2.6,24c1.1,0.5,11.5,0.5,11.5,0
		s-2.6-2.1-3.6-2.1s-3.1,0.5-4.2,0c-1.1-0.5,0-18.8,0.5-20.3c0.5-1.6,2.1-8.9,1-9.9C1183.4,801.7,1179.2,801.7,1179.2,801.7z"/>
	<path id="Path_1274" class="st26" d="M1204.3,807.4c0.5-0.5,7.3-2.1,7.3-1.6c0,0.5,1,3.6,1,4.2c0,0.8-5.7,2.6-6.2,2.6
		S1203.3,808.4,1204.3,807.4z"/>
	<path id="Path_1275" class="st9" d="M1227.2,869.1c-0.1-1-1-3,1.8-2.4s2.8,0.6,3.1,2.1c0.3,1.5,0.1,3.2-1.6,3.5
		c-1.7,0.3-2.2,0.4-2.7-0.1C1227.2,871.7,1227.2,869.8,1227.2,869.1z"/>
	<path id="Path_1276" class="st27" d="M1185.5,826.7c-0.3-1.9,15.1-5.7,17.2-5.2c2.1,0.5,1.6,1.6,3.6,1.6c2.1,0,19.8,2.6,21.4,5.2
		c1.6,2.6,5.2,39.7,4.7,40.2c-1,1-4.5,0.6-5.7,0c-1-0.5-3.1-32.3-3.1-32.3l-21.4-5.2C1202.2,830.9,1186.1,830.9,1185.5,826.7z"/>
	<path id="Path_1277" class="st9" d="M1216.3,870.5c0.1-1-0.5-3.1,2.6-2.1s3.1,1,3.1,2.6s-0.5,3.1-2.6,3.1c-2.1,0-2.6,0-3.1-0.5
		C1215.8,873.1,1216.2,871.3,1216.3,870.5z"/>
	<path id="Path_1278" class="st28" d="M1185.5,826.7c-0.3-1.9,15.1-5.6,17.2-5.2c3.1,0.5,0,5.2,2.1,5.2s20.9,2.6,22.4,5.2
		c2.1,3.6-3.6,37.6-4.2,38.1c-1,1-6-0.4-7.3-1c-0.7-0.3,0.6-11.8,2.1-21.4c0.8-5.1,2.5-10.9,2.1-11.5c-1-1.6-24.1,1.1-30.8-0.5
		C1185,834.6,1186.1,830.9,1185.5,826.7z"/>
	<path id="Path_1279" class="st29" d="M1227.2,871.1c0.3-0.6,0.2,1,2.2,0.6c2-0.4,2.5-0.5,2.3-1.5c-0.2-1-0.7-0.9,0.3-1.1
		s2-0.4,2.2,0.6c0.3,1.3,1.6,2.2,3,2.1c1.5-0.3,4.6-0.3,5.7,0.5c1.2,0.8,2.3,2.5,1.6,2.9c-2.4,1-4.9,1.5-7.4,1.4
		c-2.1-0.1-9.1,0.7-9.8-0.2c-0.4-0.5-0.4-2-0.5-2.6C1226.6,872.9,1226.8,871.9,1227.2,871.1z"/>
	<path id="Path_1280" class="st29" d="M1215.8,872.1c0.5-0.6,0,1,2.1,1c2.1,0,2.6,0,2.6-1s-0.5-1,0.5-1c1,0,2.1,0,2.1,1
		c0.1,1.4,1.2,2.5,2.6,2.6c1.6,0,4.7,0.5,5.7,1.6s1.8,2.9,1.1,3.1c-2.6,0.5-5.2,0.5-7.8,0c-2.1-0.5-9.4-1-9.9-2.1
		c-0.3-0.6,0-2.1,0-2.6C1214.9,873.8,1215.2,872.9,1215.8,872.1z"/>
	
		<ellipse id="Ellipse_18" transform="matrix(0.866 -0.5 0.5 0.866 -232.5108 727.5724)" class="st26" cx="1241.4" cy="797.7" rx="1.9" ry="2.7"/>
	<path id="Path_1281" class="st9" d="M1262.2,780.3c0-2.6,2.6-9.9,6.8-9.4s7.8,6.2,6.8,9.9c-1,3.7-2.6,6.2-6.8,6.2
		C1265.3,787,1262.3,784,1262.2,780.3z"/>
	<path id="Path_1282" class="st30" d="M1266.5,774.2c0,0,6.9,2.7,7.6,5.2c0.9,3-2.1,5-2.6,6.2c-0.5,1.5-0.2,2.6,1.4,2.1
		c1.6-0.5,3.8-3.9,4.3-5.9s-0.5-7.3-2.1-8.9c-1.6-1.6-4.2-3.6-5.7-3.1c-1.6,0.5-0.4,0-2.1,0s-5.2,3.1-5.7,7.8
		c-0.5,4.7,0.5,9.4,3.1,9.9c2.6,0.5,2.3-1.9,1.2-2.4c-1-0.5-2.5-4.2-2.2-6.2C1263.9,777.8,1266.5,774.2,1266.5,774.2z"/>
	<path id="Path_1283" class="st13" d="M1265.8,795.9h5.2l-2.6,3.6L1265.8,795.9z"/>
	<path id="Path_1284" class="st31" d="M1263.7,790c-0.5,0.7,0.8,4,1.6,4.9c1.1,1.3,2.2,2.7,3.1,4.2c0,0,2.8-3.8,3.1-4.2
		c0.5-0.5,3.2-4.1,3.2-4.1l-0.6-0.3c0,0,1.1-0.9,1.6-0.4c0.5,0.4,1,0.8,1.6,1l-5.2,39.1l-12-1.6l1-38.6c0.7-0.3,1.4-0.5,2.1-0.5
		C1263.4,789.8,1263.6,789.9,1263.7,790z"/>
	<path id="Path_1285" class="st13" d="M1261.1,790.2c0,0-4.6,1.5-5.7,2.6c-1.1,1.1-7.3,61-6.2,61.6c1.1,0.5,12,2.1,12,1.6
		c1.3-10.6,2-21.2,2.1-31.8C1263.2,812.8,1262.4,801.5,1261.1,790.2z"/>
	<path id="Path_1286" class="st13" d="M1276.6,790.8c0,0,7,3.5,7,4.6c0,1-5.2,25-4.2,28.2s14.1,29.7,13,30.3
		c-1,0.5-15.3,2.8-16.2,2.1c-4.7-3.6-6.2-32.9-5.7-37.6C1271,813.7,1276.6,790.8,1276.6,790.8z"/>
	<path id="Path_1287" class="st13" d="M1255.4,792.8c-1,0.5-7.3,16.2-7.3,16.2c1.5,0.1,2.8,0.9,3.6,2.1c1,1.3,1.6,3,1.6,4.7
		c0,0.5,3.6-16.7,3.6-17.7c0.1-1.2-0.1-2.5-0.5-3.6C1256.2,793.8,1255.8,793.3,1255.4,792.8z"/>
	<path id="Path_1288" class="st9" d="M1283.6,814.2c1.1-0.5,4.2-0.5,4.2,1.1s-4.7,7.8-6.2,8.9c-2.3,1.6-8.3,5.7-8.3,6.8
		c0,1,1.1,2.6,0.5,3.6c-0.5,1-2.1,3.1-1.1,3.1c1,0,2.1-0.5,1.6,0.5s-1.6,1.6-3.1,1.6c-1.6,0-3.1,0-2.6-2.6c0.5-2.6,1-6.2,2.1-7.3
		c1-1.1,8.6-12.1,9.3-13.1C1280.5,815.7,1282.6,814.7,1283.6,814.2z"/>
	<path id="Path_1289" class="st13" d="M1283.6,795.4c1.6,0,7.3,19.8,6.3,20.3c-1,0.5-3.6-1.6-5.2-1.6s-3.7,2.5-4.5,2
		C1279.4,815.8,1282.5,795.4,1283.6,795.4z"/>
	<line id="Line_60" class="st32" x1="1253.3" y1="815.7" x2="1256.9" y2="800.1"/>
	<path id="Path_1290" class="st18" d="M1270.5,828.8c0.4-0.6,4.2,0,4.2,1c0,1-0.5,2.1-1,2.1c-0.5,0-4.2-0.5-4.2-1
		C1269.7,830.1,1270.1,829.4,1270.5,828.8z"/>
	<path id="Path_1291" class="st9" d="M1258.5,888.8c1.1-0.5,5.8-0.3,5.7,0c-0.1,0.3-0.3,3.4-1,4.2c-1,1-3.6,0-4.2-0.5
		C1258.5,891.9,1258.5,888.8,1258.5,888.8z"/>
	<path id="Path_1292" class="st9" d="M1276.8,889.3c0,0.4,0.2,3.5,1,4.2c1.6,1.1,4.2-0.4,4.2-1c0-1,0.5-3.1-0.5-3.1L1276.8,889.3z"
		/>
	<path id="Path_1293" class="st33" d="M1259.1,890.2c1,0.2,1,1.8,2.6,1.8s1.7-2,2.4-1.8s1.8,6.5,1.2,6.5c-0.5,0-16.2,0.5-16.7,0
		c-0.5-0.5,0.5-2.1,2.1-2.6s4.7-1,5.2-1.6C1256.5,892,1258.2,890,1259.1,890.2z"/>
	<path id="Path_1294" class="st9" d="M1253.5,815.8c0.5-1.8,0.1-3.8-1-5.2c-1.2-1.2-5.7-2.1-7.3-3.6c-1.3-1.3-5.2-4.7-4.7-5.7
		c0.5-1.1,1.1-0.5,1.7-0.9c0.4-0.3-1.8-1.2-2.3-2.7c-0.7-1.8,3.1-2.5-0.4-4.2c-0.9-0.5-4.7,0.5-4.7,2.1s1.6,5.2,2.6,6.2
		c1.1,1,6.8,11.5,8.3,12.5c1.6,1,4.7,4.2,6.2,3.1C1252.6,817,1253.2,816.4,1253.5,815.8z"/>
	<path id="Path_1295" class="st33" d="M1276.8,891.4c0.7-0.6,1.6-1,2.6-1c0.5,0,3.1,0.5,3.1,1.6c0,1.4,0.2,2.8,0.5,4.2
		c0.5,1.5,0,3.6-3.1,3.6c-3.1,0-3.7-0.1-4.2-2.1c-0.5-2,0.5-2.1,0.5-3.1C1276.3,893.6,1276.2,892,1276.8,891.4z"/>
	<path id="Path_1296" class="st34" d="M1267.6,778.3c-0.3-0.4-0.7-0.6-1.2-0.6c-0.5,0-1.3,0.3-1.3,0.6"/>
	<ellipse id="Ellipse_19" class="st35" cx="1266.5" cy="780.2" rx="0.5" ry="0.8"/>
	<ellipse id="Ellipse_20" class="st35" cx="1271.7" cy="780.2" rx="0.5" ry="0.8"/>
	<path id="Path_1297" class="st30" d="M1267.4,783.8c1.2,0,2.5-0.1,3.7-0.3c0.5-0.2-0.5,1.6-1.6,1.6S1266.8,783.7,1267.4,783.8z"/>
	<rect id="Rectangle_625" x="1177.7" y="843.4" class="st36" width="40.7" height="5.2"/>
	<rect id="Rectangle_626" x="1178.2" y="848.6" class="st21" width="1" height="46.4"/>
	<rect id="Rectangle_627" x="1211.6" y="848.6" class="st21" width="1" height="45.4"/>
	<rect id="Rectangle_628" x="1182.9" y="848.6" class="st21" width="1" height="45.4"/>
	<path id="Path_1298" class="st37" d="M1277.3,836.8c0-0.9,5.6-0.9,6.3-0.5c0.7,0.4,2,4.5,2,5.2c0,1.1-5.1,1.6-6.3,0.9
		C1278.5,842,1277.3,838.2,1277.3,836.8z"/>
	<path id="Path_1299" class="st38" d="M1277.3,834.5c-0.8,0.6-0.7,2.9,0.4,2.9s6.8-0.2,6.5-0.9c-0.4-0.7-0.7-2.5-1.3-2.5
		C1282.3,834,1278.4,833.7,1277.3,834.5z"/>
	<path id="Path_1300" class="st34" d="M1270.5,778.5c0.3-0.4,0.7-0.6,1.2-0.6c0.5,0,1.3,0.3,1.3,0.6"/>
	<path id="Path_1301" class="st39" d="M1212.4,809.7c0,0,1.9,1.6,2.3,2.9c0.3,0.8,3.4,6.5,6,7c2.6,0.5,6.8,4.2,9.9,4.2s7.3-0.5,11,0
		s7.8,3.6,7.8,6.2c0,2.6-1,5.7-3.6,5.7s-6.2-2.6-6.8-6.2c-0.6-3.6-0.5-6.2,1-7.8c1.6-1.6,4.7-3.7,4.7-6.2c0-2.1-0.5-3.6-2.6-4.7
		c-2.1-1-3.1-1.6-1.6-3.7c1.6-2.1,2.7-6.7,2.2-7.2"/>
	<line id="Line_61" class="st32" x1="1280.1" y1="816.3" x2="1279.1" y2="801.3"/>
	<path id="Path_1302" class="st40" d="M1265.8,772.6c0.1-0.8,2.3-2,3.7-1.3c1.3,0.7,4.7,8.1,4.7,8.1c-1.3-1.3-2.7-2.4-4.2-3.5
		c-1.2-0.7-4.1-1.2-4.1-1.9S1265.8,772.9,1265.8,772.6z"/>
	<path id="Path_1303" class="st41" d="M1183.3,790.5c2.2-0.7,3.9,4.3,2.3,8.5c-1.6,4.2-1.2,7.1-2,7.9c-0.5,0.5-2.6,0.7-3.6,0.7
		c-1.2,0-4-1.4-4-2.5c0-1.1,2.3-9.8,2.9-10.8C1180,792.6,1181.5,791.2,1183.3,790.5z"/>
	<path id="Path_1304" class="st30" d="M1195.9,788.6c2.1,0.1,10.9,2.6,12.5,6.2c1.1,2.8,2,5.7,2.7,8.6c0.3,1-0.2,0.6-1.3,0.8
		l-4.9,2.3c-1.2,0.2-1.4-0.6-1.6-1.7l-0.1-0.5l-1,5.2c-0.5,2.6-0.5,4.2,0,5.7c0.5,1.6,3,6.2,2.6,6.8c-3.4,4.9-15.2,6.3-19.3,6.2
		c-1,0-2.6-11.5-2.6-13c0-1.6-1.1-16-0.5-17.7c0.5-1.6-0.3-6.1,2.1-7.3C1186.5,789.2,1192.9,788.4,1195.9,788.6z"/>
	<path id="Rectangle_629" class="st42" d="M1177.3,835.6h41.5c0.9,0,1.7,0.7,1.7,1.7v5.5c0,0.9-0.7,1.7-1.7,1.7h-41.5
		c-0.9,0-1.7-0.7-1.7-1.7v-5.5C1175.6,836.3,1176.3,835.6,1177.3,835.6z"/>
</g>
<rect id="Rectangle_643" x="1105.3" y="893.2" class="st17" width="235.7" height="46.5"/>
<g>
	<defs>
		<rect id="SVGID_1_" x="1120.3" y="734.9" width="214.7" height="158.3"/>
	</defs>
	<clipPath id="SVGID_2_">
		<use xlink:href="#SVGID_1_"  style="overflow:visible;"/>
	</clipPath>
	<g class="st43">
		<g id="Mask_Group_1">
			<g id="Rectangle_644">
				<rect x="1120.5" y="735.1" class="st44" width="214.3" height="157.9"/>
			</g>
		</g>
	</g>
</g>
<path id="Rectangle_648" class="st45" d="M1110.7,635.3h235.2c3,0,5.4,2.4,5.4,5.4v51.4c0,3-2.4,5.4-5.4,5.4h-235.2
	c-3,0-5.4-2.4-5.4-5.4v-51.4C1105.2,637.7,1107.7,635.3,1110.7,635.3z"/>
<path id="Path_1818" class="st46" d="M1120.2,605.9l210.6,8.1l-4.4,74.5h-200L1120.2,605.9z"/>
<circle id="Ellipse_28" class="st47" cx="1225.7" cy="615.8" r="25"/>
<rect id="Rectangle_652" x="1209.1" y="611" class="st13" width="32.9" height="11"/>
<rect id="Rectangle_653" x="1220.1" y="599" class="st13" width="11.3" height="34"/>
<g id="CLINIC">
	<text transform="matrix(1 0 0 1 1171.8604 676.7715)" class="st13 st48 st49">CLINIC</text>
</g>
<rect id="Rectangle_654" x="1105.5" y="688.5" class="st45" width="245.9" height="9.2"/>
</svg>
