<?xml version="1.0" encoding="utf-8"?>
<!-- Generator: Adobe Illustrator 23.0.4, SVG Export Plug-In . SVG Version: 6.00 Build 0)  -->
<svg version="1.1" id="Layer_1" xmlns="http://www.w3.org/2000/svg" xmlns:xlink="http://www.w3.org/1999/xlink" x="0px" y="0px"
	 viewBox="0 0 1920 516.8" style="enable-background:new 0 0 1920 516.8;" xml:space="preserve">
<style type="text/css">
	.st0{clip-path:url(#SVGID_2_);}
	.st1{opacity:0.3;}
	.st2{fill:#224B80;}
	.st3{fill:#FF9696;}
	.st4{fill:#1F417A;}
	.st5{fill:#8FC0FF;}
	.st6{fill:#FDA2A2;}
	.st7{fill:#92B3D6;}
	.st8{clip-path:url(#SVGID_4_);}
	.st9{clip-path:url(#SVGID_6_);}
	.st10{fill:url(#SVGID_7_);}
	.st11{opacity:0.8;fill:#4497FF;enable-background:new    ;}
	.st12{fill:#FC6464;}
	.st13{fill:#25497A;}
	.st14{fill:#B7DFE6;}
</style>
<title>landing page to animate-v2 new color boat repositioned</title>
<g>
	<g>
		<defs>
			<rect id="SVGID_1_" y="-563.2" width="1919.1" height="1082.6"/>
		</defs>
		<clipPath id="SVGID_2_">
			<use xlink:href="#SVGID_1_"  style="overflow:visible;"/>
		</clipPath>
		<g id="background" class="st0">
			<g id="Group_80" class="st1">
				<g id="Group_74">
					<g id="Group_72">
						<rect id="Rectangle_167" x="1084.7" y="379.3" class="st2" width="64.6" height="106.1"/>
						<rect id="Rectangle_168" x="1156.8" y="368.8" class="st2" width="64.6" height="106.1"/>
						<rect id="Rectangle_169" x="1175.3" y="358.3" class="st2" width="64.6" height="106.1"/>
						<rect id="Rectangle_170" x="1213.8" y="308.7" class="st2" width="42.8" height="155.8"/>
						<rect id="Rectangle_171" x="1213.8" y="289.8" class="st2" width="35.8" height="174.6"/>
						<rect id="Rectangle_172" x="1262.1" y="358.3" class="st2" width="42.8" height="155.8"/>
						<rect id="Rectangle_173" x="1283.2" y="262" class="st2" width="63.5" height="202.4"/>
						<rect id="Rectangle_174" x="1291.3" y="250.7" class="st2" width="48.9" height="213.7"/>
						<rect id="Rectangle_175" x="1301.1" y="240.1" class="st2" width="31" height="224.2"/>
						<rect id="Rectangle_176" x="1363.5" y="182.9" class="st2" width="42.8" height="289.7"/>
						<path id="Path_53" class="st2" d="M1406.4,182.9l62.9,16.3v273.4h-62.9V182.9z"/>
						<path id="Path_54" class="st2" d="M1392.1,109.3l13.1,58.7H1370L1392.1,109.3z"/>
						<rect id="Rectangle_177" x="1370" y="167.9" class="st2" width="35.3" height="25.6"/>
						<path id="Path_55" class="st2" d="M1405.3,167.9l58.4,15.4v25.6l-58.4-15.4V167.9z"/>
						<path id="Path_56" class="st2" d="M1391.9,109.3l53.5,20.1l18.2,54l-58.6-15.5L1391.9,109.3z"/>
						<rect id="Rectangle_178" x="1469.3" y="315.4" class="st2" width="49.4" height="179.9"/>
						<rect id="Rectangle_179" x="1516" y="371.1" class="st2" width="43.4" height="57.9"/>
						<rect id="Rectangle_180" x="1525.7" y="350.8" class="st2" width="12" height="57.9"/>
						<rect id="Rectangle_181" x="1544.6" y="175.4" class="st2" width="109" height="253.6"/>
						<rect id="Rectangle_182" x="1544.6" y="155.1" class="st2" width="33" height="273.9"/>
						<path id="Path_57" class="st2" d="M1570,51.2l52,13.6l31.7,110.7h-28.5l-80.7-20.4L1570,51.2z"/>
						<rect id="Rectangle_183" x="1544.6" y="155.1" class="st2" width="100.9" height="39.2"/>
						<path id="Path_58" class="st2" d="M1648.7,155l5,20.6L1648.7,155z"/>
						<rect id="Rectangle_184" x="1544.6" y="367.3" class="st2" width="584" height="61.7"/>
						<rect id="Rectangle_185" x="1660.2" y="353" class="st2" width="18.5" height="61.7"/>
						<rect id="Rectangle_186" x="1686.3" y="341.8" class="st2" width="11.4" height="61.7"/>
						<rect id="Rectangle_187" x="1702" y="317.7" class="st2" width="43.9" height="61.7"/>
						<rect id="Rectangle_188" x="1706.4" y="322.1" class="st2" width="43.9" height="61.7"/>
						<rect id="Rectangle_189" x="1907" y="361.3" class="st2" width="8.1" height="61.7"/>
						<rect id="Rectangle_190" x="1925.5" y="361.3" class="st2" width="10.9" height="61.7"/>
						<rect id="Rectangle_164" x="1062" y="465.9" class="st2" width="1748.7" height="64"/>
						<rect id="Rectangle_165" x="1083.6" y="429" class="st2" width="1715" height="100.8"/>
						<rect id="Rectangle_227" x="1249.6" y="368.8" class="st2" width="42.8" height="136.9"/>
						<rect id="Rectangle_228" x="1340.2" y="411.7" class="st2" width="42.8" height="46.7"/>
					</g>
					<g id="Group_63">
						<g id="Group_61">
							<g id="Group_60">
								<g id="Group_58">
									<path id="Path_142" class="st2" d="M1975.4,403.5v-95.1h-11.5V246h-47v62.4h-13.7l-8.4,18l-68.3-46.4v123.5H1975.4z"/>
									<path id="Path_145" class="st2" d="M1940.2,212.9c13.1,0,23.7,14.7,23.7,32.9s-10.6,32.9-23.7,32.9
										c-13-0.2-23.3-15-23.2-32.9C1916.8,227.7,1927.2,213.1,1940.2,212.9z"/>
									<path id="Path_143" class="st2" d="M1931.2,201.6h18.2v30.8h-18.2V201.6z"/>
									<ellipse id="Ellipse_3" class="st2" cx="1940.2" cy="201.6" rx="9.1" ry="12.6"/>
								</g>
							</g>
							<rect id="Rectangle_517" x="1822.1" y="259.1" class="st2" width="9.1" height="40.6"/>
						</g>
						<g id="Group_62">
							<g id="Group_60-2">
								<g id="Group_58-2">
									<path id="Path_142-2" class="st2" d="M1677.7,403.5v-95.1h11.5V246h47v62.4h13.7l8.4,18l68.4-46.4v123.5H1677.7z"/>
									<path id="Path_145-2" class="st2" d="M1712.9,212.9c-13.1,0-23.7,14.7-23.7,32.9s10.6,32.9,23.7,32.9
										c13-0.2,23.3-15,23.2-32.9C1736.2,227.7,1725.8,213.1,1712.9,212.9z"/>
									<path id="Path_143-2" class="st2" d="M1722,201.6h-18.2v30.8h18.2V201.6z"/>
									<ellipse id="Ellipse_3-2" class="st2" cx="1712.9" cy="201.6" rx="9.1" ry="12.6"/>
									<path id="Path_144-2" class="st2" d="M1716.9,177.8h-7.1v30.8h7.1V177.8z"/>
								</g>
							</g>
							<rect id="Rectangle_517-2" x="1821.9" y="259.1" class="st2" width="9.1" height="40.6"/>
						</g>
					</g>
				</g>
				<g id="Group_75">
					<g id="Group_73">
						<g id="Group_76">
							<rect id="Rectangle_521" x="1802.3" y="374.5" class="st3" width="43.7" height="24.6"/>
							<rect id="Rectangle_522" x="1850.9" y="374.5" class="st3" width="23.8" height="24.6"/>
							<path id="Path_148" class="st3" d="M1802.3,323.3c0,0,6.5-5.6,22-5.7c15.4-0.1,21.8,5.7,21.8,5.7v45.4h-43.7v-45.4H1802.3z"
								/>
							<rect id="Rectangle_523" x="1773.6" y="374.5" class="st3" width="23.3" height="24.6"/>
							<path id="Path_149" class="st3" d="M1773.6,344.1c6.8-6.9,14.6-12.7,23.3-17.5v42.1h-23.3V344.1z"/>
							<path id="Path_150" class="st3" d="M1874.7,344.1c-6.8-7.3-14.9-13.5-23.8-18.4v43.1h23.8V344.1z"/>
						</g>
						<path id="Subtraction_4" class="st3" d="M1708.8,231.7c3.5,0.1,6.7,2.2,8.9,6c2.6,4.4,4,9.4,4,14.4l0,0v16.6h-13.1v-36.9
							L1708.8,231.7L1708.8,231.7z M1704.9,232.7L1704.9,232.7v35.9h-9V252l0,0c0-4.2,1-8.3,2.7-12.1
							C1699.7,237,1702,234.4,1704.9,232.7L1704.9,232.7z M1708.6,275.2h13.1v25.9h-13.1V275.2z M1695.9,275.2h9v25.9h-9V275.2z"/>
						<path id="Subtraction_5" class="st3" d="M1708.9,317.2c4.3,0.1,8.3,2.8,11.1,7.3c3.3,5.5,4.9,11.6,4.9,17.9l0,0V363h-16.2
							v-45.8H1708.9z M1704.1,318.4v44.5h-11.2v-20.6l0,0c0.1-5.1,1.2-10.2,3.4-15C1697.7,323.7,1700.5,320.6,1704.1,318.4
							L1704.1,318.4z M1708.7,371.2h16.2v32.1h-16.2V371.2L1708.7,371.2z M1692.9,371.2h11.2v32.1h-11.2V371.2L1692.9,371.2z"/>
						<path id="Subtraction_6" class="st3" d="M1937,231.7c3.5,0.1,6.7,2.2,9,6c2.6,4.4,4,9.4,4,14.4l0,0v16.6h-13.2v-36.9
							L1937,231.7L1937,231.7z M1933,232.7L1933,232.7v35.9h-9V252l0,0c0-4.2,1-8.3,2.7-12.1C1928,237,1930.2,234.4,1933,232.7
							L1933,232.7z M1936.8,275.2h13.1v25.9h-13.1V275.2z M1924,275.2h9v25.9h-9V275.2z"/>
						<path id="Subtraction_7" class="st3" d="M1937.1,317.2c4.3,0.1,8.4,2.8,11.1,7.3c3.3,5.5,4.9,11.6,4.9,17.9l0,0V363h-16.2
							v-45.8H1937.1z M1932.3,318.4v44.5h-11.2v-20.6l0,0c0.1-5.1,1.2-10.2,3.4-15C1925.9,323.7,1928.7,320.6,1932.3,318.4
							L1932.3,318.4z M1936.9,371.2h16.2v32.1h-16.2V371.2L1936.9,371.2z M1921.1,371.2h11.2v32.1h-11.2V371.2L1921.1,371.2z"/>
					</g>
					<rect id="Rectangle_230" x="1083" y="385.6" class="st3" width="43.4" height="85.8"/>
					<rect id="Rectangle_231" x="1104.7" y="486.4" class="st3" width="67.3" height="22.6"/>
					<rect id="Rectangle_232" x="1198.6" y="491.7" class="st3" width="6.5" height="35.3"/>
					<rect id="Rectangle_233" x="1231.6" y="502.9" class="st3" width="36.9" height="12"/>
					<rect id="Rectangle_234" x="1271.3" y="474.4" class="st3" width="13.1" height="35.3"/>
					<rect id="Rectangle_235" x="1213.2" y="295.3" class="st3" width="18.5" height="146.8"/>
					<rect id="Rectangle_236" x="1213.2" y="348.7" class="st3" width="28.2" height="20.3"/>
					<rect id="Rectangle_237" x="1218.6" y="358.5" class="st3" width="28.2" height="10.5"/>
					<rect id="Rectangle_238" x="1213.2" y="376.6" class="st3" width="28.2" height="4.6"/>
					<rect id="Rectangle_239" x="1180.1" y="359.3" class="st3" width="33" height="27.8"/>
					<rect id="Rectangle_240" x="1206.2" y="359.3" class="st3" width="7" height="72.3"/>
					<path id="Rectangle_241" class="st3" d="M1198,421.7L1198,421.7c2.1,0,3.8,2.3,3.8,5.3v9.8c0,2.9-1.7,5.3-3.8,5.3l0,0
						c-2.1,0-3.8-2.3-3.8-5.3V427C1194.2,424.1,1195.9,421.7,1198,421.7z"/>
					<path id="Rectangle_242" class="st3" d="M1088.5,491.7L1088.5,491.7c3,0,5.4,3.3,5.4,7.5v7.5c0,4.2-2.4,7.5-5.4,7.5l0,0
						c-3,0-5.4-3.3-5.4-7.5v-7.5C1083,495,1085.4,491.7,1088.5,491.7z"/>
					<rect id="Rectangle_243" x="1169.7" y="376.6" class="st3" width="22.7" height="51.9"/>
					<rect id="Rectangle_244" x="1164.3" y="376.6" class="st3" width="22.7" height="4.6"/>
					<rect id="Rectangle_246" x="1181.8" y="420.2" class="st3" width="9.8" height="25.6"/>
					<rect id="Rectangle_247" x="1150.3" y="451" class="st3" width="41.2" height="13.6"/>
					<rect id="Rectangle_249" x="1156.2" y="471.4" class="st3" width="35.3" height="12.1"/>
					<rect id="Rectangle_250" x="1159" y="420.2" class="st3" width="17.4" height="32.4"/>
					<path id="Rectangle_252" class="st3" d="M1159.8,378.8L1159.8,378.8c1.4,0,2.5,1.5,2.5,3.3v6.8c0,1.9-1.1,3.3-2.5,3.3l0,0
						c-1.4,0-2.5-1.5-2.5-3.3v-6.8C1157.3,380.4,1158.4,378.8,1159.8,378.8z"/>
					<rect id="Rectangle_253" x="1249.5" y="368.3" class="st3" width="34.7" height="82.8"/>
					<rect id="Rectangle_254" x="1243.1" y="440.5" class="st3" width="28.2" height="27.1"/>
					<rect id="Rectangle_255" x="1281" y="262.2" class="st3" width="4.8" height="188.9"/>
					<rect id="Rectangle_256" x="1325.5" y="442" class="st3" width="48.9" height="9"/>
					<rect id="Rectangle_257" x="1344" y="405.1" class="st3" width="48.9" height="47.4"/>
					<rect id="Rectangle_258" x="1363.4" y="180.1" class="st3" width="39.6" height="272.4"/>
					<rect id="Rectangle_259" x="1389" y="192.2" class="st3" width="14.1" height="272.4"/>
					<path id="Path_68" class="st3" d="M1564,111.2l9,53.2l-30.3-0.1L1564,111.2z"/>
					<path id="Path_152" class="st3" d="M1370,164.3l20-45.7l10.4,45.7v39.2H1370V164.3z"/>
					<rect id="Rectangle_261" x="1314.6" y="478.9" class="st3" width="19" height="13.6"/>
					<rect id="Rectangle_262" x="1333.6" y="487.1" class="st3" width="96.5" height="5.3"/>
					<rect id="Rectangle_263" x="1426.9" y="452.5" class="st3" width="26" height="23.3"/>
					<rect id="Rectangle_264" x="1458.4" y="452.5" class="st3" width="4.4" height="23.3"/>
					<rect id="Rectangle_265" x="1320.6" y="262.2" class="st3" width="9.8" height="188.9"/>
					<rect id="Rectangle_266" x="1281" y="262.2" class="st3" width="49.4" height="5.3"/>
					<rect id="Rectangle_267" x="1281" y="272.8" class="st3" width="49.4" height="5.3"/>
					<rect id="Rectangle_268" x="1281" y="283.3" class="st3" width="49.4" height="5.3"/>
					<rect id="Rectangle_269" x="1281" y="293.8" class="st3" width="49.4" height="5.3"/>
					<rect id="Rectangle_270" x="1281" y="304.3" class="st3" width="49.4" height="5.3"/>
					<rect id="Rectangle_271" x="1281" y="314.9" class="st3" width="49.4" height="5.3"/>
					<rect id="Rectangle_272" x="1281" y="325.4" class="st3" width="49.4" height="5.3"/>
					<rect id="Rectangle_273" x="1281" y="335.9" class="st3" width="49.4" height="5.3"/>
					<rect id="Rectangle_274" x="1281" y="346.4" class="st3" width="49.4" height="5.3"/>
					<rect id="Rectangle_275" x="1281" y="357" class="st3" width="49.4" height="5.3"/>
					<rect id="Rectangle_276" x="1281" y="367.5" class="st3" width="49.4" height="5.3"/>
					<rect id="Rectangle_277" x="1281" y="378" class="st3" width="49.4" height="5.3"/>
					<rect id="Rectangle_278" x="1281" y="388.6" class="st3" width="49.4" height="5.3"/>
					<rect id="Rectangle_279" x="1281" y="399.2" class="st3" width="49.4" height="5.3"/>
					<rect id="Rectangle_280" x="1281" y="409.7" class="st3" width="49.4" height="5.3"/>
					<rect id="Rectangle_281" x="1281" y="420.2" class="st3" width="49.4" height="5.3"/>
					<rect id="Rectangle_282" x="1281" y="430.8" class="st3" width="49.4" height="5.3"/>
					<rect id="Rectangle_283" x="1281" y="441.3" class="st3" width="49.4" height="5.3"/>
					<path id="Path_70" class="st3" d="M1410.2,145.2l5.5,2.8l5.4,23.3l-5.2-1.9L1410.2,145.2z"/>
					<path id="Path_71" class="st3" d="M1420,149.6l5.5,2.8l5.4,23.3l-5.1-1.8L1420,149.6z"/>
					<path id="Path_72" class="st3" d="M1430.2,154.3l5.6,2.7l5.4,23.2l-5.3-1.6L1430.2,154.3z"/>
					<path id="Path_73" class="st3" d="M1440.5,159.5l5.6,2.7l5.3,23l-5.3-1.3L1440.5,159.5z"/>
					<path id="Path_74" class="st3" d="M1406,164.7l5.4,2.7l0.1,27.3l-5.4-2.7L1406,164.7z"/>
					<path id="Path_75" class="st3" d="M1415.9,168.3l5.2,2.8l0.4,27.4l-5.2-2.8L1415.9,168.3z"/>
					<path id="Path_76" class="st3" d="M1425.7,172.9l5.3,2.8l0.4,27.6l-5.3-2.8L1425.7,172.9z"/>
					<path id="Path_77" class="st3" d="M1435.7,177.4l5.4,2.6l0.1,27.2l-5.4-2.6L1435.7,177.4z"/>
					<path id="Path_78" class="st3" d="M1446.2,182.6l5.2,2.4l-0.1,25.6l-5.2-2.4L1446.2,182.6z"/>
					<rect id="Rectangle_284" x="1458.4" y="492.4" class="st3" width="23.8" height="23.3"/>
					<rect id="Rectangle_285" x="1497.5" y="474.4" class="st3" width="23.8" height="11.3"/>
					<rect id="Rectangle_286" x="1467.6" y="315.1" class="st3" width="47.2" height="15.6"/>
					<rect id="Rectangle_287" x="1467.6" y="317.9" class="st3" width="10.9" height="128.7"/>
					<rect id="Rectangle_288" x="1467.6" y="405.1" class="st3" width="35.8" height="41.4"/>
					<rect id="Rectangle_289" x="1503.4" y="314.9" class="st3" width="11.4" height="97.8"/>
					<path id="Rectangle_290" class="st3" d="M1526.1,379.5L1526.1,379.5c2.7,0,4.8,3.1,4.8,6.8v12.1c0,3.7-2.2,6.8-4.8,6.8l0,0
						c-2.7,0-4.8-3.1-4.8-6.8v-12C1521.3,382.6,1523.5,379.5,1526.1,379.5z"/>
					<rect id="Rectangle_291" x="1537.5" y="415" class="st3" width="5.4" height="72.3"/>
					<rect id="Rectangle_292" x="1550.6" y="408.2" class="st3" width="17.4" height="72.3"/>
					<rect id="Rectangle_293" x="1550.6" y="470.6" class="st3" width="87.8" height="9.8"/>
					<rect id="Rectangle_294" x="1599.3" y="444.3" class="st3" width="5.9" height="36.1"/>
					<rect id="Rectangle_296" x="1561.5" y="379.5" class="st3" width="14.1" height="46.7"/>
					<path id="Path_79" class="st3" d="M1541.4,152.3l27.3-100.8h6.9v361.2h-34.2L1541.4,152.3L1541.4,152.3z"/>
					<path id="Path_80" class="st3" d="M1602.6,118.8l17.4,56.8v250.6h-17.4V118.8z"/>
					<path id="Path_82" class="st3" d="M1589.1,61.4l4.3,1.2l34.5,111.3h-4.2L1589.1,61.4z"/>
					<path id="Path_83" class="st3" d="M1595.6,63.7l4.9,1.3l33.4,108.9h-4.2L1595.6,63.7z"/>
					<path id="Path_84" class="st3" d="M1602.9,66.4l4.3,1.5l32.6,106h-4.2L1602.9,66.4z"/>
					<path id="Path_85" class="st3" d="M1609.3,69.4l4.6,1.2l31.8,103.3h-4.2L1609.3,69.4z"/>
					<path id="Rectangle_297" class="st3" d="M1662,376.6L1662,376.6c1.7,0,3,1.9,3,4.2v18c0,2.3-1.3,4.2-3,4.2l0,0
						c-1.7,0-3-1.9-3-4.2v-18C1659.1,378.4,1660.4,376.6,1662,376.6z"/>
					<rect id="Rectangle_300" x="1673.1" y="451" class="st3" width="77.4" height="10.5"/>
					<path id="Rectangle_301" class="st3" d="M1843.5,418.9h14.1c3.9,0,7,4.4,7,9.8l0,0c0,5.4-3.2,9.8-7,9.8h-14.1
						c-3.9,0-7-4.4-7-9.8l0,0C1836.4,423.2,1839.6,418.9,1843.5,418.9z"/>
					<path id="Rectangle_303" class="st3" d="M1666.4,467.6h3.8c2.6,0,4.6,2.9,4.6,6.4l0,0c0,3.5-2.1,6.4-4.6,6.4h-3.8
						c-2.6,0-4.6-2.9-4.6-6.4l0,0C1661.7,470.5,1663.8,467.6,1666.4,467.6z"/>
					<path id="Rectangle_304" class="st3" d="M1645.7,494.7h3.8c2.6,0,4.6,2.9,4.6,6.4l0,0c0,3.5-2.1,6.4-4.6,6.4h-3.8
						c-2.6,0-4.6-2.9-4.6-6.4l0,0C1641.2,497.6,1643.2,494.7,1645.7,494.7z"/>
					<path id="Rectangle_305" class="st3" d="M1682.6,501.5h27.7c2.6,0,4.6,2.9,4.6,6.4l0,0c0,3.5-2.1,6.4-4.6,6.4h-27.7
						c-2.6,0-4.6-2.9-4.6-6.4l0,0C1678.1,504.3,1680,501.5,1682.6,501.5z"/>
					<rect id="Rectangle_306" x="1719.9" y="488.5" class="st3" width="69.9" height="10.5"/>
					<rect id="Rectangle_309" x="1645.2" y="284.8" class="st3" width="23.3" height="85"/>
					<path id="Rectangle_311" class="st3" d="M1712.8,431.4h7c2.6,0,4.6,2.9,4.6,6.4l0,0c0,3.5-2.1,6.4-4.6,6.4h-7
						c-2.6,0-4.6-2.9-4.6-6.4l0,0C1708.2,434.3,1710.3,431.4,1712.8,431.4z"/>
					<path id="Rectangle_312" class="st3" d="M1737.8,420.5h3.3c3.8,0,6.7,4.2,6.7,9.4l0,0c0,5.2-3.1,9.4-6.7,9.4h-3.3
						c-3.8,0-6.7-4.2-6.7-9.4l0,0C1731,424.6,1734,420.5,1737.8,420.5z"/>
					<rect id="Rectangle_313" x="1807.6" y="468.2" class="st3" width="50.4" height="26.6"/>
					<rect id="Rectangle_314" x="1875" y="439.5" class="st3" width="48.7" height="21"/>
					<path id="Rectangle_316" class="st3" d="M1899.3,363.6L1899.3,363.6c2.9,0,5.2,3.3,5.2,7.3v24.7c0,4-2.4,7.3-5.2,7.3l0,0
						c-2.9,0-5.2-3.3-5.2-7.3v-24.7C1894.1,366.9,1896.4,363.6,1899.3,363.6z"/>
					<rect id="Rectangle_534" x="1932.6" y="499.2" class="st3" width="29.3" height="17.3"/>
					<rect id="Rectangle_535" x="1907.7" y="480.4" class="st3" width="7.6" height="40.6"/>
					<rect id="Rectangle_537" x="1826" y="485.8" class="st3" width="64" height="18"/>
					<rect id="Rectangle_538" x="1886" y="409.8" class="st3" width="7.4" height="40.6"/>
					<rect id="Rectangle_539" x="1752.2" y="346.9" class="st3" width="5.1" height="52.4"/>
					<rect id="Rectangle_540" x="1743.1" y="334.2" class="st3" width="4.2" height="52.4"/>
				</g>
			</g>
			<rect x="323.9" y="466.4" class="st4" width="98.5" height="15.6"/>
			<rect x="335" y="455.8" class="st4" width="76.6" height="15.6"/>
			<polygon class="st4" points="388.6,369.7 398.6,369.1 406.3,462.9 396.2,463.5 			"/>
			<polygon class="st4" points="340.9,462.8 345.2,370.5 355.4,371.2 351,463.5 			"/>
			<rect x="783.6" y="466.4" class="st4" width="98.4" height="15.6"/>
			<rect x="794.5" y="455.8" class="st4" width="76.6" height="15.6"/>
			<polygon class="st4" points="797.7,461.6 813.2,364.5 823.1,366 807.7,463 			"/>
			<polygon class="st4" points="842.2,365.9 852.1,364.5 867.6,461.5 857.6,462.9 			"/>
			<path class="st4" d="M793.1,399.7v19.5h28c0.6-2.5,4.8-4.5,10-4.5s9.5,2,10,4.5h28.5v-19.5H793.1z"/>
			<rect x="641.4" y="466.4" class="st4" width="98.4" height="15.6"/>
			<rect x="652.4" y="455.8" class="st4" width="76.6" height="15.6"/>
			<polygon class="st4" points="655.6,461.6 671,364.5 681,366 665.5,463 			"/>
			<polygon class="st4" points="700,365.9 710,364.5 725.5,461.5 715.5,462.9 			"/>
			<path class="st4" d="M652.4,399.7v19.5h28c0.6-2.5,4.8-4.5,10-4.5s9.5,2,10,4.5h28.5v-19.5H652.4z"/>
			<rect x="486.3" y="466.4" class="st4" width="98.4" height="15.6"/>
			<rect x="497.4" y="455.8" class="st4" width="76.6" height="15.6"/>
			<polygon class="st4" points="500.5,461.6 515.4,366.4 525.3,367.8 510.5,463 			"/>
			<polygon class="st4" points="544.2,367.1 554.2,365.7 570.5,461.6 560.5,463 			"/>
			<rect x="153.2" y="466.4" class="st4" width="98.5" height="15.6"/>
			<rect x="164.2" y="455.8" class="st4" width="76.6" height="15.6"/>
			<polygon class="st4" points="218.3,362.5 228.4,361.9 235.5,462.8 225.4,463.5 			"/>
			<polygon class="st4" points="170.2,462.8 177.4,359.2 187.4,359.9 180.3,463.5 			"/>
			<path class="st4" d="M-84,318.6c274.1,57.4,736.4,49.6,1187,17l3.5,62.5c0,0-756.6,55-1171.9-39.1c-18.7-15.5-6.9-17-18.7-34.5
				L-66,203.4L-84,318.6z"/>
			<g id="Group_80-2">
				<g id="Group_74-2">
					<g id="Group_72-2">
						<rect id="Rectangle_189-2" x="977.6" y="395.6" class="st4" width="9.8" height="72.9"/>
						<polygon id="Rectangle_190-2" class="st4" points="999.8,395.6 1012.9,398.6 1012.9,463.5 999.8,463.5 						"/>
						<rect id="Rectangle_191" x="1020" y="383.1" class="st4" width="15.6" height="67.9"/>
						<path id="Path_151" class="st2" d="M1071.5,288.8h129.8V477h-129.8V288.8z"/>
						<rect id="Rectangle_193" x="1212.3" y="220.9" class="st2" width="63.2" height="299.8"/>
						<rect id="Rectangle_194" x="1224.1" y="245.7" class="st2" width="63.2" height="299.8"/>
						<path id="Path_59" class="st2" d="M1229.9,202.6l12.4-18.4h14.2l19.2,27v16.6l-45.8,35.2L1229.9,202.6L1229.9,202.6z"/>
						<rect id="Rectangle_195" x="1287.3" y="401.3" class="st2" width="63.2" height="114.5"/>
						<rect id="Rectangle_196" x="1298.5" y="385.6" class="st2" width="7.8" height="77.8"/>
						<rect id="Rectangle_197" x="1311.4" y="307.7" class="st2" width="125.8" height="186.3"/>
						<rect id="Rectangle_198" x="1350.6" y="239.8" class="st2" width="47.6" height="184.6"/>
						<path id="Path_60" class="st2" d="M1326.4,279.2c10.8-8.3,28.3-7.3,28.5,4.2s-4,18.9-14.4,27.3c-10.5,8.4-28.8,6.4-28.9-2.7
							C1311.6,296.7,1317.1,286.2,1326.4,279.2z"/>
						<path id="Path_62" class="st2" d="M1367.6,208.8c11.9-9.1,30.7-8.9,30.6,2.8s-4.8,19.7-16.4,28.9s-31.3,8.1-31-1.3
							C1351.1,229.8,1355.7,217.9,1367.6,208.8z"/>
						<rect id="Rectangle_199" x="1370.2" y="209.2" class="st2" width="28" height="184.6"/>
						<path id="Path_64" class="st2" d="M1326.4,297.4c10.8-8.3,28.3-7.3,28.5,4.2s-4,18.9-14.4,27.3c-10.5,8.4-28.8,6.4-28.9-2.7
							C1311.6,314.9,1317.1,304.4,1326.4,297.4z"/>
						<path id="Path_65" class="st2" d="M1409.1,273.4c10.8-8.3,28.3-7.3,28.5,4.2c0.2,11.4-4,18.9-14.4,27.3
							c-10.5,8.4-28.8,6.4-28.9-2.7C1394.4,290.9,1399.8,280.3,1409.1,273.4z"/>
						<rect id="Rectangle_200" x="1410.5" y="285.4" class="st2" width="26.7" height="208.7"/>
						<rect id="Rectangle_201" x="1410.5" y="401.3" class="st2" width="72.4" height="92.7"/>
						<rect id="Rectangle_202" x="1449.7" y="148.8" class="st2" width="95.8" height="337.8"/>
						<path id="Path_66" class="st2" d="M1496.8,91.6l40.8,37.3l7.9,19.9h-95.9l10.5-25.3L1496.8,91.6z"/>
						<rect id="Rectangle_203" x="1552.8" y="249.8" class="st2" width="78.9" height="245.9"/>
						<rect id="Rectangle_204" x="1537.7" y="460.2" class="st2" width="25.4" height="35.6"/>
						<rect id="Rectangle_205" x="1739.9" y="432.4" class="st2" width="394.4" height="57.1"/>
						<rect id="Rectangle_206" x="1988.8" y="168.1" class="st2" width="65.9" height="309.6"/>
						<rect id="Rectangle_207" x="1882" y="206.3" class="st2" width="44.3" height="231"/>
						<rect id="Rectangle_208" x="1891.2" y="182.3" class="st2" width="27.4" height="231"/>
						<rect id="Rectangle_209" x="1876.2" y="206.3" class="st2" width="56.7" height="20.7"/>
						<rect id="Rectangle_210" x="1809.7" y="407.6" class="st2" width="75.7" height="29.8"/>
						<rect id="Rectangle_211" x="1842.2" y="392.7" class="st2" width="28.7" height="29.8"/>
						<rect id="Rectangle_212" x="1943.3" y="417.5" class="st2" width="28.7" height="29.8"/>
						<rect id="Rectangle_213" x="1951.8" y="403.4" class="st2" width="11.8" height="38.1"/>
						<rect id="Rectangle_214" x="1968.7" y="182.3" class="st2" width="35.9" height="259.2"/>
						<rect id="Rectangle_215" x="1972" y="168.3" class="st2" width="32.6" height="259.2"/>
						<rect id="Rectangle_216" x="1975.3" y="158.3" class="st2" width="26.1" height="259.1"/>
						<rect id="Rectangle_217" x="1975.3" y="198.1" class="st2" width="60" height="253.3"/>
						<rect id="Rectangle_218" x="1965.5" y="182.3" class="st2" width="48.3" height="19.1"/>
						<rect id="Rectangle_219" x="1559.9" y="241.5" class="st2" width="63.2" height="245.9"/>
						<path id="Path_67" class="st2" d="M2004.7,168l30.8,30.2h-30.8V168z"/>
						<rect id="Rectangle_164-2" x="1563" y="468.3" class="st2" width="438.1" height="58.2"/>
						<rect id="Rectangle_164-3" x="1742.7" y="532.8" class="st2" width="87.4" height="23.4"/>
						<rect id="Rectangle_164-4" x="1887.3" y="475.5" class="st2" width="49.8" height="71.2"/>
						<rect id="Rectangle_164-5" x="1463" y="469.6" class="st2" width="122" height="65.4"/>
						<rect id="Rectangle_164-6" x="1359.5" y="516.2" class="st2" width="127" height="29"/>
						<rect id="Rectangle_164-7" x="977.2" y="441.8" class="st4" width="255.1" height="96.4"/>
						<rect id="Rectangle_164-8" x="1328.9" y="503.8" class="st2" width="58.4" height="11.9"/>
						<rect id="Rectangle_164-9" x="1154.3" y="536.4" class="st2" width="58.4" height="11.9"/>
						<rect id="Rectangle_164-10" x="1118.3" y="520" class="st2" width="19" height="21.4"/>
					</g>
				</g>
				<g id="Group_75-2">
					<path id="Path_92" class="st3" d="M1527.7,122.7L1527.7,122.7l-4.6,26.5h-16.3L1527.7,122.7z"/>
					<path id="Path_93" class="st3" d="M1481.3,122.7l-2.3,2.9l28,23.6h16.1l-40-31.8L1481.3,122.7z"/>
					<path id="Path_95" class="st3" d="M1527.7,122.7L1527.7,122.7l-22.2,7.7l-8.4-37.8L1527.7,122.7z"/>
					<path id="Rectangle_318" class="st3" d="M1096.1,507.8h13.6c2.2,0,4,2.2,4,4.9l0,0c0,2.8-1.8,4.9-4,4.9h-13.6
						c-2.2,0-4-2.2-4-4.9l0,0C1092.2,510,1093.9,507.8,1096.1,507.8z"/>
					<rect id="Rectangle_319" x="1070.2" y="303.3" class="st3" width="86" height="194.6"/>
					<rect id="Rectangle_320" x="1070.2" y="282.5" class="st3" width="86" height="10.8"/>
					<rect id="Rectangle_323" x="1176.3" y="493.7" class="st3" width="35.2" height="19.1"/>
					<rect id="Rectangle_325" x="1141.1" y="521.8" class="st3" width="9.1" height="44.7"/>
					<path id="Rectangle_326" class="st3" d="M1200.1,434.9L1200.1,434.9c3.5,0,6.2,3.5,6.2,7.9v24.8c0,4.4-2.8,7.9-6.2,7.9l0,0
						c-3.5,0-6.2-3.5-6.2-7.9v-24.8C1193.9,438.4,1196.7,434.9,1200.1,434.9z"/>
					<rect id="Rectangle_327" x="1224.6" y="214.6" class="st3" width="7.8" height="293.1"/>
					<rect id="Rectangle_328" x="1210.8" y="214.6" class="st3" width="4.5" height="298.1"/>
					<rect id="Rectangle_329" x="1210.8" y="502.9" class="st3" width="49.6" height="10"/>
					<rect id="Rectangle_330" x="1210.8" y="214.6" class="st3" width="24.8" height="28.2"/>
					<path id="Path_86" class="st3" d="M1260.7,186.3l12.8,17.7v303.8h-13.1L1260.7,186.3z"/>
					<path id="Path_87" class="st3" d="M1227.2,196.5l12.1-16.7h4.8v44.9h-16.9V196.5z"/>
					<rect id="Rectangle_331" x="1278" y="237" class="st3" width="7.8" height="270.7"/>
					<path id="Rectangle_332" class="st3" d="M1296.3,475.5L1296.3,475.5c3.3,0,5.8,3.3,5.8,7.4v13.2c0,4.1-2.7,7.4-5.8,7.4l0,0
						c-3.3,0-5.8-3.3-5.8-7.4v-13.2C1290.5,478.9,1293,475.5,1296.3,475.5z"/>
					<path id="Rectangle_333" class="st3" d="M1299.3,512.7L1299.3,512.7c1.6,0,3,1.7,3,3.7v9.1c0,2-1.3,3.7-3,3.7l0,0
						c-1.6,0-3-1.7-3-3.7v-9.1C1296.3,514.4,1297.6,512.7,1299.3,512.7z"/>
					<path id="Path_88" class="st3" d="M1324.9,273c10.8-8.3,28.3-7.3,28.5,4.2c0.2,11.4-4,18.9-14.4,27.3
						c-10.5,8.4-28.8,6.4-28.9-2.7C1310.1,290.5,1315.6,279.9,1324.9,273z"/>
					<path id="Path_89" class="st3" d="M1366.1,202.6c11.9-9.1,30.7-9,30.6,2.8s-4.8,19.7-16.4,28.9s-31.3,8.1-31-1.3
						S1354.2,211.7,1366.1,202.6z"/>
					<path id="Path_90" class="st3" d="M1407.7,267.2c10.8-8.3,28.3-7.3,28.5,4.2s-4,18.9-14.4,27.3c-10.5,8.4-28.8,6.4-28.9-2.7
						C1392.9,284.8,1398.4,274.2,1407.7,267.2z"/>
					<rect id="Rectangle_335" x="1312.6" y="303.3" class="st3" width="16.3" height="57.1"/>
					<rect id="Rectangle_336" x="1349.1" y="232" class="st3" width="20.2" height="44.7"/>
					<rect id="Rectangle_337" x="1353.7" y="232" class="st3" width="15.6" height="66.2"/>
					<rect id="Rectangle_338" x="1392.8" y="294.2" class="st3" width="12.4" height="66.2"/>
					<path id="Path_91" class="st3" d="M1363.9,342.5c10.8-8.3,28.3-7.3,28.5,4.2s-4,18.9-14.4,27.3c-10.5,8.4-28.8,6.4-28.9-2.7
						C1349.2,360.1,1354.6,349.5,1363.9,342.5z"/>
					<rect id="Rectangle_339" x="1349.1" y="372.8" class="st3" width="20.2" height="57.9"/>
					<rect id="Rectangle_340" x="1392.8" y="294.2" class="st3" width="5.8" height="136.6"/>
					<rect id="Rectangle_341" x="1312.6" y="360.4" class="st3" width="36.5" height="8.3"/>
					<rect id="Rectangle_342" x="1312.6" y="378.6" class="st3" width="36.5" height="5.8"/>
					<rect id="Rectangle_343" x="1319.1" y="391.8" class="st3" width="30" height="5.8"/>
					<rect id="Rectangle_344" x="1309.3" y="405.1" class="st3" width="39.8" height="5.8"/>
					<rect id="Rectangle_345" x="1309.3" y="418.3" class="st3" width="39.8" height="5.8"/>
					<rect id="Rectangle_346" x="1309.3" y="431.6" class="st3" width="39.8" height="5.8"/>
					<rect id="Rectangle_347" x="1309.3" y="444.8" class="st3" width="39.8" height="5.8"/>
					<rect id="Rectangle_348" x="1309.3" y="458.1" class="st3" width="39.8" height="5.8"/>
					<rect id="Rectangle_349" x="1309.3" y="471.3" class="st3" width="39.8" height="5.8"/>
					<rect id="Rectangle_350" x="1349.1" y="437.4" class="st3" width="51.5" height="7.4"/>
					<rect id="Rectangle_351" x="1349.1" y="450.7" class="st3" width="51.5" height="7.4"/>
					<rect id="Rectangle_352" x="1349.1" y="463.9" class="st3" width="51.5" height="7.4"/>
					<rect id="Rectangle_353" x="1349.1" y="477.2" class="st3" width="51.5" height="7.4"/>
					<rect id="Rectangle_354" x="1398.7" y="364.6" class="st3" width="35.2" height="4.2"/>
					<rect id="Rectangle_355" x="1398.7" y="376.1" class="st3" width="35.2" height="5.8"/>
					<rect id="Rectangle_356" x="1398.7" y="391.8" class="st3" width="35.2" height="5.8"/>
					<rect id="Rectangle_357" x="1398.7" y="405.1" class="st3" width="35.2" height="5.8"/>
					<rect id="Rectangle_358" x="1398.7" y="418.3" class="st3" width="35.2" height="5.8"/>
					<rect id="Rectangle_359" x="1398.7" y="431.6" class="st3" width="35.2" height="5.8"/>
					<rect id="Rectangle_360" x="1398.7" y="444.8" class="st3" width="35.2" height="5.8"/>
					<rect id="Rectangle_361" x="1398.7" y="458.1" class="st3" width="35.2" height="5.8"/>
					<rect id="Rectangle_362" x="1353.7" y="297.5" class="st3" width="35.6" height="5.8"/>
					<rect id="Rectangle_363" x="1353.7" y="310.7" class="st3" width="35.6" height="5.8"/>
					<rect id="Rectangle_364" x="1353.7" y="323.9" class="st3" width="35.6" height="5.8"/>
					<rect id="Rectangle_365" x="1353.7" y="337.2" class="st3" width="35.6" height="5.8"/>
					<rect id="Rectangle_366" x="1330.2" y="502" class="st3" width="117.4" height="15.7"/>
					<rect id="Rectangle_367" x="1506.9" y="146.3" class="st3" width="16.3" height="321.8"/>
					<rect id="Rectangle_368" x="1449.5" y="149.3" class="st3" width="4" height="318.8"/>
					<path id="Path_94" class="st3" d="M1481.3,122.7L1481.3,122.7l-28,35.2l-3.9-8.7v-7.7l10.1-24.8l35.6-31.2L1481.3,122.7z"/>
					<path id="Rectangle_369" class="st3" d="M1522.9,485.4L1522.9,485.4c3.1,0,5.5,3.2,5.5,7.1v18.2c0,3.9-2.5,7.1-5.5,7.1l0,0
						c-3.1,0-5.5-3.2-5.5-7.1v-18.2C1517.3,488.5,1519.8,485.4,1522.9,485.4z"/>
					<rect id="Rectangle_370" x="1534.9" y="505.3" class="st3" width="43" height="7.4"/>
					<rect id="Rectangle_370-2" x="1419.2" y="537.9" class="st3" width="43" height="7.4"/>
					<rect id="Rectangle_370-3" x="1616.7" y="538.9" class="st3" width="43" height="7.4"/>
					<rect id="Rectangle_370-4" x="1378.1" y="523.8" class="st3" width="12.2" height="13.4"/>
					<rect id="Rectangle_370-5" x="1584.4" y="535.6" class="st3" width="12.2" height="13.4"/>
					<rect id="Rectangle_371" x="1573.4" y="486.2" class="st3" width="26.7" height="34.8"/>
					<rect id="Rectangle_372" x="1557.1" y="235.4" class="st3" width="64.6" height="16.6"/>
					<rect id="Rectangle_373" x="1554.4" y="243.6" class="st3" width="75" height="17.4"/>
					<rect id="Rectangle_374" x="1557.1" y="266" class="st3" width="69.7" height="6.6"/>
					<rect id="Rectangle_375" x="1557.1" y="278.4" class="st3" width="69.7" height="6.6"/>
					<rect id="Rectangle_376" x="1557.1" y="290.8" class="st3" width="69.7" height="6.6"/>
					<rect id="Rectangle_377" x="1557.1" y="303.3" class="st3" width="69.7" height="6.6"/>
					<rect id="Rectangle_378" x="1557.1" y="315.6" class="st3" width="69.7" height="6.6"/>
					<rect id="Rectangle_379" x="1557.1" y="328.1" class="st3" width="69.7" height="6.6"/>
					<rect id="Rectangle_380" x="1557.1" y="340.5" class="st3" width="69.7" height="6.6"/>
					<rect id="Rectangle_381" x="1557.1" y="352.9" class="st3" width="69.7" height="6.6"/>
					<rect id="Rectangle_382" x="1557.1" y="365.4" class="st3" width="69.7" height="6.6"/>
					<rect id="Rectangle_383" x="1557.1" y="377.8" class="st3" width="69.7" height="6.6"/>
					<rect id="Rectangle_384" x="1557.1" y="390.2" class="st3" width="69.7" height="6.6"/>
					<rect id="Rectangle_385" x="1557.1" y="402.6" class="st3" width="69.7" height="6.6"/>
					<rect id="Rectangle_386" x="1557.1" y="415.1" class="st3" width="69.7" height="6.6"/>
					<rect id="Rectangle_387" x="1557.1" y="427.4" class="st3" width="69.7" height="6.6"/>
					<rect id="Rectangle_388" x="1557.1" y="439.9" class="st3" width="69.7" height="6.6"/>
					<rect id="Rectangle_389" x="1557.1" y="451.4" class="st3" width="69.7" height="6.6"/>
					<rect id="Rectangle_390" x="2001.9" y="160.3" class="st3" width="39.8" height="334.9"/>
					<rect id="Rectangle_391" x="1798.1" y="489.7" class="st3" width="50.8" height="15.7"/>
					<path id="Rectangle_392" class="st3" d="M1712.3,468.1h15.6c2.6,0,4.5,2.6,4.5,5.8l0,0c0,3.3-2.1,5.8-4.5,5.8h-15.6
						c-2.6,0-4.5-2.6-4.5-5.8l0,0C1707.7,470.6,1709.7,468.1,1712.3,468.1z"/>
					<path id="Rectangle_393" class="st3" d="M1705.1,445.7h3.3c2.6,0,4.5,2.6,4.5,5.8l0,0c0,3.2-2.1,5.8-4.5,5.8h-3.3
						c-2.6,0-4.5-2.6-4.5-5.8l0,0C1700.5,448.3,1702.6,445.7,1705.1,445.7z"/>
					<path id="Rectangle_394" class="st3" d="M1724.9,421.7L1724.9,421.7c2.7,0,4.8,2.8,4.8,6.2v3.3c0,3.4-2.2,6.2-4.8,6.2l0,0
						c-2.7,0-4.8-2.8-4.8-6.2v-3.3C1720.1,424.5,1722.3,421.7,1724.9,421.7z"/>
					<rect id="Rectangle_395" x="1756" y="503.6" class="st3" width="47.6" height="12.4"/>
					<path id="Rectangle_396" class="st3" d="M1721.4,521h11.1c2.2,0,3.9,2.2,3.9,4.9l0,0c0,2.8-1.8,4.9-3.9,4.9h-11.1
						c-2.2,0-4-2.2-4-4.9l0,0C1717.4,523.2,1719.2,521,1721.4,521z"/>
					<rect id="Rectangle_397" x="1850.9" y="395.3" class="st3" width="13.1" height="24.8"/>
					<rect id="Rectangle_398" x="1891.3" y="180.1" class="st3" width="22.2" height="12.4"/>
					<rect id="Rectangle_399" x="1890" y="213.2" class="st3" width="24.8" height="14"/>
					<rect id="Rectangle_400" x="1890" y="199.9" class="st3" width="5.2" height="25.7"/>
					<rect id="Rectangle_401" x="1909.6" y="199.9" class="st3" width="5.2" height="25.7"/>
					<rect id="Rectangle_402" x="1895.3" y="232.2" class="st3" width="14.3" height="5.8"/>
					<rect id="Rectangle_403" x="1895.3" y="242.9" class="st3" width="14.3" height="5.8"/>
					<rect id="Rectangle_404" x="1918.1" y="232.2" class="st3" width="6.5" height="5.8"/>
					<rect id="Rectangle_405" x="1918.1" y="242.9" class="st3" width="6.5" height="5.8"/>
					<rect id="Rectangle_406" x="1880.2" y="232.2" class="st3" width="6.5" height="5.8"/>
					<rect id="Rectangle_407" x="1880.2" y="242.9" class="st3" width="6.5" height="5.8"/>
					<rect id="Rectangle_408" x="1895.3" y="253.7" class="st3" width="14.3" height="5.8"/>
					<rect id="Rectangle_409" x="1895.3" y="264.5" class="st3" width="14.3" height="5.8"/>
					<rect id="Rectangle_410" x="1918.1" y="253.7" class="st3" width="6.5" height="5.8"/>
					<rect id="Rectangle_411" x="1918.1" y="264.5" class="st3" width="6.5" height="5.8"/>
					<rect id="Rectangle_412" x="1880.2" y="253.7" class="st3" width="6.5" height="5.8"/>
					<rect id="Rectangle_413" x="1880.2" y="264.5" class="st3" width="6.5" height="5.8"/>
					<rect id="Rectangle_414" x="1895.3" y="275.2" class="st3" width="14.3" height="5.8"/>
					<rect id="Rectangle_415" x="1895.3" y="286" class="st3" width="14.3" height="5.8"/>
					<rect id="Rectangle_416" x="1918.1" y="275.2" class="st3" width="6.5" height="5.8"/>
					<rect id="Rectangle_417" x="1918.1" y="286" class="st3" width="6.5" height="5.8"/>
					<rect id="Rectangle_418" x="1880.2" y="275.2" class="st3" width="6.5" height="5.8"/>
					<rect id="Rectangle_419" x="1880.2" y="286" class="st3" width="6.5" height="5.8"/>
					<rect id="Rectangle_420" x="1895.3" y="296.8" class="st3" width="14.3" height="5.8"/>
					<rect id="Rectangle_421" x="1895.3" y="307.6" class="st3" width="14.3" height="5.8"/>
					<rect id="Rectangle_422" x="1918.1" y="296.8" class="st3" width="6.5" height="5.8"/>
					<rect id="Rectangle_423" x="1918.1" y="307.6" class="st3" width="6.5" height="5.8"/>
					<rect id="Rectangle_424" x="1880.2" y="296.8" class="st3" width="6.5" height="5.8"/>
					<rect id="Rectangle_425" x="1880.2" y="307.6" class="st3" width="6.5" height="5.8"/>
					<rect id="Rectangle_426" x="1918.1" y="221.5" class="st3" width="6.5" height="5.8"/>
					<rect id="Rectangle_427" x="1880.2" y="221.5" class="st3" width="6.5" height="5.8"/>
					<rect id="Rectangle_428" x="1895.3" y="318.3" class="st3" width="14.3" height="5.8"/>
					<rect id="Rectangle_429" x="1918.1" y="318.3" class="st3" width="6.5" height="5.8"/>
					<rect id="Rectangle_430" x="1880.2" y="318.3" class="st3" width="6.5" height="5.8"/>
					<rect id="Rectangle_431" x="1895.3" y="329.1" class="st3" width="14.3" height="5.8"/>
					<rect id="Rectangle_432" x="1895.3" y="339.8" class="st3" width="14.3" height="5.8"/>
					<rect id="Rectangle_433" x="1918.1" y="329.1" class="st3" width="6.5" height="5.8"/>
					<rect id="Rectangle_434" x="1918.1" y="339.8" class="st3" width="6.5" height="5.8"/>
					<rect id="Rectangle_435" x="1880.2" y="329.1" class="st3" width="6.5" height="5.8"/>
					<rect id="Rectangle_436" x="1880.2" y="339.8" class="st3" width="6.5" height="5.8"/>
					<rect id="Rectangle_437" x="1895.3" y="350.6" class="st3" width="14.3" height="5.8"/>
					<rect id="Rectangle_438" x="1918.1" y="350.6" class="st3" width="6.5" height="5.8"/>
					<rect id="Rectangle_439" x="1880.2" y="350.6" class="st3" width="6.5" height="5.8"/>
					<rect id="Rectangle_440" x="1895.3" y="361.3" class="st3" width="14.3" height="5.8"/>
					<rect id="Rectangle_441" x="1895.3" y="372.1" class="st3" width="14.3" height="5.8"/>
					<rect id="Rectangle_442" x="1918.1" y="361.3" class="st3" width="6.5" height="5.8"/>
					<rect id="Rectangle_443" x="1918.1" y="372.1" class="st3" width="6.5" height="5.8"/>
					<rect id="Rectangle_444" x="1880.2" y="361.3" class="st3" width="6.5" height="5.8"/>
					<rect id="Rectangle_445" x="1880.2" y="372.1" class="st3" width="6.5" height="5.8"/>
					<rect id="Rectangle_446" x="1895.3" y="382.9" class="st3" width="14.3" height="5.8"/>
					<rect id="Rectangle_447" x="1918.1" y="382.9" class="st3" width="6.5" height="5.8"/>
					<rect id="Rectangle_448" x="1880.2" y="382.9" class="st3" width="6.5" height="5.8"/>
					<rect id="Rectangle_449" x="1895.3" y="393.6" class="st3" width="14.3" height="5.8"/>
					<rect id="Rectangle_450" x="1895.3" y="404.4" class="st3" width="14.3" height="5.8"/>
					<rect id="Rectangle_451" x="1918.1" y="393.6" class="st3" width="6.5" height="5.8"/>
					<rect id="Rectangle_452" x="1918.1" y="404.4" class="st3" width="6.5" height="5.8"/>
					<rect id="Rectangle_453" x="1880.2" y="393.6" class="st3" width="6.5" height="5.8"/>
					<rect id="Rectangle_454" x="1880.2" y="404.4" class="st3" width="6.5" height="5.8"/>
					<rect id="Rectangle_455" x="1895.3" y="415.2" class="st3" width="14.3" height="5.8"/>
					<rect id="Rectangle_456" x="1918.1" y="415.2" class="st3" width="6.5" height="5.8"/>
					<rect id="Rectangle_457" x="1880.2" y="415.2" class="st3" width="6.5" height="5.8"/>
					<rect id="Rectangle_458" x="1895.3" y="426" class="st3" width="14.3" height="5.8"/>
					<rect id="Rectangle_459" x="1895.3" y="436.7" class="st3" width="14.3" height="5.8"/>
					<rect id="Rectangle_460" x="1918.1" y="426" class="st3" width="6.5" height="5.8"/>
					<rect id="Rectangle_461" x="1918.1" y="436.7" class="st3" width="6.5" height="5.8"/>
					<rect id="Rectangle_462" x="1880.2" y="426" class="st3" width="6.5" height="5.8"/>
					<rect id="Rectangle_463" x="1880.2" y="436.7" class="st3" width="6.5" height="5.8"/>
					<rect id="Rectangle_464" x="1895.3" y="447.5" class="st3" width="14.3" height="5.8"/>
					<rect id="Rectangle_465" x="1918.1" y="447.5" class="st3" width="6.5" height="5.8"/>
					<rect id="Rectangle_466" x="1880.2" y="447.5" class="st3" width="6.5" height="5.8"/>
					<rect id="Rectangle_467" x="1895.3" y="458.2" class="st3" width="14.3" height="5.8"/>
					<rect id="Rectangle_468" x="1895.3" y="469" class="st3" width="14.3" height="5.8"/>
					<rect id="Rectangle_469" x="1918.1" y="458.2" class="st3" width="6.5" height="5.8"/>
					<rect id="Rectangle_470" x="1918.1" y="469" class="st3" width="6.5" height="5.8"/>
					<rect id="Rectangle_471" x="1880.2" y="458.2" class="st3" width="6.5" height="5.8"/>
					<rect id="Rectangle_472" x="1880.2" y="469" class="st3" width="6.5" height="5.8"/>
					<path id="Rectangle_473" class="st3" d="M1900.8,483.9h20.2c3.1,0,5.5,3.2,5.5,7.1l0,0c0,3.9-2.5,7.1-5.5,7.1h-20.2
						c-3.1,0-5.5-3.2-5.5-7.1l0,0C1895.3,487.1,1897.7,483.9,1900.8,483.9z"/>
					<path id="Rectangle_474" class="st3" d="M1939.3,428.4h12.4c2.4,0,4.3,2.4,4.3,5.4l0,0c0,3-1.9,5.4-4.3,5.4h-12.4
						c-2.4,0-4.3-2.4-4.3-5.4l0,0C1935,430.8,1936.9,428.4,1939.3,428.4z"/>
					<path id="Rectangle_475" class="st3" d="M1950.6,450.8L1950.6,450.8c2.9,0,5.2,3,5.2,6.6v4.9c0,3.6-2.4,6.6-5.2,6.6l0,0
						c-2.9,0-5.2-3-5.2-6.6v-4.9C1945.5,453.8,1947.8,450.8,1950.6,450.8z"/>
					<rect id="Rectangle_476" x="1932.4" y="493" class="st3" width="120" height="19.1"/>
					<rect id="Rectangle_477" x="1827" y="496.2" class="st3" width="10.5" height="29.9"/>
					<rect id="Rectangle_478" x="1857" y="496.2" class="st3" width="43.7" height="29.9"/>
					<rect id="Rectangle_479" x="1912.5" y="496.2" class="st3" width="13.1" height="23.2"/>
					<rect id="Rectangle_483" x="1968.2" y="197.5" class="st3" width="35.1" height="5.8"/>
					<rect id="Rectangle_484" x="1968.2" y="208.2" class="st3" width="35.1" height="5.8"/>
					<rect id="Rectangle_485" x="1968.2" y="218.9" class="st3" width="35.1" height="5.8"/>
					<rect id="Rectangle_486" x="1968.2" y="229.7" class="st3" width="35.1" height="5.8"/>
					<rect id="Rectangle_487" x="1968.2" y="240.4" class="st3" width="35.1" height="5.8"/>
					<rect id="Rectangle_488" x="1968.2" y="250.6" class="st3" width="35.1" height="5.8"/>
					<rect id="Rectangle_489" x="1968.2" y="261.2" class="st3" width="35.1" height="5.8"/>
					<rect id="Rectangle_490" x="1968.2" y="271.8" class="st3" width="35.1" height="5.8"/>
					<rect id="Rectangle_491" x="1968.2" y="282.5" class="st3" width="35.1" height="5.8"/>
					<rect id="Rectangle_492" x="1968.2" y="293.1" class="st3" width="35.1" height="5.8"/>
					<rect id="Rectangle_493" x="1968.2" y="303.7" class="st3" width="35.1" height="5.8"/>
					<rect id="Rectangle_494" x="1968.2" y="314.3" class="st3" width="35.1" height="5.8"/>
					<rect id="Rectangle_495" x="1968.2" y="325" class="st3" width="35.1" height="5.8"/>
					<rect id="Rectangle_496" x="1968.2" y="335.6" class="st3" width="35.1" height="5.8"/>
					<rect id="Rectangle_497" x="1968.2" y="346.2" class="st3" width="35.1" height="5.8"/>
					<rect id="Rectangle_498" x="1968.2" y="356.8" class="st3" width="35.1" height="5.8"/>
					<rect id="Rectangle_499" x="1968.2" y="367.5" class="st3" width="35.1" height="5.8"/>
					<rect id="Rectangle_500" x="1968.2" y="378.1" class="st3" width="35.1" height="5.8"/>
					<rect id="Rectangle_501" x="1968.2" y="388.7" class="st3" width="35.1" height="5.8"/>
					<rect id="Rectangle_502" x="1968.2" y="399.3" class="st3" width="35.1" height="5.8"/>
					<rect id="Rectangle_503" x="1968.2" y="409.4" class="st3" width="35.1" height="5.8"/>
					<rect id="Rectangle_504" x="1968.2" y="420.1" class="st3" width="35.1" height="5.8"/>
					<rect id="Rectangle_505" x="1968.2" y="430.9" class="st3" width="35.1" height="5.8"/>
					<rect id="Rectangle_506" x="1968.2" y="441.7" class="st3" width="35.1" height="5.8"/>
					<path id="Path_96" class="st3" d="M2012,199.9l-28.8-35.7l38.6,35.7v259.2h-9.8L2012,199.9L2012,199.9z"/>
					<rect id="Rectangle_508" x="1968.2" y="452.5" class="st3" width="35.1" height="5.8"/>
					<path id="Rectangle_509" class="st3" d="M2042.9,436.7L2042.9,436.7c1.3,0,2.3,1.3,2.3,2.9v7.4c0,1.6-1,2.9-2.3,2.9l0,0
						c-1.3,0-2.3-1.3-2.3-2.9v-7.4C2040.6,438,2041.6,436.7,2042.9,436.7z"/>
				</g>
			</g>
			<rect x="-34.4" y="466" class="st5" width="2662.6" height="261.3"/>
			<rect x="323.9" y="462.9" class="st4" width="98.5" height="15.6"/>
			<rect x="335" y="473.5" class="st4" width="76.6" height="15.6"/>
			<polygon class="st4" points="382.6,671.8 396.3,481.3 406.4,482 392.6,672.5 			"/>
			<polygon class="st4" points="341,482 351.1,481.4 364.8,671.9 354.8,672.5 			"/>
			<rect x="783.6" y="462.9" class="st4" width="98.4" height="15.6"/>
			<rect x="794.5" y="473.5" class="st4" width="76.6" height="15.6"/>
			<polygon class="st4" points="797.7,483.3 807.6,481.9 823.1,578.9 813.1,580.3 			"/>
			<polygon class="st4" points="842.1,579 857.5,481.9 867.5,483.3 852,580.4 			"/>
			<rect x="641.4" y="462.9" class="st4" width="98.4" height="15.6"/>
			<rect x="652.4" y="473.5" class="st4" width="76.6" height="15.6"/>
			<polygon class="st4" points="658.2,483 668.1,481.6 683.8,578.8 673.8,580.2 			"/>
			<polygon class="st4" points="700,579 715.5,482 725.5,483.4 710,580.4 			"/>
			<rect x="486.3" y="462.9" class="st4" width="98.4" height="15.6"/>
			<rect x="497.4" y="473.5" class="st4" width="76.6" height="15.6"/>
			<polygon class="st4" points="500.5,483.3 510.5,481.9 530,604.5 520,605.9 			"/>
			<polygon class="st4" points="541.2,602.5 560.4,481.9 570.4,483.3 551.2,603.9 			"/>
			<rect x="153.2" y="462.9" class="st4" width="98.5" height="15.6"/>
			<rect x="164.2" y="473.5" class="st4" width="76.6" height="15.6"/>
			<polygon class="st4" points="209.2,708.8 225.6,481.3 235.7,482 219.3,709.4 			"/>
			<polygon class="st4" points="170.3,482 180.4,481.3 198.2,728.5 188.2,729.2 			"/>
			<path class="st4" d="M66.3,819.6c0,0,336.8-242.8,1036.8-210.3l-15.7-81.7C1087.3,527.7,231.6,572.8,66.3,819.6z"/>
			<polygon class="st2" points="1320.9,446.8 1320.9,450.5 1380.9,450.5 1407.7,450.5 1407.7,450.5 1407.7,450.5 1433.4,450.5 
				1433.4,446.8 			"/>
			<rect x="947.9" y="505" class="st4" width="9.8" height="38.9"/>
			<rect x="970.1" y="505" class="st2" width="13.1" height="38.9"/>
			<rect x="990.4" y="505" class="st2" width="15.6" height="61.4"/>
			<path class="st2" d="M1164.2,505.1h-37.7v144.8h-84.9v10.4h84.9v4.7h44.9V512.1c-0.4,0.1-0.7,0.1-1.1,0.2
				C1167.3,512.3,1164.6,509.2,1164.2,505.1z"/>
			<polygon class="st2" points="1194.4,710.1 1194.4,505 1185.8,505 1185.8,713 1194.9,713 1194.9,710.1 			"/>
			<polygon class="st2" points="1257.6,446.8 1256.1,446.8 1256.1,710.1 1257.6,710.1 1257.6,547.4 1257.6,547.4 			"/>
			<polygon class="st2" points="1243.8,446.8 1243.8,710.1 1245.9,710.1 1248.3,710.1 1248.3,446.8 			"/>
			<polygon class="st2" points="1202.7,693.8 1222.9,710.1 1231,710.1 1230.8,446.8 1202.7,446.8 			"/>
			<rect x="1194.4" y="505" class="st2" width="0.5" height="205"/>
			<path class="st2" d="M1279.7,543.5v-6h2.2v-7.8h-2.2v-6h2.2v-7.8h-2.2v-6h2.2v-7.8h-2.2v-6h2.2v-7.8h-2.2v-6h2.2v-7.8h-2.2v-6
				h2.2v-17.7h39.2v-3.7h-48.6c0.1,0.5,0.1,1,0.1,1.5v13.9c0,4.3-2.7,7.8-5.8,7.8c-3.2,0-5.8-3.4-5.8-7.8v-13.8c0-0.5,0-1,0.1-1.5
				h-3.2v100.5h11.1v-64.9h7.8v64.9h5.2v-3.9h-2.3L1279.7,543.5L1279.7,543.5z"/>
			<polygon class="st2" points="1268.8,482.5 1268.8,547.4 1268.8,563.9 1276.6,563.9 1276.6,547.4 1276.6,482.5 			"/>
			<rect x="1371" y="501.9" class="st2" width="10" height="7.8"/>
			<rect x="1371" y="488.1" class="st2" width="10" height="7.8"/>
			<polygon class="st2" points="1369,509.7 1319.4,509.7 1319.4,515.8 1281.7,515.8 1281.7,523.6 1319.4,523.6 1319.4,516.6 
				1339.6,516.6 1339.6,523.2 1363.1,523.2 1363.1,516.6 1369,516.6 1369,523.6 1380.9,523.6 1380.9,515.8 1369,515.8 			"/>
			<polygon class="st2" points="1320.9,450.5 1281.7,450.5 1281.7,468.2 1319.4,468.2 1319.4,460.4 1371,460.4 1371,468.2 
				1319.4,468.2 1319.4,474.2 1371,474.2 1371,482 1380.9,482 1380.9,450.5 1380.9,450.5 			"/>
			<rect x="1369" y="529.6" class="st2" width="12" height="7.8"/>
			<rect x="1281.7" y="474.2" class="st2" width="37.7" height="7.8"/>
			<rect x="1281.7" y="488.1" class="st2" width="37.7" height="7.8"/>
			<rect x="1281.7" y="501.9" class="st2" width="37.7" height="7.8"/>
			<rect x="1319.4" y="482" class="st2" width="49.6" height="6"/>
			<rect x="1281.7" y="529.6" class="st2" width="37.7" height="7.8"/>
			<rect x="1319.4" y="495.9" class="st2" width="49.6" height="6"/>
			<path class="st2" d="M1339.6,523.2v48.3l0.8,0.3v-16.6h22.6v-32L1339.6,523.2L1339.6,523.2z"/>
			<polygon class="st2" points="1420,477.7 1420,458.3 1433.4,458.3 1433.4,450.5 1407.7,450.5 1380.9,450.5 1380.9,482 1404.2,482 
				1404.2,488.1 1380.9,488.1 1380.9,495.9 1404.2,495.9 1404.2,501.9 1380.9,501.9 1380.9,509.7 1404.2,509.7 1404.2,515.8 
				1380.9,515.8 1380.9,523.6 1404.2,523.6 1404.2,529.6 1380.9,529.6 1380.9,537.5 1404.2,537.5 1404.2,543.5 1380.9,543.5 
				1380.9,547.4 1407.7,547.4 1419.8,547.4 1419.8,477.7 			"/>
			<polygon class="st2" points="1508,476.1 1433.4,476.1 1433.4,458.3 1420,458.3 1420,477.7 1423.8,477.7 1423.8,801.7 1431,811.3 
				1476.7,811.3 1477.2,810.8 1477.1,810.8 1477.2,810.8 1477.2,477.7 1493.5,477.7 1493.5,810.8 1493.4,810.8 1493.5,811.3 
				1515.9,811.3 1515.9,486 1508,486 			"/>
			<polygon class="st2" points="1593.4,488.1 1597.2,488.1 1597.2,495 1593.4,495 1593.4,500.2 1597.2,500.2 1597.2,507.1 
				1593.4,507.1 1593.4,513.2 1597.2,513.2 1597.2,520.2 1593.4,520.2 1593.4,526.2 1597.2,526.2 1597.2,533.1 1593.4,533.1 
				1593.4,539.1 1597.2,539.1 1597.2,546.1 1593.4,546.1 1593.4,552.1 1597.2,552.1 1597.2,559 1593.4,559 1593.4,565.1 
				1597.2,565.1 1597.2,572 1593.4,572 1593.4,578.1 1597.2,578.1 1597.2,585 1593.4,585 1593.4,591 1597.2,591 1597.2,598 
				1593.4,598 1593.4,604 1597.2,604 1597.2,610.9 1593.4,610.9 1593.4,617 1597.2,617 1597.2,623.9 1593.4,623.9 1593.4,630 
				1597.2,630 1597.2,636.9 1593.4,636.9 1593.4,642.9 1597.2,642.9 1597.2,649.9 1593.4,649.9 1593.4,655.9 1597.2,655.9 
				1597.2,662.8 1593.4,662.8 1593.4,668.9 1597.2,668.9 1597.2,675.8 1593.4,675.8 1593.4,681.9 1597.2,681.9 1597.2,688.8 
				1593.4,688.8 1593.4,694 1599.8,694 1599.8,705.7 1601.9,705.7 1601.9,477.4 1593.4,477.4 			"/>
			<polygon class="st2" points="1530.2,694 1530.2,688.8 1527.4,688.8 1527.4,681.9 1530.2,681.9 1530.2,675.8 1527.4,675.8 
				1527.4,668.9 1530.2,668.9 1530.2,662.8 1527.4,662.8 1527.4,655.9 1530.2,655.9 1530.2,649.9 1527.4,649.9 1527.4,642.9 
				1530.2,642.9 1530.2,636.9 1527.4,636.9 1527.4,630 1530.2,630 1530.2,623.9 1527.4,623.9 1527.4,617 1530.2,617 1530.2,610.9 
				1527.4,610.9 1527.4,604 1530.2,604 1530.2,598 1527.4,598 1527.4,591 1530.2,591 1530.2,585 1527.4,585 1527.4,578.1 
				1530.2,578.1 1530.2,572 1527.4,572 1527.4,565.1 1530.2,565.1 1530.2,559 1527.4,559 1527.4,552.1 1530.2,552.1 1530.2,546.1 
				1527.4,546.1 1527.4,539.1 1530.2,539.1 1530.2,533.1 1527.4,533.1 1527.4,526.2 1530.2,526.2 1530.2,520.2 1527.4,520.2 
				1527.4,513.2 1530.2,513.2 1530.2,507.1 1527.4,507.1 1527.4,500.2 1530.2,500.2 1530.2,495 1527.4,495 1527.4,488.1 
				1530.2,488.1 1530.2,486 1523.1,486 1523.1,705.7 1524.8,705.7 1524.8,694 			"/>
			<polygon class="st2" points="1530.2,476.1 1508,476.1 1508,486 1515.9,486 1523.1,486 1530.2,486 			"/>
			<rect x="1834" y="507.1" class="st2" width="3.3" height="0.5"/>
			<rect x="1601.9" y="477.4" class="st2" width="5" height="39.7"/>
			<path class="st2" d="M1927.7,477.7v-0.3h-140.8v1.2h-6.5v-1.2h-8.5v1.2h-14.3v-1.2h-8.4v1.2h-6.5v-1.2h-42.9
				c-0.5,0.2-1,0.3-1.5,0.3h-15.5c-0.5,0-1-0.1-1.5-0.3h-6.8v11.7c0.4-0.1,0.8-0.2,1.1-0.2h3.2c2.6,0,4.5,2.7,4.5,6s-2.1,6-4.5,6
				h-3.3c-0.4,0-0.8-0.1-1.1-0.2v11.1h17.3c0.7-1.3,2.1-2.1,3.7-2.2l0,0c1.6,0.1,3,0.9,3.7,2.2h43.6v-5.7h6.5v5.7h8.4v-5.7h14.3v5.7
				h8.5v-5.7h6.5v5.7h1.6v5.2h9.2c-0.2-0.6-0.2-1.2-0.2-1.8c0-3.1,1.9-5.6,4.3-5.6h3.8v-8.2h25.1v-0.5h6.8v-3.8h37v-8.3h9.8v8.3
				h13.3V517h44.3v-39.2L1927.7,477.7z M1749.1,501.1h-6.5v-6h6.5V501.1z M1749.1,489.8h-6.5v-6h6.5V489.8z M1771.8,501.1h-14.3v-6
				h14.3V501.1z M1771.8,489.8h-14.3v-6h14.3V489.8z M1786.9,501.1h-6.5v-6h6.5V501.1z M1786.9,489.8h-6.5v-6h6.5V489.8z
				 M1818.2,490.7c0,3.8-2.4,6.9-5.2,6.9l0,0c-2.9,0-5.2-3.1-5.2-6.9v-5.2c0-3.8,2.4-6.9,5.2-6.9l0,0c2.9,0,5.2,3.1,5.2,6.9V490.7z
				 M1865.6,495.9h-35.1v-6h35.1V495.9z M1907.5,509.3c0,1.7-1,3.1-2.3,3.1s-2.3-1.4-2.3-3.1v-7.8c0-1.7,1-3,2.3-3s2.3,1.4,2.3,3
				V509.3z M1921.9,510.6c0,3.3-2.1,6-4.5,6s-4.5-2.7-4.5-6v-1.8c0-3.3,2.1-6,4.5-6s4.5,2.7,4.5,6V510.6z"/>
			<path class="st2" d="M1671.7,512h2.6v-11.1c-2-0.7-3.5-3.1-3.5-5.9s1.5-5.2,3.5-5.9v-11.7h-27.6v300h-38.3v3.4h65.9V543h-2.6V512
				z"/>
			<path class="st2" d="M1787,512v0.4h-6.5V512h-8.5v0.4h-14.3V512h-8.4v0.4h-1.8v5.2h1.8v6h-1.8v5.2h1.8v6.1h-1.8v5.2h1.8v6h-5v5.2
				h5v6h-5v5.2h5v6h-5v5.2h5v6h-5v5.2h5v6h-5v5.1h5v6h-5v5.2h5v6h-5v5.2h5v6h-5v5.2h5v6h-5v5.2h5v6h-5v5.2h5v6h-5v5.2h5v6h-5v5.2h5
				v6h-5v5.2h5v6h-5v5.2h5v6h-5v5.2h5v6h-5v5.1h5v6h-5v5.2h5v0.5h3.3v-0.5h0.8V536.1h27.3v3h6.3v6h-6.3v5.2h6.3v6h-6.3v5.2h6.3v6
				h-6.3v5.2h6.3v6h-6.3v5.2h6.3v6h-6.3v5.2h6.3v6h-6.3v5.2h6.3v6h-6.3v5.2h6.3v6h-6.3v5.2h6.3v6h-6.3v5.2h6.3v6h-6.3v5.2h6.3v6
				h-6.3v5.2h6.3v6h-6.3v5.2h6.3v6h-6.3v5.2h6.3v6h-6.3v5.2h6.3v6h-6.3v5.2h6.3v6h-6.3v5.1h6.3v6h-6.3v5.2h6.3v0.5h1.6V510.2
				L1787,512L1787,512z M1771.9,534.8h-14.3v-6h14.3V534.8z M1771.9,523.6h-14.3v-6h14.3V523.6z M1787,534.8h-6.5v-6h6.5V534.8z
				 M1787,523.6h-6.5v-6h6.5V523.6z"/>
			<path class="st2" d="M1777.2,731.6h3.3v-0.5h0.2v-5.2h-0.2v-6h0.2v-5.2h-0.2v-6h0.2v-5.2h-0.2v-6h0.2v-5.2h-0.2v-6h0.2v-5.2h-0.2
				v-6h0.2v-5.2h-0.2v-6h0.2v-5.1h-0.2v-6h0.2v-5.2h-0.2v-6h0.2v-5.2h-0.2v-6h0.2v-5.2h-0.2v-6h0.2V614h-0.2v-6h0.2v-5.2h-0.2v-6
				h0.2v-5.2h-0.2v-6h0.2v-5.2h-0.2v-6h0.2v-5.2h-0.2v-6h0.2V558h-0.2v-6h0.2v-5.2h-0.2v-6h0.2v-3h-27.4V732h23.9V731.6z
				 M1771.9,726h-14.3v-6h14.3V726z M1771.9,714.7h-14.3v-6h14.3V714.7z M1771.9,703.5h-14.3v-6h14.3V703.5z M1771.9,692.3h-14.3v-6
				h14.3V692.3z M1771.9,681h-14.3v-6h14.3V681z M1771.9,669.8h-14.3v-6h14.3V669.8z M1771.9,658.5h-14.3v-6h14.3V658.5z
				 M1771.9,647.3h-14.3v-6h14.3V647.3z M1771.9,636h-14.3v-6h14.3V636z M1771.9,624.8h-14.3v-6h14.3V624.8z M1771.9,613.5h-14.3v-6
				h14.3V613.5z M1771.9,602.3h-14.3v-6h14.3V602.3z M1771.9,591h-14.3v-6h14.3V591z M1771.9,579.8h-14.3v-6h14.3V579.8z
				 M1771.9,568.5h-14.3v-6h14.3V568.5z M1771.9,557.4h-14.3v-6h14.3V557.4z M1771.9,546.1h-14.3v-6h14.3V546.1z"/>
			<path class="st2" d="M1747.3,540v-5.1h-4.7v-6h4.7v-5.2h-4.7v-6h4.7v-5.2h-4.7v-0.4H1699c0.8,1.3,1.3,2.8,1.2,4.3v3.4
				c0,3.5-2.2,6.5-4.8,6.5l0,0c-2.7,0-4.8-2.9-4.8-6.5v-3.4c0-1.5,0.4-3,1.2-4.3h-19.9v31.2h32.6v-15.5h28.7v15.5h9.6v-3.1
				L1747.3,540z"/>
			<path class="st2" d="M1704.3,527.5v31.2h28.7v-31.2H1704.3z M1713.2,555.6v-25.9h13.1v25.9H1713.2z"/>
			<polygon class="st2" points="1830.5,529.6 1830.5,523.6 1830.8,523.6 1830.8,518.4 1830.5,518.4 1830.5,512.3 1830.8,512.3 
				1830.8,507.6 1834,507.6 1834,507.1 1830.5,507.1 1830.5,501.6 1805.4,501.6 1805.4,509.7 1813.9,509.7 1813.9,507.6 
				1825.5,507.6 1825.5,532.7 1830.8,532.7 1830.8,529.6 			"/>
			<rect x="1805.4" y="521" class="st2" width="8.5" height="11.7"/>
			<path class="st2" d="M1825.5,507.6h-11.8v2.1h0.1c2.4,0,4.3,2.5,4.3,5.6s-1.9,5.6-4.3,5.6h-0.1v26.4h11.8V507.6L1825.5,507.6z"/>
			<polygon class="st2" points="1834,532.7 1834,529.6 1830.8,529.6 1830.8,532.7 1830.8,534.8 1834,534.8 			"/>
			<polygon class="st2" points="1837.3,512.3 1837.3,507.6 1834,507.6 1830.8,507.6 1830.8,512.3 			"/>
			<polygon class="st2" points="1834,522.3 1837.3,522.3 1837.3,518.4 1830.8,518.4 1830.8,523.6 1834,523.6 			"/>
			<rect x="1834" y="522.3" class="st2" width="3.3" height="1.2"/>
			<polygon class="st2" points="1837.3,529.6 1834,529.6 1834,532.7 1834,534.8 1837.3,534.8 1837.3,532.7 			"/>
			<polygon class="st2" points="1865.6,507.1 1837.3,507.1 1837.3,507.6 1837.3,512.3 1865.6,512.3 1865.6,518.4 1837.3,518.4 
				1837.3,522.3 1837.3,523.6 1865.6,523.6 1865.6,529.6 1837.3,529.6 1837.3,532.7 1837.3,534.8 1865.6,534.8 1865.6,540.9 
				1837.3,540.9 1837.3,545.4 1865.6,545.4 1865.6,551.4 1837.3,551.4 1837.3,556.4 1865.6,556.4 1865.6,562.5 1837.3,562.5 
				1837.3,567.6 1865.6,567.6 1865.6,573.6 1837.3,573.6 1837.3,578.7 1865.6,578.7 1865.6,584.7 1837.3,584.7 1837.3,589.7 
				1865.6,589.7 1865.6,595.8 1837.3,595.8 1837.3,600.9 1865.6,600.9 1865.6,606.9 1837.3,606.9 1837.3,611.9 1865.6,611.9 
				1865.6,618 1837.3,618 1837.3,623 1865.6,623 1865.6,629.1 1837.3,629.1 1837.3,634.2 1865.6,634.2 1865.6,640.2 1837.3,640.2 
				1837.3,645.2 1865.6,645.2 1865.6,651.3 1837.3,651.3 1837.3,656.4 1865.6,656.4 1865.6,662.4 1837.3,662.4 1837.3,667.5 
				1865.6,667.5 1865.6,673.5 1837.3,673.5 1837.3,678.5 1865.6,678.5 1865.6,684.6 1837.3,684.6 1837.3,689.7 1865.6,689.7 
				1865.6,695.7 1837.3,695.7 1837.3,700.8 1865.6,700.8 1865.6,706.8 1837.3,706.8 1837.3,711.3 1865.6,711.3 1865.6,717.3 
				1837.3,717.3 1837.3,722.5 1865.6,722.5 1865.6,728.6 1837.3,728.6 1837.3,733.8 1865.6,733.8 1865.6,739.8 1837.3,739.8 
				1837.3,745 1865.6,745 1865.6,751.1 1837.3,751.1 1837.3,756.3 1865.6,756.3 1865.6,758.4 1874.3,758.4 1874.3,497.3 
				1837.3,497.3 1837.3,501.1 1865.6,501.1 			"/>
			<polygon class="st2" points="1884.1,497.3 1884.1,759.7 1881.9,761.8 1897.3,761.8 1897.3,517.1 1897.3,497.3 			"/>
			<rect x="1530.2" y="520.2" class="st2" width="63.2" height="6"/>
			<rect x="1530.2" y="495" class="st2" width="63.2" height="5.2"/>
			<rect x="1530.2" y="533.1" class="st2" width="63.2" height="6"/>
			<rect x="1530.2" y="507.1" class="st2" width="63.2" height="6"/>
			<polygon class="st2" points="1530.2,486 1530.2,488.1 1593.4,488.1 1593.4,477.4 1533.4,477.4 1533.4,476.1 1530.2,476.1 			"/>
			<path class="st2" d="M1927.7,446.8h-13.1v6.7h-7.2v16.4h-49.8v-16.4h-62.9v-6.7h-83.5v10.1h-50.8v-10.1h-13.6v30.6h34.4
				c-1.8-0.8-3.2-3.1-3.2-5.8c0-3.3,2.1-6,4.5-6h15.6c2.6,0,4.5,2.7,4.5,6c0,2.7-1.3,4.9-3.2,5.8h42.9v-4.8h6.5v4.8h8.4v-4.8h14.3
				v4.8h8.5v-4.8h6.5v4.8h140.8v-30.6H1927.7z M1783.3,463h-20.2c-3.1,0-5.5-3.3-5.5-7.3s2.5-7.3,5.5-7.3h20.2
				c3.1,0,5.5,3.3,5.5,7.3S1786.4,463,1783.3,463L1783.3,463z"/>
			<polygon class="st2" points="1607,446.8 1570.5,446.8 1570.5,458.7 1555.2,458.7 1555.2,476.1 1533.4,476.1 1533.4,477.4 
				1593.4,477.4 1601.9,477.4 1601.9,477.4 1607,477.4 			"/>
			<rect x="1857.6" y="453.5" class="st2" width="49.8" height="16.4"/>
			<path class="st2" d="M1543.7,446.8h-45v5.4c0,4.1-2.5,7.3-5.5,7.3c-3.1,0-5.5-3.3-5.5-7.3v-5.4h-54.3v29.3h121.9v-17.4h-11.6
				V446.8L1543.7,446.8z"/>
			<polygon class="st4" points="947.5,446.8 947.5,505 947.9,505 957.7,505 970.1,505 983.1,505 990.4,505 1006,505 1040.5,505 
				1040.5,446.8 			"/>
			<path class="st2" d="M1146.6,450.9v-4.1h-20v58.3h37.7c0-0.3,0-0.7,0-0.9v-26c0-4.6,2.8-8.2,6.2-8.2c3.5,0,6.2,3.7,6.2,8.2v25.9
				c0,0.3,0,0.7,0,0.9h4.5v-54.1L1146.6,450.9L1146.6,450.9z"/>
			<polygon class="st2" points="1194.9,505 1194.9,446.8 1185.8,446.8 1185.8,505 1194.4,505 			"/>
			<polygon class="st3" points="1126.7,505 1126.7,446.8 1040.5,446.8 1040.5,505 1040.5,649.9 1041.8,649.9 1126.7,649.9 			"/>
			<rect x="1146.6" y="446.8" class="st3" width="34.5" height="4.1"/>
			<path class="st3" d="M1176.6,478.1c0-4.6-2.8-8.2-6.2-8.2c-3.5,0-6.2,3.7-6.2,8.2V504c0,0.3,0,0.7,0,0.9c0.4,4.1,3,7.3,6.1,7.3
				c0.4,0,0.7-0.1,1.1-0.2c2.7-0.7,4.7-3.5,5-7.2c0-0.3,0-0.7,0-0.9L1176.6,478.1z"/>
			<polygon class="st3" points="1194.9,446.8 1194.9,505 1194.9,710.1 1194.9,713 1202.7,713 1202.7,693.8 1202.7,446.8 			"/>
			<polygon class="st3" points="1185.8,713 1185.8,505 1185.8,446.8 1181.2,446.8 1181.2,450.9 1181.2,505 1181.2,713 			"/>
			<polygon class="st3" points="1243.8,726.8 1243.8,710.1 1243.8,446.8 1230.8,446.8 1231,710.1 1231,716.6 1231,768.1 1231,772.1 
				1243.8,753.7 1243.8,749.4 			"/>
			<polygon class="st3" points="1248.3,446.8 1248.3,710.1 1248.3,719.1 1256.1,719.1 1256.1,710.1 1256.1,446.8 			"/>
			<path class="st3" d="M1260.8,448.4v13.9c0,4.3,2.7,7.8,5.8,7.8c3.2,0,5.8-3.4,5.8-7.8v-13.9c0-0.5,0-1-0.1-1.5h-11.5
				C1260.8,447.3,1260.8,447.9,1260.8,448.4z"/>
			<polygon class="st3" points="1339.6,577.2 1339.6,571.5 1339.6,523.2 1339.6,516.6 1319.4,516.6 1319.4,523.6 1319.4,523.6 
				1319.4,529.6 1319.4,529.6 1319.4,537.5 1319.4,537.5 1319.4,543.5 1319.4,543.5 1319.4,551.2 1319.4,551.2 1319.4,557.4 
				1319.4,557.4 1319.4,577.2 1319.7,577.2 			"/>
			<polygon class="st3" points="1369,590.2 1369,585.8 1369,581.5 1369,573.7 1369,567.7 1369,557.4 1369,551.2 1369,543.5 
				1369,537.5 1369,529.6 1369,523.6 1369,516.6 1363.1,516.6 1363.1,523.2 1363.1,555.2 1363.1,590.2 1363.1,659.4 1363.2,659.4 
				1369,659.4 			"/>
			<polygon class="st3" points="1319.4,537.5 1319.4,537.5 1281.7,537.5 1279.7,537.5 1279.7,543.5 1281.7,543.5 1319.4,543.5 
				1319.4,543.5 			"/>
			<polygon class="st3" points="1319.4,529.6 1319.4,523.6 1319.4,523.6 1281.7,523.6 1279.7,523.6 1279.7,529.6 1281.7,529.6 			
				"/>
			<polygon class="st3" points="1319.4,509.7 1319.4,509.7 1281.7,509.7 1279.7,509.7 1279.7,515.8 1281.7,515.8 1319.4,515.8 			
				"/>
			<polygon class="st3" points="1319.4,501.9 1319.4,501.9 1319.4,495.9 1319.4,495.9 1281.7,495.9 1279.7,495.9 1279.7,501.9 
				1281.7,501.9 			"/>
			<polygon class="st3" points="1319.4,488.1 1319.4,482 1319.4,482 1281.7,482 1279.7,482 1279.7,488.1 1281.7,488.1 			"/>
			<polygon class="st3" points="1319.4,474.2 1319.4,468.2 1319.4,468.2 1281.7,468.2 1279.7,468.2 1279.7,474.2 1281.7,474.2 			
				"/>
			<polygon class="st3" points="1319.4,501.9 1319.4,501.9 1319.4,501.9 1319.4,509.7 1319.4,509.7 1369,509.7 1371,509.7 
				1371,501.9 1369,501.9 1369,501.9 			"/>
			<polygon class="st3" points="1319.4,488.1 1319.4,488.1 1319.4,495.9 1319.4,495.9 1369,495.9 1371,495.9 1371,488.1 1369,488.1 
							"/>
			<polygon class="st3" points="1319.4,482 1319.4,482 1369,482 1371,482 1371,474.2 1319.4,474.2 1319.4,474.2 			"/>
			<polygon class="st3" points="1371,468.2 1371,460.4 1319.4,460.4 1319.4,468.2 1319.4,468.2 			"/>
			<polygon class="st3" points="1369,543.5 1380.9,543.5 1404.2,543.5 1404.2,537.5 1380.9,537.5 1369,537.5 			"/>
			<polygon class="st3" points="1369,529.6 1380.9,529.6 1404.2,529.6 1404.2,523.6 1380.9,523.6 1369,523.6 			"/>
			<polygon class="st3" points="1369,509.7 1369,515.8 1380.9,515.8 1404.2,515.8 1404.2,509.7 1380.9,509.7 1371,509.7 			"/>
			<polygon class="st3" points="1369,495.9 1369,501.9 1369,501.9 1371,501.9 1380.9,501.9 1404.2,501.9 1404.2,495.9 1380.9,495.9 
				1371,495.9 			"/>
			<polygon class="st3" points="1369,482 1369,488.1 1371,488.1 1380.9,488.1 1404.2,488.1 1404.2,482 1380.9,482 1371,482 			"/>
			<polygon class="st3" points="1477.2,810.8 1493.4,810.8 1493.4,810.8 1493.5,810.8 1493.5,477.7 1477.2,477.7 			"/>
			<polygon class="st3" points="1423.7,801.6 1423.8,801.7 1423.8,477.7 1420,477.7 1419.8,477.7 1419.8,547.4 1419.8,810.8 			"/>
			<path class="st3" d="M1493.2,459.5c3.1,0,5.5-3.3,5.5-7.3v-5.4h-11.1v5.4C1487.7,456.3,1490.1,459.5,1493.2,459.5z"/>
			<polygon class="st3" points="1543.7,446.8 1543.7,458.7 1555.2,458.7 1570.5,458.7 1570.5,446.8 			"/>
			<polygon class="st3" points="1527.4,539.1 1527.4,546.1 1530.2,546.1 1593.4,546.1 1597.2,546.1 1597.2,539.1 1593.4,539.1 
				1530.2,539.1 			"/>
			<polygon class="st3" points="1527.4,526.2 1527.4,533.1 1530.2,533.1 1593.4,533.1 1597.2,533.1 1597.2,526.2 1593.4,526.2 
				1530.2,526.2 			"/>
			<polygon class="st3" points="1527.4,513.2 1527.4,520.2 1530.2,520.2 1593.4,520.2 1597.2,520.2 1597.2,513.2 1593.4,513.2 
				1530.2,513.2 			"/>
			<polygon class="st3" points="1527.4,500.2 1527.4,507.1 1530.2,507.1 1593.4,507.1 1597.2,507.1 1597.2,500.2 1593.4,500.2 
				1530.2,500.2 			"/>
			<polygon class="st3" points="1527.4,488.1 1527.4,495 1530.2,495 1593.4,495 1597.2,495 1597.2,488.1 1593.4,488.1 1530.2,488.1 
							"/>
			<polygon class="st3" points="1646.7,477.4 1646.7,446.8 1607,446.8 1607,477.4 1607,517.1 1607,777.4 1608.4,777.4 1646.7,777.4 
							"/>
			<rect x="1660.5" y="446.8" class="st6" width="50.8" height="10.1"/>
			<path class="st3" d="M1702.8,471.7c0-3.3-2.1-6-4.5-6h-15.6c-2.6,0-4.5,2.7-4.5,6c0,2.7,1.3,4.9,3.2,5.8c0.5,0.2,1,0.3,1.5,0.3
				h15.6c0.5,0,1-0.1,1.5-0.3C1701.5,476.6,1702.8,474.3,1702.8,471.7z"/>
			<path class="st3" d="M1670.8,495c0,2.8,1.5,5.2,3.5,5.9c0.4,0.1,0.8,0.2,1.1,0.2h3.3c2.6,0,4.5-2.7,4.5-6s-2.1-6-4.5-6h-3.3
				c-0.4,0-0.8,0.1-1.1,0.2C1672.3,489.8,1670.8,492.2,1670.8,495z"/>
			<path class="st3" d="M1690.4,519.7c0,3.5,2.2,6.5,4.8,6.5l0,0c2.7,0,4.8-2.9,4.8-6.5v-3.4c0-1.5-0.4-3-1.2-4.3
				c-0.7-1.3-2.1-2.1-3.7-2.2l0,0c-1.6,0.1-3,0.9-3.7,2.2c-0.8,1.3-1.3,2.8-1.2,4.3L1690.4,519.7L1690.4,519.7z"/>
			<rect x="1713.3" y="529.6" class="st3" width="13.1" height="25.9"/>
			<rect x="1757.6" y="540" class="st3" width="14.3" height="6"/>
			<polygon class="st3" points="1780.4,546.1 1780.6,546.1 1787,546.1 1787,540 1780.6,540 1780.4,540 			"/>
			<polygon class="st3" points="1749.1,540 1747.3,540 1742.6,540 1742.6,543 1742.6,546.1 1744,546.1 1749.1,546.1 			"/>
			<rect x="1757.6" y="528.7" class="st3" width="14.3" height="6"/>
			<rect x="1780.4" y="528.7" class="st3" width="6.5" height="6"/>
			<polygon class="st3" points="1742.6,528.7 1742.6,534.8 1747.3,534.8 1749.1,534.8 1749.1,528.7 1747.3,528.7 			"/>
			<rect x="1757.6" y="517.5" class="st3" width="14.3" height="6"/>
			<polygon class="st3" points="1771.9,512.3 1771.9,512 1771.9,506.3 1757.6,506.3 1757.6,512 1757.6,512.3 			"/>
			<rect x="1780.4" y="517.5" class="st3" width="6.5" height="6"/>
			<polygon class="st3" points="1787,512.3 1787,512 1787,506.3 1780.4,506.3 1780.4,512 1780.4,512.3 			"/>
			<polygon class="st3" points="1742.6,517.5 1742.6,523.6 1747.3,523.6 1749.1,523.6 1749.1,517.5 1747.3,517.5 			"/>
			<polygon class="st3" points="1747.3,512.3 1749.1,512.3 1749.1,512 1749.1,506.3 1742.6,506.3 1742.6,512 1742.6,512.3 			"/>
			<rect x="1757.6" y="495" class="st3" width="14.3" height="6"/>
			<rect x="1780.4" y="495" class="st3" width="6.5" height="6"/>
			<rect x="1742.6" y="495" class="st3" width="6.5" height="6"/>
			<rect x="1757.6" y="483.8" class="st3" width="14.3" height="6"/>
			<polygon class="st3" points="1757.6,472.5 1757.6,477.4 1757.6,478.6 1771.9,478.6 1771.9,477.4 1771.9,472.5 			"/>
			<rect x="1780.4" y="483.8" class="st3" width="6.5" height="6"/>
			<polygon class="st3" points="1780.4,472.5 1780.4,477.4 1780.4,478.6 1787,478.6 1787,477.4 1787,472.5 			"/>
			<rect x="1742.6" y="483.8" class="st3" width="6.5" height="6"/>
			<polygon class="st3" points="1742.6,472.5 1742.6,477.4 1742.6,478.6 1749.1,478.6 1749.1,477.4 1749.1,472.5 			"/>
			<path class="st3" d="M1788.8,455.7c0-4.1-2.5-7.3-5.5-7.3h-20.2c-3.1,0-5.5,3.3-5.5,7.3s2.5,7.3,5.5,7.3h20.2
				C1786.4,463,1788.8,459.7,1788.8,455.7z"/>
			<path class="st3" d="M1814,521c2.4,0,4.3-2.5,4.3-5.6s-1.9-5.6-4.3-5.6h-12.4c-2.4,0-4.3,2.5-4.3,5.6c0,0.6,0.1,1.2,0.2,1.8
				c0.6,2.2,2.2,3.8,4.1,3.8L1814,521L1814,521z"/>
			<path class="st3" d="M1813,478.6L1813,478.6c-2.9,0-5.2,3.1-5.2,6.9v5.2c0,3.8,2.4,6.9,5.2,6.9l0,0c2.9,0,5.2-3.1,5.2-6.9v-5.2
				C1818.2,481.6,1815.8,478.6,1813,478.6z"/>
			<polygon class="st3" points="1857.6,453.5 1907.4,453.5 1914.7,453.5 1914.7,446.8 1895.9,446.8 1895.9,448.4 1882.8,448.4 
				1882.8,446.8 1871,446.8 1871,448.4 1827.3,448.4 1827.3,446.8 1807.8,446.8 1807.8,448.4 1797.3,448.4 1797.3,446.8 
				1794.8,446.8 1794.8,453.5 			"/>
			<rect x="1797.3" y="446.8" class="st6" width="10.5" height="1.5"/>
			<rect x="1827.3" y="446.8" class="st6" width="43.7" height="1.5"/>
			<rect x="1882.8" y="446.8" class="st6" width="13.1" height="1.5"/>
			<polygon class="st3" points="1948,446.8 1927.7,446.8 1927.7,477.4 1927.7,477.7 1941.7,477.7 1948,477.7 1948,477.4 			"/>
			<polygon class="st3" points="1837.3,540.9 1865.6,540.9 1865.6,534.8 1837.3,534.8 1834,534.8 1830.8,534.8 1830.5,534.8 
				1830.5,540.9 1830.8,540.9 1834,540.9 			"/>
			<polygon class="st3" points="1865.6,529.6 1865.6,523.6 1837.3,523.6 1834,523.6 1830.8,523.6 1830.5,523.6 1830.5,529.6 
				1830.8,529.6 1834,529.6 1837.3,529.6 			"/>
			<polygon class="st3" points="1837.3,518.4 1865.6,518.4 1865.6,512.3 1837.3,512.3 1830.8,512.3 1830.5,512.3 1830.5,518.4 
				1830.8,518.4 			"/>
			<polygon class="st3" points="1834,507.1 1837.3,507.1 1865.6,507.1 1865.6,501.1 1837.3,501.1 1830.5,501.1 1830.5,501.6 
				1830.5,507.1 			"/>
			<polygon class="st3" points="1874.3,758.4 1874.3,759.7 1872.7,761.8 1866.7,769.5 1860,778.3 1845.5,797 1863.4,779.7 
				1864.8,778.3 1866.7,776.5 1881.9,761.8 1884.1,759.7 1884.1,497.3 1884.1,489 1874.3,489 1874.3,497.3 			"/>
			<rect x="1830.5" y="489.8" class="st3" width="35.1" height="6"/>
			<path class="st3" d="M1905.3,498.5c-1.3,0-2.3,1.4-2.3,3v7.8c0,1.7,1,3.1,2.3,3.1s2.3-1.4,2.3-3.1v-7.8
				C1907.5,499.9,1906.5,498.5,1905.3,498.5z"/>
			<path class="st3" d="M1917.3,502.9c-2.6,0-4.5,2.7-4.5,6v1.8c0,3.3,2.1,6,4.5,6s4.5-2.7,4.5-6v-1.8
				C1921.9,505.6,1919.8,502.9,1917.3,502.9z"/>
			<path class="st7" d="M1161.2-450.5c0.8,0,1.5-0.7,1.5-1.4c0-0.7-0.7-1.4-1.5-1.4s-1.5,0.7-1.5,1.4
				C1159.7-451.2,1160.4-450.5,1161.2-450.5z"/>
		</g>
	</g>
</g>
<g>
	<g>
		<defs>
			<rect id="SVGID_3_" y="-563.2" width="1919.1" height="1082.6"/>
		</defs>
		<clipPath id="SVGID_4_">
			<use xlink:href="#SVGID_3_"  style="overflow:visible;"/>
		</clipPath>
		<g class="st8">
			<rect x="1794.6" y="349.4" class="st2" width="44.4" height="112.8"/>
			<path class="st2" d="M1836.3,296.9h-167.1c0-43.4,37.4-78.6,83.5-78.6S1836.3,253.5,1836.3,296.9z"/>
			<rect x="1693.3" y="296.9" class="st2" width="124.3" height="159.5"/>
			<path class="st3" d="M1744.6,218.3c0,0-17.4,5.4-37.7,30.6s-21.2,46.1-21.2,46.1l39.2,46.1c0,0,1.7-60.8,3.4-76.7
				C1730,248.4,1744.6,218.3,1744.6,218.3z"/>
			<path class="st3" d="M1755.9,218.9c-3.6,0.8-6.3,15.2-8.5,28.3c-2.1,13.2-5,60.5-5,60.5l46,33.3c0,0-0.5-66.2-3.2-78.9
				c-2.7-12.6-10.9-41.2-16.5-42.7C1764.7,218.3,1759.8,218,1755.9,218.9z"/>
			<path class="st3" d="M1777.3,221.3c0,0,35,10.4,50.5,42.8c16.3,34,12.5,64.8,12.5,64.8l-37.7-33.8c0,0-1.5-25.6-6.8-40.9
				C1791.5,242.2,1777.3,221.3,1777.3,221.3z"/>
			<path class="st3" d="M1722.5,223.4c0,0-31.5,12.9-44.5,34.6c-11.5,19.2-13.9,41.4-13.9,41.4s5.5-3.6,5.8-5.5
				C1679.4,244.5,1722.5,223.4,1722.5,223.4z"/>
			<polygon class="st2" points="1694.2,470 1648.7,470 1648.7,299.5 1694.2,310.5 			"/>
			<path id="Path_96_3_" class="st3" d="M1681.1,320.3l-22.4-12.6l28.9,12.6v161.5h-6.5V320.3L1681.1,320.3z"/>
			<rect x="1660.3" y="327" class="st3" width="16.8" height="3.5"/>
			<rect x="1660.3" y="333.4" class="st3" width="16.8" height="3.5"/>
			<rect x="1660.3" y="339.9" class="st3" width="16.8" height="3.5"/>
			<rect x="1660.3" y="346.3" class="st3" width="16.8" height="3.5"/>
			<rect x="1660.3" y="352.6" class="st3" width="16.8" height="3.5"/>
			<rect x="1660.3" y="358.9" class="st3" width="16.8" height="3.5"/>
			<rect x="1660.3" y="365.5" class="st3" width="16.8" height="3.5"/>
			<rect x="1660.3" y="371.8" class="st3" width="16.8" height="3.5"/>
			<rect x="1660.3" y="378.1" class="st3" width="16.8" height="3.5"/>
			<rect x="1660.3" y="384.4" class="st3" width="16.8" height="3.5"/>
			<rect x="1660.3" y="391" class="st3" width="16.8" height="3.5"/>
			<rect x="1660.3" y="397.3" class="st3" width="16.8" height="3.5"/>
			<rect x="1660.3" y="403.6" class="st3" width="16.8" height="3.5"/>
			<rect x="1660.3" y="409.9" class="st3" width="16.8" height="3.5"/>
			<rect x="1660.3" y="416.5" class="st3" width="16.8" height="3.5"/>
			<rect x="1660.3" y="422.8" class="st3" width="16.8" height="3.5"/>
			<rect x="1660.3" y="429.1" class="st3" width="16.8" height="3.5"/>
			<rect x="1660.3" y="435.5" class="st3" width="16.8" height="3.5"/>
			<rect x="1660.3" y="442" class="st3" width="16.8" height="3.5"/>
			<rect x="1715.6" y="321.2" class="st3" width="8.6" height="141"/>
			<rect x="1780" y="332.1" class="st3" width="8.6" height="134.7"/>
			<rect x="1802.5" y="295" class="st3" width="8.6" height="171.8"/>
			<rect x="1747.4" y="345.9" class="st3" width="37.6" height="3.3"/>
			<rect x="1747.4" y="351.9" class="st3" width="37.6" height="3.3"/>
			<rect x="1747.4" y="357.8" class="st3" width="37.6" height="3.3"/>
			<rect x="1747.4" y="363.8" class="st3" width="37.6" height="3.3"/>
			<rect x="1747.4" y="370.1" class="st3" width="37.6" height="3.3"/>
			<rect x="1747.4" y="376.1" class="st3" width="37.6" height="3.3"/>
			<rect x="1747.4" y="382.1" class="st3" width="37.6" height="3.3"/>
			<rect x="1747.4" y="388.1" class="st3" width="37.6" height="3.3"/>
			<rect x="1747.4" y="394.1" class="st3" width="37.6" height="3.3"/>
			<rect x="1747.4" y="400.1" class="st3" width="37.6" height="3.3"/>
			<rect x="1747.4" y="406.3" class="st3" width="37.6" height="3.3"/>
			<rect x="1747.4" y="412.3" class="st3" width="37.6" height="3.3"/>
			<rect x="1747.4" y="418.7" class="st3" width="37.6" height="3.3"/>
			<rect x="1747.4" y="424.7" class="st3" width="37.6" height="3.3"/>
			<rect x="1747.4" y="430.7" class="st3" width="37.6" height="3.3"/>
			<rect x="1747.4" y="436.7" class="st3" width="37.6" height="3.3"/>
			<rect x="1747.4" y="442.9" class="st3" width="37.6" height="3.3"/>
			<rect x="1747.4" y="448.9" class="st3" width="37.6" height="3.3"/>
			<rect x="1808.3" y="353.7" class="st3" width="18.8" height="3.3"/>
			<rect x="1808.3" y="359.7" class="st3" width="18.8" height="3.3"/>
			<rect x="1808.3" y="365.7" class="st3" width="18.8" height="3.3"/>
			<rect x="1808.3" y="371.7" class="st3" width="18.8" height="3.3"/>
			<rect x="1704.8" y="335.6" class="st3" width="4.3" height="124.9"/>
			<rect x="1732" y="352.5" class="st3" width="4.3" height="124.9"/>
			<rect x="1644.8" y="446.4" class="st2" width="202.7" height="112.8"/>
			<rect x="1678.9" y="453.8" class="st3" width="35" height="8.4"/>
			<rect x="1728.7" y="448" class="st3" width="35" height="31.4"/>
			<rect x="1822.1" y="454.9" class="st3" width="19.6" height="34.2"/>
			<rect x="1681.1" y="454.7" class="st2" width="34.5" height="14.3"/>
		</g>
	</g>
</g>
<g>
	<g>
		<defs>
			<rect id="SVGID_5_" y="-563.2" width="1919.1" height="1082.6"/>
		</defs>
		<clipPath id="SVGID_6_">
			<use xlink:href="#SVGID_5_"  style="overflow:visible;"/>
		</clipPath>
		<g id="water" class="st9">
			
				<linearGradient id="SVGID_7_" gradientUnits="userSpaceOnUse" x1="1313.1001" y1="1565.3108" x2="1313.1001" y2="1826.6108" gradientTransform="matrix(1 0 0 -1 0 2293.6216)">
				<stop  offset="0.42" style="stop-color:#FFFFFF"/>
				<stop  offset="0.53" style="stop-color:#FFFFFF;stop-opacity:0.99"/>
				<stop  offset="0.6" style="stop-color:#FFFFFF;stop-opacity:0.95"/>
				<stop  offset="0.67" style="stop-color:#FFFFFF;stop-opacity:0.89"/>
				<stop  offset="0.73" style="stop-color:#FFFFFF;stop-opacity:0.8"/>
				<stop  offset="0.79" style="stop-color:#FFFFFF;stop-opacity:0.69"/>
				<stop  offset="0.85" style="stop-color:#FFFFFF;stop-opacity:0.54"/>
				<stop  offset="0.9" style="stop-color:#FFFFFF;stop-opacity:0.38"/>
				<stop  offset="0.96" style="stop-color:#FFFFFF;stop-opacity:0.19"/>
				<stop  offset="1" style="stop-color:#FFFFFF;stop-opacity:0"/>
			</linearGradient>
			<rect x="-32.9" y="467" class="st10" width="2692" height="261.3"/>
			<rect x="-32.9" y="467" class="st11" width="2692" height="261.3"/>
		</g>
	</g>
</g>
<path class="st4" d="M500.1,400.4v17.8h25.5c0.5-2.3,4.4-4.1,9.1-4.1s8.7,1.8,9.1,4.1h26v-17.8H500.1z"/>
<path class="st4" d="M168.2,386.7v17.8h25.5c0.5-2.3,4.4-4.1,9.1-4.1s8.7,1.8,9.1,4.1h26v-17.8H168.2z"/>
<g id="steamboat-top">
	<rect x="393.2" y="423.8" class="st12" width="58.5" height="19.4"/>
	<rect x="356.5" y="443.2" class="st12" width="138.3" height="19.4"/>
	<rect x="345.7" y="462.5" class="st12" width="149.1" height="19.4"/>
	<rect x="372.5" y="392.4" class="st12" width="11.5" height="50.9"/>
	<path class="st6" d="M492.4,468.7L492.4,468.7c1.9,0,3.5,1.8,3.5,4v1.5c0,2.2-1.6,4-3.5,4l0,0c-1.9,0-3.5-1.8-3.5-4v-1.5
		C488.9,470.5,490.5,468.7,492.4,468.7z"/>
	<path class="st6" d="M356.9,466.7L356.9,466.7c1.9,0,3.5,1.8,3.5,4v1.5c0,2.2-1.6,4-3.5,4l0,0c-1.9,0-3.5-1.8-3.5-4v-1.5
		C353.3,468.5,354.9,466.7,356.9,466.7z"/>
	<path class="st6" d="M369.4,466.7L369.4,466.7c1.9,0,3.5,1.8,3.5,4v1.5c0,2.2-1.6,4-3.5,4l0,0c-1.9,0-3.5-1.8-3.5-4v-1.5
		C365.8,468.5,367.4,466.7,369.4,466.7z"/>
	<path class="st6" d="M381.9,466.7L381.9,466.7c1.9,0,3.5,1.8,3.5,4v1.5c0,2.2-1.6,4-3.5,4l0,0c-1.9,0-3.5-1.8-3.5-4v-1.5
		C378.3,468.5,379.8,466.7,381.9,466.7z"/>
	<path class="st6" d="M394.3,466.7L394.3,466.7c1.9,0,3.5,1.8,3.5,4v1.5c0,2.2-1.6,4-3.5,4l0,0c-1.9,0-3.5-1.8-3.5-4v-1.5
		C390.8,468.5,392.4,466.7,394.3,466.7z"/>
	<path class="st6" d="M406.8,466.7L406.8,466.7c1.9,0,3.5,1.8,3.5,4v1.5c0,2.2-1.6,4-3.5,4l0,0c-1.9,0-3.5-1.8-3.5-4v-1.5
		C403.3,468.5,404.9,466.7,406.8,466.7z"/>
	<path class="st6" d="M419.3,466.7L419.3,466.7c1.9,0,3.5,1.8,3.5,4v1.5c0,2.2-1.6,4-3.5,4l0,0c-1.9,0-3.5-1.8-3.5-4v-1.5
		C415.8,468.5,417.4,466.7,419.3,466.7z"/>
	<path class="st6" d="M431.8,466.7L431.8,466.7c1.9,0,3.5,1.8,3.5,4v1.5c0,2.2-1.6,4-3.5,4l0,0c-1.9,0-3.5-1.8-3.5-4v-1.5
		C428.2,468.5,429.8,466.7,431.8,466.7z"/>
	<path class="st6" d="M444.3,466.7L444.3,466.7c1.9,0,3.5,1.8,3.5,4v1.5c0,2.2-1.6,4-3.5,4l0,0c-1.9,0-3.5-1.8-3.5-4v-1.5
		C440.7,468.5,442.3,466.7,444.3,466.7z"/>
	<path class="st6" d="M456.7,466.7L456.7,466.7c1.9,0,3.5,1.8,3.5,4v1.5c0,2.2-1.6,4-3.5,4l0,0c-1.9,0-3.5-1.8-3.5-4v-1.5
		C453.2,468.5,454.8,466.7,456.7,466.7z"/>
	<path class="st6" d="M469.2,466.7L469.2,466.7c1.9,0,3.5,1.8,3.5,4v1.5c0,2.2-1.6,4-3.5,4l0,0c-1.9,0-3.5-1.8-3.5-4v-1.5
		C465.7,468.5,467.3,466.7,469.2,466.7z"/>
	<path class="st6" d="M481.7,466.7L481.7,466.7c1.9,0,3.5,1.8,3.5,4v1.5c0,2.2-1.6,4-3.5,4l0,0c-1.9,0-3.5-1.8-3.5-4v-1.5
		C478.2,468.5,479.8,466.7,481.7,466.7z"/>
	<path class="st6" d="M365.1,447.8L365.1,447.8c1.9,0,3.5,1.8,3.5,4v1.5c0,2.2-1.6,4-3.5,4l0,0c-1.9,0-3.5-1.8-3.5-4v-1.5
		C361.5,449.6,363.1,447.8,365.1,447.8z"/>
	<path class="st6" d="M377.6,447.8L377.6,447.8c1.9,0,3.5,1.8,3.5,4v1.5c0,2.2-1.6,4-3.5,4l0,0c-1.9,0-3.5-1.8-3.5-4v-1.5
		C374,449.6,375.6,447.8,377.6,447.8z"/>
	<path class="st6" d="M390.1,447.8L390.1,447.8c1.9,0,3.5,1.8,3.5,4v1.5c0,2.2-1.6,4-3.5,4l0,0c-1.9,0-3.5-1.8-3.5-4v-1.5
		C386.5,449.6,388,447.8,390.1,447.8z"/>
	<path class="st6" d="M402.5,447.8L402.5,447.8c1.9,0,3.5,1.8,3.5,4v1.5c0,2.2-1.6,4-3.5,4l0,0c-1.9,0-3.5-1.8-3.5-4v-1.5
		C399,449.6,400.6,447.8,402.5,447.8z"/>
	<path class="st6" d="M415.1,447.8L415.1,447.8c1.9,0,3.5,1.8,3.5,4v1.5c0,2.2-1.6,4-3.5,4l0,0c-1.9,0-3.5-1.8-3.5-4v-1.5
		C411.5,449.6,413,447.8,415.1,447.8z"/>
	<path class="st6" d="M427.5,447.8L427.5,447.8c1.9,0,3.5,1.8,3.5,4v1.5c0,2.2-1.6,4-3.5,4l0,0c-1.9,0-3.5-1.8-3.5-4v-1.5
		C424,449.6,425.5,447.8,427.5,447.8z"/>
	<path class="st6" d="M440,447.8L440,447.8c1.9,0,3.5,1.8,3.5,4v1.5c0,2.2-1.6,4-3.5,4l0,0c-1.9,0-3.5-1.8-3.5-4v-1.5
		C436.4,449.6,438,447.8,440,447.8z"/>
	<path class="st6" d="M452.5,447.8L452.5,447.8c1.9,0,3.5,1.8,3.5,4v1.5c0,2.2-1.6,4-3.5,4l0,0c-1.9,0-3.5-1.8-3.5-4v-1.5
		C449,449.6,450.6,447.8,452.5,447.8z"/>
	<path class="st6" d="M464.9,447.8L464.9,447.8c1.9,0,3.5,1.8,3.5,4v1.5c0,2.2-1.6,4-3.5,4l0,0c-1.9,0-3.5-1.8-3.5-4v-1.5
		C461.4,449.6,463,447.8,464.9,447.8z"/>
	<path class="st6" d="M477.5,447.8L477.5,447.8c1.9,0,3.5,1.8,3.5,4v1.5c0,2.2-1.6,4-3.5,4l0,0c-1.9,0-3.5-1.8-3.5-4v-1.5
		C473.9,449.6,475.5,447.8,477.5,447.8z"/>
	<path class="st6" d="M489.9,447.8L489.9,447.8c1.9,0,3.5,1.8,3.5,4v1.5c0,2.2-1.6,4-3.5,4l0,0c-1.9,0-3.5-1.8-3.5-4v-1.5
		C486.4,449.6,488,447.8,489.9,447.8z"/>
	<path class="st6" d="M403.1,428.9L403.1,428.9c1.9,0,3.5,1.8,3.5,4v1.5c0,2.2-1.6,4-3.5,4l0,0c-1.9,0-3.5-1.8-3.5-4v-1.5
		C399.5,430.7,401.1,428.9,403.1,428.9z"/>
	<path class="st6" d="M415.6,428.9L415.6,428.9c1.9,0,3.5,1.8,3.5,4v1.5c0,2.2-1.6,4-3.5,4l0,0c-1.9,0-3.5-1.8-3.5-4v-1.5
		C412,430.7,413.6,428.9,415.6,428.9z"/>
	<path class="st6" d="M428.1,428.9L428.1,428.9c1.9,0,3.5,1.8,3.5,4v1.5c0,2.2-1.6,4-3.5,4l0,0c-1.9,0-3.5-1.8-3.5-4v-1.5
		C424.5,430.7,426.1,428.9,428.1,428.9z"/>
	<path class="st6" d="M440.5,428.9L440.5,428.9c1.9,0,3.5,1.8,3.5,4v1.5c0,2.2-1.6,4-3.5,4l0,0c-1.9,0-3.5-1.8-3.5-4v-1.5
		C437,430.7,438.6,428.9,440.5,428.9z"/>
	<rect x="341" y="460.9" class="st13" width="156.4" height="3.3"/>
	<rect x="352.1" y="442.4" class="st13" width="145.4" height="3.3"/>
	<rect x="388.9" y="422.2" class="st13" width="66" height="3.3"/>
	<path class="st13" d="M490.5,498c21.8-12.7,29.7-28.5,29.7-28.5h-35.6l-15.9,10.8l-106.7,1l-53.9-11.8c0,0,13.1,15.8,41.1,28.5
		H490.5z"/>
	
		<ellipse transform="matrix(0.9873 -0.1589 0.1589 0.9873 -55.8838 66.5584)" class="st14" cx="388.3" cy="382.7" rx="8.5" ry="6.2"/>
	
		<ellipse transform="matrix(0.9889 -0.1484 0.1484 0.9889 -50.6928 64.4227)" class="st14" cx="406.4" cy="371.9" rx="8.5" ry="6.7"/>
	
		<ellipse transform="matrix(0.9576 -0.2881 0.2881 0.9576 -85.8113 138.501)" class="st14" cx="427.6" cy="360.8" rx="10" ry="7.2"/>
	
		<ellipse transform="matrix(0.9587 -0.2843 0.2843 0.9587 -80.5939 143.4434)" class="st14" cx="453.8" cy="349.3" rx="13.1" ry="9"/>
</g>
</svg>
