<?xml version="1.0" encoding="utf-8"?>
<!-- Generator: Adobe Illustrator 23.0.1, SVG Export Plug-In . SVG Version: 6.00 Build 0)  -->
<svg version="1.1" id="Layer_1" xmlns="http://www.w3.org/2000/svg" xmlns:xlink="http://www.w3.org/1999/xlink" x="0px" y="0px"
	 viewBox="0 0 1920 1080" style="enable-background:new 0 0 1920 1080;" xml:space="preserve">
<style type="text/css">
	.st0{fill:#EFF8FF;}
	.st1{fill:#8FC0FF;}
	.st2{fill:#24305E;}
	.st3{fill:#B3B3B3;}
	.st4{fill:#666666;}
	.st5{fill:#A8D0E6;}
	.st6{fill:#F9B8B8;}
	.st7{fill:#F76C6C;}
	.st8{fill:#F8E9A1;}
	.st9{fill:#F9DE57;}
	.st10{fill:#65BBEA;}
	.st11{fill:#566ED1;}
	.st12{fill:#374785;}
	.st13{display:none;opacity:8.000000e-02;fill:#566ED1;}
	.st14{display:none;opacity:0.3;}
	.st15{display:inline;}
	.st16{fill:#224B80;}
	.st17{fill:#FDA2A2;}
	.st18{display:none;fill:none;stroke:#A8D0E6;stroke-width:4;stroke-miterlimit:10;}
	.st19{display:none;}
	.st20{display:inline;fill:#4496FF;}
	.st21{fill:#4496FF;}
	.st22{fill:#FC6464;}
	.st23{fill:#FFFFFF;stroke:#000000;stroke-miterlimit:10;}
	.st24{fill:none;stroke:#B3B3B3;stroke-width:2;stroke-linecap:round;stroke-miterlimit:10;}
	.st25{opacity:6.000000e-02;fill:#4496FF;}
</style>
<rect id="sky" x="-115" y="-109" class="st0" width="2109" height="1284"/>
<circle class="st1" cx="1037.5" cy="1504.5" r="614.5"/>
<circle class="st2" cx="1495.5" cy="1514.5" r="614.5"/>
<g>
	<path class="st3" d="M1303.1,795.9L1303.1,795.9c-2.3,0-4.2,1.9-4.3,4.2l-4.9,192c-0.1,2.4,1.9,4.4,4.3,4.4h9.7
		c2.4,0,4.4-2,4.3-4.4l-4.9-192C1307.3,797.7,1305.4,795.9,1303.1,795.9z"/>
	<path class="st3" d="M1312.4,709L1312.4,709c0.3,0.5,0.5,1,0.4,1.5l-6.9,76.6c-0.1,1.2-1.1,2.1-2.3,2.1h-1.5
		c-1.3,0-2.4-1.1-2.3-2.5l0.3-5.5c0-0.6-0.2-1.2-0.5-1.6l-4.3-5c-0.5-0.6-0.7-1.3-0.5-2l13.4-62.8
		C1308.6,707.9,1311.2,707.3,1312.4,709z"/>
	<path class="st3" d="M1371.7,843.5L1371.7,843.5c-0.5,0.1-1.1-0.1-1.5-0.4l-63.4-43.5c-1-0.7-1.3-2-0.7-3.1l0.7-1.3
		c0.7-1.2,2.2-1.5,3.3-0.8l4.6,3c0.5,0.3,1.1,0.4,1.7,0.3l6.5-1.2c0.7-0.1,1.4,0.1,2,0.5l48.2,42.5
		C1374.5,840.8,1373.7,843.3,1371.7,843.5z"/>
	<path class="st3" d="M1224.3,827.4L1224.3,827.4c0.2-0.5,0.6-0.9,1.1-1.1l69.8-32.4c1.1-0.5,2.4-0.1,3,0.9l0.8,1.3
		c0.7,1.2,0.2,2.6-1,3.2l-4.9,2.5c-0.5,0.3-0.9,0.7-1.1,1.3l-2.2,6.2c-0.2,0.7-0.8,1.2-1.5,1.4l-61.1,19.8
		C1225.2,831.3,1223.5,829.3,1224.3,827.4z"/>
	<circle class="st4" cx="1303" cy="794.1" r="6.9"/>
</g>
<g>
	<path class="st3" d="M1508.9,836.4L1508.9,836.4c-2.3,0-4.2,1.9-4.3,4.2l-4.9,192c-0.1,2.4,1.9,4.4,4.3,4.4h9.7
		c2.4,0,4.4-2,4.3-4.4l-4.9-192C1513.1,838.3,1511.2,836.4,1508.9,836.4z"/>
	<path class="st3" d="M1562.2,901.5L1562.2,901.5c-0.5-0.1-1-0.4-1.4-0.8l-49.3-59c-0.8-0.9-0.7-2.3,0.1-3.1l1.1-1.1
		c0.9-0.9,2.5-0.9,3.4,0.1l3.7,4.1c0.4,0.4,1,0.7,1.5,0.8l6.6,0.5c0.7,0.1,1.4,0.4,1.8,1.1l34.9,53.9
		C1565.7,899.6,1564.3,901.8,1562.2,901.5z"/>
	<path class="st3" d="M1425.2,848.3L1425.2,848.3c0.3-0.4,0.8-0.7,1.4-0.8l75.6-14.1c1.2-0.2,2.3,0.5,2.7,1.7l0.4,1.4
		c0.4,1.3-0.4,2.6-1.7,2.9l-5.4,1.2c-0.6,0.1-1.1,0.5-1.4,1l-3.7,5.5c-0.4,0.6-1.1,1-1.8,1l-64.1,4
		C1425.1,852.2,1423.9,849.9,1425.2,848.3z"/>
	<path class="st3" d="M1540.8,755.5L1540.8,755.5c0.2,0.5,0.2,1.1,0,1.6l-26.5,72.2c-0.4,1.1-1.6,1.8-2.8,1.4l-1.5-0.4
		c-1.3-0.3-2-1.7-1.6-3l1.7-5.2c0.2-0.6,0.1-1.2-0.1-1.7l-2.8-6c-0.3-0.7-0.3-1.4,0-2.1l29.2-57.2
		C1537.4,753.4,1540.1,753.6,1540.8,755.5z"/>
	<circle class="st4" cx="1508.7" cy="834.7" r="6.9"/>
</g>
<g>
	<path class="st3" d="M1696.6,795.9L1696.6,795.9c-2.3,0-4.2,1.9-4.3,4.2l-4.9,192c-0.1,2.4,1.9,4.4,4.3,4.4h9.7
		c2.4,0,4.4-2,4.3-4.4l-4.9-192C1700.9,797.7,1699,795.9,1696.6,795.9z"/>
	<path class="st3" d="M1705.9,709L1705.9,709c0.3,0.5,0.5,1,0.4,1.5l-6.9,76.6c-0.1,1.2-1.1,2.1-2.3,2.1h-1.5
		c-1.3,0-2.4-1.1-2.3-2.5l0.3-5.5c0-0.6-0.2-1.2-0.5-1.6l-4.3-5c-0.5-0.6-0.7-1.3-0.5-2l13.4-62.8
		C1702.2,707.9,1704.8,707.3,1705.9,709z"/>
	<path class="st3" d="M1765.2,843.5L1765.2,843.5c-0.5,0.1-1.1-0.1-1.5-0.4l-63.4-43.5c-1-0.7-1.3-2-0.7-3.1l0.7-1.3
		c0.7-1.2,2.2-1.5,3.3-0.8l4.6,3c0.5,0.3,1.1,0.4,1.7,0.3l6.5-1.2c0.7-0.1,1.4,0.1,2,0.5l48.2,42.5
		C1768.1,840.8,1767.3,843.3,1765.2,843.5z"/>
	<path class="st3" d="M1617.9,827.4L1617.9,827.4c0.2-0.5,0.6-0.9,1.1-1.1l69.8-32.4c1.1-0.5,2.4-0.1,3,0.9l0.8,1.3
		c0.7,1.2,0.2,2.6-1,3.2l-4.9,2.5c-0.5,0.3-0.9,0.7-1.1,1.3l-2.2,6.2c-0.2,0.7-0.8,1.2-1.5,1.4l-61.1,19.8
		C1618.8,831.3,1617,829.3,1617.9,827.4z"/>
	<circle class="st4" cx="1696.5" cy="794.1" r="6.9"/>
</g>
<path class="st13" d="M2312,958.6V944h-8v14.6h-3.8v-19.4h-31.5v9.2h-3.8v-9.2h-8.3v9.2h-3.8v-44.2h-18v24.3h-11.1v6.5h-23.5V782.3
	l0.1,0l-16.3-19.7v9.3h0v-9.2h-1.7v-6.5h-13.8v6.5h-1.7v9.2h-1.7h-1.7v12.4h1.7v74.8c-6-3.6-13.7-6.6-22.5-9.2v-48.9h3.5v-13.5h-3.5
	h-4.2V772h-14.5v15.6h-4.8h-3.1v13.5h3.1v43.3c-11.6-2.3-24.2-4.1-37-5.8v-37.5h-35v33.4c-1.2-0.1-2.3-0.3-3.5-0.4v-16.8h-4.5v-5.4
	h-33.6v5.4h-3.8V829c-1.3-0.1-2.5-0.3-3.8-0.4v-77.2h0.3l-4.4-13l-21.7-24.3l-19.5,20.8l-5.6,16.5h0.1v77c-3.8,0.2-7.6,0.5-11.5,0.8
	c-1.5-0.3-3.2-0.1-4.9,0.4c-3.6,0.3-7.2,0.7-10.9,1v-37.9c0-0.1,0-0.3,0-0.4c0-0.1,0-0.2,0-0.4v-1.2h-0.1
	c-1.2-6.1-10.2-5.8-16.1-0.3c-6.3,5.9-8.8,13.7-9,19.8c0,0.1,0,0.3,0,0.4h-0.1v22.9c-0.2,0-0.5,0.1-0.7,0.1c-2.8-1.6-7.1-1-10.7,1.5
	c-7.3,1-14.7,2.2-22.2,3.4v-24h-6.2v-11.5l0.1-0.1v-10.9l-10.2-17.6h-7.6l-6.5,12v11.9h-9.3v47.1c-2,0.4-3.9,0.7-5.9,1.1v-4h-68.9
	v17.5c-4.5,0.9-9,1.8-13.5,2.7V836c0-0.2,0-0.4,0-0.7c0-9.8-3.9-18.3-9.3-21.8v-9.8c0-3.9-1.6-7.2-3.8-8.5v-8.6h-4.6v9
	c-1.9,1.5-3.2,4.5-3.2,8.1v10c-5.4,3.6-9.1,12-9,21.7c0,0.1,0,0.1,0,0.2h0v33.4c-12.7,2.5-25,4.9-36.6,7l-18.1-13.8v-17.3h-0.1h-5.7
	h-0.1v17.3l-29,22.1c-5.2,0.6-10.1,1.1-14.7,1.4l-2.3-5.4h-8.8v-44.7h0c0-0.1,0-0.1,0-0.2c0.1-9.7-3.7-18-9-21.7v-10
	c0-3.5-1.3-6.6-3.2-8.1v-9h-4.6v8.6c-2.2,1.3-3.8,4.6-3.8,8.5v9.8c-5.5,3.5-9.3,12-9.3,21.8c0,0.2,0,0.3,0,0.5v44.5h-7.3v1.8
	c-4.9-0.6-10-1.1-15.3-1.5v-95.6h0l-20.3-79.3l-33.2-9.7l-16.2,74.5l0.1,0v14.5v13.5v81.7c-15.6,0.7-31.7,1.9-48.1,3.4V802l-3.6-1
	v-10.4l0,0l-11.6-38.7l-34-14.3l0,0l0,0l-0.1,0l0,0.2l-14.1,41.9h22.5l0,0l0.1,0h-22.5v10.8h-4.2v101.2c-3.6,0.5-7.2,1-10.7,1.6V847
	h-4.2v-8.1h-5.2v-7.6h-19.7v7.6h-6.2v8.1h-5.2v52.9c-5.7,1-11.4,2.1-17,3.1v-22.6h-4.5v-13.5h-22.8v13.5v28.1
	c-12.9,2.7-25.1,5.6-36.4,8.4c-32.9,8.2-72.3,9.6-112.4,7.2v-49.3h-79v40.2c-3.1-0.5-6.2-1-9.3-1.6v-53.1h-22.6v-14.5h-47.1v-68.3
	v-25.9h-43.8v25.9h-8.6v82.8H888v-14.5h-25.9V713.3h-10v-15.5h-12v-14.5h-37.8v14.5h-10v15.5h-8v205.9h-20.6V604.7h-8V584h-43.1
	l0.1,0l0,0H756l-27.1-80.3l0.1-0.4l-0.2,0.1l0,0l0,0l-65.3,27.5l-22.2,74.3l-0.1,0V625l-6.9,2v159.8h-60.4v76.6h-8.6v-27.9h-14.6
	v27.9H542v-5.2v-238v-25.9v-27.9l0.2,0l-31.1-142.9l-63.7,18.7l-38.9,152.2h0v263.9h-8v-19.7h-21.4v-61.3h-14v-85.3
	c0-0.3,0-0.6,0-0.9c0-18.9-7.4-35-17.9-41.8v-18.9c0-7.5-3.1-13.9-7.3-16.3v-16.5h-8.7v17.2c-3.7,2.8-6.2,8.7-6.2,15.5v19.1
	c-10.3,7-17.4,23-17.3,41.6c0,0.1,0,0.3,0,0.4h0v85.8h-16.8L280.6,802l-77.9-59.4v-33.2h-0.2h-10.9h-0.2v33.2L113.4,802l-10.3-24.8
	H86.3v-85.8h-0.1c0-0.1,0-0.3,0-0.4c0.1-18.6-7-34.6-17.3-41.6v-19.1c0-6.8-2.5-12.7-6.2-15.5v-17.2H54V614
	c-4.3,2.4-7.3,8.8-7.3,16.3v18.9c-10.5,6.8-17.9,23-17.9,41.8c0,0.4,0,0.9,0,1.3v84.9h-14v81H2.9V705h-132.1v153.2h-11.4v-238h-17.9
	v-22.8l-12.6-23h-14.5l-19.6,33.8V629l0.1,0.1v22.1h-12v194.6h-11.3v-19.7h-8v19.7h-5.3V728.8h-0.1c0-11.4-4.1-25.5-15.1-35.7
	c-7.7-7.2-18.7-8.8-24.7-4.2V644h-0.2c0-0.3,0-0.5,0-0.8c-0.2-11.8-5.1-26.7-17.2-38c-11.2-10.5-28.5-11.2-30.9,0.5h-0.3v2.3
	c0,0.2,0,0.4,0,0.7c0,0.3,0,0.5,0,0.8v92.6c-2.4-5.8-6-11.4-11.2-16.2c-11-10.3-28.8-9.1-29,5.2c-0.1,3.6,0.2,6.8,0.7,9.8h-0.3
	v144.9h-12.6V530.2h0.2l-10.7-31.7l-37.4-39.8l-41.6,46.6l-8.5,24.9h0.5v389.1h-7.3V656.4h-7.3V646H-559v10.3h-8.6v286.7h0V882h-6.6
	V625.4h-67.1V851h-30.5v-18.6h-29.2V851h-11.3V625.4h6v-25.9h-6h-9.3v-30h-27.9v30h-8h-6.6v25.9h6.6V882h-17.3v-18.6h-8.6v-17.6h-12
	v17.6h-5.3V593.3h3.3v-23.8h-3.3h-3.3v-17.6h-3.3v-12.4h-26.6v12.4h-3.3v17.6h-0.1v-17.9l-31.4,37.7l0.2,0V882h-45.2v-12.4h-21.3
	V823h-34.5v84.9h-7.3v-17.6h-15.9v17.6h-7.3v-17.6h-60.4v37.3h-7.3v-27.9h-15.3v27.9h-51.1v18.6h51.1h15.3h74.4v47.6h-14.6v88H1133
	v-88h-26.5v-25.7l64.4,1.3v23.8H1157v45.8h13.8h1094.4h7.6v-45.8h-7.6v-24.8h38.8h8h26.6v-9.7H2312z"/>
<g id="Group_80_9_" transform="translate(-64.111 1390.62)" class="st14">
	<g id="Group_74_9_" transform="translate(0 0)" class="st15">
		<g id="Group_72_9_">
			<rect id="Rectangle_167_5_" x="1111.8" y="-497.7" class="st16" width="82.8" height="152.9"/>
			<rect id="Rectangle_168_5_" x="1019.2" y="-512.9" class="st16" width="82.8" height="152.9"/>
			<rect id="Rectangle_169_5_" x="995.5" y="-528.1" class="st16" width="82.8" height="152.9"/>
			<rect id="Rectangle_170_5_" x="974" y="-599.7" class="st16" width="55" height="224.5"/>
			<rect id="Rectangle_171_5_" x="983" y="-626.8" class="st16" width="45.9" height="251.6"/>
			<rect id="Rectangle_172_5_" x="912" y="-528.1" class="st16" width="55" height="224.5"/>
			<rect id="Rectangle_173_5_" x="858.4" y="-666.9" class="st16" width="81.4" height="291.8"/>
			<rect id="Rectangle_174_5_" x="866.8" y="-683.2" class="st16" width="62.6" height="308"/>
			<rect id="Rectangle_175_5_" x="877.2" y="-698.4" class="st16" width="39.7" height="323.2"/>
			<rect id="Rectangle_176_5_" x="781.9" y="-780.8" class="st16" width="55" height="417.6"/>
			<path id="Path_53_5_" class="st16" d="M781.9-780.8l-80.7,23.4v394.1h80.7V-780.8z"/>
			<path id="Path_54_5_" class="st16" d="M800.2-887l-16.7,84.5h45.2L800.2-887z"/>
			<rect id="Rectangle_177_5_" x="783.3" y="-802.5" class="st16" width="45.2" height="36.9"/>
			<path id="Path_55_5_" class="st16" d="M783.3-802.5l-74.9,22.2v36.9l74.9-22.2V-802.5z"/>
			<path id="Path_56_5_" class="st16" d="M800.3-887.1l-68.6,28.9l-23.3,77.9l75.1-22.3L800.3-887.1z"/>
			<rect id="Rectangle_178_5_" x="637.8" y="-589.9" class="st16" width="63.3" height="259.2"/>
			<rect id="Rectangle_179_5_" x="585.6" y="-509.7" class="st16" width="55.7" height="83.5"/>
			<rect id="Rectangle_180_5_" x="613.5" y="-538.9" class="st16" width="15.3" height="83.5"/>
			<rect id="Rectangle_181_5_" x="464.5" y="-791.6" class="st16" width="139.9" height="365.5"/>
			<rect id="Rectangle_182_5_" x="562" y="-820.9" class="st16" width="42.5" height="394.8"/>
			<path id="Path_57_5_" class="st16" d="M572-970.7l-66.7,19.6l-40.8,159.5h36.6l103.5-29.3L572-970.7z"/>
			<rect id="Rectangle_183_5_" x="475" y="-820.9" class="st16" width="129.4" height="56.4"/>
			<path id="Path_58_5_" class="st16" d="M470.9-821l-6.4,29.7L470.9-821z"/>
			<rect id="Rectangle_184_5_" x="-144.9" y="-515.1" class="st16" width="749.3" height="88.9"/>
			<rect id="Rectangle_185_5_" x="432.5" y="-535.7" class="st16" width="23.7" height="88.9"/>
			<rect id="Rectangle_186_5_" x="408.2" y="-552" class="st16" width="14.6" height="88.9"/>
			<rect id="Rectangle_187_5_" x="346.2" y="-586.7" class="st16" width="56.4" height="88.9"/>
			<rect id="Rectangle_188_5_" x="340.7" y="-580.2" class="st16" width="56.4" height="88.9"/>
			<rect id="Rectangle_189_9_" x="129" y="-523.8" class="st16" width="10.4" height="88.9"/>
			<rect id="Rectangle_190_9_" x="101.9" y="-523.8" class="st16" width="13.9" height="88.9"/>
			<rect id="Rectangle_191_9_" x="77.5" y="-552" class="st16" width="16.7" height="88.9"/>
			<rect id="Rectangle_164_45_" x="-1019.9" y="-373" class="st16" width="2243.7" height="92.2"/>
			<rect id="Rectangle_165_9_" x="-1004.6" y="-426.1" class="st16" width="2200.6" height="145.3"/>
			<rect id="Rectangle_227_5_" x="928" y="-512.9" class="st16" width="55" height="197.4"/>
			<rect id="Rectangle_228_5_" x="811.8" y="-451.1" class="st16" width="55" height="67.2"/>
		</g>
		<g id="Group_63_5_" transform="translate(560.421 79.142)">
			<g id="Group_61_5_" transform="translate(125.219)">
				<g id="Group_60_5_" transform="translate(3.769)">
					<g id="Group_58_5_">
						<path id="Path_142_5_" class="st16" d="M-637.6-542.1v-137h14.7V-769h60.3v89.9h17.6l10.8,26l87.7-66.9v178L-637.6-542.1z"/>
						<path id="Path_145_5_" class="st16" d="M-592.5-816.9c-16.8,0-30.4,21.2-30.4,47.4s13.6,47.4,30.4,47.4
							c16.6-0.3,30-21.5,29.8-47.4C-562.5-795.4-575.9-816.6-592.5-816.9z"/>
						<path id="Path_143_5_" class="st16" d="M-580.8-833h-23.3v44.4h23.3V-833z"/>
						<ellipse id="Ellipse_3_5_" class="st16" cx="-592.5" cy="-833" rx="11.7" ry="18.2"/>
						<path id="Path_144_5_" class="st16" d="M-587.3-867.4h-9.2v44.4h9.2V-867.4z"/>
					</g>
				</g>
				<rect id="Rectangle_517_5_" x="-448.8" y="-750.3" class="st16" width="11.7" height="58.5"/>
			</g>
			<g id="Group_62_5_" transform="translate(0)">
				<g id="Group_60-2_5_">
					<g id="Group_58-2_5_">
						<path id="Path_142-2_5_" class="st16" d="M-126.7-542.1v-137h-14.7V-769h-60.3v89.9h-17.6l-10.8,26l-87.8-66.9v178
							L-126.7-542.1z"/>
						<path id="Path_145-2_5_" class="st16" d="M-171.8-816.9c16.8,0,30.4,21.2,30.4,47.4S-155-722-171.8-722
							c-16.6-0.3-30-21.5-29.8-47.4C-201.8-795.4-188.5-816.6-171.8-816.9z"/>
						<path id="Path_143-2_5_" class="st16" d="M-183.5-833h23.3v44.4h-23.3V-833z"/>
						<ellipse id="Ellipse_3-2_5_" class="st16" cx="-171.8" cy="-833" rx="11.7" ry="18.2"/>
						<path id="Path_144-2_5_" class="st16" d="M-177-867.4h9.2v44.4h-9.2V-867.4z"/>
					</g>
				</g>
				<rect id="Rectangle_517-2_5_" x="-323.4" y="-750.3" class="st16" width="11.7" height="58.5"/>
			</g>
		</g>
	</g>
	<g id="Group_75_9_" transform="translate(6.051 0.164)" class="st15">
		<g id="Group_73_5_" transform="translate(567.528 112.682)">
			<g id="Group_76_5_" transform="translate(70.03 53.727)">
				<rect id="Rectangle_521_5_" x="-425.9" y="-671.3" class="st17" width="56.1" height="35.5"/>
				<rect id="Rectangle_522_5_" x="-462.7" y="-671.3" class="st17" width="30.6" height="35.5"/>
				<path id="Path_148_5_" class="st17" d="M-369.8-745.1c0,0-8.4-8.1-28.2-8.1c-19.8-0.1-27.9,8.1-27.9,8.1v65.5h56.1V-745.1z"/>
				<rect id="Rectangle_523_5_" x="-362.9" y="-671.3" class="st17" width="29.9" height="35.5"/>
				<path id="Path_149_5_" class="st17" d="M-333-715.1c-9.3-10.3-19.3-18.8-29.9-25.2v60.7h29.9V-715.1z"/>
				<path id="Path_150_5_" class="st17" d="M-462.7-715.1c9.4-11,19.7-19.9,30.6-26.6v62.1h-30.6V-715.1z"/>
			</g>
			<path id="Subtraction_4_5_" class="st17" d="M-179.8-823.4h0.2v53.1h-16.8v-23.9h0c0.1-7.6,1.9-14.9,5.1-20.7
				C-188.4-820.1-184.2-823.3-179.8-823.4L-179.8-823.4z M-174.8-821.9c3.3,2,6.2,5.7,8.1,10.4c2.1,5.2,3.3,11.2,3.4,17.4h0v23.9
				h-11.6L-174.8-821.9L-174.8-821.9L-174.8-821.9z M-179.6-723.4h-16.8v-37.3h16.8V-723.4z M-163.2-760.7v37.3h-11.6v-37.3
				L-163.2-760.7L-163.2-760.7z"/>
			<path id="Subtraction_5_5_" class="st17" d="M-179.9-700.2h0.3v66h-20.8v-29.6h0c0.1-9.5,2.3-18.5,6.3-25.7
				C-190.6-696.2-185.4-700-179.9-700.2L-179.9-700.2z M-173.7-698.4c4.2,2.5,7.7,7.1,10.1,13c2.7,6.5,4.1,13.9,4.3,21.6l0,0v29.6
				h-14.3L-173.7-698.4L-173.7-698.4z M-179.6-622.4v46.3h-20.8v-46.3L-179.6-622.4L-179.6-622.4z M-159.3-622.4v46.3h-14.3v-46.3
				L-159.3-622.4L-159.3-622.4z"/>
			<path id="Subtraction_6_5_" class="st17" d="M-472.5-823.4h0.2v53.1h-16.8v-23.9h0c0.1-7.6,1.9-14.9,5.1-20.7
				C-481.2-820.1-477-823.3-472.5-823.4L-472.5-823.4z M-467.5-821.9c3.3,2,6.2,5.7,8.1,10.4c2.1,5.2,3.3,11.2,3.4,17.4h0v23.9
				h-11.6L-467.5-821.9L-467.5-821.9L-467.5-821.9z M-472.3-723.4h-16.8v-37.3h16.8V-723.4z M-456-760.7v37.3h-11.6v-37.3
				L-456-760.7L-456-760.7z"/>
			<path id="Subtraction_7_5_" class="st17" d="M-472.7-700.2h0.3v66h-20.9v-29.6h0c0.1-9.5,2.3-18.5,6.3-25.7
				C-483.4-696.2-478.2-700-472.7-700.2L-472.7-700.2z M-466.4-698.4c4.2,2.5,7.7,7.1,10.1,13c2.7,6.5,4.1,13.9,4.3,21.6l0,0v29.6
				h-14.3L-466.4-698.4L-466.4-698.4z M-472.4-622.4v46.3h-20.9v-46.3L-472.4-622.4L-472.4-622.4z M-452.1-622.4v46.3h-14.3v-46.3
				L-452.1-622.4L-452.1-622.4z"/>
		</g>
		<rect id="Rectangle_230_5_" x="1135" y="-488.9" class="st17" width="55.7" height="123.6"/>
		<rect id="Rectangle_231_5_" x="1076.6" y="-343.6" class="st17" width="86.3" height="32.5"/>
		<rect id="Rectangle_232_5_" x="1034.1" y="-336" class="st17" width="8.4" height="51"/>
		<rect id="Rectangle_233_5_" x="952.7" y="-319.7" class="st17" width="47.3" height="17.4"/>
		<rect id="Rectangle_234_5_" x="932.5" y="-360.9" class="st17" width="16.7" height="51"/>
		<rect id="Rectangle_235_5_" x="1000" y="-619.1" class="st17" width="23.7" height="211.5"/>
		<rect id="Rectangle_236_5_" x="987.5" y="-542.1" class="st17" width="36.2" height="29.3"/>
		<rect id="Rectangle_237_5_" x="980.5" y="-528" class="st17" width="36.2" height="15.2"/>
		<rect id="Rectangle_238_5_" x="987.5" y="-501.9" class="st17" width="36.2" height="6.5"/>
		<rect id="Rectangle_239_5_" x="1023.7" y="-526.9" class="st17" width="42.5" height="40.1"/>
		<rect id="Rectangle_240_5_" x="1023.7" y="-526.9" class="st17" width="9" height="104.1"/>
		<path id="Rectangle_241_5_" class="st17" d="M1043.2-436.9L1043.2-436.9c-2.7,0-4.9,3.4-4.9,7.6v14.1c0,4.2,2.2,7.6,4.9,7.6l0,0
			c2.7,0,4.9-3.4,4.9-7.6v-14.1C1048-433.5,1045.9-436.9,1043.2-436.9z"/>
		<path id="Rectangle_242_5_" class="st17" d="M1183.7-336L1183.7-336c-3.8,0-7,4.9-7,10.8v10.8c0,6,3.1,10.8,7,10.8h0
			c3.8,0,7-4.9,7-10.8v-10.8C1190.7-331.1,1187.6-336,1183.7-336z"/>
		<rect id="Rectangle_243_5_" x="1050.3" y="-501.9" class="st17" width="29.2" height="74.8"/>
		<rect id="Rectangle_244_5_" x="1057.1" y="-501.9" class="st17" width="29.2" height="6.5"/>
		<rect id="Rectangle_246_5_" x="1051.5" y="-439" class="st17" width="12.5" height="36.9"/>
		<rect id="Rectangle_247_5_" x="1051.5" y="-394.6" class="st17" width="52.9" height="19.5"/>
		<rect id="Rectangle_249_5_" x="1051.5" y="-365.3" class="st17" width="45.2" height="17.4"/>
		<rect id="Rectangle_250_5_" x="1071" y="-439" class="st17" width="22.3" height="46.6"/>
		<path id="Rectangle_252_5_" class="st17" d="M1092.2-498.7L1092.2-498.7c-1.7,0-3.1,2.2-3.1,4.9v9.8c0,2.7,1.4,4.9,3.1,4.9l0,0
			c1.7,0,3.1-2.2,3.1-4.9v-9.8C1095.4-496.5,1094-498.7,1092.2-498.7z"/>
		<rect id="Rectangle_253_5_" x="932.5" y="-513.9" class="st17" width="44.5" height="119.3"/>
		<rect id="Rectangle_254_5_" x="949.2" y="-409.7" class="st17" width="36.2" height="39"/>
		<rect id="Rectangle_255_5_" x="930.4" y="-666.8" class="st17" width="6.3" height="272.2"/>
		<rect id="Rectangle_256_5_" x="817" y="-407.6" class="st17" width="62.6" height="13"/>
		<rect id="Rectangle_257_5_" x="793.3" y="-460.7" class="st17" width="62.6" height="68.3"/>
		<rect id="Rectangle_258_5_" x="780.1" y="-785" class="st17" width="50.8" height="392.6"/>
		<rect id="Rectangle_259_5_" x="780.1" y="-767.7" class="st17" width="18.1" height="392.6"/>
		<path id="Path_68_5_" class="st17" d="M573.6-884.4l-11.5,76.7l38.9-0.1L573.6-884.4z"/>
		<path id="Path_152_5_" class="st17" d="M822.6-807.8l-25.7-65.8l-13.3,65.8v56.4h39V-807.8z"/>
		<rect id="Rectangle_261_5_" x="869.2" y="-354.4" class="st17" width="24.4" height="19.5"/>
		<rect id="Rectangle_262_5_" x="745.3" y="-342.5" class="st17" width="123.9" height="7.6"/>
		<rect id="Rectangle_263_5_" x="716.1" y="-392.4" class="st17" width="33.4" height="33.6"/>
		<rect id="Rectangle_264_5_" x="703.5" y="-392.4" class="st17" width="5.6" height="33.6"/>
		<rect id="Rectangle_265_5_" x="873.4" y="-666.8" class="st17" width="12.5" height="272.2"/>
		<rect id="Rectangle_266_5_" x="873.4" y="-666.8" class="st17" width="63.3" height="7.6"/>
		<rect id="Rectangle_267_5_" x="873.4" y="-651.6" class="st17" width="63.3" height="7.6"/>
		<rect id="Rectangle_268_5_" x="873.4" y="-636.4" class="st17" width="63.3" height="7.6"/>
		<rect id="Rectangle_269_5_" x="873.4" y="-621.2" class="st17" width="63.3" height="7.6"/>
		<rect id="Rectangle_270_5_" x="873.4" y="-606" class="st17" width="63.3" height="7.6"/>
		<rect id="Rectangle_271_5_" x="873.4" y="-590.9" class="st17" width="63.3" height="7.6"/>
		<rect id="Rectangle_272_5_" x="873.4" y="-575.7" class="st17" width="63.3" height="7.6"/>
		<rect id="Rectangle_273_5_" x="873.4" y="-560.5" class="st17" width="63.3" height="7.6"/>
		<rect id="Rectangle_274_5_" x="873.4" y="-545.3" class="st17" width="63.3" height="7.6"/>
		<rect id="Rectangle_275_5_" x="873.4" y="-530.1" class="st17" width="63.3" height="7.6"/>
		<rect id="Rectangle_276_5_" x="873.4" y="-514.9" class="st17" width="63.3" height="7.6"/>
		<rect id="Rectangle_277_5_" x="873.4" y="-499.8" class="st17" width="63.3" height="7.6"/>
		<rect id="Rectangle_278_5_" x="873.4" y="-484.6" class="st17" width="63.3" height="7.6"/>
		<rect id="Rectangle_279_5_" x="873.4" y="-469.4" class="st17" width="63.3" height="7.6"/>
		<rect id="Rectangle_280_5_" x="873.4" y="-454.2" class="st17" width="63.3" height="7.6"/>
		<rect id="Rectangle_281_5_" x="873.4" y="-439" class="st17" width="63.3" height="7.6"/>
		<rect id="Rectangle_282_5_" x="873.4" y="-423.8" class="st17" width="63.3" height="7.6"/>
		<rect id="Rectangle_283_5_" x="873.4" y="-408.7" class="st17" width="63.3" height="7.6"/>
		<path id="Path_70_5_" class="st17" d="M770.8-835.5l-7.1,4l-7,33.6l6.8-2.7L770.8-835.5z"/>
		<path id="Path_71_5_" class="st17" d="M758.3-829l-7,4l-6.9,33.6l6.7-2.6L758.3-829z"/>
		<path id="Path_72_5_" class="st17" d="M745.3-822.4l-7.3,3.9l-6.9,33.4l6.9-2.2L745.3-822.4z"/>
		<path id="Path_73_5_" class="st17" d="M732.1-814.8l-7.3,3.9l-6.9,33l6.8-1.9L732.1-814.8z"/>
		<path id="Path_74_5_" class="st17" d="M776.4-807.3l-7,3.9l-0.1,39.4l7-3.9L776.4-807.3z"/>
		<path id="Path_75_5_" class="st17" d="M763.6-802l-6.8,4l-0.5,39.6l6.8-4L763.6-802z"/>
		<path id="Path_76_5_" class="st17" d="M751.1-795.5l-6.8,4.1l-0.5,39.9l6.8-4.1L751.1-795.5z"/>
		<path id="Path_77_5_" class="st17" d="M738.1-788.9l-7,3.8L731-746l7-3.8L738.1-788.9z"/>
		<path id="Path_78_5_" class="st17" d="M724.6-781.4l-6.7,3.5L718-741l6.7-3.5L724.6-781.4z"/>
		<rect id="Rectangle_284_5_" x="678.5" y="-334.9" class="st17" width="30.6" height="33.6"/>
		<rect id="Rectangle_285_5_" x="628.4" y="-360.9" class="st17" width="30.6" height="16.3"/>
		<rect id="Rectangle_286_5_" x="636.7" y="-590.6" class="st17" width="60.5" height="22.5"/>
		<rect id="Rectangle_287_5_" x="683.4" y="-586.5" class="st17" width="13.9" height="185.5"/>
		<rect id="Rectangle_288_5_" x="651.3" y="-460.7" class="st17" width="45.9" height="59.7"/>
		<rect id="Rectangle_289_5_" x="636.7" y="-590.9" class="st17" width="14.6" height="141"/>
		<path id="Rectangle_290_5_" class="st17" d="M622.1-497.6L622.1-497.6c-3.5,0-6.3,4.4-6.3,9.8v17.4c0,5.4,2.8,9.8,6.3,9.8l0,0
			c3.5,0,6.3-4.4,6.3-9.8v-17.4C628.4-493.2,625.6-497.6,622.1-497.6z"/>
		<rect id="Rectangle_291_5_" x="600.5" y="-446.6" class="st17" width="7" height="104.1"/>
		<rect id="Rectangle_292_5_" x="568.5" y="-456.4" class="st17" width="22.3" height="104.1"/>
		<rect id="Rectangle_293_5_" x="478.1" y="-366.4" class="st17" width="112.7" height="14.1"/>
		<rect id="Rectangle_294_5_" x="520.5" y="-404.3" class="st17" width="7.7" height="52.1"/>
		<rect id="Rectangle_296_5_" x="558.8" y="-497.6" class="st17" width="18.1" height="67.2"/>
		<path id="Path_79_5_" class="st17" d="M602.6-825.1l-35-145.3h-8.8v520.6h43.8V-825.1z"/>
		<path id="Path_80_5_" class="st17" d="M524-873.4l-22.3,81.9v361.2H524V-873.4z"/>
		<path id="Path_82_5_" class="st17" d="M541.3-956.3l-5.5,1.7L491.5-794h5.3L541.3-956.3z"/>
		<path id="Path_83_5_" class="st17" d="M533.1-952.9l-6.4,1.9l-42.8,157h5.3L533.1-952.9z"/>
		<path id="Path_84_5_" class="st17" d="M523.6-949l-5.5,2.2L476.2-794h5.3L523.6-949z"/>
		<path id="Path_85_5_" class="st17" d="M515.4-944.8l-5.9,1.8l-40.9,149h5.3L515.4-944.8z"/>
		<path id="Rectangle_297_5_" class="st17" d="M447.8-501.9L447.8-501.9c-2.1,0-3.8,2.7-3.8,6v26c0,3.3,1.7,6,3.8,6h0
			c2.1,0,3.8-2.7,3.8-6v-26C451.6-499.3,449.9-501.9,447.8-501.9z"/>
		<rect id="Rectangle_300_5_" x="334.2" y="-394.6" class="st17" width="99.3" height="15.2"/>
		<path id="Rectangle_301_5_" class="st17" d="M215-441h-18.1c-5,0-9,6.3-9,14.1l0,0c0,7.8,4.1,14.1,9,14.1H215c5,0,9-6.3,9-14.1
			l0,0C224-434.7,219.9-441,215-441z"/>
		<path id="Rectangle_303_5_" class="st17" d="M442.2-370.7h-4.9c-3.3,0-5.9,4.1-5.9,9.2l0,0c0,5.1,2.6,9.2,5.9,9.2h4.9
			c3.3,0,5.9-4.1,5.9-9.2l0,0C448.1-366.6,445.5-370.7,442.2-370.7z"/>
		<path id="Rectangle_304_5_" class="st17" d="M468.7-331.6h-4.9c-3.3,0-5.9,4.1-5.9,9.2l0,0c0,5.1,2.6,9.2,5.9,9.2h4.9
			c3.3,0,5.9-4.1,5.9-9.2l0,0C474.6-327.5,471.9-331.6,468.7-331.6z"/>
		<path id="Rectangle_305_5_" class="st17" d="M421.3-321.9h-35.5c-3.3,0-5.9,4.1-5.9,9.2l0,0c0,5.1,2.6,9.2,5.9,9.2h35.5
			c3.3,0,5.9-4.1,5.9-9.2l0,0C427.3-317.8,424.6-321.9,421.3-321.9z"/>
		<rect id="Rectangle_306_5_" x="283.8" y="-340.6" class="st17" width="89.8" height="15.2"/>
		<rect id="Rectangle_309_5_" x="439.4" y="-634.2" class="st17" width="29.9" height="122.6"/>
		<path id="Rectangle_311_5_" class="st17" d="M382.6-422.8h-9c-3.3,0-5.9,4.1-5.9,9.2l0,0c0,5.1,2.6,9.2,5.9,9.2h9
			c3.3,0,5.9-4.1,5.9-9.2l0,0C388.5-418.7,385.9-422.8,382.6-422.8z"/>
		<path id="Rectangle_312_5_" class="st17" d="M350.6-438.7h-4.2c-4.8,0-8.7,6.1-8.7,13.6v0c0,7.5,3.9,13.6,8.7,13.6h4.2
			c4.8,0,8.7-6.1,8.7-13.6v0C359.3-432.7,355.4-438.7,350.6-438.7z"/>
		<rect id="Rectangle_313_5_" x="196.2" y="-369.9" class="st17" width="64.7" height="38.4"/>
		<rect id="Rectangle_314_5_" x="112" y="-411.2" class="st17" width="62.5" height="30.3"/>
		<path id="Rectangle_316_5_" class="st17" d="M143.3-520.6L143.3-520.6c-3.7,0-6.7,4.7-6.7,10.5v35.6c0,5.8,3,10.5,6.7,10.5h0
			c3.7,0,6.7-4.7,6.7-10.5v-35.6C150.1-515.9,147.1-520.6,143.3-520.6z"/>
		<path id="Rectangle_321_5_" class="st17" d="M54.9-394.1L54.9-394.1c-4.2,0-7.7,5.3-7.7,11.9v14.1c0,6.6,3.4,11.9,7.7,11.9l0,0
			c4.2,0,7.7-5.3,7.7-11.9v-14.1C62.5-388.8,59.1-394.1,54.9-394.1z"/>
		<rect id="Rectangle_534_5_" x="62.9" y="-325.1" class="st17" width="37.6" height="24.9"/>
		<rect id="Rectangle_535_5_" x="122.8" y="-352.2" class="st17" width="9.7" height="58.6"/>
		<path id="Rectangle_536_5_" class="st17" d="M56.6-470.1L56.6-470.1c-3.7,0-6.6,4.6-6.6,10.3v32.5c0,5.7,3,10.3,6.6,10.3l0,0
			c3.7,0,6.6-4.6,6.6-10.3v-32.5C63.2-465.5,60.2-470.1,56.6-470.1z"/>
		<rect id="Rectangle_537_5_" x="155.2" y="-344.4" class="st17" width="82.1" height="26"/>
		<rect id="Rectangle_538_5_" x="150.9" y="-454" class="st17" width="9.5" height="58.6"/>
		<rect id="Rectangle_539_5_" x="325.4" y="-544.7" class="st17" width="6.6" height="75.5"/>
		<rect id="Rectangle_540_5_" x="338.4" y="-562.9" class="st17" width="5.3" height="75.5"/>
	</g>
</g>
<path class="st18" d="M952.5,615.5c0,0,102.3,69.9,216,67c0,0,94.6,71.3,177.3,66.2c0,0,60.7,45.8,141.7,54.8c0,0,74-8,86-42
	c0,0,53,1,85-25"/>
<path class="st18" d="M836,625c0,0,135.5,72.9,238.3,59.4c0,0,121.1,73.9,187.4,64.2c0,0,62.1,61,156.2,60.2
	c0,0,62.1-5.8,111.1-46.8c0,0,62-5,91-26"/>
<g class="st19">
	<path class="st20" d="M1441.9,705.5c-2.5-30.8,3.2-49.7,6.2-58.3c2.7-7.7,3.4-39.9,3.4-39.9l-2.3-28.7l19.1-1.6l19.1-1.6l2.3,28.7
		c0,0,5.9,31.6,9.9,38.8c1.1,1.9,2.3,3.8,3.6,6c2-6.8,4.5-11.4,6.1-16c3.5-9.8,1-50.5,1-50.5l-3-36.5l27.6-2.3l27.6-2.3l3,36.5
		c0,0,4.2,40.5,9.2,49.6c2.4,4.3,5.5,8.4,8.6,14.7c1-2.3,1.9-4.4,2.6-6.4c2.7-7.7,3.4-39.9,3.4-39.9l-2.3-28.7l19.1-1.6l19.1-1.6
		l2.3,28.7c0,0,5.9,31.6,9.9,38.8c4.4,8,12.1,15.1,14.7,45.9L1441.9,705.5z"/>
	<path class="st20" d="M1542.6,535.1l-16,1.3c0,0-6.6-18.2-8.8-33.5c-4.6-31.8,17.8-44.4,17.3-59.1c-0.5-12.7-35.3-21.2-39.6-33.6
		c-4.4-12.4-1.4-17.3-1.4-17.3s-12-5.5-25.4-16c-19.3-15.2-16.5-38.2-16.5-38.2s-14.6-6.8-19.2-21.2c-2.3-7.5-8.6-31.5,12.5-43.3
		c0,0,18.7-42.4,57.1-23.4c0,0,19.2-27,37.6-31.9c16.3-4.3,57.9-5.4,71.7,15.6c0,0,79.4-13.2,71.1,66.6c0,0,26.1,56.9-8.2,79.8
		c-34.3,22.9-70.9,17.9-70.9,17.9s21.7,35.8-3.7,52.6c-13,8.6-23.6,11.3-33.9,20.2c-8.9,7.7-13.5,15.2-18.3,22.3
		C1538.2,508.2,1542.6,535.1,1542.6,535.1z"/>
</g>
<g>
	<circle class="st21" cx="500.5" cy="1574.5" r="697.5"/>
</g>
<g>
	<polygon class="st3" points="349.9,703.3 561.1,703.3 658,810.6 447,811 	"/>
	<polygon class="st2" points="392.1,718 545.5,718 615.8,796 462.6,796.3 	"/>
	
		<rect x="253" y="810.6" transform="matrix(-1 -4.489621e-11 4.489621e-11 -1 699.7866 1800.3494)" class="st22" width="193.8" height="179.1"/>
	
		<rect x="446.8" y="810.6" transform="matrix(-1 -4.490376e-11 4.490376e-11 -1 1104.7866 1800.3494)" class="st17" width="211.2" height="179.1"/>
	<polygon class="st4" points="349.9,810.6 446.8,810.6 398.3,756.9 349.9,703.3 301.4,756.9 253,810.6 	"/>
</g>
<rect x="375" y="840" transform="matrix(-1 -4.489798e-11 4.489798e-11 -1 791 1721)" class="st2" width="41" height="41"/>
<rect x="283" y="840" transform="matrix(-1 -4.489798e-11 4.489798e-11 -1 607 1721)" class="st2" width="41" height="41"/>
<rect x="487" y="840" transform="matrix(-1 -4.489798e-11 4.489798e-11 -1 1015 1721)" class="st21" width="41" height="41"/>
<rect x="578" y="840" transform="matrix(-1 -4.489798e-11 4.489798e-11 -1 1197 1721)" class="st21" width="41" height="41"/>
<rect x="322" y="900" transform="matrix(-1 -4.488022e-11 4.488022e-11 -1 696 1890)" class="st4" width="52" height="90"/>
<line class="st24" x1="488.6" y1="796.3" x2="418.1" y2="718"/>
<line class="st24" x1="521.6" y1="796.3" x2="451.1" y2="718"/>
<line class="st24" x1="554.6" y1="796.3" x2="484.1" y2="718"/>
<line class="st24" x1="587.6" y1="796.3" x2="517.1" y2="718"/>
<line class="st24" x1="406" y1="736.4" x2="564.5" y2="736.4"/>
<line class="st24" x1="441" y1="775.4" x2="599.5" y2="775.4"/>
<line class="st24" x1="423" y1="755.9" x2="581.5" y2="755.9"/>
<path class="st25" d="M454,308.5c0-36.7-29.8-66.5-66.5-66.5c-5.2,0-10.2,0.6-15,1.7c-14.7-31.7-46.8-53.7-84-53.7
	c-37.2,0-69.2,21.9-83.9,53.5c-4.5-1-9.3-1.5-14.1-1.5c-36.7,0-66.5,29.8-66.5,66.5h75.7c0,0,0,0,0,0l177.5,0.3
	c0-0.1,0.1-0.2,0.1-0.3H454z"/>
<path class="st25" d="M1595,308.1c0-43.7-35.5-79.2-79.2-79.2c-6.1,0-12.1,0.7-17.9,2c-17.5-37.8-55.7-64-100-64
	c-44.2,0-82.4,26.1-99.9,63.7c-5.4-1.2-11-1.8-16.8-1.8c-43.7,0-79.2,35.5-79.2,79.2h90.1c0,0,0,0,0,0l211.4,0.4
	c0-0.1,0.1-0.3,0.1-0.4H1595z"/>
<path class="st25" d="M725,331.1c0-43.7-35.5-79.2-79.2-79.2c-6.1,0-12.1,0.7-17.9,2c-17.5-37.8-55.7-64-100-64
	c-44.2,0-82.4,26.1-99.9,63.7c-5.4-1.2-11-1.8-16.8-1.8c-43.7,0-79.2,35.5-79.2,79.2h90.1c0,0,0,0,0,0l211.4,0.4
	c0-0.1,0.1-0.3,0.1-0.4H725z"/>
<path class="st25" d="M1790,329.5c0-33.9-27.5-61.5-61.5-61.5c-4.8,0-9.4,0.6-13.9,1.6c-13.6-29.3-43.2-49.7-77.6-49.7
	c-34.3,0-63.9,20.3-77.5,49.5c-4.2-0.9-8.6-1.4-13-1.4c-33.9,0-61.5,27.5-61.5,61.5h70c0,0,0,0,0,0l164,0.3c0-0.1,0.1-0.2,0.1-0.3
	H1790z"/>
</svg>
