<?xml version="1.0" encoding="utf-8"?>
<!-- Generator: Adobe Illustrator 23.0.1, SVG Export Plug-In . SVG Version: 6.00 Build 0)  -->
<svg version="1.1" id="Layer_1" xmlns="http://www.w3.org/2000/svg" xmlns:xlink="http://www.w3.org/1999/xlink" x="0px" y="0px"
	 viewBox="0 0 1920 1000" style="enable-background:new 0 0 1920 1000;" xml:space="preserve">
<style type="text/css">
	.st0{clip-path:url(#SVGID_2_);fill:#EFF7FD;}
	.st1{clip-path:url(#SVGID_2_);}
	.st2{fill:#979797;}
	.st3{fill:#F5E8A9;}
	.st4{fill:#F5DC6E;}
	.st5{fill:#78B9E4;}
	.st6{fill:#25315B;}
	.st7{fill:#384880;}
	.st8{fill:#EFBAB8;}
	.st9{fill:#E67470;}
	.st10{clip-path:url(#SVGID_4_);}
	.st11{fill:none;stroke:#000000;stroke-width:4;stroke-linejoin:round;}
	.st12{fill:none;stroke:#000000;stroke-width:4;stroke-linecap:round;stroke-linejoin:round;}
	.st13{fill:#2A4B7C;}
	.st14{fill:#AECEE3;}
	.st15{clip-path:url(#SVGID_6_);}
	.st16{fill:#D1DDE2;}
	.st17{clip-path:url(#SVGID_8_);}
	.st18{clip-path:url(#SVGID_10_);}
	.st19{fill:#E08E6D;}
	.st20{fill:#DC6B6A;}
	.st21{opacity:0.3;fill:#F1FDCB;enable-background:new    ;}
	.st22{fill:#8CA1C8;}
	.st23{fill:#DE7E6C;}
	.st24{fill:#F6C796;}
	.st25{fill:#CBD9ED;}
	.st26{fill:#205EA4;}
	.st27{fill:#112E58;stroke:#112E58;stroke-miterlimit:10;}
	.st28{fill:#BFFCF3;}
	.st29{fill:#112E58;}
	.st30{fill:#FFFCE7;}
	.st31{fill:#6CC8B6;}
	.st32{fill:#443731;}
	.st33{fill:#CCEEF2;}
	.st34{opacity:0.57;}
	.st35{fill:#AECCE2;}
	.st36{clip-path:url(#SVGID_12_);}
	.st37{clip-path:url(#SVGID_14_);}
	.st38{fill:#6D82B2;}
	.st39{fill:none;}
	.st40{fill:#BAC6DD;}
	.st41{fill:#794916;}
	.st42{fill:#0254F4;}
	.st43{fill:#26669A;}
	.st44{fill:#E8DEAB;}
	.st45{fill:#51330D;}
	.st46{fill:#F4B795;}
	.st47{fill:#FFFFFF;}
	.st48{fill:#A27426;}
	.st49{fill:#2779F5;}
	.st50{fill:#2D739B;}
	.st51{fill:#0E2348;}
	.st52{fill:#3574F5;}
	.st53{fill:#63679B;}
	.st54{fill:#F5C096;}
	.st55{fill:#517AF5;}
	.st56{fill:#78759B;}
	.st57{fill:#646F9B;}
	.st58{fill:#0B3985;}
	.st59{fill:none;stroke:#38805C;stroke-width:3;stroke-miterlimit:10;}
	.st60{fill:none;stroke:#F2A668;stroke-width:3;stroke-miterlimit:10;}
	.st61{clip-path:url(#SVGID_16_);}
	.st62{opacity:8.400000e-02;fill:#5870C9;enable-background:new    ;}
</style>
<g>
	<defs>
		<polyline id="SVGID_1_" points="1919,1000.5 0.7,1000.5 0.7,-79.5 1919,-79.5 		"/>
	</defs>
	<clipPath id="SVGID_2_">
		<use xlink:href="#SVGID_1_"  style="overflow:visible;"/>
	</clipPath>
	<rect id="sky" x="-2.8" y="-79.5" class="st0" width="1921.9" height="1027.1"/>
	<g id="street" class="st1">
		<rect id="Rectangle_4" x="-139" y="947.2" class="st2" width="2115.9" height="52"/>
	</g>
	<g id="Group_6" class="st1">
		<path id="Path_2" class="st3" d="M827.2,977c19.7,0,59-78.6,59-78.6s39.3,78.6,59,78.6H827.2z"/>
		<path id="Path_3" class="st4" d="M886.2,898.4c0,0-17.2,78.6-29.5,78.6h29.5V898.4z"/>
	</g>
	<g id="Group_7" class="st1">
		<path id="Path_4" class="st5" d="M1021.7,977.7l17.3-52l52-34.7l52,34.7l17.3,52H1021.7z"/>
		<path id="Path_5" class="st6" d="M1056.3,977.7l34.7-52l34.7,52H1056.3z"/>
		<path id="Path_6" class="st7" d="M1021.7,977.7l25.4-51.8l43.9-21.8l43.9,21.8l25.4,51.8l-27.3-46.4l-42-21.1l-42,21.1
			L1021.7,977.7z"/>
	</g>
	<g id="Group_8" class="st1">
		<path id="Path_7" class="st8" d="M736.7,977.5c6.5-31-13.3-61.5-44.3-68c-31-6.5-61.5,13.3-68,44.3c-1.6,7.8-1.6,15.9,0,23.7
			H736.7z"/>
		<path id="Path_8" class="st9" d="M704.4,977.5c-1.2-24.6-10.3-43.7-21.4-43.7c-11.1,0-20.3,19.1-21.4,43.7H704.4z"/>
		<path id="Path_9" class="st9" d="M633.6,977.4c-6.5-31.1,13.3-61.5,44.4-68.1c2.2-0.5,4.4-0.8,6.6-1c-1.3-0.1-2.7-0.1-4-0.1
			c-31.7,0-57.4,25.8-57.4,57.5c0,4,0.4,7.9,1.2,11.8h12.6c0,0,0-0.1,0-0.1H633.6z"/>
	</g>
	<g id="Group_13" class="st1">
		
			<rect id="Rectangle_5" x="729.1" y="930.8" transform="matrix(0.6031 -0.7977 0.7977 0.6031 -453.5686 966.9697)" class="st5" width="31.6" height="17"/>
		
			<rect id="Rectangle_6" x="718.2" y="923.5" transform="matrix(0.7883 -0.6153 0.6153 0.7883 -419.9638 643.8713)" class="st4" width="15.2" height="17.6"/>
		<g id="Group_12">
			<g id="Group_11">
				<g>
					<defs>
						<polygon id="SVGID_3_" points="709.4,931.3 762.3,931.3 757.5,957.2 722.1,960.9 						"/>
					</defs>
					<clipPath id="SVGID_4_">
						<use xlink:href="#SVGID_3_"  style="overflow:visible;"/>
					</clipPath>
					<g id="Group_10" class="st10">
						<g id="Group_9">
							<rect id="Rectangle_7" x="721.9" y="896.4" width="2.2" height="70.1"/>
							<rect id="Rectangle_8" x="729.8" y="896.4" width="2.2" height="70.1"/>
							<rect id="Rectangle_9" x="737.8" y="896.4" width="2.2" height="70.1"/>
							<rect id="Rectangle_10" x="745.8" y="896.4" width="2.2" height="70.1"/>
							<rect id="Rectangle_11" x="753.8" y="896.4" width="2.2" height="70.1"/>
							<rect id="Rectangle_12" x="702" y="951.6" width="70.1" height="2.2"/>
							<rect id="Rectangle_13" x="702" y="943.6" width="70.1" height="2.2"/>
							<rect id="Rectangle_14" x="702" y="935.7" width="70.1" height="2.2"/>
						</g>
					</g>
				</g>
			</g>
			<path id="Path_11" class="st11" d="M709.4,931.3h52.9l-4.8,25.9l-35.4,3.7L709.4,931.3z"/>
			<circle id="Ellipse_1" class="st12" cx="722.2" cy="979.9" r="3.4"/>
			<path id="Path_12" class="st12" d="M762.3,974.6h-37.5c0,0-21,1.2-2.6-13.7l-17.3-40.1l-8.4-1.5"/>
			<circle id="Ellipse_2" class="st12" cx="756.1" cy="979.9" r="3.4"/>
		</g>
	</g>
	<g id="Group_69" class="st1">
		<rect id="Rectangle_15" x="1554.9" y="507.5" class="st13" width="282.3" height="473.4"/>
		<g id="Group_22">
			<g id="Group_18">
				<rect id="Rectangle_17" x="1700.4" y="821.1" class="st14" width="69" height="159.8"/>
				<g id="Group_17">
					<g>
						<defs>
							<rect id="SVGID_5_" x="1700.4" y="821.1" width="69" height="159.8"/>
						</defs>
						<clipPath id="SVGID_6_">
							<use xlink:href="#SVGID_5_"  style="overflow:visible;"/>
						</clipPath>
						<g id="Group_16" class="st15">
							<g id="Group_15">
								<g id="Group_14">
									
										<rect id="Rectangle_18" x="1491.7" y="875.8" transform="matrix(0.7071 -0.7071 0.7071 0.7071 -150.0969 1414.0874)" class="st16" width="280.5" height="24.8"/>
									
										<rect id="Rectangle_19" x="1512.4" y="902.6" transform="matrix(0.7071 -0.7071 0.7071 0.7071 -158.6806 1434.8103)" class="st16" width="280.5" height="12.6"/>
								</g>
							</g>
						</g>
					</g>
				</g>
			</g>
			<rect id="Rectangle_21" x="1623" y="821.1" class="st14" width="69" height="159.8"/>
			<g id="Group_21">
				<g>
					<defs>
						<rect id="SVGID_7_" x="1622.7" y="821.1" width="69" height="159.8"/>
					</defs>
					<clipPath id="SVGID_8_">
						<use xlink:href="#SVGID_7_"  style="overflow:visible;"/>
					</clipPath>
					<g id="Group_20" class="st17">
						<g id="Group_19">
							
								<rect id="Rectangle_22" x="1490.9" y="875.8" transform="matrix(0.7071 -0.7071 0.7071 0.7071 -150.3292 1413.5258)" class="st16" width="280.5" height="24.8"/>
							
								<rect id="Rectangle_23" x="1511.6" y="902.6" transform="matrix(0.7071 -0.7071 0.7071 0.7071 -158.913 1434.249)" class="st16" width="280.5" height="12.6"/>
						</g>
					</g>
				</g>
			</g>
		</g>
		<g id="Group_45">
			<g id="Group_40">
				<g>
					<defs>
						<rect id="SVGID_9_" x="1600.6" y="668.7" width="190.9" height="120.5"/>
					</defs>
					<clipPath id="SVGID_10_">
						<use xlink:href="#SVGID_9_"  style="overflow:visible;"/>
					</clipPath>
					<g id="Group_39" class="st18">
						<g id="Group_38">
							<rect id="Rectangle_485" x="1595.1" y="660.5" class="st19" width="198.3" height="149.3"/>
							<path id="Path_13" class="st20" d="M1793.4,779.3v30.5h-198.3l-0.3-30.7l31.1,0l161.2,0.1L1793.4,779.3z"/>
							<path id="Path_14" class="st21" d="M1793.4,789.3v20.5h-176.5c-1.4-2.5-2.2-5.4-2.2-8.3c0-1.2,0.1-2.4,0.4-3.5
								c0.1-0.6,0.3-1.2,0.5-1.7c0.3-0.5,0.6-0.9,0.9-1.3c1.3-2.2,2.7-4.5,4-6.7c1.8-3,3.7-6.1,5.5-9.1
								c21.9-36.1,44.3-72,67.1-107.6h27.1c22.3,35.9,44.6,71.8,66.9,107.7c1.8,2.8,3.5,5.7,5.3,8.5
								C1792.8,788.3,1793.1,788.8,1793.4,789.3z"/>
							<path id="Path_15" class="st22" d="M1628.1,789.2c-0.7,3.2,8.3,7.7,14.2,9.8c10.7,3.9,18.5,2.9,35.2,2.3c0,0,17.8-0.7,39-0.3
								c17.6,0.4,18.4,1.3,32.3,1.3c17.2,0,38.9,0,40.3-5.8c0.8-3.1-4.5-7.3-9.1-9.3c-10-4.4-16,2.3-33.4,2c-5.3-0.1-11-1.1-22.4-3
								c-9.8-1.7-15.5-3.1-22.4-0.8c-5.1,1.7-25.8,6.7-40.9,3c-8.4-2-9.6-3-14.7-3.3C1638.9,784.7,1628.7,786,1628.1,789.2z"/>
							<path id="Rectangle_485-2" class="st23" d="M1594.9,809.8l-0.1-149.3h28v118.3L1594.9,809.8z"/>
							<path id="Path_17" class="st25" d="M1643.9,761.2c-0.7-0.6-1.2-1.3-1.4-2.2C1642.8,759.9,1643.3,760.6,1643.9,761.2z"/>
							<path id="Path_18" class="st25" d="M1645.1,762.2c-0.4-0.3-0.8-0.6-1.2-1C1644.3,761.6,1644.7,761.9,1645.1,762.2z"/>
							<path id="Path_19" class="st25" d="M1644.2,764.7c-0.7-0.6-1.2-1.3-1.4-2.2C1643.1,763.4,1643.6,764.1,1644.2,764.7z"/>
							<path id="Path_20" class="st25" d="M1645.4,765.7c-0.4-0.3-0.8-0.6-1.2-1C1644.6,765.1,1645,765.4,1645.4,765.7z"/>
							<ellipse id="Ellipse_6" class="st26" cx="1707.4" cy="670.7" rx="12.7" ry="1.6"/>
							<g id="Group_37">
								<rect id="Rectangle_34" x="1704.7" y="660.5" class="st27" width="4.3" height="5.3"/>
								<path id="Path_67" class="st27" d="M1720.8,669v3.3c0-0.6-0.7-1.2-1.9-1.6c-2.4-1-6.9-1.6-12-1.6s-9.6,0.7-12,1.6
									c-1.2,0.5-1.8,1-1.8,1.6V669c0-1.8,6.2-3.3,13.8-3.3C1714.6,665.8,1720.8,667.2,1720.8,669z"/>
								<path id="Path_68" class="st28" d="M1720.8,672.3c0,1.8-6.2,3.3-13.8,3.3c-7.6,0-13.8-1.5-13.8-3.3c0-0.6,0.7-1.2,1.8-1.6
									c2.4-1,6.9-1.6,12-1.6c5.1,0,9.6,0.7,12,1.6C1720.1,671.2,1720.8,671.7,1720.8,672.3z"/>
							</g>
						</g>
					</g>
				</g>
				<g id="Group_71">
					<circle id="Ellipse_13" class="st29" cx="1762.4" cy="702.7" r="3.4"/>
					<rect id="Rectangle_70" x="1760.9" y="704.1" class="st29" width="2.9" height="77.6"/>
					<path id="Path_127" class="st29" d="M1762.6,774.5c6,0,10.8,7.5,10.8,7.5h-21.7C1751.8,782,1756.6,774.5,1762.6,774.5z"/>
					<path id="Rectangle_71" class="st29" d="M1746.8,712.8l15.9,7.1c0.7,0.3,1.1,1.2,0.7,1.9l0,0c-0.3,0.7-1.2,1.1-1.9,0.7
						l-15.9-7.1c-0.7-0.3-1.1-1.2-0.7-1.9l0,0C1745.2,712.8,1746.1,712.5,1746.8,712.8z"/>
					<path id="Rectangle_72" class="st29" d="M1779.1,724.6l-15.9,7.1c-0.7,0.3-1.6,0-1.9-0.7l0,0c-0.3-0.7,0-1.6,0.7-1.9l15.9-7.1
						c0.7-0.3,1.6,0,1.9,0.7l0,0C1780.1,723.4,1779.8,724.3,1779.1,724.6z"/>
				</g>
				<g id="Group_70">
					<path id="Rectangle_67" class="st30" d="M1630.8,762h73.7c3.7,0,6.7,3,6.7,6.7v2.9c0,3.7-3,6.7-6.7,6.7h-73.7
						c-3.7,0-6.7-3-6.7-6.7v-2.9C1624,765,1627.1,762,1630.8,762z"/>
					<path id="Rectangle_68" class="st31" d="M1654.4,755.7h49.6c3.2,0,5.8,2.6,5.8,5.8v14c0,3.2-2.6,5.8-5.8,5.8h-49.6
						c-3.2,0-5.8-2.6-5.8-5.8v-14C1648.6,758.3,1651.2,755.7,1654.4,755.7z"/>
					<rect id="Rectangle_64" x="1621.1" y="741" class="st32" width="5.7" height="48.4"/>
					<rect id="Rectangle_65" x="1626.4" y="774.1" class="st32" width="84.6" height="8.6"/>
					<rect id="Rectangle_66" x="1709.6" y="751.3" class="st32" width="5.7" height="38.1"/>
					<circle id="Ellipse_11" class="st32" cx="1623.8" cy="737.6" r="3.6"/>
					<circle id="Ellipse_12" class="st32" cx="1712.5" cy="747.8" r="3.6"/>
					<path id="Path_125" class="st32" d="M1628.4,777.4c2.7,0.1,4.9,2.3,4.8,5.1c0,1.2-0.8,2.8-2.6,2.8s-3.8,1.3-3.7,3.2
						c0,3.3-3.3-3.2-3.3-6C1623.5,779.7,1625.6,777.5,1628.4,777.4z"/>
					<path id="Path_126" class="st32" d="M1708.4,777.4c-2.7,0.1-4.9,2.3-4.8,5.1c0.1,1.4,1.2,2.6,2.6,2.8c1.5,0.1,3.7,1.4,3.7,3.3
						c0,3.3,3.4-3.3,3.4-6.1C1713.3,779.7,1711.1,777.5,1708.4,777.4z"/>
					<path id="Rectangle_69" class="st33" d="M1633.2,755.7h9.6c2.7,0,4.8,2.2,4.8,4.8l0,0c0,2.7-2.2,4.8-4.8,4.8h-9.6
						c-2.7,0-4.8-2.2-4.8-4.8l0,0C1628.4,757.9,1630.5,755.7,1633.2,755.7z"/>
				</g>
			</g>
			<g id="Group_44" class="st34">
				<rect id="Rectangle_36" x="1600.6" y="668.7" class="st35" width="190.9" height="120.5"/>
				<g id="Group_43">
					<g>
						<defs>
							<rect id="SVGID_11_" x="1600.6" y="668.7" width="190.9" height="120.5"/>
						</defs>
						<clipPath id="SVGID_12_">
							<use xlink:href="#SVGID_11_"  style="overflow:visible;"/>
						</clipPath>
						<g id="Group_42" class="st36">
							<g id="Group_41">
								
									<rect id="Rectangle_37" x="1482.5" y="721.3" transform="matrix(0.7071 -0.7071 0.7071 0.7071 -43.1604 1363.4036)" class="st16" width="283.4" height="25.1"/>
								
									<rect id="Rectangle_38" x="1503.4" y="748.4" transform="matrix(0.7071 -0.7071 0.7071 0.7071 -51.8356 1384.3468)" class="st16" width="283.4" height="12.8"/>
							</g>
						</g>
					</g>
				</g>
			</g>
		</g>
		<g id="Group_68">
			<g id="Group_63">
				<g>
					<defs>
						<rect id="SVGID_13_" x="1600.6" y="530.7" width="190.9" height="120.5"/>
					</defs>
					<clipPath id="SVGID_14_">
						<use xlink:href="#SVGID_13_"  style="overflow:visible;"/>
					</clipPath>
					<g id="Group_62" class="st37">
						<g id="Group_61">
							<rect id="Rectangle_485-3" x="1595.1" y="522.6" class="st19" width="198.3" height="149.3"/>
							<path id="Path_69" class="st20" d="M1793.4,641.3v30.5h-198.3l-0.3-30.7l31.1,0l161.2,0.1L1793.4,641.3z"/>
							<path id="Path_70" class="st21" d="M1793.4,651.3v20.5h-176.5c-1.4-2.5-2.2-5.4-2.2-8.3c0-1.2,0.1-2.4,0.4-3.5
								c0.1-0.6,0.3-1.2,0.5-1.7c0.3-0.5,0.6-0.9,0.9-1.3c1.3-2.2,2.7-4.5,4-6.7c1.8-3,3.7-6.1,5.5-9.1
								c21.9-36.1,44.3-72,67.1-107.6h27.1c22.3,35.9,44.6,71.8,66.9,107.7c1.8,2.8,3.5,5.7,5.3,8.5
								C1792.8,650.3,1793.1,650.8,1793.4,651.3z"/>
							<path id="Path_71" class="st22" d="M1628.1,651.2c-0.7,3.2,8.3,7.7,14.2,9.8c10.7,3.9,18.5,2.9,35.2,2.3c0,0,17.8-0.7,39-0.3
								c17.6,0.4,18.4,1.3,32.3,1.3c17.2,0,38.9,0,40.3-5.8c0.8-3.1-4.5-7.3-9.1-9.3c-10-4.4-16,2.3-33.4,2c-5.3-0.1-11-1.1-22.4-3
								c-9.8-1.7-15.5-3.1-22.4-0.8c-5.1,1.7-25.8,6.7-40.9,3c-8.4-2-9.6-3-14.7-3.3C1638.9,646.8,1628.7,648,1628.1,651.2z"/>
							<path id="Rectangle_485-4" class="st23" d="M1594.9,671.8l-0.1-149.3h28v118.3L1594.9,671.8z"/>
							<path id="Path_73" class="st25" d="M1643.9,623.3c-0.7-0.6-1.2-1.3-1.4-2.2C1642.8,621.9,1643.3,622.7,1643.9,623.3z"/>
							<path id="Path_74" class="st25" d="M1645.1,624.3c-0.4-0.3-0.8-0.6-1.2-1C1644.3,623.7,1644.7,624,1645.1,624.3z"/>
							<path id="Path_75" class="st25" d="M1644.2,626.8c-0.7-0.6-1.2-1.3-1.4-2.2C1643.1,625.4,1643.6,626.2,1644.2,626.8z"/>
							<path id="Path_76" class="st25" d="M1645.4,627.8c-0.4-0.3-0.8-0.6-1.2-1C1644.6,627.2,1645,627.5,1645.4,627.8z"/>
							<g id="Group_59" transform="translate(22 25.683)">
								<g id="Group_46" transform="translate(1483.831 217.204)">
									<path id="Path_77" class="st38" d="M200.1,373.6c1,0,1.8,0.5,1.8,1.2c0,0,0,0,0,0h0v35.5h0c0,0,0,0,0,0
										c0,0.6-0.8,1.2-1.8,1.2s-1.8-0.5-1.8-1.2c0,0,0,0,0,0h0v-35.5h0c0,0,0,0,0,0C198.3,374.1,199.1,373.6,200.1,373.6z"/>
									<path id="Path_78" class="st38" d="M230.9,374.4c0,1.3-0.8,2.4-1.9,2.4c0,0-0.1,0-0.1,0v0h-57.8v0c0,0-0.1,0-0.1,0
										c-1,0-1.9-1.1-1.9-2.4c0-1.3,0.8-2.4,1.9-2.4c0,0,0.1,0,0.1,0v0h57.8v0c0,0,0.1,0,0.1,0C230,372,230.9,373.1,230.9,374.4z"
										/>
									<path id="Path_79" class="st38" d="M212.1,410.1c0,0.9-0.3,1.6-0.7,1.6c0,0,0,0,0,0l0,0h-22.7l0,0c0,0,0,0,0,0
										c-0.4,0-0.7-0.7-0.7-1.6c0-0.9,0.3-1.6,0.7-1.6c0,0,0,0,0,0v0h22.7v0c0,0,0,0,0,0C211.8,408.5,212.1,409.2,212.1,410.1z"/>
								</g>
								<g id="Group_51" transform="translate(1413.457 193.918)">
									<g id="Group_47" transform="translate(0.343 58.226)">
										<line id="Line_9" class="st39" x1="211.8" y1="354.2" x2="206.5" y2="374.1"/>
										
											<rect id="Rectangle_41" x="198.8" y="363.1" transform="matrix(0.2574 -0.9663 0.9663 0.2574 -196.5919 472.4662)" class="st29" width="20.6" height="2"/>
									</g>
									<g id="Group_48" transform="translate(24.533 62.599)">
										<line id="Line_10" class="st39" x1="195.5" y1="351.7" x2="194" y2="374.4"/>
										
											<rect id="Rectangle_42" x="183.4" y="362.1" transform="matrix(6.757996e-02 -0.9977 0.9977 6.757996e-02 -180.6755 532.8065)" class="st29" width="22.7" height="2"/>
									</g>
									<g id="Group_49" transform="translate(32.108 52.114)">
										<line id="Line_11" class="st39" x1="190" y1="357.3" x2="195.1" y2="379.2"/>
										
											<rect id="Rectangle_43" x="191.6" y="357" transform="matrix(0.9735 -0.2289 0.2289 0.9735 -79.1774 53.8517)" class="st29" width="2" height="22.5"/>
									</g>
									<g id="Group_50" transform="translate(50.773 57.838)">
										<line id="Line_12" class="st39" x1="180.3" y1="354.4" x2="185.5" y2="376.3"/>
										
											<rect id="Rectangle_44" x="181.9" y="354.1" transform="matrix(0.9735 -0.2285 0.2285 0.9735 -78.6466 51.4688)" class="st29" width="2" height="22.5"/>
									</g>
									<path id="Path_80" class="st38" d="M209.6,386.2c-5.9,3.8-3.5,13.3-2.8,18.7c0.6,4.8,2.5,6.8,9.1,9
										c6.3,2.1,17.4,0.6,17.6-1.5c0.7-6.1-4.3-3.7-6.8-8.7c-2.8-5.9,1.6-9.6-1.1-14.4C223.1,385.1,214.4,383.1,209.6,386.2z"/>
									<path id="Path_81" class="st40" d="M211.6,385.6c-2.7,2.7-2.2,11.1-1.6,16.2c0.5,4.6,1.8,7.4,7.6,9.4
										c5.6,1.9,15.2,0.8,15.4-1.2c0.4-3.8-4.1-2.2-6.2-7c-2.8-6.5,1.2-9.7-1.1-14.2C223.6,384.8,215.1,382.3,211.6,385.6z"/>
								</g>
								<g id="Group_56" transform="translate(1609.189 193.095)">
									<g id="Group_52" transform="translate(50.425 58.331)">
										<line id="Line_13" class="st39" x1="79.1" y1="354.6" x2="84.3" y2="374.5"/>
										
											<rect id="Rectangle_45" x="80.7" y="354.2" transform="matrix(0.968 -0.251 0.251 0.968 -88.8812 32.1775)" class="st29" width="2" height="20.6"/>
									</g>
									<g id="Group_53" transform="translate(33.888 62.511)">
										<line id="Line_14" class="st39" x1="87.7" y1="352.2" x2="89.1" y2="374.9"/>
										
											<rect id="Rectangle_46" x="87.4" y="352.2" transform="matrix(0.9981 -6.092659e-02 6.092659e-02 0.9981 -21.985 6.0618)" class="st29" width="2" height="22.7"/>
									</g>
									<g id="Group_54" transform="translate(18.706 51.948)">
										<line id="Line_15" class="st39" x1="100.8" y1="357.9" x2="95.6" y2="379.7"/>
										
											<rect id="Rectangle_47" x="87" y="367.8" transform="matrix(0.235 -0.972 0.972 0.235 -283.3171 377.5465)" class="st29" width="22.5" height="2"/>
									</g>
									<g id="Group_55" transform="translate(0 57.454)">
										<line id="Line_16" class="st39" x1="110.5" y1="355" x2="105.2" y2="376.8"/>
										
											<rect id="Rectangle_48" x="96.7" y="364.9" transform="matrix(0.235 -0.972 0.972 0.235 -273.1317 384.7831)" class="st29" width="22.5" height="2"/>
									</g>
									<path id="Path_82" class="st38" d="M132.3,386.7c5.9,3.9,3.5,13.3,2.7,18.7c-0.7,4.8-2.6,6.8-9.1,8.9
										c-6.3,2-17.4,0.4-17.6-1.7c-0.6-6.1,4.4-3.6,6.8-8.7c2.9-5.9-1.5-9.6,1.2-14.3C118.8,385.4,127.4,383.5,132.3,386.7z"/>
									<path id="Path_83" class="st40" d="M130.2,386.1c2.7,2.7,2.1,11.1,1.5,16.2c-0.6,4.6-1.9,7.4-7.7,9.3
										c-5.6,1.9-15.2,0.6-15.4-1.4c-0.4-3.8,4.2-2.1,6.2-6.9c2.8-6.5-1.2-9.7,1.2-14.2C118.2,385.2,126.8,382.7,130.2,386.1z"/>
								</g>
								<g id="Group_57" transform="translate(1432.321 145.112)">
									<path id="Path_84" class="st41" d="M227.7,478.1l7.5,1.4c0.2,0,0.3,0.2,0.2,0.3c0,0.1-0.1,0.2-0.2,0.2l-7.4,0.8
										c-0.4,0-0.8-0.3-0.8-0.7c0,0,0,0,0-0.1l0-1.3c0-0.4,0.3-0.7,0.7-0.7C227.6,478.1,227.6,478.1,227.7,478.1z"/>
									<path id="Path_85" class="st42" d="M231.4,467c-0.1,4.2-0.4,11.5-2.6,12c-0.6,0.1-1.2-0.3-1.6-0.6
										c-1.2-0.9-2.3-2.9-2.2-11.3c0-2.2,0.2-5.1,0.6-8.6c-3.6,0.5-7.3,0.7-10.9,0.7c-7-0.1-10.6-0.2-12.6-2.8
										c-2.1-2.7-2.4-7.8,0-9.9c2-1.8,5.1-0.9,5.6-0.8c1.7,0.5,3.1,1.5,4.2,2.9c1.6,0.3,3.2,0.6,4.9,0.8c4.7,0.8,9.3,1.7,13.8,2.7
										C231.3,457,231.6,462,231.4,467z"/>
									<path id="Path_86" class="st43" d="M236,436.2c0.1,1.4-3.7,2.8-8.6,3.2c-4.1,0.3-7.6-0.2-8.6-1.2c-0.2-0.2-0.5-0.4-0.7-0.6
										c-1.7-1.1-3.3-2.4-4.7-3.9c-3.8-3.8-6-7.9-4.9-9c1.1-1.1,5.2,1.1,9,4.9c1.3,1.3,2.6,2.8,3.6,4.4c1.9,0.1,4.7,0.5,6,0.4
										C231.8,434,235.8,434.8,236,436.2z"/>
									<path id="Path_87" class="st44" d="M216.2,418.5l-1.1,0.3c-0.6,1.7-2,2.8-3.5,2.8c-0.3,0-0.6,0-0.9-0.1l0,0.1
										c-0.2-0.2-0.4-0.3-0.7-0.5c-0.9-0.6-1.7-0.9-1.8-0.7c-0.1,0.2,0.5,0.8,1.3,1.4c0.3,0.2,0.6,0.4,1,0.6l-0.1,0.3
										c0.2,0.2,0.4,0.4,0.5,0.7l0,0c0.3,0.5,0.5,1.1,0.4,1.7l0,0c0,0.3-0.2,0.7-0.5,0.8c-0.1,0.1-0.2,0.1-0.3,0.1
										c-0.6,0-1.3-0.3-1.6-0.8l0,0c0,0-0.1-0.1-0.1-0.1l0,0l-0.9-0.2c-0.4-0.4-0.4-0.7-1.3-1.6c-0.2-0.2-0.5-0.5-0.6-0.6
										c0-0.1,0-0.1,0-0.1s0,0,0-0.1c0.1-0.5,0.7-3.4,0.7-3.5l1.1-0.6l0.4-0.2l0.6-0.4l0.3-0.4c-0.2-0.3-0.3-0.6-0.3-0.9
										c0-0.7,0.4-1.2,0.8-1.2c0.2,0,0.4,0.1,0.5,0.3v0.9h1.4V415c1.2-0.1,2.4-0.3,3.6-0.6c0.3,0.7,0.4,1.5,0.4,2.2L216.2,418.5z"
										/>
									<path id="Path_88" class="st27" d="M216.7,413.7c-0.5,0.3-1,0.6-1.6,0.7c-1.2,0.3-2.4,0.5-3.6,0.6v1.4h-1.4v-0.9
										c-0.1-0.2-0.3-0.3-0.5-0.3c-0.5,0-0.8,0.6-0.8,1.2c0,0.3,0.1,0.7,0.3,0.9l-0.3,0.4l-0.6,0.4l-0.4,0.2l-1.1,0.6l-0.1,0.1
										c0,0-2.2-5.9,0.5-7.8c2.7-1.9,9.6-0.1,10.4-1.6S218.4,412.6,216.7,413.7z"/>
									
										<ellipse id="Ellipse_7" transform="matrix(0.5 -0.866 0.866 0.5 -253.5841 393.9213)" class="st45" cx="214.4" cy="416.6" rx="0.6" ry="0.2"/>
									<path id="Path_89" class="st45" d="M213.4,419.1c0,0.5,0.4,1,1,1L213.4,419.1z"/>
									<path id="Path_90" class="st46" d="M210.6,421.6l-0.1,0.7c-0.3-0.2-0.7-0.4-1-0.6c-0.9-0.6-1.5-1.2-1.3-1.4
										c0.1-0.2,0.9,0.1,1.8,0.7C210.2,421.3,210.4,421.5,210.6,421.6z"/>
									<path id="Path_91" class="st47" d="M211.8,425.2c-0.1,0.4-0.3,0.7-0.7,1c-1.1,0.6-3-1.1-3.1-1.2c-0.1-0.1-0.1-0.1-0.2-0.2
										c-0.4-0.4-0.6-0.7-1.6-1.6c-0.2-0.2-0.3,0-0.4-0.2c-0.1-0.1-0.1-0.2-0.1-0.2c0,0,0.1-0.2,0.2-0.2c0.1,0.1,0.3,0.1,0.4,0.2
										c1,0.6,1.2,1.1,1.9,1.8c0.1,0.1,0.3,0.3,0.4,0.4c0,0,0.1,0.1,0.1,0.1l0,0c0.5,0.4,1,0.7,1.7,0.8c0.2,0,0.3,0,0.4-0.1
										c0.3-0.2,0.4-0.5,0.4-0.9l0,0c0-0.3,0-0.5-0.1-0.8c-0.2-0.4-0.4-0.8-0.6-1.2c0,0,0,0.1,0.3,0.3c0.2,0.2,0.4,0.4,0.6,0.7
										C211.8,424.2,211.9,424.7,211.8,425.2z"/>
									<path id="Path_92" class="st48" d="M219.2,479.9l7.4,1.6c0.2,0,0.3,0.2,0.2,0.3c0,0.1-0.1,0.2-0.3,0.2l-7.4,0.6
										c-0.4,0-0.8-0.3-0.8-0.7c0,0,0,0,0-0.1l0-1.3c0-0.4,0.3-0.7,0.7-0.7C219.1,479.9,219.2,479.9,219.2,479.9z"/>
									<path id="Path_93" class="st44" d="M235.8,432.3c-0.8,0-3.4,1.8-2.2,3.8c0.9,1.5,3.7,1.5,5.5,0.4c1.6-1,2.4-3,2-3.3
										c-1.1-1.1-3.3,1.9-5.2,1.4C234.6,434.2,237.1,432.3,235.8,432.3z"/>
									<path id="Path_94" class="st49" d="M226.9,467.7c-0.1,4.3-2.3,12.4-4.6,12.9c-0.6,0.1-2.1,0.3-2.5,0c-1.3-0.9-1.9-4,0-12.3
										c0.6-2.7,1.9-5.5,2.3-9c-3.5,0.4-7,0.6-10.6,0.5c-7.5-0.1-11.3-0.2-13.4-2.8c-2.3-2.8-2.5-7.9,0-10c2.1-1.8,5.4-0.9,6-0.8
										c1.8,0.5,3.3,1.5,4.5,2.9c1.7,0.3,3.4,0.6,5.2,0.9c5,0.8,8.4,1.9,13.2,2.9C227.8,459.2,227,464.1,226.9,467.7z"/>
									<path id="Path_95" class="st50" d="M206.1,422.6c-0.7-0.2-1.5,1.5-2.6,3.3c-1.7,2.7-4.6,6.8-5.2,9.6
										c-0.8,3.9-3.3,16.2-2.1,16.2c3.6,0,10.4-3.2,14.9-1.9c1.4,0.4,4.4-23.3,0.3-26.3c-0.1,0,0.7,1.7-0.2,2.5
										c-0.8,0.7-1.5,0.3-2.6-0.7C207,423.9,206.5,422.8,206.1,422.6z"/>
									<path id="Path_96" class="st43" d="M229.5,442.4c0.1,1.4-3.7,2.8-8.6,3.2c-2.3,0.2-4.7,0.1-7-0.4c-1.6-0.1-4.4-2.6-6.8-6.1
										c-2.8-4.2-4-8.3-2.7-9.2c1.3-0.9,4.7,1.8,7.5,6c1.1,1.6,2,3.4,2.7,5.3c2-0.5,4.9-0.4,5.8-0.5
										C225.4,440.2,229.4,441,229.5,442.4z"/>
									<path id="Path_97" class="st44" d="M229,437.8c-0.8,0-3.4,1.8-2.2,3.8c0.9,1.5,3.7,1.5,5.5,0.4c1.6-1,2.4-3,2-3.3
										c-1.1-1.1-3.3,1.9-5.2,1.4C227.8,439.7,230.2,437.8,229,437.8z"/>
								</g>
								<g id="Group_58" transform="translate(1570.512 145.128)">
									<path id="Path_98" class="st51" d="M146.2,413.5c0.2,1.9,1.7,2.4,3.5,4.4c1.9,2,0.5,4.1,0.6,6.7c0.2,4.5-1,5.1-0.2,5.6
										c1.2,0.8,6.9-0.8,8.1-4.6c1-3-0.6-5.8-2.3-9.6c-1.3-2.9-2-4.6-3.8-5.2C149.2,409.8,146,411.9,146.2,413.5z"/>
									<path id="Path_99" class="st41" d="M135,477.4l-7.5,1.4c-0.2,0-0.3,0.2-0.2,0.3c0,0.1,0.1,0.2,0.2,0.2l7.4,0.8
										c0.4,0,0.8-0.3,0.8-0.7c0,0,0,0,0-0.1l0-1.3c0-0.4-0.3-0.7-0.7-0.7C135.1,477.4,135.1,477.4,135,477.4z"/>
									<path id="Path_100" class="st52" d="M131.9,466.4c0.1,4.2,0.2,11.5,2.3,12c0.6,0.1,0.7-0.3,1.2-0.6
										c1.2-0.9,1.3-2.2,1.2-10.6c0-2.2,0.2-7.8-0.2-11.3c2.6,0.4,7,2.8,11.5,2.7c7-0.1,10.6-0.2,12.6-2.8c2.1-2.7,2.4-7.8,0-9.9
										c-2-1.8-5.1-0.9-5.6-0.8c-1.7,0.5-3.1,1.5-4.2,2.9c-1.6,0.3-3.2,0.6-4.9,0.8c-4.7,0.8-8.4,1.7-13,2.7
										C132.2,456.4,131.9,461.4,131.9,466.4z"/>
									<path id="Path_101" class="st53" d="M130.8,436.9c-0.1,1,2.4,1.6,6.4,0.9c2.8-0.5,5.9-1.8,6.9-2.5c0.2-0.2,0.4-0.3,0.6-0.4
										c1.4-0.8,2.8-1.7,4-2.8c3.2-2.7,5.1-5.6,4.1-6.4s-1.4-0.4-6.1,3.5c-1.3,1-3.5,2.6-4.2,3.6c-1.7,0.4-3.5,1.5-5,2.3
										C135.1,436.2,130.9,435.9,130.8,436.9z"/>
									<path id="Path_102" class="st44" d="M146.5,418.1l1.1,0.3c0.6,1.7,2,2.8,3.5,2.8c0.3,0,0.6,0,0.9-0.1l0,0.1
										c0.2-0.2,0.4-0.3,0.7-0.5c0.9-0.6,1.7-0.9,1.8-0.7c0.1,0.2-0.5,0.8-1.3,1.4c-0.3,0.2-0.6,0.4-1,0.6l0.1,0.3
										c-0.2,0.2-0.4,0.4-0.5,0.7l0,0c-0.3,0.5-0.5,1.1-0.4,1.7l0,0c0,0.3,0.2,0.7,0.5,0.8c0.1,0.1,0.2,0.1,0.3,0.1
										c0.6,0,1.3-0.3,1.6-0.8l0,0c0,0,0.1-0.1,0.1-0.1l0,0l0.9-0.2c0.4-0.4,0.4-0.7,1.3-1.6c0.2-0.2,0.5-0.5,0.6-0.6
										c0-0.1,0-0.1,0-0.1c0,0,0,0,0-0.1c-0.1-0.5-0.7-3.4-0.7-3.5l-1.1-0.6l-0.4-0.2l-0.6-0.4l-0.3-0.4c0.2-0.3,0.3-0.6,0.3-0.9
										c0-0.7-0.4-1.2-0.8-1.2c-0.2,0-0.4,0.1-0.5,0.3v0.9h-1.4v-1.4c-1.2-0.1-2.4-0.3-3.6-0.6c-0.3,0.7-0.4,1.5-0.4,2.2
										L146.5,418.1z"/>
									
										<ellipse id="Ellipse_8" transform="matrix(0.866 -0.5 0.5 0.866 -188.1339 129.88)" class="st45" cx="148.3" cy="416" rx="0.2" ry="0.5"/>
									<path id="Path_103" class="st45" d="M149.3,418.4c0,0.5-0.4,1-1,1L149.3,418.4z"/>
									<path id="Path_104" class="st46" d="M152.1,421l0.1,0.7c0.3-0.2,0.7-0.4,1-0.6c0.9-0.6,1.5-1.2,1.3-1.4
										c-0.1-0.2-0.9,0.1-1.8,0.7C152.5,420.6,152.3,420.8,152.1,421z"/>
									<path id="Path_105" class="st47" d="M150.9,424.7c0.1,0.4,0.3,0.7,0.7,1c1.1,0.6,2.9-1.1,3-1.2c0.1-0.1,0.1-0.1,0.2-0.2
										c0.4-0.4,0.4-0.7,1.3-1.6c0.2-0.2,0.5-0.5,0.6-0.6c0.1-0.1,0.1-0.2,0.1-0.2c0,0-0.1,0-0.1,0c-0.2,0.1-0.4,0.2-0.5,0.3
										c-0.9,0.6-1.2,1.2-1.8,1.9c-0.1,0.1-0.3,0.3-0.4,0.4c0,0-0.1,0.1-0.1,0.1l0,0c-0.5,0.4-1,0.7-1.6,0.8c-0.2,0-0.3,0-0.4-0.1
										c-0.2-0.2-0.4-0.5-0.4-0.9l0,0c0-0.3,0-0.5,0.1-0.8c0.2-0.5,0.5-0.9,0.8-1.2c0,0-0.2,0.1-0.5,0.3c-0.2,0.2-0.4,0.4-0.6,0.7
										C150.9,423.8,150.8,424.2,150.9,424.7z"/>
									<path id="Path_106" class="st48" d="M143.5,479.2l-7.4,1.6c-0.2,0-0.3,0.2-0.2,0.3c0,0.1,0.1,0.2,0.3,0.2l7.4,0.6
										c0.4,0,0.8-0.3,0.8-0.7c0,0,0,0,0-0.1l0-1.3c0-0.4-0.3-0.7-0.7-0.7C143.6,479.2,143.6,479.2,143.5,479.2z"/>
									<path id="Path_107" class="st54" d="M131.5,434.6c0.6,0,2.6,1.4,1.6,2.9c-0.7,1.1-2.8,1.1-4.1,0.3
										c-1.2-0.7-1.8-2.2-1.5-2.5c0.8-0.8,2.4,1.5,3.9,1C132.4,436,130.5,434.6,131.5,434.6z"/>
									<path id="Path_108" class="st55" d="M136.5,467.1c0.5,4.8,2.2,12.6,4.5,13.1c0.6,0.1,1.6,0.2,2-0.2c0.5-0.6,1.3-4-0.6-12.3
										c-0.6-2.7-0.8-6.5-1.3-10c2.8,0.4,5.3,1,10.1,0.9c7.5-0.1,11.3,0.4,13.4-2.2c2.3-2.8,2.5-7.9,0-10c-2.1-1.8-5.4-0.9-6-0.8
										c-1.8,0.5-3.3,1.5-4.5,2.9c-1.7,0.3-3.4,0.8-5.2,1.1c-5,0.8-7.8,1.7-12.6,2.7C135.8,457.2,135.8,462.2,136.5,467.1z"/>
									<path id="Path_109" class="st56" d="M156.6,422c0.7-0.2,1.5,1.5,2.6,3.3c1.7,2.7,4,9.7,4.2,12.4c0.6,7.1,4.2,13.3,3,13.3
										c-3.6,0-10.4-3.2-14.9-1.9c-0.7,0.2,3.8-6.7-0.6-12.5c-3.4-4.6-1.6-12.1,0.3-13.4c0.1,0-0.8,1.4,0.1,2.2
										c0.8,0.7,1.5,0.3,2.6-0.7C155.8,423.3,156.2,422.1,156.6,422z"/>
									<path id="Path_110" class="st57" d="M135.8,439.5c-0.1,1,3,2.1,7,2.3c2.3,0.2,4.8,0.4,6.2,0.1c1.3-0.1,3-2.3,4.9-4.8
										c2.3-3.1,3.3-6.1,2.2-6.7s-3.2,1.3-5.4,4.4c-1,1.4-2.1,2.6-2.8,3.8c-1.6,0-4,0.1-4.7,0.1
										C139.1,438.3,135.9,438.5,135.8,439.5z"/>
									<path id="Path_111" class="st27" d="M146.2,413.5c0.2,1.9,3.4,0.8,5.2,2.7c1.9,2,0.1,3.2,0.2,5.8c0.2,4.5-1,6.3-0.2,6.9
										c1.2,0.8,6.9-0.8,8.1-4.6c1-3-0.6-5.8-2.3-9.6c-1.3-2.9-2-4.6-3.8-5.2C150.5,408.5,146,411.9,146.2,413.5z"/>
									<ellipse id="Ellipse_9" class="st58" cx="132" cy="432.8" rx="7.7" ry="3"/>
									<path id="Path_112" class="st59" d="M126.4,433.1c0-0.2,0.4-1.5,1.3-1.5c0.8,0,0.6,2.7,1.3,2.7c0.6,0,0.4-2.1,0.6-2.1
										s1.1,1.7,1.1,1.7"/>
									<path id="Path_113" class="st59" d="M137.6,432.6c0.2,0.1,0.9,1.3,0.3,1.9s-2.5-1.2-2.9-0.8c-0.4,0.5,1.4,1.6,1.2,1.8
										c-0.1,0.2-2-0.2-2-0.2"/>
									<path id="Path_114" class="st59" d="M131.1,432.4c0.2-0.1,1.5-0.2,1.8,0.5c0.3,0.8-2.2,1.7-1.9,2.3c0.3,0.6,2-0.5,2.1-0.3
										c0.1,0.2-1.1,1.7-1.1,1.7"/>
									<path id="Path_115" class="st60" d="M127.4,435.8c-0.1-0.2-0.4-1.5,0.3-1.9c0.7-0.4,1.9,2,2.5,1.7c0.5-0.3-0.8-2-0.6-2.1
										c0.2-0.1,1.8,0.9,1.8,0.9"/>
									<path id="Path_116" class="st60" d="M133.1,434.1c0.2,0,1.4,0.5,1.4,1.4c-0.1,0.8-2.8,0.4-2.8,1c0,0.6,2,0.5,2,0.8
										c0,0.2-1.7,0.9-1.7,0.9"/>
									<path id="Path_117" class="st27" d="M139.7,432.8c0,4.3-3.5,7.7-7.7,7.7c-4.3,0-7.7-3.5-7.7-7.7c0,1.2,3.5,2.2,7.7,2.2
										C136.3,435,139.7,434,139.7,432.8z"/>
									<path id="Path_118" class="st44" d="M135.1,436.5c0.7,0,2.7,1.5,1.7,3c-0.7,1.2-3,1.2-4.3,0.3c-1.3-0.8-1.9-2.4-1.6-2.6
										c0.9-0.9,2.6,1.5,4.1,1.1C136,438,134.1,436.5,135.1,436.5z"/>
									<path id="Path_119" class="st59" d="M128.9,432c-0.1-0.2-0.7-1.4-0.1-1.9c0.6-0.6,2.3,1.6,2.8,1.1s-1.1-1.8-1-1.9
										c0.2-0.2,1.9,0.5,1.9,0.5"/>
									<path id="Path_120" class="st59" d="M133.5,431.3c0-0.2,0.3-1.5,1.1-1.6c0.8-0.1,0.9,2.6,1.5,2.6c0.6-0.1,0.2-2.1,0.4-2.1
										c0.2,0,1.2,1.5,1.2,1.5"/>
									<path id="Path_121" class="st60" d="M132.6,433.8c-0.1-0.2-0.4-1.5,0.3-1.9c0.7-0.4,1.9,2,2.5,1.7s-0.8-2-0.6-2.1
										c0.2-0.1,1.8,0.9,1.8,0.9"/>
									<path id="Path_122" class="st60" d="M127.9,430.4c0.1-0.2,1.1-1.1,1.8-0.7c0.7,0.4-0.8,2.7-0.2,3c0.5,0.3,1.3-1.6,1.5-1.5
										s0.1,2,0.1,2"/>
								</g>
							</g>
							<ellipse id="Ellipse_10" class="st26" cx="1707.4" cy="532.7" rx="12.7" ry="1.6"/>
							<g id="Group_60">
								<rect id="Rectangle_49" x="1704.7" y="522.6" class="st27" width="4.3" height="5.3"/>
								<path id="Path_123" class="st27" d="M1720.8,531.1v3.3c0-0.6-0.7-1.2-1.9-1.6c-2.4-1-6.9-1.6-12-1.6s-9.6,0.7-12,1.6
									c-1.2,0.5-1.8,1-1.8,1.6v-3.3c0-1.8,6.2-3.3,13.8-3.3C1714.6,527.8,1720.8,529.3,1720.8,531.1z"/>
								<path id="Path_124" class="st28" d="M1720.8,534.4c0,1.8-6.2,3.3-13.8,3.3c-7.6,0-13.8-1.5-13.8-3.3c0-0.6,0.7-1.2,1.8-1.6
									c2.4-1,6.9-1.6,12-1.6c5.1,0,9.6,0.7,12,1.6C1720.1,533.2,1720.8,533.8,1720.8,534.4z"/>
							</g>
						</g>
					</g>
				</g>
			</g>
			<g id="Group_67" class="st34">
				<rect id="Rectangle_51" x="1600.6" y="530.7" class="st35" width="190.9" height="120.5"/>
				<g id="Group_66">
					<g>
						<defs>
							<rect id="SVGID_15_" x="1600.6" y="530.7" width="190.9" height="120.5"/>
						</defs>
						<clipPath id="SVGID_16_">
							<use xlink:href="#SVGID_15_"  style="overflow:visible;"/>
						</clipPath>
						<g id="Group_65" class="st61">
							<g id="Group_64">
								
									<rect id="Rectangle_52" x="1482.5" y="583.3" transform="matrix(0.7071 -0.7071 0.7071 0.7071 54.385 1322.9989)" class="st16" width="283.4" height="25.1"/>
								
									<rect id="Rectangle_53" x="1503.4" y="610.4" transform="matrix(0.7071 -0.7071 0.7071 0.7071 45.7098 1343.9421)" class="st16" width="283.4" height="12.8"/>
							</g>
						</g>
					</g>
				</g>
			</g>
		</g>
	</g>
</g>
<path id="路径_1819_2_" class="st62" d="M1919,1000.5V610.1h-6.9v17.8h-9.1v235.7h-23.6V503.5h-9.1v-23.7h-49.3l0.1,0l0,0h49.4
	l-31-92l0.1-0.4l-0.2,0.1l0,0l0,0l-74.7,31.5l-25.5,85l-0.1,0v22.7l-7.9,2.3v182.9H1662v87.7h-9.9v-32h-16.7v32h-9.9V459.7l0.2-0.1
	l-35.6-163.6l-72.9,21.4l-44.5,174.2h0v302h-9.1v-22.5H1439V701H1423v-97.6c0-0.3,0-0.7,0-1c0-21.6-8.5-40.1-20.5-47.9v-21.6
	c0-8.6-3.5-15.9-8.4-18.6v-18.9h-10v19.7c-4.2,3.2-7.1,10-7.1,17.8v21.9c-11.8,8-20,26.3-19.8,47.6c0,0.1,0,0.3,0,0.4h-0.1V701
	h-19.3l-11.7,28.4l-89.2-68v-38h-13v38.1l-89.2,68L1123,701h-19.3v-98.2h-0.1c0-0.1,0-0.3,0-0.4c0.1-21.3-8-39.6-19.8-47.6v-21.9
	c0-7.8-2.9-14.5-7.1-17.8v-19.7h-10v18.9c-4.9,2.8-8.4,10.1-8.4,18.6v21.6c-12,7.8-20.5,26.3-20.5,47.9c0,0.5,0,1,0,1.5V701h-16.1
	v92.7h-13.6V618.4H857v175.3h-13V521.2h-20.5v-26.1l-14.4-26.3h-16.6l-22.4,38.6v23.8l0.2,0.2v25.3h-13.7v222.7h-12.9V757h-9.1v22.5
	h-6.1V645.6h-0.1c0-13.1-4.7-29.2-17.3-40.9c-8.8-8.2-21.4-10-28.3-4.8v-51.4h-0.2c0-0.3,0-0.6,0-0.9c-0.5-16.5-7.6-32.2-19.7-43.5
	c-12.9-12-32.6-12.8-35.3,0.6h-0.3v2.6c0,0.3,0,0.5,0,0.8c0,0.3,0,0.6,0,0.9v106c-2.9-7-7.2-13.4-12.8-18.6
	c-12.6-11.8-33-10.4-33.2,5.9c-0.1,3.8,0.2,7.5,0.8,11.3h-0.4v165.8h-14.4V418.2h0.2l-12.2-36.2l-42.8-45.6l-47.7,53.4l-9.8,28.5
	h0.6v445.4h-8.4V562.7h-8.4v-11.8h-73.7v11.8h-9.9v328.1l0,0v-69.9h-7.6V527.2h-76.8v258.2h-35v-21.3h-33.4v21.3h-12.9V527.2h6.8
	v-29.6h-17.5v-34.4H147v34.4h-16.7v29.6h7.6v293.8h-19.8v-21.3h-9.9v-20.1H94.6v20.1h-6.1V490.4h3.8v-27.2h-7.6V443h-3.8v-14.2H50.5
	V443h-3.8v20.1h-0.1v-20.5l-35.9,43.2H11v335.1H-2.8l3.5,179.6H1919z"/>
</svg>
