<?xml version="1.0" encoding="utf-8"?>
<!-- Generator: Adobe Illustrator 23.0.4, SVG Export Plug-In . SVG Version: 6.00 Build 0)  -->
<svg version="1.1" id="Layer_1" xmlns="http://www.w3.org/2000/svg" xmlns:xlink="http://www.w3.org/1999/xlink" x="0px" y="0px"
	 viewBox="0 0 1920 1080" style="enable-background:new 0 0 1920 1080;" xml:space="preserve">
<style type="text/css">
	.st0{opacity:0.3;}
	.st1{fill:#224B80;}
	.st2{fill:#FF9696;}
	.st3{fill:#1F417A;}
	.st4{fill:#8FC0FF;}
	.st5{fill:#FDA2A2;}
	.st6{fill:#92B3D6;}
	.st7{fill:url(#SVGID_1_);}
	.st8{opacity:0.8;fill:#4497FF;enable-background:new    ;}
	.st9{fill:#FC6464;}
	.st10{fill:#25497A;}
	.st11{fill:#B7DFE6;}
</style>
<title>landing page to animate-v2 new color boat repositioned</title>
<g id="background">
	<g id="Group_80" class="st0">
		<g id="Group_74">
			<g id="Group_72">
				<rect id="Rectangle_167" x="1084.7" y="942.5" class="st1" width="64.6" height="106.1"/>
				<rect id="Rectangle_168" x="1156.8" y="932" class="st1" width="64.6" height="106.1"/>
				<rect id="Rectangle_169" x="1175.3" y="921.5" class="st1" width="64.6" height="106.1"/>
				<rect id="Rectangle_170" x="1213.8" y="871.9" class="st1" width="42.8" height="155.8"/>
				<rect id="Rectangle_171" x="1213.8" y="853" class="st1" width="35.8" height="174.6"/>
				<rect id="Rectangle_172" x="1262.1" y="921.5" class="st1" width="42.8" height="155.8"/>
				<rect id="Rectangle_173" x="1283.2" y="825.2" class="st1" width="63.5" height="202.4"/>
				<rect id="Rectangle_174" x="1291.3" y="813.9" class="st1" width="48.9" height="213.7"/>
				<rect id="Rectangle_175" x="1301.1" y="803.3" class="st1" width="31" height="224.2"/>
				<rect id="Rectangle_176" x="1363.5" y="746.1" class="st1" width="42.8" height="289.7"/>
				<path id="Path_53" class="st1" d="M1406.4,746.1l62.9,16.3v273.4h-62.9V746.1z"/>
				<path id="Path_54" class="st1" d="M1392.1,672.5l13.1,58.7H1370L1392.1,672.5z"/>
				<rect id="Rectangle_177" x="1370" y="731.1" class="st1" width="35.3" height="25.6"/>
				<path id="Path_55" class="st1" d="M1405.3,731.1l58.4,15.4v25.6l-58.4-15.4V731.1z"/>
				<path id="Path_56" class="st1" d="M1391.9,672.5l53.5,20.1l18.2,54l-58.6-15.5L1391.9,672.5z"/>
				<rect id="Rectangle_178" x="1469.3" y="878.6" class="st1" width="49.4" height="179.9"/>
				<rect id="Rectangle_179" x="1516" y="934.3" class="st1" width="43.4" height="57.9"/>
				<rect id="Rectangle_180" x="1525.7" y="914" class="st1" width="12" height="57.9"/>
				<rect id="Rectangle_181" x="1544.6" y="738.6" class="st1" width="109" height="253.6"/>
				<rect id="Rectangle_182" x="1544.6" y="718.3" class="st1" width="33" height="273.9"/>
				<path id="Path_57" class="st1" d="M1570,614.4l52,13.6l31.7,110.7h-28.5l-80.7-20.4L1570,614.4z"/>
				<rect id="Rectangle_183" x="1544.6" y="718.3" class="st1" width="100.9" height="39.2"/>
				<path id="Path_58" class="st1" d="M1648.7,718.2l5,20.6L1648.7,718.2z"/>
				<rect id="Rectangle_184" x="1544.6" y="930.5" class="st1" width="584" height="61.7"/>
				<rect id="Rectangle_185" x="1660.2" y="916.2" class="st1" width="18.5" height="61.7"/>
				<rect id="Rectangle_186" x="1686.3" y="905" class="st1" width="11.4" height="61.7"/>
				<rect id="Rectangle_187" x="1702" y="880.9" class="st1" width="43.9" height="61.7"/>
				<rect id="Rectangle_188" x="1706.4" y="885.3" class="st1" width="43.9" height="61.7"/>
				<rect id="Rectangle_189" x="1907" y="924.5" class="st1" width="8.1" height="61.7"/>
				<rect id="Rectangle_190" x="1925.5" y="924.5" class="st1" width="10.9" height="61.7"/>
				<rect id="Rectangle_164" x="1062" y="1029.1" class="st1" width="1748.7" height="64"/>
				<rect id="Rectangle_165" x="1083.6" y="992.2" class="st1" width="1715" height="100.8"/>
				<rect id="Rectangle_227" x="1249.6" y="932" class="st1" width="42.8" height="136.9"/>
				<rect id="Rectangle_228" x="1340.2" y="974.9" class="st1" width="42.8" height="46.7"/>
			</g>
			<g id="Group_63">
				<g id="Group_61">
					<g id="Group_60">
						<g id="Group_58">
							<path id="Path_142" class="st1" d="M1975.4,966.7v-95.1h-11.5v-62.4h-47v62.4h-13.7l-8.4,18l-68.3-46.4v123.5H1975.4z"/>
							<path id="Path_145" class="st1" d="M1940.2,776.1c13.1,0,23.7,14.7,23.7,32.9s-10.6,32.9-23.7,32.9
								c-13-0.2-23.3-15-23.2-32.9C1916.8,790.9,1927.2,776.3,1940.2,776.1z"/>
							<path id="Path_143" class="st1" d="M1931.2,764.8h18.2v30.8h-18.2V764.8z"/>
							<ellipse id="Ellipse_3" class="st1" cx="1940.2" cy="764.8" rx="9.1" ry="12.6"/>
						</g>
					</g>
					<rect id="Rectangle_517" x="1822.1" y="822.3" class="st1" width="9.1" height="40.6"/>
				</g>
				<g id="Group_62">
					<g id="Group_60-2">
						<g id="Group_58-2">
							<path id="Path_142-2" class="st1" d="M1677.7,966.7v-95.1h11.5v-62.4h47v62.4h13.7l8.4,18l68.4-46.4v123.5H1677.7z"/>
							<path id="Path_145-2" class="st1" d="M1712.9,776.1c-13.1,0-23.7,14.7-23.7,32.9s10.6,32.9,23.7,32.9
								c13-0.2,23.3-15,23.2-32.9C1736.2,790.9,1725.8,776.3,1712.9,776.1z"/>
							<path id="Path_143-2" class="st1" d="M1722,764.8h-18.2v30.8h18.2V764.8z"/>
							<ellipse id="Ellipse_3-2" class="st1" cx="1712.9" cy="764.8" rx="9.1" ry="12.6"/>
							<path id="Path_144-2" class="st1" d="M1716.9,741h-7.1v30.8h7.1V741z"/>
						</g>
					</g>
					<rect id="Rectangle_517-2" x="1821.9" y="822.3" class="st1" width="9.1" height="40.6"/>
				</g>
			</g>
		</g>
		<g id="Group_75">
			<g id="Group_73">
				<g id="Group_76">
					<rect id="Rectangle_521" x="1802.3" y="937.7" class="st2" width="43.7" height="24.6"/>
					<rect id="Rectangle_522" x="1850.9" y="937.7" class="st2" width="23.8" height="24.6"/>
					<path id="Path_148" class="st2" d="M1802.3,886.5c0,0,6.5-5.6,22-5.7c15.4-0.1,21.8,5.7,21.8,5.7v45.4h-43.7V886.5z"/>
					<rect id="Rectangle_523" x="1773.6" y="937.7" class="st2" width="23.3" height="24.6"/>
					<path id="Path_149" class="st2" d="M1773.6,907.3c6.8-6.9,14.6-12.7,23.3-17.5v42.1h-23.3V907.3z"/>
					<path id="Path_150" class="st2" d="M1874.7,907.3c-6.8-7.3-14.9-13.5-23.8-18.4v43.1h23.8V907.3z"/>
				</g>
				<path id="Subtraction_4" class="st2" d="M1708.8,794.9c3.5,0.1,6.7,2.2,8.9,6c2.6,4.4,4,9.4,4,14.4l0,0v16.6h-13.1V795
					L1708.8,794.9L1708.8,794.9z M1704.9,795.9L1704.9,795.9v35.9h-9v-16.6l0,0c0-4.2,1-8.3,2.7-12.1
					C1699.7,800.2,1702,797.6,1704.9,795.9L1704.9,795.9z M1708.6,838.4h13.1v25.9h-13.1V838.4z M1695.9,838.4h9v25.9h-9V838.4z"/>
				<path id="Subtraction_5" class="st2" d="M1708.9,880.4c4.3,0.1,8.3,2.8,11.1,7.3c3.3,5.5,4.9,11.6,4.9,17.9l0,0v20.6h-16.2
					v-45.8H1708.9z M1704.1,881.6v44.5h-11.2v-20.6l0,0c0.1-5.1,1.2-10.2,3.4-15C1697.7,886.9,1700.5,883.8,1704.1,881.6
					L1704.1,881.6z M1708.7,934.4h16.2v32.1h-16.2V934.4L1708.7,934.4z M1692.9,934.4h11.2v32.1h-11.2V934.4L1692.9,934.4z"/>
				<path id="Subtraction_6" class="st2" d="M1937,794.9c3.5,0.1,6.7,2.2,9,6c2.6,4.4,4,9.4,4,14.4l0,0v16.6h-13.2V795L1937,794.9
					L1937,794.9z M1933,795.9L1933,795.9v35.9h-9v-16.6l0,0c0-4.2,1-8.3,2.7-12.1C1928,800.2,1930.2,797.6,1933,795.9L1933,795.9z
					 M1936.8,838.4h13.1v25.9h-13.1V838.4z M1924,838.4h9v25.9h-9V838.4z"/>
				<path id="Subtraction_7" class="st2" d="M1937.1,880.4c4.3,0.1,8.4,2.8,11.1,7.3c3.3,5.5,4.9,11.6,4.9,17.9l0,0v20.6h-16.2
					v-45.8H1937.1z M1932.3,881.6v44.5h-11.2v-20.6l0,0c0.1-5.1,1.2-10.2,3.4-15C1925.9,886.9,1928.7,883.8,1932.3,881.6
					L1932.3,881.6z M1936.9,934.4h16.2v32.1h-16.2V934.4L1936.9,934.4z M1921.1,934.4h11.2v32.1h-11.2V934.4L1921.1,934.4z"/>
			</g>
			<rect id="Rectangle_230" x="1083" y="948.8" class="st2" width="43.4" height="85.8"/>
			<rect id="Rectangle_231" x="1104.7" y="1049.6" class="st2" width="67.3" height="22.6"/>
			<rect id="Rectangle_232" x="1198.6" y="1054.9" class="st2" width="6.5" height="35.3"/>
			<rect id="Rectangle_233" x="1231.6" y="1066.1" class="st2" width="36.9" height="12"/>
			<rect id="Rectangle_234" x="1271.3" y="1037.6" class="st2" width="13.1" height="35.3"/>
			<rect id="Rectangle_235" x="1213.2" y="858.5" class="st2" width="18.5" height="146.8"/>
			<rect id="Rectangle_236" x="1213.2" y="911.9" class="st2" width="28.2" height="20.3"/>
			<rect id="Rectangle_237" x="1218.6" y="921.7" class="st2" width="28.2" height="10.5"/>
			<rect id="Rectangle_238" x="1213.2" y="939.8" class="st2" width="28.2" height="4.6"/>
			<rect id="Rectangle_239" x="1180.1" y="922.5" class="st2" width="33" height="27.8"/>
			<rect id="Rectangle_240" x="1206.2" y="922.5" class="st2" width="7" height="72.3"/>
			<path id="Rectangle_241" class="st2" d="M1198,984.9L1198,984.9c2.1,0,3.8,2.3,3.8,5.3v9.8c0,2.9-1.7,5.3-3.8,5.3l0,0
				c-2.1,0-3.8-2.3-3.8-5.3v-9.8C1194.2,987.3,1195.9,984.9,1198,984.9z"/>
			<path id="Rectangle_242" class="st2" d="M1088.5,1054.9L1088.5,1054.9c3,0,5.4,3.3,5.4,7.5v7.5c0,4.2-2.4,7.5-5.4,7.5l0,0
				c-3,0-5.4-3.3-5.4-7.5v-7.5C1083,1058.2,1085.4,1054.9,1088.5,1054.9z"/>
			<rect id="Rectangle_243" x="1169.7" y="939.8" class="st2" width="22.7" height="51.9"/>
			<rect id="Rectangle_244" x="1164.3" y="939.8" class="st2" width="22.7" height="4.6"/>
			<rect id="Rectangle_246" x="1181.8" y="983.4" class="st2" width="9.8" height="25.6"/>
			<rect id="Rectangle_247" x="1150.3" y="1014.2" class="st2" width="41.2" height="13.6"/>
			<rect id="Rectangle_249" x="1156.2" y="1034.6" class="st2" width="35.3" height="12.1"/>
			<rect id="Rectangle_250" x="1159" y="983.4" class="st2" width="17.4" height="32.4"/>
			<path id="Rectangle_252" class="st2" d="M1159.8,942L1159.8,942c1.4,0,2.5,1.5,2.5,3.3v6.8c0,1.9-1.1,3.3-2.5,3.3l0,0
				c-1.4,0-2.5-1.5-2.5-3.3v-6.8C1157.3,943.6,1158.4,942,1159.8,942z"/>
			<rect id="Rectangle_253" x="1249.5" y="931.5" class="st2" width="34.7" height="82.8"/>
			<rect id="Rectangle_254" x="1243.1" y="1003.7" class="st2" width="28.2" height="27.1"/>
			<rect id="Rectangle_255" x="1281" y="825.4" class="st2" width="4.8" height="188.9"/>
			<rect id="Rectangle_256" x="1325.5" y="1005.2" class="st2" width="48.9" height="9"/>
			<rect id="Rectangle_257" x="1344" y="968.3" class="st2" width="48.9" height="47.4"/>
			<rect id="Rectangle_258" x="1363.4" y="743.3" class="st2" width="39.6" height="272.4"/>
			<rect id="Rectangle_259" x="1389" y="755.4" class="st2" width="14.1" height="272.4"/>
			<path id="Path_68" class="st2" d="M1564,674.4l9,53.2l-30.3-0.1L1564,674.4z"/>
			<path id="Path_152" class="st2" d="M1370,727.5l20-45.7l10.4,45.7v39.2H1370V727.5z"/>
			<rect id="Rectangle_261" x="1314.6" y="1042.1" class="st2" width="19" height="13.6"/>
			<rect id="Rectangle_262" x="1333.6" y="1050.3" class="st2" width="96.5" height="5.3"/>
			<rect id="Rectangle_263" x="1426.9" y="1015.7" class="st2" width="26" height="23.3"/>
			<rect id="Rectangle_264" x="1458.4" y="1015.7" class="st2" width="4.4" height="23.3"/>
			<rect id="Rectangle_265" x="1320.6" y="825.4" class="st2" width="9.8" height="188.9"/>
			<rect id="Rectangle_266" x="1281" y="825.4" class="st2" width="49.4" height="5.3"/>
			<rect id="Rectangle_267" x="1281" y="836" class="st2" width="49.4" height="5.3"/>
			<rect id="Rectangle_268" x="1281" y="846.5" class="st2" width="49.4" height="5.3"/>
			<rect id="Rectangle_269" x="1281" y="857" class="st2" width="49.4" height="5.3"/>
			<rect id="Rectangle_270" x="1281" y="867.5" class="st2" width="49.4" height="5.3"/>
			<rect id="Rectangle_271" x="1281" y="878.1" class="st2" width="49.4" height="5.3"/>
			<rect id="Rectangle_272" x="1281" y="888.6" class="st2" width="49.4" height="5.3"/>
			<rect id="Rectangle_273" x="1281" y="899.1" class="st2" width="49.4" height="5.3"/>
			<rect id="Rectangle_274" x="1281" y="909.6" class="st2" width="49.4" height="5.3"/>
			<rect id="Rectangle_275" x="1281" y="920.2" class="st2" width="49.4" height="5.3"/>
			<rect id="Rectangle_276" x="1281" y="930.7" class="st2" width="49.4" height="5.3"/>
			<rect id="Rectangle_277" x="1281" y="941.2" class="st2" width="49.4" height="5.3"/>
			<rect id="Rectangle_278" x="1281" y="951.8" class="st2" width="49.4" height="5.3"/>
			<rect id="Rectangle_279" x="1281" y="962.4" class="st2" width="49.4" height="5.3"/>
			<rect id="Rectangle_280" x="1281" y="972.9" class="st2" width="49.4" height="5.3"/>
			<rect id="Rectangle_281" x="1281" y="983.4" class="st2" width="49.4" height="5.3"/>
			<rect id="Rectangle_282" x="1281" y="994" class="st2" width="49.4" height="5.3"/>
			<rect id="Rectangle_283" x="1281" y="1004.5" class="st2" width="49.4" height="5.3"/>
			<path id="Path_70" class="st2" d="M1410.2,708.4l5.5,2.8l5.4,23.3l-5.2-1.9L1410.2,708.4z"/>
			<path id="Path_71" class="st2" d="M1420,712.8l5.5,2.8l5.4,23.3l-5.1-1.8L1420,712.8z"/>
			<path id="Path_72" class="st2" d="M1430.2,717.5l5.6,2.7l5.4,23.2l-5.3-1.6L1430.2,717.5z"/>
			<path id="Path_73" class="st2" d="M1440.5,722.7l5.6,2.7l5.3,23l-5.3-1.3L1440.5,722.7z"/>
			<path id="Path_74" class="st2" d="M1406,727.9l5.4,2.7l0.1,27.3l-5.4-2.7L1406,727.9z"/>
			<path id="Path_75" class="st2" d="M1415.9,731.5l5.2,2.8l0.4,27.4l-5.2-2.8L1415.9,731.5z"/>
			<path id="Path_76" class="st2" d="M1425.7,736.1l5.3,2.8l0.4,27.6l-5.3-2.8L1425.7,736.1z"/>
			<path id="Path_77" class="st2" d="M1435.7,740.6l5.4,2.6l0.1,27.2l-5.4-2.6L1435.7,740.6z"/>
			<path id="Path_78" class="st2" d="M1446.2,745.8l5.2,2.4l-0.1,25.6l-5.2-2.4L1446.2,745.8z"/>
			<rect id="Rectangle_284" x="1458.4" y="1055.6" class="st2" width="23.8" height="23.3"/>
			<rect id="Rectangle_285" x="1497.5" y="1037.6" class="st2" width="23.8" height="11.3"/>
			<rect id="Rectangle_286" x="1467.6" y="878.3" class="st2" width="47.2" height="15.6"/>
			<rect id="Rectangle_287" x="1467.6" y="881.1" class="st2" width="10.9" height="128.7"/>
			<rect id="Rectangle_288" x="1467.6" y="968.3" class="st2" width="35.8" height="41.4"/>
			<rect id="Rectangle_289" x="1503.4" y="878.1" class="st2" width="11.4" height="97.8"/>
			<path id="Rectangle_290" class="st2" d="M1526.1,942.7L1526.1,942.7c2.7,0,4.8,3.1,4.8,6.8v12.1c0,3.7-2.2,6.8-4.8,6.8l0,0
				c-2.7,0-4.8-3.1-4.8-6.8v-12C1521.3,945.8,1523.5,942.7,1526.1,942.7z"/>
			<rect id="Rectangle_291" x="1537.5" y="978.2" class="st2" width="5.4" height="72.3"/>
			<rect id="Rectangle_292" x="1550.6" y="971.4" class="st2" width="17.4" height="72.3"/>
			<rect id="Rectangle_293" x="1550.6" y="1033.8" class="st2" width="87.8" height="9.8"/>
			<rect id="Rectangle_294" x="1599.3" y="1007.5" class="st2" width="5.9" height="36.1"/>
			<rect id="Rectangle_296" x="1561.5" y="942.7" class="st2" width="14.1" height="46.7"/>
			<path id="Path_79" class="st2" d="M1541.4,715.5l27.3-100.8h6.9v361.2h-34.2V715.5z"/>
			<path id="Path_80" class="st2" d="M1602.6,682l17.4,56.8v250.6h-17.4V682z"/>
			<path id="Path_82" class="st2" d="M1589.1,624.6l4.3,1.2l34.5,111.3h-4.2L1589.1,624.6z"/>
			<path id="Path_83" class="st2" d="M1595.6,626.9l4.9,1.3l33.4,108.9h-4.2L1595.6,626.9z"/>
			<path id="Path_84" class="st2" d="M1602.9,629.6l4.3,1.5l32.6,106h-4.2L1602.9,629.6z"/>
			<path id="Path_85" class="st2" d="M1609.3,632.6l4.6,1.2l31.8,103.3h-4.2L1609.3,632.6z"/>
			<path id="Rectangle_297" class="st2" d="M1662,939.8L1662,939.8c1.7,0,3,1.9,3,4.2v18c0,2.3-1.3,4.2-3,4.2l0,0
				c-1.7,0-3-1.9-3-4.2v-18C1659.1,941.6,1660.4,939.8,1662,939.8z"/>
			<rect id="Rectangle_300" x="1673.1" y="1014.2" class="st2" width="77.4" height="10.5"/>
			<path id="Rectangle_301" class="st2" d="M1843.5,982.1h14.1c3.9,0,7,4.4,7,9.8l0,0c0,5.4-3.2,9.8-7,9.8h-14.1c-3.9,0-7-4.4-7-9.8
				l0,0C1836.4,986.4,1839.6,982.1,1843.5,982.1z"/>
			<path id="Rectangle_303" class="st2" d="M1666.4,1030.8h3.8c2.6,0,4.6,2.9,4.6,6.4l0,0c0,3.5-2.1,6.4-4.6,6.4h-3.8
				c-2.6,0-4.6-2.9-4.6-6.4l0,0C1661.7,1033.7,1663.8,1030.8,1666.4,1030.8z"/>
			<path id="Rectangle_304" class="st2" d="M1645.7,1057.9h3.8c2.6,0,4.6,2.9,4.6,6.4l0,0c0,3.5-2.1,6.4-4.6,6.4h-3.8
				c-2.6,0-4.6-2.9-4.6-6.4l0,0C1641.2,1060.8,1643.2,1057.9,1645.7,1057.9z"/>
			<path id="Rectangle_305" class="st2" d="M1682.6,1064.7h27.7c2.6,0,4.6,2.9,4.6,6.4l0,0c0,3.5-2.1,6.4-4.6,6.4h-27.7
				c-2.6,0-4.6-2.9-4.6-6.4l0,0C1678.1,1067.5,1680,1064.7,1682.6,1064.7z"/>
			<rect id="Rectangle_306" x="1719.9" y="1051.7" class="st2" width="69.9" height="10.5"/>
			<rect id="Rectangle_309" x="1645.2" y="848" class="st2" width="23.3" height="85"/>
			<path id="Rectangle_311" class="st2" d="M1712.8,994.6h7c2.6,0,4.6,2.9,4.6,6.4l0,0c0,3.5-2.1,6.4-4.6,6.4h-7
				c-2.6,0-4.6-2.9-4.6-6.4l0,0C1708.2,997.5,1710.3,994.6,1712.8,994.6z"/>
			<path id="Rectangle_312" class="st2" d="M1737.8,983.7h3.3c3.8,0,6.7,4.2,6.7,9.4l0,0c0,5.2-3.1,9.4-6.7,9.4h-3.3
				c-3.8,0-6.7-4.2-6.7-9.4l0,0C1731,987.8,1734,983.7,1737.8,983.7z"/>
			<rect id="Rectangle_313" x="1807.6" y="1031.4" class="st2" width="50.4" height="26.6"/>
			<rect id="Rectangle_314" x="1875" y="1002.7" class="st2" width="48.7" height="21"/>
			<path id="Rectangle_316" class="st2" d="M1899.3,926.8L1899.3,926.8c2.9,0,5.2,3.3,5.2,7.3v24.7c0,4-2.4,7.3-5.2,7.3l0,0
				c-2.9,0-5.2-3.3-5.2-7.3v-24.7C1894.1,930.1,1896.4,926.8,1899.3,926.8z"/>
			<rect id="Rectangle_534" x="1932.6" y="1062.4" class="st2" width="29.3" height="17.3"/>
			<rect id="Rectangle_535" x="1907.7" y="1043.6" class="st2" width="7.6" height="40.6"/>
			<rect id="Rectangle_537" x="1826" y="1049" class="st2" width="64" height="18"/>
			<rect id="Rectangle_538" x="1886" y="973" class="st2" width="7.4" height="40.6"/>
			<rect id="Rectangle_539" x="1752.2" y="910.1" class="st2" width="5.1" height="52.4"/>
			<rect id="Rectangle_540" x="1743.1" y="897.4" class="st2" width="4.2" height="52.4"/>
		</g>
	</g>
	<rect x="323.9" y="1029.6" class="st3" width="98.5" height="15.6"/>
	<rect x="335" y="1019" class="st3" width="76.6" height="15.6"/>
	<polygon class="st3" points="382.5,836.2 392.5,835.6 406.3,1026.1 396.2,1026.7 	"/>
	<polygon class="st3" points="340.9,1026 354.6,835.5 364.7,836.2 351,1026.7 	"/>
	<rect x="783.6" y="1029.6" class="st3" width="98.4" height="15.6"/>
	<rect x="794.5" y="1019" class="st3" width="76.6" height="15.6"/>
	<polygon class="st3" points="797.7,1024.8 813.2,927.7 823.1,929.2 807.7,1026.2 	"/>
	<polygon class="st3" points="842.2,929.1 852.1,927.7 867.6,1024.7 857.6,1026.1 	"/>
	<path class="st3" d="M794.5,911.9v19.5h28c0.6-2.5,4.8-4.5,10-4.5s9.5,2,10,4.5H871v-19.5H794.5z"/>
	<rect x="641.4" y="1029.6" class="st3" width="98.4" height="15.6"/>
	<rect x="652.4" y="1019" class="st3" width="76.6" height="15.6"/>
	<polygon class="st3" points="655.6,1024.8 671,927.7 681,929.2 665.5,1026.2 	"/>
	<polygon class="st3" points="700,929.1 710,927.7 725.5,1024.7 715.5,1026.1 	"/>
	<path class="st3" d="M652.4,911.9v19.5h28c0.6-2.5,4.8-4.5,10-4.5s9.5,2,10,4.5h28.5v-19.5H652.4z"/>
	<rect x="486.3" y="1029.6" class="st3" width="98.4" height="15.6"/>
	<rect x="497.4" y="1019" class="st3" width="76.6" height="15.6"/>
	<polygon class="st3" points="500.5,1024.8 520.1,902.2 530,903.6 510.5,1026.2 	"/>
	<polygon class="st3" points="541.3,905.5 551.3,904.1 570.5,1024.8 560.5,1026.2 	"/>
	<rect x="153.2" y="1029.6" class="st3" width="98.5" height="15.6"/>
	<rect x="164.2" y="1019" class="st3" width="76.6" height="15.6"/>
	<polygon class="st3" points="209,799.2 219.1,798.6 235.5,1026 225.4,1026.7 	"/>
	<polygon class="st3" points="170.2,1026 188.1,778.8 198.1,779.5 180.3,1026.7 	"/>
	<path class="st3" d="M-24.6,682.6c0,0,427.6,248.7,1127.6,216.2l-15.7,81.7c0,0-856.6-47.4-1102.1-250.7
		c-18.7-15.5,25.3-20.7,13.5-38.2L-24.6,682.6z"/>
	<g id="Group_80-2">
		<g id="Group_74-2">
			<g id="Group_72-2">
				<rect id="Rectangle_189-2" x="977.6" y="967.8" class="st1" width="9.8" height="67.9"/>
				<rect id="Rectangle_190-2" x="999.8" y="967.8" class="st1" width="13.1" height="67.9"/>
				<rect id="Rectangle_191" x="1020" y="946.3" class="st1" width="15.6" height="67.9"/>
				<path id="Path_151" class="st1" d="M1071.5,852h129.8v188.2h-129.8V852z"/>
				<rect id="Rectangle_193" x="1212.3" y="784.1" class="st1" width="63.2" height="299.8"/>
				<rect id="Rectangle_194" x="1224.1" y="808.9" class="st1" width="63.2" height="299.8"/>
				<path id="Path_59" class="st1" d="M1229.9,765.8l12.4-18.4h14.2l19.2,27V791l-45.8,35.2V765.8z"/>
				<rect id="Rectangle_195" x="1287.3" y="964.5" class="st1" width="63.2" height="114.5"/>
				<rect id="Rectangle_196" x="1298.5" y="948.8" class="st1" width="7.8" height="77.8"/>
				<rect id="Rectangle_197" x="1311.4" y="870.9" class="st1" width="125.8" height="186.3"/>
				<rect id="Rectangle_198" x="1350.6" y="803" class="st1" width="47.6" height="184.6"/>
				<path id="Path_60" class="st1" d="M1326.4,842.4c10.8-8.3,28.3-7.3,28.5,4.2s-4,18.9-14.4,27.3c-10.5,8.4-28.8,6.4-28.9-2.7
					C1311.6,859.9,1317.1,849.4,1326.4,842.4z"/>
				<path id="Path_62" class="st1" d="M1367.6,772c11.9-9.1,30.7-8.9,30.6,2.8c-0.1,11.7-4.8,19.7-16.4,28.9
					c-11.6,9.2-31.3,8.1-31-1.3C1351.1,793,1355.7,781.1,1367.6,772z"/>
				<rect id="Rectangle_199" x="1370.2" y="772.4" class="st1" width="28" height="184.6"/>
				<path id="Path_64" class="st1" d="M1326.4,860.6c10.8-8.3,28.3-7.3,28.5,4.2s-4,18.9-14.4,27.3c-10.5,8.4-28.8,6.4-28.9-2.7
					C1311.6,878.1,1317.1,867.6,1326.4,860.6z"/>
				<path id="Path_65" class="st1" d="M1409.1,836.6c10.8-8.3,28.3-7.3,28.5,4.2c0.2,11.4-4,18.9-14.4,27.3
					c-10.5,8.4-28.8,6.4-28.9-2.7C1394.4,854.1,1399.8,843.5,1409.1,836.6z"/>
				<rect id="Rectangle_200" x="1410.5" y="848.6" class="st1" width="26.7" height="208.7"/>
				<rect id="Rectangle_201" x="1410.5" y="964.5" class="st1" width="72.4" height="92.7"/>
				<rect id="Rectangle_202" x="1449.7" y="712" class="st1" width="95.8" height="337.8"/>
				<path id="Path_66" class="st1" d="M1496.8,654.8l40.8,37.3l8.4,19.9h-96.4l10.5-25.3L1496.8,654.8z"/>
				<rect id="Rectangle_203" x="1552.8" y="813" class="st1" width="78.9" height="245.9"/>
				<rect id="Rectangle_204" x="1537.7" y="1023.4" class="st1" width="25.4" height="35.6"/>
				<rect id="Rectangle_205" x="1631.6" y="993.5" class="st1" width="394.4" height="57.1"/>
				<rect id="Rectangle_206" x="1638.1" y="741" class="st1" width="65.9" height="309.6"/>
				<rect id="Rectangle_207" x="1773.7" y="767.4" class="st1" width="44.3" height="231"/>
				<rect id="Rectangle_208" x="1782.9" y="743.4" class="st1" width="27.4" height="231"/>
				<rect id="Rectangle_209" x="1767.9" y="767.4" class="st1" width="56.7" height="20.7"/>
				<rect id="Rectangle_210" x="1701.4" y="968.7" class="st1" width="75.7" height="29.8"/>
				<rect id="Rectangle_211" x="1733.9" y="953.8" class="st1" width="28.7" height="29.8"/>
				<rect id="Rectangle_212" x="1835" y="978.6" class="st1" width="28.7" height="29.8"/>
				<rect id="Rectangle_213" x="1843.5" y="964.5" class="st1" width="11.8" height="38.1"/>
				<rect id="Rectangle_214" x="1860.4" y="743.4" class="st1" width="35.9" height="259.2"/>
				<rect id="Rectangle_215" x="1863.7" y="729.4" class="st1" width="32.6" height="259.2"/>
				<rect id="Rectangle_216" x="1867" y="719.4" class="st1" width="26.1" height="259.1"/>
				<rect id="Rectangle_217" x="1867" y="759.2" class="st1" width="60" height="253.3"/>
				<rect id="Rectangle_218" x="1857.2" y="743.4" class="st1" width="48.3" height="19.1"/>
				<rect id="Rectangle_219" x="1559.9" y="804.7" class="st1" width="63.2" height="245.9"/>
				<path id="Path_67" class="st1" d="M1896.4,729.1l30.8,30.2h-30.8V729.1z"/>
				<rect id="Rectangle_164-2" x="1563" y="1031.5" class="st1" width="438.1" height="58.2"/>
				<rect id="Rectangle_164-3" x="1742.7" y="1096" class="st1" width="87.4" height="23.4"/>
				<rect id="Rectangle_164-4" x="1887.3" y="1038.7" class="st1" width="49.8" height="71.2"/>
				<rect id="Rectangle_164-5" x="1463" y="1032.8" class="st1" width="122" height="65.4"/>
				<rect id="Rectangle_164-6" x="1359.5" y="1079.4" class="st1" width="127" height="29"/>
				<rect id="Rectangle_164-7" x="977.2" y="1005" class="st1" width="255.1" height="96.4"/>
				<rect id="Rectangle_164-8" x="1328.9" y="1067" class="st1" width="58.4" height="11.9"/>
				<rect id="Rectangle_164-9" x="1154.3" y="1099.6" class="st1" width="58.4" height="11.9"/>
				<rect id="Rectangle_164-10" x="1118.3" y="1083.2" class="st1" width="19" height="21.4"/>
			</g>
		</g>
		<g id="Group_75-2">
			<path id="Path_92" class="st2" d="M1527.7,685.9L1527.7,685.9l-4.6,26.5h-16.3L1527.7,685.9z"/>
			<path id="Path_93" class="st2" d="M1481.3,685.9l-2.3,2.9l27.9,23.6h16.1l-39.9-31.8L1481.3,685.9z"/>
			<path id="Path_95" class="st2" d="M1527.7,685.9L1527.7,685.9l-22.2,7.7l-8.4-37.8L1527.7,685.9z"/>
			<path id="Rectangle_318" class="st2" d="M1096.1,1071h13.6c2.2,0,4,2.2,4,4.9l0,0c0,2.8-1.8,4.9-4,4.9h-13.6c-2.2,0-4-2.2-4-4.9
				l0,0C1092.2,1073.2,1093.9,1071,1096.1,1071z"/>
			<rect id="Rectangle_319" x="1070.2" y="866.5" class="st2" width="86" height="194.6"/>
			<rect id="Rectangle_320" x="1070.2" y="845.7" class="st2" width="86" height="10.8"/>
			<rect id="Rectangle_323" x="1176.3" y="1056.9" class="st2" width="35.2" height="19.1"/>
			<rect id="Rectangle_325" x="1141.1" y="1085" class="st2" width="9.1" height="44.7"/>
			<path id="Rectangle_326" class="st2" d="M1200.1,998.1L1200.1,998.1c3.5,0,6.2,3.5,6.2,7.9v24.8c0,4.4-2.8,7.9-6.2,7.9l0,0
				c-3.5,0-6.2-3.5-6.2-7.9V1006C1193.9,1001.6,1196.7,998.1,1200.1,998.1z"/>
			<rect id="Rectangle_327" x="1224.6" y="777.8" class="st2" width="7.8" height="293.1"/>
			<rect id="Rectangle_328" x="1210.8" y="777.8" class="st2" width="4.5" height="298.1"/>
			<rect id="Rectangle_329" x="1210.8" y="1066.1" class="st2" width="49.6" height="10"/>
			<rect id="Rectangle_330" x="1210.8" y="777.8" class="st2" width="24.8" height="28.2"/>
			<path id="Path_86" class="st2" d="M1260.7,749.5l12.8,17.7V1071h-13.1L1260.7,749.5z"/>
			<path id="Path_87" class="st2" d="M1227.2,759.7l12.1-16.7h4.8v44.9h-16.9V759.7z"/>
			<rect id="Rectangle_331" x="1278" y="800.2" class="st2" width="7.8" height="270.7"/>
			<path id="Rectangle_332" class="st2" d="M1296.3,1038.7L1296.3,1038.7c3.3,0,5.8,3.3,5.8,7.4v13.2c0,4.1-2.7,7.4-5.8,7.4l0,0
				c-3.3,0-5.8-3.3-5.8-7.4v-13.2C1290.5,1042.1,1293,1038.7,1296.3,1038.7z"/>
			<path id="Rectangle_333" class="st2" d="M1299.3,1075.9L1299.3,1075.9c1.6,0,3,1.7,3,3.7v9.1c0,2-1.3,3.7-3,3.7l0,0
				c-1.6,0-3-1.7-3-3.7v-9.1C1296.3,1077.6,1297.6,1075.9,1299.3,1075.9z"/>
			<path id="Path_88" class="st2" d="M1324.9,836.2c10.8-8.3,28.3-7.3,28.5,4.2c0.2,11.4-4,18.9-14.4,27.3
				c-10.5,8.4-28.8,6.4-28.9-2.7C1310.1,853.7,1315.6,843.1,1324.9,836.2z"/>
			<path id="Path_89" class="st2" d="M1366.1,765.8c11.9-9.1,30.7-9,30.6,2.8c-0.1,11.8-4.8,19.7-16.4,28.9s-31.3,8.1-31-1.3
				S1354.2,774.9,1366.1,765.8z"/>
			<path id="Path_90" class="st2" d="M1407.7,830.4c10.8-8.3,28.3-7.3,28.5,4.2s-4,18.9-14.4,27.3c-10.5,8.4-28.8,6.4-28.9-2.7
				C1392.9,848,1398.4,837.4,1407.7,830.4z"/>
			<rect id="Rectangle_335" x="1312.6" y="866.5" class="st2" width="16.3" height="57.1"/>
			<rect id="Rectangle_336" x="1349.1" y="795.2" class="st2" width="20.2" height="44.7"/>
			<rect id="Rectangle_337" x="1353.7" y="795.2" class="st2" width="15.6" height="66.2"/>
			<rect id="Rectangle_338" x="1392.8" y="857.4" class="st2" width="12.4" height="66.2"/>
			<path id="Path_91" class="st2" d="M1363.9,905.7c10.8-8.3,28.3-7.3,28.5,4.2s-4,18.9-14.4,27.3c-10.5,8.4-28.8,6.4-28.9-2.7
				C1349.2,923.3,1354.6,912.7,1363.9,905.7z"/>
			<rect id="Rectangle_339" x="1349.1" y="936" class="st2" width="20.2" height="57.9"/>
			<rect id="Rectangle_340" x="1392.8" y="857.4" class="st2" width="5.8" height="136.6"/>
			<rect id="Rectangle_341" x="1312.6" y="923.6" class="st2" width="36.5" height="8.3"/>
			<rect id="Rectangle_342" x="1312.6" y="941.8" class="st2" width="36.5" height="5.8"/>
			<rect id="Rectangle_343" x="1319.1" y="955" class="st2" width="30" height="5.8"/>
			<rect id="Rectangle_344" x="1309.3" y="968.3" class="st2" width="39.8" height="5.8"/>
			<rect id="Rectangle_345" x="1309.3" y="981.5" class="st2" width="39.8" height="5.8"/>
			<rect id="Rectangle_346" x="1309.3" y="994.8" class="st2" width="39.8" height="5.8"/>
			<rect id="Rectangle_347" x="1309.3" y="1008" class="st2" width="39.8" height="5.8"/>
			<rect id="Rectangle_348" x="1309.3" y="1021.3" class="st2" width="39.8" height="5.8"/>
			<rect id="Rectangle_349" x="1309.3" y="1034.5" class="st2" width="39.8" height="5.8"/>
			<rect id="Rectangle_350" x="1349.1" y="1000.6" class="st2" width="51.5" height="7.4"/>
			<rect id="Rectangle_351" x="1349.1" y="1013.9" class="st2" width="51.5" height="7.4"/>
			<rect id="Rectangle_352" x="1349.1" y="1027.1" class="st2" width="51.5" height="7.4"/>
			<rect id="Rectangle_353" x="1349.1" y="1040.4" class="st2" width="51.5" height="7.4"/>
			<rect id="Rectangle_354" x="1398.7" y="927.8" class="st2" width="35.2" height="4.2"/>
			<rect id="Rectangle_355" x="1398.7" y="939.3" class="st2" width="35.2" height="5.8"/>
			<rect id="Rectangle_356" x="1398.7" y="955" class="st2" width="35.2" height="5.8"/>
			<rect id="Rectangle_357" x="1398.7" y="968.3" class="st2" width="35.2" height="5.8"/>
			<rect id="Rectangle_358" x="1398.7" y="981.5" class="st2" width="35.2" height="5.8"/>
			<rect id="Rectangle_359" x="1398.7" y="994.8" class="st2" width="35.2" height="5.8"/>
			<rect id="Rectangle_360" x="1398.7" y="1008" class="st2" width="35.2" height="5.8"/>
			<rect id="Rectangle_361" x="1398.7" y="1021.3" class="st2" width="35.2" height="5.8"/>
			<rect id="Rectangle_362" x="1353.7" y="860.7" class="st2" width="35.6" height="5.8"/>
			<rect id="Rectangle_363" x="1353.7" y="873.9" class="st2" width="35.6" height="5.8"/>
			<rect id="Rectangle_364" x="1353.7" y="887.1" class="st2" width="35.6" height="5.8"/>
			<rect id="Rectangle_365" x="1353.7" y="900.4" class="st2" width="35.6" height="5.8"/>
			<rect id="Rectangle_366" x="1330.2" y="1065.2" class="st2" width="117.4" height="15.7"/>
			<rect id="Rectangle_367" x="1506.9" y="712.5" class="st2" width="16.3" height="318.8"/>
			<rect id="Rectangle_368" x="1449.5" y="712.5" class="st2" width="4" height="318.8"/>
			<path id="Path_94" class="st2" d="M1481.3,685.9L1481.3,685.9l-28,35.2l-3.9-8.7v-7.7l10.1-24.8l35.6-31.2L1481.3,685.9z"/>
			<path id="Rectangle_369" class="st2" d="M1522.9,1048.6L1522.9,1048.6c3.1,0,5.5,3.2,5.5,7.1v18.2c0,3.9-2.5,7.1-5.5,7.1l0,0
				c-3.1,0-5.5-3.2-5.5-7.1v-18.2C1517.3,1051.7,1519.8,1048.6,1522.9,1048.6z"/>
			<rect id="Rectangle_370" x="1534.9" y="1068.5" class="st2" width="43" height="7.4"/>
			<rect id="Rectangle_370-2" x="1419.2" y="1101.1" class="st2" width="43" height="7.4"/>
			<rect id="Rectangle_370-3" x="1616.7" y="1102.1" class="st2" width="43" height="7.4"/>
			<rect id="Rectangle_370-4" x="1378.1" y="1087" class="st2" width="12.2" height="13.4"/>
			<rect id="Rectangle_370-5" x="1584.4" y="1098.8" class="st2" width="12.2" height="13.4"/>
			<rect id="Rectangle_371" x="1573.4" y="1049.4" class="st2" width="26.7" height="34.8"/>
			<rect id="Rectangle_372" x="1557.1" y="798.6" class="st2" width="64.6" height="16.6"/>
			<rect id="Rectangle_373" x="1554.4" y="806.8" class="st2" width="75" height="17.4"/>
			<rect id="Rectangle_374" x="1557.1" y="829.2" class="st2" width="69.7" height="6.6"/>
			<rect id="Rectangle_375" x="1557.1" y="841.6" class="st2" width="69.7" height="6.6"/>
			<rect id="Rectangle_376" x="1557.1" y="854" class="st2" width="69.7" height="6.6"/>
			<rect id="Rectangle_377" x="1557.1" y="866.5" class="st2" width="69.7" height="6.6"/>
			<rect id="Rectangle_378" x="1557.1" y="878.8" class="st2" width="69.7" height="6.6"/>
			<rect id="Rectangle_379" x="1557.1" y="891.3" class="st2" width="69.7" height="6.6"/>
			<rect id="Rectangle_380" x="1557.1" y="903.7" class="st2" width="69.7" height="6.6"/>
			<rect id="Rectangle_381" x="1557.1" y="916.1" class="st2" width="69.7" height="6.6"/>
			<rect id="Rectangle_382" x="1557.1" y="928.6" class="st2" width="69.7" height="6.6"/>
			<rect id="Rectangle_383" x="1557.1" y="941" class="st2" width="69.7" height="6.6"/>
			<rect id="Rectangle_384" x="1557.1" y="953.4" class="st2" width="69.7" height="6.6"/>
			<rect id="Rectangle_385" x="1557.1" y="965.8" class="st2" width="69.7" height="6.6"/>
			<rect id="Rectangle_386" x="1557.1" y="978.3" class="st2" width="69.7" height="6.6"/>
			<rect id="Rectangle_387" x="1557.1" y="990.6" class="st2" width="69.7" height="6.6"/>
			<rect id="Rectangle_388" x="1557.1" y="1003.1" class="st2" width="69.7" height="6.6"/>
			<rect id="Rectangle_389" x="1557.1" y="1014.6" class="st2" width="69.7" height="6.6"/>
			<rect id="Rectangle_390" x="1636.6" y="744.4" class="st2" width="39.8" height="334.9"/>
			<rect id="Rectangle_391" x="1690.1" y="1051.1" class="st2" width="50.8" height="15.7"/>
			<path id="Rectangle_392" class="st2" d="M1712.3,1031.3h15.6c2.6,0,4.5,2.6,4.5,5.8l0,0c0,3.3-2.1,5.8-4.5,5.8h-15.6
				c-2.6,0-4.5-2.6-4.5-5.8l0,0C1707.7,1033.8,1709.7,1031.3,1712.3,1031.3z"/>
			<path id="Rectangle_393" class="st2" d="M1705.1,1008.9h3.3c2.6,0,4.5,2.6,4.5,5.8l0,0c0,3.2-2.1,5.8-4.5,5.8h-3.3
				c-2.6,0-4.5-2.6-4.5-5.8l0,0C1700.5,1011.5,1702.6,1008.9,1705.1,1008.9z"/>
			<path id="Rectangle_394" class="st2" d="M1724.9,984.9L1724.9,984.9c2.7,0,4.8,2.8,4.8,6.2v3.3c0,3.4-2.2,6.2-4.8,6.2l0,0
				c-2.7,0-4.8-2.8-4.8-6.2v-3.3C1720.1,987.7,1722.3,984.9,1724.9,984.9z"/>
			<rect id="Rectangle_395" x="1756" y="1066.8" class="st2" width="47.6" height="12.4"/>
			<path id="Rectangle_396" class="st2" d="M1721.4,1084.2h11.1c2.2,0,3.9,2.2,3.9,4.9l0,0c0,2.8-1.8,4.9-3.9,4.9h-11.1
				c-2.2,0-4-2.2-4-4.9l0,0C1717.4,1086.4,1719.2,1084.2,1721.4,1084.2z"/>
			<rect id="Rectangle_397" x="1742.9" y="956.7" class="st2" width="13.1" height="24.8"/>
			<rect id="Rectangle_398" x="1783.3" y="741.5" class="st2" width="22.2" height="12.4"/>
			<rect id="Rectangle_399" x="1782" y="774.6" class="st2" width="24.8" height="14"/>
			<rect id="Rectangle_400" x="1782" y="761.3" class="st2" width="5.2" height="25.7"/>
			<rect id="Rectangle_401" x="1801.6" y="761.3" class="st2" width="5.2" height="25.7"/>
			<rect id="Rectangle_402" x="1787.3" y="793.6" class="st2" width="14.3" height="5.8"/>
			<rect id="Rectangle_403" x="1787.3" y="804.3" class="st2" width="14.3" height="5.8"/>
			<rect id="Rectangle_404" x="1810.1" y="793.6" class="st2" width="6.5" height="5.8"/>
			<rect id="Rectangle_405" x="1810.1" y="804.3" class="st2" width="6.5" height="5.8"/>
			<rect id="Rectangle_406" x="1772.2" y="793.6" class="st2" width="6.5" height="5.8"/>
			<rect id="Rectangle_407" x="1772.2" y="804.3" class="st2" width="6.5" height="5.8"/>
			<rect id="Rectangle_408" x="1787.3" y="815.1" class="st2" width="14.3" height="5.8"/>
			<rect id="Rectangle_409" x="1787.3" y="825.9" class="st2" width="14.3" height="5.8"/>
			<rect id="Rectangle_410" x="1810.1" y="815.1" class="st2" width="6.5" height="5.8"/>
			<rect id="Rectangle_411" x="1810.1" y="825.9" class="st2" width="6.5" height="5.8"/>
			<rect id="Rectangle_412" x="1772.2" y="815.1" class="st2" width="6.5" height="5.8"/>
			<rect id="Rectangle_413" x="1772.2" y="825.9" class="st2" width="6.5" height="5.8"/>
			<rect id="Rectangle_414" x="1787.3" y="836.6" class="st2" width="14.3" height="5.8"/>
			<rect id="Rectangle_415" x="1787.3" y="847.4" class="st2" width="14.3" height="5.8"/>
			<rect id="Rectangle_416" x="1810.1" y="836.6" class="st2" width="6.5" height="5.8"/>
			<rect id="Rectangle_417" x="1810.1" y="847.4" class="st2" width="6.5" height="5.8"/>
			<rect id="Rectangle_418" x="1772.2" y="836.6" class="st2" width="6.5" height="5.8"/>
			<rect id="Rectangle_419" x="1772.2" y="847.4" class="st2" width="6.5" height="5.8"/>
			<rect id="Rectangle_420" x="1787.3" y="858.2" class="st2" width="14.3" height="5.8"/>
			<rect id="Rectangle_421" x="1787.3" y="869" class="st2" width="14.3" height="5.8"/>
			<rect id="Rectangle_422" x="1810.1" y="858.2" class="st2" width="6.5" height="5.8"/>
			<rect id="Rectangle_423" x="1810.1" y="869" class="st2" width="6.5" height="5.8"/>
			<rect id="Rectangle_424" x="1772.2" y="858.2" class="st2" width="6.5" height="5.8"/>
			<rect id="Rectangle_425" x="1772.2" y="869" class="st2" width="6.5" height="5.8"/>
			<rect id="Rectangle_426" x="1810.1" y="782.9" class="st2" width="6.5" height="5.8"/>
			<rect id="Rectangle_427" x="1772.2" y="782.9" class="st2" width="6.5" height="5.8"/>
			<rect id="Rectangle_428" x="1787.3" y="879.7" class="st2" width="14.3" height="5.8"/>
			<rect id="Rectangle_429" x="1810.1" y="879.7" class="st2" width="6.5" height="5.8"/>
			<rect id="Rectangle_430" x="1772.2" y="879.7" class="st2" width="6.5" height="5.8"/>
			<rect id="Rectangle_431" x="1787.3" y="890.5" class="st2" width="14.3" height="5.8"/>
			<rect id="Rectangle_432" x="1787.3" y="901.2" class="st2" width="14.3" height="5.8"/>
			<rect id="Rectangle_433" x="1810.1" y="890.5" class="st2" width="6.5" height="5.8"/>
			<rect id="Rectangle_434" x="1810.1" y="901.2" class="st2" width="6.5" height="5.8"/>
			<rect id="Rectangle_435" x="1772.2" y="890.5" class="st2" width="6.5" height="5.8"/>
			<rect id="Rectangle_436" x="1772.2" y="901.2" class="st2" width="6.5" height="5.8"/>
			<rect id="Rectangle_437" x="1787.3" y="912" class="st2" width="14.3" height="5.8"/>
			<rect id="Rectangle_438" x="1810.1" y="912" class="st2" width="6.5" height="5.8"/>
			<rect id="Rectangle_439" x="1772.2" y="912" class="st2" width="6.5" height="5.8"/>
			<rect id="Rectangle_440" x="1787.3" y="922.7" class="st2" width="14.3" height="5.8"/>
			<rect id="Rectangle_441" x="1787.3" y="933.5" class="st2" width="14.3" height="5.8"/>
			<rect id="Rectangle_442" x="1810.1" y="922.7" class="st2" width="6.5" height="5.8"/>
			<rect id="Rectangle_443" x="1810.1" y="933.5" class="st2" width="6.5" height="5.8"/>
			<rect id="Rectangle_444" x="1772.2" y="922.7" class="st2" width="6.5" height="5.8"/>
			<rect id="Rectangle_445" x="1772.2" y="933.5" class="st2" width="6.5" height="5.8"/>
			<rect id="Rectangle_446" x="1787.3" y="944.3" class="st2" width="14.3" height="5.8"/>
			<rect id="Rectangle_447" x="1810.1" y="944.3" class="st2" width="6.5" height="5.8"/>
			<rect id="Rectangle_448" x="1772.2" y="944.3" class="st2" width="6.5" height="5.8"/>
			<rect id="Rectangle_449" x="1787.3" y="955" class="st2" width="14.3" height="5.8"/>
			<rect id="Rectangle_450" x="1787.3" y="965.8" class="st2" width="14.3" height="5.8"/>
			<rect id="Rectangle_451" x="1810.1" y="955" class="st2" width="6.5" height="5.8"/>
			<rect id="Rectangle_452" x="1810.1" y="965.8" class="st2" width="6.5" height="5.8"/>
			<rect id="Rectangle_453" x="1772.2" y="955" class="st2" width="6.5" height="5.8"/>
			<rect id="Rectangle_454" x="1772.2" y="965.8" class="st2" width="6.5" height="5.8"/>
			<rect id="Rectangle_455" x="1787.3" y="976.6" class="st2" width="14.3" height="5.8"/>
			<rect id="Rectangle_456" x="1810.1" y="976.6" class="st2" width="6.5" height="5.8"/>
			<rect id="Rectangle_457" x="1772.2" y="976.6" class="st2" width="6.5" height="5.8"/>
			<rect id="Rectangle_458" x="1787.3" y="987.4" class="st2" width="14.3" height="5.8"/>
			<rect id="Rectangle_459" x="1787.3" y="998.1" class="st2" width="14.3" height="5.8"/>
			<rect id="Rectangle_460" x="1810.1" y="987.4" class="st2" width="6.5" height="5.8"/>
			<rect id="Rectangle_461" x="1810.1" y="998.1" class="st2" width="6.5" height="5.8"/>
			<rect id="Rectangle_462" x="1772.2" y="987.4" class="st2" width="6.5" height="5.8"/>
			<rect id="Rectangle_463" x="1772.2" y="998.1" class="st2" width="6.5" height="5.8"/>
			<rect id="Rectangle_464" x="1787.3" y="1008.9" class="st2" width="14.3" height="5.8"/>
			<rect id="Rectangle_465" x="1810.1" y="1008.9" class="st2" width="6.5" height="5.8"/>
			<rect id="Rectangle_466" x="1772.2" y="1008.9" class="st2" width="6.5" height="5.8"/>
			<rect id="Rectangle_467" x="1787.3" y="1019.6" class="st2" width="14.3" height="5.8"/>
			<rect id="Rectangle_468" x="1787.3" y="1030.4" class="st2" width="14.3" height="5.8"/>
			<rect id="Rectangle_469" x="1810.1" y="1019.6" class="st2" width="6.5" height="5.8"/>
			<rect id="Rectangle_470" x="1810.1" y="1030.4" class="st2" width="6.5" height="5.8"/>
			<rect id="Rectangle_471" x="1772.2" y="1019.6" class="st2" width="6.5" height="5.8"/>
			<rect id="Rectangle_472" x="1772.2" y="1030.4" class="st2" width="6.5" height="5.8"/>
			<path id="Rectangle_473" class="st2" d="M1792.8,1045.3h20.2c3.1,0,5.5,3.2,5.5,7.1l0,0c0,3.9-2.5,7.1-5.5,7.1h-20.2
				c-3.1,0-5.5-3.2-5.5-7.1l0,0C1787.3,1048.5,1789.7,1045.3,1792.8,1045.3z"/>
			<path id="Rectangle_474" class="st2" d="M1831.3,989.8h12.4c2.4,0,4.3,2.4,4.3,5.4l0,0c0,3-1.9,5.4-4.3,5.4h-12.4
				c-2.4,0-4.3-2.4-4.3-5.4l0,0C1827,992.2,1828.9,989.8,1831.3,989.8z"/>
			<path id="Rectangle_475" class="st2" d="M1842.6,1012.2L1842.6,1012.2c2.9,0,5.2,3,5.2,6.6v4.9c0,3.6-2.4,6.6-5.2,6.6l0,0
				c-2.9,0-5.2-3-5.2-6.6v-4.9C1837.5,1015.2,1839.8,1012.2,1842.6,1012.2z"/>
			<rect id="Rectangle_476" x="1824.4" y="1054.4" class="st2" width="120" height="19.1"/>
			<rect id="Rectangle_477" x="1827" y="1059.4" class="st2" width="10.5" height="29.9"/>
			<rect id="Rectangle_478" x="1857" y="1059.4" class="st2" width="43.7" height="29.9"/>
			<rect id="Rectangle_479" x="1912.5" y="1059.4" class="st2" width="13.1" height="23.2"/>
			<rect id="Rectangle_483" x="1860.2" y="758.9" class="st2" width="35.1" height="5.8"/>
			<rect id="Rectangle_484" x="1860.2" y="769.6" class="st2" width="35.1" height="5.8"/>
			<rect id="Rectangle_485" x="1860.2" y="780.3" class="st2" width="35.1" height="5.8"/>
			<rect id="Rectangle_486" x="1860.2" y="791.1" class="st2" width="35.1" height="5.8"/>
			<rect id="Rectangle_487" x="1860.2" y="801.8" class="st2" width="35.1" height="5.8"/>
			<rect id="Rectangle_488" x="1860.2" y="812" class="st2" width="35.1" height="5.8"/>
			<rect id="Rectangle_489" x="1860.2" y="822.6" class="st2" width="35.1" height="5.8"/>
			<rect id="Rectangle_490" x="1860.2" y="833.2" class="st2" width="35.1" height="5.8"/>
			<rect id="Rectangle_491" x="1860.2" y="843.9" class="st2" width="35.1" height="5.8"/>
			<rect id="Rectangle_492" x="1860.2" y="854.5" class="st2" width="35.1" height="5.8"/>
			<rect id="Rectangle_493" x="1860.2" y="865.1" class="st2" width="35.1" height="5.8"/>
			<rect id="Rectangle_494" x="1860.2" y="875.7" class="st2" width="35.1" height="5.8"/>
			<rect id="Rectangle_495" x="1860.2" y="886.4" class="st2" width="35.1" height="5.8"/>
			<rect id="Rectangle_496" x="1860.2" y="897" class="st2" width="35.1" height="5.8"/>
			<rect id="Rectangle_497" x="1860.2" y="907.6" class="st2" width="35.1" height="5.8"/>
			<rect id="Rectangle_498" x="1860.2" y="918.2" class="st2" width="35.1" height="5.8"/>
			<rect id="Rectangle_499" x="1860.2" y="928.9" class="st2" width="35.1" height="5.8"/>
			<rect id="Rectangle_500" x="1860.2" y="939.5" class="st2" width="35.1" height="5.8"/>
			<rect id="Rectangle_501" x="1860.2" y="950.1" class="st2" width="35.1" height="5.8"/>
			<rect id="Rectangle_502" x="1860.2" y="960.7" class="st2" width="35.1" height="5.8"/>
			<rect id="Rectangle_503" x="1860.2" y="970.8" class="st2" width="35.1" height="5.8"/>
			<rect id="Rectangle_504" x="1860.2" y="981.5" class="st2" width="35.1" height="5.8"/>
			<rect id="Rectangle_505" x="1860.2" y="992.3" class="st2" width="35.1" height="5.8"/>
			<rect id="Rectangle_506" x="1860.2" y="1003.1" class="st2" width="35.1" height="5.8"/>
			<path id="Path_96" class="st2" d="M1904,761.3l-28.8-35.7l38.6,35.7v259.2h-9.8V761.3z"/>
			<rect id="Rectangle_508" x="1860.2" y="1013.9" class="st2" width="35.1" height="5.8"/>
			<path id="Rectangle_509" class="st2" d="M1934.9,998.1L1934.9,998.1c1.3,0,2.3,1.3,2.3,2.9v7.4c0,1.6-1,2.9-2.3,2.9l0,0
				c-1.3,0-2.3-1.3-2.3-2.9v-7.4C1932.6,999.4,1933.6,998.1,1934.9,998.1z"/>
		</g>
	</g>
	<rect x="-34.4" y="1029.2" class="st4" width="2662.6" height="261.3"/>
	<rect x="323.9" y="1026.1" class="st3" width="98.5" height="15.6"/>
	<rect x="335" y="1036.7" class="st3" width="76.6" height="15.6"/>
	<polygon class="st3" points="382.6,1235 396.3,1044.5 406.4,1045.2 392.6,1235.7 	"/>
	<polygon class="st3" points="341,1045.2 351.1,1044.6 364.8,1235.1 354.8,1235.7 	"/>
	<rect x="783.6" y="1026.1" class="st3" width="98.4" height="15.6"/>
	<rect x="794.5" y="1036.7" class="st3" width="76.6" height="15.6"/>
	<polygon class="st3" points="797.7,1046.5 807.6,1045.1 823.1,1142.1 813.1,1143.5 	"/>
	<polygon class="st3" points="842.1,1142.2 857.5,1045.1 867.5,1046.5 852,1143.6 	"/>
	<rect x="641.4" y="1026.1" class="st3" width="98.4" height="15.6"/>
	<rect x="652.4" y="1036.7" class="st3" width="76.6" height="15.6"/>
	<polygon class="st3" points="658.2,1046.2 668.1,1044.8 683.8,1142 673.8,1143.4 	"/>
	<polygon class="st3" points="700,1142.2 715.5,1045.2 725.5,1046.6 710,1143.6 	"/>
	<rect x="486.3" y="1026.1" class="st3" width="98.4" height="15.6"/>
	<rect x="497.4" y="1036.7" class="st3" width="76.6" height="15.6"/>
	<polygon class="st3" points="500.5,1046.5 510.5,1045.1 530,1167.7 520,1169.1 	"/>
	<polygon class="st3" points="541.2,1165.7 560.4,1045.1 570.4,1046.5 551.2,1167.1 	"/>
	<rect x="153.2" y="1026.1" class="st3" width="98.5" height="15.6"/>
	<rect x="164.2" y="1036.7" class="st3" width="76.6" height="15.6"/>
	<polygon class="st3" points="209.2,1272 225.6,1044.5 235.7,1045.2 219.3,1272.6 	"/>
	<polygon class="st3" points="170.3,1045.2 180.4,1044.5 198.2,1291.7 188.2,1292.4 	"/>
	<path class="st3" d="M66.3,1382.8c0,0,336.8-242.8,1036.8-210.3l-15.7-81.7C1087.3,1090.9,231.6,1136,66.3,1382.8z"/>
	<polygon class="st1" points="1320.9,1010 1320.9,1013.7 1380.9,1013.7 1407.7,1013.7 1407.7,1013.7 1407.7,1013.7 1433.4,1013.7 
		1433.4,1010 	"/>
	<rect x="947.9" y="1068.2" class="st3" width="9.8" height="38.9"/>
	<rect x="970.1" y="1068.2" class="st1" width="13.1" height="38.9"/>
	<rect x="990.4" y="1068.2" class="st1" width="15.6" height="61.4"/>
	<path class="st1" d="M1164.2,1068.3h-37.7v144.8h-84.9v10.4h84.9v4.7h44.9v-152.9c-0.4,0.1-0.7,0.1-1.1,0.2
		C1167.3,1075.5,1164.6,1072.4,1164.2,1068.3z"/>
	<polygon class="st1" points="1194.4,1273.3 1194.4,1068.2 1185.8,1068.2 1185.8,1276.2 1194.9,1276.2 1194.9,1273.3 	"/>
	<polygon class="st1" points="1257.6,1010 1256.1,1010 1256.1,1273.3 1257.6,1273.3 1257.6,1110.6 1257.6,1110.6 	"/>
	<polygon class="st1" points="1243.8,1010 1243.8,1273.3 1245.9,1273.3 1248.3,1273.3 1248.3,1010 	"/>
	<polygon class="st1" points="1202.7,1257 1222.9,1273.3 1231,1273.3 1230.8,1010 1202.7,1010 	"/>
	<rect x="1194.4" y="1068.2" class="st1" width="0.5" height="205"/>
	<path class="st1" d="M1279.7,1106.7v-6h2.2v-7.8h-2.2v-6h2.2v-7.8h-2.2v-6h2.2v-7.8h-2.2v-6h2.2v-7.8h-2.2v-6h2.2v-7.8h-2.2v-6h2.2
		v-17.7h39.2v-3.7h-48.6c0.1,0.5,0.1,1,0.1,1.5v13.9c0,4.3-2.7,7.8-5.8,7.8c-3.2,0-5.8-3.4-5.8-7.8v-13.8c0-0.5,0-1,0.1-1.5h-3.2
		v100.5h11.1v-64.9h7.8v64.9h5.2v-3.9H1279.7z"/>
	<polygon class="st1" points="1268.8,1045.7 1268.8,1110.6 1268.8,1127.1 1276.6,1127.1 1276.6,1110.6 1276.6,1045.7 	"/>
	<rect x="1371" y="1065.1" class="st1" width="10" height="7.8"/>
	<rect x="1371" y="1051.3" class="st1" width="10" height="7.8"/>
	<polygon class="st1" points="1369,1072.9 1319.4,1072.9 1319.4,1079 1281.7,1079 1281.7,1086.8 1319.4,1086.8 1319.4,1079.8 
		1339.6,1079.8 1339.6,1086.4 1363.1,1086.4 1363.1,1079.8 1369,1079.8 1369,1086.8 1380.9,1086.8 1380.9,1079 1369,1079 	"/>
	<polygon class="st1" points="1320.9,1013.7 1281.7,1013.7 1281.7,1031.4 1319.4,1031.4 1319.4,1023.6 1371,1023.6 1371,1031.4 
		1319.4,1031.4 1319.4,1037.4 1371,1037.4 1371,1045.2 1380.9,1045.2 1380.9,1013.7 1380.9,1013.7 	"/>
	<rect x="1369" y="1092.8" class="st1" width="12" height="7.8"/>
	<rect x="1281.7" y="1037.4" class="st1" width="37.7" height="7.8"/>
	<rect x="1281.7" y="1051.3" class="st1" width="37.7" height="7.8"/>
	<rect x="1281.7" y="1065.1" class="st1" width="37.7" height="7.8"/>
	<rect x="1319.4" y="1045.2" class="st1" width="49.6" height="6"/>
	<rect x="1281.7" y="1092.8" class="st1" width="37.7" height="7.8"/>
	<rect x="1319.4" y="1059.1" class="st1" width="49.6" height="6"/>
	<path class="st1" d="M1339.6,1086.4v48.3l0.8,0.3v-16.6h22.6v-32H1339.6z"/>
	<polygon class="st1" points="1420,1040.9 1420,1021.5 1433.4,1021.5 1433.4,1013.7 1407.7,1013.7 1380.9,1013.7 1380.9,1045.2 
		1404.2,1045.2 1404.2,1051.3 1380.9,1051.3 1380.9,1059.1 1404.2,1059.1 1404.2,1065.1 1380.9,1065.1 1380.9,1072.9 1404.2,1072.9 
		1404.2,1079 1380.9,1079 1380.9,1086.8 1404.2,1086.8 1404.2,1092.8 1380.9,1092.8 1380.9,1100.7 1404.2,1100.7 1404.2,1106.7 
		1380.9,1106.7 1380.9,1110.6 1407.7,1110.6 1419.8,1110.6 1419.8,1040.9 	"/>
	<polygon class="st1" points="1508,1039.3 1433.4,1039.3 1433.4,1021.5 1420,1021.5 1420,1040.9 1423.8,1040.9 1423.8,1364.9 
		1431,1374.5 1476.7,1374.5 1477.2,1374 1477.1,1374 1477.2,1374 1477.2,1040.9 1493.5,1040.9 1493.5,1374 1493.4,1374 
		1493.5,1374.5 1515.9,1374.5 1515.9,1049.2 1508,1049.2 	"/>
	<polygon class="st1" points="1593.4,1051.3 1597.2,1051.3 1597.2,1058.2 1593.4,1058.2 1593.4,1063.4 1597.2,1063.4 1597.2,1070.3 
		1593.4,1070.3 1593.4,1076.4 1597.2,1076.4 1597.2,1083.4 1593.4,1083.4 1593.4,1089.4 1597.2,1089.4 1597.2,1096.3 1593.4,1096.3 
		1593.4,1102.3 1597.2,1102.3 1597.2,1109.3 1593.4,1109.3 1593.4,1115.3 1597.2,1115.3 1597.2,1122.2 1593.4,1122.2 1593.4,1128.3 
		1597.2,1128.3 1597.2,1135.2 1593.4,1135.2 1593.4,1141.3 1597.2,1141.3 1597.2,1148.2 1593.4,1148.2 1593.4,1154.2 1597.2,1154.2 
		1597.2,1161.2 1593.4,1161.2 1593.4,1167.2 1597.2,1167.2 1597.2,1174.1 1593.4,1174.1 1593.4,1180.2 1597.2,1180.2 1597.2,1187.1 
		1593.4,1187.1 1593.4,1193.2 1597.2,1193.2 1597.2,1200.1 1593.4,1200.1 1593.4,1206.1 1597.2,1206.1 1597.2,1213.1 1593.4,1213.1 
		1593.4,1219.1 1597.2,1219.1 1597.2,1226 1593.4,1226 1593.4,1232.1 1597.2,1232.1 1597.2,1239 1593.4,1239 1593.4,1245.1 
		1597.2,1245.1 1597.2,1252 1593.4,1252 1593.4,1257.2 1599.8,1257.2 1599.8,1268.9 1601.9,1268.9 1601.9,1040.6 1593.4,1040.6 	"/>
	<polygon class="st1" points="1530.2,1257.2 1530.2,1252 1527.4,1252 1527.4,1245.1 1530.2,1245.1 1530.2,1239 1527.4,1239 
		1527.4,1232.1 1530.2,1232.1 1530.2,1226 1527.4,1226 1527.4,1219.1 1530.2,1219.1 1530.2,1213.1 1527.4,1213.1 1527.4,1206.1 
		1530.2,1206.1 1530.2,1200.1 1527.4,1200.1 1527.4,1193.2 1530.2,1193.2 1530.2,1187.1 1527.4,1187.1 1527.4,1180.2 1530.2,1180.2 
		1530.2,1174.1 1527.4,1174.1 1527.4,1167.2 1530.2,1167.2 1530.2,1161.2 1527.4,1161.2 1527.4,1154.2 1530.2,1154.2 1530.2,1148.2 
		1527.4,1148.2 1527.4,1141.3 1530.2,1141.3 1530.2,1135.2 1527.4,1135.2 1527.4,1128.3 1530.2,1128.3 1530.2,1122.2 1527.4,1122.2 
		1527.4,1115.3 1530.2,1115.3 1530.2,1109.3 1527.4,1109.3 1527.4,1102.3 1530.2,1102.3 1530.2,1096.3 1527.4,1096.3 1527.4,1089.4 
		1530.2,1089.4 1530.2,1083.4 1527.4,1083.4 1527.4,1076.4 1530.2,1076.4 1530.2,1070.3 1527.4,1070.3 1527.4,1063.4 1530.2,1063.4 
		1530.2,1058.2 1527.4,1058.2 1527.4,1051.3 1530.2,1051.3 1530.2,1049.2 1523.1,1049.2 1523.1,1268.9 1524.8,1268.9 1524.8,1257.2 
			"/>
	<polygon class="st1" points="1530.2,1039.3 1508,1039.3 1508,1049.2 1515.9,1049.2 1523.1,1049.2 1530.2,1049.2 	"/>
	<rect x="1834" y="1070.3" class="st1" width="3.3" height="0.5"/>
	<rect x="1601.9" y="1040.6" class="st1" width="5" height="39.7"/>
	<path class="st1" d="M1927.7,1040.9v-0.3h-140.8v1.2h-6.5v-1.2h-8.5v1.2h-14.3v-1.2h-8.4v1.2h-6.5v-1.2h-42.9
		c-0.5,0.2-1,0.3-1.5,0.3h-15.5c-0.5,0-1-0.1-1.5-0.3h-6.8v11.7c0.4-0.1,0.8-0.2,1.1-0.2h3.2c2.6,0,4.5,2.7,4.5,6s-2.1,6-4.5,6h-3.3
		c-0.4,0-0.8-0.1-1.1-0.2v11.1h17.3c0.7-1.3,2.1-2.1,3.7-2.2l0,0c1.6,0.1,3,0.9,3.7,2.2h43.6v-5.7h6.5v5.7h8.4v-5.7h14.3v5.7h8.5
		v-5.7h6.5v5.7h1.6v5.2h9.2c-0.2-0.6-0.2-1.2-0.2-1.8c0-3.1,1.9-5.6,4.3-5.6h3.8v-8.2h25.1v-0.5h6.8v-3.8h37v-8.3h9.8v8.3h13.3v19.9
		h44.3V1041L1927.7,1040.9z M1749.1,1064.3h-6.5v-6h6.5V1064.3z M1749.1,1053h-6.5v-6h6.5V1053z M1771.8,1064.3h-14.3v-6h14.3
		V1064.3z M1771.8,1053h-14.3v-6h14.3V1053z M1786.9,1064.3h-6.5v-6h6.5V1064.3z M1786.9,1053h-6.5v-6h6.5V1053z M1818.2,1053.9
		c0,3.8-2.4,6.9-5.2,6.9l0,0c-2.9,0-5.2-3.1-5.2-6.9v-5.2c0-3.8,2.4-6.9,5.2-6.9l0,0c2.9,0,5.2,3.1,5.2,6.9V1053.9z M1865.6,1059.1
		h-35.1v-6h35.1V1059.1z M1907.5,1072.5c0,1.7-1,3.1-2.3,3.1c-1.3,0-2.3-1.4-2.3-3.1v-7.8c0-1.7,1-3,2.3-3c1.3,0,2.3,1.4,2.3,3
		V1072.5z M1921.9,1073.8c0,3.3-2.1,6-4.5,6s-4.5-2.7-4.5-6v-1.8c0-3.3,2.1-6,4.5-6s4.5,2.7,4.5,6V1073.8z"/>
	<path class="st1" d="M1671.7,1075.2h2.6v-11.1c-2-0.7-3.5-3.1-3.5-5.9s1.5-5.2,3.5-5.9v-11.7h-27.6v300h-38.3v3.4h65.9v-237.8h-2.6
		V1075.2z"/>
	<path class="st1" d="M1787,1075.2v0.4h-6.5v-0.4h-8.5v0.4h-14.3v-0.4h-8.4v0.4h-1.8v5.2h1.8v6h-1.8v5.2h1.8v6.1h-1.8v5.2h1.8v6h-5
		v5.2h5v6h-5v5.2h5v6h-5v5.2h5v6h-5v5.2h5v6h-5v5.1h5v6h-5v5.2h5v6h-5v5.2h5v6h-5v5.2h5v6h-5v5.2h5v6h-5v5.2h5v6h-5v5.2h5v6h-5v5.2
		h5v6h-5v5.2h5v6h-5v5.2h5v6h-5v5.2h5v6h-5v5.1h5v6h-5v5.2h5v0.5h3.3v-0.5h0.8v-194.2h27.3v3h6.3v6h-6.3v5.2h6.3v6h-6.3v5.2h6.3v6
		h-6.3v5.2h6.3v6h-6.3v5.2h6.3v6h-6.3v5.2h6.3v6h-6.3v5.2h6.3v6h-6.3v5.2h6.3v6h-6.3v5.2h6.3v6h-6.3v5.2h6.3v6h-6.3v5.2h6.3v6h-6.3
		v5.2h6.3v6h-6.3v5.2h6.3v6h-6.3v5.2h6.3v6h-6.3v5.2h6.3v6h-6.3v5.2h6.3v6h-6.3v5.1h6.3v6h-6.3v5.2h6.3v0.5h1.6v-219.7L1787,1075.2
		L1787,1075.2z M1771.9,1098h-14.3v-6h14.3V1098z M1771.9,1086.8h-14.3v-6h14.3V1086.8z M1787,1098h-6.5v-6h6.5V1098z M1787,1086.8
		h-6.5v-6h6.5V1086.8z"/>
	<path class="st1" d="M1777.2,1294.8h3.3v-0.5h0.2v-5.2h-0.2v-6h0.2v-5.2h-0.2v-6h0.2v-5.2h-0.2v-6h0.2v-5.2h-0.2v-6h0.2v-5.2h-0.2
		v-6h0.2v-5.2h-0.2v-6h0.2v-5.1h-0.2v-6h0.2v-5.2h-0.2v-6h0.2v-5.2h-0.2v-6h0.2v-5.2h-0.2v-6h0.2v-5.2h-0.2v-6h0.2v-5.2h-0.2v-6h0.2
		v-5.2h-0.2v-6h0.2v-5.2h-0.2v-6h0.2v-5.2h-0.2v-6h0.2v-5.2h-0.2v-6h0.2v-5.2h-0.2v-6h0.2v-3h-27.4v194.2h23.9V1294.8z
		 M1771.9,1289.2h-14.3v-6h14.3V1289.2z M1771.9,1277.9h-14.3v-6h14.3V1277.9z M1771.9,1266.7h-14.3v-6h14.3V1266.7z M1771.9,1255.5
		h-14.3v-6h14.3V1255.5z M1771.9,1244.2h-14.3v-6h14.3V1244.2z M1771.9,1233h-14.3v-6h14.3V1233z M1771.9,1221.7h-14.3v-6h14.3
		V1221.7z M1771.9,1210.5h-14.3v-6h14.3V1210.5z M1771.9,1199.2h-14.3v-6h14.3V1199.2z M1771.9,1188h-14.3v-6h14.3V1188z
		 M1771.9,1176.7h-14.3v-6h14.3V1176.7z M1771.9,1165.5h-14.3v-6h14.3V1165.5z M1771.9,1154.2h-14.3v-6h14.3V1154.2z M1771.9,1143
		h-14.3v-6h14.3V1143z M1771.9,1131.7h-14.3v-6h14.3V1131.7z M1771.9,1120.6h-14.3v-6h14.3V1120.6z M1771.9,1109.3h-14.3v-6h14.3
		V1109.3z"/>
	<path class="st1" d="M1747.3,1103.2v-5.1h-4.7v-6h4.7v-5.2h-4.7v-6h4.7v-5.2h-4.7v-0.4h-43.6c0.8,1.3,1.3,2.8,1.2,4.3v3.4
		c0,3.5-2.2,6.5-4.8,6.5l0,0c-2.7,0-4.8-2.9-4.8-6.5v-3.4c0-1.5,0.4-3,1.2-4.3h-19.9v31.2h32.6v-15.5h28.7v15.5h9.6v-3.1
		L1747.3,1103.2z"/>
	<path class="st1" d="M1704.3,1090.7v31.2h28.7v-31.2H1704.3z M1713.2,1118.8v-25.9h13.1v25.9H1713.2z"/>
	<polygon class="st1" points="1830.5,1092.8 1830.5,1086.8 1830.8,1086.8 1830.8,1081.6 1830.5,1081.6 1830.5,1075.5 1830.8,1075.5 
		1830.8,1070.8 1834,1070.8 1834,1070.3 1830.5,1070.3 1830.5,1064.8 1805.4,1064.8 1805.4,1072.9 1813.9,1072.9 1813.9,1070.8 
		1825.5,1070.8 1825.5,1095.9 1830.8,1095.9 1830.8,1092.8 	"/>
	<rect x="1805.4" y="1084.2" class="st1" width="8.5" height="11.7"/>
	<path class="st1" d="M1825.5,1070.8h-11.8v2.1h0.1c2.4,0,4.3,2.5,4.3,5.6c0,3.1-1.9,5.6-4.3,5.6h-0.1v26.4h11.8V1070.8
		L1825.5,1070.8z"/>
	<polygon class="st1" points="1834,1095.9 1834,1092.8 1830.8,1092.8 1830.8,1095.9 1830.8,1098 1834,1098 	"/>
	<polygon class="st1" points="1837.3,1075.5 1837.3,1070.8 1834,1070.8 1830.8,1070.8 1830.8,1075.5 	"/>
	<polygon class="st1" points="1834,1085.5 1837.3,1085.5 1837.3,1081.6 1830.8,1081.6 1830.8,1086.8 1834,1086.8 	"/>
	<rect x="1834" y="1085.5" class="st1" width="3.3" height="1.2"/>
	<polygon class="st1" points="1837.3,1092.8 1834,1092.8 1834,1095.9 1834,1098 1837.3,1098 1837.3,1095.9 	"/>
	<polygon class="st1" points="1865.6,1070.3 1837.3,1070.3 1837.3,1070.8 1837.3,1075.5 1865.6,1075.5 1865.6,1081.6 1837.3,1081.6 
		1837.3,1085.5 1837.3,1086.8 1865.6,1086.8 1865.6,1092.8 1837.3,1092.8 1837.3,1095.9 1837.3,1098 1865.6,1098 1865.6,1104.1 
		1837.3,1104.1 1837.3,1108.6 1865.6,1108.6 1865.6,1114.6 1837.3,1114.6 1837.3,1119.6 1865.6,1119.6 1865.6,1125.7 1837.3,1125.7 
		1837.3,1130.8 1865.6,1130.8 1865.6,1136.8 1837.3,1136.8 1837.3,1141.9 1865.6,1141.9 1865.6,1147.9 1837.3,1147.9 1837.3,1152.9 
		1865.6,1152.9 1865.6,1159 1837.3,1159 1837.3,1164.1 1865.6,1164.1 1865.6,1170.1 1837.3,1170.1 1837.3,1175.1 1865.6,1175.1 
		1865.6,1181.2 1837.3,1181.2 1837.3,1186.2 1865.6,1186.2 1865.6,1192.3 1837.3,1192.3 1837.3,1197.4 1865.6,1197.4 1865.6,1203.4 
		1837.3,1203.4 1837.3,1208.4 1865.6,1208.4 1865.6,1214.5 1837.3,1214.5 1837.3,1219.6 1865.6,1219.6 1865.6,1225.6 1837.3,1225.6 
		1837.3,1230.7 1865.6,1230.7 1865.6,1236.7 1837.3,1236.7 1837.3,1241.7 1865.6,1241.7 1865.6,1247.8 1837.3,1247.8 1837.3,1252.9 
		1865.6,1252.9 1865.6,1258.9 1837.3,1258.9 1837.3,1264 1865.6,1264 1865.6,1270 1837.3,1270 1837.3,1274.5 1865.6,1274.5 
		1865.6,1280.5 1837.3,1280.5 1837.3,1285.7 1865.6,1285.7 1865.6,1291.8 1837.3,1291.8 1837.3,1297 1865.6,1297 1865.6,1303 
		1837.3,1303 1837.3,1308.2 1865.6,1308.2 1865.6,1314.3 1837.3,1314.3 1837.3,1319.5 1865.6,1319.5 1865.6,1321.6 1874.3,1321.6 
		1874.3,1060.5 1837.3,1060.5 1837.3,1064.3 1865.6,1064.3 	"/>
	<polygon class="st1" points="1884.1,1060.5 1884.1,1322.9 1881.9,1325 1897.3,1325 1897.3,1080.3 1897.3,1060.5 	"/>
	<rect x="1530.2" y="1083.4" class="st1" width="63.2" height="6"/>
	<rect x="1530.2" y="1058.2" class="st1" width="63.2" height="5.2"/>
	<rect x="1530.2" y="1096.3" class="st1" width="63.2" height="6"/>
	<rect x="1530.2" y="1070.3" class="st1" width="63.2" height="6"/>
	<polygon class="st1" points="1530.2,1049.2 1530.2,1051.3 1593.4,1051.3 1593.4,1040.6 1533.4,1040.6 1533.4,1039.3 1530.2,1039.3 
			"/>
	<path class="st1" d="M1927.7,1010h-13.1v6.7h-7.2v16.4h-49.8v-16.4h-62.9v-6.7h-83.5v10.1h-50.8V1010h-13.6v30.6h34.4
		c-1.8-0.8-3.2-3.1-3.2-5.8c0-3.3,2.1-6,4.5-6h15.6c2.6,0,4.5,2.7,4.5,6c0,2.7-1.3,4.9-3.2,5.8h42.9v-4.8h6.5v4.8h8.4v-4.8h14.3v4.8
		h8.5v-4.8h6.5v4.8h140.8V1010z M1783.3,1026.2h-20.2c-3.1,0-5.5-3.3-5.5-7.3s2.5-7.3,5.5-7.3h20.2c3.1,0,5.5,3.3,5.5,7.3
		S1786.4,1026.2,1783.3,1026.2L1783.3,1026.2z"/>
	<polygon class="st1" points="1607,1010 1570.5,1010 1570.5,1021.9 1555.2,1021.9 1555.2,1039.3 1533.4,1039.3 1533.4,1040.6 
		1593.4,1040.6 1601.9,1040.6 1601.9,1040.6 1607,1040.6 	"/>
	<rect x="1857.6" y="1016.7" class="st1" width="49.8" height="16.4"/>
	<path class="st1" d="M1543.7,1010h-45v5.4c0,4.1-2.5,7.3-5.5,7.3c-3.1,0-5.5-3.3-5.5-7.3v-5.4h-54.3v29.3h121.9v-17.4h-11.6
		L1543.7,1010L1543.7,1010z"/>
	<polygon class="st3" points="947.5,1010 947.5,1068.2 947.9,1068.2 957.7,1068.2 970.1,1068.2 983.1,1068.2 990.4,1068.2 
		1006,1068.2 1040.5,1068.2 1040.5,1010 	"/>
	<path class="st1" d="M1146.6,1014.1v-4.1h-20v58.3h37.7c0-0.3,0-0.7,0-0.9v-26c0-4.6,2.8-8.2,6.2-8.2c3.5,0,6.2,3.7,6.2,8.2v25.9
		c0,0.3,0,0.7,0,0.9h4.5v-54.1H1146.6z"/>
	<polygon class="st1" points="1194.9,1068.2 1194.9,1010 1185.8,1010 1185.8,1068.2 1194.4,1068.2 	"/>
	<polygon class="st2" points="1126.7,1068.2 1126.7,1010 1040.5,1010 1040.5,1068.2 1040.5,1213.1 1041.8,1213.1 1126.7,1213.1 	"/>
	<rect x="1146.6" y="1010" class="st2" width="34.5" height="4.1"/>
	<path class="st2" d="M1176.6,1041.3c0-4.6-2.8-8.2-6.2-8.2c-3.5,0-6.2,3.7-6.2,8.2v25.9c0,0.3,0,0.7,0,0.9c0.4,4.1,3,7.3,6.1,7.3
		c0.4,0,0.7-0.1,1.1-0.2c2.7-0.7,4.7-3.5,5-7.2c0-0.3,0-0.7,0-0.9L1176.6,1041.3z"/>
	<polygon class="st2" points="1194.9,1010 1194.9,1068.2 1194.9,1273.3 1194.9,1276.2 1202.7,1276.2 1202.7,1257 1202.7,1010 	"/>
	<polygon class="st2" points="1185.8,1276.2 1185.8,1068.2 1185.8,1010 1181.2,1010 1181.2,1014.1 1181.2,1068.2 1181.2,1276.2 	"/>
	<polygon class="st2" points="1243.8,1290 1243.8,1273.3 1243.8,1010 1230.8,1010 1231,1273.3 1231,1279.8 1231,1331.3 1231,1335.3 
		1243.8,1316.9 1243.8,1312.6 	"/>
	<polygon class="st2" points="1248.3,1010 1248.3,1273.3 1248.3,1282.3 1256.1,1282.3 1256.1,1273.3 1256.1,1010 	"/>
	<path class="st2" d="M1260.8,1011.6v13.9c0,4.3,2.7,7.8,5.8,7.8c3.2,0,5.8-3.4,5.8-7.8v-13.9c0-0.5,0-1-0.1-1.5h-11.5
		C1260.8,1010.5,1260.8,1011.1,1260.8,1011.6z"/>
	<polygon class="st2" points="1339.6,1140.4 1339.6,1134.7 1339.6,1086.4 1339.6,1079.8 1319.4,1079.8 1319.4,1086.8 1319.4,1086.8 
		1319.4,1092.8 1319.4,1092.8 1319.4,1100.7 1319.4,1100.7 1319.4,1106.7 1319.4,1106.7 1319.4,1114.4 1319.4,1114.4 1319.4,1120.6 
		1319.4,1120.6 1319.4,1140.4 1319.7,1140.4 	"/>
	<polygon class="st2" points="1369,1153.4 1369,1149 1369,1144.7 1369,1136.9 1369,1130.9 1369,1120.6 1369,1114.4 1369,1106.7 
		1369,1100.7 1369,1092.8 1369,1086.8 1369,1079.8 1363.1,1079.8 1363.1,1086.4 1363.1,1118.4 1363.1,1153.4 1363.1,1222.6 
		1363.2,1222.6 1369,1222.6 	"/>
	<polygon class="st2" points="1319.4,1100.7 1319.4,1100.7 1281.7,1100.7 1279.7,1100.7 1279.7,1106.7 1281.7,1106.7 1319.4,1106.7 
		1319.4,1106.7 	"/>
	<polygon class="st2" points="1319.4,1092.8 1319.4,1086.8 1319.4,1086.8 1281.7,1086.8 1279.7,1086.8 1279.7,1092.8 1281.7,1092.8 
			"/>
	<polygon class="st2" points="1319.4,1072.9 1319.4,1072.9 1281.7,1072.9 1279.7,1072.9 1279.7,1079 1281.7,1079 1319.4,1079 	"/>
	<polygon class="st2" points="1319.4,1065.1 1319.4,1065.1 1319.4,1059.1 1319.4,1059.1 1281.7,1059.1 1279.7,1059.1 1279.7,1065.1 
		1281.7,1065.1 	"/>
	<polygon class="st2" points="1319.4,1051.3 1319.4,1045.2 1319.4,1045.2 1281.7,1045.2 1279.7,1045.2 1279.7,1051.3 1281.7,1051.3 
			"/>
	<polygon class="st2" points="1319.4,1037.4 1319.4,1031.4 1319.4,1031.4 1281.7,1031.4 1279.7,1031.4 1279.7,1037.4 1281.7,1037.4 
			"/>
	<polygon class="st2" points="1319.4,1065.1 1319.4,1065.1 1319.4,1065.1 1319.4,1072.9 1319.4,1072.9 1369,1072.9 1371,1072.9 
		1371,1065.1 1369,1065.1 1369,1065.1 	"/>
	<polygon class="st2" points="1319.4,1051.3 1319.4,1051.3 1319.4,1059.1 1319.4,1059.1 1369,1059.1 1371,1059.1 1371,1051.3 
		1369,1051.3 	"/>
	<polygon class="st2" points="1319.4,1045.2 1319.4,1045.2 1369,1045.2 1371,1045.2 1371,1037.4 1319.4,1037.4 1319.4,1037.4 	"/>
	<polygon class="st2" points="1371,1031.4 1371,1023.6 1319.4,1023.6 1319.4,1031.4 1319.4,1031.4 	"/>
	<polygon class="st2" points="1369,1106.7 1380.9,1106.7 1404.2,1106.7 1404.2,1100.7 1380.9,1100.7 1369,1100.7 	"/>
	<polygon class="st2" points="1369,1092.8 1380.9,1092.8 1404.2,1092.8 1404.2,1086.8 1380.9,1086.8 1369,1086.8 	"/>
	<polygon class="st2" points="1369,1072.9 1369,1079 1380.9,1079 1404.2,1079 1404.2,1072.9 1380.9,1072.9 1371,1072.9 	"/>
	<polygon class="st2" points="1369,1059.1 1369,1065.1 1369,1065.1 1371,1065.1 1380.9,1065.1 1404.2,1065.1 1404.2,1059.1 
		1380.9,1059.1 1371,1059.1 	"/>
	<polygon class="st2" points="1369,1045.2 1369,1051.3 1371,1051.3 1380.9,1051.3 1404.2,1051.3 1404.2,1045.2 1380.9,1045.2 
		1371,1045.2 	"/>
	<polygon class="st2" points="1477.2,1374 1493.4,1374 1493.4,1374 1493.5,1374 1493.5,1040.9 1477.2,1040.9 	"/>
	<polygon class="st2" points="1423.7,1364.8 1423.8,1364.9 1423.8,1040.9 1420,1040.9 1419.8,1040.9 1419.8,1110.6 1419.8,1374 	"/>
	<path class="st2" d="M1493.2,1022.7c3.1,0,5.5-3.3,5.5-7.3v-5.4h-11.1v5.4C1487.7,1019.5,1490.1,1022.7,1493.2,1022.7z"/>
	<polygon class="st2" points="1543.7,1010 1543.7,1021.9 1555.2,1021.9 1570.5,1021.9 1570.5,1010 	"/>
	<polygon class="st2" points="1527.4,1102.3 1527.4,1109.3 1530.2,1109.3 1593.4,1109.3 1597.2,1109.3 1597.2,1102.3 1593.4,1102.3 
		1530.2,1102.3 	"/>
	<polygon class="st2" points="1527.4,1089.4 1527.4,1096.3 1530.2,1096.3 1593.4,1096.3 1597.2,1096.3 1597.2,1089.4 1593.4,1089.4 
		1530.2,1089.4 	"/>
	<polygon class="st2" points="1527.4,1076.4 1527.4,1083.4 1530.2,1083.4 1593.4,1083.4 1597.2,1083.4 1597.2,1076.4 1593.4,1076.4 
		1530.2,1076.4 	"/>
	<polygon class="st2" points="1527.4,1063.4 1527.4,1070.3 1530.2,1070.3 1593.4,1070.3 1597.2,1070.3 1597.2,1063.4 1593.4,1063.4 
		1530.2,1063.4 	"/>
	<polygon class="st2" points="1527.4,1051.3 1527.4,1058.2 1530.2,1058.2 1593.4,1058.2 1597.2,1058.2 1597.2,1051.3 1593.4,1051.3 
		1530.2,1051.3 	"/>
	<polygon class="st2" points="1646.7,1040.6 1646.7,1010 1607,1010 1607,1040.6 1607,1080.3 1607,1340.6 1608.4,1340.6 
		1646.7,1340.6 	"/>
	<rect x="1660.5" y="1010" class="st5" width="50.8" height="10.1"/>
	<path class="st2" d="M1702.8,1034.9c0-3.3-2.1-6-4.5-6h-15.6c-2.6,0-4.5,2.7-4.5,6c0,2.7,1.3,4.9,3.2,5.8c0.5,0.2,1,0.3,1.5,0.3
		h15.6c0.5,0,1-0.1,1.5-0.3C1701.5,1039.8,1702.8,1037.5,1702.8,1034.9z"/>
	<path class="st2" d="M1670.8,1058.2c0,2.8,1.5,5.2,3.5,5.9c0.4,0.1,0.8,0.2,1.1,0.2h3.3c2.6,0,4.5-2.7,4.5-6s-2.1-6-4.5-6h-3.3
		c-0.4,0-0.8,0.1-1.1,0.2C1672.3,1053,1670.8,1055.4,1670.8,1058.2z"/>
	<path class="st2" d="M1690.4,1082.9c0,3.5,2.2,6.5,4.8,6.5l0,0c2.7,0,4.8-2.9,4.8-6.5v-3.4c0-1.5-0.4-3-1.2-4.3
		c-0.7-1.3-2.1-2.1-3.7-2.2l0,0c-1.6,0.1-3,0.9-3.7,2.2c-0.8,1.3-1.3,2.8-1.2,4.3L1690.4,1082.9L1690.4,1082.9z"/>
	<rect x="1713.3" y="1092.8" class="st2" width="13.1" height="25.9"/>
	<rect x="1757.6" y="1103.2" class="st2" width="14.3" height="6"/>
	<polygon class="st2" points="1780.4,1109.3 1780.6,1109.3 1787,1109.3 1787,1103.2 1780.6,1103.2 1780.4,1103.2 	"/>
	<polygon class="st2" points="1749.1,1103.2 1747.3,1103.2 1742.6,1103.2 1742.6,1106.2 1742.6,1109.3 1744,1109.3 1749.1,1109.3 	
		"/>
	<rect x="1757.6" y="1091.9" class="st2" width="14.3" height="6"/>
	<rect x="1780.4" y="1091.9" class="st2" width="6.5" height="6"/>
	<polygon class="st2" points="1742.6,1091.9 1742.6,1098 1747.3,1098 1749.1,1098 1749.1,1091.9 1747.3,1091.9 	"/>
	<rect x="1757.6" y="1080.7" class="st2" width="14.3" height="6"/>
	<polygon class="st2" points="1771.9,1075.5 1771.9,1075.2 1771.9,1069.5 1757.6,1069.5 1757.6,1075.2 1757.6,1075.5 	"/>
	<rect x="1780.4" y="1080.7" class="st2" width="6.5" height="6"/>
	<polygon class="st2" points="1787,1075.5 1787,1075.2 1787,1069.5 1780.4,1069.5 1780.4,1075.2 1780.4,1075.5 	"/>
	<polygon class="st2" points="1742.6,1080.7 1742.6,1086.8 1747.3,1086.8 1749.1,1086.8 1749.1,1080.7 1747.3,1080.7 	"/>
	<polygon class="st2" points="1747.3,1075.5 1749.1,1075.5 1749.1,1075.2 1749.1,1069.5 1742.6,1069.5 1742.6,1075.2 1742.6,1075.5 
			"/>
	<rect x="1757.6" y="1058.2" class="st2" width="14.3" height="6"/>
	<rect x="1780.4" y="1058.2" class="st2" width="6.5" height="6"/>
	<rect x="1742.6" y="1058.2" class="st2" width="6.5" height="6"/>
	<rect x="1757.6" y="1047" class="st2" width="14.3" height="6"/>
	<polygon class="st2" points="1757.6,1035.7 1757.6,1040.6 1757.6,1041.8 1771.9,1041.8 1771.9,1040.6 1771.9,1035.7 	"/>
	<rect x="1780.4" y="1047" class="st2" width="6.5" height="6"/>
	<polygon class="st2" points="1780.4,1035.7 1780.4,1040.6 1780.4,1041.8 1787,1041.8 1787,1040.6 1787,1035.7 	"/>
	<rect x="1742.6" y="1047" class="st2" width="6.5" height="6"/>
	<polygon class="st2" points="1742.6,1035.7 1742.6,1040.6 1742.6,1041.8 1749.1,1041.8 1749.1,1040.6 1749.1,1035.7 	"/>
	<path class="st2" d="M1788.8,1018.9c0-4.1-2.5-7.3-5.5-7.3h-20.2c-3.1,0-5.5,3.3-5.5,7.3s2.5,7.3,5.5,7.3h20.2
		C1786.4,1026.2,1788.8,1022.9,1788.8,1018.9z"/>
	<path class="st2" d="M1814,1084.2c2.4,0,4.3-2.5,4.3-5.6s-1.9-5.6-4.3-5.6h-12.4c-2.4,0-4.3,2.5-4.3,5.6c0,0.6,0.1,1.2,0.2,1.8
		c0.6,2.2,2.2,3.8,4.1,3.8H1814L1814,1084.2z"/>
	<path class="st2" d="M1813,1041.8L1813,1041.8c-2.9,0-5.2,3.1-5.2,6.9v5.2c0,3.8,2.4,6.9,5.2,6.9l0,0c2.9,0,5.2-3.1,5.2-6.9v-5.2
		C1818.2,1044.8,1815.8,1041.8,1813,1041.8z"/>
	<polygon class="st2" points="1857.6,1016.7 1907.4,1016.7 1914.7,1016.7 1914.7,1010 1895.9,1010 1895.9,1011.6 1882.8,1011.6 
		1882.8,1010 1871,1010 1871,1011.6 1827.3,1011.6 1827.3,1010 1807.8,1010 1807.8,1011.6 1797.3,1011.6 1797.3,1010 1794.8,1010 
		1794.8,1016.7 	"/>
	<rect x="1797.3" y="1010" class="st5" width="10.5" height="1.5"/>
	<rect x="1827.3" y="1010" class="st5" width="43.7" height="1.5"/>
	<rect x="1882.8" y="1010" class="st5" width="13.1" height="1.5"/>
	<polygon class="st2" points="1948,1010 1927.7,1010 1927.7,1040.6 1927.7,1040.9 1941.7,1040.9 1948,1040.9 1948,1040.6 	"/>
	<polygon class="st2" points="1837.3,1104.1 1865.6,1104.1 1865.6,1098 1837.3,1098 1834,1098 1830.8,1098 1830.5,1098 
		1830.5,1104.1 1830.8,1104.1 1834,1104.1 	"/>
	<polygon class="st2" points="1865.6,1092.8 1865.6,1086.8 1837.3,1086.8 1834,1086.8 1830.8,1086.8 1830.5,1086.8 1830.5,1092.8 
		1830.8,1092.8 1834,1092.8 1837.3,1092.8 	"/>
	<polygon class="st2" points="1837.3,1081.6 1865.6,1081.6 1865.6,1075.5 1837.3,1075.5 1830.8,1075.5 1830.5,1075.5 1830.5,1081.6 
		1830.8,1081.6 	"/>
	<polygon class="st2" points="1834,1070.3 1837.3,1070.3 1865.6,1070.3 1865.6,1064.3 1837.3,1064.3 1830.5,1064.3 1830.5,1064.8 
		1830.5,1070.3 	"/>
	<polygon class="st2" points="1874.3,1321.6 1874.3,1322.9 1872.7,1325 1866.7,1332.7 1860,1341.5 1845.5,1360.2 1863.4,1342.9 
		1864.8,1341.5 1866.7,1339.7 1881.9,1325 1884.1,1322.9 1884.1,1060.5 1884.1,1052.2 1874.3,1052.2 1874.3,1060.5 	"/>
	<rect x="1830.5" y="1053" class="st2" width="35.1" height="6"/>
	<path class="st2" d="M1905.3,1061.7c-1.3,0-2.3,1.4-2.3,3v7.8c0,1.7,1,3.1,2.3,3.1c1.3,0,2.3-1.4,2.3-3.1v-7.8
		C1907.5,1063.1,1906.5,1061.7,1905.3,1061.7z"/>
	<path class="st2" d="M1917.3,1066.1c-2.6,0-4.5,2.7-4.5,6v1.8c0,3.3,2.1,6,4.5,6s4.5-2.7,4.5-6v-1.8
		C1921.9,1068.8,1919.8,1066.1,1917.3,1066.1z"/>
	<path class="st6" d="M1161.2,112.7c0.8,0,1.5-0.7,1.5-1.4c0-0.7-0.7-1.4-1.5-1.4s-1.5,0.7-1.5,1.4
		C1159.7,112,1160.4,112.7,1161.2,112.7z"/>
</g>
<g id="water">
	
		<linearGradient id="SVGID_1_" gradientUnits="userSpaceOnUse" x1="1313.1" y1="568.5044" x2="1313.1" y2="829.8467" gradientTransform="matrix(1 0 0 -1 0 1860)">
		<stop  offset="0.42" style="stop-color:#FFFFFF"/>
		<stop  offset="0.53" style="stop-color:#FFFFFF;stop-opacity:0.99"/>
		<stop  offset="0.6" style="stop-color:#FFFFFF;stop-opacity:0.95"/>
		<stop  offset="0.67" style="stop-color:#FFFFFF;stop-opacity:0.89"/>
		<stop  offset="0.73" style="stop-color:#FFFFFF;stop-opacity:0.8"/>
		<stop  offset="0.79" style="stop-color:#FFFFFF;stop-opacity:0.69"/>
		<stop  offset="0.85" style="stop-color:#FFFFFF;stop-opacity:0.54"/>
		<stop  offset="0.9" style="stop-color:#FFFFFF;stop-opacity:0.38"/>
		<stop  offset="0.96" style="stop-color:#FFFFFF;stop-opacity:0.19"/>
		<stop  offset="1" style="stop-color:#FFFFFF;stop-opacity:0"/>
	</linearGradient>
	<rect x="-32.9" y="1030.2" class="st7" width="2692" height="261.3"/>
	<rect x="-32.9" y="1030.2" class="st8" width="2692" height="261.3"/>
</g>
<g id="steamboat-top">
	<rect x="389.7" y="914.9" class="st9" width="106.2" height="34.2"/>
	<rect x="323.1" y="949.1" class="st9" width="250.9" height="34.2"/>
	<rect x="303.4" y="983.2" class="st9" width="270.4" height="34.2"/>
	<rect x="352.1" y="859.3" class="st9" width="20.8" height="89.9"/>
	<path class="st5" d="M569.7,994.2L569.7,994.2c3.5,0,6.4,3.1,6.4,7.1v2.6c0,3.9-2.9,7.1-6.4,7.1l0,0c-3.5,0-6.4-3.1-6.4-7.1v-2.6
		C563.3,997.3,566.2,994.2,569.7,994.2z"/>
	<path class="st5" d="M323.8,990.7L323.8,990.7c3.5,0,6.4,3.1,6.4,7.1v2.6c0,3.9-2.9,7.1-6.4,7.1l0,0c-3.5,0-6.4-3.1-6.4-7.1v-2.6
		C317.3,993.8,320.1,990.7,323.8,990.7z"/>
	<path class="st5" d="M346.4,990.7L346.4,990.7c3.5,0,6.4,3.1,6.4,7.1v2.6c0,3.9-2.9,7.1-6.4,7.1l0,0c-3.5,0-6.4-3.1-6.4-7.1v-2.6
		C340,993.8,342.8,990.7,346.4,990.7z"/>
	<path class="st5" d="M369.1,990.7L369.1,990.7c3.5,0,6.4,3.1,6.4,7.1v2.6c0,3.9-2.9,7.1-6.4,7.1l0,0c-3.5,0-6.4-3.1-6.4-7.1v-2.6
		C362.6,993.8,365.4,990.7,369.1,990.7z"/>
	<path class="st5" d="M391.7,990.7L391.7,990.7c3.5,0,6.4,3.1,6.4,7.1v2.6c0,3.9-2.9,7.1-6.4,7.1l0,0c-3.5,0-6.4-3.1-6.4-7.1v-2.6
		C385.3,993.8,388.2,990.7,391.7,990.7z"/>
	<path class="st5" d="M414.4,990.7L414.4,990.7c3.5,0,6.4,3.1,6.4,7.1v2.6c0,3.9-2.9,7.1-6.4,7.1l0,0c-3.5,0-6.4-3.1-6.4-7.1v-2.6
		C407.9,993.8,410.8,990.7,414.4,990.7z"/>
	<path class="st5" d="M437,990.7L437,990.7c3.5,0,6.4,3.1,6.4,7.1v2.6c0,3.9-2.9,7.1-6.4,7.1l0,0c-3.5,0-6.4-3.1-6.4-7.1v-2.6
		C430.6,993.8,433.5,990.7,437,990.7z"/>
	<path class="st5" d="M459.6,990.7L459.6,990.7c3.5,0,6.4,3.1,6.4,7.1v2.6c0,3.9-2.9,7.1-6.4,7.1l0,0c-3.5,0-6.4-3.1-6.4-7.1v-2.6
		C453.2,993.8,456.1,990.7,459.6,990.7z"/>
	<path class="st5" d="M482.3,990.7L482.3,990.7c3.5,0,6.4,3.1,6.4,7.1v2.6c0,3.9-2.9,7.1-6.4,7.1l0,0c-3.5,0-6.4-3.1-6.4-7.1v-2.6
		C475.9,993.8,478.8,990.7,482.3,990.7z"/>
	<path class="st5" d="M504.9,990.7L504.9,990.7c3.5,0,6.4,3.1,6.4,7.1v2.6c0,3.9-2.9,7.1-6.4,7.1l0,0c-3.5,0-6.4-3.1-6.4-7.1v-2.6
		C498.5,993.8,501.4,990.7,504.9,990.7z"/>
	<path class="st5" d="M527.6,990.7L527.6,990.7c3.5,0,6.4,3.1,6.4,7.1v2.6c0,3.9-2.9,7.1-6.4,7.1l0,0c-3.5,0-6.4-3.1-6.4-7.1v-2.6
		C521.2,993.8,524.1,990.7,527.6,990.7z"/>
	<path class="st5" d="M550.2,990.7L550.2,990.7c3.5,0,6.4,3.1,6.4,7.1v2.6c0,3.9-2.9,7.1-6.4,7.1l0,0c-3.5,0-6.4-3.1-6.4-7.1v-2.6
		C543.8,993.8,546.7,990.7,550.2,990.7z"/>
	<path class="st5" d="M338.6,957.3L338.6,957.3c3.5,0,6.4,3.1,6.4,7.1v2.6c0,3.9-2.9,7.1-6.4,7.1l0,0c-3.5,0-6.4-3.1-6.4-7.1v-2.6
		C332.2,960.4,335,957.3,338.6,957.3z"/>
	<path class="st5" d="M361.3,957.3L361.3,957.3c3.5,0,6.4,3.1,6.4,7.1v2.6c0,3.9-2.9,7.1-6.4,7.1l0,0c-3.5,0-6.4-3.1-6.4-7.1v-2.6
		C354.9,960.4,357.7,957.3,361.3,957.3z"/>
	<path class="st5" d="M384,957.3L384,957.3c3.5,0,6.4,3.1,6.4,7.1v2.6c0,3.9-2.9,7.1-6.4,7.1l0,0c-3.5,0-6.4-3.1-6.4-7.1v-2.6
		C377.5,960.4,380.3,957.3,384,957.3z"/>
	<path class="st5" d="M406.6,957.3L406.6,957.3c3.5,0,6.4,3.1,6.4,7.1v2.6c0,3.9-2.9,7.1-6.4,7.1l0,0c-3.5,0-6.4-3.1-6.4-7.1v-2.6
		C400.2,960.4,403,957.3,406.6,957.3z"/>
	<path class="st5" d="M429.3,957.3L429.3,957.3c3.5,0,6.4,3.1,6.4,7.1v2.6c0,3.9-2.9,7.1-6.4,7.1l0,0c-3.5,0-6.4-3.1-6.4-7.1v-2.6
		C422.8,960.4,425.6,957.3,429.3,957.3z"/>
	<path class="st5" d="M451.9,957.3L451.9,957.3c3.5,0,6.4,3.1,6.4,7.1v2.6c0,3.9-2.9,7.1-6.4,7.1l0,0c-3.5,0-6.4-3.1-6.4-7.1v-2.6
		C445.5,960.4,448.3,957.3,451.9,957.3z"/>
	<path class="st5" d="M474.5,957.3L474.5,957.3c3.5,0,6.4,3.1,6.4,7.1v2.6c0,3.9-2.9,7.1-6.4,7.1l0,0c-3.5,0-6.4-3.1-6.4-7.1v-2.6
		C468.1,960.4,471,957.3,474.5,957.3z"/>
	<path class="st5" d="M497.2,957.3L497.2,957.3c3.5,0,6.4,3.1,6.4,7.1v2.6c0,3.9-2.9,7.1-6.4,7.1l0,0c-3.5,0-6.4-3.1-6.4-7.1v-2.6
		C490.8,960.4,493.7,957.3,497.2,957.3z"/>
	<path class="st5" d="M519.8,957.3L519.8,957.3c3.5,0,6.4,3.1,6.4,7.1v2.6c0,3.9-2.9,7.1-6.4,7.1l0,0c-3.5,0-6.4-3.1-6.4-7.1v-2.6
		C513.4,960.4,516.3,957.3,519.8,957.3z"/>
	<path class="st5" d="M542.5,957.3L542.5,957.3c3.5,0,6.4,3.1,6.4,7.1v2.6c0,3.9-2.9,7.1-6.4,7.1l0,0c-3.5,0-6.4-3.1-6.4-7.1v-2.6
		C536,960.4,539,957.3,542.5,957.3z"/>
	<path class="st5" d="M565.1,957.3L565.1,957.3c3.5,0,6.4,3.1,6.4,7.1v2.6c0,3.9-2.9,7.1-6.4,7.1l0,0c-3.5,0-6.4-3.1-6.4-7.1v-2.6
		C558.7,960.4,561.6,957.3,565.1,957.3z"/>
	<path class="st5" d="M407.6,923.8L407.6,923.8c3.5,0,6.4,3.1,6.4,7.1v2.6c0,3.9-2.9,7.1-6.4,7.1l0,0c-3.5,0-6.4-3.1-6.4-7.1v-2.6
		C401.1,927,404,923.8,407.6,923.8z"/>
	<path class="st5" d="M430.2,923.8L430.2,923.8c3.5,0,6.4,3.1,6.4,7.1v2.6c0,3.9-2.9,7.1-6.4,7.1l0,0c-3.5,0-6.4-3.1-6.4-7.1v-2.6
		C423.8,927,426.7,923.8,430.2,923.8z"/>
	<path class="st5" d="M452.9,923.8L452.9,923.8c3.5,0,6.4,3.1,6.4,7.1v2.6c0,3.9-2.9,7.1-6.4,7.1l0,0c-3.5,0-6.4-3.1-6.4-7.1v-2.6
		C446.4,927,449.3,923.8,452.9,923.8z"/>
	<path class="st5" d="M475.5,923.8L475.5,923.8c3.5,0,6.4,3.1,6.4,7.1v2.6c0,3.9-2.9,7.1-6.4,7.1l0,0c-3.5,0-6.4-3.1-6.4-7.1v-2.6
		C469.1,927,472,923.8,475.5,923.8z"/>
	<rect x="295" y="980.3" class="st10" width="283.7" height="5.9"/>
	<rect x="315" y="947.6" class="st10" width="263.8" height="5.9"/>
	<rect x="381.9" y="912" class="st10" width="119.7" height="5.9"/>
	<path class="st10" d="M566.1,1046c39.6-22.4,53.8-50.3,53.8-50.3h-64.5l-28.8,19.1l-193.6,1.8l-97.8-20.8c0,0,23.7,27.9,74.5,50.3
		L566.1,1046z"/>
	
		<ellipse transform="matrix(0.9892 -0.1465 0.1465 0.9892 -119.278 64.8752)" class="st11" cx="380.8" cy="842.2" rx="15.4" ry="11"/>
	
		<ellipse transform="matrix(0.991 -0.1339 0.1339 0.991 -106.4822 62.7953)" class="st11" cx="413.6" cy="823.1" rx="15.4" ry="11.8"/>
	
		<ellipse transform="matrix(0.9635 -0.2678 0.2678 0.9635 -198.6391 150.4042)" class="st11" cx="452.1" cy="803.4" rx="18.1" ry="12.7"/>
	
		<ellipse transform="matrix(0.9639 -0.2662 0.2662 0.9639 -190.4779 161.271)" class="st11" cx="499.6" cy="783.3" rx="23.8" ry="16"/>
</g>
</svg>
