<?xml version="1.0" encoding="utf-8"?>
<!-- Generator: Adobe Illustrator 23.0.4, SVG Export Plug-In . SVG Version: 6.00 Build 0)  -->
<svg version="1.1" id="Layer_1" xmlns="http://www.w3.org/2000/svg" xmlns:xlink="http://www.w3.org/1999/xlink" x="0px" y="0px"
	 viewBox="0 0 1920 1000" style="enable-background:new 0 0 1920 1000;" xml:space="preserve">
<style type="text/css">
	.st0{clip-path:url(#SVGID_2_);}
	.st1{fill:#F0F8FD;}
	.st2{fill:none;}
	.st3{fill:#2C4D7B;}
	.st4{fill:#AFCEE1;}
	.st5{clip-path:url(#SVGID_4_);}
	.st6{fill:#BADFE5;}
	.st7{fill:#88D2DA;}
	.st8{opacity:0.3;fill:#F0F3CD;enable-background:new    ;}
	.st9{fill:#8CA1C6;}
	.st10{fill:#274B79;}
	.st11{opacity:0.57;}
	.st12{opacity:0.5;fill:#AFCCE0;enable-background:new    ;}
	.st13{clip-path:url(#SVGID_6_);}
	.st14{fill:#B9DFE5;}
	.st15{fill:#88D2DB;}
	.st16{opacity:0.3;fill:#FDFBE3;enable-background:new    ;}
	.st17{fill:#7888C1;}
	.st18{fill:#5A6EB1;}
	.st19{fill:#BBC6DC;}
	.st20{fill:#B7DFE6;}
	.st21{fill:#566ED1;}
	.st22{opacity:0.2;fill:#FEF0A1;enable-background:new    ;}
	.st23{opacity:0.6;}
	.st24{fill:#4497FF;}
	.st25{fill:#66AAFF;}
	.st26{fill:#FF9696;}
	.st27{fill:#FF6D6D;}
	.st28{clip-path:url(#SVGID_8_);}
	.st29{fill:#D2DDE2;}
	.st30{clip-path:url(#SVGID_10_);}
	.st31{clip-path:url(#SVGID_12_);}
	.st32{fill:#AEDEE5;}
	.st33{fill:#CCD9EB;}
	.st34{fill:#2560A2;}
	.st35{fill:#1A3056;stroke:#1A3056;stroke-miterlimit:10;}
	.st36{fill:#C7E7E7;}
	.st37{fill:#FFFCEA;}
	.st38{fill:#70C6B5;}
	.st39{fill:#CEEBEF;}
	.st40{clip-path:url(#SVGID_14_);}
	.st41{fill:#ACDEE4;}
	.st42{fill:#6E83B1;}
	.st43{fill:#784A22;}
	.st44{fill:#274C79;}
	.st45{fill:#5290C9;}
	.st46{fill:#E8DDAD;}
	.st47{fill:#503417;}
	.st48{fill:#F2B797;}
	.st49{fill:#FFFFFF;}
	.st50{fill:#A17432;}
	.st51{fill:#4A72A7;}
	.st52{fill:#6090C8;}
	.st53{fill:#E36C70;}
	.st54{fill:#F3BF98;}
	.st55{fill:#4972A7;}
	.st56{fill:#F06D71;}
	.st57{fill:#F07C71;}
	.st58{fill:#25407F;}
	.st59{fill:none;stroke:#3B805E;stroke-width:3;stroke-miterlimit:10;}
	.st60{fill:none;stroke:#F0A66D;stroke-width:3;stroke-miterlimit:10;}
	.st61{fill:#5C71B3;}
</style>
<title>home_housing</title>
<g>
	<defs>
		<polyline id="SVGID_1_" points="1919.2,1077 0.9,1077 0.9,-3 1919.2,-3 		"/>
	</defs>
	<clipPath id="SVGID_2_">
		<use xlink:href="#SVGID_1_"  style="overflow:visible;"/>
	</clipPath>
	<g class="st0">
		<rect id="sky" x="-2.5" y="-3" class="st1" width="1921.9" height="1027.1"/>
	</g>
</g>
<polyline class="st2" points="2210.6,1028.4 -452.4,1028.4 -452.4,-470.8 2210.6,-470.8 "/>
<g id="Group_69">
	<rect id="Rectangle_15" x="-382.8" y="173.6" class="st3" width="521.2" height="829.8"/>
	<g id="Group_22">
		<g id="Group_18">
			<rect id="Rectangle_17" x="-115.5" y="723.3" class="st4" width="127.4" height="280.1"/>
		</g>
	</g>
	<g id="Group_45">
		<g id="Group_40">
			<g>
				<defs>
					<rect id="SVGID_3_" x="-298.5" y="456.1" width="352.4" height="211.2"/>
				</defs>
				<clipPath id="SVGID_4_">
					<use xlink:href="#SVGID_3_"  style="overflow:visible;"/>
				</clipPath>
				<g class="st5">
					<g id="Group_39">
						<g id="Group_38">
							<rect id="Rectangle_485" x="-308.6" y="441.8" class="st6" width="366.1" height="261.7"/>
							<path id="Path_13" class="st7" d="M57.5,650v53.5h-366.1l-0.6-53.8h57.4l297.6,0.2L57.5,650z"/>
							<path id="Path_14" class="st8" d="M57.5,667.5v35.9h-325.8c-2.6-4.4-4-9.4-4.1-14.5c0-2.1,0.2-4.1,0.7-6.1c0.2-1,0.5-2,0.9-3
								c0.5-0.8,1.1-1.5,1.7-2.3c2.4-3.9,5-7.9,7.4-11.7c3.3-5.3,6.8-10.7,10.1-16c40.4-63.3,81.7-126.1,123.9-188.6h50L45.8,650
								c3.3,4.9,6.5,10,9.8,14.9C56.3,665.7,56.9,666.6,57.5,667.5z"/>
							<path id="Path_15" class="st9" d="M-247.7,667.4c-1.3,5.6,15.3,13.5,26.2,17.2c19.8,6.8,34.2,5.1,65,4c0,0,32.9-1.2,72-0.5
								c32.5,0.7,34,2.3,59.6,2.3c31.8,0,71.8,0,74.4-10.2c1.5-5.4-8.3-12.8-16.8-16.3c-18.5-7.7-29.5,4-61.7,3.5
								c-9.8-0.2-20.3-1.9-41.4-5.2c-18.1-3-28.6-5.4-41.4-1.4c-9.4,3-47.6,11.8-75.5,5.3c-15.5-3.5-17.7-5.3-27.1-5.8
								C-227.8,659.5-246.6,661.8-247.7,667.4z"/>
						</g>
					</g>
				</g>
			</g>
			<g id="Group_71">
				<ellipse id="Ellipse_13" class="st10" cx="0.2" cy="515.8" rx="6.3" ry="6"/>
				<rect id="Rectangle_70" x="-2.5" y="518.2" class="st10" width="5.3" height="136"/>
				<path id="Path_127" class="st10" d="M0.6,641.6c11.1,0,19.9,13.1,19.9,13.1h-40.1C-19.3,654.7-10.5,641.6,0.6,641.6z"/>
				<path id="Rectangle_71" class="st10" d="M-28.6,533.5l29.4,12.5c1.2,0.5,1.9,1.8,1.4,3.1c0,0.1-0.1,0.2-0.1,0.3l0,0
					c-0.6,1.3-2.2,1.9-3.5,1.2c0,0,0,0,0,0L-30.8,538c-1.2-0.5-1.9-1.8-1.4-3.1c0-0.1,0.1-0.2,0.1-0.3l0,0
					C-31.4,533.4-29.9,532.9-28.6,533.5z"/>
				<path id="Rectangle_72" class="st10" d="M31.1,554.1L1.7,566.6c-1.3,0.5-2.8,0-3.5-1.2l0,0c-0.6-1.3,0-2.8,1.3-3.3c0,0,0,0,0,0
					l29.4-12.4c1.3-0.5,2.8,0,3.5,1.2l0,0C32.9,552.1,32.4,553.6,31.1,554.1C31.1,554.1,31.1,554.1,31.1,554.1z"/>
			</g>
		</g>
		<g id="Group_44" class="st11">
			<rect id="Rectangle_36" x="-299.5" y="456.1" class="st12" width="352.4" height="211.2"/>
		</g>
	</g>
	<g id="Group_63">
		<g>
			<defs>
				<rect id="SVGID_5_" x="-298.5" y="214.3" width="352.4" height="211.2"/>
			</defs>
			<clipPath id="SVGID_6_">
				<use xlink:href="#SVGID_5_"  style="overflow:visible;"/>
			</clipPath>
			<g class="st13">
				<g id="Group_62">
					<g id="Group_61">
						<rect id="Rectangle_485-3" x="-308.6" y="200.1" class="st14" width="366.1" height="261.7"/>
						<path id="Path_69" class="st15" d="M57.5,408.1v53.5h-366.1l-0.6-53.8h57.4L45.8,408L57.5,408.1z"/>
						<path id="Path_70" class="st16" d="M57.5,425.6v35.9h-325.8c-2.6-4.4-4-9.5-4.1-14.6c0-2.1,0.2-4.1,0.7-6.1c0.2-1,0.5-2,0.9-3
							c0.6-0.9,1.1-1.6,1.7-2.3c2.4-3.9,5-7.9,7.4-11.8c3.3-5.3,6.8-10.7,10.1-16c40.4-63.3,81.7-126.1,123.9-188.6h50L45.8,408.1
							c3.3,4.9,6.5,10,9.8,14.9C56.3,423.9,56.9,424.7,57.5,425.6z"/>
						<path id="Path_71" class="st17" d="M-247.7,425.5c-1.3,5.6,15.3,13.5,26.2,17.2c19.8,6.8,34.2,5.1,65,4c0,0,32.9-1.2,72-0.5
							c32.5,0.7,34,2.3,59.6,2.3c31.8,0,71.8,0,74.4-10.2c1.5-5.4-8.3-12.8-16.8-16.3c-18.5-7.7-29.5,4-61.7,3.5
							c-9.8-0.2-20.3-1.9-41.4-5.3c-18.1-3-28.6-5.4-41.4-1.4c-9.4,3-47.6,11.7-75.5,5.3c-15.5-3.5-17.7-5.3-27.1-5.8
							C-227.8,417.8-246.6,419.9-247.7,425.5z"/>
						<g id="Group_59">
							<g id="Group_56">
								<g id="Group_52">
									<line id="Line_13" class="st2" x1="-2.9" y1="391.3" x2="6.7" y2="426.2"/>
									<polygon id="Rectangle_45" class="st10" points="-4.7,391.6 -1.1,390.8 8.5,425.7 4.9,426.6 									"/>
								</g>
								<path id="Path_82" class="st18" d="M2.2,345.3c10.9,6.8,6.5,23.3,5,32.8c-1.3,8.4-4.8,11.9-16.8,15.6
									c-11.6,3.5-32.1,0.7-32.5-3c-1.1-10.7,8.1-6.3,12.6-15.2c5.4-10.3-2.8-16.8,2.2-25.1C-22.7,343.1-6.8,339.7,2.2,345.3z"/>
								<path id="Path_83" class="st19" d="M-1.6,344.3c5,4.7,3.9,19.5,2.8,28.4c-1.1,8.1-3.5,13-14.2,16.3
									c-10.3,3.3-28.1,1-28.4-2.5c-0.7-6.7,7.8-3.7,11.4-12.1c5.2-11.4-2.2-17,2.2-24.9C-23.8,342.7-7.9,338.3-1.6,344.3z"/>
							</g>
						</g>
					</g>
				</g>
			</g>
		</g>
	</g>
	<g id="Group_67" class="st11">
		<rect id="Rectangle_51" x="-298.5" y="214.3" class="st12" width="352.4" height="211.2"/>
	</g>
</g>
<ellipse class="st20" cx="277.3" cy="616.2" rx="27" ry="22.8"/>
<rect x="185.1" y="615" class="st21" width="15.5" height="360"/>
<rect x="185.1" y="604.6" class="st21" width="46.2" height="11.6"/>
<path class="st21" d="M227.8,616.3c0-24.1,21.8-49.5,48.7-49.5s48.7,25.5,48.7,49.5"/>
<polygon class="st22" points="250.1,616.3 210.3,1027.5 722.5,1018.8 304.4,616.3 "/>
<g class="st23">
	<polygon class="st21" points="758.8,824.5 654.1,824.5 642.6,750.7 747.3,750.7 	"/>
	<rect x="618.5" y="824.5" class="st24" width="104.6" height="172.5"/>
	<rect x="723.1" y="824.5" class="st25" width="35.7" height="172.5"/>
	<polygon class="st24" points="758.8,824.5 723.1,824.5 695.3,794.3 730.9,794.3 	"/>
	<polygon class="st25" points="723.1,824.5 618.5,824.5 598.6,788 703.2,788 	"/>
	<rect x="644.7" y="824.5" class="st26" width="16.1" height="172.5"/>
	<polygon class="st27" points="660.9,824.5 644.7,824.5 629.8,787.6 645.9,787.6 	"/>
</g>
<g id="Group_69-2">
	<rect id="Rectangle_15-2" x="1635.3" y="325.2" class="st3" width="422.7" height="673"/>
	<g id="Group_22-2">
		<g id="Group_18-2">
			<rect id="Rectangle_17-2" x="1852.1" y="771.1" class="st4" width="103.3" height="227.2"/>
			<g id="Group_17-2">
				<g>
					<defs>
						<rect id="SVGID_7_" x="1852.1" y="771.1" width="104.3" height="227.2"/>
					</defs>
					<clipPath id="SVGID_8_">
						<use xlink:href="#SVGID_7_"  style="overflow:visible;"/>
					</clipPath>
					<g class="st28">
						<g id="Group_16">
							<g id="Group_15">
								<g id="Group_14">
									<polygon id="Rectangle_18" class="st29" points="1585.4,995 1885.2,713 1911.8,737.9 1611.9,1019.9 									"/>
									<polygon id="Rectangle_19" class="st29" points="1623.2,1030.6 1923.1,748.6 1936.5,761.3 1636.7,1043.3 									"/>
								</g>
							</g>
						</g>
					</g>
				</g>
			</g>
		</g>
		<rect id="Rectangle_21" x="1737.2" y="771.1" class="st4" width="103.3" height="227.2"/>
		<g id="Group_21">
			<g>
				<defs>
					<rect id="SVGID_9_" x="1737.2" y="771.1" width="102.9" height="227.2"/>
				</defs>
				<clipPath id="SVGID_10_">
					<use xlink:href="#SVGID_9_"  style="overflow:visible;"/>
				</clipPath>
				<g class="st30">
					<g id="Group_20">
						<g id="Group_19">
							<polygon id="Rectangle_22" class="st29" points="1588.8,995 1884.5,713 1910.7,738 1615,1019.9 							"/>
							<polygon id="Rectangle_23" class="st29" points="1631.1,1028.6 1926.8,746.6 1940.1,759.3 1644.4,1041.3 							"/>
						</g>
					</g>
				</g>
			</g>
		</g>
	</g>
	<g id="Group_45-2">
		<g id="Group_40-2">
			<g>
				<defs>
					<rect id="SVGID_11_" x="1703.7" y="554.4" width="285.9" height="171.3"/>
				</defs>
				<clipPath id="SVGID_12_">
					<use xlink:href="#SVGID_11_"  style="overflow:visible;"/>
				</clipPath>
				<g class="st31">
					<g id="Group_39-2">
						<g id="Group_38-2">
							<rect id="Rectangle_485-2" x="1695.5" y="542.8" class="st6" width="296.9" height="212.3"/>
							<path id="Path_13-2" class="st7" d="M1992.4,711.7V755h-296.9l-0.4-43.7h46.6l241.4,0.2L1992.4,711.7z"/>
							<path id="Path_14-2" class="st8" d="M1992.4,725.9V755h-264.3c-2.1-3.6-3.3-7.6-3.3-11.8c0-1.7,0.2-3.4,0.6-5
								c0.2-0.8,0.4-1.6,0.7-2.4c0.4-0.6,0.9-1.3,1.3-1.8c2-3.1,4-6.4,6-9.5c2.7-4.3,5.5-8.7,8.2-12.9
								c32.8-51.3,66.3-102.3,100.5-153h40.6c33.4,51,66.8,102.1,100.2,153.1c2.7,4,5.2,8.1,7.9,12.1
								C1991.5,724.4,1992,725.1,1992.4,725.9z"/>
							<path id="Path_15-2" class="st9" d="M1744.9,725.7c-1,4.5,12.4,11,21.3,13.9c16,5.5,27.7,4.1,52.7,3.3c0,0,26.7-1,58.4-0.4
								c26.4,0.6,27.6,1.8,48.4,1.8c25.8,0,58.2,0,60.3-8.2c1.2-4.4-6.7-10.4-13.6-13.2c-15-6.2-24,3.3-50,2.8
								c-7.9-0.1-16.5-1.6-33.5-4.3c-14.7-2.4-23.2-4.4-33.5-1.1c-7.6,2.4-38.6,9.5-61.2,4.3c-12.6-2.8-14.4-4.3-22-4.7
								C1761,719.3,1745.8,721.2,1744.9,725.7z"/>
							<path id="Rectangle_485-2-2" class="st32" d="M1695.2,755l-0.2-212.2h41.9V711L1695.2,755z"/>
							<path id="Path_17" class="st33" d="M1768.5,685.9c-1-0.8-1.8-1.9-2.1-3.1C1766.9,684,1767.6,685.1,1768.5,685.9z"/>
							<path id="Path_18" class="st33" d="M1770.3,687.4c-0.6-0.4-1.2-0.9-1.8-1.4C1769.1,686.5,1769.7,686.9,1770.3,687.4z"/>
							<path id="Path_19" class="st33" d="M1769,690.9c-1-0.8-1.8-1.9-2.1-3.1C1767.3,689,1768.1,690.1,1769,690.9z"/>
							<path id="Path_20" class="st33" d="M1770.8,692.3c-0.6-0.4-1.2-0.9-1.8-1.4C1769.5,691.4,1770.1,691.9,1770.8,692.3z"/>
							<ellipse id="Ellipse_6" class="st34" cx="1863.6" cy="557.3" rx="19" ry="2.3"/>
							<g id="Group_37">
								<rect id="Rectangle_34" x="1859.6" y="542.8" class="st35" width="6.4" height="7.5"/>
								<path id="Path_67" class="st35" d="M1883.7,554.8v4.7c0-0.8-1-1.7-2.8-2.3c-3.6-1.4-10.3-2.3-18-2.3s-14.4,1-18,2.3
									c-1.8,0.7-2.7,1.4-2.7,2.3v-4.7c0-2.6,9.3-4.7,20.7-4.7C1874.4,550.3,1883.7,552.3,1883.7,554.8z"/>
								<path id="Path_68" class="st36" d="M1883.7,559.5c0,2.6-9.3,4.7-20.7,4.7s-20.7-2.1-20.7-4.7c0-0.8,1.1-1.7,2.7-2.3
									c3.6-1.4,10.3-2.3,18-2.3s14.4,1,18,2.3C1882.6,558,1883.7,558.7,1883.7,559.5z"/>
							</g>
						</g>
					</g>
				</g>
			</g>
			<g id="Group_71-2">
				<path id="Rectangle_71-2" class="st10" d="M1922.6,617.1l23.8,10.1c1,0.4,1.5,1.5,1.1,2.5c0,0.1-0.1,0.1-0.1,0.2l0,0
					c-0.5,1.1-1.8,1.5-2.8,1c0,0,0,0,0,0l-23.8-10.1c-1-0.4-1.5-1.5-1.1-2.5c0-0.1,0.1-0.1,0.1-0.2l0,0
					C1920.3,617.1,1921.5,616.7,1922.6,617.1z"/>
			</g>
			<g id="Group_70">
				<path id="Rectangle_67" class="st37" d="M1748.9,687.1h110.4c5.4-0.1,9.9,4.1,10,9.5v4.1c-0.1,5.4-4.6,9.6-10,9.5h-110.4
					c-5.4,0.1-9.9-4.1-10-9.5v-4.1C1738.7,691.3,1743.4,687.1,1748.9,687.1z"/>
				<path id="Rectangle_68" class="st38" d="M1784.2,678.1h74.3c4.7-0.1,8.6,3.6,8.7,8.2v19.9c-0.1,4.7-4,8.4-8.7,8.2h-74.3
					c-4.7,0.1-8.6-3.6-8.7-8.2v-19.9C1775.7,681.7,1779.6,678,1784.2,678.1z"/>
				<rect id="Rectangle_64" x="1734.4" y="657.2" class="st10" width="8.5" height="68.8"/>
				<rect id="Rectangle_65" x="1742.3" y="704.3" class="st10" width="126.7" height="12.2"/>
				<rect id="Rectangle_66" x="1866.9" y="671.9" class="st10" width="8.5" height="54.2"/>
				<ellipse id="Ellipse_11" class="st10" cx="1738.4" cy="652.4" rx="5.4" ry="5.1"/>
				<ellipse id="Ellipse_12" class="st10" cx="1871.2" cy="666.9" rx="5.4" ry="5.1"/>
				<path id="Path_125" class="st10" d="M1745.3,709c4,0,7.2,3.2,7.2,7.2c0,0,0,0.1,0,0.1c0.1,2.1-1.6,3.9-3.8,4c0,0-0.1,0-0.1,0
					c-2.7,0-5.7,1.8-5.5,4.5c0,4.7-4.9-4.5-4.9-8.5C1738,712.2,1741.1,709.1,1745.3,709z"/>
				<path id="Path_126" class="st10" d="M1865.1,709c-4,0-7.2,3.2-7.2,7.2c0,0,0,0.1,0,0.1c0.2,2.1,1.8,3.7,3.9,4
					c2.2,0.1,5.5,2,5.5,4.7c0,4.7,5.1-4.7,5.1-8.7C1872.4,712.3,1869.1,709,1865.1,709z"/>
				<path id="Rectangle_69" class="st39" d="M1752.5,678.1h14.4c3.9-0.1,7.1,2.9,7.2,6.8c0,0,0,0,0,0l0,0c-0.1,3.9-3.3,6.9-7.2,6.8
					c0,0,0,0,0,0h-14.4c-3.9,0.1-7.1-2.9-7.2-6.8c0,0,0,0,0,0l0,0C1745.4,681.1,1748.6,678,1752.5,678.1
					C1752.5,678.1,1752.5,678.1,1752.5,678.1z"/>
			</g>
		</g>
		<g id="Group_44-2" class="st11">
			<rect id="Rectangle_36-2" x="1702.8" y="554.4" class="st12" width="285.9" height="171.3"/>
		</g>
	</g>
	<g id="Group_63-2">
		<g>
			<defs>
				<rect id="SVGID_13_" x="1703.7" y="358.2" width="285.9" height="171.3"/>
			</defs>
			<clipPath id="SVGID_14_">
				<use xlink:href="#SVGID_13_"  style="overflow:visible;"/>
			</clipPath>
			<g class="st40">
				<g id="Group_62-2">
					<g id="Group_61-2">
						<rect id="Rectangle_485-3-2" x="1695.5" y="346.7" class="st14" width="296.9" height="212.3"/>
						<path id="Path_69-2" class="st15" d="M1992.4,515.5v43.4h-296.9l-0.4-43.6h46.6l241.4,0.1L1992.4,515.5z"/>
						<path id="Path_70-2" class="st16" d="M1992.4,529.7v29.1h-264.3c-2.1-3.6-3.3-7.6-3.3-11.8c0-1.7,0.2-3.4,0.6-5
							c0.2-0.8,0.4-1.6,0.7-2.4c0.4-0.6,0.9-1.3,1.3-1.8c2-3.1,4-6.4,6-9.5c2.7-4.3,5.5-8.7,8.2-12.9
							c32.8-51.3,66.3-102.3,100.5-153h40.6c33.4,51,66.8,102.1,100.2,153.1c2.7,4,5.2,8.1,7.9,12.1
							C1991.5,528.2,1991.9,528.9,1992.4,529.7z"/>
						<path id="Path_71-2" class="st17" d="M1744.9,529.5c-1,4.5,12.4,11,21.3,13.9c16,5.5,27.7,4.1,52.7,3.3c0,0,26.7-1,58.4-0.4
							c26.4,0.6,27.6,1.8,48.4,1.8c25.8,0,58.2,0,60.3-8.2c1.2-4.4-6.7-10.4-13.6-13.2c-15-6.2-24,3.3-50,2.8
							c-7.9-0.1-16.5-1.6-33.5-4.3c-14.7-2.4-23.2-4.4-33.5-1.1c-7.6,2.4-38.6,9.5-61.2,4.3c-12.6-2.8-14.4-4.3-22-4.7
							C1761,523.3,1745.8,525,1744.9,529.5z"/>
						<path id="Rectangle_485-4" class="st41" d="M1695.2,558.8l-0.2-212.3h41.9v168.2L1695.2,558.8z"/>
						<path id="Path_73" class="st33" d="M1768.5,489.9c-1-0.8-1.8-1.9-2.1-3.1C1766.9,487.9,1767.6,489,1768.5,489.9z"/>
						<path id="Path_74" class="st33" d="M1770.3,491.3c-0.6-0.4-1.2-0.9-1.8-1.4C1769.1,490.4,1769.7,490.9,1770.3,491.3z"/>
						<path id="Path_75" class="st33" d="M1769,494.9c-1-0.8-1.8-1.9-2.1-3.1C1767.4,492.9,1768.1,494,1769,494.9z"/>
						<path id="Path_76" class="st33" d="M1770.8,496.3c-0.6-0.4-1.2-0.9-1.8-1.4C1769.5,495.4,1770.1,495.8,1770.8,496.3z"/>
						<g id="Group_59-2">
							<g id="Group_46">
								<path id="Path_77" class="st18" d="M1861.4,480.2c1.5,0,2.7,0.7,2.7,1.7l0,0v50.5l0,0c0,0.8-1.2,1.7-2.7,1.7
									s-2.7-0.7-2.7-1.7l0,0v-50.5l0,0C1858.7,480.9,1859.9,480.2,1861.4,480.2z"/>
								<path id="Path_78" class="st18" d="M1907.5,481.3c0,1.9-1.2,3.4-2.8,3.4h-86.8c-1.5,0-2.8-1.6-2.8-3.4s1.2-3.4,2.8-3.4h86.8
									C1906.2,477.9,1907.5,479.5,1907.5,481.3z"/>
								<path id="Path_79" class="st42" d="M1879.4,532.1c0,1.3-0.4,2.3-1.1,2.3h-34c-0.6,0-1-1-1-2.3s0.4-2.3,1-2.3h34
									C1878.9,529.8,1879.4,530.8,1879.4,532.1z"/>
							</g>
							<g id="Group_51">
								<g id="Group_47">
									<line id="Line_9" class="st2" x1="1774.1" y1="502.3" x2="1766.1" y2="530.6"/>
									<polygon id="Rectangle_41" class="st10" points="1764.6,530.2 1772.5,501.9 1775.4,502.6 1767.4,530.9 									"/>
								</g>
								<g id="Group_48">
									<line id="Line_10" class="st2" x1="1785.9" y1="505" x2="1783.6" y2="537.2"/>
									<polygon id="Rectangle_42" class="st10" points="1782.1,537.1 1784.4,504.9 1787.4,505.1 1785.1,537.3 									"/>
								</g>
								<g id="Group_49">
									<line id="Line_11" class="st2" x1="1789" y1="498" x2="1796.6" y2="529.1"/>
									<polygon id="Rectangle_43" class="st10" points="1787.6,498.3 1790.5,497.7 1798.2,528.8 1795.3,529.5 									"/>
								</g>
								<g id="Group_50">
									<line id="Line_12" class="st2" x1="1802.4" y1="502" x2="1810.2" y2="533.2"/>
									<polygon id="Rectangle_44" class="st10" points="1801,502.3 1803.9,501.7 1811.6,532.8 1808.7,533.5 									"/>
								</g>
								<path id="Path_80" class="st18" d="M1770.3,465c-8.8,5.4-5.2,18.9-4.2,26.6c0.9,6.8,3.7,9.7,13.6,12.8
									c9.4,3,26,0.9,26.3-2.1c1-8.7-6.4-5.3-10.2-12.4c-4.2-8.4,2.4-13.6-1.7-20.5C1790.5,463.4,1777.4,460.6,1770.3,465z"/>
								<path id="Path_81" class="st19" d="M1773.3,464.1c-4,3.8-3.3,15.8-2.4,23c0.8,6.5,2.7,10.5,11.4,13.4
									c8.4,2.7,22.8,1.1,23.1-1.7c0.6-5.4-6.1-3.1-9.3-10c-4.2-9.2,1.8-13.8-1.7-20.2C1791.2,463,1778.5,459.5,1773.3,464.1z"/>
							</g>
							<g id="Group_56-2">
								<g id="Group_54">
									<polygon id="Rectangle_47" class="st10" points="1919.2,528 1927.1,497 1930,497.6 1922.1,528.7 									"/>
								</g>
								<g id="Group_55">
									<line id="Line_16" class="st2" x1="1915" y1="501.2" x2="1907" y2="532.2"/>
									<polygon id="Rectangle_48" class="st10" points="1905.6,531.8 1913.6,500.7 1916.5,501.4 1908.6,532.5 									"/>
								</g>
								<path id="Path_82-2" class="st18" d="M1947.6,464.5c8.8,5.5,5.2,18.9,4.1,26.6c-1.1,6.8-3.9,9.7-13.6,12.6
									c-9.4,2.8-26,0.6-26.3-2.4c-0.9-8.7,6.6-5.1,10.2-12.4c4.3-8.4-2.2-13.6,1.8-20.3C1927.4,462.7,1940.3,460,1947.6,464.5z"/>
								<path id="Path_83-2" class="st19" d="M1944.5,463.7c4,3.8,3.1,15.8,2.2,23c-0.9,6.5-2.8,10.5-11.5,13.2
									c-8.4,2.7-22.8,0.9-23.1-2c-0.6-5.4,6.3-3,9.3-9.8c4.2-9.2-1.8-13.8,1.8-20.2C1926.5,462.4,1939.4,458.9,1944.5,463.7z"/>
							</g>
							<g id="Group_57">
								<path id="Path_84" class="st43" d="M1825.6,526.3l11.2,2c0.3,0,0.4,0.3,0.3,0.4c0,0.2-0.1,0.3-0.3,0.3l-11.1,1.1
									c-0.6,0-1.1-0.4-1.2-1v-2c0-0.6,0.4-1,1-1C1825.5,526.3,1825.5,526.3,1825.6,526.3z"/>
								<path id="Path_85" class="st44" d="M1831.2,510.5c-0.2,6-0.6,16.3-3.9,17.1c-0.9,0-1.7-0.3-2.4-0.9
									c-1.8-1.3-3.4-4.1-3.3-16.1c0.1-4.1,0.4-8.2,0.9-12.2c-5.4,0.7-10.9,1-16.3,1c-10.5-0.1-15.9-0.3-18.9-4
									c-3.2-3.8-3.6-11.1,0-14.1c3-2.6,7.6-1.3,8.4-1.1c2.5,0.7,4.7,2.1,6.3,4.1c2.4,0.4,4.8,0.9,7.3,1.1c7,1.1,13.9,2.4,20.7,3.8
									C1831,496.3,1831.4,503.4,1831.2,510.5z"/>
								<path id="Path_86" class="st45" d="M1838,466.7c0.2,2-5.5,4-12.9,4.5c-6.1,0.4-11.4-0.3-12.9-1.7c-0.3-0.3-0.8-0.6-1-0.9
									c-2.5-1.6-4.9-3.4-7-5.5c-5.7-5.4-9-11.2-7.3-12.8s7.8,1.6,13.5,7c2,1.9,3.8,4,5.4,6.3c2.8,0.1,7,0.7,9,0.6
									C1831.8,463.6,1837.7,464.7,1838,466.7z"/>
								<path id="Path_87" class="st46" d="M1808.4,441.5l-1.6,0.4c-0.7,2.3-2.8,3.9-5.2,4c-0.5,0-0.9,0-1.3-0.1v0.1
									c-0.3-0.3-0.7-0.5-1.1-0.7c-1.3-0.9-2.6-1.3-2.7-1s0.8,1.1,1.9,2c0.5,0.3,1,0.6,1.5,0.9l-0.2,0.4c0.3,0.3,0.6,0.6,0.8,1l0,0
									c0.5,0.7,0.7,1.6,0.6,2.4l0,0c0,0.5-0.3,0.9-0.8,1.1c-0.1,0.1-0.3,0.2-0.4,0.1c-0.9,0-1.8-0.4-2.4-1.1l0,0l-0.2-0.1l0,0
									l-1.3-0.3c-0.6-0.8-1.2-1.6-1.9-2.3l-0.9-0.9v-0.3c0.2-0.7,1.1-4.8,1.1-5l1.6-0.9l0.6-0.3l0.9-0.6l0.4-0.6
									c-0.3-0.4-0.4-0.8-0.4-1.3c0-1,0.6-1.7,1.2-1.7c0.3,0,0.6,0.2,0.8,0.4v1.3h2.1v-2.1c1.8-0.2,3.6-0.4,5.4-0.9
									c0.4,1,0.6,2.1,0.6,3.1L1808.4,441.5z"/>
								<path id="Path_88" class="st10" d="M1809.1,434.7c-0.7,0.5-1.5,0.8-2.4,1c-1.8,0.4-3.6,0.7-5.4,0.9v2h-2.1v-1.3
									c-0.1-0.3-0.4-0.4-0.8-0.4c-0.8,0-1.2,0.9-1.2,1.7c0,0.5,0.2,0.9,0.4,1.3l-0.4,0.6l-0.9,0.6l-0.6,0.3l-1.6,0.9l-0.2,0.1
									c0,0-3.3-8.4,0.8-11.1s14.4-0.1,15.6-2.3S1811.7,433.1,1809.1,434.7z"/>
								
									<ellipse id="Ellipse_7" transform="matrix(0.5246 -0.8514 0.8514 0.5246 484.9553 1745.7592)" class="st47" cx="1805.6" cy="438.7" rx="0.9" ry="0.3"/>
								<path id="Path_89" class="st47" d="M1804.2,442.4c0,0.8,0.7,1.4,1.5,1.4c0,0,0,0,0,0L1804.2,442.4z"/>
								<path id="Path_90" class="st48" d="M1800,445.9l-0.2,1c-0.4-0.3-1-0.6-1.5-0.9c-1.3-0.9-2.2-1.7-1.9-2
									c0.2-0.3,1.3,0.1,2.7,1C1799.3,445.4,1799.6,445.7,1800,445.9z"/>
								<path id="Path_91" class="st49" d="M1801.8,451.1c-0.1,0.6-0.5,1.1-1,1.4c-1.7,0.9-4.5-1.6-4.7-1.7l-0.3-0.3
									c-0.8-0.8-1.6-1.6-2.4-2.3c-0.3-0.3-0.4,0-0.6-0.3c-0.1-0.1-0.1-0.2-0.2-0.3c0,0,0.2-0.3,0.3-0.3s0.4,0.1,0.6,0.3
									c1.1,0.7,2,1.6,2.8,2.5l0.6,0.6l0.2,0.1l0,0c0.7,0.6,1.6,1,2.6,1.1c0.3,0,0.4,0,0.6-0.1c0.4-0.3,0.7-0.8,0.6-1.3l0,0
									c0-0.4,0-0.8-0.2-1.1l-0.9-1.7c0,0,0,0.1,0.4,0.4c0.3,0.3,0.6,0.6,0.9,1C1801.8,449.7,1802,450.4,1801.8,451.1z"/>
								<path id="Path_92" class="st50" d="M1812.9,528.8l11.1,2.3c0.3,0,0.4,0.3,0.3,0.4c0,0.1-0.2,0.3-0.4,0.3l-11.1,0.9
									c-0.6,0-1.1-0.4-1.2-1v-2c0-0.6,0.4-1,1-1C1812.7,528.8,1812.8,528.8,1812.9,528.8z"/>
								<path id="Path_93" class="st46" d="M1837.7,461.1c-1.2,0-5.1,2.6-3.3,5.4c1.3,2.1,5.5,2.1,8.2,0.6c2.4-1.4,3.6-4.3,3-4.7
									c-1.7-1.6-4.9,2.7-7.8,2C1836,463.9,1839.7,461.1,1837.7,461.1z"/>
								<path id="Path_94" class="st51" d="M1824.4,511.5c-0.2,6.1-3.4,17.6-6.9,18.3c-0.9,0.1-3.2,0.4-3.8,0
									c-1.9-1.3-2.8-5.7,0-17.5c0.9-3.8,2.8-7.8,3.4-12.8c-5.3,0.6-10.6,0.8-15.9,0.7c-11.2-0.1-16.9-0.3-20.1-4
									c-3.4-4-3.7-11.2,0-14.2c3.1-2.6,8.1-1.3,9-1.1c2.6,0.7,4.9,2.1,6.7,4.1c2.6,0.4,5.1,0.9,7.8,1.3c7.5,1.1,12.6,2.7,19.8,4.1
									C1825.8,499.4,1824.6,506.4,1824.4,511.5z"/>
								<path id="Path_95" class="st52" d="M1793.3,447.4c-1-0.3-2.2,2.1-3.9,4.7c-2.6,3.8-6.9,9.7-7.8,13.6c-1.2,5.5-4.9,23-3.2,23
									c5.4,0,15.6-4.5,22.3-2.7c2.1,0.6,6.6-33.1,0.4-37.4c-0.2,0,1,2.4-0.3,3.6s-2.2,0.4-3.9-1
									C1794.6,449.2,1793.9,447.6,1793.3,447.4z"/>
								<path id="Path_96" class="st52" d="M1828.3,475.5c0.2,2-5.5,4-12.9,4.5c-3.5,0.3-7,0.1-10.5-0.6c-2.4-0.1-6.6-3.7-10.2-8.7
									c-4.2-6-6-11.8-4-13.1s7,2.6,11.2,8.5c1.6,2.3,3,4.9,4,7.5c3-0.7,7.3-0.6,8.7-0.7C1822.2,472.4,1828.2,473.5,1828.3,475.5z"
									/>
								<path id="Path_97" class="st46" d="M1827.6,469c-1.2,0-5.1,2.6-3.3,5.4c1.3,2.1,5.5,2.1,8.2,0.6c2.4-1.4,3.6-4.3,3-4.7
									c-1.7-1.6-5,2.7-7.8,2C1825.8,471.7,1829.4,469,1827.6,469z"/>
							</g>
							<g id="Group_58">
								<path id="Path_98" class="st10" d="M1910.5,434.5c0.3,2.7,2.6,3.4,5.2,6.2c2.8,2.9,0.8,5.8,0.9,9.5c0.3,6.4-1.5,7.2-0.3,8
									c1.8,1.1,10.3-1.1,12.1-6.5c1.5-4.3-0.9-8.2-3.4-13.6c-2-4.1-3-6.5-5.7-7.4C1915,429.2,1910.2,432.2,1910.5,434.5z"/>
								<path id="Path_99" class="st43" d="M1893.7,525.3l-11.2,2c-0.3,0-0.4,0.3-0.3,0.4c0,0.2,0.1,0.3,0.3,0.3l11.1,1.1
									c0.6,0,1.1-0.4,1.2-1v-2c0-0.6-0.4-1-1-1C1893.9,525.3,1893.9,525.3,1893.7,525.3z"/>
								<path id="Path_100" class="st10" d="M1889.1,509.7c0.2,6,0.3,16.4,3.4,17.1c0.9,0.1,1-0.4,1.8-0.9c1.8-1.3,2-3.1,1.8-15.1
									c0-3.1,0.3-11.1-0.3-16.1c3.9,0.6,10.5,4,17.2,3.8c10.5-0.1,15.9-0.3,18.9-4s3.6-11.1,0-14.1c-3-2.6-7.6-1.3-8.4-1.1
									c-2.5,0.7-4.7,2.1-6.3,4.1c-2.4,0.4-4.8,0.9-7.3,1.1c-7,1.1-12.6,2.4-19.5,3.8C1889.5,495.5,1889.1,502.6,1889.1,509.7z"/>
								<path id="Path_101" class="st53" d="M1887.4,467.7c-0.2,1.4,3.6,2.3,9.6,1.3c3.6-0.6,7.1-1.8,10.3-3.5
									c0.3-0.2,0.6-0.4,0.9-0.6c2.1-1.1,4.1-2.5,6-4c4.8-3.8,7.6-8,6.1-9.1s-2.1-0.6-9.1,5c-1.9,1.4-5.2,3.7-6.3,5.1
									c-2.5,0.6-5.2,2.1-7.5,3.3C1893.9,466.7,1887.6,466.3,1887.4,467.7z"/>
								<path id="Path_102" class="st46" d="M1911,441l1.7,0.4c0.7,2.3,2.8,3.9,5.2,4c0.5,0,0.9,0,1.3-0.1v0.1
									c0.3-0.3,0.6-0.5,1-0.7c1.3-0.9,2.5-1.3,2.7-1s-0.8,1.1-2,2c-0.5,0.3-1,0.6-1.5,0.9l0.2,0.4c-0.3,0.3-0.6,0.6-0.8,1l0,0
									c-0.5,0.7-0.7,1.6-0.6,2.4l0,0c0,0.5,0.3,0.9,0.8,1.1c0.1,0.1,0.3,0.2,0.4,0.1c0.9,0,1.8-0.4,2.4-1.1l0,0l0.2-0.1l0,0
									l1.3-0.3c0.6-0.8,1.3-1.6,1.9-2.3l0.9-0.9v-0.3c-0.2-0.7-1-4.8-1-5l-1.7-0.9l-0.6-0.3l-0.9-0.6l-0.4-0.6
									c0.3-0.4,0.4-0.8,0.4-1.3c0-1-0.6-1.7-1.2-1.7c-0.3,0-0.6,0.2-0.8,0.4v1.3h-2.1v-2c-1.8-0.1-3.6-0.4-5.4-0.9
									c-0.4,1-0.6,2.1-0.6,3.1L1911,441z"/>
								
									<ellipse id="Ellipse_8" transform="matrix(0.8497 -0.5273 0.5273 0.8497 56.6184 1074.837)" class="st47" cx="1913.7" cy="438.1" rx="0.3" ry="0.7"/>
								<path id="Path_103" class="st47" d="M1915.2,441.4c0,0.8-0.7,1.4-1.5,1.4c0,0,0,0,0,0L1915.2,441.4z"/>
								<path id="Path_104" class="st48" d="M1919.3,445.1l0.2,1c0.4-0.3,1-0.6,1.5-0.9c1.3-0.9,2.2-1.7,2-2s-1.3,0.1-2.7,1
									L1919.3,445.1z"/>
								<path id="Path_105" class="st49" d="M1917.5,450.4c0.1,0.6,0.5,1.1,1,1.4c1.7,0.9,4.3-1.6,4.5-1.7l0.3-0.3
									c0.6-0.8,1.3-1.6,1.9-2.3l0.9-0.9c0.1-0.1,0.1-0.2,0.2-0.3h-0.2c-0.3,0.1-0.5,0.3-0.8,0.4c-1,0.7-2,1.7-2.7,2.7l-0.6,0.6
									l-0.2,0.1l0,0c-0.7,0.6-1.5,1-2.4,1.1c-0.3,0-0.4,0-0.6-0.1c-0.4-0.3-0.6-0.8-0.6-1.3l0,0c0-0.4,0-0.8,0.2-1.1
									c0.3-0.6,0.7-1.2,1.2-1.7c-0.3,0.1-0.5,0.3-0.8,0.4c-0.3,0.3-0.6,0.6-0.9,1C1917.6,449,1917.4,449.7,1917.5,450.4z"/>
								<path id="Path_106" class="st50" d="M1906.5,527.8l-11.1,2.3c-0.3,0-0.4,0.3-0.3,0.4s0.2,0.3,0.4,0.3l11.1,0.8
									c0.6,0,1.1-0.4,1.2-1v-2c0-0.6-0.4-1-1-1C1906.6,527.8,1906.6,527.8,1906.5,527.8z"/>
								<path id="Path_107" class="st54" d="M1888.5,464.4c0.9,0,3.9,2,2.4,4.1c-1.1,1.6-4.2,1.6-6.1,0.4s-2.7-3.1-2.2-3.5
									c1.2-1.1,3.6,2.1,5.8,1.4C1889.8,466.4,1887,464.4,1888.5,464.4z"/>
								<path id="Path_108" class="st55" d="M1896,510.6c0.8,6.8,3.3,17.9,6.7,18.6c0.9,0.1,2.4,0.3,3-0.3c0.8-0.8,2-5.7-0.9-17.5
									c-0.9-3.8-1.2-9.2-1.9-14.2c5,0.9,10.1,1.3,15.1,1.3c11.2-0.1,16.9,0.6,20.1-3.1c3.4-4,3.7-11.2,0-14.2
									c-3.2-2.6-8.1-1.3-9-1.1c-2.6,0.7-4.9,2.1-6.7,4.1c-2.5,0.4-5.1,1.1-7.8,1.6c-7.5,1.1-11.7,2.4-18.9,3.8
									C1894.9,496.6,1895,503.7,1896,510.6z"/>
								<path id="Path_109" class="st56" d="M1926.1,446.5c1-0.3,2.2,2.1,3.9,4.7c2.5,3.8,6,13.8,6.3,17.6
									c0.9,10.1,6.3,18.9,4.5,18.9c-5.4,0-15.6-4.5-22.3-2.7c-1,0.3,5.7-9.5-0.9-17.8c-5.1-6.5-2-17.2,0.8-19c0.2,0-1.6,2-0.2,3.1
									c1.2,1,2.2,0.4,3.9-1C1924.9,448.4,1925.5,446.7,1926.1,446.5z"/>
								<path id="Path_110" class="st57" d="M1894.9,471.4c-0.2,1.4,4.5,3,10.5,3.3c3.4,0.3,7.2,0.6,9.3,0.1
									c1.9-0.1,4.5-3.3,7.3-6.8c3.4-4.4,4.9-8.7,3.3-9.5s-4.8,1.9-8.1,6.3c-1.5,2-3.1,3.7-4.2,5.4c-2.4,0-6,0.1-7,0.1
									C1899.9,469.7,1895.1,470,1894.9,471.4z"/>
								<path id="Path_111" class="st10" d="M1910.5,434.5c0.3,2.7,5.1,1.1,7.8,3.8c2.8,2.9,0.2,5.6,0.3,9.3
									c0.3,6.4-1.5,7.9-0.3,8.8c1.8,1.1,10.3-1.1,12.1-6.5c1.5-4.3-0.9-8.2-3.4-13.6c-1.9-4.1-3-6.5-5.7-7.4
									C1916.9,427.3,1910.2,432.2,1910.5,434.5z"/>
								<ellipse id="Ellipse_9" class="st58" cx="1889.2" cy="461.9" rx="11.5" ry="4.3"/>
								<path id="Path_112" class="st59" d="M1880.8,462.3c0-0.3,0.6-2.1,2-2.1s0.9,3.8,2,3.8s0.6-3,0.9-3s1.6,2.4,1.6,2.4"/>
								<path id="Path_113" class="st59" d="M1897.6,461.6c0.3,0.1,1.3,1.9,0.4,2.7s-3.7-1.7-4.3-1.1s2.1,2.3,1.8,2.5
									c-0.2,0.3-3-0.3-3-0.3"/>
								<path id="Path_114" class="st59" d="M1887.9,461.3c0.3-0.1,2.2-0.3,2.7,0.7s-3.3,2.4-2.8,3.3s3-0.7,3.2-0.4
									s-1.7,2.4-1.7,2.4"/>
								<path id="Path_115" class="st60" d="M1882.3,466.1c-0.2-0.3-0.6-2.1,0.4-2.7s2.8,2.8,3.7,2.4s-1.2-2.9-0.9-3
									s2.7,1.3,2.7,1.3"/>
								<path id="Path_116" class="st60" d="M1890.9,463.7c0.3,0,2.1,0.7,2.1,2c-0.2,1.1-4.2,0.6-4.2,1.4s3,0.7,3,1.1
									s-2.6,1.3-2.6,1.3"/>
								<path id="Path_117" class="st10" d="M1900.8,461.9c0,6.1-5.2,10.9-11.5,10.9c-6.2,0.2-11.4-4.7-11.5-10.9
									c0,1.7,5.2,3.1,11.5,3.1C1895.7,465,1900.8,463.6,1900.8,461.9z"/>
								<path id="Path_118" class="st46" d="M1893.9,467.1c1,0,4,2.1,2.6,4.3c-1,1.7-4.5,1.7-6.4,0.4s-2.8-3.4-2.4-3.7
									c1.3-1.3,3.9,2.1,6.1,1.6C1895.2,469.3,1892.4,467.1,1893.9,467.1z"/>
								<path id="Path_119" class="st59" d="M1884.6,460.8c-0.2-0.3-1-2-0.2-2.7c0.9-0.9,3.4,2.3,4.2,1.6s-1.7-2.6-1.5-2.7
									s2.8,0.7,2.8,0.7"/>
								<path id="Path_120" class="st59" d="M1891.5,459.8c0-0.3,0.4-2.1,1.6-2.3s1.3,3.7,2.2,3.7s0.3-3,0.6-3s1.8,2.1,1.8,2.1"/>
								<path id="Path_121" class="st60" d="M1890.1,463.3c-0.2-0.3-0.6-2.1,0.4-2.7s2.8,2.8,3.7,2.4s-1.2-2.8-0.9-3
									s2.7,1.3,2.7,1.3"/>
								<path id="Path_122" class="st60" d="M1883.1,458.5c0.2-0.3,1.7-1.6,2.7-1s-1.2,3.8-0.3,4.3c0.7,0.4,1.9-2.3,2.2-2.1
									s0.2,2.8,0.2,2.8"/>
							</g>
						</g>
						<ellipse id="Ellipse_10" class="st34" cx="1863.6" cy="361.1" rx="19" ry="2.3"/>
						<g id="Group_60">
							<rect id="Rectangle_49" x="1859.6" y="346.7" class="st35" width="6.4" height="7.5"/>
							<path id="Path_123" class="st10" d="M1883.7,358.8v4.7c0-0.9-1-1.7-2.8-2.3c-3.6-1.4-10.3-2.3-18-2.3s-14.4,1-18,2.3
								c-1.8,0.7-2.7,1.4-2.7,2.3v-4.7c0-2.6,9.3-4.7,20.7-4.7C1874.4,354.1,1883.7,356.2,1883.7,358.8z"/>
							<path id="Path_124" class="st36" d="M1883.7,363.5c0,2.5-9.3,4.7-20.7,4.7s-20.7-2.1-20.7-4.7c0-0.9,1.1-1.7,2.7-2.3
								c3.6-1.4,10.3-2.3,18-2.3s14.4,1,18,2.3C1882.6,361.8,1883.7,362.6,1883.7,363.5z"/>
						</g>
					</g>
				</g>
			</g>
		</g>
	</g>
	<g id="Group_67-2" class="st11">
		<rect id="Rectangle_51-2" x="1703.7" y="358.2" class="st12" width="285.9" height="171.3"/>
	</g>
</g>
<polygon class="st21" points="501.2,901.9 604.8,901.9 616.2,860.6 512.6,860.6 "/>
<rect x="536.5" y="901.9" class="st25" width="103.6" height="96.8"/>
<rect x="501.2" y="901.9" class="st24" width="35.3" height="96.8"/>
<polygon class="st25" points="501.2,901.9 536.5,901.9 564.1,885 528.8,885 "/>
<polygon class="st24" points="536.5,901.9 640.1,901.9 659.8,881.5 556.2,881.5 "/>
<rect x="598.1" y="901.9" class="st26" width="16" height="96.8"/>
<polygon class="st27" points="598.1,901.9 614.1,901.9 628.9,881.2 612.9,881.2 "/>
<g>
	<rect x="1067.2" y="805.6" class="st10" width="12.9" height="175.8"/>
	<rect x="869.9" y="805.6" class="st10" width="12.9" height="175.8"/>
	<rect x="1099.5" y="893.4" class="st10" width="12.9" height="87.9"/>
	<rect x="821.8" y="893.4" class="st10" width="12.9" height="87.9"/>
	<rect x="797.3" y="813.6" class="st24" width="342.7" height="17.8"/>
	<rect x="797.3" y="840.8" class="st24" width="342.7" height="17.8"/>
	<rect x="797.3" y="868" class="st24" width="342.7" height="17.8"/>
	<rect x="781.1" y="893.1" class="st24" width="387.5" height="12.6"/>
</g>
<path class="st61" d="M281.7,966.9c-11.2-1.2-26.8,1.2-27.7,9.1c-1.6,13-4.7,26.3-0.2,26.1c6.6-0.3,136.2,5,146.2,2.4
	s7.2-25.6,2.8-33.2C400,966.4,299.9,968.9,281.7,966.9z"/>
<path class="st61" d="M420.3,968.5c-3.4-0.1-6.7,1.5-8.8,4.2c-4.4,5.8-3.2,20.4,1.3,27.8c5.5,9.1,64.5,6.6,89.3,5.7
	c31.8-1.2,87,3.2,98.1-2.9s0-34-14.4-34.8S420.3,968.6,420.3,968.5L420.3,968.5z"/>
<path class="st61" d="M1128.8,963.6c8-0.1,15.2,3.3,17.8,8.6c4.8,9.5,12.6,26,6.5,29.7c-8.8,5.3-80.2-0.4-89,1.9s-97.8,4.6-101.1,0
	s-11.8-33.9,1.5-35.4s90.5,0.9,98-1.4C1068,965.2,1105.6,963.9,1128.8,963.6z"/>
<path class="st61" d="M925.6,966.8c11.2-1.2,26.8,1.2,27.7,9.1c1.6,13,7,29.4,2.5,29.2c-6.6-0.3-138.6,1.9-148.5-0.7
	s-7.2-25.6-2.8-33.2C807.3,966.4,907.5,968.9,925.6,966.8z"/>
<path class="st61" d="M788,968.5c3.4-0.1,6.7,1.5,8.8,4.2c4.3,5.8,3.2,20.4-1.3,27.8c-5.5,9.1-64.5,6.6-89.3,5.6
	c-31.8-1.2-76.8,5-87.9-1.1s-18.3-36.1-4-36.9S788,968.5,788,968.5L788,968.5z"/>
<path class="st61" d="M1278.7,963.7c11.2-1.2,26.8,1.2,27.7,9.1c1.6,13,7,29.4,2.5,29.2c-6.6-0.3-138.6,1.9-148.6-0.7
	s-7.2-25.6-2.7-33.2C1160.4,963.3,1260.6,965.7,1278.7,963.7z"/>
<path class="st61" d="M1333.2,966.5c-7.9-0.8-17.8,1.3-20.4,6.5c-4.8,9.5-3.9,23,2.2,26.7c8.8,5.3,80.2-0.4,89,1.9s97.8,4.6,101.1,0
	s11.4-32.7-1.5-35.4c-8-1.7-57.5-3-87.9-0.6C1391.8,967.7,1352.4,968.5,1333.2,966.5z"/>
<path class="st61" d="M1543.4,964.9c-11.2-1.2-26.8,1.2-27.7,9.1c-1.6,13-4.7,26.3-0.2,26.1c6.6-0.3,136.2,5,146.2,2.4
	s7.2-25.6,2.7-33.2C1661.7,964.5,1561.5,967,1543.4,964.9z"/>
<path class="st61" d="M1683,966.6c-3.4-0.1-6.7,1.5-8.8,4.2c-4.3,5.8-3.2,20.4,1.3,27.8c5.5,9.1,64.5,6.6,89.3,5.7
	c31.8-1.2,87,3.2,98.1-2.9s0-34-14.4-34.8S1683,966.6,1683,966.6L1683,966.6z"/>
<path class="st61" d="M1894.4,963.6c-8-0.1-15.2,3.3-17.8,8.6c-4.8,9.5-12.6,26-6.5,29.7c8.8,5.3,80.2-0.4,89,1.9s102.8,4.6,106.1,0
	s6.8-33.9-6.5-35.4s-90.5,0.9-98-1.4C1955.2,965.2,1917.7,963.9,1894.4,963.6z"/>
<path class="st61" d="M-126.6,961.5c-8-0.1-15.2,3.3-17.8,8.6c-4.8,9.5-12.6,26-6.5,29.7c8.8,5.3,80.2-0.4,89,1.9s102.8,4.6,106.1,0
	s6.8-33.9-6.5-35.4s-90.5,0.9-98-1.4C-65.8,963.2-103.4,961.8-126.6,961.5z"/>
<path class="st61" d="M76.5,961.5c-8-0.1-15.2,3.3-17.8,8.6c-4.8,9.5-12.6,26-6.5,29.7c8.9,5.3,80.2-0.4,89,1.9s102.8,4.6,106.1,0
	s6.8-33.9-6.5-35.4s-90.5,0.9-98-1.4C137.3,963.2,99.8,961.8,76.5,961.5z"/>
</svg>
