<svg xmlns="http://www.w3.org/2000/svg" xmlns:xlink="http://www.w3.org/1999/xlink" viewBox="0 0 1920 1080"><defs><style>.cls-1{opacity:0.3;}.cls-2{fill:#224b80;}.cls-3{fill:#fda2a2;}.cls-4,.cls-8{fill:#8fc0ff;}.cls-5{opacity:0.5;}.cls-6{fill:#92b3d6;}.cls-7{fill:url(#linear-gradient);}.cls-12,.cls-8{opacity:0.8;}.cls-9{fill:#fc6464;}.cls-10,.cls-11,.cls-12{fill:#999;}.cls-11{opacity:0.85;}</style><linearGradient id="linear-gradient" x1="1277.5" y1="1282" x2="1277.5" y2="1001" gradientUnits="userSpaceOnUse"><stop offset="0.42" stop-color="#fff"/><stop offset="0.53" stop-color="#fff" stop-opacity="0.99"/><stop offset="0.6" stop-color="#fff" stop-opacity="0.95"/><stop offset="0.67" stop-color="#fff" stop-opacity="0.89"/><stop offset="0.73" stop-color="#fff" stop-opacity="0.8"/><stop offset="0.79" stop-color="#fff" stop-opacity="0.69"/><stop offset="0.85" stop-color="#fff" stop-opacity="0.54"/><stop offset="0.9" stop-color="#fff" stop-opacity="0.38"/><stop offset="0.96" stop-color="#fff" stop-opacity="0.19"/><stop offset="1" stop-color="#fff" stop-opacity="0"/></linearGradient></defs><title>landing page to animate-v2 new color boat repositioned</title><g id="background"><g id="Group_80" data-name="Group 80" class="cls-1"><g id="Group_74" data-name="Group 74"><g id="Group_72" data-name="Group 72"><rect id="Rectangle_167" data-name="Rectangle 167" class="cls-2" x="1061.49" y="906.82" width="65.26" height="114.08"/><rect id="Rectangle_168" data-name="Rectangle 168" class="cls-2" x="1134.43" y="895.49" width="65.26" height="114.08"/><rect id="Rectangle_169" data-name="Rectangle 169" class="cls-2" x="1153.08" y="884.16" width="65.26" height="114.08"/><rect id="Rectangle_170" data-name="Rectangle 170" class="cls-2" x="1192.01" y="830.76" width="43.32" height="167.48"/><rect id="Rectangle_171" data-name="Rectangle 171" class="cls-2" x="1192.01" y="810.53" width="36.19" height="187.71"/><rect id="Rectangle_172" data-name="Rectangle 172" class="cls-2" x="1240.82" y="884.16" width="43.32" height="167.48"/><rect id="Rectangle_173" data-name="Rectangle 173" class="cls-2" x="1262.21" y="780.6" width="64.16" height="217.64"/><rect id="Rectangle_174" data-name="Rectangle 174" class="cls-2" x="1270.43" y="768.46" width="49.36" height="229.78"/><rect id="Rectangle_175" data-name="Rectangle 175" class="cls-2" x="1280.31" y="757.14" width="31.26" height="241.11"/><rect id="Rectangle_176" data-name="Rectangle 176" class="cls-2" x="1343.37" y="695.64" width="43.32" height="311.5"/><path id="Path_53" data-name="Path 53" class="cls-2" d="M1386.7,695.64l63.61,17.48v294H1386.7Z"/><path id="Path_54" data-name="Path 54" class="cls-2" d="M1372.3,616.39l13.16,63.07h-35.64Z"/><rect id="Rectangle_177" data-name="Rectangle 177" class="cls-2" x="1349.95" y="679.46" width="35.65" height="27.51"/><path id="Path_55" data-name="Path 55" class="cls-2" d="M1385.6,679.46l59,16.57v27.51l-59-16.57Z"/><path id="Path_56" data-name="Path 56" class="cls-2" d="M1372.14,616.36l54.08,21.58,18.38,58.14-59.18-16.65Z"/><rect id="Rectangle_178" data-name="Rectangle 178" class="cls-2" x="1450.31" y="838.04" width="49.9" height="193.37"/><rect id="Rectangle_179" data-name="Rectangle 179" class="cls-2" x="1497.47" y="897.92" width="43.87" height="62.3"/><rect id="Rectangle_180" data-name="Rectangle 180" class="cls-2" x="1507.34" y="876.07" width="12.07" height="62.3"/><rect id="Rectangle_181" data-name="Rectangle 181" class="cls-2" x="1526.54" y="687.55" width="110.23" height="272.66"/><rect id="Rectangle_182" data-name="Rectangle 182" class="cls-2" x="1526.54" y="665.71" width="33.45" height="294.51"/><path id="Path_57" data-name="Path 57" class="cls-2" d="M1552.07,554l52.58,14.59,32.13,119H1608l-81.55-21.87Z"/><rect id="Rectangle_183" data-name="Rectangle 183" class="cls-2" x="1526.54" y="665.71" width="102" height="42.07"/><path id="Path_58" data-name="Path 58" class="cls-2" d="M1631.74,665.64l5.08,22.15Z"/><rect id="Rectangle_184" data-name="Rectangle 184" class="cls-2" x="1526.54" y="893.87" width="590.46" height="66.35"/><rect id="Rectangle_185" data-name="Rectangle 185" class="cls-2" x="1643.35" y="878.5" width="18.65" height="66.35"/><rect id="Rectangle_186" data-name="Rectangle 186" class="cls-2" x="1669.67" y="866.36" width="11.52" height="66.35"/><rect id="Rectangle_187" data-name="Rectangle 187" class="cls-2" x="1685.57" y="840.47" width="44.42" height="66.35"/><rect id="Rectangle_188" data-name="Rectangle 188" class="cls-2" x="1689.96" y="845.33" width="44.42" height="66.35"/><rect id="Rectangle_189" data-name="Rectangle 189" class="cls-2" x="1892.9" y="887.4" width="8.23" height="66.35"/><rect id="Rectangle_190" data-name="Rectangle 190" class="cls-2" x="1911.55" y="887.4" width="10.97" height="66.35"/><rect id="Rectangle_164" data-name="Rectangle 164" class="cls-2" x="1038.48" y="999.86" width="1768.02" height="68.77"/><rect id="Rectangle_165" data-name="Rectangle 165" class="cls-2" x="1060.4" y="960.22" width="1734.04" height="108.42"/><rect id="Rectangle_227" data-name="Rectangle 227" class="cls-2" x="1228.21" y="895.49" width="43.32" height="147.25"/><rect id="Rectangle_228" data-name="Rectangle 228" class="cls-2" x="1319.79" y="941.61" width="43.32" height="50.16"/></g><g id="Group_63" data-name="Group 63"><g id="Group_61" data-name="Group 61"><g id="Group_60" data-name="Group 60"><g id="Group_58" data-name="Group 58"><path id="Path_142" data-name="Path 142" class="cls-2" d="M1962,932.78V830.55h-11.59V763.46h-47.49v67.09H1889l-8.47,19.36L1811.41,800V932.78Z"/><path id="Path_145" data-name="Path 145" class="cls-2" d="M1926.45,727.76c13.25,0,24,15.85,24,35.39s-10.74,35.4-24,35.4c-13.11-.21-23.62-16.06-23.48-35.4C1902.83,743.82,1913.34,728,1926.45,727.76Z"/><path id="Path_143" data-name="Path 143" class="cls-2" d="M1917.26,715.72h18.37v33.13h-18.37Z"/><ellipse id="Ellipse_3" data-name="Ellipse 3" class="cls-2" cx="1926.45" cy="715.72" rx="9.19" ry="13.55"/></g></g><rect id="Rectangle_517" data-name="Rectangle 517" class="cls-2" x="1807.02" y="777.46" width="9.19" height="43.67"/></g><g id="Group_62" data-name="Group 62"><g id="Group_60-2" data-name="Group 60-2"><g id="Group_58-2" data-name="Group 58-2"><path id="Path_142-2" data-name="Path 142-2" class="cls-2" d="M1661,932.78V830.55h11.59V763.46h47.49v67.09H1734l8.47,19.36L1811.64,800V932.78Z"/><path id="Path_145-2" data-name="Path 145-2" class="cls-2" d="M1696.61,727.76c-13.25,0-24,15.85-24,35.39s10.74,35.4,24,35.4c13.1-.21,23.61-16.06,23.47-35.4C1720.22,743.82,1709.71,728,1696.61,727.76Z"/><path id="Path_143-2" data-name="Path 143-2" class="cls-2" d="M1705.79,715.72h-18.37v33.13h18.37Z"/><ellipse id="Ellipse_3-2" data-name="Ellipse 3-2" class="cls-2" cx="1696.61" cy="715.72" rx="9.19" ry="13.55"/><path id="Path_144-2" data-name="Path 144-2" class="cls-2" d="M1700.69,690.11h-7.22v33.13h7.22Z"/></g></g><rect id="Rectangle_517-2" data-name="Rectangle 517-2" class="cls-2" x="1806.85" y="777.46" width="9.19" height="43.67"/></g></g></g><g id="Group_75" data-name="Group 75"><g id="Group_73" data-name="Group 73"><g id="Group_76" data-name="Group 76"><rect id="Rectangle_521" data-name="Rectangle 521" class="cls-3" x="1787.02" y="901.57" width="44.21" height="26.5"/><rect id="Rectangle_522" data-name="Rectangle 522" class="cls-3" x="1836.08" y="901.57" width="24.14" height="26.5"/><path id="Path_148" data-name="Path 148" class="cls-3" d="M1787,846.55s6.61-6,22.19-6.07,22,6.07,22,6.07v48.83H1787Z"/><rect id="Rectangle_523" data-name="Rectangle 523" class="cls-3" x="1758.02" y="901.57" width="23.59" height="26.5"/><path id="Path_149" data-name="Path 149" class="cls-3" d="M1758,868.88a103.3,103.3,0,0,1,23.59-18.8v45.3H1758Z"/><path id="Path_150" data-name="Path 150" class="cls-3" d="M1860.22,868.88a98.58,98.58,0,0,0-24.14-19.81v46.31h24.14Z"/></g><path id="Subtraction_4" data-name="Subtraction 4" class="cls-3" d="M1692.5,748.08c3.5.07,6.81,2.4,9,6.36a32.17,32.17,0,0,1,4,15.46h0v17.81h-13.23V748.08Zm-4,1.06h0v38.57h-9.1V769.9h0a34.09,34.09,0,0,1,2.71-13,16,16,0,0,1,6.38-7.78Zm3.77,45.68h13.23v27.82h-13.23Zm-12.87,0h9.11v27.82h-9.11V794.82Z"/><path id="Subtraction_5" data-name="Subtraction 5" class="cls-3" d="M1692.6,840c4.35.09,8.45,3,11.24,7.9a40,40,0,0,1,5,19.2h0V889.2h-16.43V840Zm-4.9,1.31v47.9h-11.31V867.09h0a42.6,42.6,0,0,1,3.37-16.13,19.89,19.89,0,0,1,7.93-9.66Zm4.67,56.73h16.43v34.55h-16.43V898Zm-16,0h11.3v34.55h-11.3V898Z"/><path id="Subtraction_6" data-name="Subtraction 6" class="cls-3" d="M1923.19,748.08c3.5.07,6.81,2.4,9.06,6.36a32.17,32.17,0,0,1,4,15.46h0v17.81H1923V748.08Zm-3.94,1.06h0v38.57h-9.11V769.9h0a34.28,34.28,0,0,1,2.71-13,16,16,0,0,1,6.39-7.78Zm3.77,45.68h13.23v27.82H1923Zm-12.88,0h9.11v27.82h-9.11V794.82Z"/><path id="Subtraction_7" data-name="Subtraction 7" class="cls-3" d="M1923.29,840c4.35.09,8.46,3,11.25,7.9a40,40,0,0,1,5,19.2h0V889.2h-16.43V840Zm-4.89,1.31v47.9h-11.31V867.09h0a42.41,42.41,0,0,1,3.37-16.13,19.92,19.92,0,0,1,7.92-9.66Zm4.67,56.73h16.43v34.55h-16.43V898Zm-16,0h11.31v34.55h-11.31V898Z"/></g><rect id="Rectangle_230" data-name="Rectangle 230" class="cls-3" x="1059.77" y="913.52" width="43.87" height="92.24"/><rect id="Rectangle_231" data-name="Rectangle 231" class="cls-3" x="1081.71" y="1021.93" width="68" height="24.27"/><rect id="Rectangle_232" data-name="Rectangle 232" class="cls-3" x="1176.58" y="1027.6" width="6.58" height="38.03"/><rect id="Rectangle_233" data-name="Rectangle 233" class="cls-3" x="1210.03" y="1039.73" width="37.29" height="12.95"/><rect id="Rectangle_234" data-name="Rectangle 234" class="cls-3" x="1250.07" y="1008.99" width="13.16" height="38.03"/><rect id="Rectangle_235" data-name="Rectangle 235" class="cls-3" x="1191.39" y="816.42" width="18.65" height="157.77"/><rect id="Rectangle_236" data-name="Rectangle 236" class="cls-3" x="1191.39" y="873.87" width="28.52" height="21.85"/><rect id="Rectangle_237" data-name="Rectangle 237" class="cls-3" x="1196.87" y="884.39" width="28.52" height="11.33"/><rect id="Rectangle_238" data-name="Rectangle 238" class="cls-3" x="1191.39" y="903.8" width="28.52" height="4.86"/><rect id="Rectangle_239" data-name="Rectangle 239" class="cls-3" x="1157.94" y="885.2" width="33.45" height="29.94"/><rect id="Rectangle_240" data-name="Rectangle 240" class="cls-3" x="1184.26" y="885.2" width="7.13" height="77.67"/><path id="Rectangle_241" data-name="Rectangle 241" class="cls-3" d="M1176,952.35h0c2.12,0,3.84,2.54,3.84,5.66v10.52c0,3.13-1.72,5.67-3.84,5.67h0c-2.12,0-3.83-2.54-3.83-5.67V958C1172.2,954.89,1173.91,952.35,1176,952.35Z"/><path id="Rectangle_242" data-name="Rectangle 242" class="cls-3" d="M1065.26,1027.6h0c3,0,5.48,3.62,5.48,8.09v8.09c0,4.47-2.45,8.09-5.48,8.09h0c-3,0-5.49-3.62-5.49-8.09v-8.09C1059.77,1031.22,1062.23,1027.6,1065.26,1027.6Z"/><rect id="Rectangle_243" data-name="Rectangle 243" class="cls-3" x="1147.37" y="903.8" width="23.03" height="55.83"/><rect id="Rectangle_244" data-name="Rectangle 244" class="cls-3" x="1142.03" y="903.8" width="23.03" height="4.86"/><rect id="Rectangle_246" data-name="Rectangle 246" class="cls-3" x="1159.58" y="950.73" width="9.87" height="27.51"/><rect id="Rectangle_247" data-name="Rectangle 247" class="cls-3" x="1127.78" y="983.91" width="41.68" height="14.56"/><rect id="Rectangle_249" data-name="Rectangle 249" class="cls-3" x="1133.81" y="1005.75" width="35.65" height="12.95"/><rect id="Rectangle_250" data-name="Rectangle 250" class="cls-3" x="1136.55" y="950.73" width="17.55" height="34.79"/><path id="Rectangle_252" data-name="Rectangle 252" class="cls-3" d="M1137.37,906.23h0c1.37,0,2.47,1.63,2.47,3.64v7.29c0,2-1.1,3.64-2.47,3.64h0c-1.36,0-2.46-1.63-2.46-3.64v-7.29C1134.91,907.86,1136,906.23,1137.37,906.23Z"/><rect id="Rectangle_253" data-name="Rectangle 253" class="cls-3" x="1228.13" y="894.91" width="35.1" height="89"/><rect id="Rectangle_254" data-name="Rectangle 254" class="cls-3" x="1221.55" y="972.58" width="28.52" height="29.13"/><rect id="Rectangle_255" data-name="Rectangle 255" class="cls-3" x="1259.94" y="780.82" width="4.94" height="203.08"/><rect id="Rectangle_256" data-name="Rectangle 256" class="cls-3" x="1304.91" y="974.2" width="49.36" height="9.71"/><rect id="Rectangle_257" data-name="Rectangle 257" class="cls-3" x="1323.55" y="934.55" width="49.36" height="50.97"/><rect id="Rectangle_258" data-name="Rectangle 258" class="cls-3" x="1343.3" y="692.63" width="40.03" height="292.89"/><rect id="Rectangle_259" data-name="Rectangle 259" class="cls-3" x="1369.07" y="705.58" width="14.26" height="292.89"/><path id="Path_68" data-name="Path 68" class="cls-3" d="M1546.07,618.49l9.07,57.24-30.63-.09Z"/><path id="Path_152" data-name="Path 152" class="cls-3" d="M1349.88,675.64l20.24-49.07,10.47,49.07v42.08h-30.71Z"/><rect id="Rectangle_261" data-name="Rectangle 261" class="cls-3" x="1293.94" y="1013.84" width="19.19" height="14.56"/><rect id="Rectangle_262" data-name="Rectangle 262" class="cls-3" x="1313.13" y="1022.74" width="97.62" height="5.66"/><rect id="Rectangle_263" data-name="Rectangle 263" class="cls-3" x="1407.46" y="985.52" width="26.32" height="25.08"/><rect id="Rectangle_264" data-name="Rectangle 264" class="cls-3" x="1439.27" y="985.52" width="4.39" height="25.08"/><rect id="Rectangle_265" data-name="Rectangle 265" class="cls-3" x="1299.97" y="780.82" width="9.87" height="203.08"/><rect id="Rectangle_266" data-name="Rectangle 266" class="cls-3" x="1259.94" y="780.82" width="49.9" height="5.66"/><rect id="Rectangle_267" data-name="Rectangle 267" class="cls-3" x="1259.94" y="792.15" width="49.9" height="5.66"/><rect id="Rectangle_268" data-name="Rectangle 268" class="cls-3" x="1259.94" y="803.48" width="49.9" height="5.66"/><rect id="Rectangle_269" data-name="Rectangle 269" class="cls-3" x="1259.94" y="814.81" width="49.9" height="5.66"/><rect id="Rectangle_270" data-name="Rectangle 270" class="cls-3" x="1259.94" y="826.13" width="49.9" height="5.66"/><rect id="Rectangle_271" data-name="Rectangle 271" class="cls-3" x="1259.94" y="837.46" width="49.9" height="5.66"/><rect id="Rectangle_272" data-name="Rectangle 272" class="cls-3" x="1259.94" y="848.79" width="49.9" height="5.66"/><rect id="Rectangle_273" data-name="Rectangle 273" class="cls-3" x="1259.94" y="860.12" width="49.9" height="5.66"/><rect id="Rectangle_274" data-name="Rectangle 274" class="cls-3" x="1259.94" y="871.44" width="49.9" height="5.66"/><rect id="Rectangle_275" data-name="Rectangle 275" class="cls-3" x="1259.94" y="882.77" width="49.9" height="5.66"/><rect id="Rectangle_276" data-name="Rectangle 276" class="cls-3" x="1259.94" y="894.1" width="49.9" height="5.66"/><rect id="Rectangle_277" data-name="Rectangle 277" class="cls-3" x="1259.94" y="905.42" width="49.9" height="5.66"/><rect id="Rectangle_278" data-name="Rectangle 278" class="cls-3" x="1259.94" y="916.75" width="49.9" height="5.66"/><rect id="Rectangle_279" data-name="Rectangle 279" class="cls-3" x="1259.94" y="928.08" width="49.9" height="5.66"/><rect id="Rectangle_280" data-name="Rectangle 280" class="cls-3" x="1259.94" y="939.41" width="49.9" height="5.66"/><rect id="Rectangle_281" data-name="Rectangle 281" class="cls-3" x="1259.94" y="950.73" width="49.9" height="5.66"/><rect id="Rectangle_282" data-name="Rectangle 282" class="cls-3" x="1259.94" y="962.06" width="49.9" height="5.66"/><rect id="Rectangle_283" data-name="Rectangle 283" class="cls-3" x="1259.94" y="973.39" width="49.9" height="5.66"/><path id="Path_70" data-name="Path 70" class="cls-3" d="M1390.62,655l5.58,2.95,5.48,25.07-5.34-2Z"/><path id="Path_71" data-name="Path 71" class="cls-3" d="M1400.53,659.8l5.55,3,5.47,25.09-5.25-1.9Z"/><path id="Path_72" data-name="Path 72" class="cls-3" d="M1410.76,664.75l5.73,2.91,5.46,24.92-5.43-1.67Z"/><path id="Path_73" data-name="Path 73" class="cls-3" d="M1421.18,670.41l5.73,2.91,5.42,24.65-5.39-1.4Z"/><path id="Path_74" data-name="Path 74" class="cls-3" d="M1386.27,676l5.52,2.87.1,29.43-5.52-2.87Z"/><path id="Path_75" data-name="Path 75" class="cls-3" d="M1396.34,679.93l5.33,3,.39,29.51-5.32-3Z"/><path id="Path_76" data-name="Path 76" class="cls-3" d="M1406.19,684.8l5.36,3,.41,29.73-5.36-3Z"/><path id="Path_77" data-name="Path 77" class="cls-3" d="M1416.44,689.73l5.5,2.84.06,29.19-5.5-2.83Z"/><path id="Path_78" data-name="Path 78" class="cls-3" d="M1427,695.31l5.26,2.63-.06,27.54-5.26-2.63Z"/><rect id="Rectangle_284" data-name="Rectangle 284" class="cls-3" x="1439.27" y="1028.41" width="24.13" height="25.08"/><rect id="Rectangle_285" data-name="Rectangle 285" class="cls-3" x="1478.75" y="1008.99" width="24.13" height="12.14"/><rect id="Rectangle_286" data-name="Rectangle 286" class="cls-3" x="1448.59" y="837.68" width="47.71" height="16.77"/><rect id="Rectangle_287" data-name="Rectangle 287" class="cls-3" x="1448.59" y="840.7" width="10.97" height="138.35"/><rect id="Rectangle_288" data-name="Rectangle 288" class="cls-3" x="1448.59" y="934.55" width="36.19" height="44.5"/><rect id="Rectangle_289" data-name="Rectangle 289" class="cls-3" x="1484.78" y="837.46" width="11.52" height="105.18"/><path id="Rectangle_290" data-name="Rectangle 290" class="cls-3" d="M1507.82,907h0c2.72,0,4.93,3.26,4.93,7.28v12.95c0,4-2.21,7.28-4.93,7.28h0c-2.73,0-4.94-3.26-4.94-7.28V914.32C1502.88,910.3,1505.09,907,1507.82,907Z"/><rect id="Rectangle_291" data-name="Rectangle 291" class="cls-3" x="1519.33" y="945.07" width="5.48" height="77.67"/><rect id="Rectangle_292" data-name="Rectangle 292" class="cls-3" x="1532.49" y="937.79" width="17.55" height="77.67"/><rect id="Rectangle_293" data-name="Rectangle 293" class="cls-3" x="1532.49" y="1004.94" width="88.84" height="10.52"/><rect id="Rectangle_294" data-name="Rectangle 294" class="cls-3" x="1581.85" y="976.62" width="6.03" height="38.84"/><rect id="Rectangle_296" data-name="Rectangle 296" class="cls-3" x="1543.46" y="907.04" width="14.26" height="50.16"/><path id="Path_79" data-name="Path 79" class="cls-3" d="M1523.17,662.7l27.6-108.42h7V942.64h-34.55Z"/><path id="Path_80" data-name="Path 80" class="cls-3" d="M1585.14,626.7l17.55,61.09V957.2h-17.55Z"/><path id="Path_82" data-name="Path 82" class="cls-3" d="M1571.49,564.87l4.29,1.3,34.93,119.74h-4.2Z"/><path id="Path_83" data-name="Path 83" class="cls-3" d="M1578,567.39l5,1.44,33.75,117.08h-4.2Z"/><path id="Path_84" data-name="Path 84" class="cls-3" d="M1585.45,570.26l4.32,1.63,33,114h-4.2Z"/><path id="Path_85" data-name="Path 85" class="cls-3" d="M1591.9,573.47l4.65,1.32,32.25,111.13h-4.19Z"/><path id="Rectangle_297" data-name="Rectangle 297" class="cls-3" d="M1645.19,903.8h0c1.67,0,3,2,3,4.45v19.42c0,2.46-1.35,4.45-3,4.45h0c-1.67,0-3-2-3-4.45V908.25C1642.17,905.8,1643.52,903.8,1645.19,903.8Z"/><rect id="Rectangle_300" data-name="Rectangle 300" class="cls-3" x="1656.43" y="983.91" width="78.27" height="11.33"/><path id="Rectangle_301" data-name="Rectangle 301" class="cls-3" d="M1828.66,949.27h14.26c3.94,0,7.13,4.71,7.13,10.51h0c0,5.81-3.19,10.52-7.13,10.52h-14.26c-3.94,0-7.13-4.71-7.13-10.52h0C1821.53,954,1824.72,949.27,1828.66,949.27Z"/><path id="Rectangle_303" data-name="Rectangle 303" class="cls-3" d="M1649.58,1001.7h3.83c2.58,0,4.67,3.08,4.67,6.88h0c0,3.8-2.09,6.88-4.67,6.88h-3.83c-2.58,0-4.66-3.08-4.66-6.88h0C1644.92,1004.78,1647,1001.7,1649.58,1001.7Z"/><path id="Rectangle_304" data-name="Rectangle 304" class="cls-3" d="M1628.74,1030.83h3.84c2.57,0,4.66,3.08,4.66,6.88h0c0,3.8-2.09,6.88-4.66,6.88h-3.84c-2.58,0-4.66-3.08-4.66-6.88h0C1624.08,1033.91,1626.16,1030.83,1628.74,1030.83Z"/><path id="Rectangle_305" data-name="Rectangle 305" class="cls-3" d="M1666,1038.11h28c2.57,0,4.66,3.08,4.66,6.88h0c0,3.8-2.09,6.88-4.66,6.88h-28c-2.58,0-4.66-3.08-4.66-6.88h0C1661.37,1041.19,1663.45,1038.11,1666,1038.11Z"/><rect id="Rectangle_306" data-name="Rectangle 306" class="cls-3" x="1703.67" y="1024.16" width="70.74" height="11.33"/><rect id="Rectangle_309" data-name="Rectangle 309" class="cls-3" x="1628.18" y="805.14" width="23.58" height="91.43"/><path id="Rectangle_311" data-name="Rectangle 311" class="cls-3" d="M1696.54,962.8h7.13c2.57,0,4.66,3.08,4.66,6.88h0c0,3.8-2.09,6.88-4.66,6.88h-7.13c-2.58,0-4.66-3.08-4.66-6.88h0C1691.88,965.88,1694,962.8,1696.54,962.8Z"/><path id="Rectangle_312" data-name="Rectangle 312" class="cls-3" d="M1721.76,951h3.3c3.78,0,6.85,4.52,6.85,10.11h0c0,5.59-3.07,10.11-6.85,10.11h-3.3c-3.78,0-6.85-4.52-6.85-10.11h0C1714.91,955.48,1718,951,1721.76,951Z"/><rect id="Rectangle_313" data-name="Rectangle 313" class="cls-3" x="1792.41" y="1002.28" width="51" height="28.63"/><rect id="Rectangle_314" data-name="Rectangle 314" class="cls-3" x="1860.53" y="971.49" width="49.24" height="22.61"/><path id="Rectangle_316" data-name="Rectangle 316" class="cls-3" d="M1885.08,889.87h0c2.92,0,5.29,3.49,5.29,7.79v26.59c0,4.31-2.37,7.8-5.29,7.8h0c-2.92,0-5.28-3.49-5.28-7.8V897.66C1879.8,893.36,1882.16,889.87,1885.08,889.87Z"/><rect id="Rectangle_534" data-name="Rectangle 534" class="cls-3" x="1918.84" y="1035.71" width="29.61" height="18.61"/><rect id="Rectangle_535" data-name="Rectangle 535" class="cls-3" x="1893.62" y="1015.48" width="7.68" height="43.69"/><rect id="Rectangle_537" data-name="Rectangle 537" class="cls-3" x="1811.04" y="1021.31" width="64.71" height="19.42"/><rect id="Rectangle_538" data-name="Rectangle 538" class="cls-3" x="1871.63" y="939.57" width="7.51" height="43.69"/><rect id="Rectangle_539" data-name="Rectangle 539" class="cls-3" x="1736.38" y="871.88" width="5.21" height="56.31"/><rect id="Rectangle_540" data-name="Rectangle 540" class="cls-3" x="1727.2" y="858.32" width="4.19" height="56.31"/></g></g><rect class="cls-2" x="292.28" y="1000.43" width="99.55" height="16.79"/><rect class="cls-2" x="303.45" y="989.04" width="77.36" height="16.79"/><rect class="cls-2" x="358.47" y="791.86" width="10.16" height="205.3" transform="translate(786.73 1762.4) rotate(176.12)"/><rect class="cls-2" x="316.48" y="791.86" width="10.16" height="205.3" transform="translate(61.21 -19.69) rotate(3.88)"/><rect class="cls-2" x="756.95" y="1000.43" width="99.55" height="16.79"/><rect class="cls-2" x="768.12" y="989.04" width="77.36" height="16.79"/><rect class="cls-2" x="779.01" y="891.06" width="10.16" height="105.55" transform="translate(148.36 -105.67) rotate(8.51)"/><rect class="cls-2" x="823.99" y="891.06" width="10.16" height="105.55" transform="translate(1788.72 1754.54) rotate(171.49)"/><path class="cls-2" d="M768.12,873.9v21h28.33c.57-2.69,4.88-4.79,10.13-4.79s9.56,2.1,10.13,4.79h28.78v-21Z"/><rect class="cls-2" x="613.26" y="1000.43" width="99.55" height="16.79"/><rect class="cls-2" x="624.43" y="989.04" width="77.36" height="16.79"/><rect class="cls-2" x="635.32" y="891.06" width="10.16" height="105.55" transform="translate(146.77 -84.4) rotate(8.51)"/><rect class="cls-2" x="680.29" y="891.06" width="10.16" height="105.55" transform="translate(1502.91 1775.82) rotate(171.49)"/><path class="cls-2" d="M624.43,873.9v21h28.33c.56-2.69,4.88-4.79,10.13-4.79s9.56,2.1,10.12,4.79h28.78v-21Z"/><rect class="cls-2" x="456.5" y="1000.43" width="99.55" height="16.79"/><rect class="cls-2" x="467.67" y="989.04" width="77.36" height="16.79"/><rect class="cls-2" x="480.61" y="863.48" width="10.16" height="133.28" transform="translate(143.04 -61.65) rotate(8.51)"/><rect class="cls-2" x="521.64" y="865.55" width="10.16" height="131.2" transform="translate(1185.47 1774.07) rotate(171.49)"/><rect class="cls-2" x="119.66" y="1000.43" width="99.55" height="16.79"/><rect class="cls-2" x="130.83" y="989.04" width="77.36" height="16.79"/><rect class="cls-2" x="184.5" y="752.1" width="10.16" height="245.1" transform="translate(437.86 1734.49) rotate(176.12)"/><rect class="cls-2" x="145.92" y="730.86" width="10.16" height="266.36" transform="translate(58.76 -8.23) rotate(3.88)"/><path class="cls-2" d="M-36.45,636.89s408.7,257.78,1116.51,222.84l-15.93,87.78S218.2,908.51-30,690c-18.92-16.65,5.41-34.34-6.43-53.14Z"/><g id="Group_80-2" data-name="Group 80"><g id="Group_74-2" data-name="Group 74"><g id="Group_72-2" data-name="Group 72"><rect id="Rectangle_189-2" data-name="Rectangle 189" class="cls-2" x="953.22" y="934" width="9.89" height="73"/><rect id="Rectangle_190-2" data-name="Rectangle 190" class="cls-2" x="975.63" y="934" width="13.18" height="73"/><rect id="Rectangle_191" data-name="Rectangle 191" class="cls-2" x="996.07" y="910.85" width="15.82" height="73"/><path id="Path_151" data-name="Path 151" class="cls-2" d="M1048.08,809.36h131.18v202.39H1048.08Z"/><rect id="Rectangle_193" data-name="Rectangle 193" class="cls-2" x="1190.54" y="736.36" width="63.94" height="322.28"/><rect id="Rectangle_194" data-name="Rectangle 194" class="cls-2" x="1202.41" y="763.07" width="63.94" height="322.28"/><path id="Path_59" data-name="Path 59" class="cls-2" d="M1208.34,716.77,1220.8,697h14.4l19.42,29v17.91l-46.28,37.83Z"/><rect id="Rectangle_195" data-name="Rectangle 195" class="cls-2" x="1266.35" y="930.44" width="63.94" height="123.14"/><rect id="Rectangle_196" data-name="Rectangle 196" class="cls-2" x="1277.56" y="913.52" width="7.91" height="83.69"/><rect id="Rectangle_197" data-name="Rectangle 197" class="cls-2" x="1290.74" y="829.84" width="127.23" height="200.31"/><rect id="Rectangle_198" data-name="Rectangle 198" class="cls-2" x="1330.29" y="756.84" width="48.12" height="198.53"/><path id="Path_60" data-name="Path 60" class="cls-2" d="M1305.79,799.09c10.92-8.86,28.58-7.81,28.81,4.47s-4,20.31-14.6,29.32-29.11,6.89-29.18-2.94A39.68,39.68,0,0,1,1305.79,799.09Z"/><path id="Path_62" data-name="Path 62" class="cls-2" d="M1347.53,723.42c12-9.76,31-9.64,30.91,3s-4.89,21.22-16.61,31.11-31.57,8.73-31.35-1.43S1335.5,733.19,1347.53,723.42Z"/><rect id="Rectangle_199" data-name="Rectangle 199" class="cls-2" x="1350.07" y="723.9" width="28.35" height="198.53"/><path id="Path_64" data-name="Path 64" class="cls-2" d="M1305.79,818.68c10.92-8.86,28.58-7.81,28.81,4.47s-4,20.31-14.6,29.31-29.11,6.89-29.18-2.94A39.64,39.64,0,0,1,1305.79,818.68Z"/><path id="Path_65" data-name="Path 65" class="cls-2" d="M1389.51,792.86c10.92-8.86,28.58-7.81,28.82,4.47s-4,20.31-14.61,29.31-29.11,6.9-29.18-2.93A39.71,39.71,0,0,1,1389.51,792.86Z"/><rect id="Rectangle_200" data-name="Rectangle 200" class="cls-2" x="1390.94" y="805.8" width="27.03" height="224.35"/><rect id="Rectangle_201" data-name="Rectangle 201" class="cls-2" x="1390.94" y="930.44" width="73.17" height="99.71"/><rect id="Rectangle_202" data-name="Rectangle 202" class="cls-2" x="1430.5" y="658.91" width="96.91" height="363.23"/><path id="Path_66" data-name="Path 66" class="cls-2" d="M1478.08,597.42l41.34,40.11,8.46,21.38h-97.54l10.6-27.23Z"/><rect id="Rectangle_203" data-name="Rectangle 203" class="cls-2" x="1534.65" y="767.52" width="79.77" height="264.41"/><rect id="Rectangle_204" data-name="Rectangle 204" class="cls-2" x="1519.49" y="993.65" width="25.71" height="38.28"/><rect id="Rectangle_205" data-name="Rectangle 205" class="cls-2" x="1614.42" y="961.6" width="398.83" height="61.43"/><rect id="Rectangle_206" data-name="Rectangle 206" class="cls-2" x="1621.01" y="690.13" width="66.58" height="332.89"/><rect id="Rectangle_207" data-name="Rectangle 207" class="cls-2" x="1758.13" y="718.55" width="44.83" height="248.39"/><rect id="Rectangle_208" data-name="Rectangle 208" class="cls-2" x="1767.36" y="692.74" width="27.69" height="248.39"/><rect id="Rectangle_209" data-name="Rectangle 209" class="cls-2" x="1752.2" y="718.55" width="57.35" height="22.26"/><rect id="Rectangle_210" data-name="Rectangle 210" class="cls-2" x="1684.96" y="934.89" width="76.47" height="32.05"/><rect id="Rectangle_211" data-name="Rectangle 211" class="cls-2" x="1717.92" y="918.86" width="29.01" height="32.05"/><rect id="Rectangle_212" data-name="Rectangle 212" class="cls-2" x="1820.1" y="945.57" width="29.01" height="32.05"/><rect id="Rectangle_213" data-name="Rectangle 213" class="cls-2" x="1828.67" y="930.44" width="11.87" height="40.95"/><rect id="Rectangle_214" data-name="Rectangle 214" class="cls-2" x="1845.81" y="692.74" width="36.26" height="278.65"/><rect id="Rectangle_215" data-name="Rectangle 215" class="cls-2" x="1849.1" y="677.6" width="32.96" height="278.65"/><rect id="Rectangle_216" data-name="Rectangle 216" class="cls-2" x="1852.4" y="666.92" width="26.37" height="278.65"/><rect id="Rectangle_217" data-name="Rectangle 217" class="cls-2" x="1852.4" y="709.65" width="60.65" height="272.42"/><rect id="Rectangle_218" data-name="Rectangle 218" class="cls-2" x="1842.51" y="692.74" width="48.78" height="20.48"/><rect id="Rectangle_219" data-name="Rectangle 219" class="cls-2" x="1541.9" y="758.62" width="63.94" height="264.41"/><path id="Path_67" data-name="Path 67" class="cls-2" d="M1882.14,677.32l31.13,32.46-31.13,0Z"/><rect id="Rectangle_164-2" data-name="Rectangle 164" class="cls-2" x="1545.06" y="1002.47" width="442.91" height="62.64"/><rect id="Rectangle_164-3" data-name="Rectangle 164" class="cls-2" x="1726.67" y="1071.78" width="88.45" height="25.23"/><rect id="Rectangle_164-4" data-name="Rectangle 164" class="cls-2" x="1872.95" y="1010.25" width="50.39" height="76.56"/><rect id="Rectangle_164-5" data-name="Rectangle 164" class="cls-2" x="1444" y="1003.84" width="123.26" height="70.26"/><rect id="Rectangle_164-6" data-name="Rectangle 164" class="cls-2" x="1339.29" y="1054.02" width="128.36" height="31.23"/><rect id="Rectangle_164-7" data-name="Rectangle 164" class="cls-2" x="952.76" y="974.03" width="257.93" height="103.7"/><rect id="Rectangle_164-8" data-name="Rectangle 164" class="cls-2" x="1308.41" y="1040.64" width="58.96" height="12.76"/><rect id="Rectangle_164-9" data-name="Rectangle 164" class="cls-2" x="1131.84" y="1075.74" width="58.96" height="12.76"/><rect id="Rectangle_164-10" data-name="Rectangle 164" class="cls-2" x="1095.42" y="1057.96" width="19.23" height="22.96"/></g></g><g id="Group_75-2" data-name="Group 75"><path id="Path_92" data-name="Path 92" class="cls-3" d="M1509.42,630.91h0l-4.73,28.51h-16.48Z"/><path id="Path_93" data-name="Path 93" class="cls-3" d="M1462.46,630.91l-2.31,3.08,28.22,25.43h16.32l-40.27-34.16Z"/><path id="Path_95" data-name="Path 95" class="cls-3" d="M1509.42,630.91h0L1487,639.19l-8.5-40.57Z"/><path id="Rectangle_318" data-name="Rectangle 318" class="cls-3" d="M1073,1044.89h13.84c2.18,0,4,2.39,4,5.34h0c0,3-1.78,5.34-4,5.34H1073c-2.19,0-4-2.39-4-5.34h0C1069.06,1047.28,1070.83,1044.89,1073,1044.89Z"/><rect id="Rectangle_319" data-name="Rectangle 319" class="cls-3" x="1046.85" y="824.99" width="87.02" height="209.21"/><rect id="Rectangle_320" data-name="Rectangle 320" class="cls-3" x="1046.85" y="802.73" width="87.02" height="11.57"/><rect id="Rectangle_323" data-name="Rectangle 323" class="cls-3" x="1154.1" y="1029.75" width="35.6" height="20.48"/><rect id="Rectangle_325" data-name="Rectangle 325" class="cls-3" x="1118.5" y="1060.02" width="9.23" height="48.08"/><path id="Rectangle_326" data-name="Rectangle 326" class="cls-3" d="M1178.16,966.54h0c3.46,0,6.26,3.79,6.26,8.46v26.71c0,4.67-2.8,8.46-6.26,8.46h0c-3.46,0-6.26-3.79-6.26-8.46V975C1171.9,970.33,1174.7,966.54,1178.16,966.54Z"/><rect id="Rectangle_327" data-name="Rectangle 327" class="cls-3" x="1202.88" y="729.73" width="7.91" height="315.16"/><rect id="Rectangle_328" data-name="Rectangle 328" class="cls-3" x="1189.04" y="729.73" width="4.61" height="320.5"/><rect id="Rectangle_329" data-name="Rectangle 329" class="cls-3" x="1189.04" y="1039.55" width="50.1" height="10.68"/><rect id="Rectangle_330" data-name="Rectangle 330" class="cls-3" x="1189.04" y="729.73" width="25.05" height="30.27"/><path id="Path_86" data-name="Path 86" class="cls-3" d="M1239.44,699.19l12.88,19v326.73h-13.18Z"/><path id="Path_87" data-name="Path 87" class="cls-3" d="M1205.52,710.15l12.25-18h4.89v48.29h-17.14Z"/><rect id="Rectangle_331" data-name="Rectangle 331" class="cls-3" x="1256.94" y="753.77" width="7.91" height="291.12"/><path id="Rectangle_332" data-name="Rectangle 332" class="cls-3" d="M1275.4,1010.17h0c3.27,0,5.93,3.58,5.93,8v14.24c0,4.43-2.66,8-5.93,8h0c-3.28,0-5.94-3.59-5.94-8v-14.24C1269.46,1013.75,1272.12,1010.17,1275.4,1010.17Z"/><path id="Rectangle_333" data-name="Rectangle 333" class="cls-3" d="M1278.36,1050.23h0c1.64,0,3,1.79,3,4v9.8c0,2.21-1.33,4-3,4h0c-1.63,0-3-1.79-3-4v-9.8C1275.4,1052,1276.73,1050.23,1278.36,1050.23Z"/><path id="Path_88" data-name="Path 88" class="cls-3" d="M1304.29,792.47c10.92-8.87,28.58-7.81,28.81,4.46s-4,20.32-14.6,29.32-29.11,6.89-29.18-2.94A39.64,39.64,0,0,1,1304.29,792.47Z"/><path id="Path_89" data-name="Path 89" class="cls-3" d="M1346,716.8c12-9.77,31-9.65,30.91,3s-4.89,21.22-16.61,31.12-31.57,8.72-31.35-1.44S1334,726.56,1346,716.8Z"/><path id="Path_90" data-name="Path 90" class="cls-3" d="M1388,786.24c10.92-8.87,28.58-7.81,28.82,4.46s-4,20.31-14.61,29.32-29.11,6.89-29.18-2.94A39.67,39.67,0,0,1,1388,786.24Z"/><rect id="Rectangle_335" data-name="Rectangle 335" class="cls-3" x="1291.88" y="824.99" width="16.48" height="61.43"/><rect id="Rectangle_336" data-name="Rectangle 336" class="cls-3" x="1328.79" y="748.43" width="20.44" height="48.08"/><rect id="Rectangle_337" data-name="Rectangle 337" class="cls-3" x="1333.41" y="748.43" width="15.82" height="71.22"/><rect id="Rectangle_338" data-name="Rectangle 338" class="cls-3" x="1372.96" y="815.2" width="12.52" height="71.22"/><path id="Path_91" data-name="Path 91" class="cls-3" d="M1343.84,867.25c10.92-8.86,28.58-7.81,28.82,4.46s-4,20.32-14.61,29.32-29.11,6.89-29.18-2.94A39.67,39.67,0,0,1,1343.84,867.25Z"/><rect id="Rectangle_339" data-name="Rectangle 339" class="cls-3" x="1328.79" y="899.77" width="20.44" height="62.32"/><rect id="Rectangle_340" data-name="Rectangle 340" class="cls-3" x="1372.96" y="815.2" width="5.93" height="146.89"/><rect id="Rectangle_341" data-name="Rectangle 341" class="cls-3" x="1291.88" y="886.42" width="36.92" height="8.9"/><rect id="Rectangle_342" data-name="Rectangle 342" class="cls-3" x="1291.88" y="906" width="36.92" height="6.23"/><rect id="Rectangle_343" data-name="Rectangle 343" class="cls-3" x="1298.47" y="920.25" width="30.32" height="6.23"/><rect id="Rectangle_344" data-name="Rectangle 344" class="cls-3" x="1288.58" y="934.49" width="40.21" height="6.23"/><rect id="Rectangle_345" data-name="Rectangle 345" class="cls-3" x="1288.58" y="948.74" width="40.21" height="6.23"/><rect id="Rectangle_346" data-name="Rectangle 346" class="cls-3" x="1288.58" y="962.98" width="40.21" height="6.23"/><rect id="Rectangle_347" data-name="Rectangle 347" class="cls-3" x="1288.58" y="977.23" width="40.21" height="6.23"/><rect id="Rectangle_348" data-name="Rectangle 348" class="cls-3" x="1288.58" y="991.47" width="40.21" height="6.23"/><rect id="Rectangle_349" data-name="Rectangle 349" class="cls-3" x="1288.58" y="1005.71" width="40.21" height="6.23"/><rect id="Rectangle_350" data-name="Rectangle 350" class="cls-3" x="1328.79" y="969.21" width="52.08" height="8.01"/><rect id="Rectangle_351" data-name="Rectangle 351" class="cls-3" x="1328.79" y="983.46" width="52.08" height="8.01"/><rect id="Rectangle_352" data-name="Rectangle 352" class="cls-3" x="1328.79" y="997.7" width="52.08" height="8.01"/><rect id="Rectangle_353" data-name="Rectangle 353" class="cls-3" x="1328.79" y="1011.95" width="52.08" height="8.01"/><rect id="Rectangle_354" data-name="Rectangle 354" class="cls-3" x="1378.9" y="890.87" width="35.6" height="4.45"/><rect id="Rectangle_355" data-name="Rectangle 355" class="cls-3" x="1378.9" y="903.33" width="35.6" height="6.23"/><rect id="Rectangle_356" data-name="Rectangle 356" class="cls-3" x="1378.9" y="920.25" width="35.6" height="6.23"/><rect id="Rectangle_357" data-name="Rectangle 357" class="cls-3" x="1378.9" y="934.49" width="35.6" height="6.23"/><rect id="Rectangle_358" data-name="Rectangle 358" class="cls-3" x="1378.9" y="948.74" width="35.6" height="6.23"/><rect id="Rectangle_359" data-name="Rectangle 359" class="cls-3" x="1378.9" y="962.98" width="35.6" height="6.23"/><rect id="Rectangle_360" data-name="Rectangle 360" class="cls-3" x="1378.9" y="977.23" width="35.6" height="6.23"/><rect id="Rectangle_361" data-name="Rectangle 361" class="cls-3" x="1378.9" y="991.47" width="35.6" height="6.23"/><rect id="Rectangle_362" data-name="Rectangle 362" class="cls-3" x="1333.41" y="818.76" width="36.01" height="6.23"/><rect id="Rectangle_363" data-name="Rectangle 363" class="cls-3" x="1333.41" y="833" width="36.01" height="6.23"/><rect id="Rectangle_364" data-name="Rectangle 364" class="cls-3" x="1333.41" y="847.25" width="36.01" height="6.23"/><rect id="Rectangle_365" data-name="Rectangle 365" class="cls-3" x="1333.41" y="861.49" width="36.01" height="6.23"/><rect id="Rectangle_366" data-name="Rectangle 366" class="cls-3" x="1309.68" y="1038.65" width="118.66" height="16.91"/><rect id="Rectangle_367" data-name="Rectangle 367" class="cls-3" x="1488.33" y="659.4" width="16.48" height="342.75"/><rect id="Rectangle_368" data-name="Rectangle 368" class="cls-3" x="1430.31" y="659.4" width="3.96" height="342.75"/><path id="Path_94" data-name="Path 94" class="cls-3" d="M1462.46,630.91h0l-28.28,37.94-3.87-9.43v-8.27l10.22-26.66,36-33.49Z"/><path id="Rectangle_369" data-name="Rectangle 369" class="cls-3" d="M1504.48,1020.85h0c3.09,0,5.6,3.39,5.6,7.57V1048c0,4.18-2.51,7.57-5.6,7.57h0c-3.1,0-5.61-3.39-5.61-7.57v-19.58C1498.87,1024.24,1501.38,1020.85,1504.48,1020.85Z"/><rect id="Rectangle_370" data-name="Rectangle 370" class="cls-3" x="1516.67" y="1042.22" width="43.51" height="8.01"/><rect id="Rectangle_370-2" data-name="Rectangle 370" class="cls-3" x="1399.69" y="1077.31" width="43.51" height="8.01"/><rect id="Rectangle_370-3" data-name="Rectangle 370" class="cls-3" x="1599.44" y="1078.38" width="43.51" height="8.01"/><rect id="Rectangle_370-4" data-name="Rectangle 370" class="cls-3" x="1358.07" y="1062.08" width="12.29" height="14.43"/><rect id="Rectangle_370-5" data-name="Rectangle 370" class="cls-3" x="1566.65" y="1074.85" width="12.29" height="14.43"/><rect id="Rectangle_371" data-name="Rectangle 371" class="cls-3" x="1555.57" y="1021.74" width="27.03" height="37.39"/><rect id="Rectangle_372" data-name="Rectangle 372" class="cls-3" x="1539.09" y="751.99" width="65.26" height="17.81"/><rect id="Rectangle_373" data-name="Rectangle 373" class="cls-3" x="1536.45" y="760.89" width="75.81" height="18.7"/><rect id="Rectangle_374" data-name="Rectangle 374" class="cls-3" x="1539.09" y="784.93" width="70.54" height="7.12"/><rect id="Rectangle_375" data-name="Rectangle 375" class="cls-3" x="1539.09" y="798.28" width="70.54" height="7.12"/><rect id="Rectangle_376" data-name="Rectangle 376" class="cls-3" x="1539.09" y="811.64" width="70.54" height="7.12"/><rect id="Rectangle_377" data-name="Rectangle 377" class="cls-3" x="1539.09" y="824.99" width="70.54" height="7.12"/><rect id="Rectangle_378" data-name="Rectangle 378" class="cls-3" x="1539.09" y="838.34" width="70.54" height="7.12"/><rect id="Rectangle_379" data-name="Rectangle 379" class="cls-3" x="1539.09" y="851.7" width="70.54" height="7.12"/><rect id="Rectangle_380" data-name="Rectangle 380" class="cls-3" x="1539.09" y="865.05" width="70.54" height="7.12"/><rect id="Rectangle_381" data-name="Rectangle 381" class="cls-3" x="1539.09" y="878.41" width="70.54" height="7.12"/><rect id="Rectangle_382" data-name="Rectangle 382" class="cls-3" x="1539.09" y="891.76" width="70.54" height="7.12"/><rect id="Rectangle_383" data-name="Rectangle 383" class="cls-3" x="1539.09" y="905.11" width="70.54" height="7.12"/><rect id="Rectangle_384" data-name="Rectangle 384" class="cls-3" x="1539.09" y="918.47" width="70.54" height="7.12"/><rect id="Rectangle_385" data-name="Rectangle 385" class="cls-3" x="1539.09" y="931.82" width="70.54" height="7.12"/><rect id="Rectangle_386" data-name="Rectangle 386" class="cls-3" x="1539.09" y="945.18" width="70.54" height="7.12"/><rect id="Rectangle_387" data-name="Rectangle 387" class="cls-3" x="1539.09" y="958.53" width="70.54" height="7.12"/><rect id="Rectangle_388" data-name="Rectangle 388" class="cls-3" x="1539.09" y="971.88" width="70.54" height="7.12"/><rect id="Rectangle_389" data-name="Rectangle 389" class="cls-3" x="1539.09" y="984.35" width="70.54" height="7.12"/><rect id="Rectangle_390" data-name="Rectangle 390" class="cls-3" x="1619.51" y="693.7" width="40.21" height="360.08"/><rect id="Rectangle_391" data-name="Rectangle 391" class="cls-3" x="1673.57" y="1023.52" width="51.42" height="16.91"/><path id="Rectangle_392" data-name="Rectangle 392" class="cls-3" d="M1696,1002.15h15.82c2.55,0,4.62,2.79,4.62,6.23h0c0,3.45-2.07,6.24-4.62,6.24H1696c-2.55,0-4.61-2.79-4.61-6.24h0C1691.37,1004.94,1693.43,1002.15,1696,1002.15Z"/><path id="Rectangle_393" data-name="Rectangle 393" class="cls-3" d="M1688.73,978.12H1692c2.55,0,4.62,2.79,4.62,6.23h0c0,3.44-2.07,6.23-4.62,6.23h-3.29c-2.55,0-4.62-2.79-4.62-6.23h0C1684.11,980.91,1686.18,978.12,1688.73,978.12Z"/><path id="Rectangle_394" data-name="Rectangle 394" class="cls-3" d="M1708.83,952.3h0c2.73,0,4.94,3,4.94,6.68v3.56c0,3.68-2.21,6.67-4.94,6.67h0c-2.73,0-4.94-3-4.94-6.67V959C1703.89,955.29,1706.1,952.3,1708.83,952.3Z"/><rect id="Rectangle_395" data-name="Rectangle 395" class="cls-3" x="1740.15" y="1040.44" width="48.12" height="13.35"/><path id="Rectangle_396" data-name="Rectangle 396" class="cls-3" d="M1705.21,1059.13h11.21c2.18,0,3.95,2.39,3.95,5.34h0c0,3-1.77,5.34-3.95,5.34h-11.21c-2.19,0-4-2.39-4-5.34h0C1701.25,1061.52,1703,1059.13,1705.21,1059.13Z"/><rect id="Rectangle_397" data-name="Rectangle 397" class="cls-3" x="1726.96" y="922.03" width="13.18" height="26.71"/><rect id="Rectangle_398" data-name="Rectangle 398" class="cls-3" x="1767.84" y="690.56" width="22.41" height="13.35"/><rect id="Rectangle_399" data-name="Rectangle 399" class="cls-3" x="1766.52" y="726.17" width="25.05" height="15.13"/><rect id="Rectangle_400" data-name="Rectangle 400" class="cls-3" x="1766.52" y="711.93" width="5.27" height="27.6"/><rect id="Rectangle_401" data-name="Rectangle 401" class="cls-3" x="1786.29" y="711.93" width="5.27" height="27.6"/><rect id="Rectangle_402" data-name="Rectangle 402" class="cls-3" x="1771.79" y="746.65" width="14.5" height="6.23"/><rect id="Rectangle_403" data-name="Rectangle 403" class="cls-3" x="1771.79" y="758.22" width="14.5" height="6.23"/><rect id="Rectangle_404" data-name="Rectangle 404" class="cls-3" x="1794.86" y="746.65" width="6.62" height="6.23"/><rect id="Rectangle_405" data-name="Rectangle 405" class="cls-3" x="1794.86" y="758.22" width="6.62" height="6.23"/><rect id="Rectangle_406" data-name="Rectangle 406" class="cls-3" x="1756.63" y="746.65" width="6.62" height="6.23"/><rect id="Rectangle_407" data-name="Rectangle 407" class="cls-3" x="1756.63" y="758.22" width="6.62" height="6.23"/><rect id="Rectangle_408" data-name="Rectangle 408" class="cls-3" x="1771.79" y="769.79" width="14.5" height="6.23"/><rect id="Rectangle_409" data-name="Rectangle 409" class="cls-3" x="1771.79" y="781.37" width="14.5" height="6.23"/><rect id="Rectangle_410" data-name="Rectangle 410" class="cls-3" x="1794.86" y="769.79" width="6.62" height="6.23"/><rect id="Rectangle_411" data-name="Rectangle 411" class="cls-3" x="1794.86" y="781.37" width="6.62" height="6.23"/><rect id="Rectangle_412" data-name="Rectangle 412" class="cls-3" x="1756.63" y="769.79" width="6.62" height="6.23"/><rect id="Rectangle_413" data-name="Rectangle 413" class="cls-3" x="1756.63" y="781.37" width="6.62" height="6.23"/><rect id="Rectangle_414" data-name="Rectangle 414" class="cls-3" x="1771.79" y="792.94" width="14.5" height="6.23"/><rect id="Rectangle_415" data-name="Rectangle 415" class="cls-3" x="1771.79" y="804.51" width="14.5" height="6.23"/><rect id="Rectangle_416" data-name="Rectangle 416" class="cls-3" x="1794.86" y="792.94" width="6.62" height="6.23"/><rect id="Rectangle_417" data-name="Rectangle 417" class="cls-3" x="1794.86" y="804.51" width="6.62" height="6.23"/><rect id="Rectangle_418" data-name="Rectangle 418" class="cls-3" x="1756.63" y="792.94" width="6.62" height="6.23"/><rect id="Rectangle_419" data-name="Rectangle 419" class="cls-3" x="1756.63" y="804.51" width="6.62" height="6.23"/><rect id="Rectangle_420" data-name="Rectangle 420" class="cls-3" x="1771.79" y="816.09" width="14.5" height="6.23"/><rect id="Rectangle_421" data-name="Rectangle 421" class="cls-3" x="1771.79" y="827.66" width="14.5" height="6.23"/><rect id="Rectangle_422" data-name="Rectangle 422" class="cls-3" x="1794.86" y="816.09" width="6.62" height="6.23"/><rect id="Rectangle_423" data-name="Rectangle 423" class="cls-3" x="1794.86" y="827.66" width="6.62" height="6.23"/><rect id="Rectangle_424" data-name="Rectangle 424" class="cls-3" x="1756.63" y="816.09" width="6.62" height="6.23"/><rect id="Rectangle_425" data-name="Rectangle 425" class="cls-3" x="1756.63" y="827.66" width="6.62" height="6.23"/><rect id="Rectangle_426" data-name="Rectangle 426" class="cls-3" x="1794.86" y="735.07" width="6.62" height="6.23"/><rect id="Rectangle_427" data-name="Rectangle 427" class="cls-3" x="1756.63" y="735.07" width="6.62" height="6.23"/><rect id="Rectangle_428" data-name="Rectangle 428" class="cls-3" x="1771.79" y="839.23" width="14.5" height="6.23"/><rect id="Rectangle_429" data-name="Rectangle 429" class="cls-3" x="1794.86" y="839.23" width="6.62" height="6.23"/><rect id="Rectangle_430" data-name="Rectangle 430" class="cls-3" x="1756.63" y="839.23" width="6.62" height="6.23"/><rect id="Rectangle_431" data-name="Rectangle 431" class="cls-3" x="1771.79" y="850.81" width="14.5" height="6.23"/><rect id="Rectangle_432" data-name="Rectangle 432" class="cls-3" x="1771.79" y="862.38" width="14.5" height="6.23"/><rect id="Rectangle_433" data-name="Rectangle 433" class="cls-3" x="1794.86" y="850.81" width="6.62" height="6.23"/><rect id="Rectangle_434" data-name="Rectangle 434" class="cls-3" x="1794.86" y="862.38" width="6.62" height="6.23"/><rect id="Rectangle_435" data-name="Rectangle 435" class="cls-3" x="1756.63" y="850.81" width="6.62" height="6.23"/><rect id="Rectangle_436" data-name="Rectangle 436" class="cls-3" x="1756.63" y="862.38" width="6.62" height="6.23"/><rect id="Rectangle_437" data-name="Rectangle 437" class="cls-3" x="1771.79" y="873.95" width="14.5" height="6.23"/><rect id="Rectangle_438" data-name="Rectangle 438" class="cls-3" x="1794.86" y="873.95" width="6.62" height="6.23"/><rect id="Rectangle_439" data-name="Rectangle 439" class="cls-3" x="1756.63" y="873.95" width="6.62" height="6.23"/><rect id="Rectangle_440" data-name="Rectangle 440" class="cls-3" x="1771.79" y="885.53" width="14.5" height="6.23"/><rect id="Rectangle_441" data-name="Rectangle 441" class="cls-3" x="1771.79" y="897.1" width="14.5" height="6.23"/><rect id="Rectangle_442" data-name="Rectangle 442" class="cls-3" x="1794.86" y="885.53" width="6.62" height="6.23"/><rect id="Rectangle_443" data-name="Rectangle 443" class="cls-3" x="1794.86" y="897.1" width="6.62" height="6.23"/><rect id="Rectangle_444" data-name="Rectangle 444" class="cls-3" x="1756.63" y="885.53" width="6.62" height="6.23"/><rect id="Rectangle_445" data-name="Rectangle 445" class="cls-3" x="1756.63" y="897.1" width="6.62" height="6.23"/><rect id="Rectangle_446" data-name="Rectangle 446" class="cls-3" x="1771.79" y="908.68" width="14.5" height="6.23"/><rect id="Rectangle_447" data-name="Rectangle 447" class="cls-3" x="1794.86" y="908.68" width="6.62" height="6.23"/><rect id="Rectangle_448" data-name="Rectangle 448" class="cls-3" x="1756.63" y="908.68" width="6.62" height="6.23"/><rect id="Rectangle_449" data-name="Rectangle 449" class="cls-3" x="1771.79" y="920.25" width="14.5" height="6.23"/><rect id="Rectangle_450" data-name="Rectangle 450" class="cls-3" x="1771.79" y="931.82" width="14.5" height="6.23"/><rect id="Rectangle_451" data-name="Rectangle 451" class="cls-3" x="1794.86" y="920.25" width="6.62" height="6.23"/><rect id="Rectangle_452" data-name="Rectangle 452" class="cls-3" x="1794.86" y="931.82" width="6.62" height="6.23"/><rect id="Rectangle_453" data-name="Rectangle 453" class="cls-3" x="1756.63" y="920.25" width="6.62" height="6.23"/><rect id="Rectangle_454" data-name="Rectangle 454" class="cls-3" x="1756.63" y="931.82" width="6.62" height="6.23"/><rect id="Rectangle_455" data-name="Rectangle 455" class="cls-3" x="1771.79" y="943.4" width="14.5" height="6.23"/><rect id="Rectangle_456" data-name="Rectangle 456" class="cls-3" x="1794.86" y="943.4" width="6.62" height="6.23"/><rect id="Rectangle_457" data-name="Rectangle 457" class="cls-3" x="1756.63" y="943.4" width="6.62" height="6.23"/><rect id="Rectangle_458" data-name="Rectangle 458" class="cls-3" x="1771.79" y="954.97" width="14.5" height="6.23"/><rect id="Rectangle_459" data-name="Rectangle 459" class="cls-3" x="1771.79" y="966.54" width="14.5" height="6.23"/><rect id="Rectangle_460" data-name="Rectangle 460" class="cls-3" x="1794.86" y="954.97" width="6.62" height="6.23"/><rect id="Rectangle_461" data-name="Rectangle 461" class="cls-3" x="1794.86" y="966.54" width="6.62" height="6.23"/><rect id="Rectangle_462" data-name="Rectangle 462" class="cls-3" x="1756.63" y="954.97" width="6.62" height="6.23"/><rect id="Rectangle_463" data-name="Rectangle 463" class="cls-3" x="1756.63" y="966.54" width="6.62" height="6.23"/><rect id="Rectangle_464" data-name="Rectangle 464" class="cls-3" x="1771.79" y="978.12" width="14.5" height="6.23"/><rect id="Rectangle_465" data-name="Rectangle 465" class="cls-3" x="1794.86" y="978.12" width="6.62" height="6.23"/><rect id="Rectangle_466" data-name="Rectangle 466" class="cls-3" x="1756.63" y="978.12" width="6.62" height="6.23"/><rect id="Rectangle_467" data-name="Rectangle 467" class="cls-3" x="1771.79" y="989.69" width="14.5" height="6.23"/><rect id="Rectangle_468" data-name="Rectangle 468" class="cls-3" x="1771.79" y="1001.26" width="14.5" height="6.23"/><rect id="Rectangle_469" data-name="Rectangle 469" class="cls-3" x="1794.86" y="989.69" width="6.62" height="6.23"/><rect id="Rectangle_470" data-name="Rectangle 470" class="cls-3" x="1794.86" y="1001.26" width="6.62" height="6.23"/><rect id="Rectangle_471" data-name="Rectangle 471" class="cls-3" x="1756.63" y="989.69" width="6.62" height="6.23"/><rect id="Rectangle_472" data-name="Rectangle 472" class="cls-3" x="1756.63" y="1001.26" width="6.62" height="6.23"/><path id="Rectangle_473" data-name="Rectangle 473" class="cls-3" d="M1777.39,1017.29h20.44c3.09,0,5.6,3.39,5.6,7.57h0c0,4.17-2.51,7.56-5.6,7.56h-20.44c-3.09,0-5.6-3.39-5.6-7.56h0C1771.79,1020.68,1774.3,1017.29,1777.39,1017.29Z"/><path id="Rectangle_474" data-name="Rectangle 474" class="cls-3" d="M1816.29,957.64h12.52c2.37,0,4.29,2.59,4.29,5.79h0c0,3.19-1.92,5.79-4.29,5.79h-12.52c-2.37,0-4.29-2.6-4.29-5.79h0C1812,960.23,1813.92,957.64,1816.29,957.64Z"/><path id="Rectangle_475" data-name="Rectangle 475" class="cls-3" d="M1827.82,981.68h0c2.91,0,5.27,3.19,5.27,7.12v5.34c0,3.94-2.36,7.12-5.27,7.12h0c-2.91,0-5.27-3.18-5.27-7.12V988.8C1822.55,984.87,1824.91,981.68,1827.82,981.68Z"/><rect id="Rectangle_476" data-name="Rectangle 476" class="cls-3" x="1809.37" y="1027.08" width="121.3" height="20.48"/><rect id="Rectangle_477" data-name="Rectangle 477" class="cls-3" x="1812" y="1032.42" width="10.55" height="32.05"/><rect id="Rectangle_478" data-name="Rectangle 478" class="cls-3" x="1842.33" y="1032.42" width="44.17" height="32.05"/><rect id="Rectangle_479" data-name="Rectangle 479" class="cls-3" x="1898.36" y="1032.42" width="13.18" height="24.93"/><rect id="Rectangle_483" data-name="Rectangle 483" class="cls-3" x="1845.54" y="709.26" width="35.46" height="6.23"/><rect id="Rectangle_484" data-name="Rectangle 484" class="cls-3" x="1845.54" y="720.83" width="35.46" height="6.23"/><rect id="Rectangle_485" data-name="Rectangle 485" class="cls-3" x="1845.54" y="732.4" width="35.46" height="6.23"/><rect id="Rectangle_486" data-name="Rectangle 486" class="cls-3" x="1845.54" y="743.98" width="35.46" height="6.23"/><rect id="Rectangle_487" data-name="Rectangle 487" class="cls-3" x="1845.54" y="755.55" width="35.46" height="6.23"/><rect id="Rectangle_488" data-name="Rectangle 488" class="cls-3" x="1845.54" y="766.38" width="35.46" height="6.23"/><rect id="Rectangle_489" data-name="Rectangle 489" class="cls-3" x="1845.54" y="777.81" width="35.46" height="6.23"/><rect id="Rectangle_490" data-name="Rectangle 490" class="cls-3" x="1845.54" y="789.23" width="35.46" height="6.23"/><rect id="Rectangle_491" data-name="Rectangle 491" class="cls-3" x="1845.54" y="800.66" width="35.46" height="6.23"/><rect id="Rectangle_492" data-name="Rectangle 492" class="cls-3" x="1845.54" y="812.08" width="35.46" height="6.23"/><rect id="Rectangle_493" data-name="Rectangle 493" class="cls-3" x="1845.54" y="823.51" width="35.46" height="6.23"/><rect id="Rectangle_494" data-name="Rectangle 494" class="cls-3" x="1845.54" y="834.93" width="35.46" height="6.23"/><rect id="Rectangle_495" data-name="Rectangle 495" class="cls-3" x="1845.54" y="846.36" width="35.46" height="6.23"/><rect id="Rectangle_496" data-name="Rectangle 496" class="cls-3" x="1845.54" y="857.78" width="35.46" height="6.23"/><rect id="Rectangle_497" data-name="Rectangle 497" class="cls-3" x="1845.54" y="869.21" width="35.46" height="6.23"/><rect id="Rectangle_498" data-name="Rectangle 498" class="cls-3" x="1845.54" y="880.63" width="35.46" height="6.23"/><rect id="Rectangle_499" data-name="Rectangle 499" class="cls-3" x="1845.54" y="892.06" width="35.46" height="6.23"/><rect id="Rectangle_500" data-name="Rectangle 500" class="cls-3" x="1845.54" y="903.48" width="35.46" height="6.23"/><rect id="Rectangle_501" data-name="Rectangle 501" class="cls-3" x="1845.54" y="914.91" width="35.46" height="6.23"/><rect id="Rectangle_502" data-name="Rectangle 502" class="cls-3" x="1845.54" y="926.33" width="35.46" height="6.23"/><rect id="Rectangle_503" data-name="Rectangle 503" class="cls-3" x="1845.54" y="937.17" width="35.46" height="6.23"/><rect id="Rectangle_504" data-name="Rectangle 504" class="cls-3" x="1845.54" y="948.74" width="35.46" height="6.23"/><rect id="Rectangle_505" data-name="Rectangle 505" class="cls-3" x="1845.54" y="960.31" width="35.46" height="6.23"/><rect id="Rectangle_506" data-name="Rectangle 506" class="cls-3" x="1845.54" y="971.88" width="35.46" height="6.23"/><path id="Path_96" data-name="Path 96" class="cls-3" d="M1889.79,711.93l-29.07-38.38,39,38.38V990.58h-9.89Z"/><rect id="Rectangle_508" data-name="Rectangle 508" class="cls-3" x="1845.54" y="983.46" width="35.46" height="6.23"/><path id="Rectangle_509" data-name="Rectangle 509" class="cls-3" d="M1921.1,966.54h0c1.28,0,2.31,1.4,2.31,3.12v8c0,1.72-1,3.12-2.31,3.12h0c-1.27,0-2.3-1.4-2.3-3.12v-8C1918.8,967.94,1919.83,966.54,1921.1,966.54Z"/></g></g><rect class="cls-4" x="-70" y="1000" width="2692" height="281"/><rect class="cls-2" x="292.28" y="996.56" width="99.55" height="16.79"/><rect class="cls-2" x="303.45" y="1007.96" width="77.36" height="16.79"/><rect class="cls-2" x="358.47" y="1016.63" width="10.16" height="205.3" transform="translate(650.58 2260.57) rotate(-176.12)"/><rect class="cls-2" x="316.48" y="1016.63" width="10.16" height="205.3" transform="translate(-74.94 24.3) rotate(-3.88)"/><rect class="cls-2" x="756.95" y="996.56" width="99.55" height="16.79"/><rect class="cls-2" x="768.12" y="1007.96" width="77.36" height="16.79"/><rect class="cls-2" x="779.01" y="1017.18" width="10.16" height="105.55" transform="translate(-149.75 127.86) rotate(-8.51)"/><rect class="cls-2" x="823.99" y="1017.18" width="10.16" height="105.55" transform="translate(1490.61 2250.84) rotate(-171.49)"/><rect class="cls-2" x="613.26" y="996.56" width="99.55" height="16.79"/><rect class="cls-2" x="624.43" y="1007.96" width="77.36" height="16.79"/><rect class="cls-2" x="635.32" y="1017.18" width="10.16" height="105.55" transform="matrix(0.99, -0.15, 0.15, 0.99, -151.33, 106.59)"/><rect class="cls-2" x="680.29" y="1017.18" width="10.16" height="105.55" transform="translate(1204.81 2229.57) rotate(-171.49)"/><rect class="cls-2" x="456.5" y="996.56" width="99.55" height="16.79"/><rect class="cls-2" x="467.67" y="1007.96" width="77.36" height="16.79"/><rect class="cls-2" x="480.61" y="1017.03" width="10.16" height="133.28" transform="translate(-155.07 83.84) rotate(-8.51)"/><rect class="cls-2" x="521.64" y="1017.04" width="10.16" height="131.2" transform="translate(887.37 2231.32) rotate(-171.49)"/><rect class="cls-2" x="119.66" y="996.56" width="99.55" height="16.79"/><rect class="cls-2" x="130.83" y="1007.96" width="77.36" height="16.79"/><rect class="cls-2" x="184.5" y="1016.58" width="10.16" height="245.1" transform="translate(301.71 2288.48) rotate(-176.12)"/><rect class="cls-2" x="145.92" y="1016.56" width="10.16" height="266.36" transform="translate(-77.39 12.84) rotate(-3.88)"/><path class="cls-2" d="M31.75,1380.19s340.5-261.07,1048.31-226.13l-15.93-87.78S198.88,1114.75,31.75,1380.19Z"/><polygon class="cls-2" points="1300.29 979.33 1300.29 983.33 1360.94 983.33 1387.97 983.33 1387.97 983.33 1387.97 983.33 1413.99 983.33 1413.99 979.33 1300.29 979.33"/><rect class="cls-2" x="923.22" y="1041.95" width="9.89" height="41.83"/><rect class="cls-2" x="945.63" y="1041.95" width="13.18" height="41.83"/><rect class="cls-2" x="966.07" y="1041.95" width="15.82" height="66.01"/><path class="cls-2" d="M1141.94,1042h-38.07v155.72h-85.79v11.16h85.79V1214h45.39V1049.63a4.49,4.49,0,0,1-1.1.15C1145,1049.78,1142.3,1046.36,1141.94,1042Z"/><polygon class="cls-2" points="1172.41 1262.37 1172.41 1041.95 1163.65 1041.95 1163.65 1265.57 1172.88 1265.57 1172.88 1262.37 1172.41 1262.37"/><polygon class="cls-2" points="1236.35 979.33 1234.85 979.33 1234.85 1262.37 1236.35 1262.37 1236.35 1087.5 1236.35 1087.5 1236.35 979.33"/><polygon class="cls-2" points="1222.32 979.33 1222.32 1262.37 1224.48 1262.37 1226.94 1262.37 1226.94 979.33 1222.32 979.33"/><polygon class="cls-2" points="1180.79 1244.93 1201.21 1262.37 1209.39 1262.37 1209.15 979.33 1180.79 979.33 1180.79 1244.93"/><rect class="cls-2" x="1172.41" y="1041.95" width="0.48" height="220.41"/><path class="cls-2" d="M1258.58,1083.26v-6.51h2.16v-8.37h-2.16v-6.51h2.16v-8.37h-2.16V1047h2.16v-8.37h-2.16v-6.51h2.16v-8.37h-2.16v-6.51h2.16v-8.38h-2.16v-6.51h2.16v-19h39.55v-4h-49.07a12.36,12.36,0,0,1,.11,1.62v14.88c0,4.63-2.66,8.37-5.93,8.37s-5.94-3.74-5.94-8.37V981a10.84,10.84,0,0,1,.12-1.62h-3.23V1087.5h11.21v-69.76h7.91v69.76h5.27v-4.24Z"/><polygon class="cls-2" points="1247.56 1017.74 1247.56 1087.5 1247.56 1105.17 1255.47 1105.17 1255.47 1087.5 1255.47 1017.74 1247.56 1017.74"/><rect class="cls-2" x="1350.87" y="1038.62" width="10.07" height="8.37"/><rect class="cls-2" x="1350.87" y="1023.74" width="10.07" height="8.37"/><polygon class="cls-2" points="1348.89 1046.99 1298.8 1046.99 1298.8 1053.5 1260.74 1053.5 1260.74 1061.87 1298.8 1061.87 1298.8 1054.43 1319.23 1054.43 1319.23 1061.46 1342.96 1061.46 1342.96 1054.43 1348.89 1054.43 1348.89 1061.87 1360.94 1061.87 1360.94 1053.5 1348.89 1053.5 1348.89 1046.99"/><polygon class="cls-2" points="1300.29 983.33 1260.74 983.33 1260.74 1002.34 1298.8 1002.34 1298.8 993.97 1350.87 993.97 1350.87 1002.34 1298.8 1002.34 1298.8 1008.85 1350.87 1008.85 1350.87 1017.23 1360.94 1017.23 1360.94 983.33 1360.94 983.33 1300.29 983.33"/><rect class="cls-2" x="1348.9" y="1068.38" width="12.05" height="8.37"/><rect class="cls-2" x="1260.74" y="1008.85" width="38.05" height="8.37"/><rect class="cls-2" x="1260.74" y="1023.74" width="38.05" height="8.37"/><rect class="cls-2" x="1260.74" y="1038.62" width="38.05" height="8.37"/><rect class="cls-2" x="1298.79" y="1017.23" width="50.1" height="6.51"/><rect class="cls-2" x="1260.74" y="1068.38" width="38.05" height="8.37"/><rect class="cls-2" x="1298.79" y="1032.11" width="50.1" height="6.51"/><path class="cls-2" d="M1319.23,1061.46v51.9l.84.27v-17.76H1343v-34.41Z"/><polygon class="cls-2" points="1400.5 1012.58 1400.5 991.7 1413.99 991.7 1413.99 983.33 1387.97 983.33 1360.94 983.33 1360.94 1017.23 1384.49 1017.23 1384.49 1023.74 1360.94 1023.74 1360.94 1032.11 1384.49 1032.11 1384.49 1038.62 1360.94 1038.62 1360.94 1046.99 1384.49 1046.99 1384.49 1053.5 1360.94 1053.5 1360.94 1061.87 1384.49 1061.87 1384.49 1068.38 1360.94 1068.38 1360.94 1076.75 1384.49 1076.75 1384.49 1083.27 1360.94 1083.27 1360.94 1087.5 1387.97 1087.5 1400.31 1087.5 1400.31 1012.58 1400.5 1012.58"/><polygon class="cls-2" points="1489.49 1010.82 1413.99 1010.82 1413.99 991.7 1400.5 991.7 1400.5 1012.58 1404.27 1012.58 1404.27 1360.92 1411.59 1371.18 1457.8 1371.18 1458.28 1370.74 1458.21 1370.65 1458.33 1370.65 1458.33 1012.58 1474.81 1012.58 1474.81 1370.67 1474.7 1370.67 1474.78 1371.18 1497.4 1371.18 1497.4 1021.46 1489.49 1021.46 1489.49 1010.82"/><polygon class="cls-2" points="1575.85 1023.74 1579.62 1023.74 1579.62 1031.18 1575.85 1031.18 1575.85 1036.76 1579.62 1036.76 1579.62 1044.2 1575.85 1044.2 1575.85 1050.71 1579.62 1050.71 1579.62 1058.15 1575.85 1058.15 1575.85 1064.66 1579.62 1064.66 1579.62 1072.1 1575.85 1072.1 1575.85 1078.61 1579.62 1078.61 1579.62 1086.05 1575.85 1086.05 1575.85 1092.57 1579.62 1092.57 1579.62 1100.01 1575.85 1100.01 1575.85 1106.52 1579.62 1106.52 1579.62 1113.96 1575.85 1113.96 1575.85 1120.47 1579.62 1120.47 1579.62 1127.91 1575.85 1127.91 1575.85 1134.42 1579.62 1134.42 1579.62 1141.86 1575.85 1141.86 1575.85 1148.38 1579.62 1148.38 1579.62 1155.82 1575.85 1155.82 1575.85 1162.33 1579.62 1162.33 1579.62 1169.77 1575.85 1169.77 1575.85 1176.28 1579.62 1176.28 1579.62 1183.72 1575.85 1183.72 1575.85 1190.23 1579.62 1190.23 1579.62 1197.67 1575.85 1197.67 1575.85 1204.18 1579.62 1204.18 1579.62 1211.62 1575.85 1211.62 1575.85 1218.13 1579.62 1218.13 1579.62 1225.58 1575.85 1225.58 1575.85 1232.09 1579.62 1232.09 1579.62 1239.53 1575.85 1239.53 1575.85 1245.11 1582.26 1245.11 1582.26 1257.72 1584.42 1257.72 1584.42 1012.24 1575.85 1012.24 1575.85 1023.74"/><polygon class="cls-2" points="1511.9 1245.11 1511.9 1239.53 1509.09 1239.53 1509.09 1232.09 1511.9 1232.09 1511.9 1225.58 1509.09 1225.58 1509.09 1218.13 1511.9 1218.13 1511.9 1211.62 1509.09 1211.62 1509.09 1204.18 1511.9 1204.18 1511.9 1197.67 1509.09 1197.67 1509.09 1190.23 1511.9 1190.23 1511.9 1183.72 1509.09 1183.72 1509.09 1176.28 1511.9 1176.28 1511.9 1169.77 1509.09 1169.77 1509.09 1162.33 1511.9 1162.33 1511.9 1155.82 1509.09 1155.82 1509.09 1148.38 1511.9 1148.38 1511.9 1141.86 1509.09 1141.86 1509.09 1134.42 1511.9 1134.42 1511.9 1127.91 1509.09 1127.91 1509.09 1120.47 1511.9 1120.47 1511.9 1113.96 1509.09 1113.96 1509.09 1106.52 1511.9 1106.52 1511.9 1100.01 1509.09 1100.01 1509.09 1092.57 1511.9 1092.57 1511.9 1086.05 1509.09 1086.05 1509.09 1078.61 1511.9 1078.61 1511.9 1072.1 1509.09 1072.1 1509.09 1064.66 1511.9 1064.66 1511.9 1058.15 1509.09 1058.15 1509.09 1050.71 1511.9 1050.71 1511.9 1044.2 1509.09 1044.2 1509.09 1036.76 1511.9 1036.76 1511.9 1031.18 1509.09 1031.18 1509.09 1023.74 1511.9 1023.74 1511.9 1021.46 1504.65 1021.46 1504.65 1257.72 1506.45 1257.72 1506.45 1245.11 1511.9 1245.11"/><polygon class="cls-2" points="1511.9 1010.82 1489.49 1010.82 1489.49 1021.46 1497.4 1021.46 1504.65 1021.46 1511.9 1021.46 1511.9 1010.82"/><rect class="cls-2" x="1819.1" y="1044.2" width="3.3" height="0.51"/><rect class="cls-2" x="1584.42" y="1012.24" width="5.09" height="42.71"/><path class="cls-2" d="M1913.85,1012.58v-.34H1771.48v1.26h-6.62v-1.26h-8.57v1.26h-14.5v-1.26h-8.54v1.26h-6.62v-1.26h-43.37a3.51,3.51,0,0,1-1.46.34H1666a3.51,3.51,0,0,1-1.46-.34h-6.93v12.63a3.42,3.42,0,0,1,1.14-.2H1662c2.55,0,4.62,2.91,4.62,6.51s-2.07,6.51-4.62,6.51h-3.29a3.43,3.43,0,0,1-1.14-.21v11.89h17.53a4.49,4.49,0,0,1,3.71-2.38h0a4.49,4.49,0,0,1,3.71,2.38h44.08v-6.1h6.62v6.1h8.54v-6.1h14.5v6.1h8.57v-6.1h6.62v6.1H1773V1055h9.27a8,8,0,0,1-.23-1.92c0-3.34,1.92-6,4.29-6h3.81v-8.79h25.44v-.51h6.86v-4.14h37.39v-8.88h9.89v8.88h13.37V1055h44.82v-42.37Zm-180.6,25.11h-6.62v-6.51h6.62Zm0-12.09h-6.62v-6.51h6.62Zm23,12.09h-14.5v-6.51h14.5Zm0-12.09h-14.5v-6.51h14.5Zm15.19,12.09h-6.62v-6.51h6.62Zm0-12.09h-6.62v-6.51h6.62Zm31.62.93c0,4.11-2.36,7.44-5.27,7.44h0c-2.91,0-5.27-3.33-5.27-7.44v-5.59c0-4.1,2.36-7.44,5.27-7.44h0c2.91,0,5.27,3.34,5.27,7.44Zm47.9,5.58h-35.46v-6.51H1851Zm42.41,14.41c0,1.8-1,3.26-2.31,3.26s-2.3-1.46-2.3-3.26v-8.37c0-1.79,1-3.25,2.3-3.25s2.31,1.46,2.31,3.25Zm14.5,1.4c0,3.59-2.06,6.51-4.61,6.51s-4.62-2.92-4.62-6.51v-1.86c0-3.6,2.07-6.51,4.62-6.51s4.61,2.91,4.61,6.51Z"/><path class="cls-2" d="M1655,1049.37h2.63v-11.89c-2-.72-3.48-3.26-3.48-6.3s1.48-5.59,3.48-6.31v-12.63h-27.87v322.59H1591v3.74h66.58V1082.85H1655Z"/><path class="cls-2" d="M1771.48,1049.37v.41h-6.62v-.41h-8.57v.41h-14.5v-.41h-8.54v.41h-1.82v5.58h1.82v6.51h-1.82v5.58h1.82V1074h-1.82v5.58h1.82v6.51h-5.12v5.59h5.12v6.51h-5.12v5.58h5.12v6.51h-5.12v5.58h5.12v6.51h-5.12v5.58h5.12v6.51h-5.12V1140h5.12v6.51h-5.12v5.58h5.12v6.51h-5.12v5.59h5.12v6.51h-5.12v5.58h5.12v6.51h-5.12v5.58h5.12v6.51h-5.12v5.58h5.12V1207h-5.12v5.58h5.12v6.51h-5.12v5.58h5.12v6.51h-5.12v5.59h5.12v6.51h-5.12v5.58h5.12v6.51h-5.12v5.58h5.12v6.51h-5.12V1273h5.12v6.51h-5.12v5.58h5.12v.52h3.27v-.52h.84V1076.34H1765v3.2h6.44v6.51H1765v5.59h6.44v6.51H1765v5.58h6.44v6.51H1765v5.58h6.44v6.51H1765v5.58h6.44v6.51H1765V1140h6.44v6.51H1765v5.58h6.44v6.51H1765v5.59h6.44v6.51H1765v5.58h6.44v6.51H1765v5.58h6.44v6.51H1765v5.58h6.44V1207H1765v5.58h6.44v6.51H1765v5.58h6.44v6.51H1765v5.59h6.44v6.51H1765v5.58h6.44v6.51H1765v5.58h6.44v6.51H1765V1273h6.44v6.51H1765v5.58h6.44v.52H1773V1049.37ZM1756.29,1074h-14.5v-6.51h14.5Zm0-12.09h-14.5v-6.51h14.5Zm15.19,12.09h-6.62v-6.51h6.62Zm0-12.09h-6.62v-6.51h6.62Z"/><path class="cls-2" d="M1761.57,1285.62h3.29v-.52h.18v-5.58h-.18V1273h.18v-5.58h-.18v-6.51h.18v-5.58h-.18v-6.51h.18v-5.58h-.18v-6.51h.18v-5.59h-.18v-6.51h.18v-5.58h-.18v-6.51h.18V1207h-.18v-6.51h.18v-5.58h-.18v-6.51h.18v-5.58h-.18v-6.51h.18v-5.58h-.18v-6.51h.18v-5.59h-.18v-6.51h.18v-5.58h-.18V1140h.18v-5.58h-.18v-6.51h.18v-5.58h-.18v-6.51h.18v-5.58h-.18v-6.51h.18v-5.58h-.18v-6.51h.18v-5.59h-.18v-6.51h.18v-3.2h-27.68V1285.1h24.21Zm-5.28-6.1h-14.5V1273h14.5Zm0-12.09h-14.5v-6.51h14.5Zm0-12.09h-14.5v-6.51h14.5Zm0-12.09h-14.5v-6.51h14.5Zm0-12.1h-14.5v-6.51h14.5Zm0-12.09h-14.5v-6.51h14.5Zm0-12.09h-14.5v-6.51h14.5Zm0-12.09h-14.5v-6.51h14.5Zm0-12.09h-14.5v-6.51h14.5Zm0-12.09h-14.5v-6.51h14.5Zm0-12.1h-14.5v-6.51h14.5Zm0-12.09h-14.5V1140h14.5Zm0-12.09h-14.5v-6.51h14.5Zm0-12.09h-14.5v-6.51h14.5Zm0-12.09h-14.5v-6.51h14.5Zm0-12.09h-14.5v-6.51h14.5Zm0-12.1h-14.5v-6.51h14.5Z"/><path class="cls-2" d="M1731.43,1079.54V1074h-4.8v-6.51h4.8v-5.58h-4.8v-6.51h4.8v-5.58h-4.8v-.41h-44.08a8.76,8.76,0,0,1,1.23,4.59v3.73c0,3.85-2.21,7-4.94,7h0c-2.73,0-4.94-3.12-4.94-7V1054a8.76,8.76,0,0,1,1.23-4.59H1655v33.48h33v-16.74h29v16.74h9.71v-3.31Z"/><path class="cls-2" d="M1687.92,1066.11v33.48h29v-33.48Zm9,30.18v-27.91h13.19v27.91Z"/><polygon class="cls-2" points="1815.54 1068.38 1815.54 1061.87 1815.81 1061.87 1815.81 1056.29 1815.54 1056.29 1815.54 1049.78 1815.81 1049.78 1815.81 1044.71 1819.1 1044.71 1819.1 1044.2 1815.54 1044.2 1815.54 1038.2 1790.1 1038.2 1790.1 1046.99 1798.67 1046.99 1798.67 1044.72 1810.53 1044.72 1810.53 1071.69 1815.81 1071.69 1815.81 1068.38 1815.54 1068.38"/><rect class="cls-2" x="1790.1" y="1059.08" width="8.57" height="12.61"/><path class="cls-2" d="M1810.53,1044.72h-11.86V1047h.14c2.37,0,4.29,2.7,4.29,6s-1.92,6-4.29,6h-.14v28.42h11.86v-42.78Z"/><polygon class="cls-2" points="1819.1 1071.69 1819.1 1068.38 1815.81 1068.38 1815.81 1071.69 1815.81 1073.96 1819.1 1073.96 1819.1 1071.69"/><polygon class="cls-2" points="1822.4 1049.78 1822.4 1044.71 1819.1 1044.71 1815.81 1044.71 1815.81 1049.78 1822.4 1049.78"/><polygon class="cls-2" points="1819.1 1060.53 1822.4 1060.53 1822.4 1056.29 1815.81 1056.29 1815.81 1061.87 1819.1 1061.87 1819.1 1060.53"/><rect class="cls-2" x="1819.1" y="1060.53" width="3.3" height="1.34"/><polygon class="cls-2" points="1822.4 1068.38 1819.1 1068.38 1819.1 1071.69 1819.1 1073.96 1822.4 1073.96 1822.4 1071.69 1822.4 1068.38"/><polygon class="cls-2" points="1851 1044.2 1822.4 1044.2 1822.4 1044.71 1822.4 1049.78 1851 1049.78 1851 1056.29 1822.4 1056.29 1822.4 1060.53 1822.4 1061.87 1851 1061.87 1851 1068.38 1822.4 1068.38 1822.4 1071.69 1822.4 1073.96 1851 1073.96 1851 1080.47 1822.4 1080.47 1822.4 1085.28 1851 1085.28 1851 1091.79 1822.4 1091.79 1822.4 1097.22 1851 1097.22 1851 1103.73 1822.4 1103.73 1822.4 1109.15 1851 1109.15 1851 1115.66 1822.4 1115.66 1822.4 1121.09 1851 1121.09 1851 1127.6 1822.4 1127.6 1822.4 1133.03 1851 1133.03 1851 1139.54 1822.4 1139.54 1822.4 1144.96 1851 1144.96 1851 1151.47 1822.4 1151.47 1822.4 1156.9 1851 1156.9 1851 1163.41 1822.4 1163.41 1822.4 1168.84 1851 1168.84 1851 1175.35 1822.4 1175.35 1822.4 1180.77 1851 1180.77 1851 1187.28 1822.4 1187.28 1822.4 1192.71 1851 1192.71 1851 1199.22 1822.4 1199.22 1822.4 1204.65 1851 1204.65 1851 1211.16 1822.4 1211.16 1822.4 1216.58 1851 1216.58 1851 1223.09 1822.4 1223.09 1822.4 1228.52 1851 1228.52 1851 1235.03 1822.4 1235.03 1822.4 1240.46 1851 1240.46 1851 1246.97 1822.4 1246.97 1822.4 1252.39 1851 1252.39 1851 1258.9 1822.4 1258.9 1822.4 1263.71 1851 1263.71 1851 1270.22 1822.4 1270.22 1822.4 1275.8 1851 1275.8 1851 1282.31 1822.4 1282.31 1822.4 1287.89 1851 1287.89 1851 1294.4 1822.4 1294.4 1822.4 1299.99 1851 1299.99 1851 1306.5 1822.4 1306.5 1822.4 1312.08 1851 1312.08 1851 1314.45 1859.79 1314.45 1859.79 1033.55 1822.4 1033.55 1822.4 1037.69 1851 1037.69 1851 1044.2"/><polygon class="cls-2" points="1869.68 1033.55 1869.68 1315.8 1867.52 1318.02 1883.05 1318.04 1883.05 1054.95 1883.05 1033.55 1869.68 1033.55"/><rect class="cls-2" x="1511.9" y="1058.15" width="63.94" height="6.51"/><rect class="cls-2" x="1511.9" y="1031.18" width="63.94" height="5.58"/><rect class="cls-2" x="1511.9" y="1072.1" width="63.94" height="6.51"/><rect class="cls-2" x="1511.9" y="1044.2" width="63.94" height="6.51"/><polygon class="cls-2" points="1511.9 1021.46 1511.9 1023.74 1575.85 1023.74 1575.85 1012.24 1515.06 1012.24 1515.06 1010.82 1511.9 1010.82 1511.9 1021.46"/><path class="cls-2" d="M1913.85,979.33h-13.19v7.2h-7.32v17.58H1843V986.53h-63.58v-7.2H1695v10.92h-51.42V979.33h-13.85v32.91h34.8c-1.83-.86-3.15-3.3-3.15-6.18,0-3.59,2.06-6.51,4.61-6.51h15.82c2.55,0,4.62,2.92,4.62,6.51,0,2.88-1.33,5.32-3.16,6.18h43.37V1007h6.62v5.25h8.54V1007h14.5v5.25h8.57V1007h6.62v5.25h142.37Zm-146,17.43h-20.44c-3.09,0-5.6-3.54-5.6-7.9s2.51-7.91,5.6-7.91h20.44c3.09,0,5.6,3.54,5.6,7.91S1770.92,996.76,1767.83,996.76Z"/><polygon class="cls-2" points="1589.51 979.33 1552.59 979.33 1552.59 992.11 1537.25 992.11 1537.25 1010.82 1515.06 1010.82 1515.06 1012.24 1575.85 1012.24 1584.42 1012.24 1584.42 1012.24 1589.51 1012.24 1589.51 979.33"/><rect class="cls-2" x="1842.95" y="986.53" width="50.39" height="17.58"/><path class="cls-2" d="M1525.57,979.33h-45.49v5.81c0,4.36-2.51,7.9-5.6,7.9s-5.61-3.54-5.61-7.9v-5.81H1414v31.49h123.25V992.11h-11.68Z"/><polygon class="cls-2" points="922.76 979.33 922.76 1041.95 923.22 1041.95 933.11 1041.95 945.63 1041.95 958.82 1041.95 966.07 1041.95 981.89 1041.95 1016.85 1041.95 1016.85 979.33 922.76 979.33"/><path class="cls-2" d="M1124.1,983.74v-4.41h-20.23V1042h38.07c0-.33,0-.66,0-1V1013c0-4.88,2.8-8.84,6.26-8.84s6.26,4,6.26,8.84v27.9c0,.35,0,.68,0,1H1159V983.74Z"/><polygon class="cls-2" points="1172.88 1041.95 1172.88 979.33 1163.65 979.33 1163.65 1041.95 1172.41 1041.95 1172.88 1041.95"/><polygon class="cls-3" points="1103.87 1041.95 1103.87 979.33 1016.85 979.33 1016.85 1041.95 1016.85 1197.67 1018.08 1197.67 1103.87 1197.67 1103.87 1041.95"/><rect class="cls-3" x="1124.1" y="979.33" width="34.94" height="4.41"/><path class="cls-3" d="M1154.42,1013c0-4.88-2.8-8.84-6.26-8.84s-6.26,4-6.26,8.84v27.9c0,.35,0,.68,0,1,.36,4.41,3,7.83,6.22,7.83a4.49,4.49,0,0,0,1.1-.15c2.7-.67,4.81-3.79,5.12-7.68,0-.33,0-.66,0-1Z"/><polygon class="cls-3" points="1172.88 979.33 1172.88 1041.95 1172.88 1262.37 1172.88 1265.57 1180.79 1265.57 1180.79 1244.93 1180.79 979.33 1172.88 979.33"/><polygon class="cls-3" points="1163.65 1265.57 1163.65 1041.95 1163.65 979.33 1159.04 979.33 1159.04 983.74 1159.04 1041.95 1159.04 1265.57 1163.65 1265.57"/><polygon class="cls-3" points="1222.32 1280.4 1222.32 1262.37 1222.32 979.33 1209.15 979.33 1209.39 1262.37 1209.39 1269.36 1209.44 1324.79 1209.44 1329.1 1222.32 1309.29 1222.32 1304.66 1222.32 1280.4"/><polygon class="cls-3" points="1226.94 979.33 1226.94 1262.37 1226.94 1272.08 1234.85 1272.08 1234.85 1262.37 1234.85 979.33 1226.94 979.33"/><path class="cls-3" d="M1239.46,981v14.88c0,4.63,2.66,8.37,5.94,8.37s5.93-3.74,5.93-8.37V981a12.36,12.36,0,0,0-.11-1.62h-11.64A10.84,10.84,0,0,0,1239.46,981Z"/><polygon class="cls-3" points="1319.23 1119.54 1319.23 1113.36 1319.23 1061.46 1319.23 1054.43 1298.8 1054.43 1298.8 1061.87 1298.8 1061.87 1298.8 1068.38 1298.8 1068.38 1298.8 1076.75 1298.8 1076.75 1298.8 1083.27 1298.8 1083.27 1298.8 1091.64 1298.8 1091.64 1298.8 1098.15 1298.8 1098.15 1298.8 1119.54 1299.08 1119.54 1319.23 1119.54"/><polygon class="cls-3" points="1348.89 1133.49 1348.89 1128.84 1348.89 1124.19 1348.89 1115.82 1348.89 1109.31 1348.89 1098.15 1348.89 1091.64 1348.89 1083.27 1348.89 1076.75 1348.89 1068.38 1348.89 1061.87 1348.89 1054.43 1342.96 1054.43 1342.96 1061.46 1342.96 1095.87 1342.96 1133.49 1342.96 1207.9 1343.08 1207.9 1348.89 1207.9 1348.89 1133.49"/><polygon class="cls-3" points="1298.8 1076.75 1298.8 1076.75 1260.74 1076.75 1258.58 1076.75 1258.58 1083.27 1260.74 1083.27 1298.8 1083.27 1298.8 1083.27 1298.8 1076.75"/><polygon class="cls-3" points="1298.8 1068.38 1298.8 1061.87 1298.8 1061.87 1260.74 1061.87 1258.58 1061.87 1258.58 1068.38 1260.74 1068.38 1298.8 1068.38 1298.8 1068.38"/><polygon class="cls-3" points="1298.8 1046.99 1298.8 1046.99 1260.74 1046.99 1258.58 1046.99 1258.58 1053.5 1260.74 1053.5 1298.8 1053.5 1298.8 1046.99"/><polygon class="cls-3" points="1298.8 1038.62 1298.8 1038.62 1298.8 1032.11 1298.8 1032.11 1260.74 1032.11 1258.58 1032.11 1258.58 1038.62 1260.74 1038.62 1298.8 1038.62 1298.8 1038.62"/><polygon class="cls-3" points="1298.8 1023.74 1298.8 1017.23 1298.8 1017.23 1260.74 1017.23 1258.58 1017.23 1258.58 1023.74 1260.74 1023.74 1298.8 1023.74 1298.8 1023.74"/><polygon class="cls-3" points="1298.8 1008.85 1298.8 1002.34 1298.8 1002.34 1260.74 1002.34 1258.58 1002.34 1258.58 1008.85 1260.74 1008.85 1298.8 1008.85 1298.8 1008.85"/><polygon class="cls-3" points="1298.8 1038.62 1298.8 1038.62 1298.8 1038.62 1298.8 1046.99 1298.8 1046.99 1348.89 1046.99 1350.87 1046.99 1350.87 1038.62 1348.89 1038.62 1348.89 1038.62 1298.8 1038.62"/><polygon class="cls-3" points="1298.8 1023.74 1298.8 1023.74 1298.8 1032.11 1298.8 1032.11 1348.89 1032.11 1350.87 1032.11 1350.87 1023.74 1348.89 1023.74 1298.8 1023.74"/><polygon class="cls-3" points="1298.8 1017.23 1298.8 1017.23 1348.89 1017.23 1350.87 1017.23 1350.87 1008.85 1298.8 1008.85 1298.8 1008.85 1298.8 1017.23"/><polygon class="cls-3" points="1350.87 1002.34 1350.87 993.97 1298.8 993.97 1298.8 1002.34 1298.8 1002.34 1350.87 1002.34"/><polygon class="cls-3" points="1348.89 1083.27 1360.94 1083.27 1384.49 1083.27 1384.49 1076.75 1360.94 1076.75 1348.89 1076.75 1348.89 1083.27"/><polygon class="cls-3" points="1348.89 1068.38 1360.94 1068.38 1384.49 1068.38 1384.49 1061.87 1360.94 1061.87 1348.89 1061.87 1348.89 1068.38"/><polygon class="cls-3" points="1348.89 1046.99 1348.89 1053.5 1360.94 1053.5 1384.49 1053.5 1384.49 1046.99 1360.94 1046.99 1350.87 1046.99 1348.89 1046.99"/><polygon class="cls-3" points="1348.89 1032.11 1348.89 1038.62 1348.89 1038.62 1350.87 1038.62 1360.94 1038.62 1384.49 1038.62 1384.49 1032.11 1360.94 1032.11 1350.87 1032.11 1348.89 1032.11"/><polygon class="cls-3" points="1348.89 1017.23 1348.89 1023.74 1350.87 1023.74 1360.94 1023.74 1384.49 1023.74 1384.49 1017.23 1360.94 1017.23 1350.87 1017.23 1348.89 1017.23"/><polygon class="cls-3" points="1458.34 1370.67 1474.66 1370.67 1474.7 1370.67 1474.81 1370.67 1474.81 1012.58 1458.33 1012.58 1458.33 1370.65 1458.33 1370.67 1458.34 1370.67"/><polygon class="cls-3" points="1404.18 1360.8 1404.27 1360.92 1404.27 1012.58 1400.5 1012.58 1400.31 1012.58 1400.31 1087.5 1400.31 1370.65 1404.18 1360.8"/><path class="cls-3" d="M1474.48,993c3.09,0,5.6-3.54,5.6-7.9v-5.81h-11.21v5.81C1468.87,989.5,1471.38,993,1474.48,993Z"/><polygon class="cls-3" points="1525.57 979.33 1525.57 992.11 1537.25 992.11 1552.59 992.11 1552.59 979.33 1525.57 979.33"/><polygon class="cls-3" points="1509.09 1078.61 1509.09 1086.05 1511.9 1086.05 1575.85 1086.05 1579.62 1086.05 1579.62 1078.61 1575.85 1078.61 1511.9 1078.61 1509.09 1078.61"/><polygon class="cls-3" points="1509.09 1064.66 1509.09 1072.1 1511.9 1072.1 1575.85 1072.1 1579.62 1072.1 1579.62 1064.66 1575.85 1064.66 1511.9 1064.66 1509.09 1064.66"/><polygon class="cls-3" points="1509.09 1050.71 1509.09 1058.15 1511.9 1058.15 1575.85 1058.15 1579.62 1058.15 1579.62 1050.71 1575.85 1050.71 1511.9 1050.71 1509.09 1050.71"/><polygon class="cls-3" points="1509.09 1036.76 1509.09 1044.2 1511.9 1044.2 1575.85 1044.2 1579.62 1044.2 1579.62 1036.76 1575.85 1036.76 1511.9 1036.76 1509.09 1036.76"/><polygon class="cls-3" points="1509.09 1023.74 1509.09 1031.18 1511.9 1031.18 1575.85 1031.18 1579.62 1031.18 1579.62 1023.74 1575.85 1023.74 1511.9 1023.74 1509.09 1023.74"/><polygon class="cls-3" points="1629.72 1012.24 1629.72 979.33 1589.51 979.33 1589.51 1012.24 1589.51 1054.95 1589.51 1334.83 1591.01 1334.83 1629.72 1334.83 1629.72 1012.24"/><rect class="cls-3" x="1643.57" y="979.33" width="51.42" height="10.92"/><path class="cls-3" d="M1686.42,1006.06c0-3.59-2.07-6.51-4.62-6.51H1666c-2.55,0-4.61,2.92-4.61,6.51,0,2.88,1.32,5.32,3.15,6.18a3.51,3.51,0,0,0,1.46.34h15.82a3.51,3.51,0,0,0,1.46-.34C1685.09,1011.38,1686.42,1008.94,1686.42,1006.06Z"/><path class="cls-3" d="M1654.11,1031.18c0,3,1.48,5.58,3.48,6.3a3.43,3.43,0,0,0,1.14.21H1662c2.55,0,4.62-2.92,4.62-6.51s-2.07-6.51-4.62-6.51h-3.29a3.42,3.42,0,0,0-1.14.2C1655.59,1025.59,1654.11,1028.13,1654.11,1031.18Z"/><path class="cls-3" d="M1673.89,1057.69c0,3.85,2.21,7,4.94,7h0c2.73,0,4.94-3.12,4.94-7V1054a8.76,8.76,0,0,0-1.23-4.59,4.49,4.49,0,0,0-3.71-2.38h0a4.49,4.49,0,0,0-3.71,2.38,8.76,8.76,0,0,0-1.23,4.59Z"/><rect class="cls-3" x="1696.96" y="1068.38" width="13.18" height="27.9"/><rect class="cls-3" x="1741.79" y="1079.54" width="14.5" height="6.51"/><polygon class="cls-3" points="1764.86 1086.05 1765.05 1086.05 1771.48 1086.05 1771.48 1079.54 1765.05 1079.54 1764.86 1079.54 1764.86 1086.05"/><polygon class="cls-3" points="1733.24 1079.54 1731.43 1079.54 1726.63 1079.54 1726.63 1082.85 1726.63 1086.05 1728.13 1086.05 1733.24 1086.05 1733.24 1079.54"/><rect class="cls-3" x="1741.79" y="1067.45" width="14.5" height="6.51"/><rect class="cls-3" x="1764.86" y="1067.45" width="6.62" height="6.51"/><polygon class="cls-3" points="1726.63 1067.45 1726.63 1073.96 1731.43 1073.96 1733.24 1073.96 1733.24 1067.45 1731.43 1067.45 1726.63 1067.45"/><rect class="cls-3" x="1741.79" y="1055.36" width="14.5" height="6.51"/><polygon class="cls-3" points="1756.29 1049.78 1756.29 1049.37 1756.29 1043.27 1741.79 1043.27 1741.79 1049.37 1741.79 1049.78 1756.29 1049.78"/><rect class="cls-3" x="1764.86" y="1055.36" width="6.62" height="6.51"/><polygon class="cls-3" points="1771.48 1049.78 1771.48 1049.37 1771.48 1043.27 1764.86 1043.27 1764.86 1049.37 1764.86 1049.78 1771.48 1049.78"/><polygon class="cls-3" points="1726.63 1055.36 1726.63 1061.87 1731.43 1061.87 1733.24 1061.87 1733.24 1055.36 1731.43 1055.36 1726.63 1055.36"/><polygon class="cls-3" points="1731.43 1049.78 1733.24 1049.78 1733.24 1049.37 1733.24 1043.27 1726.63 1043.27 1726.63 1049.37 1726.63 1049.78 1731.43 1049.78"/><rect class="cls-3" x="1741.79" y="1031.18" width="14.5" height="6.51"/><rect class="cls-3" x="1764.86" y="1031.18" width="6.62" height="6.51"/><rect class="cls-3" x="1726.63" y="1031.18" width="6.62" height="6.51"/><rect class="cls-3" x="1741.79" y="1019.09" width="14.5" height="6.51"/><polygon class="cls-3" points="1741.79 1006.99 1741.79 1012.24 1741.79 1013.5 1756.29 1013.5 1756.29 1012.24 1756.29 1006.99 1741.79 1006.99"/><rect class="cls-3" x="1764.86" y="1019.09" width="6.62" height="6.51"/><polygon class="cls-3" points="1764.86 1006.99 1764.86 1012.24 1764.86 1013.5 1771.48 1013.5 1771.48 1012.24 1771.48 1006.99 1764.86 1006.99"/><rect class="cls-3" x="1726.63" y="1019.09" width="6.62" height="6.51"/><polygon class="cls-3" points="1726.63 1006.99 1726.63 1012.24 1726.63 1013.5 1733.24 1013.5 1733.24 1012.24 1733.24 1006.99 1726.63 1006.99"/><path class="cls-3" d="M1773.43,988.86c0-4.37-2.51-7.91-5.6-7.91h-20.44c-3.09,0-5.6,3.54-5.6,7.91s2.51,7.9,5.6,7.9h20.44C1770.92,996.76,1773.43,993.22,1773.43,988.86Z"/><path class="cls-3" d="M1798.81,1059.08c2.37,0,4.29-2.71,4.29-6s-1.92-6-4.29-6h-12.52c-2.37,0-4.29,2.7-4.29,6a8,8,0,0,0,.23,1.92c.56,2.4,2.17,4.13,4.06,4.13h12.52Z"/><path class="cls-3" d="M1797.83,1013.5h0c-2.91,0-5.27,3.34-5.27,7.44v5.59c0,4.11,2.36,7.44,5.27,7.44h0c2.91,0,5.27-3.33,5.27-7.44v-5.59C1803.1,1016.84,1800.74,1013.5,1797.83,1013.5Z"/><polygon class="cls-3" points="1842.95 986.53 1893.34 986.53 1900.66 986.53 1900.66 979.33 1881.55 979.33 1881.55 980.95 1868.36 980.95 1868.36 979.33 1856.49 979.33 1856.49 980.95 1812.33 980.95 1812.33 979.33 1792.55 979.33 1792.55 980.95 1782 980.95 1782 979.33 1779.37 979.33 1779.37 986.53 1842.95 986.53"/><rect class="cls-3" x="1782" y="979.33" width="10.55" height="1.62"/><rect class="cls-3" x="1812.33" y="979.33" width="44.17" height="1.62"/><rect class="cls-3" x="1868.36" y="979.33" width="13.18" height="1.62"/><polygon class="cls-3" points="1934.28 979.33 1913.85 979.33 1913.85 1012.24 1913.85 1012.58 1927.87 1012.58 1934.28 1012.58 1934.28 1012.24 1934.28 979.33"/><polygon class="cls-3" points="1822.4 1080.47 1851 1080.47 1851 1073.96 1822.4 1073.96 1819.1 1073.96 1815.81 1073.96 1815.54 1073.96 1815.54 1080.47 1815.81 1080.47 1819.1 1080.47 1822.4 1080.47"/><polygon class="cls-3" points="1851 1068.38 1851 1061.87 1822.4 1061.87 1819.1 1061.87 1815.81 1061.87 1815.54 1061.87 1815.54 1068.38 1815.81 1068.38 1819.1 1068.38 1822.4 1068.38 1851 1068.38"/><polygon class="cls-3" points="1822.4 1056.29 1851 1056.29 1851 1049.78 1822.4 1049.78 1815.81 1049.78 1815.54 1049.78 1815.54 1056.29 1815.81 1056.29 1822.4 1056.29"/><polygon class="cls-3" points="1819.1 1044.2 1822.4 1044.2 1851 1044.2 1851 1037.69 1822.4 1037.69 1815.54 1037.69 1815.54 1038.2 1815.54 1044.2 1819.1 1044.2"/><polygon class="cls-3" points="1859.79 1314.45 1859.79 1315.8 1858.19 1318 1852.14 1326.35 1845.26 1335.85 1830.72 1355.89 1848.77 1337.32 1850.2 1335.85 1852.14 1333.85 1867.52 1318.02 1869.68 1315.8 1869.68 1033.55 1869.68 1024.66 1859.79 1024.66 1859.79 1033.55 1859.79 1314.45"/><rect class="cls-3" x="1815.54" y="1025.6" width="35.46" height="6.51"/><path class="cls-3" d="M1891.1,1034.9c-1.27,0-2.3,1.46-2.3,3.25v8.37c0,1.8,1,3.26,2.3,3.26s2.31-1.46,2.31-3.26v-8.37C1893.41,1036.36,1892.38,1034.9,1891.1,1034.9Z"/><path class="cls-3" d="M1903.3,1039.55c-2.55,0-4.62,2.91-4.62,6.51v1.86c0,3.59,2.07,6.51,4.62,6.51s4.61-2.92,4.61-6.51v-1.86C1907.91,1042.46,1905.85,1039.55,1903.3,1039.55Z"/><path class="cls-6" d="M1138.83,14.52a1.5,1.5,0,0,0,0-3,1.5,1.5,0,0,0,0,3Z"/></g><g id="water"><rect class="cls-7" x="-68.5" y="1001" width="2692" height="281"/><rect class="cls-8" x="-68.5" y="1001" width="2692" height="281"/></g><g id="steamboat-top"><rect class="cls-9" x="893.84" y="887.11" width="48.23" height="21.92"/><rect class="cls-9" x="876.67" y="909.03" width="114.72" height="33.61"/><rect class="cls-9" x="804.69" y="942.65" width="271.1" height="33.61"/><rect class="cls-9" x="783.5" y="976.26" width="292.29" height="33.61"/><rect class="cls-9" x="765.97" y="1009.88" width="309.83" height="33.61"/><rect class="cls-9" x="836.12" y="854.23" width="18.63" height="88.42"/><rect class="cls-3" x="781.31" y="1016.82" width="13.88" height="16.44" rx="6.94"/><rect class="cls-3" x="805.79" y="1016.82" width="13.88" height="16.44" rx="6.94"/><rect class="cls-3" x="830.27" y="1016.82" width="13.88" height="16.44" rx="6.94"/><rect class="cls-3" x="854.75" y="1016.82" width="13.88" height="16.44" rx="6.94"/><rect class="cls-3" x="879.23" y="1016.82" width="13.88" height="16.44" rx="6.94"/><rect class="cls-3" x="903.71" y="1016.82" width="13.88" height="16.44" rx="6.94"/><rect class="cls-3" x="928.19" y="1016.82" width="13.88" height="16.44" rx="6.94"/><rect class="cls-3" x="952.67" y="1016.82" width="13.88" height="16.44" rx="6.94"/><rect class="cls-3" x="977.15" y="1016.82" width="13.88" height="16.44" rx="6.94"/><rect class="cls-3" x="1001.63" y="1016.82" width="13.88" height="16.44" rx="6.94"/><rect class="cls-3" x="1026.11" y="1016.82" width="13.88" height="16.44" rx="6.94"/><rect class="cls-3" x="1050.59" y="1016.82" width="13.88" height="16.44" rx="6.94"/><rect class="cls-3" x="798.48" y="983.57" width="13.88" height="16.44" rx="6.94"/><rect class="cls-3" x="822.96" y="983.57" width="13.88" height="16.44" rx="6.94"/><rect class="cls-3" x="847.44" y="983.57" width="13.88" height="16.44" rx="6.94"/><rect class="cls-3" x="871.92" y="983.57" width="13.88" height="16.44" rx="6.94"/><rect class="cls-3" x="896.4" y="983.57" width="13.88" height="16.44" rx="6.94"/><rect class="cls-3" x="920.88" y="983.57" width="13.88" height="16.44" rx="6.94"/><rect class="cls-3" x="945.36" y="983.57" width="13.88" height="16.44" rx="6.94"/><rect class="cls-3" x="969.84" y="983.57" width="13.88" height="16.44" rx="6.94"/><rect class="cls-3" x="994.32" y="983.57" width="13.88" height="16.44" rx="6.94"/><rect class="cls-3" x="1018.8" y="983.57" width="13.88" height="16.44" rx="6.94"/><rect class="cls-3" x="1043.28" y="983.57" width="13.88" height="16.44" rx="6.94"/><rect class="cls-3" x="814.56" y="950.69" width="13.88" height="16.44" rx="6.94"/><rect class="cls-3" x="839.04" y="950.69" width="13.88" height="16.44" rx="6.94"/><rect class="cls-3" x="863.52" y="950.69" width="13.88" height="16.44" rx="6.94"/><rect class="cls-3" x="888" y="950.69" width="13.88" height="16.44" rx="6.94"/><rect class="cls-3" x="912.48" y="950.69" width="13.88" height="16.44" rx="6.94"/><rect class="cls-3" x="936.96" y="950.69" width="13.88" height="16.44" rx="6.94"/><rect class="cls-3" x="961.44" y="950.69" width="13.88" height="16.44" rx="6.94"/><rect class="cls-3" x="985.92" y="950.69" width="13.88" height="16.44" rx="6.94"/><rect class="cls-3" x="1010.4" y="950.69" width="13.88" height="16.44" rx="6.94"/><rect class="cls-3" x="1034.87" y="950.69" width="13.88" height="16.44" rx="6.94"/><rect class="cls-3" x="1059.35" y="950.69" width="13.88" height="16.44" rx="6.94"/><rect class="cls-3" x="889.09" y="917.8" width="13.88" height="16.44" rx="6.94"/><rect class="cls-3" x="913.57" y="917.8" width="13.88" height="16.44" rx="6.94"/><rect class="cls-3" x="938.05" y="917.8" width="13.88" height="16.44" rx="6.94"/><rect class="cls-3" x="962.53" y="917.8" width="13.88" height="16.44" rx="6.94"/><rect class="cls-3" x="900.05" y="892.96" width="13.88" height="11.69" rx="5.85"/><rect class="cls-3" x="924.53" y="892.96" width="13.88" height="11.69" rx="5.85"/><rect x="756.47" y="1006.95" width="324.44" height="5.85"/><rect x="774.37" y="973.34" width="306.54" height="5.85"/><rect x="795.93" y="941.19" width="284.99" height="5.85"/><rect x="868.27" y="906.11" width="129.34" height="5.85"/><rect x="886.9" y="884.19" width="61.75" height="5.85"/><path d="M1050.57,1056.64c42.73-13.36,58.11-30,58.11-30H1039L1007.87,1038l-209.31,1.09-105.67-12.42s25.59,16.6,80.54,30Z"/><circle class="cls-10" cx="849.91" cy="836.37" r="12.13"/><circle class="cls-11" cx="872.31" cy="820.51" r="13.06"/><circle class="cls-10" cx="899.37" cy="802.78" r="14"/><circle class="cls-12" cx="931.09" cy="784.12" r="17.73"/></g></svg>