<?xml version="1.0" encoding="utf-8"?>
<!-- Generator: Adobe Illustrator 23.0.4, SVG Export Plug-In . SVG Version: 6.00 Build 0)  -->
<svg version="1.1" xmlns="http://www.w3.org/2000/svg" xmlns:xlink="http://www.w3.org/1999/xlink" x="0px" y="0px"
	 viewBox="0 0 1642.5 1000" style="enable-background:new 0 0 1642.5 1000;" xml:space="preserve">
<style type="text/css">
	.st0{fill:#EFF8FF;}
	.st1{opacity:8.400000e-02;fill:#566ECF;enable-background:new    ;}
	.st2{fill:#25497A;}
	.st3{fill:#4497FF;}
	.st4{fill:#566ED1;}
	.st5{fill:#B7DFE6;}
	.st6{fill:#FF9696;}
	.st7{fill:#FF6D6D;}
	.st8{fill:#FFAD6A;}
	.st9{fill:#FF9A6A;}
	.st10{fill:#3865A9;}
	.st11{fill:#66AAFF;}
</style>
<g id="Layer_1">
	<g id="_95RfKd.tif">
		<rect id="sky" x="0.7" y="0.4" class="st0" width="1641.1" height="999.2"/>
	</g>
	<path id="路径_1819_2_" class="st1" d="M1919,1000.5V610.1h-6.9v17.8h-9.1v235.7h-23.6V503.5h-9.1v-23.7H1821h0.1l0,0h49.4
		l-31-92l0.1-0.4l-0.2,0.1l0,0l0,0l-74.7,31.5l-25.5,85h-0.1v22.7l-7.9,2.3v182.9H1662v87.7h-9.9v-32h-16.7v32h-9.9V459.7l0.2-0.1
		L1590.1,296l-72.9,21.4l-44.5,174.2l0,0v302h-9.1v-22.5H1439V701h-16v-97.6c0-0.3,0-0.7,0-1c0-21.6-8.5-40.1-20.5-47.9v-21.6
		c0-8.6-3.5-15.9-8.4-18.6v-18.9h-10v19.7c-4.2,3.2-7.1,10-7.1,17.8v21.9c-11.8,8-20,26.3-19.8,47.6c0,0.1,0,0.3,0,0.4h-0.1V701
		h-19.3l-11.7,28.4l-89.2-68v-38h-13v38.1l-89.2,68L1123,701h-19.3v-98.2h-0.1c0-0.1,0-0.3,0-0.4c0.1-21.3-8-39.6-19.8-47.6v-21.9
		c0-7.8-2.9-14.5-7.1-17.8v-19.7h-10v18.9c-4.9,2.8-8.4,10.1-8.4,18.6v21.6c-12,7.8-20.5,26.3-20.5,47.9c0,0.5,0,1,0,1.5V701h-16.1
		v92.7h-13.6V618.4H857v175.3h-13V521.2h-20.5v-26.1l-14.4-26.3h-16.6l-22.4,38.6v23.8l0.2,0.2v25.3h-13.7v222.7h-12.9V757h-9.1
		v22.5h-6.1V645.6h-0.1c0-13.1-4.7-29.2-17.3-40.9c-8.8-8.2-21.4-10-28.3-4.8v-51.4h-0.2c0-0.3,0-0.6,0-0.9
		c-0.5-16.5-7.6-32.2-19.7-43.5c-12.9-12-32.6-12.8-35.3,0.6h-0.3v2.6c0,0.3,0,0.5,0,0.8s0,0.6,0,0.9v106c-2.9-7-7.2-13.4-12.8-18.6
		c-12.6-11.8-33-10.4-33.2,5.9c-0.1,3.8,0.2,7.5,0.8,11.3h-0.4v165.8h-14.4V418.2h0.2L555.3,382l-42.8-45.6l-47.7,53.4l-9.8,28.5
		h0.6v445.4h-8.4v-301h-8.4v-11.8h-73.7v11.8h-9.9v328.1l0,0v-69.9h-7.6V527.2h-76.8v258.2h-35v-21.3h-33.4v21.3h-12.9V527.2h6.8
		v-29.6h-17.5v-34.4H147v34.4h-16.7v29.6h7.6V821h-19.8v-21.3h-9.9v-20.1H94.6v20.1h-6.1V490.4h3.8v-27.2h-7.6V443h-3.8v-14.2H50.5
		V443h-3.8v20.1h-0.1v-20.5l-35.9,43.2H11v335.1H-2.8l3.5,179.6H1919z"/>
</g>
<g id="Layer_2">
	<path class="st2" d="M272.4,507.5c0,0-52.1,71.8-65.2,89.9s22.2,9.5,22.2,9.5s-15.7,9.3-32.9,42.4c-11.7,22.5,46.2,0,46.2,0
		s-71.2,61.9-40.5,48.7s52.1-26.4,52.1-26.4s-80.3,64.5-56.4,61.1c23.8-3.4,39.5-4.6,39.5-4.6s-78.7,40-45.8,40s66.5-17.3,66.5-17.3
		s-94.1,69.9-64,65.9c30.1-4,80.9-12.3,80.9-12.3s94.1,55.6,82.8,21s-62.1-62.2-62.1-62.2s93.4,33.8,68.4,18.1s-59.6-53.2-59.6-53.2
		s72.1,15.4,53.9,0c-18.2-15.4-62.1-40.8-62.1-40.8s60.2,30.6,47,15.7c-13.2-14.9-45.8-65.6-45.8-65.6s89.1,59.8,60.8,20.2
		c-28.2-39.6-58.7-72.8-58.7-72.8s60,17.6,33.6-5.5C306.9,556.1,272.4,507.5,272.4,507.5z"/>
	<path class="st2" d="M543.1,709.1c0,0-30.5,32-38.2,40.1c-7.7,8.1,13,4.3,13,4.3s-30,18.5-25,29.2c5,10.7,24.1-5.1,24.1-5.1
		S483.9,800,502,794.1s30.5-11.8,30.5-11.8s-47.1,28.7-33.1,27.2c14-1.5,23.2-2,23.2-2s-46.1,17.8-26.8,17.8s39-7.7,39-7.7
		s-55.2,31.1-37.5,29.4c17.6-1.8,47.4-5.5,47.4-5.5s55.2,24.8,48.5,9.3s-36.4-27.7-36.4-27.7s54.8,15.1,40.1,8.1
		c-14.7-7-34.9-23.7-34.9-23.7s42.3,6.9,31.6,0s-36.4-18.2-36.4-18.2s35.3,13.6,27.6,7c-7.7-6.6-26.8-29.2-26.8-29.2
		s52.2,26.6,35.7,9c-16.5-17.6-34.4-32.5-34.4-32.5s35.1,7.8,19.7-2.5S543.1,709.1,543.1,709.1z"/>
	<rect x="266.3" y="770.5" class="st2" width="14.9" height="114.9"/>
	<rect x="538.3" y="832.1" class="st2" width="6.8" height="67.5"/>
	<path class="st2" d="M1593.7,684c0,0,21.7,24.7,27.2,30.9c5.5,6.2-9.2,3.3-9.2,3.3s21.3,14.3,17.8,22.5s-17.1-4-17.1-4
		s23.5,17.3,10.7,12.8c-12.8-4.5-21.7-9.1-21.7-9.1s33.4,22.2,23.5,21c-9.9-1.2-16.5-1.6-16.5-1.6s32.8,13.7,19.1,13.7
		s-27.7-6-27.7-6s39.2,24,26.6,22.6c-12.5-1.4-33.7-4.2-33.7-4.2s-39.2,19.1-34.5,7.2c4.7-11.9,25.9-21.4,25.9-21.4
		s-38.9,11.6-28.5,6.2c10.5-5.4,24.8-18.3,24.8-18.3s-30,5.3-22.5,0c7.6-5.3,25.9-14,25.9-14s-25.1,10.5-19.6,5.4
		c5.5-5.1,19.1-22.5,19.1-22.5s-37.1,20.5-25.3,6.9c11.8-13.6,24.5-25,24.5-25s-25,6-14-1.9C1579.3,700.7,1593.7,684,1593.7,684z"/>
	<path class="st2" d="M1472.8,723c0,0,21.7,24.7,27.2,30.9c5.5,6.2-9.2,3.3-9.2,3.3s21.3,14.3,17.8,22.5s-17.1-4-17.1-4
		s23.5,17.3,10.7,12.8s-21.7-9.1-21.7-9.1s33.4,22.2,23.5,21s-16.5-1.6-16.5-1.6s32.8,13.7,19.1,13.7c-13.7,0-27.7-6-27.7-6
		s39.2,24,26.6,22.6c-12.5-1.4-33.7-4.2-33.7-4.2s-39.2,19.1-34.5,7.2s25.9-21.4,25.9-21.4s-38.9,11.6-28.5,6.2
		c10.5-5.4,24.8-18.3,24.8-18.3s-30,5.3-22.5,0c7.6-5.3,25.9-14,25.9-14s-25.1,10.5-19.6,5.4c5.5-5.1,19.1-22.5,19.1-22.5
		s-37.1,20.5-25.3,6.9c11.8-13.6,24.5-25,24.5-25s-25,6-14-1.9C1458.4,739.7,1472.8,723,1472.8,723z"/>
	<path class="st2" d="M985.2,757.2c0,0,21.7,24.7,27.2,30.9s-9.2,3.3-9.2,3.3s21.3,14.3,17.8,22.5c-3.5,8.2-17.1-4-17.1-4
		s23.5,17.3,10.7,12.8s-21.7-9.1-21.7-9.1s33.4,22.2,23.5,21c-9.9-1.2-16.5-1.6-16.5-1.6s32.8,13.7,19.1,13.7c-13.7,0-27.7-6-27.7-6
		s39.2,24,26.6,22.6c-12.5-1.4-33.7-4.2-33.7-4.2s-39.2,19.1-34.5,7.2c4.7-11.9,25.9-21.4,25.9-21.4s-38.9,11.6-28.5,6.2
		c10.5-5.4,24.8-18.3,24.8-18.3s-30,5.3-22.5,0s25.9-14,25.9-14s-25.1,10.5-19.6,5.4c5.5-5.1,19.1-22.5,19.1-22.5
		s-37.1,20.5-25.3,6.9s24.5-25,24.5-25s-25,6-14-1.9C970.9,773.9,985.2,757.2,985.2,757.2z"/>
	<path class="st2" d="M861.2,765.2c0,0,21.7,24.7,27.2,30.9s-9.2,3.3-9.2,3.3s21.3,14.3,17.8,22.5c-3.5,8.2-17.1-4-17.1-4
		s23.5,17.3,10.7,12.8s-21.7-9.1-21.7-9.1s33.4,22.2,23.5,21c-9.9-1.2-16.5-1.6-16.5-1.6s32.8,13.7,19.1,13.7c-13.7,0-27.7-6-27.7-6
		s39.2,24,26.6,22.6c-12.5-1.4-33.7-4.2-33.7-4.2s-39.2,19.1-34.5,7.2c4.7-11.9,25.9-21.4,25.9-21.4s-38.9,11.6-28.5,6.2
		c10.5-5.4,24.8-18.3,24.8-18.3s-30,5.3-22.5,0s25.9-14,25.9-14s-25.1,10.5-19.6,5.4c5.5-5.1,19.1-22.5,19.1-22.5
		s-37.1,20.5-25.3,6.9c11.8-13.6,24.5-25,24.5-25s-25,6-14-1.9C846.8,782,861.2,765.2,861.2,765.2z"/>
	<path class="st3" d="M-244.2,877.2c-1.1,0.7,49.5-43.2,235.3-48.8c185.7-5.6,285.5,40.4,453.3,29.8S734.9,909,850,937.8
		c115.1,28.8,161.2,77.5,226.9,84.6c65.8,7.2-1377-11.2-1377-11.2L-244.2,877.2z"/>
	<rect x="669.2" y="893.6" class="st4" width="6.8" height="67.5"/>
	<path class="st5" d="M1704.2,850.1c1,1.2-47-68.5-223.6-77.3c-176.5-8.9-271.3,64.1-430.8,47.2c-159.4-16.8-276.1,80.5-385.5,126.2
		S511.2,1069,448.7,1080.4c-62.5,11.4,1308.7-17.7,1308.7-17.7L1704.2,850.1z"/>
	<path class="st6" d="M1090,853.2c-11.3,15.5-60,65.6-37.7,75.7c22.3,10,214,30.1,256.7,30.1s282.8,20.1,294.7,3.7
		c11.9-16.3,19.3-104.8-4.5-107.8s-458.1-22.5-480.4-18.2C1103.6,839.7,1094.1,847.6,1090,853.2z"/>
	<path class="st7" d="M1177.7,899.4c4.7-1.2-52.6,0-56.6,13.8c-6,20.8,108.6,21.5,131.9,26c23.2,4.5,357.7,2.9,339.2-10.4
		c-18.4-13.2-175.6-27.8-208.9-29.5c-33.2-1.6-110-14.5-143.4-17.7C1206.5,878.6,1177.5,899.5,1177.7,899.4z"/>
	<g>
		<path class="st8" d="M1163.4,881.7c0,0-1.2,13.5-11.4,16.6c-10.2,3.1-35.1,9.2-32.9,13.5s33.6,2.2,40.3,0s22.8,10.5,25.9,2.5
			c3.1-8,0-30.5,0-30.5L1163.4,881.7z"/>
		<path class="st8" d="M1526.3,925.4c0,0,15.4,2.8,20.6,3.4c5.2,0.6,23.1-4.9,27.4-3.4c4.3,1.5,18.5,5.6,17.9-0.3
			s-18.2-14.2-21.5-13.6c-3.4,0.6-11.4,1.5-14.5-2.2s-10.2-15.4-15.4-12.9c-5.2,2.5-14.5,8-14.5,8V925.4z"/>
		<path class="st9" d="M1342.4,537.6c1.7,2.3,10.3,9,11.3,4.3c1-4.7,9.3-33.3,7.7-34.5c-1.7-1.2,2.8-22.9-0.8-21.5
			c-3.6,1.4-3.5,23-6.2,22.7c-2.7-0.3-2-21.3-4.7-20.7c-2.7,0.7-1.3,22.3-3,22.7c-1.7,0.3-13.1-15-13.5-13.2s9.5,15.2,8.5,19.5
			C1340.7,521.3,1342.4,537.6,1342.4,537.6z"/>
		<path class="st3" d="M1342.4,537.6c-3.2,2-30.3,55.4-30.6,62.5c-0.2,7.1-9.4,67.5-12.6,71.1s-20.8,11.6-17.2,18
			c3.6,6.4,38.4,14,41.2,0c2.8-14,37.5-140.2,31.6-145.6C1348.9,538.2,1342.4,537.6,1342.4,537.6z"/>
		<path class="st8" d="M1317,593.9c-5.7,3.7-26,22-30,25.3c-4,3.3,2,3,2.7,5.3s-8.7,13.3-2.7,18.3s15.7-0.3,18,8
			c2.3,8.3-2.7,23-4,25s26.7-1,28-7c1.3-6,6.3-54.3,3-63C1328.7,597.2,1317,593.9,1317,593.9z"/>
		<path class="st8" d="M1374,527.6c3-1.3,4.7-7.3,12.7-10.7s18.3-3,18.3-5s-3-4-6-4s-10.7,2.3-13.3-1.7s13-29.7,9.7-30.7
			c-3.3-1-11.3,16.7-13.7,15.7c-2.3-1,1.7-23.7-1.3-24s-4,22.7-6.3,22.7s-4-21.3-6.7-20.7c-2.7,0.7,2,29,0,28.2
			c-2-0.8-7.7-16.2-10.3-14.5c-2.7,1.7,4.3,13.7,5,18.3s-5,19.3-1.3,21C1364.3,523.9,1374,527.6,1374,527.6z"/>
		<path class="st2" d="M1311.6,593.9c-4.1,4.1,3.7,12.1,14.6,15.7c11,3.7,13.2,48.9,16.9,49.3c3.7,0.5,4.8,27.5,5.7,36.2
			s5.7,31.9,6.6,46.5c1.7,27.7,0.7-37.4,6.5-48.8c5.8-11.4,3.8-22.4,0-28.8s-9.2-8.7-9.2-8.7s13.4-23.3,9.2-36.1
			c-4.2-12.8-15.6-28.3-26.6-28.8C1324.4,590,1315.9,589.7,1311.6,593.9z"/>
		<path class="st5" d="M1354.3,652.4c3.1,0.6-9.8,12.1-11.2,9.5C1341.7,659.3,1350.7,651.6,1354.3,652.4z"/>
		<path class="st2" d="M1292.6,799.5c-0.3-1.1-101.9-62.2-123.3-43.4c-14.7,12.9-4.6,119-7.4,125.6c-2.9,6.6,24.3,12.8,25.4,7.1
			s3.1-41.4,5.4-47.7c2.3-6.3,7.1-35.1,0.6-42.5s43.1,34.5,58.8,41.1c15.7,6.6,57.4,22.4,61.2,5.3S1292.6,799.5,1292.6,799.5z"/>
		<path class="st10" d="M1313.7,810.4c-8,2.3-36.2,26-32.2,36c4,10,32.5,41.7,51.6,52.5c19.1,10.8,54.2,26,67.9,28.3
			s106.4-5.4,112.1-2.3c5.7,3.1,15.2,2.6,15.2,2.6v-25.8c0,0-10.3,8-16.8,4.6s-72.2-16.6-101.6-13.1c-8.1,0.9-35.2-36.8-57.7-42.5
			c-9.4-2.4-3.8-19.8-9.8-26.2C1333.9,815.3,1313.7,810.4,1313.7,810.4z"/>
		<path class="st11" d="M1362,520.4c-4.4-1.2-36.8,58.4-39.2,77.2s-3.3,75.1-13.7,78.5c-10.3,3.5-41.1,2.3-47.5,15.5
			c-6.4,13.2-16.1,65.2-14,87.6c1.9,20.9,18.4,56,27.2,59.6s30.8,15.2,40.8,4.4c10-10.8,26.2-19.6,22.5-28.4
			c-3.7-8.8-29.9-43.4-27.4-59.2c6.1-38.8,34.1-44.8,32.3-56c-1.8-11.2,3.8-94.8,4.6-102c0.8-7.2,27.7-64.3,26.4-70
			C1372.8,522,1362,520.4,1362,520.4z"/>
	</g>
	<path class="st4" d="M51.7,392.9c0,0-85.4,101.1-107,126.6C-77,545.1-19,532.9-19,532.9s-25.8,13.1-53.9,59.7
		c-19.2,31.7,75.8,0,75.8,0s-116.9,87.2-66.5,68.6s85.4-37.2,85.4-37.2s-131.7,90.8-92.6,86.1S-6,703.7-6,703.7S-135.1,760-81.1,760
		S28,735.6,28,735.6S-126.4,834-77,828.3s132.8-17.3,132.8-17.3s154.4,78.3,135.9,29.5C173.1,791.8,89.8,753,89.8,753
		s153.4,47.6,112.2,25.6c-41.2-22.1-97.8-74.9-97.8-74.9s118.4,21.7,88.5,0S90.8,646.1,90.8,646.1s98.8,43,77.2,22.1
		c-21.6-20.9-75.1-92.3-75.1-92.3s146.2,84.1,99.8,28.4c-46.3-55.8-96.3-102.6-96.3-102.6s98.4,24.7,55.2-7.8S51.7,392.9,51.7,392.9
		z"/>
	<rect x="41.5" y="763.3" class="st4" width="24.4" height="161.9"/>
	<path class="st4" d="M421.4,612.9c0,0,48.5,50.9,60.8,63.8s-20.7,6.8-20.7,6.8s47.7,29.5,39.7,46.5c-7.9,17-38.4-8.2-38.4-8.2
		s52.6,35.7,24,26.3s-48.5-18.7-48.5-18.7s74.9,45.7,52.6,43.3s-36.8-3.2-36.8-3.2s73.4,28.4,42.7,28.4s-62-12.3-62-12.3
		s87.7,49.5,59.7,46.7s-75.5-8.7-75.5-8.7s-87.7,39.4-77.2,14.9c10.5-24.6,57.9-44.1,57.9-44.1s-87.1,24-63.8,12.9
		s55.6-37.7,55.6-37.7s-67.3,10.9-50.3,0s57.9-29,57.9-29s-56.1,21.7-43.9,11.1c12.3-10.5,42.7-46.5,42.7-46.5s-83.1,42.4-56.7,14.3
		c26.3-28.1,54.7-51.6,54.7-51.6s-55.9,12.5-31.3-3.9S421.4,612.9,421.4,612.9z"/>
	<rect x="411.6" y="807" class="st4" width="14.4" height="103.8"/>
	<path class="st4" d="M674.1,770.6c0,0-30.5,32-38.2,40.1s13,4.3,13,4.3s-30,18.5-25,29.2c5,10.7,24.1-5.1,24.1-5.1
		s-33.1,22.4-15.1,16.5c18-5.9,30.5-11.8,30.5-11.8s-47.1,28.7-33.1,27.2s23.2-2,23.2-2s-46.1,17.8-26.8,17.8s39-7.7,39-7.7
		s-55.2,31.1-37.5,29.4c17.6-1.8,47.4-5.5,47.4-5.5s55.2,24.8,48.5,9.3c-6.6-15.4-36.4-27.7-36.4-27.7s54.8,15.1,40.1,8.1
		c-14.7-7-34.9-23.7-34.9-23.7s42.3,6.9,31.6,0c-10.7-6.9-36.4-18.2-36.4-18.2s35.3,13.6,27.6,7c-7.7-6.6-26.8-29.2-26.8-29.2
		s52.2,26.6,35.7,9c-16.5-17.6-34.4-32.5-34.4-32.5s35.1,7.8,19.7-2.5C694.3,792.3,674.1,770.6,674.1,770.6z"/>
</g>
</svg>
