<?xml version="1.0" encoding="utf-8"?>
<!-- Generator: Adobe Illustrator 24.0.0, SVG Export Plug-In . SVG Version: 6.00 Build 0)  -->
<svg version="1.1" id="Layer_1" xmlns="http://www.w3.org/2000/svg" xmlns:xlink="http://www.w3.org/1999/xlink" x="0px" y="0px"
	 viewBox="0 0 1080 897.11" style="enable-background:new 0 0 1080 897.11;" xml:space="preserve">
<style type="text/css">
	.st0{fill:#25497A;}
	.st1{fill:none;stroke:#25497A;stroke-width:11;stroke-linecap:round;stroke-linejoin:round;stroke-miterlimit:10;}
	.st2{fill:none;stroke:#25497A;stroke-width:11;stroke-linecap:round;stroke-linejoin:round;}
	.st3{fill:none;stroke:#25497A;stroke-width:11;stroke-linecap:round;stroke-linejoin:round;stroke-dasharray:4.9997,19.9988;}
	.st4{fill:none;stroke:#25497A;stroke-width:15;stroke-linecap:round;stroke-linejoin:round;stroke-miterlimit:10;}
	.st5{fill:#25497A;stroke:#25497A;stroke-width:15;stroke-linecap:round;stroke-linejoin:round;stroke-miterlimit:10;}
</style>
<path class="st0" d="M1049.96,390.73c5.36,0,9.7-4.34,9.7-9.7V258.05c0-5.36-4.34-9.7-9.7-9.7H906.32V165.4
	c17.78-12.94,29.37-33.9,29.37-57.53c0-39.22-31.91-71.14-71.14-71.14c-39.22,0-71.14,31.91-71.14,71.14
	c0,23.63,11.59,44.58,29.37,57.53v82.94H256.51v-81.42c19-12.78,31.52-34.48,31.52-59.06c0-39.22-31.91-71.14-71.14-71.14
	s-71.14,31.91-71.14,71.14c0,22.65,10.66,42.85,27.21,55.89v84.58H30.04c-5.36,0-9.7,4.34-9.7,9.7v122.99c0,5.36,4.34,9.7,9.7,9.7
	h142.93v84.11H30.04c-5.36,0-9.7,4.34-9.7,9.7v122.99c0,5.36,4.34,9.7,9.7,9.7h121.95L90.27,846.74c-0.78,2.91-0.17,6.03,1.67,8.42
	c1.84,2.39,4.68,3.8,7.7,3.8h92.09c4.36,0,8.19-2.91,9.35-7.12l64.84-234.61h549.56l64.84,234.61c1.16,4.21,4.99,7.12,9.35,7.12
	h92.09c3.02,0,5.86-1.4,7.7-3.8c1.84-2.39,2.45-5.51,1.67-8.42l-61.72-229.51h120.55c5.36,0,9.7-4.34,9.7-9.7V484.55
	c0-5.36-4.34-9.7-9.7-9.7H906.32v-84.11H1049.96z M915.87,597.83h-93.01h-26.44l101-102.16c0.44-0.44,0.82-0.92,1.16-1.42h119.47
	L917.02,596.41C916.59,596.85,916.2,597.33,915.87,597.83z M770.54,596.41c-0.44,0.44-0.82,0.92-1.16,1.42H649.94l101-102.16
	c0.44-0.44,0.82-0.92,1.16-1.42h80.38h39.06L770.54,596.41z M258.54,597.83H210.5l101-102.16c0.44-0.44,0.82-0.92,1.16-1.42h119.45
	l-101,102.16c-0.44,0.44-0.82,0.92-1.16,1.42H258.54z M62.86,597.83l102.12-102.12c0.46-0.46,0.85-0.95,1.2-1.46h16.49h64.14h38.82
	l-101,102.16c-0.44,0.44-0.82,0.92-1.16,1.42h-18.82H62.86z M457.98,495.67c0.44-0.44,0.82-0.92,1.16-1.42h119.45L477.58,596.41
	c-0.44,0.44-0.82,0.92-1.16,1.42H356.98L457.98,495.67z M604.46,495.67c0.44-0.44,0.82-0.92,1.16-1.42h119.45l-101,102.16
	c-0.44,0.44-0.82,0.92-1.16,1.42H503.46L604.46,495.67z M256.51,474.85v-84.11h566.28v84.11H256.51z M62.86,371.33l102.12-102.12
	c0.46-0.46,0.85-0.95,1.2-1.46h16.49h64.14h38.82l-101,102.16c-0.44,0.44-0.82,0.92-1.16,1.42h-0.79H62.86z M311.5,269.17
	c0.44-0.44,0.82-0.92,1.16-1.42h119.45l-101,102.16c-0.44,0.44-0.82,0.92-1.16,1.42h-83.14H210.5L311.5,269.17z M832.48,267.75
	h39.06l-101,102.16c-0.44,0.44-0.82,0.92-1.16,1.42H649.94l101-102.16c0.44-0.44,0.82-0.92,1.16-1.42H832.48z M624.06,369.91
	c-0.44,0.44-0.82,0.92-1.16,1.42H503.46l101-102.16c0.44-0.44,0.82-0.92,1.16-1.42h119.45L624.06,369.91z M477.58,369.91
	c-0.44,0.44-0.82,0.92-1.16,1.42H356.98l101-102.16c0.44-0.44,0.82-0.92,1.16-1.42h119.45L477.58,369.91z M796.42,371.33l101-102.16
	c0.44-0.44,0.82-0.92,1.16-1.42h119.47L917.02,369.91c-0.44,0.44-0.82,0.92-1.16,1.42h-19.24h-64.14H796.42z M942.9,371.33
	l97.36-98.45v98.45H942.9z M842.19,175.39c7.04,2.34,14.55,3.62,22.37,3.62c7.81,0,15.33-1.28,22.37-3.62v72.96h-44.74V175.39z
	 M192.37,174.65c7.65,2.82,15.91,4.36,24.53,4.36c7.02,0,13.8-1.04,20.21-2.94v72.28h-44.74V174.65z M139.01,267.75l-99.27,99.27
	v-99.27H139.01z M192.37,390.73h44.74v84.11h-44.74V390.73z M139.01,494.25l-99.27,99.27v-99.27H139.01z M184.34,839.56h-72.05
	l59.79-222.33h73.71L184.34,839.56z M969.1,839.56h-72.05l-61.45-222.33h73.71L969.1,839.56z M942.9,597.83l97.36-98.45v98.45H942.9
	z M886.92,474.85h-44.74v-84.11h44.74V474.85z"/>
</svg>
