<?xml version="1.0" encoding="utf-8"?>
<!-- Generator: Adobe Illustrator 24.0.2, SVG Export Plug-In . SVG Version: 6.00 Build 0)  -->
<svg version="1.1" id="Layer_1" xmlns="http://www.w3.org/2000/svg" xmlns:xlink="http://www.w3.org/1999/xlink" x="0px" y="0px"
	 viewBox="0 0 896 896" style="enable-background:new 0 0 896 896;" xml:space="preserve">
<style type="text/css">
	.st0{clip-path:url(#椭圆_13_2_);}
	.st1{fill:#B7DFE6;}
	.st2{clip-path:url(#_13_2_);fill:#E4F2FF;}
	.st3{fill:#E4F2FF;}
	.st4{fill:none;stroke:#B7DFE6;stroke-width:7;stroke-miterlimit:10;}
	.st5{fill:#FF6D6D;}
	.st6{fill:#FFCDA5;}
	.st7{fill:#4497FF;}
	.st8{fill:#566ED1;}
	.st9{fill:#E3BABB;}
	.st10{fill:#25497A;}
	.st11{fill:#C69F98;}
	.st12{fill:#25497A;stroke:#25497A;stroke-miterlimit:10;}
</style>
<image style="overflow:visible;" width="901" height="981" xlink:href="A5DAC580.jpg"  transform="matrix(0.3729 0 0 0.3729 2295 134)">
</image>
<g>
	<defs>
		<circle id="椭圆_13_1_" cx="447.8" cy="447.6" r="448"/>
	</defs>
	<clipPath id="椭圆_13_2_">
		<use xlink:href="#椭圆_13_1_"  style="overflow:visible;"/>
	</clipPath>
	<g id="组_41" transform="translate(-942 -1535)" class="st0">
		<circle id="椭圆_13" class="st1" cx="1389.8" cy="1982.6" r="448"/>
	</g>
	<path class="st2" d="M547.2,529H-4.2c-37.5,0-67.8-30.4-67.8-67.8V155.8C-72,118.4-41.6,88-4.2,88h551.4
		c37.5,0,67.8,30.4,67.8,67.8v305.4C615,498.6,584.6,529,547.2,529z"/>
	<g class="st0">
		<path class="st3" d="M547.2,529H-4.2c-37.5,0-67.8-30.4-67.8-67.8V155.8C-72,118.4-41.6,88-4.2,88h551.4
			c37.5,0,67.8,30.4,67.8,67.8v305.4C615,498.6,584.6,529,547.2,529z"/>
		<g>
			<path class="st1" d="M288.7,386.4v64.3c0,5.7-4.6,10.4-10.4,10.4h-13c-5.7,0-10.4-4.6-10.4-10.4v-64.3c0-5.7,4.6-10.4,10.4-10.4
				h13C284.1,376,288.7,380.6,288.7,386.4z"/>
			<path class="st1" d="M333.7,371.4v79.3c0,5.7-4.6,10.4-10.4,10.4h-13c-5.7,0-10.4-4.6-10.4-10.4v-79.3c0-5.7,4.6-10.4,10.4-10.4
				h13C329.1,361,333.7,365.6,333.7,371.4z"/>
			<path class="st1" d="M378.7,351.4v99.3c0,5.7-4.6,10.4-10.4,10.4h-13c-5.7,0-10.4-4.6-10.4-10.4v-99.3c0-5.7,4.6-10.4,10.4-10.4
				h13C374.1,341,378.7,345.6,378.7,351.4z"/>
			<path class="st1" d="M423.7,336.4v114.3c0,5.7-4.6,10.4-10.4,10.4h-13c-5.7,0-10.4-4.6-10.4-10.4V336.4c0-5.7,4.6-10.4,10.4-10.4
				h13C419.1,326,423.7,330.6,423.7,336.4z"/>
			<path class="st1" d="M468.7,311.4v139.3c0,5.7-4.6,10.4-10.4,10.4h-13c-5.7,0-10.4-4.6-10.4-10.4V311.4c0-5.7,4.6-10.4,10.4-10.4
				h13C464.1,301,468.7,305.6,468.7,311.4z"/>
			<path class="st1" d="M513.7,291.4v159.2c0,5.7-4.6,10.4-10.4,10.4h-13c-5.7,0-10.4-4.6-10.4-10.4V291.4c0-5.7,4.6-10.4,10.4-10.4
				h13C509.1,281,513.7,285.7,513.7,291.4z"/>
		</g>
		<g>
			<circle class="st1" cx="-42.4" cy="464.7" r="12.5"/>
			<circle class="st1" cx="60.3" cy="349.5" r="12.5"/>
			<circle class="st1" cx="140.4" cy="430.3" r="12.5"/>
			<circle class="st1" cx="221.4" cy="286.3" r="12.5"/>
			<polyline class="st4" points="-41.8,464.2 60.8,349.1 141.3,431.4 221.8,286.9 			"/>
		</g>
		<path class="st1" d="M539.6,197H0.4c-5.7,0-10.4-4.6-10.4-10.4l0-29.3c0-5.7,4.6-10.4,10.4-10.4h539.3c5.7,0,10.4,4.6,10.4,10.4
			v29.3C550,192.4,545.4,197,539.6,197z"/>
	</g>
	<g class="st0">
		<path id="路径_196" class="st5" d="M688.1,569.8c-3.3,33.5,17,61.5,20.1,76.9c3.3,16.7-51.8,95.3-28.4,103.7
			s60.2,20.1,83.6,16.7s85.3,3.3,83.6-16.7s-26.8-78.6-26.8-97s21.7-56.9,23.4-83.6s1.7-98.7-11.7-100.3s-69.9-10.4-83.3-12.1
			S688.1,569.8,688.1,569.8z"/>
		<path id="路径_197" class="st6" d="M708.1,399.2c-2.9,21.5,6.7,53.5,36.8,53.5s46.8-20.1,45.2-40.1s-16.7-48.5-40.1-48.5
			S711.5,374.2,708.1,399.2z"/>
		<path id="路径_199" class="st6" d="M624,690.8c0,0-14.6,24.2-22.6,26.6c-4.6,1.4-9,3.6-12.8,6.6c-2,1.6-3.1-0.1-6.6,4.3
			c-1,0.8-1.9,1.8-2.7,2.8c-0.8,1.5-1.7,3-2.7,4.4c-0.7,0.8-1.6,1.9-2.6,3.1c-0.4,0.5-0.2,1.7-0.8,2.7c-1.5,2.3-3.3,4.6-1.7,7.3
			c3.5,5.9,2.9,2.9,6.7,5.5c3.9,2.6,5.2,4.4,8.8,4.6c5.9,0.1,11.6-2.5,15.3-7.1c5.9-8.1,25-39.8,33.6-45.9
			C644.5,699.6,624,690.8,624,690.8z"/>
		<path id="路径_200" class="st5" d="M610.1,727.4c-8-4.7-11.7-18.9-6.1-27.4c5.6-8.4,43.3-59.7,51.2-66.1
			c7.9-6.4,19-18.9,29.1-17.6c12.3,1.6,16.7,13,8.9,26.2c-7.8,13.2-52.4,78.3-60.3,82.5C625,729.3,615.5,730.6,610.1,727.4z"/>
		<path id="路径_201" class="st5" d="M706.6,495.5c-10,13.8-16.9,29.6-20.4,46.3c-3.4,16.2-21.7,73.8-22.3,87.5
			c-0.5,11.7-6.4,30.6,7.2,30.5c12.9-0.1,19.2-14.1,27.5-26.3c12.1-17.8,39.7-90.7,43.9-99.7c4.4-9.6,13-36.1,9-42.2
			c-4-6.1-9.9-17.5-21.4-13.4C718.5,482.3,714.1,485.4,706.6,495.5z"/>
		<path id="路径_198" class="st7" d="M748.3,334c13.5-5,15-18.4,35.1-15s55.2,11.7,56.9,45.1s1.7,45.2,10,61.9
			c8.5,17.1,23.4,20.1,23.4,43.5s-14.3,46.7-13.4,56.9c1.7,18.4,38.5,40.1,28.4,68.6s-26.8,41.8-82,36.8s-92-21.7-90.3-53.5
			s16.7-36.8,23.4-58.5s1.7-28.4-8.4-38.5s-17.4-26.3-11.7-43.5c3.3-10,21.9-23.5,31.8-30.1c10-6.7,21.7-10,16.7-20.1
			c-6.9-13.8-40.1,3.3-50.2,1.7c-9-1.5-24.3-10.2-26.8-20.1c-3.3-13.4,12.4-24.7,21.7-28.4C721.5,337.4,741.6,336.5,748.3,334z"/>
		<path class="st3" d="M910,1001c-0.1-4.5-51.9-201-52.8-205.4c-5.3-26.4-15-68.6-15-68.6c-5-8.4-45.2,10-45.2,10l-75.3,11.7
			c0,0-46.8-5.2-47,1.7c-0.4,13-0.3,263.6-0.8,281.6L910,1001z"/>
	</g>
	<g class="st0">
		<path class="st8" d="M571.4,809c0,0-17.4,124,45.6,164s105-87,80-164"/>
		<path class="st9" d="M577,537l-12-36c0,0-44,16-46-36c-2.9-75.3,28-86,58-85s52,68,31,98c0,0-16,34,16,49L577,537z"/>
		<path class="st10" d="M697,810c0,0-33-196-30-252s-145-52-146-2s35,84,46,184s-10,83,11,99S697,810,697,810z"/>
		<path class="st10" d="M529,541c0,0-72,82-55,140s82-95,95-133S529,541,529,541z"/>
		<path class="st8" d="M554.5,452.5c0,0-5,40,22,38S618,477,618,477s25-105-26-105s-83-3-91-11s-0.5,29.5,13.5,44.5s25,5,37,20
			S554.5,452.5,554.5,452.5z"/>
	</g>
	<g class="st0">
		<polyline class="st5" points="395,799 382,995 571,1001 542,759 		"/>
		<path id="路径_203" class="st11" d="M334.6,507c8.4,30.1,11.7,41.8,43.5,38.5c1.2-0.1,2.3-0.3,3.4-0.5
			c1.9,10.1,2.9,20.3,3.3,30.6c0,18.4,68.6-6.7,56.9-8.4c-11.7-1.7-30.7-47.9-30.7-47.9l-1.2,0.3c1.7-8.8,1.4-19.7,0.1-32.7
			c-3.3-35.1-20.1-50.2-40.1-50.2C349.7,436.8,326.3,476.9,334.6,507z"/>
		<path id="路径_204" class="st11" d="M242.6,645.9l-20.1,5c0,0-1.7-6.7-5-8.4s-15.4-3.7-24.2-6.7s-16.6-17.6-9.4-29.4
			c1.9-3.2,7.5,0,7.9-2.4c0.9-6.7-8.4-15.1-4.9-16.7c2,0.8,18.6,18.9,20.3,19.1c10.5,1.3,8.4,22.5,13.4,22.5s10.3,3.6,13.7,6.9
			L242.6,645.9z"/>
		<path id="路径_206" class="st12" d="M333,473.6c11.7,15,15,16.7,25.1,13.4s11.7-1.7,15.1,3.3c3.4,5.1,3.4,21.7-5,20.1
			c-8.4-1.7,0,13.4,11.7,20.1c11.7,6.7,23.4,8.4,28.4,1.7s11.7,15,25.1,0c10.7-12,12.7-29.4,5-43.5c-11.7-20.1,1.7-31.8,1.7-31.8
			c5.7-4.3,18.4,5,23.4,0c7.2-7.2-1.7-10.1,6.7-15.1c8.4-5,21.7,8.4,36.8,0S495.2,410,475.1,400c-20.1-10.1-36.8-1.6-51.8,8.4
			c-14.2,9.5,13.5,43.9,0.9,42.4c-4.7-1.8-9.9-3.8-14.3-5.6c-8.4-3.4-15.1-15-28.4-16.7c-7.8-1-15.6-1-23.4,0
			C339.7,435.1,321.3,458.5,333,473.6z"/>
		<path id="路径_209" class="st7" d="M222.6,650.8c0,0,41.8,18.4,53.5,23.4c13.9,6,36.8,5,53.5,1.7c11.8-2.4,35.7-15.3,45.7-20.9
			c-5.1,10.3-11.1,29.6,2.8,47.6c5.3,7.2,13.1,12.2,21.8,14.1c4.1,32.5-10.9,73.8-5.1,79.6c10,10,147.2-8.4,147.2-35.1
			s-16.7-100.3-18.4-112c-3.3-23.5-32.1-72.8-55.2-82c-25.1-10-36.8,3.3-53.5,5s-30.1-3.4-41.8,1.7S356.4,594,338,602.3
			s-39.6,22.2-51.9,26.8c-13.4,5-51.8,6.7-51.8,6.7s3.3,3.4-1.7,8.4C229.8,647.1,226.4,649.3,222.6,650.8z"/>
	</g>
</g>
</svg>
