<svg width="446" height="445" viewBox="0 0 446 445" fill="none" xmlns="http://www.w3.org/2000/svg">
<mask id="mask0" mask-type="alpha" maskUnits="userSpaceOnUse" x="0" y="0" width="446" height="445">
<path d="M223.201 445C346.085 445 445.701 345.383 445.701 222.5C445.701 99.6166 346.085 0 223.201 0C100.318 0 0.701172 99.6166 0.701172 222.5C0.701172 345.383 100.318 445 223.201 445Z" fill="#B7DFE6"/>
</mask>
<g mask="url(#mask0)">
<path d="M201.881 475.983C342.63 475.983 456.73 356.023 456.73 208.046C456.73 60.0679 342.63 -59.8916 201.881 -59.8916C61.1313 -59.8916 -52.9688 60.0679 -52.9688 208.046C-52.9688 356.023 61.1313 475.983 201.881 475.983Z" fill="#B7DFE6"/>
<path d="M278.067 19.9639H11.7642C-6.3234 19.9639 -20.9863 34.3586 -20.9863 52.1154V196.908C-20.9863 214.665 -6.3234 229.06 11.7642 229.06H278.067C296.155 229.06 310.818 214.665 310.818 196.908V52.1154C310.818 34.3586 296.155 19.9639 278.067 19.9639Z" fill="#E4F2FF"/>
<path d="M278.968 15.7607H11.8629C-6.27923 15.7607 -20.9863 30.4448 -20.9863 48.5585V196.262C-20.9863 214.376 -6.27923 229.06 11.8629 229.06H278.968C297.11 229.06 311.817 214.376 311.817 196.262V48.5585C311.817 30.4448 297.11 15.7607 278.968 15.7607Z" fill="#E4F2FF"/>
<path d="M141.416 158.481V190.396C141.416 193.24 143.722 195.546 146.566 195.546H153.003C155.847 195.546 158.153 193.24 158.153 190.396V158.481C158.153 155.636 155.847 153.331 153.003 153.331H146.566C143.722 153.331 141.416 155.636 141.416 158.481Z" fill="#B7DFE6"/>
<path d="M163.768 151.031V190.396C163.768 193.24 166.073 195.546 168.918 195.546H175.354C178.199 195.546 180.505 193.24 180.505 190.396V151.031C180.505 148.187 178.199 145.881 175.354 145.881H168.918C166.073 145.881 163.768 148.187 163.768 151.031Z" fill="#B7DFE6"/>
<path d="M186.117 141.098V190.396C186.117 193.24 188.423 195.546 191.267 195.546H197.704C200.548 195.546 202.854 193.24 202.854 190.396V141.098C202.854 138.254 200.548 135.948 197.704 135.948H191.267C188.423 135.948 186.117 138.254 186.117 141.098Z" fill="#B7DFE6"/>
<path d="M208.465 133.648V190.396C208.465 193.24 210.771 195.546 213.615 195.546H220.052C222.896 195.546 225.202 193.24 225.202 190.396V133.648C225.202 130.804 222.896 128.498 220.052 128.498H213.615C210.771 128.498 208.465 130.804 208.465 133.648Z" fill="#B7DFE6"/>
<path d="M230.814 121.232V190.396C230.814 193.24 233.12 195.546 235.965 195.546H242.401C245.246 195.546 247.552 193.24 247.552 190.396V121.232C247.552 118.388 245.246 116.082 242.401 116.082H235.965C233.12 116.082 230.814 118.388 230.814 121.232Z" fill="#B7DFE6"/>
<path d="M253.166 111.319V190.396C253.166 193.24 255.472 195.546 258.316 195.546H264.753C267.597 195.546 269.903 193.24 269.903 190.396V111.319C269.903 108.474 267.597 106.168 264.753 106.168H258.316C255.472 106.168 253.166 108.474 253.166 111.319Z" fill="#B7DFE6"/>
<path d="M44.7003 146.388C48.129 146.388 50.9085 143.608 50.9085 140.18C50.9085 136.751 48.129 133.972 44.7003 133.972C41.2717 133.972 38.4922 136.751 38.4922 140.18C38.4922 143.608 41.2717 146.388 44.7003 146.388Z" fill="#B7DFE6"/>
<path d="M84.5187 186.508C87.9474 186.508 90.7268 183.729 90.7268 180.3C90.7268 176.871 87.9474 174.092 84.5187 174.092C81.09 174.092 78.3105 176.871 78.3105 180.3C78.3105 183.729 81.09 186.508 84.5187 186.508Z" fill="#B7DFE6"/>
<path d="M124.716 115.015C128.145 115.015 130.924 112.235 130.924 108.807C130.924 105.378 128.145 102.599 124.716 102.599C121.287 102.599 118.508 105.378 118.508 108.807C118.508 112.235 121.287 115.015 124.716 115.015Z" fill="#B7DFE6"/>
<path d="M-5.98438 197.156L44.987 139.972L84.9277 180.871L124.918 109.09" stroke="#B7DFE6" stroke-width="7" stroke-miterlimit="10"/>
<path d="M282.779 39.5977H14.955C12.1105 39.5977 9.80469 41.9035 9.80469 44.7479V59.28C9.80469 62.1244 12.1105 64.4302 14.955 64.4302H282.779C285.624 64.4302 287.93 62.1244 287.93 59.28V44.7479C287.93 41.9035 285.624 39.5977 282.779 39.5977Z" fill="#B7DFE6"/>
<path d="M356.535 249.593C354.871 266.206 364.978 280.117 366.503 287.8C368.161 296.104 340.751 335.146 352.383 339.298C364.014 343.45 382.281 349.266 393.913 347.602C405.544 345.938 436.272 349.266 435.443 339.298C434.613 329.33 422.152 300.261 422.152 291.123C422.152 281.984 432.95 262.883 433.779 249.593C434.608 236.302 434.608 200.588 427.963 199.759C421.318 198.929 393.262 194.603 386.617 193.769C379.972 192.935 356.535 249.593 356.535 249.593Z" fill="#FF6D6D"/>
<path d="M366.467 164.868C365.037 175.571 369.789 191.449 384.739 191.449C399.688 191.449 407.997 181.481 407.163 171.513C406.328 161.546 398.859 147.426 387.232 147.426C375.605 147.426 368.141 152.412 366.467 164.868Z" fill="#FFCDA5"/>
<path d="M324.683 309.652C324.683 309.652 317.427 321.671 313.454 322.878C311.152 323.566 309 324.677 307.107 326.156C306.114 326.941 305.587 326.121 303.814 328.282C303.323 328.699 302.871 329.159 302.463 329.657C302.066 330.415 301.625 331.148 301.142 331.853C300.809 332.255 300.333 332.781 299.851 333.402C299.647 333.67 299.766 334.256 299.444 334.753C298.674 335.91 297.824 337.058 298.599 338.374C300.337 341.314 300.015 339.824 301.947 341.095C303.879 342.367 304.519 343.301 306.302 343.39C307.753 343.409 309.19 343.101 310.506 342.49C311.822 341.879 312.984 340.98 313.906 339.859C316.846 335.836 326.322 320.102 330.579 317.067C334.835 314.033 324.683 309.652 324.683 309.652Z" fill="#FFCDA5"/>
<path d="M317.769 327.844C313.796 325.485 311.978 318.438 314.75 314.256C317.521 310.074 336.245 284.626 340.158 281.432C344.072 278.239 349.595 272.06 354.626 272.706C360.745 273.496 362.905 279.163 359.056 285.703C355.207 292.244 333.022 324.596 329.093 326.687C325.165 328.778 320.446 329.429 317.769 327.844Z" fill="#FF6D6D"/>
<path d="M365.721 212.691C360.763 219.561 357.308 227.397 355.579 235.691C353.871 243.751 344.802 272.329 344.484 279.148C344.216 284.949 341.315 294.325 348.05 294.276C354.457 294.226 357.606 287.263 361.728 281.194C367.742 272.339 381.435 236.153 383.511 231.683C385.711 226.935 389.967 213.734 387.956 210.714C385.944 207.694 383.024 202.043 377.328 204.079C371.631 206.115 369.426 207.64 365.721 212.691Z" fill="#FF6D6D"/>
<path d="M386.416 132.472C393.116 129.988 393.891 123.333 403.859 124.997C413.827 126.661 431.269 130.813 432.098 147.421C432.928 164.029 432.928 169.85 437.065 178.154C441.301 186.627 448.696 188.122 448.696 199.748C448.696 211.375 441.594 222.957 442.051 227.993C442.881 237.131 461.152 247.923 456.171 262.043C451.19 276.163 442.881 282.808 415.446 280.32C388.011 277.832 369.754 269.523 370.593 253.739C371.432 237.956 378.902 235.467 382.225 224.67C385.547 213.873 383.054 210.55 378.068 205.564C373.081 200.578 369.421 192.492 372.272 183.97C373.93 179.003 383.163 172.278 388.05 169.02C393.017 165.698 398.848 164.054 396.359 159.053C392.932 152.204 376.424 160.711 371.442 159.882C366.972 159.137 359.374 154.816 358.152 149.914C356.488 143.269 364.32 137.647 368.949 135.794C373.126 134.14 383.099 133.708 386.416 132.472Z" fill="#4497FF"/>
<path d="M466.726 463.738C466.681 461.498 440.9 363.911 440.507 361.721C437.885 348.589 433.057 327.665 433.057 327.665C430.574 323.509 410.629 332.632 410.629 332.632L373.251 338.453C373.251 338.453 349.992 335.86 349.908 339.282C349.709 345.739 349.734 470.205 349.516 479.134L466.726 463.738Z" fill="#E4F2FF"/>
<path d="M298.562 368.381C298.562 368.381 289.916 429.966 321.205 449.832C352.494 469.698 373.353 406.623 360.937 368.381" fill="#566ED1"/>
<path d="M301.341 233.291L295.381 215.412C295.381 215.412 273.528 223.358 272.535 197.532C271.1 160.154 286.441 154.82 301.341 155.317C316.24 155.814 327.167 189.089 316.737 203.989C316.737 203.989 308.791 220.875 324.683 228.325L301.341 233.291Z" fill="#E3BABB"/>
<path d="M360.938 368.878C360.938 368.878 344.549 271.534 346.039 243.722C347.529 215.909 274.024 217.896 273.528 242.728C273.031 267.561 290.911 284.447 296.374 334.112C301.837 383.778 291.407 375.335 301.837 383.281C312.267 391.227 360.938 368.878 360.938 368.878Z" fill="#25497A"/>
<path d="M277.501 235.278C277.501 235.278 241.742 276.003 250.185 304.809C258.628 333.615 290.91 257.627 297.367 238.754C303.823 219.881 277.501 235.278 277.501 235.278Z" fill="#25497A"/>
<path d="M290.165 191.325C290.165 191.325 287.681 211.191 301.091 210.198C314.501 209.205 321.702 203.493 321.702 203.493C321.702 203.493 334.118 151.345 308.789 151.345C283.46 151.345 267.567 149.855 263.594 145.882C259.621 141.908 263.345 160.533 270.299 167.983C277.252 175.432 282.715 170.466 288.675 177.916C294.635 185.365 290.165 191.325 290.165 191.325Z" fill="#566ED1"/>
<path d="M210.949 363.414L204.492 460.758L298.359 463.738L283.956 343.548" fill="#FF6D6D"/>
<path d="M180.978 218.392C185.13 233.346 186.788 239.157 202.572 237.498C203.163 237.433 203.729 237.364 204.28 237.269C205.202 242.28 205.742 247.354 205.895 252.447C205.895 261.585 239.965 249.124 234.134 248.295C228.303 247.466 218.867 224.51 218.867 224.51L218.286 224.644C219.125 220.284 218.966 214.885 218.351 208.429C216.692 190.986 208.388 183.512 198.42 183.512C188.452 183.512 176.826 203.452 180.978 218.392Z" fill="#C69F98"/>
<path d="M135.281 287.354L125.314 289.837C125.314 289.837 124.489 286.524 122.83 285.685C121.171 284.846 115.192 283.832 110.816 282.362C106.441 280.892 102.562 273.636 106.128 267.746C107.091 266.162 109.873 267.746 110.032 266.549C110.479 263.221 105.875 259.04 107.603 258.255C108.596 258.637 116.836 267.637 117.7 267.746C122.89 268.397 121.862 278.93 124.35 278.93C126.838 278.93 129.475 280.704 131.139 282.362L135.281 287.354Z" fill="#C69F98"/>
<path d="M180.156 201.795C185.967 209.27 187.606 210.104 192.612 208.44C197.619 206.777 198.423 207.581 200.092 210.099C201.761 212.617 201.761 220.896 197.609 220.067C193.457 219.238 197.609 226.722 203.42 230.035C209.23 233.347 215.061 234.187 217.544 230.864C220.028 227.542 223.35 238.314 229.995 230.864C232.594 227.965 234.229 224.33 234.674 220.462C235.118 216.594 234.352 212.683 232.479 209.27C226.663 199.302 233.308 193.491 233.308 193.491C236.134 191.37 242.456 195.974 244.94 193.491C248.511 189.915 244.11 188.495 248.262 186.012C252.414 183.528 259.04 190.178 266.534 186.012C274.029 181.845 260.708 170.218 250.741 165.251C240.773 160.285 232.469 164.437 224.994 169.403C217.937 174.112 231.689 191.187 225.461 190.471C223.112 189.558 220.569 188.564 218.349 187.675C214.197 186.012 210.899 180.201 204.229 179.371C200.369 178.86 196.458 178.86 192.598 179.371C183.464 182.679 174.336 194.321 180.156 201.795Z" fill="#25497A" stroke="#25497A" stroke-miterlimit="10"/>
<path d="M125.307 289.822C125.307 289.822 146.072 298.965 151.887 301.449C158.796 304.428 170.159 303.932 178.463 302.283C184.324 301.111 196.179 294.689 201.145 291.923C198.607 297.043 195.652 306.629 202.551 315.568C205.191 319.144 209.047 321.631 213.393 322.561C215.449 338.712 207.964 359.189 210.86 362.085C215.826 367.051 283.952 357.933 283.952 344.642C283.952 331.352 275.658 294.808 274.829 289.017C273.17 277.366 258.886 252.881 247.418 248.292C234.962 243.325 229.157 249.946 220.843 250.775C212.529 251.605 205.893 249.111 200.078 251.605C194.262 254.098 191.774 261.602 182.64 265.734C173.507 269.866 162.963 276.75 156.889 279.025C150.244 281.508 131.142 282.347 131.142 282.347C131.142 282.347 132.791 284.016 130.308 286.499C128.899 287.953 127.193 289.086 125.307 289.822Z" fill="#4497FF"/>
</g>
</svg>
