<?xml version="1.0" encoding="utf-8"?>
<!-- Generator: Adobe Illustrator 24.0.0, SVG Export Plug-In . SVG Version: 6.00 Build 0)  -->
<svg version="1.1" id="Layer_1" xmlns="http://www.w3.org/2000/svg" xmlns:xlink="http://www.w3.org/1999/xlink" x="0px" y="0px"
	 viewBox="0 0 500 500" style="enable-background:new 0 0 500 500;" xml:space="preserve">
<style type="text/css">
	.st0{clip-path:url(#SVGID_2_);}
	.st1{fill:#B7DFE6;}
	.st2{fill:#2C4976;}
	.st3{fill:#955214;}
	.st4{fill:#5598F7;}
	.st5{fill:#FFFFFF;stroke:#000000;stroke-width:2;stroke-miterlimit:10;}
	.st6{fill:none;stroke:#000000;stroke-miterlimit:10;}
	.st7{fill:none;stroke:#FFFFFF;stroke-width:10;stroke-miterlimit:10;}
	.st8{fill:#E6F2FE;}
</style>
<g>
	<g>
		<defs>
			<circle id="SVGID_1_" cx="250" cy="250" r="250"/>
		</defs>
		<clipPath id="SVGID_2_">
			<use xlink:href="#SVGID_1_"  style="overflow:visible;"/>
		</clipPath>
		<g class="st0">
			<circle class="st1" cx="250" cy="250" r="250"/>
		</g>
	</g>
	<g>
		<defs>
			<circle id="SVGID_3_" cx="250" cy="250" r="250"/>
		</defs>
		<clipPath id="SVGID_4_">
			<use xlink:href="#SVGID_3_"  style="overflow:visible;"/>
		</clipPath>
	</g>
	<g>
		<defs>
			<circle id="SVGID_5_" cx="250" cy="250" r="250"/>
		</defs>
		<clipPath id="SVGID_6_">
			<use xlink:href="#SVGID_5_"  style="overflow:visible;"/>
		</clipPath>
	</g>
	<g>
		<defs>
			<circle id="SVGID_7_" cx="250" cy="250" r="250"/>
		</defs>
		<clipPath id="SVGID_8_">
			<use xlink:href="#SVGID_7_"  style="overflow:visible;"/>
		</clipPath>
	</g>
	<g>
		<defs>
			<circle id="SVGID_9_" cx="250" cy="250" r="250"/>
		</defs>
		<clipPath id="SVGID_10_">
			<use xlink:href="#SVGID_9_"  style="overflow:visible;"/>
		</clipPath>
	</g>
	<g>
		<defs>
			<circle id="SVGID_11_" cx="250" cy="250" r="250"/>
		</defs>
		<clipPath id="SVGID_12_">
			<use xlink:href="#SVGID_11_"  style="overflow:visible;"/>
		</clipPath>
	</g>
</g>
<g>
	<g>
		<path class="st4" d="M133.78,309.23c0,4.95,5.99,7.43,9.49,3.93l11.9-12.16c6.9-7.06,16.36-11.04,26.24-11.04h107.35
			c7.99,0,14.53-6.54,14.53-14.53V167.68c0-7.99-6.54-14.53-14.53-14.53H114.41c-7.99,0-14.53,6.54-14.53,14.53v107.75
			c0,7.99,6.54,14.53,14.53,14.53h9.72c5.33,0,9.65,4.32,9.65,9.65L133.78,309.23z"/>
	</g>
	<g>
		<rect x="133.17" y="185.97" class="st8" width="136.8" height="7"/>
	</g>
	<g>
		<rect x="133.17" y="211.69" class="st8" width="64.77" height="7"/>
	</g>
	<g>
		<rect x="133.17" y="237.41" class="st8" width="63.56" height="7"/>
	</g>
	<g>
		<path class="st1" d="M385.59,205.21c7.99,0,14.53,6.54,14.53,14.53v107.75c0,7.99-6.54,14.53-14.53,14.53h-9.72
			c-5.33,0-9.65,4.32-9.65,9.65l0,9.63c0,3.35-2.74,5.57-5.6,5.57c-1.37,0-2.76-0.51-3.89-1.64l-11.9-12.16
			c-6.9-7.06-16.36-11.04-26.24-11.04H211.26c-7.99,0-14.53-6.54-14.53-14.53V219.73c0-7.99,6.54-14.53,14.53-14.53H385.59
			 M385.59,198.21H211.26c-11.87,0-21.53,9.66-21.53,21.53v107.75c0,11.87,9.66,21.53,21.53,21.53h107.35
			c7.94,0,15.68,3.26,21.23,8.93l11.9,12.16l0.03,0.03l0.03,0.03c2.38,2.38,5.52,3.69,8.84,3.69c6.95,0,12.6-5.64,12.6-12.57l0-9.63
			c0-1.46,1.19-2.65,2.65-2.65h9.72c11.87,0,21.53-9.66,21.53-21.53V219.73C407.12,207.86,397.46,198.21,385.59,198.21
			L385.59,198.21z"/>
	</g>
	<g>
		<path class="st4" d="M366.22,361.29c0,4.95-5.99,7.43-9.49,3.93l-11.9-12.16c-6.9-7.06-16.36-11.04-26.24-11.04H211.26
			c-7.99,0-14.53-6.54-14.53-14.53V219.73c0-7.99,6.54-14.53,14.53-14.53h174.34c7.99,0,14.53,6.54,14.53,14.53v107.75
			c0,7.99-6.54,14.53-14.53,14.53h-9.72c-5.33,0-9.65,4.32-9.65,9.65L366.22,361.29z"/>
	</g>
	<g>
		<rect x="230.02" y="242.11" class="st8" width="136.81" height="7"/>
	</g>
	<g>
		<rect x="230.02" y="267.83" class="st8" width="136.81" height="7"/>
	</g>
	<g>
		<rect x="230.02" y="293.55" class="st8" width="100.48" height="7"/>
	</g>
</g>
</svg>
