<?xml version="1.0" encoding="utf-8"?>
<!-- Generator: Adobe Illustrator 23.0.4, SVG Export Plug-In . SVG Version: 6.00 Build 0)  -->
<svg version="1.1" id="Layer_1" xmlns="http://www.w3.org/2000/svg" xmlns:xlink="http://www.w3.org/1999/xlink" x="0px" y="0px"
	 viewBox="0 0 896 896" style="enable-background:new 0 0 896 896;" xml:space="preserve">
<style type="text/css">
	.st0{fill:#B7DFE6;}
	.st1{fill:#25497A;}
	.st2{fill:#E3B58D;}
	.st3{fill:#FFD7B4;}
	.st4{fill:#4DA6EF;}
	.st5{fill:#4497FF;}
	.st6{fill:#55A6EF;}
	.st7{fill:#566ED1;}
	.st8{fill:#D4F1FF;}
</style>
<g id="组_41" transform="translate(-942 -1535)">
	<circle id="椭圆_13" class="st0" cx="1390" cy="1983" r="448"/>
</g>
<g id="组_37" transform="translate(-446 75)">
	<rect id="矩形_28" x="604.6" y="467.3" class="st1" width="99.9" height="163.5"/>
	<path id="路径_253" class="st2" d="M881.7,478.4c0,0,61.4-1,122.4-16.8s110.8-34.3,127-38.5c7.1-1.8,20.9-6.4,34.8-7.8
		c6.1-0.6,3.5,2.3,9,2.3c3.8,0,9.6-1.9,14.1-2.3c4-0.4,8-0.4,12,0l-127.2,63.1l-159.9,42.3L881.7,478.4z"/>
	<path id="路径_252" class="st3" d="M721.9,467.6V630l179.1-6.4c0,0,68.7,1,81.3-3.6c77.8-28.2,143.1-104.6,177.3-142.4
		c21.3-23.6,58-50.3,68.4-63.2c8.7-10.9-7.4-9.7-7.4-9.7s-144.7,75.8-198,80.9c-29.5,2.8-130.3-36.9-204.2-44.6
		C759.5,434.9,721.9,467.6,721.9,467.6z"/>
	<g id="_21" transform="translate(1744.565 1587.158)">
		<path id="路径_256" class="st4" d="M-960.4-1411.5c0,28.6,10.5,56.1,29.6,77.4v0c0,0,36.8,47.8,43.5,69.5h42.9v-263
			C-908.5-1527.6-960.4-1475.6-960.4-1411.5C-960.4-1411.5-960.4-1411.5-960.4-1411.5z"/>
		<path id="路径_257" class="st5" d="M-728.8-1411.5c0-64.1-52-116.1-116.1-116.1c0,0,0,0,0,0v263h42.9
			c6.8-21.8,43.5-69.5,43.5-69.5v0C-739.3-1355.4-728.8-1383-728.8-1411.5L-728.8-1411.5z"/>
		<path id="路径_258" class="st6" d="M-889.7-1194.6c0,24.1,19.5,43.7,43.7,43.7c24.1,0,43.7-19.5,43.7-43.7s-19.5-43.7-43.7-43.7
			l0,0C-870.2-1238.3-889.7-1218.7-889.7-1194.6z"/>
		<path id="路径_259" class="st7" d="M-844.4-1269.2h-46.3c-8.2,0-14.9,6.7-14.9,14.9c0,8.2,6.7,14.9,14.9,14.9h46.3V-1269.2
			L-844.4-1269.2z"/>
		<path id="路径_260" class="st7" d="M-783.6-1254.3c0-8.2-6.7-14.9-14.9-14.9c0,0,0,0,0,0h-46.3v29.8h46.3
			C-790.3-1239.4-783.6-1246-783.6-1254.3C-783.6-1254.3-783.6-1254.3-783.6-1254.3L-783.6-1254.3z"/>
		<path id="路径_261" class="st7" d="M-844.4-1210.5h-46.3c-8.2,0-14.9,6.7-14.9,14.9c0,8.2,6.7,14.9,14.9,14.9c0,0,0,0,0,0h46.3
			V-1210.5z"/>
		<path id="路径_262" class="st7" d="M-844.9-1180.7h46.3c8.2,0,14.9-6.7,14.9-14.9c0-8.2-6.7-14.9-14.9-14.9c0,0,0,0,0,0h-46.3
			V-1180.7L-844.9-1180.7z"/>
		<path id="路径_263" class="st1" d="M-844.4-1239.9h-46.3c-8.2,0-14.9,6.7-14.9,14.9c0,8.2,6.7,14.9,14.9,14.9c0,0,0,0,0,0h46.3
			V-1239.9L-844.4-1239.9z"/>
		<path id="路径_264" class="st1" d="M-844.9-1210h46.3c8.2,0,14.9-6.7,14.9-14.9c0-8.2-6.7-14.9-14.9-14.9c0,0,0,0,0,0h-46.3
			V-1210L-844.9-1210z"/>
		<path id="路径_265" class="st8" d="M-901.6-1413.7h-34.8c0.1-50.5,41-91.5,91.5-91.6v34.8c0,0.1-0.1,0.1-0.1,0.1
			c-31.2,0.1-56.4,25.4-56.5,56.5l0,0C-901.5-1413.7-901.5-1413.7-901.6-1413.7L-901.6-1413.7L-901.6-1413.7z"/>
	</g>
</g>
</svg>
