<?xml version="1.0" encoding="utf-8"?>
<!-- Generator: Adobe Illustrator 23.0.4, SVG Export Plug-In . SVG Version: 6.00 Build 0)  -->
<svg version="1.1" id="Layer_1" xmlns="http://www.w3.org/2000/svg" xmlns:xlink="http://www.w3.org/1999/xlink" x="0px" y="0px"
	 viewBox="0 0 1280 240" style="enable-background:new 0 0 1280 240;" xml:space="preserve">
<style type="text/css">
	.st0{clip-path:url(#SVGID_2_);}
	.st1{clip-path:url(#SVGID_4_);}
	.st2{fill:#FFFFFF;}
	.st3{opacity:0.3;}
	.st4{fill:#FED9D9;enable-background:new    ;}
	.st5{fill:#FED9D9;}
	.st6{fill:#EBE0BC;}
	.st7{fill:#E4F2FF;}
	.st8{fill:#566ED1;}
	.st9{opacity:0.387;}
	.st10{fill:#FDA2A2;}
	.st11{fill:#C68642;}
	.st12{fill:#B7DFE6;}
	.st13{fill:#CEC08F;}
	.st14{fill:#25497A;}
	.st15{fill:#4497FF;}
	.st16{fill:#FFD394;}
	.st17{fill:#FF6D6D;}
	.st18{fill:#F2F2F2;}
</style>
<g>
	<defs>
		<rect id="SVGID_1_" width="1280" height="240"/>
	</defs>
	<clipPath id="SVGID_2_">
		<use xlink:href="#SVGID_1_"  style="overflow:visible;"/>
	</clipPath>
	<g class="st0">
		<defs>
			<rect id="SVGID_3_" x="0.8" y="-90.1" width="1278.4" height="347"/>
		</defs>
		<clipPath id="SVGID_4_">
			<use xlink:href="#SVGID_3_"  style="overflow:visible;"/>
		</clipPath>
		<g id="header_3" class="st1">
			<rect x="0.8" y="-90.1" class="st2" width="1278.4" height="347"/>
			<g class="st3">
				<path id="路径_1501" class="st4" d="M1992.4,192.5v-4.3h-3v4.3h-1.4v-5.8H1976v2.7h-1.4v-2.7h-3.1v2.7h-1.4v-13.2h-6.8v7.2
					h-4.2v1.9h-8.9v-45.4h0l-6.2-5.8v2.8h0v-2.7h-0.7v-1.9h-5.2v1.9h-0.7v2.7h-1.3v3.7h0.7v22.2c-2.7-1.2-5.6-2.1-8.5-2.7v-14.5h1.3
					v-4h-2.9V137h-5.5v4.7h-3v4h1.2v12.9c-4.4-0.7-9.2-1.2-14-1.7v-11.2h-13.3v9.9l-1.3-0.1v-5h-1.7v-1.6h-12.7v1.6h-1.4v3.5
					c-0.5,0-1-0.1-1.4-0.1v-23h0.1l-1.7-3.9l-8.2-7.2l-7.4,6.2l-2.1,4.9h0v22.9c-1.4,0.1-2.9,0.1-4.4,0.2c-0.6-0.1-1.2,0-1.9,0.1
					c-1.4,0.1-2.7,0.2-4.1,0.3v-11.3c0,0,0-0.1,0-0.1c0,0,0-0.1,0-0.1v-0.4h-0.1c-0.5-1.8-3.9-1.7-6.1-0.1c-2.4,1.8-3.4,4.1-3.4,5.9
					c0,0,0,0.1,0,0.1h0v6.8l-0.3,0c-1.1-0.5-2.7-0.3-4,0.4c-2.8,0.3-5.6,0.6-8.4,1v-7.1h-2.4v-3.4l0,0V143l-3.9-5.2h-2.9l-2.5,3.6
					v3.5h-3.5v14c-0.7,0.1-1.5,0.2-2.2,0.3V158h-26.1v5.2l-5.1,0.8v-8c0-0.1,0-0.1,0-0.2c0-2.9-1.5-5.4-3.5-6.5v-2.9
					c0-1.1-0.5-2-1.4-2.5v-2.6h-1.7v2.7c-0.8,0.5-1.3,1.4-1.2,2.4v3c-2,1.1-3.4,3.6-3.4,6.4c0,0,0,0,0,0.1h0v9.9
					c-4.8,0.8-9.5,1.5-13.9,2.1l-6.9-4.1v-5.2h-2.2v5.2l-11,6.6c-2,0.2-3.8,0.3-5.6,0.4l-0.9-1.6h-3.3v-13.3h0c0,0,0,0,0-0.1
					c0-2.9-1.4-5.4-3.4-6.4v-3c0-1-0.4-1.9-1.2-2.4v-2.7h-1.7v2.6c-0.9,0.5-1.5,1.5-1.4,2.5v2.9c-2.1,1.1-3.5,3.6-3.5,6.5
					c0,0,0,0.1,0,0.1v13.2h-2.8v0.5c-1.9-0.2-3.8-0.3-5.8-0.4v-28.4h0l-7.7-23.6l-12.6-2.9l-6.1,22.1l0,0v32.6
					c-5.9,0.2-12,0.6-18.2,1v-24.3l-1.4-0.3v-3.1l0,0l-4.4-11.5l-12.9-4.3v0l0,0l0,0l0,0.1l-5.4,12.5h8.5v0l0,0h-8.5v3.2h-1.6v30.1
					c-1.4,0.2-2.7,0.3-4.1,0.5v-13.7h-1.6v-2.4h-2v-2.2h-7.5v2.2h-2.4v2.4h-2V175c-2.2,0.3-4.3,0.6-6.4,0.9v-6.7h-1.7v-4h-8.7v12.4
					c-4.9,0.8-9.5,1.7-13.8,2.5c-12.5,2.4-27.4,2.9-42.6,2.1v-14.7h-30v11.9c-1.2-0.2-2.4-0.3-3.5-0.5v-15.8h-8.6v-4.3H1475v-28
					h-16.6v7.7h-3.3v24.6h-2.5v-4.3h-9.8v-39.4h-3.8v-4.6h-4.5v-4.3h-14.4v4.3h-3.8v4.6h-3v61.2h-7.8V87.2h-3v-6.2h-16.3l0,0l0,0
					h16.4l-10.3-23.9l0-0.1l-0.1,0l0,0l0,0l-24.8,8.2l-8.4,22.1l0,0v5.9l-2.6,0.6v47.5h-22.9v22.8h-3.3v-8.3h-5.5v8.3h-3.3V75.9
					l0.1,0l-11.8-42.5l-24.1,5.5l-14.8,45.3h0v78.5h-3v-5.8h-8.1v-18.2h-5.3v-25.4c0-0.1,0-0.2,0-0.3c0-5.6-2.8-10.4-6.8-12.4v-5.6
					c0-2.2-1.2-4.1-2.8-4.8v-4.9h-3.3v5.1c-1.4,0.8-2.3,2.6-2.3,4.6v5.7c-3.9,2.1-6.6,6.8-6.6,12.4c0,0,0,0.1,0,0.1h0v25.5h-6.4
					l-3.9,7.4l-29.5-17.7v-9.9h-4.3v9.9l-29.5,17.7l-3.9-7.4h-6.4V113h0c0,0,0-0.1,0-0.1c0-5.5-2.7-10.3-6.6-12.4v-5.7
					c0-2-1-3.8-2.3-4.6v-5.1h-3.3V90c-1.6,0.7-2.8,2.6-2.8,4.8v5.6c-4,2-6.8,6.8-6.8,12.4c0,0.1,0,0.3,0,0.4v25.2h-5.3l0.2,31.2
					h-4.5l-0.1-6.2H1067l0.1,6.2h-4.3l-0.1-31.5h-6.8v-6.8l-4.8-6.8h-5.5l-7.4,10v6.2l0.1,0v6.6h-4.5l0.1,18.5h-4.3v-5.8h-3v5.8h-2
					l-0.1,4.6h0c0-3.4-1.6-7.6-5.7-10.6c-2.9-2.1-7.1-2.6-9.4-1.2v-13.4h-0.1c0-0.1,0-0.2,0-0.2c-0.1-3.5-1.9-7.9-6.5-11.3
					c-4.3-3.1-10.8-3.3-11.7,0.2H991v0.7c0,0.1,0,0.1,0,0.2c0,0.1,0,0.2,0,0.2v27.5c-1-1.9-2.5-3.6-4.2-4.8
					c-4.2-3.1-10.9-2.7-11,1.5c0,1,0.1,2,0.3,2.9h-0.1l0.1,3.8h-4.8l-0.1-54.5h0.1l-4-9.4l-14.2-11.8l-15.8,13.9l-3.2,7.4h0.2
					l0.1,76.4h-2.8l-0.1-38.8h-2.8V146h-24.4v3.1h-3.3l0.1,45.9l0,0v-18.2h-2.5l-0.1-37h-25.4l0.1,27.8h-11.6V162h-11.1v5.5H846
					l-0.1-27.8h2.3v-7.7h-5.8v-8.9h-10.6v8.9h-5.5v7.7h2.5l0.1,37h-6.5v-5.5h-3.3V166h-4.5v5.2h-2l-0.1-41h1.3v-7.1h-2.5V118h-1.3
					v-3.7h-10.1v3.7h-1.3v5.2h0v-5.3l-11.9,11.2h0.1l0.1,47.7h-17.1v-3.7h-8.1v-13.8h-13.1v25.2h-2.8v-5.2l-6.3-7.1v5.2h-2.8v-5.2
					h-22.9v11.1h-2.8v-8.3h-5.8v8.3h-19.4v5.5h53.4v14.2h-5.5v26.2h811.7v-26.2h-10.1v-7.6l24.4,0.4v7.1h-5.2v13.6h423.1v-13.6h-2.9
					v-7.4h27.8v-2.9L1992.4,192.5z"/>
				<g id="组_39" transform="translate(-59.33 434.675)">
					<g id="组_34" transform="translate(661.383 197.916)">
						<rect id="矩形_28" x="-381.4" y="-406.2" class="st5" width="39" height="6.9"/>
						<rect id="矩形_29" x="-377" y="-410.9" class="st5" width="30.3" height="6.9"/>
						<path id="路径_1542" class="st5" d="M-348.8-407.8l-4,0.3l-5.5-83.8l4-0.3L-348.8-407.8z"/>
						<path id="路径_1543" class="st5" d="M-369.2-491.6l4,0.3l-5.5,83.8l-4-0.3L-369.2-491.6z"/>
					</g>
					<g id="组_35" transform="translate(1596.27 289.92)">
						<rect id="矩形_32" x="-974.8" y="-498.2" class="st5" width="39" height="6.9"/>
						<rect id="矩形_33" x="-970.4" y="-502.9" class="st5" width="30.3" height="6.9"/>
						<path id="路径_1544" class="st5" d="M-963-543l3.9,0.6l-6.1,42.7l-3.9-0.6L-963-543z"/>
						<path id="路径_1545" class="st5" d="M-941.5-500.3l-3.9,0.6l-6.1-42.7l3.9-0.6L-941.5-500.3z"/>
						<path id="路径_186" class="st5" d="M-970.4-550v8.6h11.1c0.2-1.1,1.9-2,4-2c2.1,0,3.7,0.9,4,2h11.3v-8.6H-970.4z"/>
					</g>
					<g id="组_36" transform="translate(1307.168 289.92)">
						<rect id="矩形_36" x="-791.3" y="-498.2" class="st5" width="39" height="6.9"/>
						<rect id="矩形_37" x="-786.9" y="-502.9" class="st5" width="30.3" height="6.9"/>
						<path id="路径_1546" class="st5" d="M-779.5-543l3.9,0.6l-6.1,42.7l-3.9-0.6L-779.5-543z"/>
						<path id="路径_1547" class="st5" d="M-758-500.3l-3.9,0.6l-6.1-42.7l3.9-0.6L-758-500.3z"/>
						<path id="路径_187" class="st5" d="M-786.9-550v8.6h11.1c0.2-1.1,1.9-2,4-2c2.1,0,3.7,0.9,4,2h11.3v-8.6H-786.9z"/>
					</g>
					<g id="组_37" transform="translate(991.785 278.232)">
						<rect id="矩形_40" x="-591.1" y="-486.5" class="st5" width="39" height="6.9"/>
						<rect id="矩形_41" x="-586.7" y="-491.2" class="st5" width="30.3" height="6.9"/>
						<path id="路径_1548" class="st5" d="M-577.8-542.6l3.9,0.6l-7.7,53.9l-3.9-0.6L-577.8-542.6z"/>
						<path id="路径_1549" class="st5" d="M-557.8-488.7l-3.9,0.6l-7.6-53.1l3.9-0.6L-557.8-488.7z"/>
					</g>
					<g id="组_38" transform="translate(167.309 84.845)">
						<rect id="矩形_44" x="-67.7" y="-293.2" class="st5" width="39" height="6.9"/>
						<rect id="矩形_45" x="-63.4" y="-297.8" class="st5" width="30.3" height="6.9"/>
						<path id="路径_1550" class="st5" d="M-35.1-294.8l-4,0.3l-6.5-116.4l4-0.3L-35.1-294.8z"/>
						<path id="路径_1551" class="st5" d="M-53.9-419.8l4,0.3l-7.1,125.1l-4-0.3L-53.9-419.8z"/>
					</g>
					<path id="路径_188" class="st5" d="M38.5-366c0,0,276.4,107.6,780.7,110.3L807-224.6C807-224.6,169.9-254.8,38.5-366z"/>
				</g>
			</g>
			<path id="路径_1526" class="st6" d="M87.2,245.2c0,0,120.3-52,256.2-48.7c136,3.3,153,8.4,339.3,11.8
				C869.1,211.7,944,183.7,1101,184c157,0.4,208.2,13.9,208.2,13.9l-10.5,87.2l-1263.5,0L87.2,245.2z"/>
			<path id="路径_1525" class="st7" d="M1015.9,265.7c34.2,14.5,47,28.5,61.4,50.5c12.7,19.4,6.9,51.5,0,67.8
				c-14.8,34.8-79,40.9-143.5,13.5S761.3,350,776.1,315.2c8.1-19.2-201.5-106.8-171.6-107.8c3-0.1,45.3,0.1,90.2,2.9
				c30.1-1,78.8,6.5,107.8,12.9c24.4,5.5,49.1,11.1,81.6,20.4c20.8,6,56.1,6.1,75.8,10.3C983.7,259,1008.7,262.7,1015.9,265.7z"/>
			<path id="路径_1524" class="st8" d="M690,217.1c37.8,6.1,73.8,19.3,115,40.3c49.4,25.1,66.2,23.7,61.3,49.3
				c-9.1,46.9-168.4,55.4-355.9,18.9s-419.8,7.5-410.7-39.4c6-30.8-43-55.5,91.2-82.3c48.5-9.7,122.6-12.9,245.5-6.3
				S622.8,204.7,690,217.1z"/>
			<g id="组_123" transform="translate(0.048 42.892)" class="st9">
				<path id="路径_29" class="st10" d="M78.9-82.9c0.4-0.3-3.6-1.5-4-2.2s-0.1-1.7,0.8-2.7s4.2-2.9,5.5-2.9c1.3,0-1.1-0.9-2.4-0.7
					c-1.2,0.2-5.5,1.5-5.5,1.5s0.3,2.7-1,3.7c-1.3,1-5.2,0.4-6.4,2.2c-1.3,1.8-1,6.5-1,6.5s2-4.4,3.7-5.4s2.8-1.3,4.7-1.1
					C75.3-83.9,78.5-82.7,78.9-82.9z"/>
				<path id="路径_30" class="st10" d="M228.6-116.6c-0.4,1.8,0.6,3.7,2.4,4.3c3.2,1.2,4.1,1.6,4.7,2.8s0,2.7,0,2.7
					s3.9-1.2,4.3-2.7c0.4-1.5-1.6-1.1-0.8-2.8c0.7-1.6,2.6-4.9,2.6-4.9s-4,3.7-4,4.9c0,1.2-0.1,1.3-0.6,1.5
					c-0.5,0.2-1.3-1.7-4.6-2.5C229.2-114.2,228.6-116.6,228.6-116.6z"/>
				<path id="路径_31" class="st10" d="M73.5-31.6c-0.7,0.7,0.9,1.3,2.3,2c1.4,0.7,1,2.1,2,2.9c1,0.8,2.3,0.8,3.3,1.3
					c1,0.4,1.3,1.8,1.3,1.8s1.4,0.7,2.5,0c0.7-0.4,1.1-1,1.4-1.8c0,0-2.1-1.7-3.1-1.7c-1,0,2-10,3.6-11.5c1.5-1.5-0.8-0.9-1.8,0
					c-1,0.9-4.2,4.3-4.3,5.3c-0.1,1,0,2-0.6,2.9c-0.6,0.8-1.9,0.3-3,0C75.7-30.8,73.5-31.6,73.5-31.6z"/>
				<path id="路径_32" class="st10" d="M169.2-85c0,0,1.4-4,3.5-4.3c2.2-0.3,2.1,1.4,4.3,0.7c2.2-0.7,4.4-3.7,4.4-3.7
					s6.1,0.8,7.7,1.5s-5.7-0.7-7.3,0.6c-1.5,1.3-2.3,2.8-2.3,5.3c0,2.5-1.5-3-4.5-2.3C173-86.7,171.1-86,169.2-85z"/>
				<path id="路径_34" class="st10" d="M62.3,26.6c0.4-0.3-3.6-1.5-4-2.2c-0.4-0.7-0.1-1.7,0.8-2.7c0.9-1,4.2-2.9,5.5-2.9
					c1.3,0-1.1-0.9-2.4-0.7s-5.5,1.5-5.5,1.5s0.3,2.7-1,3.7c-1.3,1-5.2,0.4-6.4,2.2c-1.3,1.8-1,6.5-1,6.5s2-4.4,3.7-5.4
					c1.7-1.1,2.8-1.3,4.7-1.1S61.9,26.8,62.3,26.6z"/>
				<path id="路径_36" class="st10" d="M210.4-2.6c-0.7,0.7,0.9,1.3,2.3,2s1,2.1,2,2.9s2.3,0.8,3.3,1.3c1,0.4,1.3,1.8,1.3,1.8
					s1.4,0.7,2.5,0c0.7-0.4,1.1-1,1.4-1.8c0,0-2.1-1.7-3.1-1.7c-1,0,2-10,3.6-11.5s-0.8-0.9-1.8,0c-1,0.9-4.2,4.3-4.3,5.3
					c-0.1,1,0,2-0.6,2.9s-1.9,0.3-3,0C212.7-1.7,210.4-2.6,210.4-2.6z"/>
				<path id="路径_37" class="st10" d="M0.8-28c0,0,1.4-4,3.5-4.3s2.1,1.4,4.3,0.7c2.2-0.7,4.4-3.7,4.4-3.7s6.1,0.8,7.7,1.5
					c1.6,0.7-5.7-0.7-7.3,0.6c-1.5,1.3-2.3,2.8-2.3,5.3s-1.5-3-4.5-2.3C4.6-29.7,2.6-29,0.8-28z"/>
				<path id="路径_38" class="st10" d="M153.6-20.9c0.6-0.3,1.2-0.6,1.9-0.8c1.3-0.5,1,0.8,4.1,0c3.1-0.8,3.4-2.5,5.2-2.7
					c1.7-0.2,4.4,0.7,4.4,0.7s-3-2.1-4.9-1.9c-1.9,0.2-4.7,0.5-4.7,0.5s0.4-2.7-0.5-4.7c-0.8-2-4.8-4.6-5.2-5.5
					c-0.3-0.8-1.6,3.7,0,5.5c1.6,1.8,3.1,3.6,2.8,4.7C156.5-24.1,153.6-20.9,153.6-20.9z"/>
			</g>
			<g>
				<g id="组_129" transform="translate(3109.78 392.639)">
					<path id="路径_1519" class="st11" d="M-1897.4-304.1l5.8,0.7c-0.2,1.5-0.3,3-0.2,4.5c0.1,1.3,0.3,2.5,0.6,3.7l-4.2,1
						l-3.6-1.9c0.5-1.2,0.9-2.4,1.2-3.7C-1897.5-301.2-1897.4-302.7-1897.4-304.1z"/>
					<path id="路径_1518" class="st11" d="M-1882.9-238.1l-8.9-0.5l-0.7,58.7l3.7,0.2c0,0,1.4-2,2.9-16.6
						c0.3-2.9,0.1-9.4,0.8-15.5C-1884.3-217.9-1882.9-238.1-1882.9-238.1z"/>
					<path id="路径_1516" class="st11" d="M-1916.1-333.4c0,0,0.2-1.1,0.5-1.4c0.3-0.3,0.6,0.3,0.6,0.3s0.5-0.7,0.7-0.6
						s0.1,0.8,0.1,0.8s0.5-0.8,0.7-0.7s0,1,0,1s0.6-0.8,0.7-0.5c0.1,0.3-0.4,1.5-0.3,1.6c0.1,0.1,1-0.2,1,0c0,0.2-0.9,0.8-0.9,0.8
						l-0.4,1.1c0,0-0.2,18.1,1.6,22.2c2.2,5,7.2,9.8,11.6,10.3c4.4,0.5-3.8,9-3.8,9s-9.6-5.4-12.8-16.7c-2.4-8.7-0.7-20.3,0.2-25.2
						c0,0,0-0.6,0-0.7C-1916.4-333.2-1916.1-333.4-1916.1-333.4z"/>
					<ellipse id="椭圆_3" class="st11" cx="-1893.8" cy="-312" rx="9.4" ry="10.8"/>
					<path id="路径_1517" class="st11" d="M-1907.7-238.6h8.9l-2.3,58.7h-3.7c0,0-1.3-2.1-2-16.7c-0.1-2.9,0.4-9.4,0-15.6
						C-1907.3-218.4-1907.7-238.6-1907.7-238.6z"/>
					<path id="路径_1515" class="st12" d="M-1905-296.3c1.2-2.7,3.3-2.6,6.8-2.1c0.4,0.1,0.3,2.5,3,2.9c2.7,0.4,3.1-2.2,3.4-2.2
						c1.6,0.2,6.4,1.2,8.7,5.8c1.8,3.6-1.3,13.1-2.2,20.9c-0.3,2.6,0,6.8,0,6.8c3.2,3.6,6.2,7.4,9,11.5c4.1,6.2,5,14.5,5,14.5
						s-12.6,7.7-25.7,6.2s-22-7.4-22-7.4s3.1-9.8,6.6-16.2c2.1-3.8,4.5-7.3,7.3-10.5c0,0,0.8,0.9,0.8-6.6
						C-1904.2-280.3-1906.2-293.5-1905-296.3z"/>
					<path id="路径_1520" class="st11" d="M-1901.4-298.7c0.9,0.3-0.3,6.3-0.6,8c-0.3,1.7-2.6,8.4-2.6,8.4s-0.4-0.5-0.5-3.3
						c0-1.5-0.1-3.2-0.2-3.8c-0.2-1.5-1.5-3.8-1.5-5.2C-1906.8-297.3-1902.4-299.1-1901.4-298.7z"/>
					<path id="路径_1522" class="st11" d="M-1885-294.6c0,0,3.8,1,3.8,5.5s-1.8,11.6-1.8,11.6s-3.1-4.4-3.1-8.9
						C-1886.1-289.2-1885.7-291.9-1885-294.6z"/>
					<path id="路径_1521" class="st11" d="M-1884.8-290.1l3.2,0.9c0,0,1.2,4.2,2.4,9.9c0.8,3.9,1.5,8.8,2.3,13.1
						c1.2,7,1.9,11.6,2.4,13.5c0,0,0.2,0.4,0.2,0.5c0.1,0.5,0.2,0.5,0.2,0.5c0.4,0.2,0.7,0.4,1,0.6c0.1,0.2-0.6,0-0.6,0
						s0.7,0.6,0.6,0.7c-0.1,0.1-1-0.3-1-0.3s0.5,0.7,0.4,0.9c-0.1,0.2-0.7-0.4-0.7-0.4s0.6,0.9,0.3,0.8c-0.3,0-1.5-0.8-1.5-0.8
						s0.1,1.1,0,1.3c-0.1,0.1-0.5-0.8-0.5-0.8s-4-5.5-5.5-16c-0.2-1.5-0.2-2.7-0.5-4.4c-0.6-3-2.1-6.4-2.6-9.4
						C-1885.2-282.9-1885.2-286.5-1884.8-290.1z"/>
					<path id="路径_1523" class="st8" d="M-1905.2-313.7c-0.2-1.6,0-3.2,0.6-4.8c0.7-2,2.5-4.6,3.4-5.4c2-1.6,5.1-2.5,6.8-2.6
						c3.3-0.1,5.7,1.4,7,2c7,3.4,10.2,20.2,10.2,24.6c0,7.9-2.2,13.8-2.2,15.1c0,0.7-4.9,1.7-8.7,0.9c-3.2-0.7-5.4-3.2-5.6-4.2
						c-0.4-2.2,3.4-9.6,4.5-16.2c0.5-3.2,0.5-9.1,0.5-9.1c-0.3,0.1-0.7,0.1-1,0.1c-0.4,0-0.9-0.1-1.3-0.1c-0.6-0.5-1.2-1.1-1.6-1.8
						c-0.6-0.8-1.4-1.6-2.1-2.4c0,0-0.2,1.1-0.4,2.4c-0.1,0.6-0.2,1.2-0.5,1.8c0,0-2.7,0.1-5.1,0
						C-1903.3-313.5-1905.2-313.7-1905.2-313.7z"/>
				</g>
				<ellipse id="椭圆_7" class="st13" cx="1218.1" cy="213.8" rx="29" ry="7.4"/>
				<path id="路径_1527" class="st14" d="M1203.2,182.5h6.7c0,0-0.5,5.6-0.5,12.1v13.6h-4.7c0,0-2-7-2-13.6
					C1202.7,188,1203.2,182.5,1203.2,182.5z"/>
				<path id="路径_1528" class="st14" d="M1224.3,183.2l-6.7-0.3c0,0,0.2,5.6-0.2,12.2l-0.7,13.5l4.7,0.2c0,0,2.4-6.9,2.8-13.4
					C1224.4,188.7,1224.3,183.2,1224.3,183.2z"/>
				<path id="路径_1531" class="st2" d="M1207.6,207.9c0.6-0.2,1.2-0.4,1.8-0.7c0,0,1.7,1.7,1.7,2.5c0,0.6-0.9,1.3-2,1.6
					c-0.8,0.2-1.8,0-2.6,0c-1.7,0-1.8-2-1.8-3.1S1206.4,208.3,1207.6,207.9z"/>
				<path id="路径_1532" class="st2" d="M1218.3,208.6c-0.6-0.2-1.2-0.4-1.8-0.7c0,0-1.7,1.7-1.7,2.5c0,0.6,0.9,1.3,2,1.6
					c0.8,0.2,1.8,0,2.6,0c1.7,0,1.8-2,1.8-3.1S1219.5,208.9,1218.3,208.6z"/>
			</g>
			<path id="路径_1533" class="st15" d="M501.9,206c48.5,8.2,92.8,30,134.1,51c49.4,25.1,61.5,40.4,56.6,66
				c-9.1,46.9-128.7,40.6-316.1,4.2s-419.8,7.5-410.7-39.4c5.1-26.3,35-100.2,35-100.2s66.6,8.6,130.4,9.5
				c63.8,0.9,127.8-2.4,214-2.7C430.8,194,478.5,201.4,501.9,206z"/>
			<g id="Group_7" transform="matrix(-0.899, 0.438, -0.438, -0.899, 2689.587, 202.641)">
				<path id="路径_1534" class="st15" d="M2345.5,1307.8l-31.5-27.5l1.6-11.8L2345.5,1307.8z"/>
				<path id="路径_1535" class="st15" d="M2331.8,1262.8l-17.9,17.2l32.4,28.5L2331.8,1262.8z M2324.3,1279.6l4.5-4.5l7.7,19
					L2324.3,1279.6z"/>
				<path id="路径_1536" class="st15" d="M2312.9,1281.6l33.4,26.5l-38.8-21.6L2312.9,1281.6z"/>
			</g>
			<path id="路径_1537" class="st15" d="M103.7,72.6c0,0,4.6,10.7,25.1,17.2s36.4,5.9,57.9,9.6c21.5,3.6,34.1,10,34.1,10
				l-11.5,36.1c0,0-13.2-6.3-34.3-10c-21.1-3.7-35.8-3.5-56.2-10s-26.8-15.9-26.8-15.9L103.7,72.6z"/>
			<circle id="椭圆_4" class="st8" cx="60.4" cy="77.2" r="4.6"/>
			<circle id="椭圆_5" class="st8" cx="81.5" cy="83.3" r="7.3"/>
			<g>
				<path id="路径_1552" class="st16" d="M1118.4,141.3c-0.1-0.1,0.4-0.5,0.4-0.8c0-0.1-0.8-0.1-0.8-0.3c0-0.2,0.3-0.4,0.4-0.7
					c0.1-0.1-0.2-0.2-0.1-0.4c0.3-0.3,0.6-0.5,1-0.7c0.4-0.2,0.6-0.3,1-0.5c1.4-0.7,2.9-0.3,3.5,0.7c0.5,1.1-1.1,3.5-2.5,4.2
					c-0.5,0.3,0.8-1.7,0.2-1.7c-0.4,0-1.5,1-2.2,1.1c-0.2,0,0-0.5,0-0.8C1119.3,141.2,1118.5,141.5,1118.4,141.3z"/>
				<path id="路径_1529" class="st16" d="M1178.5,81.6c0.1,0,0.3,0.6,0.5,0.7c0.1,0,0.4-0.7,0.6-0.5c0.1,0.1,0.2,0.4,0.4,0.7
					c0.1,0.1,0.3-0.1,0.4,0.1c0.1,0.4,0.2,0.8,0.2,1.2c0,0.4,0,0.7,0,1.2c0,1.5-1,2.8-2.2,2.8c-1.2,0-2.6-2.5-2.6-4.1
					c0-0.6,1.1,1.5,1.5,1c0.2-0.3-0.2-1.8,0-2.5c0.1-0.2,0.4,0.2,0.7,0.3C1178.2,82.5,1178.4,81.6,1178.5,81.6z"/>
				<ellipse id="椭圆_6" class="st13" cx="1144.8" cy="209.2" rx="33.8" ry="8.8"/>
				<g id="组_128" transform="translate(2702.198 391.95)">
					<path id="路径_1511" class="st14" d="M-1546.3-186.9c3.3,0,5.3,1.4,5.3,3.2s0,5.3-5.3,5.1c-5.2-0.2-5.4-3.7-5.4-5.5
						C-1551.7-185.9-1549.6-186.9-1546.3-186.9z"/>
					<path id="路径_1512" class="st14" d="M-1573.4-189.2c3.8,0.2,6.8,1.6,6.7,3.5c-0.1,2-5.3,4.5-8.7,4.2
						c-3.4-0.3-6.3-1.4-6.2-3.3C-1581.4-186.7-1577.1-189.4-1573.4-189.2z"/>
					<path id="路径_1505" class="st16" d="M-1558.6-303.8l5.8,0.1c0,1.5,0,3,0.2,4.5c0.2,1.2,0.5,2.4,1,3.6l-7.8-0.1
						c0.4-1.2,0.7-2.5,0.8-3.8C-1558.4-301-1558.4-302.4-1558.6-303.8z"/>
					<path id="路径_1507" class="st16" d="M-1555.6-323.7c5.8,0,9.7,5.3,9.7,11.1c0,2.9-1.3,5.3-3,7.3c-1.7,1.9-3.8,3.2-6.7,3.2
						c-2.7,0-4.7-1.3-6.3-3.1c-1.9-2-2.9-4.7-2.9-7.4C-1564.8-318.4-1561.4-323.7-1555.6-323.7z"/>
					<path id="路径_1504" class="st8" d="M-1566.6-292.7c1-2.5,0.6-3.6,3.4-5.1s5.9-0.9,7.8-0.9c1.8,0,3.9-0.5,5.7-0.4
						c4.4,0.2,5.7,3.4,6.2,6.4c0.6,3.7,0.5,10.8,0.4,21.6c-0.1,14.6,0,17,0,17h-23.3c0,0,0.5-2.4-0.4-15.2
						C-1567.4-281-1567.8-289.7-1566.6-292.7z"/>
					<path id="路径_1506" class="st8" d="M-1547.3-298.5c0,0,8,5.4,13.8,3.3s8-10.9,8-10.9l3.8-0.1c0,0-1.2,16.5-8.3,19.7
						c-7.1,3.2-17.3-1-17.3-1L-1547.3-298.5z"/>
					<path id="路径_1508" class="st17" d="M-1566.4-255.2c0,0,5.7,0.5,11.6,0.5c6,0,11.9-0.5,11.9-0.5s1.1,14.9,1.1,32.3v37.8
						c0,0-2.3-1.1-4.6-1.3c-1.6-0.1-3.1,0.2-4.6,0.7c0,0-0.2-16.8-1.4-32.4s-1.9-27.9-1.9-27.9s-3,25.1-3.9,28.8
						c-0.9,3.7-8.6,31.5-8.6,31.5c-1.4-1-2.9-1.8-4.4-2.5c-1.3-0.5-2.6-0.9-4-1c0,0,6.3-24.2,7.2-31.9
						C-1566.9-229-1566.4-255.2-1566.4-255.2z"/>
					<path id="路径_1509" class="st8" d="M-1567-291.6l10.4,4.7c0,0-7.4,12.4-11.5,21c-2.6,5.3-6.2,10-10.6,13.8l-3.4-1.9
						c0,0,5.1-10.7,8.7-19.3C-1569.7-282-1567-291.6-1567-291.6z"/>
					<path id="路径_1510" class="st14" d="M-1562-333c2.4,0.9,4.8,2,7.1,3.2c4,2.1,8.4,5.2,8.8,8.5c0.8,6.3,0.2,7,0.2,7l-1,4.6
						c0,0,0.4-4.6-0.9-6.5c-1.8-2.6-4.6-3-8.4-3c-3.8,0-5.2,0.9-6.9,3c-1.4,1.8-1.1,6-1.1,6l-0.6-4.6l-5.5-4.6l5.9-1.6l-5.3-5l8.8-2
						L-1562-333z"/>
					<path id="路径_1513" class="st14" d="M-1574.7-190.5c0.7-0.7,4.7,0.7,5.4,1.8s-2.8,2.2-2.8,2.2l-3.5-1.7
						C-1575.6-188.2-1575.4-189.9-1574.7-190.5z"/>
					<path id="路径_1514" class="st14" d="M-1548.7-188.1c1.2-0.6,3.7-0.6,5,0s0,2.5,0,2.5h-5
						C-1548.7-185.6-1549.9-187.4-1548.7-188.1z"/>
				</g>
			</g>
			<path class="st18" d="M161.7,125.7c5,1,8.4-1.3,9.1-4.8c1.4-7.3-9.1-7.2-8.3-11.1c0.3-1.3,1.4-2.2,3.8-1.7
				c1.6,0.3,2.3,0.8,3.7,2.2l3.4-2.2c-1.4-1.6-2.6-2.7-6.7-3.5c-4.6-0.9-7.6,1.2-8.4,4.8c-1.5,7.2,9.4,6.5,8.4,11
				c-0.3,1.3-1.9,2.4-4.3,1.9c-2.1-0.4-2.8-1.4-4-3l-3.5,2.1C156.2,123.2,157.9,124.9,161.7,125.7z"/>
			<path class="st18" d="M174.6,126.8l8.9,1.9c6.6,0.6,11.5-2.1,12.9-8.1c1.3-6-2.5-10.4-8.4-12.1l-9.2-1.9L174.6,126.8z
				 M179.2,124.2l2.8-13.6l4.6,1c3.7,1,6.5,4.1,5.7,8.1c-0.8,4-4.4,5.9-8.5,5.5L179.2,124.2z"/>
			<path class="st18" d="M128.4,118.2l19.5,4l4.3-20.8L128.4,118.2z M144.5,118l-6.7-1.4l8.3-6L144.5,118z"/>
			<path class="st18" d="M107.5,112l8.9,1.9c6.6,0.6,11.5-2.1,12.9-8.1c1.3-6-2.5-10.4-8.4-12.1l-9.2-1.9L107.5,112z M112.1,109.5
				l2.8-13.6l4.6,1c3.7,1,6.5,4.1,5.7,8.1c-0.8,4-4.4,5.9-8.5,5.5L112.1,109.5z"/>
		</g>
	</g>
</g>
</svg>
