<svg id="Layer_1" data-name="Layer 1" xmlns="http://www.w3.org/2000/svg" xmlns:xlink="http://www.w3.org/1999/xlink" viewBox="0 0 896 896"><defs><style>.cls-1{fill:none;}.cls-2{clip-path:url(#clip-path);}.cls-3{fill:#b7dfe6;}.cls-4{fill:#566ed1;}.cls-5{fill:#ff6d6d;}.cls-6{fill:#4497ff;}.cls-7,.cls-9{fill:#25497a;stroke:#25497a;stroke-miterlimit:10;}.cls-7{stroke-width:20px;}.cls-8{fill:#ffcda5;}.cls-10{fill:#c69f98;}</style><clipPath id="clip-path"><circle id="椭圆_13" data-name="椭圆 13" class="cls-1" cx="448" cy="448" r="448"/></clipPath></defs><title>partner</title><g class="cls-2"><g id="组_38" data-name="组 38"><circle id="椭圆_13-2" data-name="椭圆 13" class="cls-3" cx="448" cy="448" r="448"/><g id="Layer_5" data-name="Layer 5"><g id="组_28" data-name="组 28"><rect id="矩形_18" data-name="矩形 18" class="cls-4" x="150.97" y="228.98" width="80.07" height="96.08"/><rect id="矩形_19" data-name="矩形 19" class="cls-5" x="246.01" y="340.56" width="68.19" height="81.83"/><rect id="矩形_20" data-name="矩形 20" class="cls-6" x="371.42" y="326.31" width="80.07" height="96.08"/><rect id="矩形_22" data-name="矩形 22" class="cls-5" x="581.38" y="326.31" width="80.07" height="96.08"/><rect id="矩形_23" data-name="矩形 23" class="cls-6" x="325.91" y="486.61" width="62" height="74.4"/><rect id="矩形_24" data-name="矩形 24" class="cls-5" x="316.72" y="163.33" width="109.41" height="131.29"/><rect id="矩形_25" data-name="矩形 25" class="cls-6" x="513.91" y="180.94" width="80.07" height="96.08"/><path id="路径_219" data-name="路径 219" class="cls-6" d="M396.81,342.23l44-22.75,41-4.77L526.27,330l2.1,123.3-128.56,2.08-11.15-37.45Z"/><path id="路径_192" data-name="路径 192" class="cls-7" d="M578.07,582.7c1.7-1,2.77-2.4,2.56-3.3h0L518.43,472.55l-6.77,3.94L573.9,583.32l0,0C574.62,583.93,576.37,583.69,578.07,582.7Z"/><path id="路径_193" data-name="路径 193" class="cls-7" d="M553.57,354.49a93.7,93.7,0,1,0-33.8,128.14,93.71,93.71,0,0,0,33.8-128.14ZM402.33,442.6a81.33,81.33,0,1,1,111.21,29.33h0A81.33,81.33,0,0,1,402.33,442.6Z"/><rect id="矩形_23-2" data-name="矩形 23" class="cls-4" x="451.49" y="532.27" width="62" height="74.4"/><rect id="矩形_25-2" data-name="矩形 25" class="cls-4" x="677.51" y="229.85" width="52.9" height="63.47"/></g><g id="组_29" data-name="组 29"><path id="路径_196" data-name="路径 196" class="cls-5" d="M633,645.86c-3.35,33.45,17,61.46,20.07,76.93,3.34,16.72-51.85,95.33-28.43,103.69s60.2,20.07,83.62,16.72,85.29,3.35,83.62-16.72-26.76-78.6-26.76-97,21.74-56.86,23.41-83.62,1.67-98.67-11.71-100.34-69.87-10.38-83.25-12.06S633,645.86,633,645.86Z"/><path id="路径_197" data-name="路径 197" class="cls-8" d="M653,475.27c-2.88,21.55,6.69,53.52,36.79,53.52s46.83-20.07,45.15-40.14-16.72-48.5-40.13-48.5S656.37,450.19,653,475.27Z"/><path id="路径_199" data-name="路径 199" class="cls-8" d="M566.72,593.22s-12.4-25.4-10.11-33.44A38.71,38.71,0,0,0,558,545.46c-.23-2.55,1.72-2.53,0-7.89a21.3,21.3,0,0,0-.85-3.78,42.35,42.35,0,0,1-2.27-4.64c-.32-1-.68-2.38-1.21-3.87-.23-.64-1.35-1.08-1.84-2.17-1.12-2.56-2.13-5.25-5.2-5.38-6.88-.27-4,.81-8.26,2.69s-6.54,1.94-8.64,4.86A19.48,19.48,0,0,0,527.4,542c3.59,9.37,19.88,42.54,20.34,53.1S566.72,593.22,566.72,593.22Z"/><path id="路径_200" data-name="路径 200" class="cls-5" d="M550.42,580.3c9.75-2.88,24.05,3.8,26.92,13.56s17.6,71.94,17.16,82.1,1.67,26.76-6.73,33.46c-10.26,8.18-22.81,3.88-28-10.65s-26.29-91.14-24-99.85S543.88,582.22,550.42,580.3Z"/><path id="路径_201" data-name="路径 201" class="cls-5" d="M661.71,570.18a121.44,121.44,0,0,0-34.8,36.75c-8.7,14.13-45.23,62.18-50.45,74.9-4.44,10.82-16.28,26.64-3.48,31.1,12.18,4.24,22.87-6.83,34.79-15.55,17.4-12.72,67.86-72.08,74.82-79.15,7.39-7.51,24.35-29.68,22.62-36.75s-3.48-19.78-15.66-19.78S672.15,563.11,661.71,570.18Z"/><path id="路径_198" data-name="路径 198" class="cls-4" d="M693.17,410.05c13.49-5,15.05-18.4,35.12-15.05s55.19,11.71,56.86,45.15,1.67,45.16,10,61.88c8.53,17.06,23.42,20.07,23.42,43.48s-14.3,46.73-13.38,56.87c1.67,18.4,38.46,40.13,28.43,68.56s-26.76,41.81-81.95,36.8-92-21.74-90.31-53.52,16.73-36.79,23.42-58.53,1.67-28.43-8.37-38.47S659,530.9,664.74,513.74c3.34-10,21.93-23.54,31.77-30.1,10-6.69,21.74-10,16.73-20.07-6.9-13.79-40.14,3.34-50.17,1.67-9-1.5-24.3-10.2-26.76-20.07-3.35-13.38,12.42-24.7,21.74-28.43C666.41,413.4,686.49,412.53,693.17,410.05Z"/><path class="cls-9" d="M803.48,885.07a80.07,80.07,0,0,0-1.4-13.44c-5.28-26.44-15-68.57-15-68.57-5-8.37-45.16,10-45.16,10l-75.26,11.72s-46.83-5.22-47,1.67c-.4,13-.11,40.61-.55,58.59Z"/></g><g id="组_30" data-name="组 30"><path id="路径_203" data-name="路径 203" class="cls-10" d="M224.22,471c-20.07,0-36.79,15.05-40.13,50.17-1.24,13-1.56,23.87.13,32.65l-1.17-.27s-19,46.22-30.74,47.89,56.86,26.76,56.86,8.36a202.33,202.33,0,0,1,3.25-30.56c1.11.19,2.25.33,3.44.46,31.78,3.34,35.12-8.36,43.48-38.47S244.3,471,224.22,471Z"/><path id="路径_204" data-name="路径 204" class="cls-10" d="M359.69,670c3.35-3.34,8.66-6.91,13.67-6.91s2.94-21.21,13.39-22.52c1.74-.22,18.35-18.34,20.33-19.11,3.48,1.58-5.79,10-4.89,16.7.32,2.41,5.92-.78,7.86,2.41,7.18,11.86-.63,26.47-9.44,29.43s-20.85,5-24.19,6.69-5,8.36-5,8.36l-20.07-5Z"/><path id="路径_206" data-name="路径 206" class="cls-9" d="M235.94,462.6a89.14,89.14,0,0,0-23.42,0c-13.38,1.67-20.07,13.37-28.43,16.72-4.47,1.79-9.59,3.79-14.32,5.63-12.54,1.44,15.15-32.94.94-42.42-15.05-10-31.77-18.41-51.84-8.36S72,467.61,87.09,476s28.43-5,36.79,0-.5,7.86,6.69,15.06c5,5,17.73-4.27,23.42,0,0,0,13.38,11.7,1.67,31.77a37.86,37.86,0,0,0,5,43.48c13.38,15.05,20.07-6.69,25.07,0s16.73,5,28.44-1.67,20.06-21.74,11.7-20.07-8.36-15-5-20.07,5-6.69,15.06-3.34,13.38,1.67,25.08-13.38S254.33,469.29,235.94,462.6Z"/><path id="路径_209" data-name="路径 209" class="cls-6" d="M361.37,678.33c-5-5-1.68-8.36-1.68-8.36s-38.46-1.67-51.84-6.69c-12.23-4.58-33.45-18.4-51.85-26.76s-23.41-23.41-35.12-28.43-25.07,0-41.81-1.67-28.43-15-53.51-5c-23.09,9.24-51.85,58.54-55.19,82C68.7,695.06,52,768.64,52,795.4s137.13,45.16,147.17,35.12c5.83-5.83-9.24-47.06-5.1-79.58a36.72,36.72,0,0,0,21.83-14.08c13.89-18,7.94-37.3,2.83-47.61,10,5.57,33.87,18.5,45.67,20.86,16.72,3.34,39.6,4.29,53.51-1.68,11.71-5,53.52-23.41,53.52-23.41A28.54,28.54,0,0,1,361.37,678.33Z"/></g></g></g></g></svg>