<svg xmlns="http://www.w3.org/2000/svg" xmlns:xlink="http://www.w3.org/1999/xlink" width="3500" height="950" viewBox="0 0 3500 950">
  <defs>
    <clipPath id="clip-path">
      <rect id="矩形_7" data-name="矩形 7" width="190.043" height="69.423" transform="translate(0 0)" fill="#fff"/>
    </clipPath>
    <clipPath id="clip-header_3">
      <rect width="3500" height="950"/>
    </clipPath>
  </defs>
  <g id="header_3" data-name="header – 3" clip-path="url(#clip-header_3)">
    <rect width="3500" height="950" fill="#fff"/>
    <path id="路径_1501" data-name="路径 1501" d="M2197.938,740.283V728.425h-8.263v11.858h-3.952v-15.81h-32.694v7.465h-3.952v-7.465h-8.622v7.465H2136.5v-36.01h-18.683V715.69h-11.5v5.269H2081.9V596.741h.12l-16.964-16.012v7.6h-.042v-7.466h-1.8V575.6h-14.369v5.269h-1.8v7.466h-3.593v10.1h1.8v60.913a121.461,121.461,0,0,0-23.353-7.513V612.047h3.593V601.068h-7.9V588.333H2002.5v12.735h-8.263v10.979h3.234v35.227c-12.092-1.838-25.153-3.349-38.441-4.686V612.047h-36.286v27.207l-3.592-.314V625.222h-4.67v-4.391h-34.849v4.391h-3.952v9.567q-1.957-.161-3.951-.3V571.648h.262l-4.61-10.549-22.53-19.784-20.242,16.9-5.776,13.432h.084v62.667q-5.912.273-11.988.651a13.672,13.672,0,0,0-5.071.331q-5.6.382-11.323.843V605.309c0-.115.013-.226.013-.342,0-.1-.008-.192-.013-.288V603.7h-.139c-1.28-4.969-10.611-4.7-16.693-.233-6.557,4.817-9.172,11.126-9.293,16.137a3.428,3.428,0,0,0,.016.344h-.116v18.615l-.764.081c-2.939-1.266-7.419-.828-11.08,1.2q-11.387,1.279-23,2.75V623.027h-6.467v-9.385l.077-.057v-8.834l-10.587-14.326h-7.847l-6.791,9.766v9.661h-9.7v38.361q-3.072.443-6.147.894v-3.244H1610.5v14.271l-14.016,2.23V640.455c0-.182.011-.364.011-.547,0-8-4-14.86-9.7-17.748v-8a7.426,7.426,0,0,0-3.964-6.908v-6.989h-4.729v7.313a7.644,7.644,0,0,0-3.344,6.584v8.1c-5.564,2.954-9.43,9.765-9.362,17.646,0,.055,0,.108,0,.163h-.03v27.207c-13.177,2.056-25.908,3.994-38.03,5.738l-18.783-11.236V647.674h-6.129v14.106l-30.075,17.989q-8.084.733-15.3,1.144l-2.338-4.426h-9.1V640.071h-.027c0-.054,0-.108,0-.163.069-7.881-3.8-14.693-9.362-17.646v-8.1a7.644,7.644,0,0,0-3.343-6.584v-7.313h-4.73v6.989a7.427,7.427,0,0,0-3.963,6.908v8c-5.692,2.888-9.7,9.745-9.7,17.748,0,.129.006.256.009.385v36.2h-7.591v1.487q-7.634-.736-15.905-1.221v-77.87h.012L1369.97,534.3l-34.441-7.917-16.815,60.634.084.019v89.351c-16.151.575-32.907,1.516-49.936,2.757V612.749l-3.712-.844v-8.429l-.043-.01-12.028-31.524-35.321-11.677,0-.015-.005.012-.094-.031.039.158-14.661,34.093h23.345l0-.014.061.015h-23.319v8.783h-4.312V685.7q-5.583.629-11.137,1.287V649.376h-4.312v-6.587h-5.388v-6.148h-20.479v6.148h-6.467v6.587h-5.388v43.053q-8.915,1.253-17.6,2.558V676.6h-4.671V665.624h-23.711v33.862c-13.344,2.232-26.02,4.522-37.78,6.829-34.157,6.7-75.057,7.841-116.635,5.838V672.006H863.211V704.7q-4.861-.625-9.649-1.282V660.211H830.127v-11.8H781.189V571.742H735.7v21.064h-8.961v67.406h-6.891v-11.8H692.961V540.567H682.624V527.93H670.216v-11.8H630.928v11.8H620.59v12.637h-8.272v167.67H590.951V452.1h-8.272v-16.85H537.938l.118-.028-.007.026h44.79l-28.129-65.409.077-.3-.182.06-.01-.024-.007.03L486.821,392l-23.077,60.481-.081.019v16.171l-7.121,1.621V600.388H393.819v62.351h-8.96V639.99H369.695v22.749h-8.96V420.959l.161-.036-32.258-116.33-66.078,15.189L222.169,443.7h.023V658.526H213.92V642.517H191.676V592.584H177.114v-69.44c0-.248.015-.5.015-.744,0-15.354-7.683-28.51-18.6-34.05V473c0-6.1-3.171-11.28-7.6-13.252V446.338h-9.074v14.03c-3.8,2.311-6.416,7.091-6.416,12.631v15.547c-10.677,5.667-18.092,18.735-17.962,33.855,0,.1,0,.208,0,.313h-.052V592.58H99.958L89.3,612.745,8.416,564.363V537.3H-3.341v27.065l-80.881,48.38L-94.873,592.58h-17.468V522.714h-.058c0-.105,0-.208,0-.313.132-15.12-7.284-28.189-17.961-33.855V473c0-5.539-2.617-10.32-6.416-12.631v-14.03h-9.074v13.409c-4.432,1.972-7.6,7.153-7.6,13.252V488.35c-10.921,5.54-18.6,18.7-18.6,34.051,0,.354.014.705.022,1.057v69.127H-186.6l.59,85.4h-12.324l-.174-17.029H-335.671l.174,17.029H-347.29l-.174-86.119h-18.611V573.327L-379.1,554.589h-15.055l-20.311,27.487v16.948l.146.109v18.005H-426.73l.174,50.733h-11.718V651.863h-8.271v16.008h-5.514l-.174,12.46h-.082c.04-9.286-4.266-20.735-15.648-29.1-7.978-5.86-19.384-7.133-25.625-3.413V611.241h-.224a6.287,6.287,0,0,0,.029-.66c-.233-9.616-5.248-21.72-17.829-30.961-11.668-8.569-29.572-9.085-32.026.447h-.269v1.871c-.008.184-.026.363-.024.555,0,.223.018.436.024.656v75.419A39.214,39.214,0,0,0-555.5,645.338c-11.421-8.389-29.883-7.392-30.132,4.225a33.618,33.618,0,0,0,.714,8.02h-.344l.174,10.289h-13.1l-.174-149.307h.161l-11.08-25.769-38.838-32.428-43.223,37.959-8.847,20.238h.5l.174,209.129h-7.582l-.174-106.342h-7.583v-8.425H-781.7v8.425h-8.961l.174,125.721h0V697.36h-6.892l-.174-101.286h-69.616l.174,76.01h-31.708V656.917h-30.327v15.167H-940.75l-.174-76.01h6.2V575.01h-15.852V550.578h-28.949V575.01h-15.164v21.064h6.891l.174,101.286h-17.92V682.2h-8.961V667.871h-12.407V682.2h-5.513l-.174-112.239h3.446V550.578h-6.892V536.252h-3.448v-10.11h-27.57v10.11h-3.446v14.325h-.082v-14.59l-32.548,30.72h.234l.174,130.653H-1149.6V687.25h-22.059V649.336H-1207.5v69.089h-7.58V704.1l-17.132-19.456v14.323h-7.583V684.645h-62.723v30.333h-7.583v-22.75h-15.853v22.75h-53.072v15.167h146.171V768.9h-15.164V840.52H974.157V768.9H946.612V747.978L1013.426,749v19.387H999.069v37.328H2157.316V768.389h-7.9v-20.2H2225.6v-7.9Z" transform="translate(3254.736 33.315)" fill="#fda2a2" opacity="0.397"/>
    <g id="组_39" data-name="组 39" transform="translate(-59.33 434.675)">
      <g id="组_34" data-name="组 34" transform="translate(661.383 197.916)">
        <rect id="矩形_28" data-name="矩形 28" width="106.691" height="18.808" transform="translate(0 233.733)" fill="#fed9d9"/>
        <rect id="矩形_29" data-name="矩形 29" width="82.911" height="18.808" transform="translate(11.971 220.971)" fill="#fed9d9"/>
        <path id="路径_1542" data-name="路径 1542" d="M.669.033,11.555,0l-.669,229.9L0,229.932Z" transform="matrix(-0.998, 0.068, -0.068, -0.998, 89.908, 229.406)" fill="#fed9d9"/>
        <path id="路径_1543" data-name="路径 1543" d="M0,0,10.886.033l.669,229.9L.669,229.9Z" transform="matrix(0.998, 0.068, -0.068, 0.998, 33.379, 0)" fill="#fed9d9"/>
      </g>
      <g id="组_35" data-name="组 35" transform="translate(1596.27 289.92)">
        <rect id="矩形_32" data-name="矩形 32" width="106.691" height="18.808" transform="translate(0 141.729)" fill="#fed9d9"/>
        <rect id="矩形_33" data-name="矩形 33" width="82.911" height="18.808" transform="translate(11.971 128.967)" fill="#fed9d9"/>
        <path id="路径_1544" data-name="路径 1544" d="M0,0,10.894.072l.747,118.108L.747,118.108Z" transform="translate(32.07 19.037) rotate(8.513)" fill="#fed9d9"/>
        <path id="路径_1545" data-name="路径 1545" d="M.747.072,11.641,0l-.747,118.108L0,118.18Z" transform="translate(91.787 135.914) rotate(171.487)" fill="#fed9d9"/>
        <path id="路径_186" data-name="路径 186" d="M4455.779,3813v23.51h30.36c.6-3.022,5.231-5.374,10.855-5.374s10.25,2.352,10.855,5.374h30.841V3813Z" transform="translate(-4443.809 -3813)" fill="#fed9d9"/>
      </g>
      <g id="组_36" data-name="组 36" transform="translate(1307.168 289.92)">
        <rect id="矩形_36" data-name="矩形 36" width="106.691" height="18.808" transform="translate(0 141.729)" fill="#fed9d9"/>
        <rect id="矩形_37" data-name="矩形 37" width="82.911" height="18.808" transform="translate(11.971 128.967)" fill="#fed9d9"/>
        <path id="路径_1546" data-name="路径 1546" d="M0,0,10.894.072l.747,118.108L.747,118.108Z" transform="translate(32.07 19.037) rotate(8.513)" fill="#fed9d9"/>
        <path id="路径_1547" data-name="路径 1547" d="M.747.072,11.641,0l-.747,118.108L0,118.18Z" transform="translate(91.787 135.914) rotate(171.487)" fill="#fed9d9"/>
        <path id="路径_187" data-name="路径 187" d="M4301.779,3813v23.51h30.36c.6-3.022,5.231-5.374,10.855-5.374s10.25,2.352,10.855,5.374h30.841V3813Z" transform="translate(-4289.809 -3813)" fill="#fed9d9"/>
      </g>
      <g id="组_37" data-name="组 37" transform="translate(991.785 278.232)">
        <rect id="矩形_40" data-name="矩形 40" width="106.691" height="18.808" transform="translate(0 153.416)" fill="#fed9d9"/>
        <rect id="矩形_41" data-name="矩形 41" width="82.911" height="18.808" transform="translate(11.971 140.654)" fill="#fed9d9"/>
        <path id="路径_1548" data-name="路径 1548" d="M0,0,10.894.072l.943,149.145L.943,149.145Z" transform="translate(36.471 0) rotate(8.513)" fill="#fed9d9"/>
        <path id="路径_1549" data-name="路径 1549" d="M.928.072,11.823,0l-.928,146.817L0,146.888Z" transform="translate(91.967 147.575) rotate(171.487)" fill="#fed9d9"/>
      </g>
      <g id="组_38" data-name="组 38" transform="translate(167.309 84.845)">
        <rect id="矩形_44" data-name="矩形 44" width="106.691" height="18.808" transform="translate(0 346.804)" fill="#fed9d9"/>
        <rect id="矩形_45" data-name="矩形 45" width="82.911" height="18.808" transform="translate(11.971 334.042)" fill="#fed9d9"/>
        <path id="路径_1550" data-name="路径 1550" d="M.8.03,11.694-.129,7.872,318.947l-10.894.158Z" transform="matrix(-0.998, 0.068, -0.068, -0.998, 90.038, 342.34)" fill="#fed9d9"/>
        <path id="路径_1551" data-name="路径 1551" d="M0,0,10.894.148l3.891,342.9L3.891,342.9Z" transform="matrix(0.998, 0.068, -0.068, 0.998, 37.804, 0)" fill="#fed9d9"/>
      </g>
      <path id="路径_188" data-name="路径 188" d="M3593.5,3559s756.7,294.7,2137.44,301.889l-33.328,85.215S3953.371,3863.332,3593.5,3559Z" transform="translate(-3593.5 -3559)" fill="#fed9d9"/>
    </g>
    <path id="路径_1552" data-name="路径 1552" d="M8.506,0c.464,0,.922,1.874,1.667,2.122.423.133,1.38-2.163,2.059-1.77.448.253.71,1.421,1.3,2.2.267.349.922-.332,1.333.3a11.749,11.749,0,0,1,.644,3.939c-.015,1.312,0,2.18,0,3.768,0,4.971-3.134,9-7,9S0,11.406,0,6.436C0,4.467,3.708,11.251,4.7,9.5c.6-1.063-.677-5.838,0-7.945.21-.663,1.258.749,2.352,1C7.495,2.646,7.977,0,8.506,0Z" transform="matrix(-0.438, -0.899, 0.899, -0.438, 2700.857, 665.291)" fill="#ffd394"/>
    <path id="路径_1530" data-name="路径 1530" d="M10,0c5.523,0,5.982,5.266,5.982,11.618,0,1.048-.1,5.7-.751,6.176s-.591-2.126-1.5-1.137C12.51,18.018,13.1,20.344,10,20.344c-1.568,0-.937.126-1.646-1.11-.436-.73-2.188-.19-2.686-1.439-.293-.714-1.908-.287-2.138-1.762-.074-.444-1.7-.286-1.7-1.232,0-.775-.993-1.406,1.05-5.105S5.151,0,10,0Z" transform="translate(2767 630.11)" fill="#ffd394"/>
    <path id="路径_1529" data-name="路径 1529" d="M7-1.557c.464,0,.922,1.874,1.667,2.122C9.09.7,10.048-1.6,10.726-1.205c.448.253.71,1.421,1.3,2.2.267.349.922-.332,1.333.3A11.749,11.749,0,0,1,14,5.232C13.985,6.544,14,7.412,14,9c0,4.971-3.134,9-7,9S-1.506,9.849-1.506,4.878c0-1.968,3.708,4.816,4.7,3.066.6-1.063-.677-5.838,0-7.945C3.4-.663,4.451.749,5.545,1,5.989,1.089,6.471-1.557,7-1.557Z" transform="translate(2884 466.685)" fill="#ffd394"/>
    <path id="路径_1526" data-name="路径 1526" d="M-124.459,166.379s329.28-142.4,701.51-133.372S995.976,56.02,1506.08,65.354,2221.2-1.979,2651.158-.989s569.92,37.957,569.92,37.957L3192.332,275.58l-3459.137-.024Z" transform="translate(361 751.46)" fill="#ebe0bc"/>
    <g id="组_129" data-name="组 129" transform="translate(3109.78 392.639)">
      <path id="路径_1519" data-name="路径 1519" d="M1.741,0h18.8a91.608,91.608,0,0,0,1.02,14.4,50.87,50.87,0,0,0,3.511,11.56l-12.9,4.809L0,25.958A55.9,55.9,0,0,0,2.32,13.749,78.29,78.29,0,0,0,1.741,0Z" transform="translate(67.469 99.95) rotate(7)" fill="#ffd394"/>
      <path id="路径_1518" data-name="路径 1518" d="M28.605,0H0L7.51,189.244H19.481s4.207-6.635,6.488-53.946c.454-9.415-1.337-30.357,0-50.188S28.605,0,28.605,0Z" transform="translate(87.55 311.622) rotate(3)" fill="#ffd394"/>
      <path id="路径_1516" data-name="路径 1516" d="M-33.346-.151s.769-3.662,1.661-4.506,1.907,1.128,1.907,1.128,1.537-2.245,2.151-2.084.305,2.727.305,2.727,1.623-2.53,2.163-2.256,0,3.352,0,3.352,2.063-2.587,2.415-1.738S-24.018,1.41-23.749,1.6s3.225-.729,3.225,0-2.783,2.71-2.783,2.71l-1.356,3.408S-25.378,66-19.57,79.411c6.96,16.072,23.387,31.655,37.425,33.157s-12.1,29.005-12.1,29.005S-25.32,124.078-35.475,87.7c-7.869-28.187-2.264-65.447.756-81.3.022-.116-.07-1.923,0-2.28C-34.03.6-33.346-.151-33.346-.151Z" transform="translate(42.14 5.622)" fill="#ffd394"/>
      <ellipse id="椭圆_3" data-name="椭圆 3" cx="30.433" cy="34.908" rx="30.433" ry="34.908" transform="translate(50.528 39.619)" fill="#ffd394"/>
      <path id="路径_1517" data-name="路径 1517" d="M-10.193,2.575H18.412L10.9,191.819H-1.069s-4.207-6.635-6.488-53.946c-.454-9.415,1.337-30.357,0-50.188S-10.193,2.575-10.193,2.575Z" transform="translate(46.227 308.771)" fill="#ffd394"/>
      <path id="路径_1515" data-name="路径 1515" d="M3.886-1.247C7.778-9.952,14.377-9.574,25.956-8c1.345.3.808,7.951,9.59,9.273S45.574-5.98,46.658-5.956c5.091.54,20.8,3.775,28.155,18.716C80.5,24.311,70.769,55.1,67.749,80.049c-1.034,8.54,0,22.07,0,22.07a341.809,341.809,0,0,1,28.907,37c13.272,19.975,16.274,46.771,16.274,46.771s-40.672,24.916-82.966,19.9S-40.972,182-40.972,182s9.868-31.711,21.235-52.13A202.4,202.4,0,0,1,3.886,95.9s2.469,3.032,2.469-21.254S-.137,7.75,3.886-1.247Z" transform="translate(40.972 126.48)" fill="#81c4ef"/>
      <path id="路径_1520" data-name="路径 1520" d="M17.331,2.873c3.054,1.064-.98,20.451-2.012,25.943s-8.286,27.2-8.286,27.2S5.7,54.564,5.469,45.428c-.124-4.948-.4-10.223-.712-12.291C4.032,28.329,0,20.751,0,16.4,0,7.5,14.277,1.809,17.331,2.873Z" transform="translate(38.892 114.519)" fill="#ffd394"/>
      <path id="路径_1522" data-name="路径 1522" d="M2.2-.342s12.123,3.2,12.123,17.779S8.495,55.011,8.495,55.011-1.494,40.952-1.494,26.369A102.282,102.282,0,0,1,2.2-.342Z" transform="translate(107.075 130.954)" fill="#ffd394"/>
      <path id="路径_1521" data-name="路径 1521" d="M4.439,0,14.41,4.258S16.376,18.1,17.593,37.105c.829,12.945.9,28.811,1.352,42.982.735,23.057,1.038,37.811,1.475,44.189.01.142.362,1.376.389,1.75.122,1.7.55,1.853.55,1.853a21.321,21.321,0,0,1,2.951,2.506c.321.577-2.047-.288-2.047-.288s1.83,2.318,1.455,2.611-2.955-1.438-2.955-1.438,1.209,2.432.945,2.98-2.115-1.59-2.115-1.59,1.6,3.026.591,2.736-4.527-3.09-4.527-3.09-.145,3.7-.57,4.057-1.13-2.615-1.13-2.615S3.709,114.311,3.709,80.074c0-4.944.583-8.732.245-14.221C3.358,56.153,0,44.5,0,34.633A130.869,130.869,0,0,1,4.439,0Z" transform="translate(105.54 145.782) rotate(-8)" fill="#ffd394"/>
      <path id="路径_1523" data-name="路径 1523" d="M-54.207-3.571a35.784,35.784,0,0,1,1.842-15.337c2.2-6.57,8.035-15,10.886-17.322,6.309-5.135,16.484-8.137,22.061-8.233,10.766-.186,18.477,4.4,22.521,6.379,22.5,11.017,32.913,65.1,32.913,79.354,0,25.459-6.948,44.427-7.2,48.672C28.676,92.2,13.128,95.584.846,92.9-9.477,90.647-16.676,82.653-17.21,79.276c-1.137-7.2,10.913-31,14.38-52.369,1.691-10.424,1.58-29.466,1.58-29.466a12.684,12.684,0,0,1-3.233.4,30.346,30.346,0,0,1-4.221-.4A38.33,38.33,0,0,1-14-8.324a67.584,67.584,0,0,0-6.864-7.646s-.687,3.637-1.268,7.646A14.845,14.845,0,0,1-23.9-2.559s-8.866.253-16.443,0S-54.207-3.571-54.207-3.571Z" transform="translate(98.286 72.731)" fill="#363131"/>
    </g>
    <path id="路径_1525" data-name="路径 1525" d="M1070.009,0c101.762,0,148.766,21.528,208.6,61.528,52.8,35.3,72.519,122.278,72.519,170.845,0,103.553-155.357,187.5-347,187.5s-485.257,64.659-485.257-38.894c0-56.954-621.658-53.517-547.481-87.9,7.515-3.484,114.173-48.261,230.348-89.226C302,168.5,431.438,106.934,454.09,102.839c67.338-12.174,168.591-6.385,260.453-17.468,58.93-7.11,147.873-44.529,201.993-55.084C981.926,17.535,1048.787,0,1070.009,0Z" transform="matrix(0.921, 0.391, -0.391, 0.921, 1793.596, 555.656)" fill="#f2f8ff"/>
    <path id="路径_1524" data-name="路径 1524" d="M1580.013,13.6c186.982-1.908,91.068,15.755,213.022,50.649,145.931,41.754,307.641,26.637,307.641,97.91,0,130.775-423.739,236.79-946.447,236.79S29.891,638.4,29.891,507.62c0-85.788-144.531-126.73,202.028-268.762,125.182-51.3,322.7-98.752,656.486-145.207S1393.031,15.507,1580.013,13.6Z" transform="translate(338.446 526.106) rotate(11)" fill="#6ea5eb"/>
    <ellipse id="椭圆_7" data-name="椭圆 7" cx="93.5" cy="24" rx="93.5" ry="24" transform="translate(3104 873)" fill="#cec08f"/>
    <path id="路径_1527" data-name="路径 1527" d="M1.523,0H23.272s-1.478,17.936-1.478,39.194V82.963H6.528S0,60.452,0,39.194,1.523,0,1.523,0Z" transform="translate(3147.777 795.793)" fill="#3c3c3c"/>
    <path id="路径_1528" data-name="路径 1528" d="M21.746-.057,0,0S1.428,17.934,1.37,39.2l-.12,43.776,15.265-.04S23.1,60.4,23.161,39.139,21.746-.057,21.746-.057Z" transform="translate(3195.728 796.972) rotate(3)" fill="#3c3c3c"/>
    <g id="组_123" data-name="组 123" transform="translate(0.048 42.892)" opacity="0.387">
      <path id="路径_29" data-name="路径 29" d="M16829.23,1013.1c1.07-.726-9.738-3.99-10.906-5.985s-.2-4.722,2.318-7.338,11.408-7.968,15.045-7.968-3.137-2.546-6.457-1.988-15.184,4.087-15.184,4.087.834,7.319-2.631,10.133-14.17,1.181-17.635,5.981-2.744,17.9-2.744,17.9,5.471-11.925,10.234-14.824,7.57-3.493,12.775-3.079S16828.16,1013.827,16829.23,1013.1Z" transform="translate(-16615.277 -918.999)" fill="#fda2a2"/>
      <path id="路径_30" data-name="路径 30" d="M16832.371,1007.988a9.884,9.884,0,0,0,6.531,11.64c8.656,3.306,11.332,4.41,12.961,7.541s0,7.28,0,7.28,10.789-3.176,11.777-7.28-4.287-3.045-2.275-7.541,7.057-13.469,7.057-13.469-10.9,10.2-10.9,13.469-.326,3.425-1.691,4.06-3.523-4.687-12.635-6.869S16832.371,1007.988,16832.371,1007.988Z" transform="translate(-16208.704 -1006.158)" fill="#fda2a2"/>
      <path id="路径_31" data-name="路径 31" d="M16787.916,930.159c-2.037,2.03,2.506,3.641,6.234,5.576s2.787,5.662,5.422,7.9,6.25,2.324,9.117,3.549,3.645,4.86,3.645,4.86,3.811,1.819,6.77,0a8.994,8.994,0,0,0,3.775-4.86s-5.781-4.682-8.557-4.78,5.588-27.357,9.768-31.376-2.281-2.6-4.986,0-11.545,11.741-11.842,14.386-.055,5.6-1.742,7.886-5.16.874-8.27,0S16787.916,930.159,16787.916,930.159Z" transform="translate(-16588.873 -695.532)" fill="#fda2a2"/>
      <path id="路径_32" data-name="路径 32" d="M16827.063,947.721s3.748-10.968,9.707-11.816,5.852,3.738,11.9,1.823,11.926-10.119,11.926-10.119,16.73,2.226,21.053,4.037-15.732-1.874-19.957,1.59-6.279,7.588-6.279,14.484-4.109-8.2-12.422-6.161A76.674,76.674,0,0,0,16827.063,947.721Z" transform="translate(-16365.791 -859.306)" fill="#fda2a2"/>
      <path id="路径_34" data-name="路径 34" d="M16829.23,1013.1c1.07-.726-9.738-3.99-10.906-5.985s-.2-4.722,2.318-7.338,11.408-7.968,15.045-7.968-3.137-2.546-6.457-1.988-15.184,4.087-15.184,4.087.834,7.319-2.631,10.133-14.17,1.181-17.635,5.981-2.744,17.9-2.744,17.9,5.471-11.925,10.234-14.824,7.57-3.493,12.775-3.079S16828.16,1013.827,16829.23,1013.1Z" transform="translate(-16660.883 -619.196)" fill="#fda2a2"/>
      <path id="路径_36" data-name="路径 36" d="M16787.916,930.159c-2.037,2.03,2.506,3.641,6.234,5.576s2.787,5.662,5.422,7.9,6.25,2.324,9.117,3.549,3.645,4.86,3.645,4.86,3.811,1.819,6.77,0a8.994,8.994,0,0,0,3.775-4.86s-5.781-4.682-8.557-4.78,5.588-27.357,9.768-31.376-2.281-2.6-4.986,0-11.545,11.741-11.842,14.386-.055,5.6-1.742,7.886-5.16.874-8.27,0S16787.916,930.159,16787.916,930.159Z" transform="translate(-16214.004 -616.084)" fill="#fda2a2"/>
      <path id="路径_37" data-name="路径 37" d="M16827.063,947.721s3.748-10.968,9.707-11.816,5.852,3.738,11.9,1.823,11.926-10.119,11.926-10.119,16.73,2.226,21.053,4.037-15.732-1.874-19.957,1.59-6.279,7.588-6.279,14.484-4.109-8.2-12.422-6.161A76.674,76.674,0,0,0,16827.063,947.721Z" transform="translate(-16827.063 -703.262)" fill="#fda2a2"/>
      <path id="路径_38" data-name="路径 38" d="M16890.684,952.06a25.86,25.86,0,0,1,5.188-2.246c3.652-1.25,2.754,2.1,11.23,0s9.375-6.759,14.141-7.345,12.084,1.813,12.084,1.813-8.281-5.625-13.393-5.067-12.832,1.433-12.832,1.433.961-7.435-1.348-12.858-13.219-12.727-14.172-14.966-4.453,10.168,0,14.966,8.557,9.971,7.744,12.858S16890.684,952.06,16890.684,952.06Z" transform="translate(-16472.16 -688.261)" fill="#fda2a2"/>
    </g>
    <path id="路径_1531" data-name="路径 1531" d="M10.663,2.957a33.606,33.606,0,0,0,5.666-2.1s5.52,5.561,5.52,7.988c0,1.942-2.827,4.306-6.507,5.228-2.578.648-5.827,0-8.362,0-5.523,0-5.947-6.364-5.947-9.954S6.827,4.087,10.663,2.957Z" transform="translate(3153 875)" fill="#fff"/>
    <path id="路径_1532" data-name="路径 1532" d="M12.218,2.957A33.607,33.607,0,0,1,6.552.855s-5.52,5.561-5.52,7.988c0,1.942,2.827,4.306,6.507,5.228,2.578.648,5.827,0,8.362,0,5.523,0,5.947-6.364,5.947-9.954S16.054,4.087,12.218,2.957Z" transform="translate(3186 877)" fill="#fff"/>
    <path id="路径_1533" data-name="路径 1533" d="M1398.284,0C1613.6,0,1499.506,53.9,1621.46,88.791c145.931,41.753,350.259,54.641,350.259,125.914,0,130.776-324.673,176.348-847.381,176.348S0,630.5,0,499.726c0-73.262,41.656-287.492,41.656-287.492s183.459-11.568,355.336-42.5S739.117,96.643,970.754,50.615C1201.019,4.86,1332.973,0,1398.284,0Z" transform="translate(-0.718 543.67) rotate(11)" fill="#8fc0ff"/>
    <g id="Group_7" data-name="Group 7" transform="matrix(-0.899, 0.438, -0.438, -0.899, 2689.587, 202.641)">
      <path id="路径_1534" data-name="路径 1534" d="M97.323,94.023.6,32.49,0,0Z" transform="translate(14.227 22.174)" fill="#8fc0ff"/>
      <path id="路径_1535" data-name="路径 1535" d="M41.332,0,0,54.006l99.358,63.663ZM27.776,48.434,38.1,34.368,66.755,82.6Z" transform="translate(14.545 0)" fill="#8fc0ff"/>
      <path id="路径_1536" data-name="路径 1536" d="M12.385,0,113.864,58.05,0,15.6Z" transform="translate(0 58.694)" fill="#8fc0ff"/>
    </g>
    <path id="路径_1537" data-name="路径 1537" d="M0,3.73S20.915,37.3,79.732,37.3,176.194,12.124,235.268,3.73s80.761,0,80.761,0V107.36s-23.042-7.791-81.254,0-92.9,31.166-151.592,31.166S0,107.36,0,107.36Z" transform="translate(2806.671 144.209) rotate(9)" fill="#8fc0ff"/>
    <g id="_5gUDqE" data-name="5gUDqE" transform="translate(3312.108 461.194)">
      <g id="组_113" data-name="组 113">
        <path id="路径_1474" data-name="路径 1474" d="M1494.824,4942.286l3.665-.161a.562.562,0,0,1,.324,1.053,23.266,23.266,0,0,0-2.964,1.847,19.1,19.1,0,0,0-6.88,11.114c-1.22,4.968-.916,9.955-.591,15.175a.6.6,0,0,0,1,.376c3.1-2.7,6.5-3.785,10.657-2.681a.559.559,0,0,1,.125,1.045c-3.889,2.019-7.539,3.938-11.23,5.78a2.361,2.361,0,0,0-1.565,2.272,83.16,83.16,0,0,0,13.67,49.022l.307.47,1.486-.417a13.444,13.444,0,0,1,.074-1.909c.525-4.232,2.6-7.881,5.11-11.3,3.371-4.6,7.228-8.906,10.229-13.7,6.4-10.231,6.526-21,1.9-31.925a1.154,1.154,0,0,1-.118-.821q3.349,4.548,6.7,9.1l1.476-.621c-.307-1.28-.622-2.558-.988-3.822-.669-2.313-1.415-4.612-2.252-6.875q-1.232-3.329-2.727-6.566c-.5-1.083-1.038-2.149-1.569-3.228a.588.588,0,0,1,.982-.618q6.026,6.387,12.056,12.775a.618.618,0,0,0,.9-.012c5.681-6.276,9.045-20.382,1.426-32.791-.33-.538.375-1.108.888-.721.939.712,1.882,1.418,2.842,2.1,1.71,1.222,3.471,2.379,5.39,3.491a.6.6,0,0,0,.9-.48,109.609,109.609,0,0,0-1.31-18.425c-.99-6.15-2.489-12.225-3.8-18.359a.577.577,0,0,1,.635-.677l7.907.674a.566.566,0,0,0,.457-.98c-1.972-1.727-3.869-3.35-5.66-5.073-3.174-3.052-6.238-6.207-9.343-9.323-1.078-1.082-1.987-1.153-2.873.129a134.055,134.055,0,0,0-7.482,11.363c-4.9,8.9-7.731,18.511-10.313,28.208-3.917,14.707-6.091,29.683-7.884,44.715-1.358,11.383-2.461,22.794-3.685,34.193-.021.193-.138.376-.479.526,0-.721-.036-1.443.005-2.163.686-11.87,1.178-23.754,2.128-35.6a385.176,385.176,0,0,1,5.1-39.575c2.219-11.952,6.219-23.276,13.45-33.385,1.743-2.437,3.778-4.687,5.724-6.939a.573.573,0,0,0-.655-.893,37.3,37.3,0,0,0-8.454,3.915,52.965,52.965,0,0,0-19.437,20.8c-1.545,2.973-2.2,6.437-2.821,9.752-1.187,6.351-2.057,12.757-3.051,19.142a2.565,2.565,0,0,0-.018.463A.587.587,0,0,0,1494.824,4942.286Z" transform="translate(-1410.175 -4799.352)" fill="#005951"/>
        <path id="路径_1475" data-name="路径 1475" d="M1639.082,5151.749h27.074a.584.584,0,0,0,.6-.551c2.266-72.8-17.01-139.5-60.266-199.567l-1.457.613c.442,1.746.886,3.491,1.351,5.231a37.958,37.958,0,0,1,1.5,11.182,4.321,4.321,0,0,0,.507,1.994c4.209,8.37,8.6,16.66,12.647,25.1a212.279,212.279,0,0,1,10.98,28.475,189.97,189.97,0,0,1,6.871,29.784,273.862,273.862,0,0,1,2.739,44.3c-.278,13.857-1.237,27.7-1.984,41.548-.18,3.339-.71,6.659-1.068,9.99-.045.421-.065.844-.087,1.3A.58.58,0,0,0,1639.082,5151.749Z" transform="translate(-1467.81 -4833.025)" fill="#754c24"/>
        <path id="路径_1476" data-name="路径 1476" d="M1585.969,4864.712a.551.551,0,0,0-.15.828c1.826,2.231,3.613,4.4,5.378,6.589,1.056,1.307,2.006,2.7,3.131,3.949a4.549,4.549,0,0,0,2.076,1.363c2.164.556,4.371.964,6.674,1.43a.585.585,0,0,0,.719-.611c-.2-1.748-.437-3.445-.538-5.121a.6.6,0,0,1,1.167-.181,29.88,29.88,0,0,0,2.105,5.348,3.335,3.335,0,0,0,2.155,1.546,194.974,194.974,0,0,0,33.786,2.612,5.367,5.367,0,0,0,.587-.044.575.575,0,0,0,.522-.622c-.494-4.447-.983-8.856-1.471-13.261l1.482-.589a32.163,32.163,0,0,1,2.6,3.28,23.208,23.208,0,0,1,4.072,13.813,1.547,1.547,0,0,0,1.152,1.687q9.747,4.2,19.466,8.461c2.863,1.254,5.715,2.532,8.542,3.857a2.009,2.009,0,0,0,2.442-.57,30.78,30.78,0,0,0,6.215-15.779c.038-.376.063-.752.109-1.127.01-.078.089-.148.388-.618.259,2.039.585,3.717.666,5.4a59.583,59.583,0,0,1-1.32,15.756,2.294,2.294,0,0,0,.915,2.663,71.567,71.567,0,0,1,19.942,24.708,1.029,1.029,0,0,0,.121.188.614.614,0,0,0,.52.232l.117-.007c.056-3.425.3-6.859.134-10.274a68.681,68.681,0,0,0-9.426-31.545,73.287,73.287,0,0,0-33.928-30.875,70.155,70.155,0,0,0-24.056-5.906,73.5,73.5,0,0,0-9.513.405c-7.386.446-14.745,1.063-21.885,3.1a145.684,145.684,0,0,0-24.651,9.782C1586.128,4864.621,1586.049,4864.665,1585.969,4864.712Z" transform="translate(-1458.342 -4781.305)" fill="#005951"/>
        <path id="路径_1477" data-name="路径 1477" d="M1544.981,4788.7c1.481-3.607,2.847-7.232,4.447-10.76,2.937-6.479,7.614-11.754,12.968-16.555a178.552,178.552,0,0,1,25.968-19.323,100.075,100.075,0,0,1,35.139-13.7c.633-.112,1.264-.238,1.9-.344a3.239,3.239,0,0,1,.677.207,101.984,101.984,0,0,0-18.932,6.354.553.553,0,0,0-.046,1c4.761,2.685,8.865,5.791,11.005,10.812a.607.607,0,0,0,.895.239c1.2-.812,2.331-1.63,3.553-2.3,3.311-1.8,6.657-3.546,10.05-5.2a1.5,1.5,0,0,0,1.026-1.594,18.836,18.836,0,0,0-1.6-7.658.586.586,0,0,1,.932-.65c1.356,1.139,2.664,3.3,4.746,7.574a.607.607,0,0,0,.688.312c2.885-.7,5.83-1.292,8.658-2.205a20.983,20.983,0,0,1,9.486-1.165,4.435,4.435,0,0,0,.728-.05,20.385,20.385,0,0,0-9.529-7.333c-7.555-2.888-15.4-3.306-23.412-2.58a104.7,104.7,0,0,0-19.1,3.459,107.221,107.221,0,0,0-20.763,8.024,74.056,74.056,0,0,0-21,16.262c-3.161,3.537-6.011,7.324-8.931,11.011a.6.6,0,0,1-1.071-.34v-1.222l-1.511-.637-.06.052-1.018-.847q.665-.918,1.311-1.847a2.867,2.867,0,0,0,.548-1.8,53.6,53.6,0,0,0-6.471-19.6.611.611,0,0,0-1.031-.027,15.912,15.912,0,0,1-4.957,4.979c-.591.366-1.246-.358-.768-.852a20.086,20.086,0,0,0,3.417-4.6c.089-.168.2-.323.3-.486.91-1.506,1.1-2.893-.267-4.354a33.46,33.46,0,0,1-2.632-3.451.618.618,0,0,0-.874-.117l-1.647,1.293-1.24-.864c.3-.7.6-1.4.929-2.094a1.433,1.433,0,0,0-.344-1.856,62.255,62.255,0,0,0-15-11.5,2.369,2.369,0,0,0-.545-.117l-.18.96-1.414.119a8.669,8.669,0,0,1-.329-1,3.248,3.248,0,0,0-2.465-2.343c-3.072-1-6.135-2.021-9.261-2.947a.573.573,0,0,0-.651.886c2.645,3.125,3.209,6.973,3.673,10.841.106.886.431,1.2,1.308,1.545,2.085.815,4.114,1.759,6.148,2.69l-.187,1.367c-1.308.236-2.617.472-3.9.8-2.613.678-2.528.733-2.244,3.323.305,2.791.489,5.595.719,8.42a.585.585,0,0,0,.532.52l6.511.677.047,1.378-6.351,1.067a.576.576,0,0,0-.492.607c.385,4.3.756,8.447,1.121,12.516a.592.592,0,0,0,.729.5l7.284-1.582.11.351-.885.386c-1.078.472-2.207.86-3.223,1.431-2.387,1.34-3.977,2.9-3.126,6.012,1.156,4.23,1.809,8.583,2.7,12.878a9.224,9.224,0,0,0,.424,1.3.6.6,0,0,0,.7.365l8.117-1.866a.568.568,0,0,1,.538.972,24.269,24.269,0,0,1-7.677,4.055.563.563,0,0,0-.369.711,64.3,64.3,0,0,0,8.091,16.287.616.616,0,0,0,.825.152,45.138,45.138,0,0,1,14.87-6,.565.565,0,0,0,.452-.678c-.7-2.85-1.327-5.607-2.065-8.339-2.535-9.391-4.932-18.822-7.732-28.143a122.577,122.577,0,0,0-10.511-23.968c-2.6-4.7-5.6-9.212-8.413-13.81a1.272,1.272,0,0,1-.2-.883,4.034,4.034,0,0,1,.662.542,155.292,155.292,0,0,1,20.11,32.906c5.9,13.09,9.8,26.583,9.317,40.979A2.3,2.3,0,0,0,1544.981,4788.7Z" transform="translate(-1419.891 -4707)" fill="#005951"/>
        <path id="路径_1478" data-name="路径 1478" d="M1337.277,4871.514c.539-.362,1.087-.708,1.656-1.02,4.546-2.49,9.1-4.978,13.746-7.285a4.036,4.036,0,0,0,2.4-2.75c.125-.467.27-.931.435-1.434a.6.6,0,0,1,1.144.024l.46,1.659a.6.6,0,0,0,.749.4c1.486-.424,2.939-.822,4.361-1.3a1.382,1.382,0,0,0,.633-.964,34.308,34.308,0,0,1,3.506-9.451.6.6,0,0,1,1.132.247v8.231a.58.58,0,0,0,.636.563c2.573-.18,5.2-.348,7.826-.6.321-.03.705-.567.854-.942a44.691,44.691,0,0,1,6.362-10.981,8.28,8.28,0,0,1,1.353-1.355,37.316,37.316,0,0,0-3.284,12.869.578.578,0,0,0,.539.6,48.211,48.211,0,0,1,22.877,7.939.6.6,0,0,0,.944-.42,36.236,36.236,0,0,0-1.025-10.955l.424-.1a47.334,47.334,0,0,1,1.794,5.43c.526,2.531.724,5.123,1.1,7.684a2.556,2.556,0,0,0,.493,1.247c2.569,3.048,5.175,6.067,7.772,9.093.07.082.141.162.23.26a.611.611,0,0,0,1-.152c.965-2.21,1.906-4.247,2.688-6.338.635-1.7,1.163-3.432,1.685-5.129a.6.6,0,0,1,1.156.044c.932,4.43.092,10.083-2.446,15.461a.546.546,0,0,0,.169.674l3.02,2.273a.611.611,0,0,0,.9-.186,59.4,59.4,0,0,1,18.6-21.028.548.548,0,0,0,0-.917c-2.116-1.433-4.125-2.843-6.206-4.149-6.744-4.233-13.368-8.667-20.327-12.554a67.19,67.19,0,0,0-26.885-8.531,45.751,45.751,0,0,0-26.1,5.061c-9.88,5.236-17.259,12.88-23.434,21.7-1.4,2-2.726,4.056-4.052,6.107Z" transform="translate(-1336.157 -4774.2)" fill="#005951"/>
        <path id="路径_1479" data-name="路径 1479" d="M1583.706,4819.165a.588.588,0,0,0,.881.626c3.736-2.105,7.119-4.067,10.577-5.9a92.015,92.015,0,0,1,27.329-9.632c3.012-.528,6.109-.606,9.155-.981a3.727,3.727,0,0,0,1.827-.868c2.471-2.11,2.349-4.587,1.374-7.4a43.945,43.945,0,0,0-6.9-12.78.576.576,0,0,1,.772-.826,42.018,42.018,0,0,1,11.776,10.071.616.616,0,0,0,.908.032c1.354-1.4,1.307-1.6.326-3.44-1.066-2-2.2-3.961-3.315-5.911a.582.582,0,0,1,.81-.767c1.64.842,3.005,2.338,5.039,5.394a.615.615,0,0,0,.941.083c1.372-1.413,2.742-2.808,4.057-4.246a1.794,1.794,0,0,0,.246-1.186c-.171-4.441-2.934-11.833-5.907-15.811a.61.61,0,0,0-.757-.165c-1.689.85-3.421,1.687-5.105,2.6a139.777,139.777,0,0,0-27.173,19.434q-6.567,5.954-13.056,11.984c-4.877,4.543-8.343,10.047-11.635,15.66q-1.087,1.852-2.067,3.761A1.482,1.482,0,0,0,1583.706,4819.165Z" transform="translate(-1457.358 -4737.079)" fill="#005951"/>
      </g>
    </g>
    <g id="_5gUDqE-2" data-name="5gUDqE" transform="translate(3326.006 576.698) rotate(9)" opacity="0.449">
      <g id="组_115" data-name="组 115" transform="translate(0 0)">
        <path id="路径_1486" data-name="路径 1486" d="M2.659,35.988l2.4-.125a.366.366,0,0,1,.207.688,15.609,15.609,0,0,0-1.947,1.226A12.78,12.78,0,0,0-1.241,45.1c-.824,3.261-.651,6.527-.467,9.945a.389.389,0,0,0,.654.242,7.2,7.2,0,0,1,6.98-1.811A.365.365,0,0,1,6,54.156C3.449,55.5,1.054,56.774-1.369,58A1.578,1.578,0,0,0-2.4,59.5,53.949,53.949,0,0,0,6.27,91.548c.065.1.132.2.2.306l.973-.281A8.823,8.823,0,0,1,7.5,90.322a16.242,16.242,0,0,1,3.4-7.43c2.228-3.028,4.771-5.873,6.758-9.031,4.238-6.736,4.376-13.792,1.412-20.927A.756.756,0,0,1,19,52.4l4.33,5.925.967-.414c-.194-.836-.393-1.672-.625-2.5-.425-1.512-.9-3.014-1.436-4.494q-.787-2.174-1.747-4.288c-.321-.707-.667-1.4-1.008-2.107a.389.389,0,0,1,.646-.409l7.812,8.31a.4.4,0,0,0,.588-.013c3.746-4.141,6.02-13.4,1.107-21.492-.213-.351.251-.728.584-.476.609.461,1.222.919,1.846,1.363,1.111.791,2.256,1.54,3.5,2.259a.4.4,0,0,0,.594-.318A71.793,71.793,0,0,0,35.4,21.675c-.614-4.024-1.562-8-2.386-12.01a.384.384,0,0,1,.419-.447l5.164.4a.374.374,0,0,0,.3-.645c-1.28-1.121-2.511-2.175-3.673-3.3C33.171,3.7,31.185,1.645,29.172-.381c-.7-.7-1.292-.746-1.879.1C25.586,2.178,23.784,4.6,22.343,7.2c-3.247,5.855-5.151,12.168-6.89,18.535a212.227,212.227,0,0,0-5.391,29.338C9.113,62.539,8.332,70.021,7.471,77.5c-.015.126-.092.247-.317.347,0-.472-.016-.946.015-1.417.511-7.781.9-15.569,1.58-23.339A254.723,254.723,0,0,1,12.3,27.13,54.617,54.617,0,0,1,21.265,5.187C22.417,3.582,23.758,2.1,25.042.613A.372.372,0,0,0,24.619.03a24.837,24.837,0,0,0-5.546,2.609A35.479,35.479,0,0,0,6.259,16.363a23.312,23.312,0,0,0-1.9,6.4c-.81,4.168-1.413,8.37-2.1,12.558a1.629,1.629,0,0,0-.014.3A.377.377,0,0,0,2.659,35.988Z" transform="translate(49.922 55.887)" fill="#005951"/>
        <path id="路径_1487" data-name="路径 1487" d="M21.179,130.926l17.695-.137a.39.39,0,0,0,.393-.364C41.134,82.711,28.892,39.106.941-.03l-.956.41C.265,1.52.545,2.662.84,3.8a24.8,24.8,0,0,1,.923,7.319,2.808,2.808,0,0,0,.32,1.3c2.707,5.463,5.535,10.872,8.132,16.383a137.1,137.1,0,0,1,7.025,18.6,123.454,123.454,0,0,1,4.332,19.48A179.38,179.38,0,0,1,23.127,95.9c-.255,9.081-.956,18.157-1.518,27.233-.136,2.189-.5,4.367-.751,6.551-.032.276-.047.554-.064.855A.374.374,0,0,0,21.179,130.926Z" transform="translate(87.081 75.692)" fill="#754c24"/>
        <path id="路径_1488" data-name="路径 1488" d="M-.152,7.965a.363.363,0,0,0-.1.542C.927,9.96,2.084,11.373,3.226,12.8c.683.852,1.3,1.759,2.025,2.572a2.91,2.91,0,0,0,1.35.883c1.411.352,2.851.609,4.354.9a.39.39,0,0,0,.473-.4c-.121-1.145-.268-2.256-.325-3.353a.391.391,0,0,1,.764-.125,19.25,19.25,0,0,0,1.347,3.493,2.132,2.132,0,0,0,1.4,1A126.653,126.653,0,0,0,36.683,19.31c.122,0,.245-.015.384-.032a.384.384,0,0,0,.344-.411c-.3-2.911-.595-5.8-.891-8.681l.972-.393a20.61,20.61,0,0,1,1.68,2.136,15.052,15.052,0,0,1,2.587,9.03,1,1,0,0,0,.744,1.1q6.348,2.7,12.678,5.445c1.864.808,3.721,1.631,5.562,2.485a1.323,1.323,0,0,0,1.6-.386,20.52,20.52,0,0,0,4.145-10.371c.027-.246.045-.494.077-.739.007-.051.059-.1.257-.407.159,1.335.363,2.433.406,3.538a39.274,39.274,0,0,1-.946,10.33,1.486,1.486,0,0,0,.584,1.74,45.807,45.807,0,0,1,12.9,16.088.672.672,0,0,0,.079.123.4.4,0,0,0,.339.15l.076-.005c.055-2.245.233-4.5.143-6.733a44.52,44.52,0,0,0-5.993-20.622A46.862,46.862,0,0,0,52.4,2.636,45.272,45.272,0,0,0,36.71-1.112,48.12,48.12,0,0,0,30.49-.8a66.744,66.744,0,0,0-14.32,2.14A96.723,96.723,0,0,0,.006,7.876C-.047,7.9-.1,7.933-.152,7.965Z" transform="translate(81.139 44.691)" fill="#005951"/>
        <path id="路径_1489" data-name="路径 1489" d="M24.27,53.333c.987-2.371,1.9-4.752,2.964-7.073A33.994,33.994,0,0,1,35.8,35.348,119.328,119.328,0,0,1,52.872,22.556,66.364,66.364,0,0,1,75.911,13.4c.414-.076.827-.162,1.242-.235a2.084,2.084,0,0,1,.441.132,67.551,67.551,0,0,0-12.408,4.258.363.363,0,0,0-.035.652c3.1,1.735,5.763,3.75,7.135,7.029a.393.393,0,0,0,.583.153c.789-.539,1.532-1.08,2.334-1.522,2.173-1.2,4.369-2.358,6.6-3.458a1,1,0,0,0,.679-1.05,12.249,12.249,0,0,0-1.007-5.009.387.387,0,0,1,.613-.431c.88.738,1.724,2.148,3.062,4.938a.39.39,0,0,0,.448.2c1.89-.475,3.817-.876,5.671-1.488a13.761,13.761,0,0,1,6.206-.812,2.866,2.866,0,0,0,.476-.036,13.025,13.025,0,0,0-6.189-4.756,33.4,33.4,0,0,0-15.288-1.574,68.843,68.843,0,0,0-12.5,2.364,71.03,71.03,0,0,0-13.613,5.362A49.537,49.537,0,0,0,36.54,28.882c-2.085,2.333-3.968,4.829-5.9,7.259a.389.389,0,0,1-.7-.217l.007-.8-.984-.41-.04.035-.661-.55q.44-.605.866-1.218A1.9,1.9,0,0,0,29.5,31.8a34.709,34.709,0,0,0-4.125-12.81.4.4,0,0,0-.674-.013,10.656,10.656,0,0,1-3.266,3.288.374.374,0,0,1-.5-.554A13.455,13.455,0,0,0,23.2,18.674c.059-.11.135-.213.2-.32a2.1,2.1,0,0,0-.151-2.852,21.327,21.327,0,0,1-1.7-2.249.4.4,0,0,0-.571-.072l-1.083.856-.806-.559c.2-.461.4-.922.619-1.376a.935.935,0,0,0-.215-1.215A39.774,39.774,0,0,0,9.746,3.425a1.573,1.573,0,0,0-.355-.074l-.123.631-.925.085a5.671,5.671,0,0,1-.209-.655,2.079,2.079,0,0,0-1.6-1.523C4.534,1.25,2.537.6.5,0a.38.38,0,0,0-.43.585c1.712,2.033,2.06,4.552,2.343,7.085.065.58.275.784.846,1.006,1.358.523,2.679,1.131,4,1.731l-.13.9c-.856.161-1.712.322-2.551.546-1.711.457-1.655.493-1.484,2.188.185,1.828.29,3.664.425,5.514a.374.374,0,0,0,.344.338l4.252.41.023.9-4.156.73a.385.385,0,0,0-.325.4c.229,2.813.45,5.53.666,8.194a.382.382,0,0,0,.474.325l4.769-1.074.07.229-.581.257c-.707.315-1.447.575-2.114.953-1.567.89-2.614,1.922-2.075,3.955.733,2.765,1.137,5.614,1.7,8.424a6.081,6.081,0,0,0,.27.847.388.388,0,0,0,.457.235l5.315-1.264a.369.369,0,0,1,.346.634,16.152,16.152,0,0,1-5.039,2.7.373.373,0,0,0-.245.467,41.386,41.386,0,0,0,5.2,10.631.4.4,0,0,0,.538.1,29.959,29.959,0,0,1,9.751-4.006.376.376,0,0,0,.3-.446c-.44-1.864-.838-3.667-1.305-5.454-1.607-6.14-3.123-12.307-4.9-18.4a79.012,79.012,0,0,0-6.742-15.651C8.832,10.92,6.9,7.981,5.084,4.982A.831.831,0,0,1,4.956,4.4a2.555,2.555,0,0,1,.43.352A99.677,99.677,0,0,1,18.354,26.215c3.789,8.546,6.261,17.368,5.872,26.8A1.5,1.5,0,0,0,24.27,53.333Z" transform="translate(55.069 -1.782)" fill="#005951"/>
        <path id="路径_1490" data-name="路径 1490" d="M-.118,21.563c.354-.239.714-.47,1.088-.676,2.984-1.655,5.972-3.308,9.023-4.843a2.7,2.7,0,0,0,1.583-1.814c.084-.307.181-.611.292-.942a.4.4,0,0,1,.747.01l.292,1.085a.386.386,0,0,0,.487.255c.973-.285,1.925-.553,2.857-.875a.927.927,0,0,0,.419-.635,22.865,22.865,0,0,1,2.342-6.21.391.391,0,0,1,.739.156l-.044,5.393a.374.374,0,0,0,.413.367c1.683-.131,3.4-.254,5.118-.431.21-.022.464-.375.563-.622a29.88,29.88,0,0,1,4.216-7.227,5.511,5.511,0,0,1,.892-.895,24.768,24.768,0,0,0-2.215,8.449.371.371,0,0,0,.349.388,31.014,31.014,0,0,1,14.91,5.086.4.4,0,0,0,.619-.279,23.713,23.713,0,0,0-.611-7.173l.277-.071a30.731,30.731,0,0,1,1.144,3.549c.33,1.656.446,3.353.678,5.029a1.66,1.66,0,0,0,.316.815c1.663,1.984,3.35,3.948,5.031,5.918.045.053.092.105.149.169a.4.4,0,0,0,.656-.105c.642-1.453,1.268-2.792,1.79-4.166.424-1.115.779-2.255,1.128-3.369a.394.394,0,0,1,.755.022A16.8,16.8,0,0,1,54.2,28.062a.353.353,0,0,0,.107.44l1.962,1.475a.4.4,0,0,0,.587-.127A39.79,39.79,0,0,1,69.129,15.979a.36.36,0,0,0,0-.6c-1.375-.929-2.681-1.842-4.034-2.688-4.385-2.74-8.69-5.611-13.218-8.122A43.232,43.232,0,0,0,34.353-.886,30.092,30.092,0,0,0,17.267,2.562C10.782,6.042,5.918,11.089,1.835,16.9c-.927,1.319-1.8,2.672-2.68,4.021Z" transform="translate(-1.65 40.843)" fill="#005951"/>
        <path id="路径_1491" data-name="路径 1491" d="M-1.375,34.316a.379.379,0,0,0,.573.406c2.453-1.4,4.675-2.7,6.944-3.92a60.945,60.945,0,0,1,17.913-6.449c1.971-.361,4-.428,5.989-.689a2.478,2.478,0,0,0,1.2-.579c1.626-1.395,1.56-3.017.937-4.858a28.252,28.252,0,0,0-4.44-8.338.382.382,0,0,1,.509-.546,26.86,26.86,0,0,1,7.643,6.539.4.4,0,0,0,.593.017c.893-.926.863-1.056.232-2.256-.686-1.3-1.418-2.585-2.135-3.856a.386.386,0,0,1,.533-.507c1.068.544,1.952,1.517,3.265,3.509a.4.4,0,0,0,.615.048c.9-.933,1.807-1.852,2.674-2.8a1.191,1.191,0,0,0,.167-.778A22.348,22.348,0,0,0,38.059-1.072a.393.393,0,0,0-.494-.1C36.457-.611,35.32-.054,34.214.555A93.406,93.406,0,0,0,16.351,13.425q-4.323,3.933-8.6,7.918A44.7,44.7,0,0,0,.067,31.663q-.72,1.22-1.371,2.475A1.033,1.033,0,0,0-1.375,34.316Z" transform="translate(81.533 17.48)" fill="#005951"/>
      </g>
    </g>
    <circle id="椭圆_4" data-name="椭圆 4" cx="12.5" cy="12.5" r="12.5" transform="translate(2677 175)" fill="#acacac"/>
    <circle id="椭圆_5" data-name="椭圆 5" cx="20" cy="20" r="20" transform="translate(2729 175.365)" fill="#acacac"/>
    <g id="Frame-2" transform="translate(2860.271 190.491) rotate(5)" clip-path="url(#clip-path)">
      <path id="路径_1538" data-name="路径 1538" d="M16.259,50.539c11.105,0,17.208-6.893,17.208-15.327-.309-17.16-22.6-12.1-22.6-21.408,0-3.171,2.055-5.766,7.386-5.766,3.447,0,5.171.717,8.775,3.384l6.146-6.579C29.565,1.888,26.482-.128,17.448.006,7.232.244,1.73,6.332,1.73,14.907c.05,17.079,22.752,10.329,22.787,21.16,0,3.1-2.93,6.459-8.273,6.459-4.664,0-6.515-1.763-9.79-4.861L0,44.047C3.444,47.506,7.837,50.51,16.259,50.539Z" transform="translate(101.466 3.897)" fill="#fff"/>
      <path id="路径_1539" data-name="路径 1539" d="M0,48H19.821c14.323-1.692,23.565-10.293,23.722-24.47S33.677,1.018,20.338,0H0Zm8.549-7.939.031-32.3h10.27c8.34.593,15.6,6.3,15.6,15.768s-6.738,15.533-15.6,16.529Z" transform="translate(146.31 7.048)" fill="#fff"/>
      <path id="路径_1540" data-name="路径 1540" d="M0,49.55l43.126-.078V0Zm34.022-8.066L19.1,41.406,34.067,23.815Z" transform="translate(46.389 17.999)" fill="#ff6d6d"/>
      <path id="路径_1541" data-name="路径 1541" d="M0,48H19.821c14.323-1.692,23.565-10.293,23.722-24.47S33.678,1.018,20.339,0H0Zm8.549-7.939.031-32.3H18.849c8.341.593,15.6,6.3,15.6,15.768s-6.738,15.533-15.6,16.529Z" transform="translate(-0.005 14.044)" fill="#fff"/>
    </g>
    <ellipse id="椭圆_6" data-name="椭圆 6" cx="109" cy="28.5" rx="109" ry="28.5" transform="translate(2698 840)" fill="#cec08f"/>
    <g id="组_128" data-name="组 128" transform="translate(2702.198 391.95)">
      <path id="路径_1511" data-name="路径 1511" d="M19.461,0C30.089,0,36.442,4.609,36.442,10.294s-.12,16.981-16.982,16.447S2.061,14.788,2.061,9.1,8.832,0,19.461,0Z" transform="translate(96.276 471.216)" fill="#4e4e4e"/>
      <path id="路径_1512" data-name="路径 1512" d="M25.451,0C37.576,0,47.708,3.955,47.708,10.279S31.519,25.784,20.551,25.4,0,21.984,0,15.661,13.327,0,25.451,0Z" transform="translate(3.046 462.68) rotate(3)" fill="#4e4e4e"/>
      <path id="路径_1505" data-name="路径 1505" d="M1.741,0h18.8a91.608,91.608,0,0,0,1.02,14.4,50.87,50.87,0,0,0,3.511,11.56H0A55.9,55.9,0,0,0,2.32,13.749,78.29,78.29,0,0,0,1.741,0Z" transform="matrix(1, 0.017, -0.017, 1, 74.393, 94.167)" fill="#ffd394"/>
      <path id="路径_1507" data-name="路径 1507" d="M34.409-2.436c18.663,0,31.291,17.23,31.291,35.967,0,9.35-4.1,17.166-9.731,23.484-5.328,5.979-12.21,10.442-21.561,10.442-8.865,0-15.152-4.106-20.4-9.9a35.455,35.455,0,0,1-9.4-24.031C4.617,14.794,15.746-2.436,34.409-2.436Z" transform="translate(51.48 32.297)" fill="#ffd394"/>
      <path id="路径_1504" data-name="路径 1504" d="M15.013,16.3C18.174,8.285,17.026,4.774,26.12-.018S45.075-2.793,51.39-2.869c5.8-.07,12.537-1.629,18.4-1.321C84.022-3.443,88.332,6.654,89.924,16.3c1.982,12.007,1.631,34.709,1.322,69.532-.418,47.131,0,54.909,0,54.909H16.153s1.763-7.64-1.14-49.125C12.394,54.191,11.139,26.125,15.013,16.3Z" transform="translate(35.204 113.624)" fill="#a5b3e3"/>
      <path id="路径_1506" data-name="路径 1506" d="M.756,23.223S26.391,41.087,45.131,34.745,71.451,0,71.451,0L83.766,0S78.973,53.117,55.842,63.167,0,58.987,0,58.987Z" transform="translate(111.538 87.972) rotate(-1)" fill="#a5b3e3"/>
      <path id="路径_1508" data-name="路径 1508" d="M-2.884,0S15.421,1.753,34.694,1.753,73.248,0,73.248,0,76.93,48.124,76.93,104.067v121.8s-7.5-3.674-14.93-4.2a41.684,41.684,0,0,0-14.806,2.1s-.756-54.082-4.557-104.556S36.395,29.14,36.395,29.14s-9.776,81.02-12.572,92.938S-3.841,223.772-3.841,223.772a89.484,89.484,0,0,0-14.325-8.2,42.825,42.825,0,0,0-12.814-3.162s20.22-77.953,23.346-103.015S-2.884,0-2.884,0Z" transform="translate(53.758 251.024)" fill="#9b9b9b"/>
      <path id="路径_1509" data-name="路径 1509" d="M17.482,0,53.819,6.417S40.446,50.945,34.271,81.193a141.32,141.32,0,0,1-22.259,51.6L0,129.431S7.657,91.987,12.129,62.072,17.482,0,17.482,0Z" transform="translate(32.126 129.229) rotate(14)" fill="#a5b3e3"/>
      <path id="路径_1510" data-name="路径 1510" d="M15.87-21.446A191.444,191.444,0,0,1,38.778-11.263C51.658-4.46,65.786,5.364,67.2,16.075c2.684,20.362.617,22.688.617,22.688l-3.07,14.9s1.306-14.9-2.935-20.872c-5.963-8.4-14.791-9.59-27.125-9.59S17.8,26.08,12.476,32.789C7.849,38.623,9.05,52.039,9.05,52.039l-2-14.945-17.631-15L8.6,17.05-8.4.822,19.858-5.761Z" transform="translate(49.268 21.446)" fill="#4e381e"/>
      <path id="路径_1513" data-name="路径 1513" d="M.858,1.926c1.509-2.751,15.157-2.392,18.25.047s-6.447,9.635-6.447,9.635L.291,9.908S-.652,4.677.858,1.926Z" transform="matrix(0.951, 0.309, -0.309, 0.951, 24.091, 457.504)" fill="#4e4e4e"/>
      <path id="路径_1514" data-name="路径 1514" d="M-.21-.177c4.028-2.014,12.084-2.014,16.112,0s0,8.056,0,8.056H-.21S-4.238,1.837-.21-.177Z" transform="translate(108.339 467.813)" fill="#4e4e4e"/>
    </g>
  </g>
</svg>
