<?xml version="1.0" encoding="utf-8"?>
<!-- Generator: Adobe Illustrator 24.0.0, SVG Export Plug-In . SVG Version: 6.00 Build 0)  -->
<svg version="1.1" id="Layer_1" xmlns="http://www.w3.org/2000/svg" xmlns:xlink="http://www.w3.org/1999/xlink" x="0px" y="0px"
	 viewBox="0 0 896 896" style="enable-background:new 0 0 896 896;" xml:space="preserve">
<style type="text/css">
	.st0{fill:#B7DFE6;}
	.st1{fill:#4497FF;stroke:#B7DFE6;stroke-width:15;stroke-linecap:round;stroke-linejoin:round;stroke-miterlimit:10;}
</style>
<g id="组_41" transform="translate(-942 -1535)">
	<circle id="椭圆_13" class="st0" cx="1390" cy="1983" r="448"/>
</g>
<g>
	<path class="st1" d="M177.6,289v321.6c0,8.8,9.9,14.1,17.2,9.1l206.9-140.2c6-4,6.5-12.6,1.1-17.4L195.9,280.7
		C188.7,274.5,177.6,279.5,177.6,289z"/>
	<path class="st1" d="M494.3,479.4l206.9,140.2c7.3,5,17.2-0.3,17.2-9.1V289c0-9.5-11.1-14.5-18.2-8.3L493.2,462
		C487.8,466.8,488.4,475.4,494.3,479.4z"/>
	<path class="st1" d="M440.8,495.3L419.9,477c-3.8-3.3-9.3-3.6-13.4-0.8l-199.2,135c-9,6.1-4.7,20.1,6.2,20.1h469.1
		c10.8,0,15.1-14,6.2-20.1l-199.2-135c-4.1-2.8-9.7-2.5-13.4,0.8l-20.9,18.3C451.1,498.9,444.9,498.9,440.8,495.3z"/>
	<path class="st1" d="M455.2,495.3L696.4,284c7.6-6.7,2.9-19.3-7.2-19.3H206.9c-10.2,0-14.9,12.6-7.2,19.3l241.1,211.3
		C444.9,498.9,451.1,498.9,455.2,495.3z"/>
</g>
</svg>
