<?xml version="1.0" encoding="utf-8"?>
<!-- Generator: Adobe Illustrator 23.0.4, SVG Export Plug-In . SVG Version: 6.00 Build 0)  -->
<svg version="1.1" id="Layer_1" xmlns="http://www.w3.org/2000/svg" xmlns:xlink="http://www.w3.org/1999/xlink" x="0px" y="0px"
	 viewBox="0 0 1280 240" style="enable-background:new 0 0 1280 240;" xml:space="preserve">
<style type="text/css">
	.st0{fill:none;}
	.st1{opacity:8.000000e-02;clip-path:url(#SVGID_2_);fill:#5870C9;enable-background:new    ;}
	.st2{fill:#224B80;}
	.st3{fill:#FF9696;}
	.st4{fill:#E8C09C;}
	.st5{fill:#566ED1;}
	.st6{fill:#593024;}
	.st7{fill:#EDF4AE;}
	.st8{fill:#FFFFFF;stroke:#000000;stroke-width:2;stroke-miterlimit:10;}
	.st9{fill:#FFFFFF;stroke:#000000;stroke-miterlimit:10;}
	.st10{fill:#25497A;}
	.st11{fill:#FFDCB4;}
	.st12{fill:#374E51;}
	.st13{fill:#CBD000;}
	.st14{fill:#97D3FF;}
	.st15{fill:#97FFA3;}
	.st16{fill:none;stroke:#224B80;stroke-miterlimit:10;}
	.st17{fill:#440A0A;}
	.st18{fill:#99744D;}
	.st19{fill:none;stroke:#3F2C00;stroke-miterlimit:10;}
	.st20{fill:#915920;}
	.st21{fill:#96EAC4;}
</style>
<rect y="1" class="st0" width="1280" height="240"/>
<g>
	<g>
		<g>
			<g>
				<g>
					<g>
						<defs>
							<rect id="SVGID_1_" x="-3.7" y="-14" width="1280" height="269.5"/>
						</defs>
						<clipPath id="SVGID_2_">
							<use xlink:href="#SVGID_1_"  style="overflow:visible;"/>
						</clipPath>
						<path class="st1" d="M1271.3,236.6V232h-2.6v4.6h-1.2v-6.2h-10.2v2.9h-1.2v-2.9h-2.7v2.9h-1.2v-14h-5.8v7.7h-3.6v2.1h-7.6
							v-48.4l0,0l-5.3-6.2v3l0,0v-2.9h-0.6v-2.1h-4.5v2.1h-0.6v2.9h-0.6h-0.6v4h0.6v23.7c-1.9-1.2-4.4-2.1-7.3-3v-15.4h1.1v-4.3
							h-1.1h-1.3v-4.9h-4.7v4.9h-1.6h-1v4.3h1v13.7c-3.8-0.7-7.8-1.3-11.9-1.8v-11.9h-11.3v10.6c-0.4-0.1-0.8-0.1-1.1-0.1V192h-1.4
							v-1.7h-10.8v1.7h-1.2v3.7c-0.4-0.1-0.8-0.1-1.2-0.1v-24.4h0.1l-1.4-4.1l-7-7.7l-6.3,6.6l-1.8,5.2l0,0v24.4
							c-1.2,0.1-2.5,0.2-3.7,0.3c-0.5-0.1-1,0-1.6,0.1c-1.2,0.1-2.3,0.2-3.5,0.4v-12.1c0-0.1,0-0.1,0-0.1v-0.1v-0.4l0,0
							c-0.4-1.9-3.3-1.8-5.2-0.1c-2,1.9-2.8,4.3-2.9,6.3c0,0.1,0,0.1,0,0.1l0,0v7.3c-0.1,0-0.2,0-0.2,0c-0.9-0.5-2.3-0.4-3.4,0.4
							c-2.4,0.4-4.7,0.7-7.2,1.1v-7.6h-2v-3.7l0,0v-3.4l-3.3-5.6h-2.4l-2.1,3.8v3.8h-3V201c-0.6,0.1-1.3,0.3-1.9,0.4v-1.3h-22.2v5.6
							c-1.5,0.3-2.9,0.5-4.3,0.9v-8.5c0-0.1,0-0.2,0-0.2c0-3.1-1.2-5.7-3-6.9v-3.1c0-1.3-0.5-2.3-1.2-2.7v-3h-1.5v2.9
							c-0.6,0.4-1,1.4-1,2.6v3.1c-1.7,1.2-2.9,3.8-2.9,6.8v0.1l0,0v10.6c-4.1,0.8-8.1,1.5-11.8,2.2l-5.8-4.4v-5.5l0,0h-1.8l0,0v5.5
							l-9.3,7c-1.7,0.2-3.3,0.4-4.8,0.4l-0.7-1.7h-2.8v-14.2l0,0v-0.1c0-3.1-1.2-5.7-2.9-6.8v-3.1c0-1.1-0.4-2.1-1-2.6v-2.8h-1.5
							v2.7c-0.7,0.4-1.2,1.4-1.2,2.7v3.1c-1.8,1.1-3,3.8-3,6.9c0,0.1,0,0.1,0,0.2v14.1h-2.4v0.5c-1.6-0.2-3.2-0.4-4.9-0.4v-30.4l0,0
							l-6.5-25.2l-10.7-3.1l-5.2,23.6l0,0v4.6v4.3v25.9c-5,0.2-10.2,0.6-15.5,1.1v-25.9l-1.2-0.4v-3.2l0,0l-3.7-12.3l-11-4.6l0,0
							l0,0l0,0v0.1l-4.6,13.3h7.2l0,0l0,0h-7.2v3.4h-1.3v32.1c-1.2,0.2-2.3,0.4-3.5,0.5v-14.6h-1.3v-2.6h-1.7v-2.4h-6.4v2.4h-2v2.6
							h-2.1V218c-1.8,0.4-3.7,0.6-5.5,1v-7.2h-1.5v-4.3h-7.4v4.3v8.9c-4.2,0.9-8.1,1.8-11.7,2.7c-10.6,2.6-23.3,3.1-36.2,2.2V210
							h-25.5v12.8c-1-0.2-2-0.4-3-0.5v-16.8h-7.2v-4.6h-15.2v-21.6v-8.2H817v8.2h-2.8v26.2h-2.1v-4.6h-8.3v-42h-3.2V154h-3.9v-4.6
							h-12.2v4.6h-3.2v4.9h-2.6v65.3h-6.6v-99.8h-2.6v-6.6h-13.9l0,0l0,0h13.9l-8.7-25.5v-0.1h-0.1l0,0l0,0l-21.1,8.7l-7.2,23.5l0,0
							v6.3l-2.2,0.6V182h-19.5v24.3h-2.8v-8.9h-4.7v8.9h-2.8v-1.6v-75.4v-8.1v-8.8l0,0l-10-45.3L669.9,73l-12.5,48.2l0,0v83.6h-2.6
							v-6.2h-6.9v-19.4h-4.5v-27c0-0.1,0-0.2,0-0.3c0-6-2.4-11.1-5.8-13.3v-6c0-2.3-1-4.4-2.4-5.2v-5.2h-2.8v5.5
							c-1.2,0.9-2,2.8-2,4.9v6c-3.3,2.2-5.6,7.3-5.6,13.2c0,0.1,0,0.1,0,0.1l0,0v27.2h-5.4l-3.3,7.8L591,168v-10.5h-0.1h-3.5h-0.1
							V168l-25.1,18.9l-3.3-7.8h-5.4v-27.2l0,0c0-0.1,0-0.1,0-0.1c0-5.9-2.3-11-5.6-13.2v-6c0-2.2-0.8-4-2-4.9v-5.5h-2.8v5.2
							c-1.4,0.8-2.4,2.8-2.4,5.2v6c-3.4,2.2-5.8,7.3-5.8,13.3c0,0.1,0,0.3,0,0.4v26.9h-4.5v25.7h-3.8v-48.7H484v48.6h-3.7v-75.4
							h-5.8v-7.2l-4-7.3h-4.7l-6.3,10.7v6.6v0.1v7h-3.9V201H452v-6.2h-2.6v6.2h-1.7v-37.1l0,0c0-3.6-1.3-8.1-4.9-11.3
							c-2.5-2.2-6-2.8-8-1.3V137h-0.1c0-0.1,0-0.2,0-0.3c-0.1-3.8-1.6-8.4-5.5-12c-3.6-3.3-9.2-3.5-10,0.2h0.1v0.7
							c0,0.1,0,0.2,0,0.2c0,0.1,0,0.2,0,0.3v29.3c-0.8-1.9-2-3.6-3.6-5.1c-3.5-3.2-9.3-2.9-9.4,1.6c0,1.2,0,2.2,0.2,3.1h-0.1v45.9
							h-4.1V100.8l0,0l-3.4-10.1L386.8,78l-13.4,14.8l-2.8,7.9h0.2V224h-2.4v-83.4H366v-3.2h-20.8v3.2h-2.8v90.9l0,0v-19.3h-2.1V131
							h-21.7v71.5h-9.9v-5.8h-9.4v5.9h-3.6v-71.5h1.9v-8.2h-1.9h-3v-9.5h-9v9.5h-2.4h-2.1v8.2h2.1v81.4h-5.6v-5.9h-2.8V201H269v5.6
							h-1.7v-85.7h1.1v-7.5h-1.1h-1v-5.7h-1v-4h-8.6v4h-1.1v5.6l0,0v-5.7l-10.1,11.9h0.1v92.8h-5.5v-15c-0.5-1.4-1.3-2.5-2.3-3.1
							v-3.1c0-1.1-0.4-2.1-1-2.6v-2.9h-1.5v2.7c-0.7,0.4-1.2,1.4-1.2,2.7v3.1c-1.8,1.1-3,3.8-3,6.9c0,0.1,0,0.1,0,0.2v14.1h-2.4v0.5
							c-1.6-0.2-3.2-0.4-4.9-0.4V185l0,0l-6.5-25.2l-10.7-3.1l-5.3,23.6l0,0v4.6v4.3v26c-5,0.2-10.2,0.6-15.5,1.1v-25.9l-1.1-0.4
							v-3.2l0,0l-3.7-12.3l-11-4.6l0,0l0,0l0,0v0.1l-4.6,13.3h7.2l0,0l0,0h-7.2v3.4h-1.3v32.1c-1.2,0.2-2.3,0.4-3.5,0.5v-14.6h-1.3
							v-2.6h-1.7v-2.4h-6.4v2.4h-2v2.6h-1.7v16.8c-1.9,0.4-3.7,0.6-5.5,1v-7.2h-1.4V211h-7.4v4.3v8.9c-4.1,0.9-8.1,1.8-11.7,2.7
							c-1.6,0.4-3.2,0.7-4.8,1v-0.3H-6c-0.4,0.1-0.8,0.2-1.3,0.2v37.6h123.4v0.2h123.6v10.1H891v-27.8h-8.6v-8.2l20.8,0.4v7.5h-4.5
							v14.6h4.5h353h2.5v-14.6h-2.5v-7.8h12.5h2.6h8.6v-3.1L1271.3,236.6L1271.3,236.6L1271.3,236.6z"/>
					</g>
				</g>
			</g>
		</g>
	</g>
</g>
<rect id="Rectangle_179" x="-15.7" y="242.5" class="st2" width="26.2" height="34.9"/>
<rect id="Rectangle_181" x="1.6" y="124.6" class="st2" width="65.7" height="152.8"/>
<rect id="Rectangle_182" x="1.6" y="112.4" class="st2" width="19.9" height="165.1"/>
<path id="Path_57" class="st2" d="M18.9,25.2l31.3,8.2l17.1,91.3H50.1L1.5,112.4L18.9,25.2z"/>
<rect id="Rectangle_183" x="1.6" y="112.4" class="st2" width="60.8" height="23.6"/>
<path id="Path_58" class="st2" d="M64.3,112.3l3,12.4L64.3,112.3z"/>
<rect id="Rectangle_185" x="71.2" y="231.6" class="st2" width="11.1" height="37.2"/>
<path id="Path_68" class="st3" d="M13.2,85.9l5.4,32.1l-18.3-0.1L13.2,85.9z"/>
<polygon id="Rectangle_291" class="st3" points="-2.7,250.3 0.5,250.3 1.6,258.8 -2.7,293.9 "/>
<rect id="Rectangle_296" x="11.7" y="247.6" class="st3" width="8.5" height="28.1"/>
<path id="Path_79" class="st3" d="M-0.4,110.7l18.5-85.3h4.2l-2,242.3H-0.4V110.7L-0.4,110.7z"/>
<path id="Path_80" class="st3" d="M36.5,90.5L47,124.7v151H36.5V90.5z"/>
<path id="Path_82" class="st3" d="M30.4,31.3L33,32l18.7,91.7h-2.5L30.4,31.3z"/>
<path id="Path_83" class="st3" d="M34.3,32.7l3,0.8l18.1,90.2h-2.5L34.3,32.7z"/>
<path id="Path_84" class="st3" d="M38.7,34.3l0.5,25.5l19.6,63.9h-2.5L38.7,34.3z"/>
<path id="Path_85" class="st3" d="M40.5,60.7l2.8,0.7l19.2,62.3H60L40.5,60.7z"/>
<path id="Rectangle_297" class="st3" d="M72.3,245.9L72.3,245.9c1,0,1.8,1.1,1.8,2.5v10.8c0,1.4-0.8,2.5-1.8,2.5l0,0
	c-1,0-1.8-1.1-1.8-2.5v-10.8C70.6,246.9,71.3,245.9,72.3,245.9z"/>
<rect id="Rectangle_309" x="52.2" y="190.5" class="st3" width="14" height="51.2"/>
<path class="st4" d="M1082.8,85.5c-7,2-10,9-10,13s6,13,9,16s0,9,0,12s9,8,15,6s0-8,0-12s8-2,13-4s-2-11-2-11l3-2c0,0-7-5-7-8
	s-3-11.7-7-13C1093.4,81.4,1089.8,83.5,1082.8,85.5z"/>
<path class="st5" d="M1098.8,118.5"/>
<path class="st6" d="M1093.8,103.5c-2.1-3-6-5-7-8s7-5,12-8s5.2-8.2,3-10c-1.8-1.5-2.2-4-1-6c0,0-28,11-31,17c-1.6,3.2,1,6,0,8
	s-3,3-2,7s11,15,14,18s6-2,7-7s-6-5-5-9c0.5-1.9,5-2,7,0"/>
<path class="st7" d="M1081.8,126.5c2,0,3,3,7,5s9,1,12-1c2.3-1.6,11,1,15,2s12,10,12,12s-10,4-11,5s14,69,12,72s-52,7-55,8
	s-3-65-3-66s-2,3-5,5s-13-14-13-16s19.6-25,23-26C1077.2,126.1,1079.8,126.5,1081.8,126.5z"/>
<path class="st4" d="M1054.6,153.6c-2.2,0-14.7,16.9-15.8,21.9c-2,9,32,37,34,39s-1,4,3,5s7-4,7-7s-6-4-8-4s-18-26-19-28
	c-0.4-0.9,9-13,9-15C1064.8,161.6,1056.8,153.6,1054.6,153.6z"/>
<path class="st8" d="M1100.7,98.5c-0.8-0.8-1.5-1.6-2.1-2.5"/>
<path class="st9" d="M1107.8,111.5c-1,1-3,1-5,1"/>
<path class="st10" d="M1244.2,82.7"/>
<path class="st11" d="M1114.8,126.5c1,1,19.8,33.5,22,38c2,4,2,15-2,20s-11,5-13-1c-2.6-7.6-12.3-50.9-13-53c-1-3-4-1-8-2s-4-4-5-6
	s0-6,1-7s11.8,6,14,6c1,0,1.1-7.9,2-7.3C1114.8,115.5,1113.8,125.5,1114.8,126.5z"/>
<path class="st12" d="M1075.8,227.5c-3,1-4,55-2,57s20-1,23-1s2-38,3-39s0,36,0,39s21,0,27,0s0-61,0-62
	C1126.8,216.5,1078.8,226.5,1075.8,227.5z"/>
<polygon id="Rectangle_172" class="st2" points="25.1,216.2 40.4,216.2 41.6,272.1 26.3,272.1 "/>
<rect id="Rectangle_173" x="26.4" y="158.1" class="st2" width="38.3" height="122"/>
<rect id="Rectangle_174" x="31.3" y="151.3" class="st2" width="29.5" height="128.8"/>
<rect id="Rectangle_175" x="37.2" y="144.9" class="st2" width="18.7" height="135.1"/>
<rect id="Rectangle_176" x="74.8" y="110.4" class="st2" width="25.8" height="174.6"/>
<path id="Path_53" class="st2" d="M100.7,110.4l37.9,9.8V285h-37.9C100.7,285,100.7,110.4,100.7,110.4z"/>
<path id="Path_54" class="st2" d="M92.1,66.1l7.9,35.4H78.7L92.1,66.1z"/>
<rect id="Rectangle_177" x="78.7" y="101.4" class="st2" width="21.3" height="15.4"/>
<path id="Path_55" class="st2" d="M100,101.4l35.2,9.3v15.4l-35.2-9.3V101.4z"/>
<path id="Path_56" class="st2" d="M91.9,66.1l32.2,12.1l11,32.5l-35.3-9.3L91.9,66.1z"/>
<rect id="Rectangle_178" x="138.6" y="190.3" class="st2" width="29.8" height="66.2"/>
<rect id="Rectangle_180" x="172.6" y="211.6" class="st2" width="7.2" height="34.9"/>
<rect id="Rectangle_186" x="2.3" y="206.2" class="st2" width="6.9" height="37.2"/>
<rect id="Rectangle_187" x="11.8" y="191.7" class="st2" width="26.5" height="37.2"/>
<rect id="Rectangle_188" x="14.4" y="194.3" class="st2" width="26.5" height="37.2"/>
<rect id="Rectangle_189" x="135.3" y="218" class="st2" width="4.9" height="37.2"/>
<rect id="Rectangle_190" x="146.5" y="218" class="st2" width="6.6" height="37.2"/>
<rect id="Rectangle_228" x="60.8" y="248.3" class="st2" width="25.8" height="28.1"/>
<path id="Path_142" class="st2" d="M176.6,186.1h-6.9v-37.6h-28.3v37.6H133l-5.1,10.8l-41.2-28v74.4h89.7"/>
<path id="Path_145" class="st2" d="M155.3,128.5c7.9,0,14.3,8.9,14.3,19.8c0,11-6.4,19.8-14.3,19.8c-7.8-0.1-14-9-14-19.8
	C141.2,137.4,147.5,128.6,155.3,128.5z"/>
<path id="Path_143" class="st2" d="M149.9,121.7h11v18.6h-11V121.7z"/>
<ellipse id="Ellipse_3" class="st2" cx="155.3" cy="121.7" rx="5.5" ry="7.6"/>
<rect id="Rectangle_517" x="84.2" y="156.4" class="st2" width="5.5" height="24.5"/>
<g id="Group_62">
	<g id="Group_60-2">
		<g id="Group_58-2">
			<path id="Path_142-2" class="st2" d="M-2.9,243.4v-57.3H4v-37.6h28.3v37.6h8.3l5.1,10.8l41.2-28v74.4L-2.9,243.4L-2.9,243.4z"/>
		</g>
	</g>
	<rect id="Rectangle_517-2" x="84.1" y="156.4" class="st2" width="5.5" height="24.5"/>
</g>
<rect id="Rectangle_255" x="25.1" y="158.2" class="st3" width="2.9" height="113.8"/>
<rect id="Rectangle_256" x="51.9" y="266.6" class="st3" width="29.5" height="5.4"/>
<rect id="Rectangle_257" x="63.1" y="244.4" class="st3" width="29.5" height="28.6"/>
<rect id="Rectangle_258" x="74.8" y="108.8" class="st3" width="23.9" height="164.2"/>
<rect id="Rectangle_259" x="90.2" y="116.1" class="st3" width="8.5" height="164.2"/>
<path id="Path_152" class="st3" d="M78.7,99.2l12.1-27.5l6.3,27.5v23.6H78.7V99.2z"/>
<rect id="Rectangle_263" x="113" y="272.9" class="st3" width="15.7" height="14"/>
<rect id="Rectangle_264" x="132" y="272.9" class="st3" width="2.7" height="14"/>
<rect id="Rectangle_265" x="49" y="158.2" class="st3" width="5.9" height="113.8"/>
<rect id="Rectangle_266" x="25.1" y="158.2" class="st3" width="29.8" height="3.2"/>
<rect id="Rectangle_267" x="25.1" y="164.6" class="st3" width="29.8" height="3.2"/>
<rect id="Rectangle_268" x="25.1" y="171" class="st3" width="29.8" height="3.2"/>
<rect id="Rectangle_269" x="25.1" y="177.3" class="st3" width="29.8" height="3.2"/>
<rect id="Rectangle_270" x="25.1" y="183.6" class="st3" width="29.8" height="3.2"/>
<path class="st13" d="M1180.8,57.5l-2,5.4c0,0,31.4,15.2,33.4,15.2s2-3.3,2-5.4L1180.8,57.5z"/>
<rect id="Rectangle_271" x="25.1" y="190" class="st3" width="29.8" height="3.2"/>
<rect id="Rectangle_272" x="25.1" y="196.3" class="st3" width="29.8" height="3.2"/>
<rect id="Rectangle_273" x="25.1" y="202.7" class="st3" width="29.8" height="3.2"/>
<rect id="Rectangle_274" x="25.1" y="209" class="st3" width="29.8" height="3.2"/>
<rect id="Rectangle_275" x="25.1" y="215.4" class="st3" width="29.8" height="3.2"/>
<rect id="Rectangle_276" x="25.1" y="221.7" class="st3" width="29.8" height="3.2"/>
<rect id="Rectangle_277" x="25.1" y="228" class="st3" width="29.8" height="3.2"/>
<rect id="Rectangle_278" x="25.1" y="234.4" class="st3" width="29.8" height="3.2"/>
<rect id="Rectangle_279" x="25.1" y="240.8" class="st3" width="29.8" height="3.2"/>
<rect id="Rectangle_280" x="25.1" y="247.1" class="st3" width="29.8" height="3.2"/>
<rect id="Rectangle_281" x="25.1" y="253.5" class="st3" width="29.8" height="3.2"/>
<rect id="Rectangle_282" x="25.1" y="259.8" class="st3" width="29.8" height="3.2"/>
<rect id="Rectangle_283" x="25.1" y="266.2" class="st3" width="29.8" height="3.2"/>
<path id="Path_70" class="st3" d="M103,87.7l3.3,1.7l3.3,14l-3.1-1.1L103,87.7z"/>
<path id="Path_71" class="st3" d="M108.9,90.4l3.3,1.7l3.3,14l-3.1-1.1L108.9,90.4z"/>
<path id="Path_72" class="st3" d="M115,93.2l3.4,1.6l3.3,14l-3.2-1L115,93.2z"/>
<path id="Path_73" class="st3" d="M121.2,96.3l3.4,1.6l3.2,13.9l-3.2-0.8L121.2,96.3z"/>
<path id="Path_74" class="st3" d="M100.4,99.5l3.3,1.6l0.1,16.5l-3.3-1.6L100.4,99.5z"/>
<path id="Path_75" class="st3" d="M106.4,101.7l3.1,1.7l0.2,16.5l-3.1-1.7L106.4,101.7z"/>
<path id="Path_76" class="st3" d="M112.3,104.4l3.2,1.7l0.2,16.6l-3.2-1.7L112.3,104.4z"/>
<path id="Path_77" class="st3" d="M118.3,107.1l3.3,1.6l0.1,16.4l-3.3-1.6L118.3,107.1z"/>
<path id="Path_78" class="st3" d="M124.7,110.3l3.1,1.4l-0.1,15.4l-3.1-1.4L124.7,110.3z"/>
<rect id="Rectangle_286" x="137.6" y="190.1" class="st3" width="28.4" height="9.4"/>
<rect id="Rectangle_287" x="137.6" y="191.8" class="st3" width="6.6" height="77.6"/>
<rect id="Rectangle_288" x="137.6" y="244.4" class="st3" width="21.6" height="24.9"/>
<rect id="Rectangle_289" x="159.1" y="190" class="st3" width="6.9" height="58.9"/>
<path id="Rectangle_290" class="st3" d="M172.8,228.9L172.8,228.9c1.6,0,2.9,1.9,2.9,4.1v7.3c0,2.2-1.3,4.1-2.9,4.1l0,0
	c-1.6,0-2.9-1.9-2.9-4.1v-7.2C169.9,230.8,171.3,228.9,172.8,228.9z"/>
<path id="Rectangle_301" class="st3" d="M97.1,252.7h8.5c2.4,0,4.2,2.7,4.2,5.9l0,0c0,3.3-1.9,5.9-4.2,5.9h-8.5
	c-2.4,0-4.2-2.7-4.2-5.9l0,0C92.8,255.3,94.7,252.7,97.1,252.7z"/>
<path id="Rectangle_311" class="st3" d="M18.3,260.2h4.2c1.6,0,2.8,1.7,2.8,3.9l0,0c0,2.1-1.3,3.9-2.8,3.9h-4.2
	c-1.6,0-2.8-1.7-2.8-3.9l0,0C15.5,262,16.8,260.2,18.3,260.2z"/>
<path id="Rectangle_312" class="st3" d="M33.4,253.6h2c2.3,0,4,2.5,4,5.7l0,0c0,3.1-1.9,5.7-4,5.7h-2c-2.3,0-4-2.5-4-5.7l0,0
	C29.3,256.1,31.1,253.6,33.4,253.6z"/>
<path id="Rectangle_316" class="st3" d="M130.7,219.3L130.7,219.3c1.7,0,3.1,2,3.1,4.4v14.9c0,2.4-1.4,4.4-3.1,4.4l0,0
	c-1.7,0-3.1-2-3.1-4.4v-14.9C127.6,221.3,128.9,219.3,130.7,219.3z"/>
<rect id="Rectangle_539" x="42" y="209.3" class="st3" width="3.1" height="31.6"/>
<rect id="Rectangle_540" x="36.6" y="201.6" class="st3" width="2.5" height="31.6"/>
<rect x="1129.7" y="54.1" class="st3" width="16.9" height="16.9"/>
<rect x="1143" y="79" class="st14" width="16.9" height="16.9"/>
<rect x="1154.4" y="47.9" class="st3" width="16.9" height="16.9"/>
<rect x="1158.3" y="110" class="st15" width="16.9" height="16.9"/>
<rect x="1134.2" y="103" class="st15" width="16.9" height="16.9"/>
<path class="st2" d="M226.9,184.2H212v57.1h-33.5v4.1H212v1.9h17.7V187c-0.2,0-0.3,0-0.4,0.1C228.1,187.1,227,185.8,226.9,184.2z"/>
<polygon class="st3" points="212.1,187.2 212.1,164.2 178.1,164.2 178.1,187.2 178.1,244.3 178.6,244.3 212.1,244.3 "/>
<line id="Rectangle_232" class="st16" x1="212.1" y1="168.2" x2="198.5" y2="168.2"/>
<line id="Rectangle_232_1_" class="st16" x1="212.1" y1="172" x2="198.5" y2="172"/>
<line id="Rectangle_232_2_" class="st16" x1="212.1" y1="175.9" x2="198.5" y2="175.9"/>
<path class="st17" d="M1262,118.9L1262,118.9l-22.1,0.5l5.5,17.2c0.1,0.5,0.6,0.7,1.1,0.6l17.9-0.3c1.6-0.5,2.3-7.4,1-8.5l-3.3-2.5
	C1259.3,124.4,1259.3,120.4,1262,118.9z"/>
<path class="st18" d="M1255.2,89.4c5,4,5,15,4,20c-1.2,6-8.7,11.3-11,13c-4,3-2.6,6.3-2,10c0.6,4.1-9,4.8-12,2.8s1.3-6.9-0.5-8.9
	c-1.5-1.7-4.7-1.8-8.8-1.4c-2.6-2.6-3.8-5.2-3.3-11.9c0.1-0.8-2-1.3-1.9-2.1c0.1-0.9,2.8-3.8,3.6-5.1c2.6-19.8,12.1-20.7,15.9-21.4
	C1243.3,83.6,1250.2,85.4,1255.2,89.4z"/>
<path class="st18" d="M1198.4,62.5c3,2,3.2,5.1,2.9,8.5c-0.3,3.4-9.4,4.9-9.4,6.9s1.5,29.6,2.4,32.5s21,15,22,17c1,2-4,11-7,11
	s-20-17-22-19s-1.6-43.2-0.6-47.2s1.3-3.4,4.6-4.5c6.5-2.1-2-5.4,0-7.4C1192.1,59.4,1196.5,61.3,1198.4,62.5z"/>
<path class="st18" d="M1286.2,158.4c-1,2-23,23-24,24s-2,3-4,3s-3-7-2-8s2,0,3,0s13.4-16.4,15-18c1-1-6-7-6-8s9.1-3.4,10-3
	C1281.2,149.5,1287.2,156.4,1286.2,158.4z"/>
<path class="st17" d="M1234.4,82.9c-3,1.2-7.9,4.6-6.7,8.2c0.2,0.7,1.2,1.7,2.5,3c4.6,4.3,13.8,10.8,14.1,10.6c2.1-1,6.4-1.8,8,0.6
	c1.8,2.6-2,7-3,9s2.1,6.1,2.8,5.1c0.7-1,6.2,0.9,9.2-0.1s4.1-6.2,4.1-8.2s0.7-3.9,1.9-7.8c0.5-1.6,0-2.7-0.4-4
	c-0.5-1.8-7.7-13.6-16-16.5l-8.8-1.2c-0.9-0.1-1.7-0.1-2.6,0.1L1234.4,82.9z"/>
<path class="st19" d="M1246.2,110.4c1.3,0.3,2.8-1.6,2-2"/>
<path class="st9" d="M1229.9,116c0,0-5.8,3.1-8.1,3.6"/>
<path class="st20" d="M1218.2,208.4c-3,3-8,63-7,65s11,3,14,4s9-41,12-40s8,35,9,36s14,1,18,1s-2-66.7-6-68
	C1252.2,204.4,1222.2,204.4,1218.2,208.4z"/>
<path class="st21" d="M1270.2,140c5.1,3.4,12.4,7.7,11.4,10.7s-7.4,4.2-9.4,5.2s-10.4-5.4-12.4-5.4c-0.8,0-3.7,19.8-3.7,30
	c0,17.2,5.4,28.7,4.2,29.9c-2,2-39,1-42-1c-2.1-1.5,7-24.3,0.3-44c-2.4-6.9,1.7-17.4,1.7-18c0-2-11-6-12-8s5-15,7-15s11,4,13,5
	s7.1,5.1,10.1,5.1c2.2,0,9.9-2.7,11.2-3.2C1254.6,129.2,1264,136,1270.2,140z"/>
<path class="st10" d="M1178.7,62.9c0,0-4.1-5.4-4.1-6.5l6.1,1.1"/>
<path class="st17" d="M1237,102.8l-8.5-11.4l20.3,11.3l-8.3,15.7l-2.2-12.7C1238.1,104.6,1237.7,103.7,1237,102.8z"/>
<ellipse transform="matrix(0.1497 -0.9887 0.9887 0.1497 940.7681 1304.6758)" cx="1228.9" cy="105.4" rx="2.9" ry="1.1"/>
</svg>
