<svg width="99" height="27" viewBox="0 0 99 27" fill="none" xmlns="http://www.w3.org/2000/svg">
<g clip-path="url(#clip0)">
<path d="M61.5178 26.9999C67.3028 26.9999 70.4823 23.3807 70.4823 18.9527C70.3215 9.9427 58.7092 12.5983 58.7092 7.71238C58.7092 6.04756 59.7795 4.68494 62.5566 4.68494C64.3524 4.68494 65.2503 5.06133 67.1278 6.46195L70.3296 3.00745C68.4494 1.45572 66.8431 0.397109 62.1373 0.467683C56.8155 0.592545 53.9495 3.78919 53.9495 8.29145C53.9755 17.2589 65.8016 13.7148 65.8204 19.4014C65.8204 21.0301 64.294 22.7926 61.5106 22.7926C59.0809 22.7926 58.1166 21.867 56.4106 20.2402L53.048 23.5915C54.842 25.4075 57.1307 26.9845 61.5178 26.9999Z" fill="#4497FF"/>
<path d="M76.3176 26.2761H86.6433C94.1047 25.3876 98.9192 20.8717 99.0009 13.428C99.0826 5.98423 93.8614 1.60773 86.9127 1.073H76.3176V26.2761ZM80.7711 22.1077L80.7873 5.1491H86.1369C90.4818 5.46035 94.2619 8.45703 94.2619 13.428C94.2619 18.3989 90.752 21.5838 86.1369 22.1068L80.7711 22.1077Z" fill="#4497FF"/>
<path d="M24.111 26.0165L46.577 25.9758V0L24.111 26.0165ZM41.8343 21.7811L34.0586 21.7404L41.8577 12.5043L41.8343 21.7811Z" fill="#4497FF"/>
<path d="M-0.00262451 26.2761H10.3231C17.7845 25.3876 22.599 20.8717 22.6807 13.428C22.7624 5.98423 17.5412 1.60773 10.5924 1.073H-0.00262451V26.2761ZM4.45089 22.1077L4.46705 5.1491H9.81666C14.1615 5.46035 17.9416 8.45703 17.9416 13.428C17.9416 18.3989 14.4318 21.5838 9.81666 22.1068L4.45089 22.1077Z" fill="#4497FF"/>
</g>
<defs>
<clipPath id="clip0">
<rect width="99" height="27" fill="white"/>
</clipPath>
</defs>
</svg>
