<svg width="99" height="27" viewBox="0 0 99 27" fill="none" xmlns="http://www.w3.org/2000/svg">
<g clip-path="url(#clip0)">
<path d="M61.5176 27C67.3027 27 70.4821 23.3808 70.4821 18.9527C70.3214 9.94276 58.709 12.5983 58.709 7.71244C58.709 6.04762 59.7793 4.685 62.5565 4.685C64.3522 4.685 65.2501 5.06139 67.1276 6.46201L70.3294 3.00751C68.4493 1.45578 66.843 0.39717 62.1371 0.467744C56.8154 0.592606 53.9493 3.78925 53.9493 8.29151C53.9754 17.2589 65.8014 13.7149 65.8203 19.4015C65.8203 21.0301 64.2939 22.7927 61.5104 22.7927C59.0807 22.7927 58.1164 21.8671 56.4104 20.2402L53.0479 23.5916C54.8418 25.4075 57.1305 26.9846 61.5176 27Z" fill="#F2F2F2"/>
<path d="M76.3176 26.2761H86.6433C94.1047 25.3876 98.9192 20.8718 99.0009 13.428C99.0826 5.98429 93.8614 1.60779 86.9127 1.07306H76.3176V26.2761ZM80.7711 22.1077L80.7873 5.14916H86.1369C90.4818 5.46041 94.2619 8.45709 94.2619 13.428C94.2619 18.399 90.752 21.5839 86.1369 22.1068L80.7711 22.1077Z" fill="#F2F2F2"/>
<path d="M24.1108 26.0165L46.5768 25.9757V-3.05176e-05L24.1108 26.0165ZM41.8342 21.7811L34.0585 21.7404L41.8576 12.5042L41.8342 21.7811Z" fill="#F2F2F2"/>
<path d="M-0.00268555 26.2761H10.323C17.7844 25.3876 22.5989 20.8718 22.6806 13.428C22.7623 5.98429 17.5411 1.60779 10.5924 1.07306H-0.00268555V26.2761ZM4.45083 22.1077L4.46699 5.14916H9.81659C14.1615 5.46041 17.9416 8.45709 17.9416 13.428C17.9416 18.399 14.4317 21.5839 9.81659 22.1068L4.45083 22.1077Z" fill="#F2F2F2"/>
</g>
<defs>
<clipPath id="clip0">
<rect width="99" height="27" fill="white"/>
</clipPath>
</defs>
</svg>
