<?xml version="1.0" encoding="utf-8"?>
<!-- Generator: Adobe Illustrator 24.0.0, SVG Export Plug-In . SVG Version: 6.00 Build 0)  -->
<svg version="1.1" id="Layer_1" xmlns="http://www.w3.org/2000/svg" xmlns:xlink="http://www.w3.org/1999/xlink" x="0px" y="0px"
	 viewBox="0 0 3753 1063.57" style="enable-background:new 0 0 3753 1063.57;" xml:space="preserve">
<style type="text/css">
	.st0{opacity:0.3;fill:none;stroke:#4497FF;stroke-width:10;stroke-linecap:round;stroke-linejoin:round;stroke-miterlimit:10;}
	.st1{fill:none;stroke:#25497A;stroke-width:10;stroke-miterlimit:10;}
	.st2{fill:none;stroke:#566ED1;stroke-width:40;stroke-linecap:round;stroke-miterlimit:10;}
	.st3{fill:none;stroke:#25497A;stroke-width:40;stroke-miterlimit:10;}
	.st4{fill:#26497A;}
	.st5{fill:#4497FF;}
	.st6{fill:#E4F2FF;}
	.st7{fill:none;stroke:#B7DFE6;stroke-width:20;stroke-linecap:round;stroke-miterlimit:10;}
	.st8{fill:none;stroke:#E4F2FF;stroke-width:8;stroke-linecap:round;stroke-linejoin:round;}
	.st9{fill:none;stroke:#E4F2FF;stroke-width:8;stroke-linecap:round;stroke-linejoin:round;stroke-dasharray:4.755,19.02;}
	.st10{fill:none;stroke:#25497A;stroke-width:8;stroke-linecap:round;stroke-linejoin:round;stroke-miterlimit:10;}
	.st11{fill:none;stroke:#E4F2FF;stroke-width:8;stroke-linecap:round;stroke-linejoin:round;stroke-dasharray:4.9167,19.6667;}
	.st12{opacity:0.3;}
	.st13{fill:none;}
	.st14{fill:#25497A;}
	.st15{fill:#B7DFE6;}
	.st16{fill:#D4F1FF;}
	.st17{fill:#E4F2FF;stroke:#E4F2FF;stroke-width:1.5;stroke-miterlimit:10;}
	.st18{fill:none;stroke:#4497FF;stroke-width:6;stroke-linecap:round;stroke-miterlimit:10;}
	.st19{fill:none;stroke:#4497FF;stroke-width:6;stroke-linecap:round;stroke-linejoin:round;}
	.st20{fill:none;stroke:#4497FF;stroke-width:10;stroke-linecap:round;stroke-linejoin:round;}
</style>
<g>
	<g>
		<g id="组_38_21_">
			<circle id="椭圆_13-2_21_" class="st5" cx="443.86" cy="630.91" r="164.87"/>
		</g>
	</g>
	<g>
		<path class="st4" d="M484.77,587.75c-22.34-22.34-58.69-22.34-81.03,0c-19.12,19.12-21.86,48.5-8.25,70.58l-46.61,46.61
			c-1.71,1.71-2.66,3.99-2.66,6.41c0,2.42,0.94,4.7,2.66,6.41c1.71,1.71,3.99,2.66,6.41,2.66c2.42,0,4.7-0.94,6.41-2.66l45.67-45.67
			c22.49,18.95,56.23,17.85,77.39-3.32C507.11,646.44,507.11,610.09,484.77,587.75z M474.67,658.68
			c-16.77,16.77-44.06,16.77-60.83,0c-16.77-16.77-16.77-44.06,0-60.83c16.77-16.77,44.06-16.77,60.83,0
			C491.44,614.62,491.44,641.91,474.67,658.68z"/>
		<path class="st6" d="M474.67,597.85c-16.8-16.8-44.03-16.8-60.83,0s-16.8,44.03,0,60.83s44.03,16.8,60.83,0
			S491.47,614.65,474.67,597.85z M467.86,606.92c-1.5,1.5-3.94,1.5-5.45,0c-10.01-10.01-26.3-10.01-36.31,0
			c-0.75,0.75-1.74,1.13-2.72,1.13c-0.99,0-1.97-0.38-2.72-1.13c-1.5-1.5-1.5-3.94,0-5.45c13.01-13.01,34.19-13.01,47.2,0
			C469.36,602.97,469.36,605.41,467.86,606.92z"/>
	</g>
</g>
<g>
	<g>
		<g id="组_38_20_">
			<circle id="椭圆_13-2_20_" class="st5" cx="1158.03" cy="630.91" r="164.87"/>
		</g>
	</g>
	<g id="组_37_2_" transform="translate(-446 75)">
		<g id="_21_2_" transform="translate(1744.565 1587.158)">
			<path class="st6" d="M-144.87-1116.82L-144.87-1116.82c-0.04-0.01-0.08,0-0.11,0c-0.04,0-0.08,0-0.11,0v0.01
				c-29.02,0.12-52.48,23.7-52.48,52.74c0,12.99,4.77,25.49,13.45,35.17c0,0,16.72,21.72,19.76,31.58h19.26h0.23h19.26
				c3.09-9.9,19.76-31.58,19.76-31.58c8.72-9.68,13.49-22.22,13.49-35.17C-92.34-1093.12-115.85-1116.7-144.87-1116.82z
				 M-156.39-1091.34c-9.22,0.02-16.74,7.55-16.75,16.78c-0.01,3.23-2.63,5.84-5.85,5.84c0,0-0.01,0-0.01,0
				c-3.23-0.01-5.85-2.63-5.84-5.87c0.03-15.66,12.79-28.43,28.44-28.47c0,0,0.01,0,0.01,0c3.23,0,5.85,2.61,5.85,5.84
				C-150.54-1093.97-153.15-1091.35-156.39-1091.34z"/>
			<path id="路径_258_2_" class="st14" d="M-165.45-965.53c0,10.95,8.86,19.85,19.85,19.85c10.95,0,19.85-8.86,19.85-19.85
				s-8.86-19.85-19.85-19.85l0,0C-156.59-985.38-165.45-976.48-165.45-965.53z"/>
			<path class="st15" d="M-124.01-999.42h-21.04v0h-20.85c-3.73,0-6.77,3.04-6.77,6.77c0,3.73,3.04,6.77,6.77,6.77h21.04v0h20.85
				c3.73,0,6.77-3,6.77-6.77C-117.24-996.38-120.29-999.42-124.01-999.42z"/>
			<path class="st15" d="M-124.06-972.75h-20.81h-0.23h-20.81c-3.73,0-6.77,3.04-6.77,6.77c0,3.73,3.04,6.77,6.77,6.77h20.81h0.23
				h20.81c3.73,0,6.77-3.04,6.77-6.77C-117.29-969.71-120.33-972.75-124.06-972.75z"/>
			<path class="st14" d="M-124.06-986.07h-20.81v-0.05h-21.04c-3.73,0-6.77,3.04-6.77,6.77c0,3.73,3.04,6.77,6.77,6.77h20.81v0.05
				h21.04c3.73,0,6.77-3.04,6.77-6.77C-117.29-983.02-120.33-986.07-124.06-986.07z"/>
		</g>
	</g>
</g>
<g>
	<g>
		<g id="组_38_14_">
			<circle id="椭圆_13-2_14_" class="st5" cx="1879.03" cy="630.91" r="164.87"/>
		</g>
	</g>
	<g>
		<g>
			<path class="st17" d="M1802.87,566.34c-0.72,0-1.45-0.28-2-0.83l-1.25-1.25c-1.1-1.1-1.1-2.9,0-4c1.11-1.1,2.9-1.1,4,0l1.25,1.25
				c1.1,1.1,1.1,2.9,0,4C1804.32,566.06,1803.6,566.34,1802.87,566.34z"/>
		</g>
		<g>
			<path class="st17" d="M1934.21,614.59h-3.36c-1.56,0-2.83-1.27-2.83-2.83c0-1.56,1.27-2.83,2.83-2.83h3.36
				c1.56,0,2.83,1.27,2.83,2.83C1937.03,613.32,1935.77,614.59,1934.21,614.59z M1917.39,614.59h-3.36c-1.56,0-2.83-1.27-2.83-2.83
				c0-1.56,1.27-2.83,2.83-2.83h3.36c1.56,0,2.83,1.27,2.83,2.83C1920.22,613.32,1918.95,614.59,1917.39,614.59z M1900.58,614.59
				h-3.36c-1.56,0-2.83-1.27-2.83-2.83c0-1.56,1.27-2.83,2.83-2.83h3.36c1.56,0,2.83,1.27,2.83,2.83
				C1903.41,613.32,1902.14,614.59,1900.58,614.59z M1883.77,614.59h-3.36c-1.56,0-2.83-1.27-2.83-2.83c0-1.56,1.27-2.83,2.83-2.83
				h3.36c1.56,0,2.83,1.27,2.83,2.83C1886.59,613.32,1885.33,614.59,1883.77,614.59z M1866.95,614.59h-3.36
				c-1.56,0-2.83-1.27-2.83-2.83c0-1.56,1.27-2.83,2.83-2.83h3.36c1.56,0,2.83,1.27,2.83,2.83
				C1869.78,613.32,1868.51,614.59,1866.95,614.59z M1850.43,613.89c-0.72,0-1.45-0.28-2-0.83l-2.38-2.38c-1.1-1.1-1.1-2.9,0-4
				c1.1-1.1,2.9-1.1,4,0l2.38,2.38c1.1,1.1,1.1,2.9,0,4C1851.88,613.62,1851.15,613.89,1850.43,613.89z M1838.54,602
				c-0.72,0-1.45-0.28-2-0.83l-2.38-2.38c-1.1-1.1-1.1-2.9,0-4c1.1-1.1,2.9-1.1,4,0l2.38,2.38c1.1,1.1,1.1,2.9,0,4
				C1839.99,601.73,1839.26,602,1838.54,602z M1826.65,590.11c-0.72,0-1.45-0.28-2-0.83l-2.38-2.38c-1.1-1.1-1.1-2.9,0-4
				c1.1-1.1,2.9-1.1,4,0l2.38,2.38c1.1,1.1,1.1,2.9,0,4C1828.1,589.84,1827.37,590.11,1826.65,590.11z M1814.76,578.23
				c-0.72,0-1.45-0.28-2-0.83l-2.38-2.38c-1.1-1.1-1.1-2.9,0-4c1.1-1.1,2.9-1.1,4,0l2.38,2.38c1.1,1.1,1.1,2.9,0,4
				C1816.21,577.95,1815.49,578.23,1814.76,578.23z"/>
		</g>
		<g>
			<path class="st17" d="M1949.42,614.59h-1.77c-1.56,0-2.83-1.27-2.83-2.83c0-1.56,1.27-2.83,2.83-2.83h1.77
				c1.56,0,2.83,1.27,2.83,2.83C1952.25,613.32,1950.99,614.59,1949.42,614.59z"/>
		</g>
	</g>
	<g>
		<g>
			<path class="st17" d="M1851.13,630.7c-1.56,0-2.83-1.27-2.83-2.83v-1.77c0-1.56,1.27-2.83,2.83-2.83s2.83,1.27,2.83,2.83v1.77
				C1853.95,629.43,1852.69,630.7,1851.13,630.7z"/>
		</g>
		<g>
			<path class="st17" d="M1851.13,697.9c-1.56,0-2.83-1.27-2.83-2.83v-3.48c0-1.56,1.27-2.83,2.83-2.83s2.83,1.27,2.83,2.83v3.48
				C1853.95,696.63,1852.69,697.9,1851.13,697.9z M1851.13,680.51c-1.56,0-2.83-1.27-2.83-2.83v-3.48c0-1.56,1.27-2.83,2.83-2.83
				s2.83,1.27,2.83,2.83v3.48C1853.95,679.24,1852.69,680.51,1851.13,680.51z M1851.13,663.13c-1.56,0-2.83-1.27-2.83-2.83v-3.48
				c0-1.56,1.27-2.83,2.83-2.83s2.83,1.27,2.83,2.83v3.48C1853.95,661.86,1852.69,663.13,1851.13,663.13z M1851.13,645.74
				c-1.56,0-2.83-1.27-2.83-2.83v-3.48c0-1.56,1.27-2.83,2.83-2.83s2.83,1.27,2.83,2.83v3.48
				C1853.95,644.47,1852.69,645.74,1851.13,645.74z"/>
		</g>
		<g>
			<path class="st17" d="M1851.13,712.4c-1.56,0-2.83-1.27-2.83-2.83v-1.77c0-1.56,1.27-2.83,2.83-2.83s2.83,1.27,2.83,2.83v1.77
				C1853.95,711.13,1852.69,712.4,1851.13,712.4z"/>
		</g>
	</g>
	<path class="st14" d="M1965.52,607.69l-49.17-49.17l-0.3-0.3l-0.26-0.25c-0.2-0.18-0.41-0.34-0.63-0.49
		c-0.12-0.08-0.23-0.15-0.36-0.21c-0.2-0.12-0.41-0.23-0.64-0.33c-0.15-0.06-0.3-0.11-0.42-0.14c-0.22-0.07-0.43-0.14-0.65-0.18
		c-0.38-0.08-0.76-0.11-1.14-0.11h-110.32c-3.17,0-5.76,2.58-5.76,5.76v110.32c0,0.38,0.04,0.76,0.11,1.13
		c0.04,0.22,0.11,0.43,0.18,0.63l0.16,0.46c0.1,0.23,0.22,0.46,0.33,0.65l0.2,0.35c0.21,0.31,0.45,0.6,0.7,0.85l49.5,49.5
		c1.09,1.09,2.53,1.69,4.07,1.69h110.32c0.37,0,0.75-0.04,1.15-0.12c0.16-0.03,0.32-0.08,0.5-0.14c0.18-0.05,0.36-0.11,0.55-0.18
		c0.18-0.07,0.35-0.16,0.53-0.27c0.16-0.08,0.31-0.16,0.47-0.27c0.31-0.21,0.59-0.44,0.87-0.71c0.26-0.26,0.5-0.55,0.73-0.9
		c0.09-0.14,0.17-0.28,0.26-0.46c0.09-0.16,0.17-0.32,0.25-0.49l0.01-0.02c0.07-0.18,0.13-0.36,0.19-0.58
		c0.06-0.17,0.1-0.34,0.13-0.5c0.08-0.37,0.11-0.75,0.11-1.13V611.76C1967.2,610.22,1966.6,608.78,1965.52,607.69z M1917.7,670.19
		v-94.04l37.99,37.99v94.04L1917.7,670.19z M1906.19,568.01v98.81h-98.81v-98.81H1906.19z M1909.56,678.33l37.99,37.99h-94.04
		l-37.99-37.99H1909.56z M1912.78,559.57C1912.78,559.57,1912.78,559.57,1912.78,559.57L1912.78,559.57L1912.78,559.57z
		 M1798.96,673.48L1798.96,673.48L1798.96,673.48L1798.96,673.48z M1962.38,724.74L1962.38,724.74L1962.38,724.74L1962.38,724.74z
		 M1963.99,723.29C1963.99,723.29,1963.99,723.29,1963.99,723.29L1963.99,723.29L1963.99,723.29z"/>
</g>
<g>
	<g>
		<g id="组_38_13_">
			<circle id="椭圆_13-2_13_" class="st5" cx="3311.84" cy="630.91" r="164.87"/>
		</g>
	</g>
	<g>
		<g>
			<g>
				<path class="st14" d="M3220.26,622.87c0-2.32,0-4.63,0-6.95c0-4.46-0.01-8.91,0.01-13.37c0-0.76-0.21-1.09-1.01-1.03
					c-0.77,0.06-1.54,0.01-2.32,0.02c-5.2,0.06-9.59,4.29-9.64,9.5c-0.07,7.87-0.07,15.74,0.01,23.61c0.04,3.74,2,6.42,5.21,8.24
					c2.03,1.15,4.25,1.19,6.49,1.16c1.23-0.02,1.23,0,1.23-1.22C3220.26,636.18,3220.26,629.53,3220.26,622.87z"/>
			</g>
			<g>
				<path class="st14" d="M3326.39,595.01c0.08,0.97,0.11,1.79,0.21,2.6c0.77,6.51,1.01,13.03,1.26,19.56
					c0.22,5.61-0.18,11.22-0.4,16.83c-0.06,1.45-0.18,2.91-0.31,4.36c-0.26,2.99-0.55,5.98-0.82,8.97
					c-0.02,0.22-0.17,0.54,0.15,0.65c0.39,0.14,0.59-0.21,0.82-0.37c2.18-1.55,4.23-3.19,6.01-5.04
					c7.37-7.63,10.26-16.19,8.75-25.59c-1.15-7.16-5.09-13.39-11.28-18.77C3329.49,597.08,3328.15,595.98,3326.39,595.01z"/>
			</g>
			<g>
				<path class="st6" d="M3273.34,647.09c0.5-4.47,0.82-8.09,1-11.37c0.26-4.79,0.54-11.08,0.36-17.34
					c-0.17-6.03-0.47-13.14-1.37-20.23l-0.17-1.34c-0.23-1.85-0.47-3.71-0.74-5.56c-0.05-0.31-0.04-0.62-0.04-0.93
					c-1.95,0-3.9,0-5.84,0l-43.94,0.01c-1.41,0.08-2.45,0.98-2.77,2.36c-0.18,0.77-0.04,1.54-0.04,2.31
					c-0.01,9.27-0.01,18.54-0.01,27.8c0,9.71,0,19.43,0,29.14c0,2.18,1.14,3.35,3.27,3.35c16.43,0.01,32.85,0,49.28,0.01
					c0-0.26,0-0.52,0.03-0.79C3272.78,651.68,3273.09,649.33,3273.34,647.09z"/>
				<g>
					<path class="st6" d="M3327.14,600.32c-0.04-0.55-0.09-1.26-0.21-2.27c-0.19-1.63-0.43-3.26-0.58-4.89
						c-0.48-5.27-1.34-10.49-2.27-15.69c-0.61-3.39-1.3-6.76-2.08-10.11c-0.1-0.42-0.13-0.74-0.73-0.41
						c-7.07,3.87-14.16,7.71-21.24,11.57c-5.43,2.96-10.85,5.93-16.28,8.88c0.35,0.63,0.61,1.32,0.73,2.08
						c0.28,1.93,0.53,3.87,0.77,5.81l0.17,1.32c0.97,7.61,1.28,15.1,1.46,21.42c0.19,6.71-0.1,13.33-0.37,18.35
						c-0.19,3.52-0.53,7.36-1.06,12.06c-0.27,2.36-0.59,4.84-1.01,7.79c-0.1,0.7-0.33,1.34-0.64,1.94c0.46,0.25,0.92,0.49,1.38,0.74
						c5.58,3.04,11.16,6.08,16.74,9.12c6.32,3.44,12.64,6.88,18.94,10.35c0.68,0.37,0.86,0.25,1-0.48c0.72-3.51,1.4-7.02,2.01-10.55
						c0.8-4.6,1.5-9.22,2.05-13.85c0.51-4.27,0.95-8.56,1.27-12.85c0.39-5.25,0.66-10.5,0.76-15.76
						C3328.11,616.69,3327.75,608.5,3327.14,600.32z"/>
					<path class="st14" d="M3285.44,648.45c0.53-4.71,0.86-8.54,1.06-12.06c0.27-5.02,0.56-11.65,0.37-18.35
						c-0.18-6.32-0.5-13.81-1.46-21.42l-0.17-1.32c-0.24-1.94-0.49-3.88-0.77-5.81c-0.11-0.76-0.37-1.45-0.73-2.08
						c-1.2-2.14-3.62-3.43-6.18-3.06c-3.01,0.44-5.16,3.02-5.18,5.98c0,0.31,0,0.62,0.04,0.93c0.27,1.85,0.5,3.7,0.74,5.56
						l0.17,1.34c0.9,7.09,1.2,14.21,1.37,20.23c0.18,6.26-0.1,12.56-0.36,17.34c-0.18,3.29-0.5,6.9-1,11.37
						c-0.25,2.23-0.56,4.59-0.96,7.41c-0.04,0.27-0.03,0.53-0.03,0.79c-0.04,3.01,2.13,5.66,5.19,6.11
						c0.29,0.04,0.59,0.06,0.88,0.06c2.29,0,4.35-1.3,5.38-3.28c0.31-0.59,0.53-1.24,0.64-1.94
						C3284.85,653.29,3285.17,650.81,3285.44,648.45z"/>
				</g>
			</g>
			<g>
				<path class="st14" d="M3254.54,656.87c0-0.12,0-0.24,0-0.36c0-0.01,0-0.03,0-0.04c0-0.89-0.04-1.04-0.74-1.07
					c-0.13-0.02-0.27-0.03-0.44-0.02c-3.38,0.02-6.76,0.02-10.13,0.02c-0.02,0-0.04,0-0.06,0c-0.02,0-0.04,0-0.06,0
					c-3.38,0-6.76,0-10.13-0.02c-0.17,0-0.31,0.01-0.44,0.02c-0.7,0.03-0.74,0.18-0.74,1.07c0,0.01,0,0.03,0,0.04
					c0,0.12,0,0.24,0,0.36c0,7.28,0,14.56,0,21.84c0,7.43,0,14.85,0,22.28c0,1.69,0.72,2.43,2.35,2.44c2.08,0.01,6.24,0,6.24,0h5.56
					c0,0,4.16,0.01,6.24,0c1.62-0.01,2.35-0.75,2.35-2.44c0.01-7.43,0-14.85,0-22.28C3254.54,671.44,3254.54,664.16,3254.54,656.87z
					"/>
			</g>
		</g>
		<g>
			<path class="st14" d="M3385.42,629.03h-24.35c-3.36,0-6.09-2.73-6.09-6.09c0-3.36,2.73-6.09,6.09-6.09h24.35
				c3.36,0,6.09,2.73,6.09,6.09C3391.5,626.3,3388.78,629.03,3385.42,629.03z"/>
		</g>
		<g>
			<path class="st14" d="M3358.03,594.03c-1.56,0-3.12-0.59-4.3-1.78c-2.38-2.38-2.38-6.23,0-8.61l18.26-18.26
				c2.38-2.38,6.23-2.38,8.61,0c2.38,2.38,2.38,6.23,0,8.61l-18.26,18.26C3361.14,593.43,3359.59,594.03,3358.03,594.03z"/>
		</g>
		<g>
			<path class="st14" d="M3376.29,682.28c-1.56,0-3.12-0.59-4.3-1.78l-18.26-18.26c-2.38-2.38-2.38-6.23,0-8.61
				c2.38-2.38,6.23-2.38,8.61,0l18.26,18.26c2.38,2.38,2.38,6.23,0,8.61C3379.4,681.69,3377.85,682.28,3376.29,682.28z"/>
		</g>
	</g>
</g>
<g>
	<g>
		<g>
			<g id="组_38_12_">
				<circle id="椭圆_13-2_12_" class="st5" cx="2594.76" cy="630.91" r="164.87"/>
			</g>
		</g>
		<g>
			<g>
				<path class="st6" d="M2676.49,547.74h-111.06c-6.42,0-11.62,5.2-11.62,11.62v20.94c17.57,3.57,30.84,19.14,30.84,37.75
					c0,10.96-4.61,20.85-11.97,27.88h103.82c6.42,0,11.62-5.2,11.62-11.62v-74.95C2688.12,552.95,2682.91,547.74,2676.49,547.74z"/>
			</g>
			<g>
				<rect x="2593.49" y="596.53" class="st14" width="14.57" height="31.68"/>
				<rect x="2615.37" y="574.99" class="st14" width="14.57" height="53.22"/>
				<rect x="2637.24" y="566.75" class="st14" width="14.57" height="61.45"/>
			</g>
			<path class="st14" d="M2498.15,711.83c-7.04,0-12.28-6.54-10.72-13.4c6.09-26.79,30.05-46.79,58.69-46.79s52.6,20,58.69,46.79
				c1.56,6.86-3.68,13.4-10.72,13.4H2498.15z"/>
		</g>
	</g>
	<g>
		<circle class="st14" cx="2546.12" cy="618.07" r="27.88"/>
	</g>
</g>
<g>
	<g class="st12">
		<g>
			<path class="st5" d="M1055.25,399.37c-1.13,0-2.27-0.35-3.24-1.07c-58.97-43.71-134.9-67.78-213.81-67.78
				c-78.91,0-154.84,24.07-213.81,67.77c-2.42,1.79-5.83,1.29-7.63-1.13c-1.79-2.42-1.29-5.83,1.13-7.63
				c60.83-45.09,139.07-69.92,220.3-69.92c81.23,0,159.47,24.83,220.3,69.92c2.42,1.79,2.93,5.21,1.13,7.63
				C1058.56,398.61,1056.91,399.37,1055.25,399.37z"/>
		</g>
		<g>
			<g>
				<polygon class="st5" points="1049.26,366.06 1052.67,391.98 1026.74,395.38 1039.19,404.94 1065.11,401.54 1061.71,375.62 				
					"/>
			</g>
		</g>
		<g>
			<g>
				<polygon class="st5" points="627.13,366.06 623.72,391.98 649.64,395.38 637.19,404.94 611.28,401.54 614.68,375.62 				"/>
			</g>
		</g>
	</g>
	<g class="st12">
		<g>
			<path class="st5" d="M2689.78,399.99c-1.78,0-3.52-0.87-4.57-2.47c-1.65-2.52-0.94-5.9,1.58-7.54
				c69.45-45.37,158.91-70.36,251.89-70.36s182.44,24.99,251.89,70.36c2.52,1.65,3.23,5.02,1.58,7.54
				c-1.65,2.52-5.02,3.23-7.54,1.58c-67.7-44.22-155.04-68.58-245.93-68.58c-90.89,0-178.23,24.36-245.93,68.58
				C2691.83,399.71,2690.8,399.99,2689.78,399.99z"/>
		</g>
		<g>
			<g>
				<polygon class="st5" points="2718.14,397.81 2692.48,392.79 2697.52,367.13 2684.49,375.88 2679.46,401.54 2705.11,406.57 				
					"/>
			</g>
		</g>
		<g>
			<g>
				<polygon class="st5" points="3159.23,397.81 3184.89,392.79 3179.85,367.13 3192.88,375.88 3197.91,401.54 3172.26,406.57 				
					"/>
			</g>
		</g>
	</g>
	<g class="st12">
		<g>
			<path class="st5" d="M1933.54,396.22c-0.97,0-1.95-0.26-2.84-0.8c-2.57-1.57-3.37-4.93-1.8-7.5
				c36.95-60.26,102.54-115.38,189.7-159.39c136.87-69.12,316.9-107.18,506.92-107.18c157.66,0,307.8,25.91,434.17,74.93
				c60.95,23.64,114.39,51.98,158.81,84.23c45.19,32.8,80.06,68.94,103.64,107.41c1.57,2.57,0.77,5.92-1.8,7.5
				c-2.57,1.57-5.92,0.77-7.5-1.8c-22.83-37.24-56.73-72.33-100.75-104.28c-43.66-31.7-96.27-59.59-156.35-82.89
				c-125.13-48.54-273.9-74.19-430.23-74.19c-188.35,0-366.63,37.65-502,106.01c-85.35,43.1-149.44,96.82-185.32,155.36
				C1937.17,395.29,1935.38,396.22,1933.54,396.22z"/>
		</g>
		<g>
			<g>
				<polygon class="st5" points="3322.41,362.7 3315.82,388.01 3290.52,381.41 3298.47,394.95 3323.76,401.54 3330.35,376.24 				
					"/>
			</g>
		</g>
		<g>
			<g>
				<polygon class="st5" points="1928.6,362.7 1935.21,388 1960.5,381.38 1952.57,394.93 1927.28,401.54 1920.67,376.24 				"/>
			</g>
		</g>
	</g>
	<g class="st12">
		<g>
			<path class="st5" d="M1840.54,396.22c-1.83,0-3.62-0.93-4.65-2.6c-36.09-58.86-100.65-112.83-186.7-156.05
				c-135.2-67.91-312.99-105.31-500.63-105.31c-156.33,0-305.1,25.65-430.23,74.19c-60.08,23.3-112.68,51.19-156.35,82.89
				c-44.02,31.96-77.92,67.04-100.75,104.28c-1.57,2.57-4.93,3.37-7.5,1.8c-2.57-1.57-3.37-4.93-1.8-7.5
				c23.59-38.47,58.46-74.61,103.64-107.41c44.42-32.25,97.86-60.59,158.81-84.23c126.38-49.02,276.51-74.93,434.17-74.93
				c189.31,0,368.84,37.81,505.52,106.47c87.87,44.14,153.95,99.5,191.1,160.1c1.57,2.57,0.77,5.92-1.8,7.5
				C1842.49,395.96,1841.51,396.22,1840.54,396.22z"/>
		</g>
		<g>
			<g>
				<polygon class="st5" points="483.56,381.41 458.26,388.01 451.68,362.7 443.73,376.24 450.32,401.54 475.62,394.95 				"/>
			</g>
		</g>
		<g>
			<g>
				<polygon class="st5" points="1813.57,381.39 1838.87,388 1845.47,362.7 1853.41,376.24 1846.8,401.54 1821.51,394.93 				"/>
			</g>
		</g>
	</g>
	<g class="st12">
		<g>
			<path class="st5" d="M2528.75,398.24c-1.34,0-2.68-0.49-3.74-1.48c-78.92-74.32-232.79-131.9-422.14-157.96
				c-73.18-10.07-149.84-15.18-227.84-15.18c-76.12,0-151.04,4.87-222.67,14.48c-191.82,25.73-347.57,83.56-427.32,158.66
				c-2.19,2.06-5.64,1.96-7.71-0.23c-2.06-2.19-1.96-5.64,0.23-7.71c81.37-76.63,239.32-135.5,433.34-161.53
				c72.12-9.67,147.52-14.58,224.12-14.58c78.5,0,155.66,5.14,229.33,15.28c191.55,26.36,347.6,84.98,428.13,160.83
				c2.19,2.06,2.3,5.51,0.23,7.71C2531.65,397.66,2530.2,398.24,2528.75,398.24z"/>
		</g>
		<g>
			<g>
				<polygon class="st5" points="2526.12,364.42 2526.41,390.57 2500.27,390.85 2511.49,401.83 2537.63,401.54 2537.34,375.4 				
					"/>
			</g>
		</g>
		<g>
			<g>
				<polygon class="st5" points="1223.94,364.42 1223.64,390.57 1249.79,390.85 1238.57,401.82 1212.43,401.54 1212.72,375.4 				
					"/>
			</g>
		</g>
	</g>
</g>
<g>
	<path class="st14" d="M212.98,893.42h25.44c18.32,0,30.88,11.04,30.88,28c0,16.96-12.56,28-30.88,28h-25.44V893.42z M237.78,938.78
		c11.12,0,18.4-6.64,18.4-17.36c0-10.72-7.28-17.36-18.4-17.36h-11.84v34.72H237.78z"/>
	<path class="st14" d="M283.86,893.42h12.96v56h-12.96V893.42z"/>
	<path class="st14" d="M310.5,943.9l4.4-9.76c4.72,3.44,11.76,5.84,18.48,5.84c7.68,0,10.8-2.56,10.8-6
		c0-10.48-32.56-3.28-32.56-24.08c0-9.52,7.68-17.44,23.6-17.44c7.04,0,14.24,1.68,19.44,4.96l-4,9.84
		c-5.2-2.96-10.56-4.4-15.52-4.4c-7.68,0-10.64,2.88-10.64,6.4c0,10.32,32.56,3.2,32.56,23.76c0,9.36-7.76,17.36-23.76,17.36
		C324.42,950.38,315.46,947.74,310.5,943.9z"/>
	<path class="st14" d="M367.22,921.42c0-16.88,12.96-28.96,30.4-28.96c9.68,0,17.76,3.52,23.04,9.92l-8.32,7.68
		c-3.76-4.32-8.48-6.56-14.08-6.56c-10.48,0-17.92,7.36-17.92,17.92c0,10.56,7.44,17.92,17.92,17.92c5.6,0,10.32-2.24,14.08-6.64
		l8.32,7.68c-5.28,6.48-13.36,10-23.12,10C380.18,950.38,367.22,938.3,367.22,921.42z"/>
	<path class="st14" d="M429.45,921.42c0-16.64,12.96-28.96,30.64-28.96c17.6,0,30.64,12.24,30.64,28.96
		c0,16.72-13.04,28.96-30.64,28.96C442.42,950.38,429.45,938.06,429.45,921.42z M477.62,921.42c0-10.64-7.52-17.92-17.52-17.92
		c-10,0-17.52,7.28-17.52,17.92c0,10.64,7.52,17.92,17.52,17.92C470.1,939.34,477.62,932.06,477.62,921.42z"/>
	<path class="st14" d="M557.3,893.42l-24.24,56h-12.8l-24.16-56h14l17.04,40l17.28-40H557.3z"/>
	<path class="st14" d="M610.09,939.02v10.4h-43.36v-56h42.32v10.4h-29.44v12.16h26v10.08h-26v12.96H610.09z"/>
	<path class="st14" d="M660.89,949.42l-10.8-15.6h-0.64h-11.28v15.6h-12.96v-56h24.24c14.96,0,24.32,7.76,24.32,20.32
		c0,8.4-4.24,14.56-11.52,17.68l12.56,18H660.89z M648.73,903.98h-10.56v19.52h10.56c7.92,0,11.92-3.68,11.92-9.76
		C660.65,907.58,656.65,903.98,648.73,903.98z"/>
</g>
<g>
	<path class="st14" d="M996.87,893.42h12.96v56h-12.96V893.42z"/>
	<path class="st14" d="M1027.91,893.42h25.44c18.32,0,30.88,11.04,30.88,28c0,16.96-12.56,28-30.88,28h-25.44V893.42z
		 M1052.71,938.78c11.12,0,18.4-6.64,18.4-17.36c0-10.72-7.28-17.36-18.4-17.36h-11.84v34.72H1052.71z"/>
	<path class="st14" d="M1142.15,939.02v10.4h-43.36v-56h42.32v10.4h-29.44v12.16h26v10.08h-26v12.96H1142.15z"/>
	<path class="st14" d="M1194.15,937.42h-26l-4.96,12h-13.28l24.96-56h12.8l25.04,56h-13.6L1194.15,937.42z M1190.07,927.58
		l-8.88-21.44l-8.88,21.44H1190.07z"/>
	<path class="st14" d="M1232.15,903.98h-17.92v-10.56h48.8v10.56h-17.92v45.44h-12.96V903.98z"/>
	<path class="st14" d="M1318.15,939.02v10.4h-43.36v-56h42.32v10.4h-29.44v12.16h26v10.08h-26v12.96H1318.15z"/>
</g>
<g>
	<path class="st14" d="M1657.03,913.74c0,12.48-9.36,20.24-24.32,20.24h-11.28v15.44h-12.96v-56h24.24
		C1647.67,893.42,1657.03,901.18,1657.03,913.74z M1643.91,913.74c0-6.16-4-9.76-11.92-9.76h-10.56v19.44h10.56
		C1639.91,923.42,1643.91,919.82,1643.91,913.74z"/>
	<path class="st14" d="M1706.71,949.42l-10.8-15.6h-0.64h-11.28v15.6h-12.96v-56h24.24c14.96,0,24.32,7.76,24.32,20.32
		c0,8.4-4.24,14.56-11.52,17.68l12.56,18H1706.71z M1694.55,903.98h-10.56v19.52h10.56c7.92,0,11.92-3.68,11.92-9.76
		C1706.47,907.58,1702.47,903.98,1694.55,903.98z"/>
	<path class="st14" d="M1731.11,921.42c0-16.64,12.96-28.96,30.64-28.96c17.6,0,30.64,12.24,30.64,28.96
		c0,16.72-13.04,28.96-30.64,28.96C1744.07,950.38,1731.11,938.06,1731.11,921.42z M1779.27,921.42c0-10.64-7.52-17.92-17.52-17.92
		s-17.52,7.28-17.52,17.92c0,10.64,7.52,17.92,17.52,17.92S1779.27,932.06,1779.27,921.42z"/>
	<path class="st14" d="M1817.75,903.98h-17.92v-10.56h48.8v10.56h-17.92v45.44h-12.96V903.98z"/>
	<path class="st14" d="M1856.07,921.42c0-16.64,12.96-28.96,30.64-28.96c17.6,0,30.64,12.24,30.64,28.96
		c0,16.72-13.04,28.96-30.64,28.96C1869.03,950.38,1856.07,938.06,1856.07,921.42z M1904.23,921.42c0-10.64-7.52-17.92-17.52-17.92
		c-10,0-17.52,7.28-17.52,17.92c0,10.64,7.52,17.92,17.52,17.92C1896.71,939.34,1904.23,932.06,1904.23,921.42z"/>
	<path class="st14" d="M1942.71,903.98h-17.92v-10.56h48.8v10.56h-17.92v45.44h-12.96V903.98z"/>
	<path class="st14" d="M2011.19,929.58v19.84h-12.96v-20l-21.68-36h13.76l14.96,24.88l14.96-24.88h12.72L2011.19,929.58z"/>
	<path class="st14" d="M2091.19,913.74c0,12.48-9.36,20.24-24.32,20.24h-11.28v15.44h-12.96v-56h24.24
		C2081.83,893.42,2091.19,901.18,2091.19,913.74z M2078.07,913.74c0-6.16-4-9.76-11.92-9.76h-10.56v19.44h10.56
		C2074.07,923.42,2078.07,919.82,2078.07,913.74z"/>
	<path class="st14" d="M2148.55,939.02v10.4h-43.36v-56h42.32v10.4h-29.44v12.16h26v10.08h-26v12.96H2148.55z"/>
</g>
<g>
	<path class="st14" d="M2510.4,913.74c0,12.48-9.36,20.24-24.32,20.24h-11.28v15.44h-12.96v-56h24.24
		C2501.04,893.42,2510.4,901.18,2510.4,913.74z M2497.28,913.74c0-6.16-4-9.76-11.92-9.76h-10.56v19.44h10.56
		C2493.28,923.42,2497.28,919.82,2497.28,913.74z"/>
	<path class="st14" d="M2524.4,893.42h12.96v56h-12.96V893.42z"/>
	<path class="st14" d="M2567.04,903.98h-17.92v-10.56h48.8v10.56H2580v45.44h-12.96V903.98z"/>
	<path class="st14" d="M2605.36,921.42c0-16.88,12.96-28.96,30.4-28.96c9.68,0,17.76,3.52,23.04,9.92l-8.32,7.68
		c-3.76-4.32-8.48-6.56-14.08-6.56c-10.48,0-17.92,7.36-17.92,17.92c0,10.56,7.44,17.92,17.92,17.92c5.6,0,10.32-2.24,14.08-6.64
		l8.32,7.68c-5.28,6.48-13.36,10-23.12,10C2618.32,950.38,2605.36,938.3,2605.36,921.42z"/>
	<path class="st14" d="M2723.68,893.42v56h-12.96v-22.96h-25.44v22.96h-12.96v-56h12.96v22.08h25.44v-22.08H2723.68z"/>
</g>
<g>
	<path class="st14" d="M3130.84,937.42h-26l-4.96,12h-13.28l24.96-56h12.8l25.04,56h-13.6L3130.84,937.42z M3126.76,927.58
		l-8.88-21.44l-8.88,21.44H3126.76z"/>
	<path class="st14" d="M3155.72,921.42c0-16.88,12.96-28.96,30.4-28.96c9.68,0,17.76,3.52,23.04,9.92l-8.32,7.68
		c-3.76-4.32-8.48-6.56-14.08-6.56c-10.48,0-17.92,7.36-17.92,17.92c0,10.56,7.44,17.92,17.92,17.92c5.6,0,10.32-2.24,14.08-6.64
		l8.32,7.68c-5.28,6.48-13.36,10-23.12,10C3168.68,950.38,3155.72,938.3,3155.72,921.42z"/>
	<path class="st14" d="M3233.72,903.98h-17.92v-10.56h48.8v10.56h-17.92v45.44h-12.96V903.98z"/>
	<path class="st14" d="M3276.36,893.42h12.96v56h-12.96V893.42z"/>
	<path class="st14" d="M3360.92,893.42l-24.24,56h-12.8l-24.16-56h14l17.04,40l17.28-40H3360.92z"/>
	<path class="st14" d="M3405.4,937.42h-26l-4.96,12h-13.28l24.96-56h12.8l25.04,56h-13.6L3405.4,937.42z M3401.32,927.58
		l-8.88-21.44l-8.88,21.44H3401.32z"/>
	<path class="st14" d="M3443.4,903.98h-17.92v-10.56h48.8v10.56h-17.92v45.44h-12.96V903.98z"/>
	<path class="st14" d="M3529.4,939.02v10.4h-43.36v-56h42.32v10.4h-29.44v12.16h26v10.08h-26v12.96H3529.4z"/>
</g>
</svg>
