<?xml version="1.0" encoding="utf-8"?>
<!-- Generator: Adobe Illustrator 24.0.0, SVG Export Plug-In . SVG Version: 6.00 Build 0)  -->
<svg version="1.1" id="Layer_1" xmlns="http://www.w3.org/2000/svg" xmlns:xlink="http://www.w3.org/1999/xlink" x="0px" y="0px"
	 viewBox="0 0 1920 1920" style="enable-background:new 0 0 1920 1920;" xml:space="preserve">
<style type="text/css">
	.st0{fill:none;stroke:#25497A;stroke-width:30;stroke-miterlimit:10;}
	.st1{fill:none;stroke:#566ED1;stroke-width:40;stroke-linecap:round;stroke-miterlimit:10;}
	.st2{fill:none;stroke:#25497A;stroke-width:40;stroke-miterlimit:10;}
	.st3{fill:#26497A;}
	.st4{fill:#4497FF;}
	.st5{fill:#E4F2FF;}
	.st6{fill:none;stroke:#B7DFE6;stroke-width:20;stroke-linecap:round;stroke-miterlimit:10;}
	.st7{fill:#25497A;}
	.st8{fill:#B7DFE6;}
	.st9{fill:#D4F1FF;}
	.st10{fill:#E4F2FF;stroke:#E4F2FF;stroke-width:1.5;stroke-miterlimit:10;}
	.st11{fill:none;stroke:#E4F2FF;stroke-width:8;stroke-linecap:round;stroke-linejoin:round;}
	.st12{fill:none;stroke:#E4F2FF;stroke-width:8;stroke-linecap:round;stroke-linejoin:round;stroke-dasharray:4.755,19.02;}
	.st13{fill:none;stroke:#25497A;stroke-width:8;stroke-linecap:round;stroke-linejoin:round;stroke-miterlimit:10;}
	.st14{fill:none;stroke:#E4F2FF;stroke-width:8;stroke-linecap:round;stroke-linejoin:round;stroke-dasharray:4.9167,19.6667;}
</style>
<rect x="388.7" y="388.1" transform="matrix(0.7071 0.7071 -0.7071 0.7071 959.7576 -397.8954)" class="st0" width="1142.9" height="1142.9"/>
<g>
	<g id="组_38">
		<circle id="椭圆_13-2" class="st4" cx="151.6" cy="961.4" r="152"/>
	</g>
</g>
<g>
	<g id="组_38_1_">
		<circle id="椭圆_13-2_1_" class="st4" cx="960.2" cy="152.3" r="152"/>
	</g>
</g>
<g>
	<g id="组_38_2_">
		<circle id="椭圆_13-2_2_" class="st4" cx="1768" cy="963.3" r="152"/>
	</g>
</g>
<g>
	<g id="组_38_3_">
		<circle id="椭圆_13-2_3_" class="st4" cx="960.2" cy="1768.7" r="152"/>
	</g>
</g>
<g>
	<path class="st3" d="M121.3,984.3c-1.6-1.6-3.7-2.4-5.9-2.4c-2.2,0-4.3,0.9-5.9,2.4L64,1029.7c-1.6,1.6-2.4,3.7-2.4,5.9
		s0.9,4.3,2.4,5.9c1.6,1.6,3.7,2.4,5.9,2.4c2.2,0,4.3-0.9,5.9-2.4l45.4-45.4c1.6-1.6,2.4-3.7,2.4-5.9
		C123.7,988,122.9,985.9,121.3,984.3z"/>
	<g>
		<path class="st3" d="M114.6,996.4c-20.6-20.6-20.6-54.1,0-74.7c20.6-20.6,54.1-20.6,74.7,0s20.6,54.1,0,74.7
			C168.7,1017,135.2,1017,114.6,996.4z M180,930.9c-15.5-15.5-40.6-15.5-56.1,0s-15.5,40.6,0,56.1c15.5,15.5,40.6,15.5,56.1,0
			S195.5,946.4,180,930.9z"/>
	</g>
	<path class="st5" d="M180,930.9c-15.5-15.5-40.6-15.5-56.1,0s-15.5,40.6,0,56.1s40.6,15.5,56.1,0S195.5,946.4,180,930.9z
		 M173.8,939.3c-1.4,1.4-3.6,1.4-5,0c-9.2-9.2-24.3-9.2-33.5,0c-0.7,0.7-1.6,1-2.5,1s-1.8-0.3-2.5-1c-1.4-1.4-1.4-3.6,0-5
		c12-12,31.5-12,43.5,0C175.1,935.7,175.1,937.9,173.8,939.3z"/>
</g>
<g id="组_37" transform="translate(-446 75)">
	<g id="_21" transform="translate(1744.565 1587.158)">
		<path class="st5" d="M-342.4-1588.7L-342.4-1588.7c0,0-0.1,0-0.1,0c0,0-0.1,0-0.1,0v0c-26.8,0.1-48.4,21.9-48.4,48.6
			c0,12,4.4,23.5,12.4,32.4c0,0,15.4,20,18.2,29.1h17.8h0.2h17.8c2.8-9.1,18.2-29.1,18.2-29.1c8-8.9,12.4-20.5,12.4-32.4
			C-293.9-1566.9-315.6-1588.6-342.4-1588.7z M-353-1565.2c-8.5,0-15.4,7-15.5,15.5c0,3-2.4,5.4-5.4,5.4c0,0,0,0,0,0
			c-3,0-5.4-2.4-5.4-5.4c0-14.4,11.8-26.2,26.2-26.2c0,0,0,0,0,0c3,0,5.4,2.4,5.4,5.4C-347.6-1567.7-350-1565.3-353-1565.2z"/>
		<path id="路径_258" class="st7" d="M-361.4-1449.2c0,10.1,8.2,18.3,18.3,18.3c10.1,0,18.3-8.2,18.3-18.3
			c0-10.1-8.2-18.3-18.3-18.3l0,0C-353.2-1467.5-361.4-1459.3-361.4-1449.2z"/>
		<path class="st8" d="M-323.1-1480.5h-19.4v0h-19.2c-3.4,0-6.2,2.8-6.2,6.2c0,3.4,2.8,6.2,6.2,6.2h19.4l0,0h19.2
			c3.4,0,6.2-2.8,6.2-6.2C-316.9-1477.7-319.7-1480.5-323.1-1480.5z"/>
		<path class="st8" d="M-323.2-1455.9h-19.2h-0.2h-19.2c-3.4,0-6.2,2.8-6.2,6.2s2.8,6.2,6.2,6.2h19.2h0.2h19.2
			c3.4,0,6.2-2.8,6.2-6.2C-316.9-1453.1-319.8-1455.9-323.2-1455.9z"/>
		<path class="st7" d="M-323.2-1468.2h-19.2v0h-19.4c-3.4,0-6.2,2.8-6.2,6.2c0,3.4,2.8,6.2,6.2,6.2h19.2v0h19.4
			c3.4,0,6.2-2.8,6.2-6.2S-319.8-1468.2-323.2-1468.2z"/>
	</g>
</g>
<g>
	<g>
		<path class="st10" d="M1697.7,903.7c-0.7,0-1.3-0.3-1.8-0.8l-1.2-1.2c-1-1-1-2.7,0-3.7c1-1,2.7-1,3.7,0l1.2,1.2c1,1,1,2.7,0,3.7
			C1699.1,903.5,1698.4,903.7,1697.7,903.7z"/>
	</g>
	<g>
		<path class="st10" d="M1818.8,948.2h-3.1c-1.4,0-2.6-1.2-2.6-2.6c0-1.4,1.2-2.6,2.6-2.6h3.1c1.4,0,2.6,1.2,2.6,2.6
			C1821.5,947.1,1820.3,948.2,1818.8,948.2z M1803.3,948.2h-3.1c-1.4,0-2.6-1.2-2.6-2.6c0-1.4,1.2-2.6,2.6-2.6h3.1
			c1.4,0,2.6,1.2,2.6,2.6C1805.9,947.1,1804.8,948.2,1803.3,948.2z M1787.8,948.2h-3.1c-1.4,0-2.6-1.2-2.6-2.6
			c0-1.4,1.2-2.6,2.6-2.6h3.1c1.4,0,2.6,1.2,2.6,2.6C1790.4,947.1,1789.3,948.2,1787.8,948.2z M1772.3,948.2h-3.1
			c-1.4,0-2.6-1.2-2.6-2.6c0-1.4,1.2-2.6,2.6-2.6h3.1c1.4,0,2.6,1.2,2.6,2.6C1774.9,947.1,1773.8,948.2,1772.3,948.2z M1756.8,948.2
			h-3.1c-1.4,0-2.6-1.2-2.6-2.6c0-1.4,1.2-2.6,2.6-2.6h3.1c1.4,0,2.6,1.2,2.6,2.6C1759.4,947.1,1758.3,948.2,1756.8,948.2z
			 M1741.6,947.6c-0.7,0-1.3-0.3-1.8-0.8l-2.2-2.2c-1-1-1-2.7,0-3.7c1-1,2.7-1,3.7,0l2.2,2.2c1,1,1,2.7,0,3.7
			C1742.9,947.3,1742.3,947.6,1741.6,947.6z M1730.6,936.6c-0.7,0-1.3-0.3-1.8-0.8l-2.2-2.2c-1-1-1-2.7,0-3.7c1-1,2.7-1,3.7,0
			l2.2,2.2c1,1,1,2.7,0,3.7C1732,936.4,1731.3,936.6,1730.6,936.6z M1719.7,925.7c-0.7,0-1.3-0.3-1.8-0.8l-2.2-2.2c-1-1-1-2.7,0-3.7
			c1-1,2.7-1,3.7,0l2.2,2.2c1,1,1,2.7,0,3.7C1721,925.4,1720.3,925.7,1719.7,925.7z M1708.7,914.7c-0.7,0-1.3-0.3-1.8-0.8l-2.2-2.2
			c-1-1-1-2.7,0-3.7c1-1,2.7-1,3.7,0l2.2,2.2c1,1,1,2.7,0,3.7C1710,914.4,1709.4,914.7,1708.7,914.7z"/>
	</g>
	<g>
		<path class="st10" d="M1832.9,948.2h-1.6c-1.4,0-2.6-1.2-2.6-2.6c0-1.4,1.2-2.6,2.6-2.6h1.6c1.4,0,2.6,1.2,2.6,2.6
			C1835.5,947.1,1834.3,948.2,1832.9,948.2z"/>
	</g>
</g>
<g>
	<g>
		<path class="st10" d="M1742.2,963.1c-1.4,0-2.6-1.2-2.6-2.6v-1.6c0-1.4,1.2-2.6,2.6-2.6s2.6,1.2,2.6,2.6v1.6
			C1744.8,961.9,1743.7,963.1,1742.2,963.1z"/>
	</g>
	<g>
		<path class="st10" d="M1742.2,1025.1c-1.4,0-2.6-1.2-2.6-2.6v-3.2c0-1.4,1.2-2.6,2.6-2.6s2.6,1.2,2.6,2.6v3.2
			C1744.8,1023.9,1743.7,1025.1,1742.2,1025.1z M1742.2,1009c-1.4,0-2.6-1.2-2.6-2.6v-3.2c0-1.4,1.2-2.6,2.6-2.6s2.6,1.2,2.6,2.6
			v3.2C1744.8,1007.9,1743.7,1009,1742.2,1009z M1742.2,993c-1.4,0-2.6-1.2-2.6-2.6v-3.2c0-1.4,1.2-2.6,2.6-2.6s2.6,1.2,2.6,2.6v3.2
			C1744.8,991.8,1743.7,993,1742.2,993z M1742.2,977c-1.4,0-2.6-1.2-2.6-2.6v-3.2c0-1.4,1.2-2.6,2.6-2.6s2.6,1.2,2.6,2.6v3.2
			C1744.8,975.8,1743.7,977,1742.2,977z"/>
	</g>
	<g>
		<path class="st10" d="M1742.2,1038.4c-1.4,0-2.6-1.2-2.6-2.6v-1.6c0-1.4,1.2-2.6,2.6-2.6s2.6,1.2,2.6,2.6v1.6
			C1744.8,1037.3,1743.7,1038.4,1742.2,1038.4z"/>
	</g>
</g>
<path class="st7" d="M1847.7,941.9l-45.3-45.3l-0.3-0.3l-0.2-0.2c-0.2-0.2-0.4-0.3-0.6-0.5c-0.1-0.1-0.2-0.1-0.3-0.2
	c-0.2-0.1-0.4-0.2-0.6-0.3c-0.1-0.1-0.3-0.1-0.4-0.1c-0.2-0.1-0.4-0.1-0.6-0.2c-0.3-0.1-0.7-0.1-1.1-0.1h-101.7
	c-2.9,0-5.3,2.4-5.3,5.3v101.7c0,0.3,0,0.7,0.1,1c0,0.2,0.1,0.4,0.2,0.6l0.1,0.4c0.1,0.2,0.2,0.4,0.3,0.6l0.2,0.3
	c0.2,0.3,0.4,0.6,0.6,0.8l45.6,45.6c1,1,2.3,1.6,3.8,1.6H1844c0.3,0,0.7,0,1.1-0.1c0.1,0,0.3-0.1,0.5-0.1c0.2,0,0.3-0.1,0.5-0.2
	c0.2-0.1,0.3-0.2,0.5-0.2c0.1-0.1,0.3-0.2,0.4-0.2c0.3-0.2,0.5-0.4,0.8-0.7c0.2-0.2,0.5-0.5,0.7-0.8c0.1-0.1,0.2-0.3,0.2-0.4
	c0.1-0.1,0.2-0.3,0.2-0.5l0,0c0.1-0.2,0.1-0.3,0.2-0.5c0.1-0.2,0.1-0.3,0.1-0.5c0.1-0.3,0.1-0.7,0.1-1V945.6
	C1849.3,944.2,1848.7,942.9,1847.7,941.9z M1803.6,999.5v-86.7l35,35v86.7L1803.6,999.5z M1793,905.3v91.1h-91.1v-91.1H1793z
	 M1796.1,1007l35,35h-86.7l-35-35H1796.1z M1799.1,897.5C1799.1,897.5,1799.1,897.5,1799.1,897.5L1799.1,897.5L1799.1,897.5z
	 M1694.1,1002.5L1694.1,1002.5L1694.1,1002.5L1694.1,1002.5z M1844.8,1049.8L1844.8,1049.8L1844.8,1049.8L1844.8,1049.8z
	 M1846.3,1048.5C1846.3,1048.5,1846.3,1048.5,1846.3,1048.5L1846.3,1048.5L1846.3,1048.5z"/>
<circle class="st5" cx="960" cy="1770.9" r="54"/>
<g>
	<path class="st7" d="M956.2,1795.8c-2.1,0-4.1-0.8-5.7-2.4l-31.9-31.9c-3.2-3.2-3.2-8.3,0-11.5c3.2-3.2,8.3-3.2,11.5,0l26.1,26.1
		l76.9-76.9c3.2-3.2,8.3-3.2,11.5,0c3.2,3.2,3.2,8.3,0,11.5l-82.6,82.6C960.4,1795,958.3,1795.8,956.2,1795.8z"/>
</g>
</svg>
