<svg xmlns="http://www.w3.org/2000/svg" xmlns:xlink="http://www.w3.org/1999/xlink" viewBox="0 0 1280 300"><defs><style>.cls-1,.cls-10,.cls-11{fill:none;}.cls-2{clip-path:url(#clip-path);}.cls-3{fill:#e4f2ff;}.cls-4{fill:#25497a;}.cls-5{fill:#4497ff;}.cls-6{fill:#e7b400;}.cls-7{fill:#b7dfe6;}.cls-8{fill:#ff6d6d;}.cls-9{fill:#566ed1;}.cls-10{stroke:#ff6d6d;}.cls-10,.cls-11{stroke-miterlimit:10;stroke-width:3px;}.cls-11{stroke:#566ed1;}</style><clipPath id="clip-path"><rect class="cls-1" width="1280" height="300"/></clipPath></defs><title>stakeholder</title><g id="Layer_1" data-name="Layer 1"><g class="cls-2"><rect class="cls-3" width="1280" height="300"/><polygon class="cls-4" points="270.68 314.87 244.44 327.26 194.65 221.12 220.68 208.13 270.68 314.87"/><polygon class="cls-5" points="185.45 324.9 157.4 331.05 125 179.29 135.91 165.11 152.28 172.75 185.45 324.9"/><polygon class="cls-4" points="143 307.15 106.89 322.14 32.45 142.76 67.99 127.77 143 307.15"/><polygon class="cls-6" points="185.59 167.91 194.65 221.12 200.16 222.53 203.81 217.79 211.7 221.03 214.94 213.15 218.49 215.88 220.68 208.13 185.59 167.91"/><polygon class="cls-6" points="125 128 125 179.29 129.37 184.75 133.73 174.93 141.37 179.29 145.74 170.56 152.28 172.75 125 128"/><polygon class="cls-6" points="22 71.55 32.22 143.1 41.16 144.38 46.27 136.71 59.05 140.54 65.44 131.6 67.99 127.77 22 71.55"/><polygon class="cls-4" points="22 71.55 24.55 89.44 27.11 85.61 30.94 90.72 33.5 85.61 22 71.55"/><polygon class="cls-4" points="125 128 125 138.55 126.09 138.91 127.18 136.73 129.37 137.82 130.12 136.4 125 128"/><polygon class="cls-4" points="185.59 167.91 187.47 178.9 188.92 177.07 190.24 179.04 190.88 175.75 193.64 177.14 185.59 167.91"/><path class="cls-5" d="M274.6,93.67,124,50,166.25-65.94l200,49.34L337,68C322,86,300,98,274.6,93.67Z"/><path class="cls-7" d="M274.6,93.67S288.68,88.49,295,79c4-6,5-16,5-16s7,5.08,14,7c11,3,23-2,23-2-2.11,6.5-10,14-15,18-5.52,4.42-16,7.84-23,9A63.23,63.23,0,0,1,274.6,93.67Z"/><path class="cls-8" d="M669.81,391.28l26.9-154.93L952.87,272,935,477.22,748.71,452.8C705.41,438.73,671.53,417.22,669.81,391.28Z"/><path class="cls-7" d="M726.81,374.28l26.9-154.93L1009.87,255,992,460.22,805.71,435.8C762.41,421.73,728.53,400.22,726.81,374.28Z"/><circle class="cls-7" cx="1171.05" cy="34.05" r="129"/><circle class="cls-9" cx="1170.7" cy="34.67" r="112.5"/><rect class="cls-7" x="1196.62" y="150.62" width="38.07" height="67" rx="10.74" transform="translate(-5.97 323.22) rotate(-15.11)"/><path class="cls-7" d="M1219.65-8s-5.33,58.63,10.66,68,24,1.33,22.65-12S1219.65-8,1219.65-8Z"/><path class="cls-7" d="M1173.42,36.7s-11.14,57.23-.37,67.89,17.7,3.53,18.34-9.71S1173.42,36.7,1173.42,36.7Z"/><path class="cls-7" d="M1155.76,51.36s-21.18,38.78-13,50,16.12,8.08,19.18-1.49S1155.76,51.36,1155.76,51.36Z"/><path class="cls-7" d="M1133.36,59.54S1096.67,49.17,1092,66c-5,18,24,12,24,12s-14,30,10,21C1141.13,93.33,1133.36,59.54,1133.36,59.54Z"/><path class="cls-7" d="M1201.1,13.27s-18.28,56-4.78,68.62,23.08,6.66,24.76-6.63S1201.1,13.27,1201.1,13.27Z"/><path class="cls-7" d="M1167.7,32.4S1108.47,18.33,1103,3.45s4.31-18.4,17.17-13.29S1167.7,32.4,1167.7,32.4Z"/><path class="cls-7" d="M1150.67,42.22s-45.57,7.22-53.68-4.83-2.26-18.75,8.23-18.39S1150.67,42.22,1150.67,42.22Z"/><path class="cls-7" d="M1195,10.12s-61.11-6.72-67.3-25.06,3.67-24.88,17-20.75S1195,10.12,1195,10.12Z"/><polygon class="cls-5" points="1105.2 409.69 1136.35 420.52 1165.36 274.42 1134.3 262.81 1105.2 409.69"/><polygon class="cls-6" points="1162.77 204.29 1165.36 274.42 1159.75 277.32 1154.72 271.94 1146.97 277.63 1141.65 268.13 1138.46 272.34 1134.3 262.81 1162.77 204.29"/><polygon class="cls-4" points="1162.77 204.29 1163.3 218.78 1161.31 216.71 1160.35 219.49 1158.89 215.4 1156.24 217.71 1162.77 204.29"/><polygon class="cls-4" points="1037.06 378.48 1083.47 383.36 1098.72 226.46 1052.3 220.74 1037.06 378.48"/><polygon class="cls-6" points="1082.46 154.48 1098.72 226.46 1091.23 230.59 1083.08 226.04 1073.05 233.5 1063.75 224.75 1059.94 229.75 1052.3 220.74 1082.46 154.48"/><polygon class="cls-4" points="1082.46 154.48 1085.82 169.35 1082.61 167.62 1081.72 170.69 1078.92 166.75 1075.54 169.68 1082.46 154.48"/><path class="cls-10" d="M955.38,72.36,988,33.62s12.11-15,3.39-22.38S971.6,17,971.6,17L929.72,63.33s-5.32,7.79.44,14S951,69.68,951,69.68L980.73,35.2l4.38-5.69s5.36-8.8,2.44-10.91-11.15,3.56-11.15,3.56l-40.73,42.4s-4.15,3.84-1.28,7c3.46,3.75,11.16-3.56,11.16-3.56l34.64-40.65"/><path class="cls-11" d="M999.3,49.92,1011.72,99s5.13,18.6,16.19,15.82,6.88-19.36,6.88-19.36l-13.18-61.08s-3.22-8.86-11.64-7.83S1004,47.91,1004,47.91l10.62,44.28,2.06,6.89s4,9.48,7.43,8.35,3.63-11.13,3.63-11.13l-10.65-57.83s-.69-5.61-4.9-5.1c-5.06.62-3.62,11.13-3.62,11.13l12.76,51.87"/><path class="cls-11" d="M911.73,20.84l-46,21.06s-17.37,8.4-12.65,18.77S873.35,64,873.35,64l57.7-24s8.14-4.76,5.61-12.86-22.1-2-22.1-2L872.92,43.56l-6.4,3.27s-8.61,5.66-6.88,8.82,11.6,1.56,11.6,1.56l55-20.89s5.4-1.69,4.13-5.74c-1.52-4.87-11.6-1.56-11.6-1.56L870,50.92"/><path class="cls-10" d="M112.73,20.84l-46,21.06S49.34,50.3,54.06,60.67,74.35,64,74.35,64l57.7-24s8.14-4.76,5.61-12.86-22.1-2-22.1-2L73.92,43.56l-6.4,3.27s-8.61,5.66-6.88,8.82,11.6,1.56,11.6,1.56l55-20.89s5.4-1.69,4.13-5.74c-1.52-4.87-11.6-1.56-11.6-1.56L71,50.92"/><path class="cls-11" d="M178,83.4l-50.41-4.48S108.29,77.62,107.26,89s16,12.89,16,12.89l62,7.73s9.43-.12,11.24-8.41-18.23-12.66-18.23-12.66L133,83.94l-7.18-.33s-10.28.65-10.34,4.26S124.77,95,124.77,95l58.1,9.05s5.52,1.2,6.43-2.94c1.08-5-9.31-7.1-9.31-7.1L126.82,88.9"/></g></g></svg>