<?xml version="1.0" encoding="utf-8"?>
<!-- Generator: Adobe Illustrator 24.2.3, SVG Export Plug-In . SVG Version: 6.00 Build 0)  -->
<svg version="1.1" id="Layer_1" xmlns="http://www.w3.org/2000/svg" xmlns:xlink="http://www.w3.org/1999/xlink" x="0px" y="0px"
	 viewBox="0 0 1366 768" style="enable-background:new 0 0 1366 768;" xml:space="preserve">
<style type="text/css">
	.st0{opacity:0.4;fill:#E3E7F2;}
	.st1{fill:#FFEBD2;}
	.st2{fill:#F78E36;}
	.st3{fill:#F86F1B;}
	.st4{fill:#4380A0;}
	.st5{fill:#7BE492;}
	.st6{fill:#45D987;}
	.st7{fill:#43809F;}
	.st8{fill:#3A7190;}
	.st9{fill:#F3F3F3;}
	.st10{fill:#E4E4E4;}
	.st11{fill:#29CEF6;}
	.st12{fill:#22B5ED;}
	.st13{fill:#FFE9CC;}
	.st14{fill:#FFE2BD;}
	.st15{fill:#FFD733;}
	.st16{fill:#FFA993;}
	.st17{fill:#FF7956;}
	.st18{fill:#939598;}
	.st19{fill:#ACABB1;}
	.st20{fill:#C6C5CA;}
	.st21{fill:#F1F2F2;}
	.st22{fill-rule:evenodd;clip-rule:evenodd;fill:#ECF4FF;}
	.st23{fill-rule:evenodd;clip-rule:evenodd;fill:#FFE5A0;}
	.st24{fill-rule:evenodd;clip-rule:evenodd;fill:#477B9E;}
	.st25{fill-rule:evenodd;clip-rule:evenodd;fill:#DDEAFB;}
	.st26{fill-rule:evenodd;clip-rule:evenodd;fill:#F2CE7E;}
	.st27{fill:#C2C7D0;}
	.st28{fill:#ABB0B7;}
	.st29{fill:#FFC850;}
	.st30{fill:#FEA82F;}
	.st31{fill:#FF8031;}
	.st32{fill:#FF9052;}
	.st33{fill:none;}
	.st34{fill:none;stroke:#E3E7F2;stroke-width:3;stroke-miterlimit:10;}
	.st35{fill:none;stroke:#E3E7F2;stroke-width:3;stroke-miterlimit:10;stroke-dasharray:11.8905,11.8905;}
	.st36{fill:#A4C2F7;}
	.st37{fill:#E3E7F2;}
	.st38{fill:#FFFFFF;}
	.st39{fill:#428DFF;}
	.st40{fill:#FFDFBA;}
	.st41{fill:#D6F4FC;}
	.st42{fill:#E8F8FC;}
	.st43{fill:#42434D;}
	.st44{fill:#FFD6A6;}
	.st45{fill:#4D4E59;}
	.st46{fill:#BDEFFC;}
	.st47{fill:#F1FAFC;}
	.st48{fill:#4E4E4E;}
	.st49{fill:#007194;}
	.st50{fill:#C79A83;}
	.st51{fill:#E0B7A3;}
	.st52{fill:#BEFA91;}
	.st53{fill:#A07765;}
	.st54{fill:#2C2C33;}
	.st55{fill:#99D856;}
	.st56{fill:none;stroke:#E0B7A3;stroke-width:2;stroke-linecap:round;stroke-linejoin:round;stroke-miterlimit:10;}
</style>
<path class="st0" d="M-2,767c-4.64-13.61-8.76-33.24,0-50c35.78-68.42,230.12,18.5,472.64,26c245.44,7.59,691.59-11.71,812.38-59
	c22.99-9,138.99-28,113.99,7c-13.18,18.45-31.88,59.3-34.05,76"/>
<path class="st1" d="M134.68,693.34l4.4,4.91c1.15,0.61,4.08-0.81,4.69-1.96l12.04-26.55c0.61-1.15,1.36-2.4,0.21-3.01l-5.61-2.98
	c-1.15-0.61-1.62-0.23-2.24,0.92l-14.48,25.47C133.09,691.29,133.53,692.73,134.68,693.34z"/>
<path class="st1" d="M141.52,698.41l-2.73,2.1c-1.81,1.33-4.37,0.95-5.7-0.87l-19.01-24.97c-1.33-1.81-1.09-5.45,0.72-6.79
	l3.24-2.38c1.81-1.33,5.24-1.39,6.58,0.42l18.29,26.5C144.23,694.24,142.65,695.5,141.52,698.41z"/>
<g>
	<path class="st2" d="M152.82,670.52l-5.51-5.51c-0.38-0.38-0.38-1,0-1.38l16.31-16.31c0.38-0.38,1-0.38,1.38,0l5.51,5.51
		c0.38,0.38,0.38,1,0,1.38l-16.31,16.31C153.82,670.9,153.2,670.9,152.82,670.52z"/>
	<path class="st3" d="M163.62,647.32l-16.31,16.31c-0.38,0.38-0.38,1,0,1.38l3.45,3.45c-0.38-0.38-0.38-1,0-1.38l16.31-16.31
		c0.38-0.38,1-0.38,1.38,0l-3.45-3.45C164.62,646.94,164,646.94,163.62,647.32z"/>
	<path class="st4" d="M169.49,651.8l-3.45-3.45l7.51-7.51l3.45,3.45L169.49,651.8z"/>
	<path class="st5" d="M164.03,660.7l-6.89-6.89l3.45-3.45l6.89,6.89L164.03,660.7z"/>
	<path class="st6" d="M160.59,657.25l-3.45-3.45l3.45-3.45l3.45,3.45L160.59,657.25z"/>
	<circle class="st7" cx="196.08" cy="621.74" r="31.68"/>
	<path class="st8" d="M196.08,590.06c-17.5,0-31.68,14.18-31.68,31.68c0,17.5,14.18,31.68,31.68,31.68c0.82,0,1.63-0.03,2.44-0.09
		c-16.36-1.24-29.24-14.91-29.24-31.59s12.89-30.34,29.24-31.59C197.72,590.09,196.9,590.06,196.08,590.06L196.08,590.06z"/>
	<circle class="st9" cx="196.08" cy="621.74" r="26.81"/>
	<path class="st10" d="M196.08,594.94c-14.78,0-26.81,12.03-26.81,26.81c0,14.78,12.03,26.81,26.81,26.81
		c0.82,0,1.63-0.04,2.44-0.11c-13.64-1.24-24.37-12.74-24.37-26.7c0-13.96,10.73-25.46,24.37-26.7
		C197.72,594.97,196.91,594.94,196.08,594.94L196.08,594.94z"/>
	<g>
		<path class="st11" d="M200.55,608.01c0-0.36,0.29-0.65,0.65-0.65h8.45c0.36,0,0.65,0.29,0.65,0.65v14.3h-9.75V608.01z"/>
		<path class="st12" d="M201.2,607.36c-0.36,0-0.65,0.29-0.65,0.65v14.3h4.87v-14.95H201.2z"/>
		<path class="st5" d="M181.06,614.19c0-0.36,0.29-0.65,0.65-0.65h8.45c0.36,0,0.65,0.29,0.65,0.65v8.12h-9.75V614.19z"/>
		<path class="st6" d="M181.71,613.54c-0.36,0-0.65,0.29-0.65,0.65v8.12h4.87v-8.77H181.71z"/>
		<path class="st2" d="M190.8,601.84c0-0.36,0.29-0.65,0.65-0.65h8.45c0.36,0,0.65,0.29,0.65,0.65v20.47h-9.75V601.84z"/>
		<path class="st3" d="M191.45,601.19c-0.36,0-0.65,0.29-0.65,0.65v20.47h4.87v-21.12H191.45z"/>
	</g>
	<path class="st7" d="M177.02,622.31c0,0.65,0.53,1.18,1.18,1.18h34.94c0.65,0,1.18-0.53,1.18-1.18s-0.53-1.18-1.18-1.18h-34.94
		C177.55,621.13,177.02,621.66,177.02,622.31z"/>
	<path class="st11" d="M180.85,635.07c0,0.65,0.53,1.18,1.18,1.18h6.57c0.49,0,0.92-0.3,1.1-0.75l1.78-4.54l3.65,9.85
		c0.17,0.46,0.61,0.77,1.11,0.77h0.01c0.5,0,0.94-0.32,1.11-0.79l2.74-7.76l1.46,2.62c0.21,0.37,0.6,0.61,1.03,0.61h6.44
		c0.65,0,1.18-0.53,1.18-1.18s-0.53-1.18-1.18-1.18h-5.74l-2.4-4.3c-0.23-0.41-0.67-0.64-1.13-0.6c-0.46,0.04-0.86,0.35-1.02,0.79
		l-2.52,7.15l-3.6-9.7c-0.17-0.46-0.61-0.77-1.1-0.77c-0.49,0-0.93,0.3-1.11,0.75l-2.61,6.68h-5.76
		C181.38,633.89,180.85,634.42,180.85,635.07z"/>
</g>
<g id="surface1_2_">
	<path class="st13" d="M1283.77,586.25c-0.02,1.48,1.15,2.71,2.64,2.74l56.48,1.11c1.48,0.02,2.71-1.15,2.74-2.64l1.16-59.17
		l-14.79-0.29c-1.49-0.03-2.67-1.26-2.64-2.74l0.26-13.45l-41.69-0.82c-1.48-0.02-2.71,1.15-2.74,2.64L1283.77,586.25z"/>
	<path class="st14" d="M1284.53,547.38l-0.77,38.88c-0.03,1.49,1.15,2.71,2.64,2.74l41.69,0.82
		C1307.65,583.4,1291.48,567.64,1284.53,547.38z"/>
	<path class="st15" d="M1293.29,549.5l1.87,1.94L1293.29,549.5z"/>
	<path class="st16" d="M1332,528.01l14.79,0.29l-17.16-16.48l-0.26,13.45C1329.33,526.75,1330.51,527.98,1332,528.01z"/>
	<path class="st17" d="M1307.42,546.36c0.01-0.74,0.63-1.33,1.37-1.32l28.24,0.56c0.74,0.01,1.33,0.63,1.32,1.37
		c-0.01,0.74-0.63,1.33-1.37,1.32l-28.24-0.56C1308,547.72,1307.41,547.1,1307.42,546.36z"/>
	<path class="st17" d="M1315.33,554.59c0.01-0.74,0.63-1.33,1.37-1.32l20.17,0.4c0.74,0.01,1.33,0.63,1.32,1.37
		c-0.01,0.74-0.63,1.33-1.37,1.32l-20.17-0.4C1315.91,555.94,1315.32,555.33,1315.33,554.59z"/>
	<path class="st17" d="M1323.24,562.81c0.01-0.74,0.63-1.33,1.37-1.32l12.1,0.24c0.74,0.01,1.33,0.63,1.32,1.37
		c-0.01,0.74-0.63,1.33-1.37,1.32l-12.1-0.24C1323.82,564.17,1323.23,563.56,1323.24,562.81z"/>
	<path class="st17" d="M1299.51,538.13c0.01-0.74,0.63-1.33,1.37-1.32l25.55,0.5c0.74,0.01,1.33,0.63,1.32,1.37
		s-0.63,1.33-1.37,1.32l-25.55-0.5C1300.09,539.49,1299.5,538.88,1299.51,538.13z"/>
	<path class="st17" d="M1330.44,538.74c0.01-0.74,0.63-1.33,1.37-1.32l5.38,0.11c0.74,0.01,1.33,0.63,1.32,1.37
		c-0.01,0.74-0.63,1.33-1.37,1.32l-5.38-0.11C1331.02,540.1,1330.43,539.48,1330.44,538.74z"/>
</g>
<g id="surface1_1_">
	<g>
		<g>
			<path class="st18" d="M1314.3,574.49l-5.97-3.49l-0.79-6.87l10.28,0.67L1314.3,574.49z"/>
			<path class="st19" d="M1288.42,591.41l-3.45,2.26l-6.77-10.35l3.45-2.26L1288.42,591.41z"/>
			<path class="st20" d="M1276.11,594.52c2.08,1.59,4.94,1.7,7.14,0.26l1.72-1.12l-6.76-10.35l-1.73,1.12
				c-0.88,0.58-1.6,1.37-2.09,2.3c-0.16,0.31-0.3,0.63-0.4,0.97C1273.17,590.2,1274.02,592.93,1276.11,594.52z"/>
			<path class="st15" d="M1287.11,589.41l1.31,2l0.78-0.51l25.09-16.4l-2.8-2.22l-2.31-1.83l-15.53,10.14l15.53-10.14l-1.65-6.31
				l-25.89,16.92L1287.11,589.41z M1288.37,584.05l1.73-1.13L1288.37,584.05z"/>
		</g>
		<path class="st21" d="M1306.48,573.44l-13.09,8.55c-0.31,0.23-0.72,0.27-1.06,0.11c-0.35-0.17-0.57-0.51-0.58-0.9
			c-0.01-0.38,0.19-0.74,0.53-0.93l13.09-8.56c0.35-0.23,0.8-0.22,1.15,0.01c0.34,0.24,0.51,0.66,0.43,1.06
			C1306.87,573.06,1306.71,573.29,1306.48,573.44z"/>
		<path class="st21" d="M1289.94,584.25l-1.73,1.13c-0.48,0.3-1.1,0.16-1.41-0.31c-0.31-0.47-0.18-1.1,0.28-1.42l1.73-1.13
			c0.35-0.23,0.8-0.22,1.14,0.01c0.34,0.24,0.51,0.65,0.43,1.06C1290.33,583.87,1290.17,584.1,1289.94,584.25z"/>
	</g>
</g>
<g>
	<g>
		<path class="st22" d="M217.75,541.28l-0.47-0.2h38.05l17.12,16.48c1.88,1.82,3.88,0.67,4.13-1.47l1.96-16.86
			c17.4-5.34,30.14-21.6,30.14-40.69c0-23.39-19.14-42.54-42.54-42.54H145.43c-23.39,0-42.54,19.15-42.54,42.54
			c0,19.09,12.74,35.35,30.14,40.69l1.97,16.86c0.27,2.39,2.49,3.06,4.13,1.47l17.12-16.48h38.05"/>
		<path class="st23" d="M205.78,514.96h-9.24c0.01-9.9-9.67-13.79-9.67-25.62c0-10.44,8.47-18.91,18.91-18.91
			c10.45,0,18.91,8.47,18.91,18.91c0,11.83-9.69,15.73-9.67,25.62H205.78z"/>
		<path class="st24" d="M215.02,514.96v6.67c0,3.09-2.52,5.62-5.62,5.62h-7.23c-3.09,0-5.63-2.52-5.63-5.62v-6.67H215.02z"/>
		<path class="st25" d="M217.75,541.28l-0.47-0.2h38.05l17.12,16.48c1.88,1.82,3.88,0.67,4.13-1.47l1.96-16.86
			c17.4-5.34,30.14-21.6,30.14-40.69c0-14.35-7.18-27.09-18.14-34.8c4.87,6.93,7.74,15.34,7.74,24.4
			c0,23.39-19.14,42.54-42.54,42.54h0H135.02c-9.05,0-17.47-2.87-24.4-7.74c5.4,7.67,13.26,13.48,22.4,16.29l1.97,16.86
			c0.27,2.39,2.49,3.06,4.13,1.47l17.12-16.48L217.75,541.28"/>
		<path class="st26" d="M214.29,489.34c0,11.83-9.69,15.73-9.67,25.62h10.41c-0.01-9.9,9.67-13.79,9.67-25.62
			c0-10.44-8.46-18.91-18.91-18.91c-1.8,0-3.55,0.26-5.2,0.73C208.5,473.41,214.29,480.7,214.29,489.34L214.29,489.34z"/>
	</g>
</g>
<path class="st27" d="M1141.09,751.95v-5.67h-16.75v5.64c0,0.62,0.5,1.12,1.12,1.12h14.5
	C1140.61,753.07,1141.09,752.57,1141.09,751.95z"/>
<path class="st28" d="M1129.12,751.92v-5.64h-4.78v5.64c0,0.62,0.5,1.12,1.12,1.12h4.78
	C1129.65,753.07,1129.12,752.54,1129.12,751.92z"/>
<path class="st28" d="M1125.66,743.21v-3.02h-4.97v3.02c0,1.95,1.58,3.52,3.54,3.52h4.97
	C1127.24,746.76,1125.66,745.16,1125.66,743.21z"/>
<path class="st27" d="M1140.71,740.21h-20.02v3.02c0,1.95,1.58,3.52,3.54,3.52h16.96c1.96,0,3.54-1.57,3.54-3.52v-3.02H1140.71z"/>
<path class="st29" d="M1154.88,717.21c0-12.1-9.75-21.91-21.84-22.07c-12.23-0.17-22.22,9.45-22.46,21.64
	c-0.12,6.52,2.58,12.41,7,16.52c1.98,1.86,3.13,4.43,3.13,7.14h24.06c0-2.71,1.15-5.29,3.13-7.14
	C1152.18,729.28,1154.88,723.54,1154.88,717.21z"/>
<path class="st30" d="M1122.55,733.3c-4.4-4.12-7.12-10-7-16.52c0.21-11.24,8.72-20.31,19.64-21.5c-0.72-0.07-1.43-0.12-2.17-0.14
	c-12.23-0.17-22.22,9.45-22.46,21.64c-0.12,6.52,2.58,12.41,7,16.52c1.98,1.86,3.13,4.43,3.13,7.14h4.99
	C1125.68,737.73,1124.54,735.16,1122.55,733.3z"/>
<g>
	<path class="st31" d="M1104.99,718.68H1102c-0.98,0-1.79-0.81-1.79-1.79c0-0.98,0.81-1.79,1.79-1.79h2.99
		c0.98,0,1.79,0.81,1.79,1.79C1106.78,717.88,1106,718.68,1104.99,718.68z"/>
	<path class="st31" d="M1163.55,718.68h-2.99c-0.98,0-1.79-0.81-1.79-1.79c0-0.98,0.81-1.79,1.79-1.79h2.99
		c0.98,0,1.79,0.81,1.79,1.79C1165.34,717.88,1164.53,718.68,1163.55,718.68z"/>
	<path class="st31" d="M1106.14,734.02c-0.62,0-1.22-0.31-1.55-0.9c-0.5-0.86-0.19-1.95,0.64-2.43l2.58-1.48
		c0.86-0.5,1.96-0.19,2.44,0.64c0.5,0.86,0.19,1.95-0.64,2.43l-2.58,1.48C1106.76,733.92,1106.45,734.02,1106.14,734.02z"/>
	<path class="st31" d="M1156.86,704.83c-0.62,0-1.22-0.31-1.55-0.9c-0.5-0.86-0.19-1.95,0.64-2.43l2.58-1.48
		c0.86-0.5,1.96-0.19,2.44,0.64c0.5,0.86,0.19,1.95-0.64,2.43l-2.58,1.48C1157.46,704.76,1157.15,704.83,1156.86,704.83z"/>
	<path class="st31" d="M1146.68,694.68c-0.31,0-0.62-0.07-0.88-0.24c-0.86-0.5-1.15-1.6-0.64-2.43l1.48-2.57
		c0.5-0.86,1.6-1.14,2.44-0.64c0.86,0.5,1.15,1.6,0.65,2.43l-1.48,2.57C1147.9,694.37,1147.3,694.68,1146.68,694.68z"/>
	<path class="st31" d="M1132.78,690.99c-0.98,0-1.79-0.81-1.79-1.79v-2.98c0-0.98,0.81-1.79,1.79-1.79c0.98,0,1.79,0.81,1.79,1.79
		v2.98C1134.57,690.18,1133.78,690.99,1132.78,690.99z"/>
	<path class="st31" d="M1118.9,694.68c-0.62,0-1.22-0.31-1.55-0.9l-1.51-2.55c-0.5-0.86-0.19-1.95,0.64-2.43
		c0.86-0.5,1.96-0.19,2.44,0.64l1.48,2.57c0.5,0.86,0.19,1.95-0.64,2.43C1119.49,694.61,1119.18,694.68,1118.9,694.68z"/>
	<path class="st31" d="M1159.42,734.02c-0.31,0-0.62-0.07-0.88-0.24l-2.58-1.48c-0.86-0.5-1.15-1.6-0.64-2.43
		c0.5-0.86,1.6-1.14,2.44-0.64l2.58,1.48c0.86,0.5,1.15,1.6,0.64,2.43C1160.66,733.69,1160.04,734.02,1159.42,734.02z"/>
	<path class="st31" d="M1108.72,704.83c-0.31,0-0.62-0.07-0.88-0.24l-2.58-1.48c-0.86-0.5-1.15-1.6-0.64-2.43
		c0.5-0.86,1.6-1.14,2.44-0.64l2.58,1.48c0.86,0.5,1.15,1.6,0.64,2.43C1109.94,704.52,1109.34,704.83,1108.72,704.83z"/>
</g>
<path class="st32" d="M1129.05,742.23c-0.98,0-1.79-0.81-1.79-1.79v-19.43c0-0.98,0.81-1.79,1.79-1.79c0.98,0,1.79,0.81,1.79,1.79
	v19.43C1130.84,741.42,1130.05,742.23,1129.05,742.23z"/>
<path class="st32" d="M1138.85,722.8h-12.23c-0.98,0-1.79-0.81-1.79-1.79c0-0.98,0.81-1.79,1.79-1.79h12.23
	c0.98,0,1.79,0.81,1.79,1.79C1140.64,721.99,1139.83,722.8,1138.85,722.8z"/>
<line class="st33" x1="1149.55" y1="740.03" x2="1150.19" y2="740.03"/>
<path class="st32" d="M1136.51,742.23c-0.98,0-1.79-0.81-1.79-1.79v-19.43c0-0.98,0.81-1.79,1.79-1.79c0.98,0,1.79,0.81,1.79,1.79
	v19.43C1138.3,741.42,1137.48,742.23,1136.51,742.23z"/>
<path class="st34" d="M1129.45,687.73"/>
<path class="st29" d="M499,337"/>
<path class="st6" d="M1164.21,667.23"/>
<g>
	<g>
		<path class="st34" d="M1149.54,671.74c0.45-1.76,0.98-3.7,1.6-5.78"/>
		<path class="st35" d="M1155.02,654.73c2.5-6.39,5.8-13.53,10.2-21.08c8.42-14.46,21.9-36.91,51.29-53.57
			c7.33-4.15,19.09-9.9,35.34-14.1"/>
		<path class="st34" d="M1257.64,564.6c1.91-0.42,3.87-0.81,5.88-1.18"/>
	</g>
</g>
<g>
	<g transform="translate(1)">
		<path class="st36" d="M1199.54,590.19c-0.18-0.15-0.43-0.2-0.65-0.13l-1.28,0.4l-37.19,11.47l-4.56,1.46l12.86,6.52l0.01,0l0,0.01
			l2.4,12.19l0.11,0.54c0.05,0.26,0.23,0.47,0.48,0.55c0.25,0.09,0.52,0.04,0.72-0.13l7.4-6.39l0.66-0.57l9.01,4.45l0.67,0.33
			c0.4,0.2,0.87,0.21,1.27,0.02c0.41-0.19,0.7-0.55,0.8-0.99l7.53-28.94C1199.88,590.69,1199.78,590.38,1199.54,590.19z
			 M1175.85,613.68l0.02,0.01l-0.04,0.04L1175.85,613.68z"/>
		<path class="st37" d="M1197.61,590.46l-37.19,11.47l-4.56,1.46l12.86,6.52l0.01,0l0,0.01l2.4,12.19l7.17-6.18l1.54,0.76l0.66-0.57
			l9.01,4.45c0.27-0.2,0.46-0.49,0.54-0.82l7.53-28.94C1197.62,590.69,1197.63,590.57,1197.61,590.46z M1173.63,613.54l0.02-0.05
			l0.02,0.01L1173.63,613.54z"/>
		<path class="st36" d="M1180.5,616.11l-8.06,6.96c0.09-0.09,0.17-0.19,0.21-0.32l3.17-9.02l0.04-0.04l3.07,1.61l1.37,0.72
			L1180.5,616.11z"/>
		<path class="st37" d="M1199.59,590.24l-23.72,23.45l-0.02-0.01l-0.02,0.05l-3.17,9.02c-0.04,0.12-0.12,0.23-0.21,0.31
			c-0.2,0.17-0.47,0.22-0.72,0.13c-0.25-0.09-0.43-0.3-0.48-0.55l-2.51-12.74l0-0.01l-0.01,0l0-0.01L1199.59,590.24z"/>
		<g>
			<path class="st38" d="M1191.72,620.75L1191.72,620.75l-9.02-4.46l-0.66,0.57l7.47,3.69l0.67,0.33
				C1190.68,621.15,1191.28,621.09,1191.72,620.75z"/>
			<path class="st38" d="M1168.73,609.9L1168.73,609.9L1168.73,609.9l2.41,12.2l0.11,0.54c0.05,0.26,0.23,0.47,0.48,0.55
				c0.25,0.09,0.52,0.04,0.72-0.13l0.89-0.77l-2.4-12.2l0-0.01l-0.01,0l-12.86-6.52l4.56-1.46l37.18-11.47
				c-0.03-0.16-0.1-0.3-0.22-0.41l0,0l-0.01,0c-0.02-0.01-0.03-0.03-0.05-0.05c-0.18-0.15-0.43-0.2-0.65-0.13l-1.28,0.4
				l-37.19,11.47l-4.56,1.46L1168.73,609.9L1168.73,609.9z"/>
		</g>
	</g>
	<g>
		<polygon class="st38" points="1158.65,603.15 1167.13,607.61 1170,609.12 1169.31,610.43 1166.44,608.92 1157.96,604.45 		"/>
		<g>
			<path class="st39" d="M1158.65,603.15l-1.41-0.74c-0.36-0.19-0.8-0.05-0.99,0.31c-0.19,0.36-0.05,0.8,0.3,0.99l1.41,0.74
				l2.61,1.37c0.36,0.19,0.8,0.05,0.99-0.31c0.19-0.36,0.05-0.8-0.3-0.99L1158.65,603.15L1158.65,603.15z"/>
			<path class="st39" d="M1163.87,605.9c-0.17-0.09-0.37-0.11-0.56-0.06l-0.13,0.06c-0.04,0.02-0.08,0.05-0.12,0.09
				c-0.04,0.03-0.07,0.06-0.1,0.1c-0.03,0.04-0.06,0.08-0.08,0.12c-0.09,0.17-0.11,0.37-0.06,0.56c0.13,0.38,0.54,0.6,0.93,0.49
				c0.09-0.03,0.18-0.08,0.25-0.14c0.07-0.06,0.14-0.14,0.18-0.22c0.09-0.17,0.11-0.37,0.05-0.56
				C1164.17,606.14,1164.04,605.98,1163.87,605.9L1163.87,605.9z"/>
			<path class="st39" d="M1170.49,610.14l19.15-11.49c0.24-0.13,0.4-0.38,0.4-0.65c0-0.27-0.15-0.53-0.39-0.65
				c-0.24-0.13-0.54-0.11-0.76,0.04l-19.25,11.55l-3.15-1.66c-0.36-0.19-0.81-0.05-1,0.31c-0.19,0.36-0.05,0.81,0.31,1l3.22,1.69
				l2.25,12.43c0.12,0.64,0.65,1.13,1.3,1.19l0.02,0c0.35,0.03,0.71-0.07,0.99-0.29c0.03-0.01,0.05-0.03,0.08-0.04l7.81-6.54
				l9.13,4.72c0.58,0.32,1.29,0.35,1.9,0.08c0.63-0.27,1.1-0.82,1.26-1.48l4-15.8l3.96-12.98c0.16-0.52,0.03-1.09-0.35-1.48
				c-0.38-0.38-0.93-0.53-1.45-0.38l-38.64,11.28c-0.39,0.11-0.62,0.52-0.5,0.91c0.11,0.39,0.52,0.62,0.91,0.5l36.92-10.77
				l-19.68,19c-0.29,0.28-0.3,0.75-0.02,1.04c0.28,0.29,0.75,0.3,1.04,0.02l19.98-19.29l-3.59,11.75l-4.01,15.83
				c-0.06,0.22-0.21,0.41-0.42,0.5c-0.2,0.09-0.43,0.07-0.62-0.03l-9.61-4.93l-4.6-2.49c-0.36-0.19-0.81-0.06-1,0.3
				c-0.02,0.05-0.04,0.1-0.05,0.15l-0.02,0l-3.3,8.96L1170.49,610.14z M1177.12,614.71l2.32,1.26l0.6,0.31l-5.07,4.24
				L1177.12,614.71z"/>
		</g>
	</g>
</g>
<path class="st40" d="M116.36,662.37v9.05c0,1.01-0.82,1.83-1.83,1.83H47.59c-1.01,0-1.83-0.82-1.83-1.83v-9.05
	c0-9.45,7.73-16.95,17.19-17.04c3.15-0.03,5.97-1.59,7.69-4.05l-0.01-0.01c1.9-2.7,1.71-5.14,1.71-6.99l0.03-0.08
	c-8.22-3.41-14-11.51-14-20.95v-0.75c-3.29,0-5.73-2.61-5.73-5.63c0-2.14,0.01-19.8,0.02-22.34c0-3.42,2.77-6.19,6.19-6.19
	c2.78-6.93,9.5-11.45,16.94-11.45l24.66,0.02c1.28,0,2.17,1.29,1.71,2.48l-1.57,4.14c-0.38,1,0.18,2.11,1.2,2.41l1.27,0.37
	c3.81,1.11,6.67,4.57,6.67,8.83c0,1.72-0.01,13.82-0.01,21.39c0,3.29-2.67,5.96-5.97,5.96v0.75c-0.01,9.47-5.81,17.58-14.05,20.97v0
	l0.03,0.06c0,1.77-0.21,4.26,1.71,6.99c1.67,2.39,4.51,4.02,7.73,4.06C108.63,645.42,116.36,652.92,116.36,662.37L116.36,662.37z"/>
<path class="st41" d="M116.36,662.87v9.75c0,1.09,1.01,62.39,0,62.39h-67.1c-1.01,0-3.51-61.3-3.51-62.39v-9.75
	c0-10.19,7.73-18.27,17.19-18.36c3.13-0.04,5.96-1.69,7.7-4.36c6.2,7.42,7.36,8.81,9.05,10.84c0.73,0.87,2,0.87,2.73,0
	c1.74-2.08,2.93-3.51,9.04-10.83c1.66,2.56,4.5,4.31,7.71,4.35C108.63,644.61,116.36,652.69,116.36,662.87L116.36,662.87z"/>
<path class="st42" d="M95.52,644.56c-0.03,0.06-2.29,10.35-2.28,10.29c-0.3,1.35-2.01,1.79-2.92,0.74c-6.02-6.93-5.2-6.03-5.81-6.58
	l6.95-7.72C92.47,642.74,93.88,643.86,95.52,644.56L95.52,644.56z"/>
<path class="st42" d="M70.64,641.28l6.8,7.56l-5.64,6.68c-0.9,1.07-2.64,0.64-2.94-0.73c-0.01-0.07-2.24-10.17-2.26-10.23
	C68.23,643.86,69.63,642.72,70.64,641.28L70.64,641.28z"/>
<path class="st43" d="M109.73,585.15c0,1.72-0.01,13.82-0.01,21.39c0,3.29-2.67,5.96-5.97,5.96c0-2.49,0.01-8.55,0.01-14.13
	c0-6.08-4.92-11.01-10.99-11.01l-23.38-0.02c-6.08,0-11.01,4.92-11.01,11l-0.01,14.16c-3.29,0-5.73-2.61-5.73-5.63
	c0-2.14,0.01-19.8,0.02-22.34c0-3.42,2.77-6.19,6.19-6.19c2.78-6.93,9.5-11.45,16.94-11.45l24.66,0.02c1.28,0,2.17,1.28,1.71,2.48
	l-1.57,4.14c-0.38,1,0.17,2.11,1.2,2.41l1.27,0.37C106.87,577.42,109.73,580.89,109.73,585.15z"/>
<path class="st1" d="M92.77,587.36c6.08,0,11,4.93,10.99,11.01c0,5.19-0.01,14.88-0.01,14.88c-0.01,9.47-5.81,17.58-14.05,20.97v0
	c-14.92,6.15-31.33-4.85-31.34-20.98c0-1.2,0.01-13.37,0.01-14.9c0-6.08,4.94-11,11.01-11L92.77,587.36z"/>
<path class="st44" d="M90.03,638.05c-5.65,2.36-11.85,2.55-17.94,0c0.31-1.29,0.26-2.12,0.26-3.76l0.03-0.08
	c5.52,2.29,11.82,2.3,17.35,0l0.03,0.08C89.77,635.93,89.72,636.76,90.03,638.05L90.03,638.05z"/>
<path class="st45" d="M102.16,569.39c-1.63,4.29-1.6,4.19-1.64,4.39l-17.85-0.01c-6.93,0-13.23,3.92-16.31,10.06
	c-0.39,0.77-1.08,1.35-1.93,1.53c-2.79,0.6-4.89,3.08-4.89,6.05l0,2.03c-0.74,1.48-1.15,3.14-1.16,4.91l-0.01,8.6
	c0,3.71-5.73,3.96-5.73-0.07c0-2.14,0.01-19.8,0.02-22.34c0-3.42,2.77-6.19,6.19-6.19c2.78-6.93,9.5-11.45,16.94-11.45l24.66,0.02
	C101.73,566.91,102.61,568.19,102.16,569.39L102.16,569.39z"/>
<path class="st46" d="M82.89,650.82v13.27c0,1.01-0.82,1.83-1.83,1.83c-1.01,0-1.83-0.82-1.83-1.83v-13.27l0.47,0.52
	c0.73,0.81,2,0.81,2.73,0L82.89,650.82z"/>
<path class="st47" d="M70.78,650.91c0.34,1.55,0.71,3.2,1.02,4.61c-0.9,1.07-2.64,0.64-2.94-0.72c-0.88-4-2.25-10.19-2.26-10.23
	c1.63-0.7,3.03-1.85,4.04-3.28l1.96,2.18C70.91,645.55,70.2,648.27,70.78,650.91L70.78,650.91z"/>
<path class="st41" d="M126.01,677.69l-2.27,1.86c-2.53,2.07-6.26,1.7-8.34-0.83l-12.2-14.89c-2.07-2.53-1.7-6.26,0.83-8.34
	l2.27-1.86c2.53-2.07,6.26-1.7,8.34,0.83l13.09,13.45C129.81,670.45,128.55,675.62,126.01,677.69z"/>
<path class="st38" d="M96.41,621.46c-3.96,9.22-21.11,7.29-24.19,0.17"/>
<line class="st33" x1="216.6" y1="456" x2="215.45" y2="456"/>
<path class="st48" d="M74.36,601.56c-1.11,0-2.01,1.8-2.01,4.02c0,2.22,0.91,4.03,2.01,4.03c1.11,0,2.02-1.8,2.02-4.03
	C76.38,603.36,75.48,601.56,74.36,601.56z"/>
<path class="st48" d="M93.82,601.14c-1.11,0-2.01,1.8-2.01,4.02s0.91,4.03,2.01,4.03c1.11,0,2.02-1.8,2.02-4.03
	S94.93,601.14,93.82,601.14z"/>
<polygon class="st49" points="49.26,735.01 49.26,768 74.15,768 76.52,767.64 83.38,753.24 90.24,767.64 92.61,768 116.36,768 
	116.36,735.01 "/>
<path class="st1" d="M156.34,663.9l-3.66-4.45c-0.98-1.58-0.83-2.85,0.69-3.79l4.83-2.99c0.83-0.52,1.95-0.23,2.49,0.64l2.93,6.76
	c0.54,0.87,1.29,1.55,0.45,2.07l-4.47,3.06C158.09,666.14,157.32,665.48,156.34,663.9z"/>
<path class="st1" d="M17.19,693.8l2.58,2.28c1.72,1.46,4.29,1.24,5.75-0.48L46.2,672c1.46-1.72,1.47-5.36-0.25-6.82l-3.07-2.6
	c-1.72-1.46-5.13-1.75-6.59-0.03l-20.06,25.18C14.77,689.45,16.26,690.82,17.19,693.8z"/>
<path class="st41" d="M33.22,674.97l2.14,2.14c2.39,2.39,6.36,2.29,8.87-0.22L59,662.14c2.51-2.51,2.61-6.48,0.22-8.87l-2.14-2.14
	c-2.39-2.39-6.36-2.29-8.87,0.22L32.7,664.51C30.19,667.02,30.83,672.58,33.22,674.97z"/>
<path class="st1" d="M17.25,685.95l-3.59,4.22c-0.85,0.99-0.1,4.16,0.9,5.01l25.37,15.61c2.16,1.08,3.47,3.15,4.32,2.16l2.16-4.32
	c0.85-0.99-0.95-1.41-1.95-2.26l-21.71-19.68C21.75,685.83,18.1,684.96,17.25,685.95z"/>
<path class="st1" d="M47.32,707.4l5.56,1.5c1.72,0.72,2.33,1.84,1.64,3.49l-2.2,5.24c-0.38,0.91-1.45,1.32-2.4,0.92l-6.31-3.81
	c-0.95-0.4-1.53-2.88-0.45-3.96l1.08-2.16C44.93,706.98,45.6,706.68,47.32,707.4z"/>
<path class="st50" d="M334.64,663.56v7.45c0,0.84-0.69,1.52-1.54,1.52h-56.29c-0.85,0-1.54-0.68-1.54-1.52v-7.45
	c0-4.64,2.27-8.81,5.78-11.39v-48.81c0-10.43,8.59-18.88,19.18-18.88h9.64c10.59,0,19.18,8.45,19.18,18.88v48.96
	C332.45,654.91,334.64,659,334.64,663.56L334.64,663.56z"/>
<path class="st51" d="M324.04,615.07v7.76c0,10.38-8.55,18.79-19.09,18.79c-10.54,0-19.09-8.41-19.09-18.79v-7.76
	c0-7.55,6.22-13.66,13.88-13.66h10.41C317.82,601.4,324.04,607.52,324.04,615.07L324.04,615.07z"/>
<path class="st43" d="M329.05,603.35v49.01c-2.43-1.85-5.48-2.95-8.79-2.95c-4.41,0-7.99-3.51-7.99-7.85v-1.3l-0.03-0.07
	c6.92-2.82,11.79-9.53,11.79-17.37v-7.76c0-7.55-6.22-13.67-13.88-13.67h-10.41c-7.66,0-13.88,6.12-13.88,13.66v7.76
	c0,7.83,4.87,14.55,11.79,17.37l-0.03,0.07v1.3c0,4.34-3.58,7.85-7.99,7.85c-3.22,0-6.19,1.04-8.59,2.81v-48.86
	c0-10.43,8.59-18.88,19.18-18.88h9.64C320.46,584.47,329.05,592.92,329.05,603.35z"/>
<path class="st52" d="M334.64,663.56v7.45c-6.73,3.87,4.42,99.75,9.72,96.98h-79.89c5.88,0.08,18.26-96.05,10.8-96.98v-7.45
	c0-7.79,6.39-14.22,14.3-14.15c1.16,0.01,2.27-0.22,3.26-0.65v0c2.34,5.23,7.89,8.37,13.67,7.7c4.62-0.53,8.68-3.44,10.58-7.7v0
	c1,0.43,2.1,0.66,3.26,0.65C328.25,649.34,334.64,655.77,334.64,663.56z"/>
<path class="st50" d="M305.74,656.53c0.25-0.01,0.5-0.04,0.75-0.06C306.24,656.49,305.99,656.52,305.74,656.53z"/>
<path class="st53" d="M312.5,643.38c-4.75,1.96-9.97,2.11-15.09,0c0.26-1.07,0.22-1.76,0.22-3.12l0.03-0.07
	c4.64,1.9,9.94,1.9,14.59,0l0.03,0.07C312.28,641.62,312.24,642.31,312.5,643.38L312.5,643.38z"/>
<path class="st45" d="M317.09,585.85c2.35,0.94,1.57,4.38-0.96,4.31c-0.34-0.01,0.37-0.01-10.11-0.01
	c-9.74,0-18.98,7.22-19.18,19.49c0,0.26-0.05,0.51-0.14,0.75c-1.06,2.81-0.83,4.53-0.83,12.43c0,1.94,0.3,3.82,0.86,5.58
	c0.07,0.22,0.11,0.45,0.11,0.68v18.84c0,0.97-0.63,1.85-1.57,2.15c-1.53,0.48-2.95,1.21-4.22,2.14v-48.86
	c0-10.43,8.59-18.88,19.18-18.88h9.64C312.43,584.47,314.87,584.96,317.09,585.85z"/>
<path class="st54" d="M303.35,591.49v9.91h-3.08v-9.91c0-0.84,0.69-1.52,1.54-1.52C302.66,589.97,303.35,590.65,303.35,591.49z"/>
<path class="st50" d="M305.74,656.53c0.25-0.01,0.5-0.04,0.75-0.06C306.24,656.49,305.99,656.52,305.74,656.53z"/>
<g>
	<path class="st55" d="M306.5,656.46v16.07h-3.08v-16.07C304.42,656.58,305.45,656.58,306.5,656.46z"/>
</g>
<path class="st38" d="M312.68,630.44c-3.28,7.63-17.49,6.04-20.04,0.14"/>
<path class="st48" d="M293.53,613.96c-0.92,0-1.67,1.49-1.67,3.33s0.75,3.34,1.67,3.34c0.92,0,1.67-1.49,1.67-3.34
	S294.45,613.96,293.53,613.96z"/>
<path class="st48" d="M309.64,613.62c-0.92,0-1.67,1.49-1.67,3.33c0,1.84,0.75,3.34,1.67,3.34c0.92,0,1.67-1.49,1.67-3.34
	C311.31,615.11,310.56,613.62,309.64,613.62z"/>
<path class="st51" d="M254.54,700.97l-3.08-1.98c-1.73-1.44-1.97-4.01-0.53-5.74l19.63-24.48c1.44-1.73,5.03-2.38,6.76-0.94
	l3.1,2.57c1.73,1.44,2.62,4.75,1.18,6.48l-21.3,24.15C258.87,702.76,257.64,701.36,254.54,700.97z"/>
<path class="st52" d="M266.9,682.69l2.53,1.67c2.82,1.86,6.69,0.96,8.64-2.01l11.47-17.44c1.95-2.96,1.24-6.87-1.58-8.73l-2.53-1.67
	c-2.82-1.86-6.69-0.96-8.64,2.01l-12.53,16.03C262.32,675.52,264.08,680.83,266.9,682.69z"/>
<path class="st51" d="M260.15,701.58l3.03-3.92c0.82-1.01-0.46-4.52-1.69-5.52l-30.74-18.97c-2.58-1.34-4.34-3.7-5.16-2.69
	l-2.13,2.51c-0.82,1.01,1.55,3.63,2.78,4.63l27.16,23.12C254.63,701.75,259.32,702.59,260.15,701.58z"/>
<path class="st51" d="M351.21,710.23l3.33-0.96c1.95-0.86,2.73-3.32,1.75-5.5l-13.23-30.49c-0.98-2.17-4.23-3.97-6.17-3.1
	l-3.48,1.54c-1.95,0.86-3.5,3.85-2.52,6.02l14.87,30.69C346.74,710.6,348.2,709.61,351.21,710.23z"/>
<path class="st51" d="M348.41,703.77l5.59-0.84c1.32-0.2,3.75,2.6,4,4.13l0.92,35.33c-0.14,2.85,1.03,5.49-0.29,5.69l-4.94-0.65
	c-1.32,0.2-0.77-1.86-1.02-3.4l-6.42-34.33C346.01,708.17,347.1,703.97,348.41,703.77z"/>
<path class="st52" d="M342.82,685.19l2.44-1.8c2.72-2.01,3.21-5.95,1.1-8.81l-12.42-16.78c-2.11-2.85-6.02-3.54-8.74-1.53l-2.44,1.8
	c-2.72,2.01-3.21,5.95-1.1,8.81l10.73,17.28C334.5,687.02,340.1,687.2,342.82,685.19z"/>
<path class="st51" d="M221.63,674.69l-4.77-3.22c-1.39-1.24-1.61-2.5-0.42-3.83l3.77-4.25c0.65-0.73,1.8-0.78,2.57-0.09l4.74,5.64
	c0.77,0.68,0.52,3.22-0.85,3.89l-1.72,1.69C223.76,675.87,223.02,675.93,221.63,674.69z"/>
<line class="st56" x1="221.29" y1="665.44" x2="215.89" y2="660.04"/>
<path class="st51" d="M359.9,748.14l0.93,5.68c0.05,1.86-0.72,2.88-2.5,2.93l-5.68,0.17c-0.98,0.03-1.8-0.78-1.83-1.81l0.86-7.32
	c-0.03-1.03,1.99-2.58,3.42-2.05l2.41,0.09C359.29,745.79,359.84,746.28,359.9,748.14z"/>
</svg>
