<?xml version="1.0" encoding="utf-8"?>
<!-- Generator: Adobe Illustrator 24.2.3, SVG Export Plug-In . SVG Version: 6.00 Build 0)  -->
<svg version="1.1" id="Layer_1" xmlns="http://www.w3.org/2000/svg" xmlns:xlink="http://www.w3.org/1999/xlink" x="0px" y="0px"
	 viewBox="0 0 1366 768" style="enable-background:new 0 0 1366 768;" xml:space="preserve">
<style type="text/css">
	.st0{opacity:0.4;fill:#E3E7F2;enable-background:new    ;}
	.st1{fill:#FFEBD2;}
	.st2{fill:#F78E36;}
	.st3{fill:#F86F1B;}
	.st4{fill:#4380A0;}
	.st5{fill:#7BE492;}
	.st6{fill:#45D987;}
	.st7{fill:#43809F;}
	.st8{fill:#3A7190;}
	.st9{fill:#F3F3F3;}
	.st10{fill:#E4E4E4;}
	.st11{fill:#29CEF6;}
	.st12{fill:#22B5ED;}
	.st13{fill:#FFE9CC;}
	.st14{fill:#FFE2BD;}
	.st15{fill:#FFD733;}
	.st16{fill:#FFA993;}
	.st17{fill:#FF7956;}
	.st18{fill:#939598;}
	.st19{fill:#ACABB1;}
	.st20{fill:#C6C5CA;}
	.st21{fill:#F1F2F2;}
	.st22{fill-rule:evenodd;clip-rule:evenodd;fill:#ECF4FF;}
	.st23{fill-rule:evenodd;clip-rule:evenodd;fill:#FFE5A0;}
	.st24{fill-rule:evenodd;clip-rule:evenodd;fill:#477B9E;}
	.st25{fill-rule:evenodd;clip-rule:evenodd;fill:#DDEAFB;}
	.st26{fill-rule:evenodd;clip-rule:evenodd;fill:#F2CE7E;}
	.st27{fill:#C2C7D0;}
	.st28{fill:#ABB0B7;}
	.st29{fill:#FFC850;}
	.st30{fill:#FEA82F;}
	.st31{fill:#FF8031;}
	.st32{fill:#FF9052;}
	.st33{fill:none;}
	.st34{fill:none;stroke:#E3E7F2;stroke-width:3;stroke-miterlimit:10;}
	.st35{fill:none;stroke:#E3E7F2;stroke-width:3;stroke-miterlimit:10;stroke-dasharray:11.8905,11.8905;}
	.st36{fill:#A4C2F7;}
	.st37{fill:#E3E7F2;}
	.st38{fill:#FFFFFF;}
	.st39{fill:#428DFF;}
	.st40{fill:#FFDFBA;}
	.st41{fill:#D6F4FC;}
	.st42{fill:#E8F8FC;}
	.st43{fill:#42434D;}
	.st44{fill:#FFD6A6;}
	.st45{fill:#4D4E59;}
	.st46{fill:#BDEFFC;}
	.st47{fill:#F1FAFC;}
	.st48{fill:#4E4E4E;}
	.st49{fill:#007194;}
	.st50{fill:#C79A83;}
	.st51{fill:#E0B7A3;}
	.st52{fill:#BEFA91;}
	.st53{fill:#A07765;}
	.st54{fill:#2C2C33;}
	.st55{fill:#99D856;}
	.st56{fill:none;stroke:#E0B7A3;stroke-width:2;stroke-linecap:round;stroke-linejoin:round;stroke-miterlimit:10;}
</style>
<path class="st0" d="M0.37,768.89c-4.66-13.61-8.79-33.24,0-50c35.91-68.42,230.98,18.5,474.41,26
	c246.36,7.59,694.17-11.71,815.42-59c23.08-9,139.51-28,114.42,7c-13.23,18.45-32,59.3-34.18,76"/>
<path class="st1" d="M75.9,709.14l2.7,3.98c0.71,0.49,2.51-0.66,2.88-1.59l7.39-21.52c0.37-0.93,0.84-1.95,0.13-2.44l-3.44-2.42
	c-0.71-0.49-0.99-0.19-1.38,0.75l-8.89,20.64C74.92,707.48,75.19,708.65,75.9,709.14z"/>
<path class="st1" d="M80.1,713.25l-1.68,1.7c-1.11,1.08-2.68,0.77-3.5-0.71l-11.67-20.24c-0.82-1.47-0.67-4.42,0.44-5.5l1.99-1.93
	c1.11-1.08,3.22-1.13,4.04,0.34l11.23,21.48C81.76,709.87,80.79,710.89,80.1,713.25z"/>
<g>
	<path class="st2" d="M86.96,690.64l-4.19-4.47c-0.29-0.31-0.29-0.81,0-1.12l12.41-13.22c0.29-0.31,0.76-0.31,1.05,0l4.19,4.47
		c0.29,0.31,0.29,0.81,0,1.12l-12.41,13.22C87.72,690.95,87.25,690.95,86.96,690.64z"/>
	<path class="st3" d="M95.18,671.84l-12.41,13.22c-0.29,0.31-0.29,0.81,0,1.12l2.62,2.8c-0.29-0.31-0.29-0.81,0-1.12l12.41-13.22
		c0.29-0.31,0.76-0.31,1.05,0l-2.62-2.8C95.94,671.53,95.47,671.53,95.18,671.84z"/>
	<path class="st4" d="M99.64,675.47l-2.62-2.8l5.71-6.09l2.62,2.8L99.64,675.47z"/>
	<path class="st5" d="M95.49,682.68l-5.24-5.58l2.62-2.8l5.24,5.58L95.49,682.68z"/>
	<path class="st6" d="M92.87,679.89l-2.62-2.8l2.62-2.8l2.62,2.8L92.87,679.89z"/>
	<ellipse class="st7" cx="119.87" cy="651.11" rx="24.1" ry="25.68"/>
	<path class="st8" d="M119.87,625.43c-13.31,0-24.1,11.49-24.1,25.68s10.79,25.68,24.1,25.68c0.62,0,1.24-0.02,1.86-0.07
		c-12.45-1.01-22.24-12.09-22.24-25.6s9.81-24.59,22.24-25.6C121.12,625.45,120.5,625.43,119.87,625.43L119.87,625.43z"/>
	<ellipse class="st9" cx="119.87" cy="651.11" rx="20.4" ry="21.73"/>
	<path class="st10" d="M119.87,629.38c-11.24,0-20.4,9.75-20.4,21.73c0,11.98,9.15,21.73,20.4,21.73c0.62,0,1.24-0.03,1.86-0.09
		c-10.38-1.01-18.54-10.33-18.54-21.64s8.16-20.64,18.54-21.64C121.12,629.41,120.5,629.38,119.87,629.38L119.87,629.38z"/>
	<g>
		<path class="st11" d="M123.27,639.98c0-0.29,0.22-0.53,0.49-0.53h6.43c0.27,0,0.49,0.24,0.49,0.53v11.59h-7.42L123.27,639.98
			L123.27,639.98z"/>
		<path class="st12" d="M123.77,639.45c-0.27,0-0.49,0.24-0.49,0.53v11.59h3.7v-12.12H123.77z"/>
		<path class="st5" d="M108.45,644.99c0-0.29,0.22-0.53,0.49-0.53h6.43c0.27,0,0.49,0.24,0.49,0.53v6.58h-7.42L108.45,644.99
			L108.45,644.99z"/>
		<path class="st6" d="M108.94,644.46c-0.27,0-0.49,0.24-0.49,0.53v6.58h3.7v-7.11H108.94z"/>
		<path class="st2" d="M115.86,634.98c0-0.29,0.22-0.53,0.49-0.53h6.43c0.27,0,0.49,0.24,0.49,0.53v16.59h-7.42L115.86,634.98
			L115.86,634.98z"/>
		<path class="st3" d="M116.35,634.45c-0.27,0-0.49,0.24-0.49,0.53v16.59h3.7v-17.12H116.35z"/>
	</g>
	<path class="st7" d="M105.37,651.57c0,0.53,0.4,0.96,0.9,0.96h26.58c0.49,0,0.9-0.43,0.9-0.96c0-0.53-0.4-0.96-0.9-0.96h-26.58
		C105.78,650.61,105.37,651.04,105.37,651.57z"/>
	<path class="st11" d="M108.29,661.91c0,0.53,0.4,0.96,0.9,0.96h5c0.37,0,0.7-0.24,0.84-0.61l1.35-3.68l2.78,7.98
		c0.13,0.37,0.46,0.62,0.84,0.62H120c0.38,0,0.72-0.26,0.84-0.64l2.08-6.29l1.11,2.12c0.16,0.3,0.46,0.49,0.78,0.49h4.9
		c0.49,0,0.9-0.43,0.9-0.96s-0.4-0.96-0.9-0.96h-4.37l-1.83-3.49c-0.17-0.33-0.51-0.52-0.86-0.49c-0.35,0.03-0.65,0.28-0.78,0.64
		l-1.92,5.8l-2.74-7.86c-0.13-0.37-0.46-0.62-0.84-0.62c-0.37,0-0.71,0.24-0.84,0.61l-1.99,5.41h-4.38
		C108.69,660.95,108.29,661.38,108.29,661.91z"/>
</g>
<g id="surface1_2_">
	<path class="st13" d="M1283.77,586.25c-0.02,1.48,1.15,2.71,2.64,2.74l56.48,1.11c1.48,0.02,2.71-1.15,2.74-2.64l1.16-59.17
		L1332,528c-1.49-0.03-2.67-1.26-2.64-2.74l0.26-13.45l-41.69-0.82c-1.48-0.02-2.71,1.15-2.74,2.64L1283.77,586.25z"/>
	<path class="st14" d="M1284.53,547.38l-0.77,38.88c-0.03,1.49,1.15,2.71,2.64,2.74l41.69,0.82
		C1307.65,583.4,1291.48,567.64,1284.53,547.38z"/>
	<path class="st15" d="M1293.29,549.5l1.87,1.94L1293.29,549.5z"/>
	<path class="st16" d="M1332,528.01l14.79,0.29l-17.16-16.48l-0.26,13.45C1329.33,526.75,1330.51,527.98,1332,528.01z"/>
	<path class="st17" d="M1307.42,546.36c0.01-0.74,0.63-1.33,1.37-1.32l28.24,0.56c0.74,0.01,1.33,0.63,1.32,1.37
		s-0.63,1.33-1.37,1.32l-28.24-0.56C1308,547.72,1307.41,547.1,1307.42,546.36z"/>
	<path class="st17" d="M1315.33,554.59c0.01-0.74,0.63-1.33,1.37-1.32l20.17,0.4c0.74,0.01,1.33,0.63,1.32,1.37
		s-0.63,1.33-1.37,1.32l-20.17-0.4C1315.91,555.94,1315.32,555.33,1315.33,554.59z"/>
	<path class="st17" d="M1323.24,562.81c0.01-0.74,0.63-1.33,1.37-1.32l12.1,0.24c0.74,0.01,1.33,0.63,1.32,1.37
		s-0.63,1.33-1.37,1.32l-12.1-0.24C1323.82,564.17,1323.23,563.56,1323.24,562.81z"/>
	<path class="st17" d="M1299.51,538.13c0.01-0.74,0.63-1.33,1.37-1.32l25.55,0.5c0.74,0.01,1.33,0.63,1.32,1.37
		s-0.63,1.33-1.37,1.32l-25.55-0.5C1300.09,539.49,1299.5,538.88,1299.51,538.13z"/>
	<path class="st17" d="M1330.44,538.74c0.01-0.74,0.63-1.33,1.37-1.32l5.38,0.11c0.74,0.01,1.33,0.63,1.32,1.37
		s-0.63,1.33-1.37,1.32l-5.38-0.11C1331.02,540.1,1330.43,539.48,1330.44,538.74z"/>
</g>
<g id="surface1_1_">
	<g>
		<g>
			<path class="st18" d="M1314.3,574.49l-5.97-3.49l-0.79-6.87l10.28,0.67L1314.3,574.49z"/>
			<path class="st19" d="M1288.42,591.41l-3.45,2.26l-6.77-10.35l3.45-2.26L1288.42,591.41z"/>
			<path class="st20" d="M1276.11,594.52c2.08,1.59,4.94,1.7,7.14,0.26l1.72-1.12l-6.76-10.35l-1.73,1.12
				c-0.88,0.58-1.6,1.37-2.09,2.3c-0.16,0.31-0.3,0.63-0.4,0.97C1273.17,590.2,1274.02,592.93,1276.11,594.52z"/>
			<path class="st15" d="M1287.11,589.41l1.31,2l0.78-0.51l25.09-16.4l-2.8-2.22l-2.31-1.83l-15.53,10.14l15.53-10.14l-1.65-6.31
				l-25.89,16.92L1287.11,589.41z M1288.37,584.05l1.73-1.13L1288.37,584.05z"/>
		</g>
		<path class="st21" d="M1306.48,573.44l-13.09,8.55c-0.31,0.23-0.72,0.27-1.06,0.11c-0.35-0.17-0.57-0.51-0.58-0.9
			c-0.01-0.38,0.19-0.74,0.53-0.93l13.09-8.56c0.35-0.23,0.8-0.22,1.15,0.01c0.34,0.24,0.51,0.66,0.43,1.06
			C1306.87,573.06,1306.71,573.29,1306.48,573.44z"/>
		<path class="st21" d="M1289.94,584.25l-1.73,1.13c-0.48,0.3-1.1,0.16-1.41-0.31s-0.18-1.1,0.28-1.42l1.73-1.13
			c0.35-0.23,0.8-0.22,1.14,0.01c0.34,0.24,0.51,0.65,0.43,1.06C1290.33,583.87,1290.17,584.1,1289.94,584.25z"/>
	</g>
</g>
<g>
	<g>
		<path class="st22" d="M138.81,583.5l-0.4-0.17h31.98l14.39,13.85c1.58,1.53,3.26,0.56,3.47-1.24l1.65-14.17
			c14.63-4.49,25.33-18.16,25.33-34.2c0-19.66-16.09-35.76-35.76-35.76H78.03c-19.66,0-35.76,16.1-35.76,35.76
			c0,16.05,10.71,29.71,25.33,34.2l1.66,14.17c0.23,2.01,2.09,2.57,3.47,1.24l14.39-13.85h31.98"/>
		<path class="st23" d="M128.75,561.38h-7.77c0.01-8.32-8.13-11.59-8.13-21.54c0-8.78,7.12-15.89,15.89-15.89
			c8.78,0,15.89,7.12,15.89,15.89c0,9.94-8.14,13.22-8.13,21.54H128.75z"/>
		<path class="st24" d="M136.52,561.38v5.61c0,2.6-2.12,4.72-4.72,4.72h-6.08c-2.6,0-4.73-2.12-4.73-4.72v-5.61H136.52z"/>
		<path class="st25" d="M138.81,583.5l-0.4-0.17h31.98l14.39,13.85c1.58,1.53,3.26,0.56,3.47-1.24l1.65-14.17
			c14.63-4.49,25.33-18.16,25.33-34.2c0-12.06-6.04-22.77-15.25-29.25c4.09,5.83,6.51,12.89,6.51,20.51
			c0,19.66-16.09,35.76-35.76,35.76l0,0H69.28c-7.61,0-14.68-2.41-20.51-6.51c4.54,6.45,11.15,11.33,18.83,13.69l1.66,14.17
			c0.23,2.01,2.09,2.57,3.47,1.24l14.39-13.85L138.81,583.5"/>
		<path class="st26" d="M135.91,539.84c0,9.94-8.14,13.22-8.13,21.54h8.75c-0.01-8.32,8.13-11.59,8.13-21.54
			c0-8.78-7.11-15.89-15.89-15.89c-1.51,0-2.98,0.22-4.37,0.61C131.04,526.45,135.91,532.58,135.91,539.84L135.91,539.84z"/>
	</g>
</g>
<path class="st27" d="M1141.09,751.95v-5.67h-16.75v5.64c0,0.62,0.5,1.12,1.12,1.12h14.5
	C1140.61,753.07,1141.09,752.57,1141.09,751.95z"/>
<path class="st28" d="M1129.12,751.92v-5.64h-4.78v5.64c0,0.62,0.5,1.12,1.12,1.12h4.78
	C1129.65,753.07,1129.12,752.54,1129.12,751.92z"/>
<path class="st28" d="M1125.66,743.21v-3.02h-4.97v3.02c0,1.95,1.58,3.52,3.54,3.52h4.97
	C1127.24,746.76,1125.66,745.16,1125.66,743.21z"/>
<path class="st27" d="M1140.71,740.21h-20.02v3.02c0,1.95,1.58,3.52,3.54,3.52h16.96c1.96,0,3.54-1.57,3.54-3.52v-3.02H1140.71z"/>
<path class="st29" d="M1154.88,717.21c0-12.1-9.75-21.91-21.84-22.07c-12.23-0.17-22.22,9.45-22.46,21.64
	c-0.12,6.52,2.58,12.41,7,16.52c1.98,1.86,3.13,4.43,3.13,7.14h24.06c0-2.71,1.15-5.29,3.13-7.14
	C1152.18,729.28,1154.88,723.54,1154.88,717.21z"/>
<path class="st30" d="M1122.55,733.3c-4.4-4.12-7.12-10-7-16.52c0.21-11.24,8.72-20.31,19.64-21.5c-0.72-0.07-1.43-0.12-2.17-0.14
	c-12.23-0.17-22.22,9.45-22.46,21.64c-0.12,6.52,2.58,12.41,7,16.52c1.98,1.86,3.13,4.43,3.13,7.14h4.99
	C1125.68,737.73,1124.54,735.16,1122.55,733.3z"/>
<g>
	<path class="st31" d="M1104.99,718.68H1102c-0.98,0-1.79-0.81-1.79-1.79s0.81-1.79,1.79-1.79h2.99c0.98,0,1.79,0.81,1.79,1.79
		C1106.78,717.88,1106,718.68,1104.99,718.68z"/>
	<path class="st31" d="M1163.55,718.68h-2.99c-0.98,0-1.79-0.81-1.79-1.79s0.81-1.79,1.79-1.79h2.99c0.98,0,1.79,0.81,1.79,1.79
		C1165.34,717.88,1164.53,718.68,1163.55,718.68z"/>
	<path class="st31" d="M1106.14,734.02c-0.62,0-1.22-0.31-1.55-0.9c-0.5-0.86-0.19-1.95,0.64-2.43l2.58-1.48
		c0.86-0.5,1.96-0.19,2.44,0.64c0.5,0.86,0.19,1.95-0.64,2.43l-2.58,1.48C1106.76,733.92,1106.45,734.02,1106.14,734.02z"/>
	<path class="st31" d="M1156.86,704.83c-0.62,0-1.22-0.31-1.55-0.9c-0.5-0.86-0.19-1.95,0.64-2.43l2.58-1.48
		c0.86-0.5,1.96-0.19,2.44,0.64c0.5,0.86,0.19,1.95-0.64,2.43l-2.58,1.48C1157.46,704.76,1157.15,704.83,1156.86,704.83z"/>
	<path class="st31" d="M1146.68,694.68c-0.31,0-0.62-0.07-0.88-0.24c-0.86-0.5-1.15-1.6-0.64-2.43l1.48-2.57
		c0.5-0.86,1.6-1.14,2.44-0.64c0.86,0.5,1.15,1.6,0.65,2.43l-1.48,2.57C1147.9,694.37,1147.3,694.68,1146.68,694.68z"/>
	<path class="st31" d="M1132.78,690.99c-0.98,0-1.79-0.81-1.79-1.79v-2.98c0-0.98,0.81-1.79,1.79-1.79s1.79,0.81,1.79,1.79v2.98
		C1134.57,690.18,1133.78,690.99,1132.78,690.99z"/>
	<path class="st31" d="M1118.9,694.68c-0.62,0-1.22-0.31-1.55-0.9l-1.51-2.55c-0.5-0.86-0.19-1.95,0.64-2.43
		c0.86-0.5,1.96-0.19,2.44,0.64l1.48,2.57c0.5,0.86,0.19,1.95-0.64,2.43C1119.49,694.61,1119.18,694.68,1118.9,694.68z"/>
	<path class="st31" d="M1159.42,734.02c-0.31,0-0.62-0.07-0.88-0.24l-2.58-1.48c-0.86-0.5-1.15-1.6-0.64-2.43
		c0.5-0.86,1.6-1.14,2.44-0.64l2.58,1.48c0.86,0.5,1.15,1.6,0.64,2.43C1160.66,733.69,1160.04,734.02,1159.42,734.02z"/>
	<path class="st31" d="M1108.72,704.83c-0.31,0-0.62-0.07-0.88-0.24l-2.58-1.48c-0.86-0.5-1.15-1.6-0.64-2.43
		c0.5-0.86,1.6-1.14,2.44-0.64l2.58,1.48c0.86,0.5,1.15,1.6,0.64,2.43C1109.94,704.52,1109.34,704.83,1108.72,704.83z"/>
</g>
<path class="st32" d="M1129.05,742.23c-0.98,0-1.79-0.81-1.79-1.79v-19.43c0-0.98,0.81-1.79,1.79-1.79s1.79,0.81,1.79,1.79v19.43
	C1130.84,741.42,1130.05,742.23,1129.05,742.23z"/>
<path class="st32" d="M1138.85,722.8h-12.23c-0.98,0-1.79-0.81-1.79-1.79s0.81-1.79,1.79-1.79h12.23c0.98,0,1.79,0.81,1.79,1.79
	S1139.83,722.8,1138.85,722.8z"/>
<line class="st33" x1="1149.55" y1="740.03" x2="1150.19" y2="740.03"/>
<path class="st32" d="M1136.51,742.23c-0.98,0-1.79-0.81-1.79-1.79v-19.43c0-0.98,0.81-1.79,1.79-1.79s1.79,0.81,1.79,1.79v19.43
	C1138.3,741.42,1137.48,742.23,1136.51,742.23z"/>
<path class="st34" d="M1129.45,687.73"/>
<path class="st29" d="M499,337"/>
<path class="st6" d="M1164.21,667.23"/>
<g>
	<g>
		<path class="st34" d="M1149.54,671.74c0.45-1.76,0.98-3.7,1.6-5.78"/>
		<path class="st35" d="M1155.02,654.73c2.5-6.39,5.8-13.53,10.2-21.08c8.42-14.46,21.9-36.91,51.29-53.57
			c7.33-4.15,19.09-9.9,35.34-14.1"/>
		<path class="st34" d="M1257.64,564.6c1.91-0.42,3.87-0.81,5.88-1.18"/>
	</g>
</g>
<g>
	<g transform="translate(1)">
		<path class="st36" d="M1199.54,590.19c-0.18-0.15-0.43-0.2-0.65-0.13l-1.28,0.4l-37.19,11.47l-4.56,1.46l12.86,6.52h0.01v0.01
			l2.4,12.19l0.11,0.54c0.05,0.26,0.23,0.47,0.48,0.55c0.25,0.09,0.52,0.04,0.72-0.13l7.4-6.39l0.66-0.57l9.01,4.45l0.67,0.33
			c0.4,0.2,0.87,0.21,1.27,0.02c0.41-0.19,0.7-0.55,0.8-0.99l7.53-28.94C1199.88,590.69,1199.78,590.38,1199.54,590.19z
			 M1175.85,613.68l0.02,0.01l-0.04,0.04L1175.85,613.68z"/>
		<path class="st37" d="M1197.61,590.46l-37.19,11.47l-4.56,1.46l12.86,6.52h0.01v0.01l2.4,12.19l7.17-6.18l1.54,0.76l0.66-0.57
			l9.01,4.45c0.27-0.2,0.46-0.49,0.54-0.82l7.53-28.94C1197.62,590.69,1197.63,590.57,1197.61,590.46z M1173.63,613.54l0.02-0.05
			l0.02,0.01L1173.63,613.54z"/>
		<path class="st36" d="M1180.5,616.11l-8.06,6.96c0.09-0.09,0.17-0.19,0.21-0.32l3.17-9.02l0.04-0.04l3.07,1.61l1.37,0.72
			L1180.5,616.11z"/>
		<path class="st37" d="M1199.59,590.24l-23.72,23.45l-0.02-0.01l-0.02,0.05l-3.17,9.02c-0.04,0.12-0.12,0.23-0.21,0.31
			c-0.2,0.17-0.47,0.22-0.72,0.13c-0.25-0.09-0.43-0.3-0.48-0.55l-2.51-12.74v-0.01h-0.01v-0.01L1199.59,590.24z"/>
		<g>
			<path class="st38" d="M1191.72,620.75L1191.72,620.75l-9.02-4.46l-0.66,0.57l7.47,3.69l0.67,0.33
				C1190.68,621.15,1191.28,621.09,1191.72,620.75z"/>
			<path class="st38" d="M1168.73,609.9L1168.73,609.9L1168.73,609.9l2.41,12.2l0.11,0.54c0.05,0.26,0.23,0.47,0.48,0.55
				c0.25,0.09,0.52,0.04,0.72-0.13l0.89-0.77l-2.4-12.2v-0.01h-0.01l-12.86-6.52l4.56-1.46l37.18-11.47
				c-0.03-0.16-0.1-0.3-0.22-0.41l0,0h-0.01c-0.02-0.01-0.03-0.03-0.05-0.05c-0.18-0.15-0.43-0.2-0.65-0.13l-1.28,0.4l-37.19,11.47
				l-4.56,1.46L1168.73,609.9L1168.73,609.9z"/>
		</g>
	</g>
	<g>
		<polygon class="st38" points="1158.65,603.15 1167.13,607.61 1170,609.12 1169.31,610.43 1166.44,608.92 1157.96,604.45 		"/>
		<g>
			<path class="st39" d="M1158.65,603.15l-1.41-0.74c-0.36-0.19-0.8-0.05-0.99,0.31s-0.05,0.8,0.3,0.99l1.41,0.74l2.61,1.37
				c0.36,0.19,0.8,0.05,0.99-0.31s0.05-0.8-0.3-0.99L1158.65,603.15L1158.65,603.15z"/>
			<path class="st39" d="M1163.87,605.9c-0.17-0.09-0.37-0.11-0.56-0.06l-0.13,0.06c-0.04,0.02-0.08,0.05-0.12,0.09
				c-0.04,0.03-0.07,0.06-0.1,0.1s-0.06,0.08-0.08,0.12c-0.09,0.17-0.11,0.37-0.06,0.56c0.13,0.38,0.54,0.6,0.93,0.49
				c0.09-0.03,0.18-0.08,0.25-0.14s0.14-0.14,0.18-0.22c0.09-0.17,0.11-0.37,0.05-0.56C1164.17,606.14,1164.04,605.98,1163.87,605.9
				L1163.87,605.9z"/>
			<path class="st39" d="M1170.49,610.14l19.15-11.49c0.24-0.13,0.4-0.38,0.4-0.65s-0.15-0.53-0.39-0.65
				c-0.24-0.13-0.54-0.11-0.76,0.04l-19.25,11.55l-3.15-1.66c-0.36-0.19-0.81-0.05-1,0.31s-0.05,0.81,0.31,1l3.22,1.69l2.25,12.43
				c0.12,0.64,0.65,1.13,1.3,1.19h0.02c0.35,0.03,0.71-0.07,0.99-0.29c0.03-0.01,0.05-0.03,0.08-0.04l7.81-6.54l9.13,4.72
				c0.58,0.32,1.29,0.35,1.9,0.08c0.63-0.27,1.1-0.82,1.26-1.48l4-15.8l3.96-12.98c0.16-0.52,0.03-1.09-0.35-1.48
				c-0.38-0.38-0.93-0.53-1.45-0.38l-38.64,11.28c-0.39,0.11-0.62,0.52-0.5,0.91c0.11,0.39,0.52,0.62,0.91,0.5l36.92-10.77
				l-19.68,19c-0.29,0.28-0.3,0.75-0.02,1.04s0.75,0.3,1.04,0.02l19.98-19.29l-3.59,11.75l-4.01,15.83
				c-0.06,0.22-0.21,0.41-0.42,0.5c-0.2,0.09-0.43,0.07-0.62-0.03l-9.61-4.93l-4.6-2.49c-0.36-0.19-0.81-0.06-1,0.3
				c-0.02,0.05-0.04,0.1-0.05,0.15h-0.02l-3.3,8.96L1170.49,610.14z M1177.12,614.71l2.32,1.26l0.6,0.31l-5.07,4.24L1177.12,614.71z
				"/>
		</g>
	</g>
</g>
<path class="st40" d="M64.65,684.04v7.34c0,0.82-0.5,1.48-1.12,1.48h-41.1c-0.62,0-1.12-0.66-1.12-1.48v-7.34
	c0-7.66,4.75-13.74,10.55-13.81c1.93-0.02,3.67-1.29,4.72-3.28l-0.01-0.01c1.17-2.19,1.05-4.17,1.05-5.67l0.02-0.06
	c-5.05-2.76-8.6-9.33-8.6-16.98v-0.61c-2.02,0-3.52-2.12-3.52-4.56c0-1.73,0.01-16.05,0.01-18.11c0-2.77,1.7-5.02,3.8-5.02
	c1.71-5.62,5.83-9.28,10.4-9.28l15.14,0.02c0.79,0,1.33,1.05,1.05,2.01l-0.96,3.36c-0.23,0.81,0.11,1.71,0.74,1.95l0.78,0.3
	c2.34,0.9,4.1,3.7,4.1,7.16c0,1.39-0.01,11.2-0.01,17.34c0,2.67-1.64,4.83-3.67,4.83v0.61c-0.01,7.68-3.57,14.25-8.63,17l0,0
	l0.02,0.05c0,1.43-0.13,3.45,1.05,5.67c1.03,1.94,2.77,3.26,4.75,3.29C59.9,670.3,64.65,676.38,64.65,684.04L64.65,684.04z"/>
<path class="st41" d="M64.65,684.44v7.9c0,0.88,0.62,50.57,0,50.57h-41.2c-0.62,0-2.16-49.69-2.16-50.57v-7.9
	c0-8.26,4.75-14.81,10.55-14.88c1.92-0.03,3.66-1.37,4.73-3.53c3.81,6.01,4.52,7.14,5.56,8.79c0.45,0.71,1.23,0.71,1.68,0
	c1.07-1.69,1.8-2.84,5.55-8.78c1.02,2.07,2.76,3.49,4.73,3.53C59.9,669.64,64.65,676.19,64.65,684.44L64.65,684.44z"/>
<path class="st42" d="M51.85,669.6c-0.02,0.05-1.41,8.39-1.4,8.34c-0.18,1.09-1.23,1.45-1.79,0.6c-3.7-5.62-3.19-4.89-3.57-5.33
	l4.27-6.26C49.98,668.13,50.85,669.03,51.85,669.6L51.85,669.6z"/>
<path class="st42" d="M36.58,666.94l4.18,6.13l-3.46,5.41c-0.55,0.87-1.62,0.52-1.81-0.59c-0.01-0.06-1.38-8.24-1.39-8.29
	C35.1,669.03,35.96,668.11,36.58,666.94L36.58,666.94z"/>
<path class="st43" d="M60.58,621.45c0,1.39-0.01,11.2-0.01,17.34c0,2.67-1.64,4.83-3.67,4.83c0-2.02,0.01-6.93,0.01-11.45
	c0-4.93-3.02-8.92-6.75-8.92l-14.35-0.02c-3.73,0-6.76,3.99-6.76,8.92l-0.01,11.48c-2.02,0-3.52-2.12-3.52-4.56
	c0-1.73,0.01-16.05,0.01-18.11c0-2.77,1.7-5.02,3.8-5.02c1.71-5.62,5.83-9.28,10.4-9.28l15.14,0.02c0.79,0,1.33,1.04,1.05,2.01
	l-0.96,3.36c-0.23,0.81,0.1,1.71,0.74,1.95l0.78,0.3C58.82,615.18,60.58,618,60.58,621.45z"/>
<path class="st1" d="M50.16,623.24c3.73,0,6.75,4,6.75,8.92c0,4.21-0.01,12.06-0.01,12.06c-0.01,7.68-3.57,14.25-8.63,17l0,0
	c-9.16,4.98-19.24-3.93-19.24-17.01c0-0.97,0.01-10.84,0.01-12.08c0-4.93,3.03-8.92,6.76-8.92L50.16,623.24z"/>
<path class="st44" d="M48.48,664.33c-3.47,1.91-7.28,2.07-11.01,0c0.19-1.05,0.16-1.72,0.16-3.05l0.02-0.06
	c3.39,1.86,7.26,1.86,10.65,0l0.02,0.06C48.32,662.61,48.29,663.28,48.48,664.33L48.48,664.33z"/>
<path class="st45" d="M55.93,608.67c-1,3.48-0.98,3.4-1.01,3.56l-10.96-0.01c-4.25,0-8.12,3.18-10.01,8.15
	c-0.24,0.62-0.66,1.09-1.18,1.24c-1.71,0.49-3,2.5-3,4.9v1.65c-0.45,1.2-0.71,2.55-0.71,3.98l-0.01,6.97c0,3.01-3.52,3.21-3.52-0.06
	c0-1.73,0.01-16.05,0.01-18.11c0-2.77,1.7-5.02,3.8-5.02c1.71-5.62,5.83-9.28,10.4-9.28l15.14,0.02
	C55.67,606.66,56.21,607.7,55.93,608.67L55.93,608.67z"/>
<path class="st46" d="M44.1,674.68v10.76c0,0.82-0.5,1.48-1.12,1.48s-1.12-0.66-1.12-1.48v-10.76l0.29,0.42
	c0.45,0.66,1.23,0.66,1.68,0L44.1,674.68z"/>
<path class="st47" d="M36.66,674.75c0.21,1.26,0.44,2.59,0.63,3.74c-0.55,0.87-1.62,0.52-1.81-0.58c-0.54-3.24-1.38-8.26-1.39-8.29
	c1-0.57,1.86-1.5,2.48-2.66l1.2,1.77C36.74,670.4,36.31,672.61,36.66,674.75L36.66,674.75z"/>
<path class="st41" d="M70.57,696.46l-1.39,1.51c-1.55,1.68-3.84,1.38-5.12-0.67l-7.49-12.07c-1.27-2.05-1.04-5.07,0.51-6.76
	l1.39-1.51c1.55-1.68,3.84-1.38,5.12,0.67l8.04,10.9C72.91,690.59,72.13,694.78,70.57,696.46z"/>
<path class="st38" d="M52.4,650.88c-2.43,7.47-12.96,5.91-14.85,0.14"/>
<line class="st33" x1="216.6" y1="456" x2="215.45" y2="456"/>
<path class="st48" d="M38.86,634.75c-0.68,0-1.23,1.46-1.23,3.26c0,1.8,0.56,3.27,1.23,3.27c0.68,0,1.24-1.46,1.24-3.27
	C40.1,636.21,39.55,634.75,38.86,634.75z"/>
<path class="st48" d="M50.81,634.41c-0.68,0-1.23,1.46-1.23,3.26c0,1.8,0.56,3.27,1.23,3.27c0.68,0,1.24-1.46,1.24-3.27
	C52.05,635.86,51.49,634.41,50.81,634.41z"/>
<polygon class="st49" points="23.69,742.92 23.69,767.7 38.89,767.7 40.33,767.43 44.52,756.61 48.71,767.43 50.15,767.7 
	64.65,767.7 64.65,742.92 "/>
<path class="st1" d="M89.17,685.28l-2.6-3.61c-0.7-1.28-0.59-2.31,0.49-3.07l3.43-2.42c0.59-0.42,1.38-0.19,1.77,0.52l2.08,5.48
	c0.38,0.71,0.92,1.26,0.32,1.68l-3.17,2.48C90.41,687.09,89.86,686.56,89.17,685.28z"/>
<path class="st1" d="M3.76,709.51l1.58,1.85c1.06,1.18,2.63,1.01,3.53-0.39l12.7-19.13c0.9-1.39,0.9-4.34-0.15-5.53l-1.88-2.11
	c-1.06-1.18-3.15-1.42-4.05-0.02L3.17,704.59C2.27,705.99,3.19,707.1,3.76,709.51z"/>
<path class="st41" d="M13.6,694.25l1.31,1.73c1.47,1.94,3.9,1.86,5.45-0.18l9.07-11.96c1.54-2.03,1.6-5.25,0.14-7.19l-1.31-1.73
	c-1.47-1.94-3.9-1.86-5.45,0.18l-9.52,10.67C11.74,687.81,12.13,692.31,13.6,694.25z"/>
<path class="st1" d="M3.8,703.15l-2.2,3.42c-0.52,0.8-0.06,3.37,0.55,4.06l15.58,12.65c1.33,0.88,2.13,2.55,2.65,1.75l1.33-3.5
	c0.52-0.8-0.58-1.14-1.2-1.83L7.17,703.75C6.56,703.05,4.32,702.35,3.8,703.15z"/>
<path class="st1" d="M22.26,720.54l3.41,1.22c1.06,0.58,1.43,1.49,1.01,2.83l-1.35,4.25c-0.23,0.74-0.89,1.07-1.47,0.75l-3.87-3.09
	c-0.58-0.32-0.94-2.33-0.28-3.21l0.66-1.75C20.79,720.2,21.2,719.95,22.26,720.54z"/>
<path class="st50" d="M219.45,685v6.04c0,0.68-0.51,1.23-1.14,1.23h-41.83c-0.63,0-1.14-0.55-1.14-1.23V685
	c0-3.76,1.69-7.14,4.29-9.23v-39.56c0-8.45,6.38-15.3,14.25-15.3h7.16c7.87,0,14.25,6.85,14.25,15.3v39.68
	C217.82,677.99,219.45,681.31,219.45,685L219.45,685z"/>
<path class="st51" d="M211.57,645.7v6.29c0,8.41-6.35,15.23-14.18,15.23s-14.18-6.82-14.18-15.23v-6.29
	c0-6.12,4.62-11.07,10.31-11.07h7.74C206.95,634.62,211.57,639.58,211.57,645.7L211.57,645.7z"/>
<path class="st43" d="M215.3,636.2v39.72c-1.81-1.5-4.07-2.39-6.53-2.39c-3.28,0-5.94-2.84-5.94-6.36v-1.05l-0.02-0.06
	c5.14-2.29,8.76-7.72,8.76-14.08v-6.29c0-6.12-4.62-11.08-10.31-11.08h-7.74c-5.69,0-10.31,4.96-10.31,11.07v6.29
	c0,6.35,3.62,11.79,8.76,14.08l-0.02,0.06v1.05c0,3.52-2.66,6.36-5.94,6.36c-2.39,0-4.6,0.84-6.38,2.28v-39.6
	c0-8.45,6.38-15.3,14.25-15.3h7.16C208.91,620.9,215.3,627.75,215.3,636.2z"/>
<path class="st52" d="M219.45,685v6.04c-5,3.14,3.28,80.85,7.22,78.61h-59.36c4.37,0.06,13.57-77.85,8.02-78.61V685
	c0-6.31,4.75-11.53,10.63-11.47c0.86,0.01,1.69-0.18,2.42-0.53l0,0c1.74,4.24,5.86,6.78,10.16,6.24c3.43-0.43,6.45-2.79,7.86-6.24
	l0,0c0.74,0.35,1.56,0.53,2.42,0.53C214.7,673.48,219.45,678.69,219.45,685z"/>
<path class="st50" d="M197.98,679.3c0.19-0.01,0.37-0.03,0.56-0.05C198.35,679.27,198.16,679.3,197.98,679.3z"/>
<path class="st53" d="M203,668.65c-3.53,1.59-7.41,1.71-11.21,0c0.19-0.87,0.16-1.43,0.16-2.53l0.02-0.06
	c3.45,1.54,7.39,1.54,10.84,0l0.02,0.06C202.84,667.22,202.81,667.78,203,668.65L203,668.65z"/>
<path class="st45" d="M206.41,622.02c1.75,0.76,1.17,3.55-0.71,3.49c-0.25-0.01,0.27-0.01-7.51-0.01c-7.24,0-14.1,5.85-14.25,15.8
	c0,0.21-0.04,0.41-0.1,0.61c-0.79,2.28-0.62,3.67-0.62,10.07c0,1.57,0.22,3.1,0.64,4.52c0.05,0.18,0.08,0.36,0.08,0.55v15.27
	c0,0.79-0.47,1.5-1.17,1.74c-1.14,0.39-2.19,0.98-3.14,1.73v-39.6c0-8.45,6.38-15.3,14.25-15.3h7.16
	C202.95,620.9,204.76,621.29,206.41,622.02z"/>
<path class="st54" d="M196.2,626.59v8.03h-2.29v-8.03c0-0.68,0.51-1.23,1.14-1.23C195.69,625.36,196.2,625.91,196.2,626.59z"/>
<path class="st50" d="M197.98,679.3c0.19-0.01,0.37-0.03,0.56-0.05C198.35,679.27,198.16,679.3,197.98,679.3z"/>
<g>
	<path class="st55" d="M198.54,679.25v13.03h-2.29v-13.03C197,679.35,197.76,679.35,198.54,679.25z"/>
</g>
<path class="st38" d="M203.13,658.16c-2.44,6.18-13,4.9-14.89,0.11"/>
<path class="st48" d="M188.9,644.8c-0.68,0-1.24,1.21-1.24,2.7c0,1.49,0.56,2.71,1.24,2.71c0.68,0,1.24-1.21,1.24-2.71
	C190.15,646,189.59,644.8,188.9,644.8z"/>
<path class="st48" d="M200.87,644.52c-0.68,0-1.24,1.21-1.24,2.7s0.56,2.71,1.24,2.71s1.24-1.21,1.24-2.71
	C202.12,645.73,201.56,644.52,200.87,644.52z"/>
<path class="st51" d="M159.93,715.32l-2.29-1.6c-1.29-1.17-1.46-3.25-0.39-4.65l14.59-19.84c1.07-1.4,3.74-1.93,5.02-0.76l2.3,2.08
	c1.29,1.17,1.95,3.85,0.88,5.25l-15.83,19.57C163.15,716.78,162.24,715.64,159.93,715.32z"/>
<path class="st52" d="M169.12,700.51l1.88,1.35c2.1,1.51,4.97,0.78,6.42-1.63l8.52-14.14c1.45-2.4,0.92-5.57-1.17-7.08l-1.88-1.35
	c-2.1-1.51-4.97-0.78-6.42,1.63l-9.31,12.99C165.71,694.7,167.02,699,169.12,700.51z"/>
<path class="st51" d="M164.1,715.82l2.25-3.18c0.61-0.82-0.34-3.66-1.26-4.47l-22.84-15.38c-1.92-1.09-3.22-3-3.83-2.18l-1.58,2.03
	c-0.61,0.82,1.15,2.94,2.07,3.75l20.18,18.74C160,715.96,163.48,716.64,164.1,715.82z"/>
<path class="st51" d="M231.76,722.83l2.47-0.78c1.45-0.7,2.03-2.69,1.3-4.46l-9.83-24.71c-0.73-1.76-3.14-3.22-4.58-2.51l-2.59,1.25
	c-1.45,0.7-2.6,3.12-1.87,4.88l11.05,24.88C228.44,723.13,229.53,722.33,231.76,722.83z"/>
<path class="st51" d="M229.02,714.3l4.15-0.68c0.98-0.16,2.79,2.11,2.97,3.35l0.68,28.64c-0.1,2.31,0.77,4.45-0.22,4.61l-3.67-0.53
	c-0.98,0.16-0.57-1.51-0.76-2.76l-4.77-27.83C227.24,717.87,228.05,714.46,229.02,714.3z"/>
<path class="st52" d="M225.53,702.53l1.81-1.46c2.02-1.63,2.39-4.82,0.82-7.14l-9.23-13.6c-1.57-2.31-4.47-2.87-6.49-1.24
	l-1.81,1.46c-2.02,1.63-2.39,4.82-0.82,7.14l7.97,14.01C219.35,704.02,223.51,704.16,225.53,702.53z"/>
<path class="st51" d="M135.53,694.02l-3.39-2.61c-0.99-1.01-1.14-2.03-0.3-3.1l2.68-3.44c0.46-0.59,1.28-0.63,1.83-0.07l3.37,4.57
	c0.55,0.55,0.37,2.61-0.6,3.15l-1.22,1.37C137.05,694.98,136.52,695.03,135.53,694.02z"/>
<line class="st56" x1="135.29" y1="686.53" x2="131.46" y2="682.15"/>
<path class="st51" d="M237.29,749.77l0.58,4.1c0.03,1.34-0.45,2.08-1.57,2.12l-3.57,0.12c-0.62,0.02-1.13-0.56-1.15-1.31l0.54-5.28
	c-0.02-0.74,1.25-1.86,2.15-1.48l1.51,0.07C236.91,748.08,237.25,748.43,237.29,749.77z"/>
</svg>
