<svg id="Layer_1" data-name="Layer 1" xmlns="http://www.w3.org/2000/svg" xmlns:xlink="http://www.w3.org/1999/xlink" viewBox="0 0 1280 240"><defs><style>.cls-1,.cls-14,.cls-15,.cls-16,.cls-17,.cls-18,.cls-19,.cls-20,.cls-21,.cls-22,.cls-24,.cls-26,.cls-27{fill:none;}.cls-2{clip-path:url(#clip-path);}.cls-23,.cls-25,.cls-3{fill:#e4f2ff;}.cls-4{fill:#4497ff;}.cls-5{fill:#754c24;}.cls-6{fill:#566ed1;}.cls-7{fill:#25497a;}.cls-29,.cls-8,.cls-9{fill:#fff;}.cls-8,.cls-9{stroke:#000;}.cls-13,.cls-14,.cls-15,.cls-16,.cls-17,.cls-18,.cls-19,.cls-20,.cls-21,.cls-22,.cls-23,.cls-24,.cls-25,.cls-26,.cls-27,.cls-28,.cls-29,.cls-8,.cls-9{stroke-miterlimit:10;}.cls-29,.cls-8{stroke-width:2px;}.cls-10{fill:#c7b299;}.cls-11,.cls-13,.cls-28{fill:#b7dfe6;}.cls-12{fill:#ff6d6d;}.cls-13,.cls-15,.cls-28{stroke:#b7dfe6;}.cls-13,.cls-23{stroke-width:9px;}.cls-14,.cls-18,.cls-21{stroke:#ff6d6d;}.cls-14,.cls-24{stroke-width:6px;}.cls-15,.cls-16,.cls-17,.cls-21{stroke-width:3px;}.cls-16,.cls-26{stroke:#566ed1;}.cls-17,.cls-19,.cls-20,.cls-22,.cls-24{stroke:#4497ff;}.cls-18,.cls-20{stroke-width:4px;}.cls-19{stroke-width:7px;}.cls-22,.cls-25,.cls-26,.cls-27,.cls-28{stroke-width:5px;}.cls-23,.cls-25,.cls-27{stroke:#e4f2ff;}.cls-29{stroke:#42210b;}</style><clipPath id="clip-path"><rect class="cls-1" width="1280" height="240"/></clipPath></defs><title>resources-01</title><g class="cls-2"><path class="cls-3" d="M1291,23.6s-50,55-73,78c-17.1,17.1-74.2,59.1-97,62-32,4-71.1,6-129-1s-93,59-113,79c-16.3,16.3-82,56-82,56l494-2Z"/><path class="cls-3" d="M0,146.5s49-14,71-4,80.2,29.1,103,32c32,4,68-16,105-8,36.2,7.8,43,41,63,54,19.4,12.6,32,48,32,48l-374-2Z"/><path class="cls-4" d="M140.5,63c0,2,0,5,2,5s33-14,33-14l-2-5Z"/><path class="cls-5" d="M1122.5,75.1c-4,1.3-7,10-7,13s-7,8-7,8l3,2s-7,9-2,11,13,0,13,4-6,10,0,12,15-3,15-6-3-9,0-12,9-12,9-16-3-11-10-13S1125.9,74,1122.5,75.1Z"/><path class="cls-6" d="M1117.5,70.1c-2.2,1.8-2,7,3,10s13,5,12,8-5,5-7,8-1,7-3,7-9-5-12-4a6,6,0,0,0-4,6c0,2,1,8,3,8s9.3-2.1,11-2-2,7,0,7,7,1.1,7-3c0-3-3-5-3-8s2-7,4-9,6.5-1.9,7,0c1,4-6,4-5,9s4,10,7,7,13-14,14-18-1-5-2-7,1.6-4.8,0-8c-3-6-31-17-31-17A4.64,4.64,0,0,1,1117.5,70.1Z"/><path class="cls-7" d="M1143.5,119.1c3.4,1,23,24,23,26s-10,18-13,16-5-6-5-5,0,67-3,66-53-5-55-8,13-71,12-72-11-3-11-5,8-11,12-12,12.7-3.6,15-2c3,2,8,3,12,1s5-5,7-5S1142.1,118.7,1143.5,119.1Z"/><path class="cls-5" d="M1154.5,158.1c0,2,9.4,14.1,9,15-1,2-17,28-19,28s-8,1-8,4,3,8,7,7,1-3,3-5,36-30,34-39c-1.1-5-13.6-21.9-15.8-21.9S1154.5,154.2,1154.5,158.1Z"/><path class="cls-8" d="M1120.7,88.6a16.76,16.76,0,0,1-2.1,2.5"/><path class="cls-9" d="M1116.5,105.1c-2,0-4,0-5-1"/><path class="cls-10" d="M110.5,79c3.8.7,17,11,15,21-.2,1.1,1.9.1,2,1,1,7,0,20.3-3,20-4.1-.4-4.4-.4-6,0-2.2.6,3,4,0,6s-15.6,4.1-15,0c.6-3.7,2-7-2-10-2.3-1.7-9.8-7-11-13-1-5-1-16,4-20S106.4,78.2,110.5,79Z"/><path class="cls-10" d="M157.5,53c2,2-3,8,2,12,2.2,1.8,7,4,8,8s-3,39-5,41-19,19-22,19-8-9-7-11,21.1-14.1,22-17,4-27,4-29-10-3.1-11-9,1-11,4-13C154.4,52.8,156.6,52.1,157.5,53Z"/><path class="cls-10" d="M71.5,143c.9-.4,10,2,10,3s-7,7-6,8c1.6,1.6,14,18,15,18s2-1,3,0,0,8-2,8-3-2-4-3-23-22-24-24S68.5,144.1,71.5,143Z"/><path class="cls-7" d="M106.5,90c4-2,9,4,10,2s5.8-4,6.8-7c1.2-3.6-1.8-15-4.8-15-5,0-3,4-7,5-5,1.2-6-4-9-3s0,4-4,5-11-1-12,4,4,10,1,12-6,1-5,5,6,5,6,7-3,8,0,9,8.5-.9,9.2.1,3.8-3.1,2.8-5.1-4.8-6.4-3-9c2-3,8-1,9,0S102,92.2,106.5,90Z"/><path class="cls-7" d="M179.5,48c0,1-4,6-4,6l-2-5Z"/><path class="cls-9" d="M101.5,103c1,0,2,2,2,2"/><path class="cls-9" d="M125.5,112c-1,1-7,1-7,1"/><path class="cls-5" d="M1106.5,106.8c.9-.6,1,7.3,2,7.3,2.2,0,13-7,14-6s2,5,1,7-1,5-5,6-7-1-8,2c-.7,2.1-10.4,45.4-13,53-2,6-9,6-13,1s-4-16-2-20c2.2-4.5,21-37,22-38S1104.5,108.1,1106.5,106.8Z"/><path class="cls-11" d="M1092.5,214.1c0,1-6,62,0,62s27,3,27,0-1-40,0-39,0,39,3,39,21,3,23,1,1-56-2-57S1092.5,209.1,1092.5,214.1Z"/><path class="cls-7" d="M91.5,201c-4,1.3-10,68-6,68s17,0,18-1,6-35,9-36,9,41,12,40,13-2,14-4-4-62-7-65C127.5,199,97.5,199,91.5,201Z"/><path class="cls-12" d="M100.1,125.9c1.3.5,9,3.2,11.2,3.2,3,0,8.1-4.1,10.1-5.1s11-5,13-5,8,13,7,15-12,6-12,8c0,.6,4.1,11.1,1.7,18-6.7,19.7,2.4,42.5.3,44-3,2-40,3-42,1-1.2-1.2,4.2-12.7,4.2-29.9,0-10.2-2.9-30-3.7-30-2,0-10.4,6.4-12.4,5.4s-8.4-2.2-9.4-5.2,6.3-7.3,11.4-10.7C85.7,130.6,95.1,123.9,100.1,125.9Z"/><polygon class="cls-13" points="231.5 192 167.5 196 167.5 143 233.5 134 231.5 192"/><polygon class="cls-14" points="255.5 224 195.5 220 191.5 168 260.5 162 255.5 224"/><polygon class="cls-15" points="1096.7 77.2 1014.7 76.2 1007.2 41.7 1103.7 40.2 1096.7 77.2"/><polygon class="cls-15" points="1045.2 65.7 1024.2 65.7 1019.2 50.7 1045.2 51.7 1045.2 65.7"/><polygon class="cls-15" points="1090.2 65.7 1053.2 65.7 1052.2 50.7 1093.2 48.7 1090.2 65.7"/><line class="cls-16" x1="1002.2" y1="98.1" x2="1069.2" y2="93.1"/><line class="cls-16" x1="1007.2" y1="104.1" x2="1078.2" y2="102.1"/><line class="cls-17" x1="995.5" y1="183.1" x2="1037.5" y2="169.1"/><line class="cls-17" x1="1004.5" y1="187.1" x2="1033.5" y2="180.1"/><line class="cls-15" x1="1194.5" y1="213.2" x2="1216.5" y2="224.2"/><line class="cls-14" x1="1219.4" y1="95.6" x2="1214.4" y2="132.6"/><line class="cls-18" x1="1246.3" y1="103.9" x2="1238.8" y2="133.4"/><line class="cls-19" x1="46.4" y1="158.7" x2="50.2" y2="195.7"/><line class="cls-20" x1="25" y1="177.5" x2="30.7" y2="207"/><ellipse class="cls-21" cx="1018.46" cy="180.53" rx="49" ry="20.5" transform="translate(-12.53 263.63) rotate(-14.66)"/><rect class="cls-4" x="29" y="215.5" width="4" height="4"/><rect class="cls-4" x="47.6" y="206.2" width="7" height="6"/><rect class="cls-12" x="1210.35" y="142.62" width="5" height="6" transform="translate(906.04 1328.03) rotate(-82.3)"/><rect class="cls-12" x="1234.71" y="141.25" width="4" height="4.9" transform="translate(792.81 1306.9) rotate(-75.74)"/><path class="cls-22" d="M182,46.5s9.8-34,25.5-27-6.8,61,2.2,62,15.8-33,22.5-29,1.5,24,4.5,24,6.8-11,8.2-11"/><polygon class="cls-23" points="1162.8 56 1205.1 58.7 1205.1 23.7 1161.5 17.7 1162.8 56"/><polygon class="cls-24" points="1177.7 77.4 1226.4 74.1 1229.6 31.9 1173.6 27.1 1177.7 77.4"/><polygon class="cls-25" points="35.4 8.3 73.8 51.3 14.6 31.7 35.4 8.3"/><polygon class="cls-26" points="35.5 24.5 74.4 65.3 23.6 48.8 35.5 24.5"/><line class="cls-27" x1="9" y1="58.8" x2="70.4" y2="93.6"/><path class="cls-26" d="M18.5,76.5c1,.3,46.8,7.7,46.8,7.7"/><polygon class="cls-28" points="1264.7 180.5 1207.4 186.8 1264.5 211.9 1264.7 180.5"/><polygon class="cls-26" points="1253.8 192.5 1197.5 196.7 1246.3 218.6 1253.8 192.5"/><ellipse class="cls-29" cx="120.41" cy="100.79" rx="0.8" ry="1.8" transform="translate(-13.35 18.53) rotate(-8.34)"/></g></svg>