<?xml version="1.0" encoding="utf-8"?>
<!-- Generator: Adobe Illustrator 23.0.4, SVG Export Plug-In . SVG Version: 6.00 Build 0)  -->
<svg version="1.1" id="Layer_1" xmlns="http://www.w3.org/2000/svg" xmlns:xlink="http://www.w3.org/1999/xlink" x="0px" y="0px"
	 viewBox="0 0 1280 300" style="enable-background:new 0 0 1280 300;" xml:space="preserve">
<style type="text/css">
	.st0{fill:#E4F2FF;}
	.st1{fill:#4497FF;}
	.st2{fill:#754C24;}
	.st3{fill:#566ED1;}
	.st4{fill:#25497A;}
	.st5{fill:#FFFFFF;stroke:#000000;stroke-width:2;stroke-miterlimit:10;}
	.st6{fill:#FFFFFF;stroke:#000000;stroke-miterlimit:10;}
	.st7{fill:#C7B299;}
	.st8{fill:#B7DFE6;}
	.st9{fill:#FF6D6D;}
	.st10{fill:#B7DFE6;stroke:#B7DFE6;stroke-width:9;stroke-miterlimit:10;}
	.st11{fill:none;stroke:#FF6D6D;stroke-width:6;stroke-miterlimit:10;}
	.st12{fill:none;stroke:#B7DFE6;stroke-width:3;stroke-miterlimit:10;}
	.st13{fill:none;stroke:#566ED1;stroke-width:3;stroke-miterlimit:10;}
	.st14{fill:none;stroke:#4497FF;stroke-width:3;stroke-miterlimit:10;}
	.st15{fill:none;stroke:#FF6D6D;stroke-width:4;stroke-miterlimit:10;}
	.st16{fill:none;stroke:#4497FF;stroke-width:7;stroke-miterlimit:10;}
	.st17{fill:none;stroke:#4497FF;stroke-width:4;stroke-miterlimit:10;}
	.st18{fill:none;stroke:#FF6D6D;stroke-width:3;stroke-miterlimit:10;}
	.st19{fill:none;stroke:#4497FF;stroke-width:5;stroke-miterlimit:10;}
	.st20{fill:#E4F2FF;stroke:#E4F2FF;stroke-width:9;stroke-miterlimit:10;}
	.st21{fill:none;stroke:#4497FF;stroke-width:6;stroke-miterlimit:10;}
	.st22{fill:#E4F2FF;stroke:#E4F2FF;stroke-width:5;stroke-miterlimit:10;}
	.st23{fill:none;stroke:#566ED1;stroke-width:5;stroke-miterlimit:10;}
	.st24{fill:none;stroke:#E4F2FF;stroke-width:5;stroke-miterlimit:10;}
	.st25{fill:#B7DFE6;stroke:#B7DFE6;stroke-width:5;stroke-miterlimit:10;}
	.st26{fill:#FFFFFF;stroke:#42210B;stroke-width:2;stroke-miterlimit:10;}
</style>
<title>resources</title>
<path class="st0" d="M1291,56c0,0-50,55-73,78c-17.1,17.1-74.2,59.1-97,62c-32,4-71.1,6-129-1s-93,59-113,79c-16.3,16.3-82,56-82,56
	l494-2V56z"/>
<path class="st0" d="M0,180c0,0,49-14,71-4s80.2,29.1,103,32c32,4,68-16,105-8c36.2,7.8,43,41,63,54c19.4,12.6,32,48,32,48L0,300
	V180z"/>
<path class="st1" d="M140.5,96.5c0,2,0,5,2,5s33-14,33-14l-2-5L140.5,96.5z"/>
<path class="st2" d="M1122.5,107.5c-4,1.3-7,10-7,13s-7,8-7,8l3,2c0,0-7,9-2,11s13,0,13,4s-6,10,0,12s15-3,15-6s-3-9,0-12s9-12,9-16
	s-3-11-10-13S1125.9,106.4,1122.5,107.5z"/>
<path class="st3" d="M1117.5,102.5c-2.2,1.8-2,7,3,10s13,5,12,8s-5,5-7,8s-1,7-3,7s-9-5-12-4c-2.5,0.9-4.2,3.3-4,6c0,2,1,8,3,8
	s9.3-2.1,11-2s-2,7,0,7s7,1.1,7-3c0-3-3-5-3-8s2-7,4-9s6.5-1.9,7,0c1,4-6,4-5,9s4,10,7,7s13-14,14-18s-1-5-2-7s1.6-4.8,0-8
	c-3-6-31-17-31-17C1119.7,98.5,1119.3,101,1117.5,102.5z"/>
<path class="st4" d="M1143.5,151.5c3.4,1,23,24,23,26s-10,18-13,16s-5-6-5-5s0,67-3,66s-53-5-55-8s13-71,12-72s-11-3-11-5
	s8-11,12-12s12.7-3.6,15-2c3,2,8,3,12,1s5-5,7-5S1142.1,151.1,1143.5,151.5z"/>
<path class="st2" d="M1154.5,190.5c0,2,9.4,14.1,9,15c-1,2-17,28-19,28s-8,1-8,4s3,8,7,7s1-3,3-5s36-30,34-39
	c-1.1-5-13.6-21.9-15.8-21.9S1154.5,186.6,1154.5,190.5z"/>
<path class="st5" d="M1120.7,121c-0.6,0.9-1.3,1.7-2.1,2.5"/>
<path class="st6" d="M1116.5,137.5c-2,0-4,0-5-1"/>
<path class="st7" d="M110.5,112.5c3.8,0.7,17,11,15,21c-0.2,1.1,1.9,0.1,2,1c1,7,0,20.3-3,20c-4.1-0.4-4.4-0.4-6,0c-2.2,0.6,3,4,0,6
	s-15.6,4.1-15,0c0.6-3.7,2-7-2-10c-2.3-1.7-9.8-7-11-13c-1-5-1-16,4-20S106.4,111.7,110.5,112.5z"/>
<path class="st7" d="M157.5,86.5c2,2-3,8,2,12c2.2,1.8,7,4,8,8s-3,39-5,41s-19,19-22,19s-8-9-7-11s21.1-14.1,22-17c1-3,4-27,4-29
	s-10-3.1-11-9s1-11,4-13C154.4,86.3,156.6,85.6,157.5,86.5z"/>
<path class="st7" d="M71.5,176.5c0.9-0.4,10,2,10,3s-7,7-6,8c1.6,1.6,14,18,15,18s2-1,3,0s0,8-2,8s-3-2-4-3s-23-22-24-24
	S68.5,177.6,71.5,176.5z"/>
<path class="st4" d="M106.5,123.5c4-2,9,4,10,2s5.8-4,6.8-7c1.2-3.6-1.8-15-4.8-15c-5,0-3,4-7,5c-5,1.2-6-4-9-3s0,4-4,5s-11-1-12,4
	s4,10,1,12s-6,1-5,5s6,5,6,7s-3,8,0,9s8.5-0.9,9.2,0.1s3.8-3.1,2.8-5.1s-4.8-6.4-3-9c2-3,8-1,9,0S102,125.7,106.5,123.5z"/>
<path class="st4" d="M179.5,81.5c0,1-4,6-4,6l-2-5L179.5,81.5z"/>
<path class="st6" d="M101.5,136.5c1,0,2,2,2,2"/>
<path class="st6" d="M125.5,145.5c-1,1-7,1-7,1"/>
<path class="st2" d="M1106.5,139.2c0.9-0.6,1,7.3,2,7.3c2.2,0,13-7,14-6s2,5,1,7s-1,5-5,6s-7-1-8,2c-0.7,2.1-10.4,45.4-13,53
	c-2,6-9,6-13,1s-4-16-2-20c2.2-4.5,21-37,22-38S1104.5,140.5,1106.5,139.2z"/>
<path class="st8" d="M1092.5,246.5c0,1-6,62,0,62s27,3,27,0s-1-40,0-39s0,39,3,39s21,3,23,1s1-56-2-57S1092.5,241.5,1092.5,246.5z"
	/>
<path class="st4" d="M91.5,234.5c-4,1.3-10,68-6,68s17,0,18-1s6-35,9-36s9,41,12,40s13-2,14-4s-4-62-7-65
	C127.5,232.5,97.5,232.5,91.5,234.5z"/>
<path class="st9" d="M100.1,159.4c1.3,0.5,9,3.2,11.2,3.2c3,0,8.1-4.1,10.1-5.1s11-5,13-5s8,13,7,15s-12,6-12,8
	c0,0.6,4.1,11.1,1.7,18c-6.7,19.7,2.4,42.5,0.3,44c-3,2-40,3-42,1c-1.2-1.2,4.2-12.7,4.2-29.9c0-10.2-2.9-30-3.7-30
	c-2,0-10.4,6.4-12.4,5.4s-8.4-2.2-9.4-5.2s6.3-7.3,11.4-10.7C85.7,164.1,95.1,157.4,100.1,159.4z"/>
<polygon class="st10" points="231.5,225.5 167.5,229.5 167.5,176.5 233.5,167.5 "/>
<polygon class="st11" points="255.5,257.5 195.5,253.5 191.5,201.5 260.5,195.5 "/>
<polygon class="st12" points="1062,100 980,99 972.5,64.5 1069,63 "/>
<polygon class="st12" points="1010.5,88.5 989.5,88.5 984.5,73.5 1010.5,74.5 "/>
<polygon class="st12" points="1055.5,88.5 1018.5,88.5 1017.5,73.5 1058.5,71.5 "/>
<line class="st13" x1="987.5" y1="115.5" x2="1054.5" y2="110.5"/>
<line class="st13" x1="992.5" y1="121.5" x2="1063.5" y2="119.5"/>
<line class="st14" x1="995.5" y1="215.5" x2="1037.5" y2="201.5"/>
<line class="st14" x1="1004.5" y1="219.5" x2="1033.5" y2="212.5"/>
<line class="st12" x1="1198.5" y1="255.5" x2="1220.5" y2="266.5"/>
<line class="st11" x1="1214.5" y1="117.5" x2="1209.5" y2="154.5"/>
<line class="st15" x1="1242" y1="128" x2="1234.5" y2="157.5"/>
<line class="st16" x1="45.8" y1="200.5" x2="49.6" y2="237.5"/>
<line class="st17" x1="25" y1="211" x2="30.7" y2="240.5"/>
<ellipse transform="matrix(0.9674 -0.2531 0.2531 0.9674 -20.7392 264.6974)" class="st18" cx="1018.5" cy="213" rx="49" ry="20.5"/>
<rect x="29" y="249" class="st1" width="4" height="4"/>
<rect x="47" y="248" class="st1" width="7" height="6"/>
<rect x="1205.5" y="164.6" transform="matrix(0.134 -0.991 0.991 0.134 880.0491 1342.2139)" class="st9" width="5" height="6"/>
<rect x="1230.5" y="165.3" transform="matrix(0.2463 -0.9692 0.9692 0.2463 766.3179 1320.9978)" class="st9" width="4" height="4.9"/>
<path class="st19" d="M182,80c0,0,9.8-34,25.5-27s-6.8,61,2.2,62s15.8-33,22.5-29s1.5,24,4.5,24s6.8-11,8.2-11"/>
<polygon class="st20" points="1150.2,77.1 1192.5,79.8 1192.5,44.8 1148.9,38.8 "/>
<polygon class="st21" points="1165.1,98.5 1213.8,95.2 1217,53 1161,48.2 "/>
<polygon class="st22" points="37.4,20.4 75.8,63.4 16.6,43.8 "/>
<polygon class="st23" points="37.5,36.6 76.5,77.4 25.6,60.9 "/>
<line class="st24" x1="11" y1="70.9" x2="72.4" y2="105.7"/>
<path class="st23" d="M20.5,88.6c1,0.3,46.8,7.7,46.8,7.7"/>
<polygon class="st25" points="1268.7,222.8 1211.4,229.1 1268.5,254.2 "/>
<polygon class="st23" points="1257.8,234.8 1201.5,239 1250.3,260.9 "/>
<ellipse transform="matrix(0.9894 -0.145 0.145 0.9894 -18.2058 18.884)" class="st26" cx="120.4" cy="134.3" rx="0.8" ry="1.8"/>
</svg>
