<?xml version="1.0" encoding="utf-8"?>
<!-- Generator: Adobe Illustrator 23.0.4, SVG Export Plug-In . SVG Version: 6.00 Build 0)  -->
<svg version="1.1" id="Layer_1" xmlns="http://www.w3.org/2000/svg" xmlns:xlink="http://www.w3.org/1999/xlink" x="0px" y="0px"
	 viewBox="0 0 1280 240" style="enable-background:new 0 0 1280 240;" xml:space="preserve">
<style type="text/css">
	.st0{clip-path:url(#SVGID_2_);}
	.st1{fill:none;stroke:#4497FF;stroke-width:4;stroke-miterlimit:10;}
	.st2{fill:#E4F2FF;}
	.st3{fill:#754C24;}
	.st4{fill:#566ED1;}
	.st5{fill:#25497A;}
	.st6{fill:#FFFFFF;stroke:#000000;stroke-width:2;stroke-miterlimit:10;}
	.st7{fill:#FFFFFF;stroke:#000000;stroke-miterlimit:10;}
	.st8{fill:#4497FF;}
	.st9{fill:#C7B299;}
	.st10{fill:#B7DFE6;}
	.st11{fill:#FF6D6D;}
	.st12{fill:#B7DFE6;stroke:#B7DFE6;stroke-width:9;stroke-miterlimit:10;}
	.st13{fill:none;stroke:#FF6D6D;stroke-width:6;stroke-miterlimit:10;}
	.st14{fill:none;stroke:#B7DFE6;stroke-width:3;stroke-miterlimit:10;}
	.st15{fill:none;stroke:#566ED1;stroke-width:3;stroke-miterlimit:10;}
	.st16{fill:none;stroke:#4497FF;stroke-width:3;stroke-miterlimit:10;}
	.st17{fill:none;stroke:#FF6D6D;stroke-width:4;stroke-miterlimit:10;}
	.st18{fill:none;stroke:#4497FF;stroke-width:7;stroke-miterlimit:10;}
	.st19{fill:none;stroke:#FF6D6D;stroke-width:3;stroke-miterlimit:10;}
	.st20{fill:#E4F2FF;stroke:#E4F2FF;stroke-width:9;stroke-miterlimit:10;}
	.st21{fill:none;stroke:#4497FF;stroke-width:6;stroke-miterlimit:10;}
	.st22{fill:#E4F2FF;stroke:#E4F2FF;stroke-width:5;stroke-miterlimit:10;}
	.st23{fill:none;stroke:#566ED1;stroke-width:5;stroke-miterlimit:10;}
	.st24{fill:none;stroke:#E4F2FF;stroke-width:5;stroke-miterlimit:10;}
	.st25{fill:#B7DFE6;stroke:#B7DFE6;stroke-width:5;stroke-miterlimit:10;}
	.st26{fill:#FFFFFF;stroke:#42210B;stroke-width:2;stroke-miterlimit:10;}
</style>
<title>resources-01</title>
<g>
	<defs>
		<rect id="SVGID_1_" width="1280" height="240"/>
	</defs>
	<clipPath id="SVGID_2_">
		<use xlink:href="#SVGID_1_"  style="overflow:visible;"/>
	</clipPath>
	<g class="st0">
		<path class="st1" d="M173.1,51.9c0,0-3.7-18.6,5.1-18.8s11.5,31,15.9,29.4c4.3-1.6-0.7-19.5,3.3-19.1c4,0.4,6.4,11.2,7.8,10.6
			s0.5-6.9,1.1-7.2"/>
		<path class="st2" d="M1291,23.6c0,0-50,55-73,78c-17.1,17.1-74.2,59.1-97,62c-32,4-71.1,6-129-1s-93,59-113,79
			c-16.3,16.3-82,56-82,56l494-2V23.6z"/>
		<path class="st2" d="M0,146.5c0,0,49-14,71-4s80.2,29.1,103,32c32,4,68-16,105-8c36.2,7.8,43,41,63,54c19.4,12.6,32,48,32,48
			l-374-2V146.5z"/>
		<path class="st3" d="M1122.5,75.1c-4,1.3-7,10-7,13s-7,8-7,8l3,2c0,0-7,9-2,11s13,0,13,4s-6,10,0,12s15-3,15-6s-3-9,0-12
			s9-12,9-16s-3-11-10-13S1125.9,74,1122.5,75.1z"/>
		<path class="st4" d="M1117.5,70.1c-2.2,1.8-2,7,3,10s13,5,12,8s-5,5-7,8s-1,7-3,7s-9-5-12-4c-2.5,0.9-4.2,3.3-4,6c0,2,1,8,3,8
			s9.3-2.1,11-2s-2,7,0,7s7,1.1,7-3c0-3-3-5-3-8s2-7,4-9s6.5-1.9,7,0c1,4-6,4-5,9s4,10,7,7s13-14,14-18s-1-5-2-7s1.6-4.8,0-8
			c-3-6-31-17-31-17C1119.7,66.1,1119.3,68.6,1117.5,70.1z"/>
		<path class="st5" d="M1143.5,119.1c3.4,1,23,24,23,26s-10,18-13,16s-5-6-5-5s0,67-3,66s-53-5-55-8s13-71,12-72s-11-3-11-5
			s8-11,12-12s12.7-3.6,15-2c3,2,8,3,12,1s5-5,7-5S1142.1,118.7,1143.5,119.1z"/>
		<path class="st3" d="M1154.5,158.1c0,2,9.4,14.1,9,15c-1,2-17,28-19,28s-8,1-8,4s3,8,7,7s1-3,3-5s36-30,34-39
			c-1.1-5-13.6-21.9-15.8-21.9S1154.5,154.2,1154.5,158.1z"/>
		<path class="st6" d="M1120.7,88.6c-0.6,0.9-1.3,1.7-2.1,2.5"/>
		<path class="st7" d="M1116.5,105.1c-2,0-4,0-5-1"/>
		<path class="st8" d="M135.5,66c0,2,0,5,2,5s33-14,33-14l-2-5L135.5,66z"/>
		<path class="st9" d="M110.5,79c3.8,0.7,17,11,15,21c-0.2,1.1,1.9,0.1,2,1c1,7,0,20.3-3,20c-4.1-0.4-4.4-0.4-6,0c-2.2,0.6,3,4,0,6
			s-15.6,4.1-15,0c0.6-3.7,2-7-2-10c-2.3-1.7-9.8-7-11-13c-1-5-1-16,4-20S106.4,78.2,110.5,79z"/>
		<path class="st9" d="M157.5,53c2,2-3,8,2,12c2.2,1.8,7,4,8,8s-3,39-5,41s-19,19-22,19s-8-9-7-11s21.1-14.1,22-17s4-27,4-29
			s-10-3.1-11-9s1-11,4-13C154.4,52.8,156.6,52.1,157.5,53z"/>
		<path class="st9" d="M71.5,143c0.9-0.4,10,2,10,3s-7,7-6,8c1.6,1.6,14,18,15,18s2-1,3,0s0,8-2,8s-3-2-4-3s-23-22-24-24
			S68.5,144.1,71.5,143z"/>
		<path class="st5" d="M106.5,90c4-2,9,4,10,2s5.8-4,6.8-7c1.2-3.6-1.8-15-4.8-15c-5,0-3,4-7,5c-5,1.2-6-4-9-3s0,4-4,5s-11-1-12,4
			s4,10,1,12s-6,1-5,5s6,5,6,7s-3,8,0,9s8.5-0.9,9.2,0.1s3.8-3.1,2.8-5.1s-4.8-6.4-3-9c2-3,8-1,9,0S102,92.2,106.5,90z"/>
		<path class="st7" d="M101.5,103c1,0,2,2,2,2"/>
		<path class="st7" d="M125.5,112c-1,1-7,1-7,1"/>
		<path class="st3" d="M1106.5,106.8c0.9-0.6,1,7.3,2,7.3c2.2,0,13-7,14-6s2,5,1,7s-1,5-5,6s-7-1-8,2c-0.7,2.1-10.4,45.4-13,53
			c-2,6-9,6-13,1s-4-16-2-20c2.2-4.5,21-37,22-38S1104.5,108.1,1106.5,106.8z"/>
		<path class="st10" d="M1092.5,214.1c0,1-6,62,0,62s27,3,27,0s-1-40,0-39s0,39,3,39s21,3,23,1s1-56-2-57S1092.5,209.1,1092.5,214.1
			z"/>
		<path class="st5" d="M91.5,201c-4,1.3-10,68-6,68s17,0,18-1s6-35,9-36s9,41,12,40s13-2,14-4s-4-62-7-65
			C127.5,199,97.5,199,91.5,201z"/>
		<path class="st11" d="M100.1,125.9c1.3,0.5,9,3.2,11.2,3.2c3,0,8.1-4.1,10.1-5.1s11-5,13-5s8,13,7,15s-12,6-12,8
			c0,0.6,4.1,11.1,1.7,18c-6.7,19.7,2.4,42.5,0.3,44c-3,2-40,3-42,1c-1.2-1.2,4.2-12.7,4.2-29.9c0-10.2-2.9-30-3.7-30
			c-2,0-10.4,6.4-12.4,5.4s-8.4-2.2-9.4-5.2s6.3-7.3,11.4-10.7C85.7,130.6,95.1,123.9,100.1,125.9z"/>
		<path class="st5" d="M174.5,51c0,1-4,6-4,6l-2-5L174.5,51z"/>
		<polygon class="st12" points="231.5,192 167.5,196 167.5,143 233.5,134 		"/>
		<polygon class="st13" points="255.5,224 195.5,220 191.5,168 260.5,162 		"/>
		<polygon class="st14" points="1115.3,52.2 1066.2,51.2 1061.7,16.8 1119.5,15.3 		"/>
		<polygon class="st14" points="1107.1,40.7 1072.9,40.7 1072,25.8 1109.8,23.8 		"/>
		<line class="st15" x1="1009.8" y1="123.2" x2="1076.8" y2="118.2"/>
		<line class="st15" x1="1014.8" y1="129.2" x2="1085.8" y2="127.2"/>
		<line class="st16" x1="995.5" y1="183.1" x2="1037.5" y2="169.1"/>
		<line class="st16" x1="1004.5" y1="187.1" x2="1033.5" y2="180.1"/>
		<line class="st14" x1="1194.5" y1="213.2" x2="1216.5" y2="224.2"/>
		<line class="st13" x1="1219.4" y1="95.6" x2="1214.4" y2="132.6"/>
		<line class="st17" x1="1246.3" y1="103.9" x2="1238.8" y2="133.4"/>
		<line class="st18" x1="46.4" y1="158.7" x2="50.2" y2="195.7"/>
		<line class="st1" x1="25" y1="177.5" x2="30.7" y2="207"/>
		
			<ellipse transform="matrix(0.9674 -0.2531 0.2531 0.9674 -12.5322 263.6325)" class="st19" cx="1018.5" cy="180.5" rx="49" ry="20.5"/>
		<rect x="29" y="215.5" class="st8" width="4" height="4"/>
		<rect x="47.6" y="206.2" class="st8" width="7" height="6"/>
		<rect x="1210.4" y="142.6" transform="matrix(0.134 -0.991 0.991 0.134 906.0326 1328.0311)" class="st11" width="5" height="6"/>
		
			<rect x="1234.7" y="141.2" transform="matrix(0.2463 -0.9692 0.9692 0.2463 792.8171 1306.9037)" class="st11" width="4" height="4.9"/>
		<polygon class="st20" points="1162.8,56 1205.1,58.7 1205.1,23.7 1161.5,17.7 		"/>
		<polygon class="st21" points="1177.7,77.4 1226.4,74.1 1229.6,31.9 1173.6,27.1 		"/>
		<polygon class="st22" points="35.4,8.3 73.8,51.3 14.6,31.7 		"/>
		<polygon class="st23" points="35.5,24.5 74.4,65.3 23.6,48.8 		"/>
		<line class="st24" x1="9" y1="58.8" x2="70.4" y2="93.6"/>
		<path class="st23" d="M18.5,76.5c1,0.3,46.8,7.7,46.8,7.7"/>
		<polygon class="st25" points="1264.7,180.5 1207.4,186.8 1264.5,211.9 		"/>
		<polygon class="st23" points="1253.8,192.5 1197.5,196.7 1246.3,218.6 		"/>
		
			<ellipse transform="matrix(0.9894 -0.145 0.145 0.9894 -13.3458 18.5304)" class="st26" cx="120.4" cy="100.8" rx="0.8" ry="1.8"/>
	</g>
</g>
</svg>
