<svg id="Layer_3" data-name="Layer 3" xmlns="http://www.w3.org/2000/svg" xmlns:xlink="http://www.w3.org/1999/xlink" viewBox="0 0 716.53 215.77"><defs><style>.cls-1{fill:#10ab9f;}.cls-2{fill:#0888a3;}.cls-3{fill:url(#linear-gradient);}.cls-4{fill:url(#linear-gradient-2);}.cls-5{fill:url(#linear-gradient-3);}.cls-6{opacity:0.48;fill:url(#linear-gradient-4);}</style><linearGradient id="linear-gradient" x1="86.94" y1="208.48" x2="131.71" y2="81.32" gradientUnits="userSpaceOnUse"><stop offset="0" stop-color="#5a4f93"/><stop offset="1" stop-color="#923f8e"/></linearGradient><linearGradient id="linear-gradient-2" x1="50.33" y1="127.77" x2="108.38" y2="-118.97" gradientUnits="userSpaceOnUse"><stop offset="0" stop-color="#2b3379"/><stop offset="1" stop-color="#0888a3"/></linearGradient><linearGradient id="linear-gradient-3" x1="144.47" y1="147.62" x2="144.47" y2="4.52" gradientUnits="userSpaceOnUse"><stop offset="0" stop-color="#0888a3"/><stop offset="1" stop-color="#10ab9f"/></linearGradient><linearGradient id="linear-gradient-4" x1="102.85" y1="172.63" x2="102.85" y2="-6.32" gradientUnits="userSpaceOnUse"><stop offset="0.01" stop-color="#0888a3"/><stop offset="1" stop-color="#daebf3"/></linearGradient></defs><title>scale-logo</title><path class="cls-1" d="M358,90.71V92.3h-6.17V90.38c0-5.26-2-8.35-6.68-8.35s-6.68,3.09-6.68,8.27c0,13.1,19.61,14.35,19.61,30.79,0,8.84-4.25,14.6-13.18,14.6s-13.1-5.76-13.1-14.6v-3.34h6.09v3.67c0,5.26,2.17,8.34,6.84,8.34s6.85-3.08,6.85-8.34c0-13-19.53-14.27-19.53-30.71,0-9,4.17-14.6,12.93-14.6S358,81.87,358,90.71Z" transform="translate(-85 -51.5)"/><path class="cls-1" d="M403.09,90.8v5.25h-6.17V90.46c0-5.25-2.09-8.43-6.84-8.43s-6.85,3.18-6.85,8.43v30.88c0,5.25,2.18,8.42,6.85,8.42s6.84-3.17,6.84-8.42v-7.6h6.17V121c0,8.85-4.17,14.69-13.18,14.69s-13.1-5.84-13.1-14.69V90.8c0-8.85,4.17-14.69,13.1-14.69S403.09,82,403.09,90.8Z" transform="translate(-85 -51.5)"/><path class="cls-1" d="M429,123.34,426.7,135.1h-6l11.18-58.41h9.43l11.18,58.41H446l-2.25-11.76Zm.83-5.59h13L436.22,84Z" transform="translate(-85 -51.5)"/><path class="cls-1" d="M470.92,135.1V76.69h6.51v52.49h16.69v5.92Z" transform="translate(-85 -51.5)"/><path class="cls-1" d="M533.17,102.56v5.84H518.9v20.78h17.52v5.92h-24V76.69h24v5.93H518.9v19.94Z" transform="translate(-85 -51.5)"/><path class="cls-2" d="M345.86,174.18v.74H343V174c0-2.47-.94-3.92-3.14-3.92s-3.13,1.45-3.13,3.88c0,6.15,9.21,6.74,9.21,14.46,0,4.16-2,6.87-6.19,6.87s-6.16-2.71-6.16-6.87v-1.56h2.86v1.72c0,2.47,1,3.92,3.22,3.92s3.21-1.45,3.21-3.92c0-6.11-9.17-6.7-9.17-14.42,0-4.24,2-6.86,6.08-6.86S345.86,170,345.86,174.18Z" transform="translate(-85 -51.5)"/><path class="cls-2" d="M365,195H362l-4.55-21.83V195H354.8V167.59h4.27l4.51,21.91,4.35-21.91h4.27V195h-2.9V173Z" transform="translate(-85 -51.5)"/><path class="cls-2" d="M384.7,189.5,383.64,195h-2.82l5.25-27.44h4.43L395.76,195H392.7l-1.06-5.53Zm.39-2.62h6.12L388.11,171Z" transform="translate(-85 -51.5)"/><path class="cls-2" d="M410.53,167.59c4.31,0,6.12,2.2,6.12,6.27v2.24c0,3-1.06,4.9-3.41,5.64,2.5.75,3.44,2.78,3.44,5.73v4.27a6.87,6.87,0,0,0,.55,3.29h-3.09a7.08,7.08,0,0,1-.51-3.33v-4.31c0-3.1-1.45-4.08-4-4.08h-2.16V195h-3.05V167.59Zm-.78,12.94c2.43,0,3.88-.79,3.88-3.77v-2.62c0-2.47-.9-3.77-3.18-3.77h-3v10.16Z" transform="translate(-85 -51.5)"/><path class="cls-2" d="M430.13,195V170.37h-5.06v-2.78h13.17v2.78h-5.06V195Z" transform="translate(-85 -51.5)"/><path class="cls-2" d="M471.09,174.22v2.46h-2.9v-2.62c0-2.47-1-4-3.22-4s-3.21,1.49-3.21,4v14.5c0,2.47,1,4,3.21,4s3.22-1.49,3.22-4V185h2.9v3.41c0,4.15-2,6.9-6.2,6.9s-6.15-2.75-6.15-6.9V174.22c0-4.16,2-6.9,6.15-6.9S471.09,170.06,471.09,174.22Z" transform="translate(-85 -51.5)"/><path class="cls-2" d="M483.2,167.59V195h-3.06V167.59Z" transform="translate(-85 -51.5)"/><path class="cls-2" d="M496.6,195V170.37h-5.06v-2.78h13.17v2.78h-5V195Z" transform="translate(-85 -51.5)"/><path class="cls-2" d="M516.16,167.59V195H513.1V167.59Z" transform="translate(-85 -51.5)"/><path class="cls-2" d="M535.32,179.74v2.75h-6.7v9.76h8.23V195H525.56V167.59h11.29v2.78h-8.23v9.37Z" transform="translate(-85 -51.5)"/><path class="cls-2" d="M557.82,174.18v.74h-2.9V174c0-2.47-.94-3.92-3.14-3.92s-3.13,1.45-3.13,3.88c0,6.15,9.21,6.74,9.21,14.46,0,4.16-2,6.87-6.19,6.87s-6.16-2.71-6.16-6.87v-1.56h2.86v1.72c0,2.47,1,3.92,3.22,3.92s3.21-1.45,3.21-3.92c0-6.11-9.17-6.7-9.17-14.42,0-4.24,2-6.86,6.08-6.86S557.82,170,557.82,174.18Z" transform="translate(-85 -51.5)"/><path class="cls-2" d="M582.24,189.5,581.18,195h-2.82l5.25-27.44H588L593.29,195h-3l-1.06-5.53Zm.39-2.62h6.11L585.65,171Z" transform="translate(-85 -51.5)"/><path class="cls-2" d="M614,174.22v2.46h-2.9v-2.62c0-2.47-1-4-3.22-4s-3.21,1.49-3.21,4v14.5c0,2.47,1,4,3.21,4s3.22-1.49,3.22-4V185H614v3.41c0,4.15-2,6.9-6.2,6.9s-6.15-2.75-6.15-6.9V174.22c0-4.16,2-6.9,6.15-6.9S614,170.06,614,174.22Z" transform="translate(-85 -51.5)"/><path class="cls-2" d="M635.19,174.22v2.46h-2.9v-2.62c0-2.47-1-4-3.21-4s-3.22,1.49-3.22,4v14.5c0,2.47,1,4,3.22,4s3.21-1.49,3.21-4V185h2.9v3.41c0,4.15-2,6.9-6.19,6.9s-6.16-2.75-6.16-6.9V174.22c0-4.16,2-6.9,6.16-6.9S635.19,170.06,635.19,174.22Z" transform="translate(-85 -51.5)"/><path class="cls-2" d="M654,179.74v2.75h-6.7v9.76h8.23V195H644.24V167.59h11.29v2.78H647.3v9.37Z" transform="translate(-85 -51.5)"/><path class="cls-2" d="M664.62,195V167.59h3.06v24.66h7.84V195Z" transform="translate(-85 -51.5)"/><path class="cls-2" d="M693.86,179.74v2.75h-6.7v9.76h8.23V195H684.1V167.59h11.29v2.78h-8.23v9.37Z" transform="translate(-85 -51.5)"/><path class="cls-2" d="M710.6,167.59c4.31,0,6.11,2.2,6.11,6.27v2.24c0,3-1.06,4.9-3.41,5.64,2.51.75,3.45,2.78,3.45,5.73v4.27a6.87,6.87,0,0,0,.55,3.29h-3.09a7.08,7.08,0,0,1-.51-3.33v-4.31c0-3.1-1.46-4.08-4-4.08h-2.16V195h-3.06V167.59Zm-.79,12.94c2.43,0,3.89-.79,3.89-3.77v-2.62c0-2.47-.91-3.77-3.18-3.77h-3v10.16Z" transform="translate(-85 -51.5)"/><path class="cls-2" d="M729.29,189.5,728.23,195h-2.82l5.26-27.44h4.43L740.35,195h-3.06l-1.06-5.53Zm.4-2.62h6.11L732.7,171Z" transform="translate(-85 -51.5)"/><path class="cls-2" d="M751.4,195V170.37h-5.06v-2.78h13.13v2.78h-5.05V195Z" transform="translate(-85 -51.5)"/><path class="cls-2" d="M767.27,174.22c0-4.2,2.08-6.9,6.27-6.9s6.31,2.7,6.31,6.9v14.19c0,4.15-2.07,6.9-6.31,6.9s-6.27-2.75-6.27-6.9Zm3,14.34c0,2.51,1.06,4,3.25,4s3.26-1.45,3.26-4v-14.5c0-2.47-1-4-3.26-4s-3.25,1.49-3.25,4Z" transform="translate(-85 -51.5)"/><path class="cls-2" d="M794.83,167.59c4.31,0,6.11,2.2,6.11,6.27v2.24c0,3-1.06,4.9-3.41,5.64,2.51.75,3.45,2.78,3.45,5.73v4.27a6.87,6.87,0,0,0,.55,3.29h-3.1a7.21,7.21,0,0,1-.51-3.33v-4.31c0-3.1-1.45-4.08-4-4.08h-2.15V195h-3.06V167.59ZM794,180.53c2.43,0,3.88-.79,3.88-3.77v-2.62c0-2.47-.9-3.77-3.17-3.77h-3v10.16Z" transform="translate(-85 -51.5)"/><path class="cls-2" d="M334,237.69V210.25H337V234.9h7.84v2.79Z" transform="translate(-85 -51.5)"/><path class="cls-2" d="M356.48,232.16l-1.06,5.53H352.6l5.25-27.44h4.43l5.26,27.44h-3.06l-1.06-5.53Zm.39-2.63H363l-3.1-15.83Z" transform="translate(-85 -51.5)"/><path class="cls-2" d="M382.27,210.25c4.27,0,6,2,6,6.07v1.3c0,2.9-.82,4.7-3.21,5.44,2.66.75,3.68,2.87,3.68,5.88v2.32c0,4.11-2,6.43-6.27,6.43h-6.31V210.25Zm-.74,11.64c2.43,0,3.68-.79,3.68-3.65v-1.6c0-2.43-.82-3.61-3-3.61h-3v8.86Zm.9,13c2.23,0,3.25-1.17,3.25-3.72v-2.43c0-3.06-1.21-4.08-3.84-4.08h-2.67V234.9Z" transform="translate(-85 -51.5)"/><path class="cls-2" d="M409.67,216.83v.75h-2.9v-.9c0-2.47-.94-3.93-3.14-3.93s-3.13,1.46-3.13,3.89c0,6.15,9.21,6.74,9.21,14.46,0,4.16-2,6.86-6.19,6.86s-6.16-2.7-6.16-6.86v-1.57h2.86v1.73c0,2.47,1,3.92,3.22,3.92s3.21-1.45,3.21-3.92c0-6.12-9.17-6.71-9.17-14.43,0-4.23,2-6.86,6.07-6.86S409.67,212.68,409.67,216.83Z" transform="translate(-85 -51.5)"/><path class="cls-2" d="M438.2,225.06v5.53H436v-5.53H430.6v-2.19H436v-5.45h2.19v5.45h5.41v2.19Z" transform="translate(-85 -51.5)"/><path class="cls-2" d="M474.73,222.4v2.74H468v9.76h8.23v2.79H465V210.25h11.29V213H468v9.37Z" transform="translate(-85 -51.5)"/><path class="cls-2" d="M488.06,237.69h-2.75V210.25h3.88l6.35,19.83V210.25h2.71v27.44h-3.18l-7-22.19Z" transform="translate(-85 -51.5)"/><path class="cls-2" d="M510,210.25l4.47,23.87,4.43-23.87h2.83l-5.14,27.44H512l-5.17-27.44Z" transform="translate(-85 -51.5)"/><path class="cls-2" d="M533.36,210.25v27.44h-3.05V210.25Z" transform="translate(-85 -51.5)"/><path class="cls-2" d="M548.89,210.25c4.31,0,6.11,2.19,6.11,6.27v2.23c0,3-1.06,4.9-3.41,5.65,2.51.74,3.45,2.78,3.45,5.72v4.27a6.89,6.89,0,0,0,.55,3.3h-3.1a7.26,7.26,0,0,1-.51-3.34V230c0-3.09-1.45-4.07-4-4.07h-2.15v11.72h-3.06V210.25Zm-.79,12.93c2.43,0,3.88-.78,3.88-3.76v-2.63c0-2.47-.9-3.76-3.17-3.76h-3v10.15Z" transform="translate(-85 -51.5)"/><path class="cls-2" d="M564.25,216.87c0-4.19,2.08-6.9,6.27-6.9s6.31,2.71,6.31,6.9v14.19c0,4.16-2.08,6.9-6.31,6.9s-6.27-2.74-6.27-6.9Zm3,14.35c0,2.51,1.05,4,3.25,4s3.25-1.45,3.25-4V216.71c0-2.47-1-4-3.25-4s-3.25,1.49-3.25,4Z" transform="translate(-85 -51.5)"/><path class="cls-2" d="M588.71,237.69H586V210.25h3.88l6.35,19.83V210.25h2.71v27.44h-3.18l-7-22.19Z" transform="translate(-85 -51.5)"/><path class="cls-2" d="M618.42,237.65h-2.94l-4.55-21.84v21.88h-2.67V210.25h4.28l4.5,21.91,4.36-21.91h4.27v27.44h-2.9V215.62Z" transform="translate(-85 -51.5)"/><path class="cls-2" d="M644.83,222.4v2.74h-6.7v9.76h8.23v2.79H635.07V210.25h11.29V213h-8.23v9.37Z" transform="translate(-85 -51.5)"/><path class="cls-2" d="M657.88,237.69h-2.74V210.25H659l6.35,19.83V210.25h2.71v27.44H664.9l-7-22.19Z" transform="translate(-85 -51.5)"/><path class="cls-2" d="M681.24,237.69V213h-5v-2.78h13.17V213H684.3v24.66Z" transform="translate(-85 -51.5)"/><polyline class="cls-3" points="83.48 111.48 205.46 162.92 121.98 215.77 0 164.33 83.48 111.48"/><polygon class="cls-4" points="0 164.33 122.11 0 83.48 111.48 0 164.33"/><polygon class="cls-5" points="205.46 162.92 122.11 0 83.48 111.48 205.46 162.92"/><polygon class="cls-6" points="122.11 0 41.98 137.75 163.72 189.34 122.11 0"/></svg>