<svg width="600" height="600" viewBox="0 0 600 600" fill="none" xmlns="http://www.w3.org/2000/svg">
<g clip-path="url(#clip0)">
<circle cx="300" cy="300" r="300" fill="#B7DFE6"/>
<path fill-rule="evenodd" clip-rule="evenodd" d="M404.493 368.087H202.003C202.003 368.087 201.502 287.446 214.935 267.991C242.559 227.966 359.649 231.621 390.715 267.991C405.83 285.73 404.493 368.087 404.493 368.087Z" fill="#FFA7A7" stroke="#FFA7A7" stroke-linecap="round" stroke-linejoin="round"/>
<path fill-rule="evenodd" clip-rule="evenodd" d="M383.185 223.085C399.001 220.099 250.367 239.922 229.928 217.514C215.615 201.791 224.826 139.057 229.237 112.693C237.357 64.0989 352.531 36.0412 365.53 111.813C372.759 154.178 355.338 228.333 383.185 223.085Z" fill="#FAF0BE" stroke="#FAF0BE" stroke-linecap="round" stroke-linejoin="round"/>
<path d="M298.141 222.595C297.395 222.595 296.615 222.595 295.914 222.595C278.225 222.06 262.397 215.274 251.359 203.474C242.092 193.568 236.823 174.357 233.281 158.735C233.263 158.656 233.23 158.581 233.182 158.516C233.134 158.451 233.073 158.396 233.002 158.356C232.921 158.346 232.839 158.346 232.757 158.356C232.684 158.345 232.608 158.345 232.535 158.356C232.054 158.585 231.53 158.706 230.997 158.713C227.856 158.713 225.294 154.634 225.294 149.609C225.294 144.94 227.522 140.962 230.496 140.55C230.628 140.529 230.748 140.461 230.834 140.358C230.919 140.256 230.966 140.126 230.964 139.993V139.358C230.964 138.767 230.964 138.154 230.964 137.553C230.964 116.66 237.926 98.7531 251.114 85.7828C263.366 73.6594 280.23 66.9737 298.431 66.9737C336.403 66.9291 362.021 95.2988 362.021 137.53C362.021 137.753 362.021 137.976 362.021 138.199V138.745C362.025 138.889 362.08 139.028 362.177 139.135C362.228 139.187 362.288 139.228 362.356 139.255C362.423 139.281 362.495 139.294 362.567 139.291V139.291C366.087 139.291 368.916 142.834 368.916 147.18C368.916 151.526 366.076 155.069 362.59 155.069C362.079 155.072 361.571 154.993 361.086 154.835H360.93C360.792 154.835 360.659 154.888 360.559 154.984C360.46 155.079 360.401 155.21 360.395 155.348C357.744 196.821 333.885 222.595 298.141 222.595Z" fill="#E5CDC2"/>
<path d="M298.331 67.4752C316.097 67.4752 332.092 74.0941 343.364 86.0949C355.227 98.7309 361.509 116.515 361.509 137.508C361.509 137.731 361.509 137.943 361.509 138.165C361.509 138.388 361.509 138.522 361.509 138.7C361.507 138.991 361.619 139.271 361.821 139.48C361.921 139.582 362.041 139.662 362.173 139.716C362.305 139.769 362.447 139.795 362.59 139.792H362.645C365.82 139.792 368.393 143.135 368.393 147.147C368.393 151.158 365.798 154.49 362.612 154.49C362.158 154.488 361.707 154.416 361.275 154.278C361.172 154.262 361.067 154.262 360.963 154.278C360.74 154.281 360.523 154.351 360.34 154.479C360.206 154.573 360.094 154.696 360.014 154.839C359.933 154.981 359.884 155.14 359.872 155.303C357.254 196.532 333.607 222.082 298.164 222.082C297.417 222.082 296.649 222.082 295.936 222.082C278.392 221.559 262.709 214.828 251.771 203.139C242.593 193.323 237.358 174.168 233.827 158.646C233.789 158.489 233.718 158.341 233.618 158.215C233.518 158.088 233.392 157.984 233.247 157.911C233.093 157.843 232.926 157.809 232.757 157.81C232.603 157.81 232.451 157.844 232.312 157.911C231.902 158.097 231.458 158.195 231.009 158.2C228.213 158.2 225.851 154.278 225.851 149.643C225.851 145.185 227.934 141.497 230.585 141.129C230.849 141.087 231.088 140.951 231.26 140.746C231.432 140.542 231.524 140.282 231.521 140.015V139.391C231.521 138.804 231.521 138.203 231.521 137.586C231.521 116.849 238.427 99.0652 251.504 86.1952C263.756 74.1832 280.397 67.5532 298.453 67.5532L298.331 67.4752ZM298.453 66.4389C261.918 66.4389 230.441 93.2932 230.441 137.564C230.441 138.388 230.441 139.213 230.496 140.026C227.322 140.472 224.827 144.595 224.827 149.62C224.827 154.947 227.622 159.27 231.075 159.27C231.681 159.266 232.278 159.129 232.824 158.869C236.288 174.123 241.524 193.701 251.036 203.864C262.687 216.333 279.206 222.651 295.958 223.163H298.264C334.587 223.163 358.413 196.933 361.064 155.359C361.6 155.529 362.16 155.615 362.723 155.615C366.51 155.615 369.585 151.838 369.585 147.18C369.585 142.522 366.522 138.756 362.723 138.756C362.723 138.355 362.723 137.943 362.723 137.541C362.723 93.2709 334.977 66.4055 298.453 66.4055V66.4389Z" fill="#E5CDC2"/>
<path d="M269.192 153.776C267.744 153.776 266.173 151.136 266.173 147.18C266.173 143.224 267.744 140.594 269.192 140.594C270.64 140.594 272.222 143.235 272.222 147.18C272.222 151.124 270.685 153.776 269.192 153.776Z" fill="#4E4E4E"/>
<path d="M269.192 141.141C270.205 141.141 271.676 143.503 271.676 147.191C271.676 150.88 270.205 153.242 269.192 153.242C268.178 153.242 266.719 150.88 266.719 147.191C266.719 143.503 268.189 141.141 269.192 141.141ZM269.192 140.026C267.231 140.026 265.627 143.224 265.627 147.158C265.627 151.091 267.231 154.3 269.192 154.3C271.152 154.3 272.767 151.102 272.767 147.158C272.767 143.213 271.163 140.026 269.192 140.026Z" fill="#4E4E4E"/>
<path d="M315.796 153.776C314.08 153.776 312.632 150.768 312.632 147.18C312.632 143.592 314.08 140.594 315.796 140.594C317.511 140.594 318.959 143.603 318.959 147.18C318.959 150.757 317.466 153.776 315.796 153.776Z" fill="#333333"/>
<path d="M315.796 141.141C316.91 141.141 318.414 143.436 318.414 147.191C318.414 150.946 316.899 153.242 315.796 153.242C314.693 153.242 313.178 150.946 313.178 147.191C313.178 143.436 314.693 141.141 315.796 141.141ZM315.796 140.026C313.747 140.026 312.087 143.224 312.087 147.158C312.087 151.091 313.747 154.3 315.796 154.3C317.846 154.3 319.505 151.102 319.505 147.158C319.505 143.213 317.846 140.026 315.796 140.026Z" fill="#4E4E4E"/>
<path d="M315.328 181.923C308.823 199.685 276.343 197.813 269.815 184.731Z" fill="white"/>
<path d="M126 543.5L122 401H479.417L476.783 541.672C410.729 583.072 374.78 596.969 303.482 600.672C223.659 595.345 183.274 583.942 126 543.5Z" fill="#DDBE91"/>
<path d="M478.888 401.672L474.339 541.355H128.629L123.068 401.672H478.888ZM480 401H122L127.561 542H475.351L479.989 401H480Z" fill="#DDBE91"/>
<path d="M330.833 409.973C250.634 409.973 159.476 406.63 80.7477 400.736C71.0013 400.011 64.2179 378.171 63.5162 358.393C62.9592 341.445 66.8466 329.823 73.4407 328.853C125.536 321.231 207.973 319.616 267.955 319.616C357.365 319.616 460.921 323.326 525.659 328.853C531.529 329.355 535.238 338.035 535.573 352.086C535.78 362.805 534.257 373.487 531.061 383.721C527.72 394.05 523.131 400.089 518.241 400.736C472.216 406.875 409.171 409.973 330.833 409.973Z" fill="#DBBA8B"/>
<path d="M267.978 320.173C357.354 320.173 460.877 323.883 525.604 329.41C531.173 329.889 534.693 338.38 535.027 352.108C535.241 362.765 533.737 373.387 530.572 383.564C527.308 393.537 522.774 399.599 518.196 400.212C472.194 406.34 409.182 409.449 330.911 409.449C250.713 409.449 159.576 406.106 80.8704 400.212C76.6265 399.889 72.5386 395.053 69.353 386.584C66.1692 377.497 64.4071 367.973 64.129 358.348C63.5497 341.69 67.2478 330.324 73.5523 329.377C125.603 321.744 208.007 320.15 268 320.15L267.978 320.173ZM268 319.036C191.578 319.036 118.82 321.632 73.4075 328.274C55.3962 330.926 62.6475 399.889 80.7924 401.237C150.442 406.485 243.038 410.53 330.833 410.53C401.085 410.53 468.295 407.945 518.263 401.293C536.308 398.886 543.793 329.878 525.648 328.329C464.764 323.137 363.458 319.092 267.911 319.092L268 319.036Z" fill="#DBBA8B"/>
<path d="M132.754 335.193C123.03 335.193 116.046 334.58 112.549 333.422C109.051 332.263 107.436 324.719 107.603 317.822C107.759 310.634 109.742 305.286 112.526 304.517C117.572 303.113 126.884 302.801 133.801 302.801C147.702 302.801 160.812 303.915 162.35 304.495C166.415 306.021 168.108 315.337 167.362 323.092C166.783 329.02 164.9 332.965 162.45 333.377C152.601 334.628 142.682 335.235 132.754 335.193V335.193Z" fill="#4E4E4E"/>
<path d="M133.801 302.277V303.392C147.413 303.392 160.69 304.506 162.149 305.041C165.145 306.155 167.718 313.699 166.816 323.092C166.27 328.664 164.522 332.519 162.361 332.898C157.281 333.756 144.539 334.67 132.754 334.67C123.097 334.67 116.169 334.068 112.705 332.92C109.92 331.995 107.948 325.532 108.115 317.877C108.282 311.047 110.143 305.776 112.649 305.074C116.592 303.96 123.899 303.392 133.812 303.392V302.277H133.801ZM133.812 302.277C125.269 302.277 116.982 302.723 112.393 304.004C105.242 305.999 105.342 331.605 112.393 333.934C116.38 335.249 124.278 335.728 132.765 335.728C144.461 335.728 157.27 334.826 162.55 333.934C169.879 332.708 169.98 306.812 162.55 304.004C160.779 303.325 146.956 302.277 133.812 302.277V302.277Z" fill="#4E4E4E"/>
<path d="M143.492 265.172H129.558V302.589H143.492V265.172Z" fill="#333333" stroke="#333333" stroke-linecap="round" stroke-linejoin="round"/>
<path d="M140.696 273.919L129.769 265.216L168.944 217.224L179.882 225.916L140.696 273.919Z" fill="#333333" stroke="#333333" stroke-linecap="round" stroke-linejoin="round"/>
<path d="M185.429 228.356C178.59 228.356 166.894 217.815 165.58 211.842C164.8 208.321 166.894 202.66 171.149 196.721C176.641 189.088 183.803 183.417 188.559 182.926C188.748 182.915 188.938 182.915 189.127 182.926C192.881 182.926 199.007 186.336 203.708 191.049C206.871 194.214 208.687 197.323 208.675 199.607C208.675 203.875 205.534 210.75 200.667 217.023C195.654 223.542 190.04 227.888 186.019 228.344C185.823 228.358 185.626 228.362 185.429 228.356V228.356Z" fill="#4E4E4E"/>
<path d="M189.161 183.439C192.714 183.439 198.818 186.871 203.351 191.417C206.414 194.493 208.163 197.457 208.163 199.585C208.163 208.187 194.674 226.773 185.997 227.776H185.429C178.924 227.776 167.362 217.369 166.115 211.686C165.368 208.343 167.429 202.772 171.628 197C176.953 189.612 184.115 183.907 188.659 183.428H189.161V183.439ZM189.161 182.313C188.953 182.302 188.745 182.302 188.537 182.313C179.18 183.294 163.007 202.638 165.045 211.887C166.46 218.283 178.579 228.813 185.429 228.813C185.663 228.813 185.897 228.813 186.12 228.813C195.354 227.698 209.244 208.878 209.266 199.54C209.266 192.988 196.044 182.313 189.161 182.313V182.313Z" fill="#4E4E4E"/>
<path d="M327.403 214.661H265.171V243.666H327.403V214.661Z" fill="#E5CDC2" stroke="#E5CDC2" stroke-linecap="round" stroke-linejoin="round"/>
<path d="M234.907 140.606C232 140.606 229.984 139.759 228.937 138.132C226.709 134.577 226.286 129.519 227.767 123.145C231.81 105.706 248.931 83.2089 260.348 76.2112C267.098 72.0884 284.585 66.8401 294.61 66.8401C297.629 66.8401 299.645 67.3638 300.324 68.3221C299.077 71.8767 284.563 112.971 278.248 119.323C271.297 126.332 246.848 140.606 234.907 140.606V140.606Z" fill="#FAF0BE"/>
<path d="M294.61 67.386C297.952 67.386 299.233 68.0211 299.712 68.5003C297.907 73.626 283.962 112.86 277.869 118.989C270.963 125.942 246.681 140.16 234.907 140.16C232.189 140.16 230.329 139.402 229.393 137.931C227.166 134.499 226.843 129.597 228.28 123.357C232.289 106.029 249.242 83.6991 260.582 76.7683C267.265 72.6677 284.63 67.4751 294.577 67.4751L294.61 67.386ZM294.577 66.3608C284.897 66.3608 267.153 71.4531 260.047 75.7988C244.13 85.5265 218.834 123.29 228.469 138.477C229.694 140.394 231.966 141.207 234.896 141.207C247.371 141.207 271.854 126.599 278.626 119.78C285.399 112.96 300.904 68.322 300.904 68.322C300.202 66.9291 297.852 66.3608 294.588 66.3608H294.577Z" fill="#FAF0BE"/>
<path d="M352.475 140.94C339.321 140.94 319.505 133.218 313.735 127.212C307.464 120.694 291.959 74.9633 291.246 72.835C291.204 72.2266 291.287 71.616 291.49 71.041C291.693 70.4661 292.012 69.9389 292.427 69.4921C293.964 67.8764 297.038 67.0295 301.338 67.0295C311.875 67.0295 328.906 72.1998 337.772 78.0944C351.996 87.499 370.821 123.446 362.689 137.196C361.241 139.659 357.722 140.94 352.475 140.94Z" fill="#FAF0BE"/>
<path d="M301.349 66.4612V67.5755C311.808 67.5755 328.683 72.7012 337.472 78.5512C344.3 83.0975 352.62 94.2515 358.156 106.341C364.227 119.568 365.73 131.012 362.211 136.962C360.518 139.826 355.973 140.427 352.464 140.427C346.539 140.427 338.563 138.767 330.588 135.848C323.136 133.129 316.832 129.686 314.125 126.878C307.988 120.504 292.772 75.7209 291.781 72.7792C291.743 72.2491 291.815 71.7168 291.993 71.2161C292.171 70.7154 292.452 70.2573 292.817 69.8709C294.231 68.3666 297.183 67.5866 301.338 67.5866V66.4723L301.349 66.4612ZM301.338 66.4723C294.933 66.4723 290.478 68.2886 290.7 72.9575C290.7 72.9575 306.785 120.805 313.345 127.624C319.238 133.731 339.421 141.508 352.475 141.508C357.499 141.508 361.475 140.394 363.157 137.508C371.5 123.412 352.487 87.2203 338.084 77.6375C329.608 71.9992 312.521 66.4946 301.327 66.4946L301.338 66.4723Z" fill="#FAF0BE"/>
<path fill-rule="evenodd" clip-rule="evenodd" d="M326.522 252.937L295.189 267.991L264.714 251.254L265.56 219.464L296.905 204.399L327.369 221.135L326.522 252.937Z" fill="#E5CDC2" stroke="#E5CDC2" stroke-linecap="round" stroke-linejoin="round"/>
<path d="M295.356 267.512C295.356 267.512 284.218 278.655 279.929 278.655C270.283 278.577 248.819 246.129 248.819 246.129L264.235 240.903L295.356 267.512Z" fill="#FF6D6D" stroke="#FF6D6D" stroke-linecap="round" stroke-linejoin="round"/>
<path d="M296.058 268.225C296.058 268.225 307.832 279.958 312.443 279.802C322.913 279.434 345.982 244.613 345.982 244.613L327.402 239.933L296.058 268.225Z" fill="#FF6D6D" stroke="#FF6D6D" stroke-linecap="round" stroke-linejoin="round"/>
</g>
<defs>
<clipPath id="clip0">
<rect width="600" height="600" fill="white"/>
</clipPath>
</defs>
</svg>
