<svg xmlns="http://www.w3.org/2000/svg" viewBox="0 0 508 508"><defs><style>.cls-1{fill:#b7dfe6;}.cls-2{fill:#c7cfe2;}.cls-3{fill:#afb9d2;}.cls-4{fill:#959cb3;}.cls-5{fill:#464655;}.cls-6{fill:#fff;}.cls-7{fill:none;}.cls-8{fill:#f6d5d6;}.cls-9{fill:#dacae5;}.cls-10{fill:#95caf6;}.cls-11{fill:#fffde0;}.cls-12{fill:#ffdfba;}.cls-13{fill:#ffa4b8;}.cls-14{fill:#d6f4fc;}.cls-15{fill:#c79a83;}.cls-16{fill:#ffebd2;}.cls-17{fill:#ffd6a6;}.cls-18{fill:#e0b7a3;}.cls-19{fill:#fff3e4;}.cls-20{fill:#ffb1bf;}.cls-21{fill:#ff99af;}.cls-22{fill:#bdeffc;}.cls-23{fill:#42434d;}.cls-24{fill:#ffaa64;}.cls-25{fill:#ffbd7b;}.cls-26{fill:#faa157;}.cls-27{fill:#2c2c33;}.cls-28{fill:#a07765;}.cls-29{fill:#4d4e59;}.cls-30{fill:#f2d1c2;}.cls-31{fill:#ffec8f;}.cls-32{fill:#f7c388;}.cls-33{fill:#fff2b3;}.cls-34{fill:#3fa9f5;}</style></defs><g id="Layer_2" data-name="Layer 2"><g id="Layer_1-2" data-name="Layer 1"><circle class="cls-1" cx="254" cy="254" r="254"/><path class="cls-2" d="M427,375.69H80.15a12.84,12.84,0,0,1-12.84-12.85v-6.42A6.41,6.41,0,0,1,73.73,350H433.38a6.42,6.42,0,0,1,6.42,6.42v6.42A12.85,12.85,0,0,1,427,375.69Z"/><path class="cls-3" d="M80.15,375.69H427a12.85,12.85,0,0,0,12.84-12.85H67.31A12.85,12.85,0,0,0,80.15,375.69Z"/><path class="cls-4" d="M279.71,362.84H227.4a9.64,9.64,0,0,1-8.62-5.32L215,350h77.07l-3.76,7.52A9.64,9.64,0,0,1,279.71,362.84Z"/><path class="cls-5" d="M427,350H80.15V144.48A12.84,12.84,0,0,1,93,131.64H414.11A12.84,12.84,0,0,1,427,144.48Z"/><rect class="cls-6" x="99.42" y="150.91" width="308.27" height="179.82"/><line class="cls-7" x1="99.5" y1="240.8" x2="407.97" y2="240.8"/><line class="cls-7" x1="253.74" y1="150.59" x2="253.74" y2="331.02"/><rect class="cls-8" x="99.5" y="150.59" width="154.24" height="90.21"/><rect class="cls-9" x="253.74" y="240.8" width="154.24" height="90.21"/><rect class="cls-10" x="99.5" y="240.8" width="154.24" height="90.21"/><rect class="cls-11" x="253.01" y="150.59" width="154.24" height="90.21"/><path class="cls-12" d="M359.61,323v6.51a1.32,1.32,0,0,1-1.33,1.32h-48.4a1.33,1.33,0,0,1-1.33-1.32V323a12.33,12.33,0,0,1,5-9.91V270.39A16.49,16.49,0,0,1,330,253.9h8.29a16.49,16.49,0,0,1,16.49,16.49v42.8a12.34,12.34,0,0,1,4.81,9.79Z"/><path class="cls-13" d="M359.61,323v6.51a1.32,1.32,0,0,1-1.33,1.32h-48.4a1.33,1.33,0,0,1-1.33-1.32V323a12.36,12.36,0,0,1,12.37-12.36,6.8,6.8,0,0,0,4.05-1.33l.3,1.93,8,6.2a1.32,1.32,0,0,0,1.62,0l8-6.2.3-1.93a6.81,6.81,0,0,0,4.06,1.33A12.36,12.36,0,0,1,359.61,323Z"/><path class="cls-14" d="M342.89,311.22l-3,19.59H328.29l-3-19.59,8,6.2a1.32,1.32,0,0,0,1.62,0Z"/><path class="cls-15" d="M350.49,287.4v-8.17a1.32,1.32,0,0,0-.87-1.25,13.09,13.09,0,0,1-6.88-5.73,1.32,1.32,0,0,0-2.14-.22,33.82,33.82,0,0,1-21.76,11.55,1.34,1.34,0,0,0-1.17,1.32v2.5a16.42,16.42,0,0,0,10.14,15.17l0,.06v1.13a6.86,6.86,0,0,1-6.86,6.86,12.3,12.3,0,0,0-7.39,2.45V270.39A16.49,16.49,0,0,1,330,253.9h8.29a16.49,16.49,0,0,1,16.49,16.49v42.8a12.33,12.33,0,0,0-7.55-2.57,6.87,6.87,0,0,1-6.87-6.86v-1.13l0-.06a16.41,16.41,0,0,0,10.13-15.17Z"/><path class="cls-16" d="M349.62,278a1.32,1.32,0,0,1,.87,1.25v8.17a16.41,16.41,0,1,1-32.82,0v-2.5a1.32,1.32,0,0,1,1.17-1.31A33.9,33.9,0,0,0,340.6,272a1.32,1.32,0,0,1,2.14.22,13.05,13.05,0,0,0,6.88,5.73Z"/><path class="cls-17" d="M340.57,305.35a16.41,16.41,0,0,1-13,0,10.46,10.46,0,0,0,.18-2.72l0-.06a16.44,16.44,0,0,0,12.55,0l0,.06a10,10,0,0,0,.19,2.72Z"/><path class="cls-18" d="M344.52,255.11a2,2,0,0,1-.83,3.77H335a16.49,16.49,0,0,0-16.49,16.49v7.36c0,1.21-.83,1.24-.83,2.18a21.78,21.78,0,0,0,.74,7.37,2.08,2.08,0,0,1,.09.6v16.46a2,2,0,0,1-1.35,1.87,12.2,12.2,0,0,0-3.62,1.87V270.39A16.49,16.49,0,0,1,330,253.9h8.29a16.44,16.44,0,0,1,6.21,1.21Z"/><path class="cls-19" d="M330.43,297.89a2.68,2.68,0,0,1-2.44,4.75,16.4,16.4,0,0,1-10.32-15.24v-2.5a1.32,1.32,0,0,1,1.17-1.31c.63-.08,1.27-.18,1.94-.29a1.65,1.65,0,0,1,1.94,1.48,16.73,16.73,0,0,0,7.71,13.11Z"/><path class="cls-20" d="M325.92,315.42c-7.78.2-12.56,6.05-12.56,12.36v3h-3.48a1.33,1.33,0,0,1-1.33-1.32V323a12.36,12.36,0,0,1,12.37-12.36,6.8,6.8,0,0,0,4.05-1.33c.38,2.44.18,1.16.95,6.13Z"/><path class="cls-21" d="M342.25,315.42c7.77.2,12.55,6.05,12.55,12.36v3h3.48a1.32,1.32,0,0,0,1.33-1.32V323a12.36,12.36,0,0,0-12.36-12.36,6.81,6.81,0,0,1-4.06-1.33c-.37,2.44-.18,1.16-.94,6.13Z"/><path class="cls-22" d="M331.6,330.81h-3.31l-3-19.59,3.76,2.92Z"/><path class="cls-15" d="M195.83,216.1a4.45,4.45,0,0,1,1.12-2.82,6.88,6.88,0,0,0-.42-8.67,4.72,4.72,0,0,1-1.2-3.13c0-.92.16-1.24,1.08-4.07a4.81,4.81,0,0,0-2.16-5.56,4.9,4.9,0,0,1-2.39-4.14c0-2.22,1.27-2.51,1.27-4.36a3.85,3.85,0,0,0-3-3.65,6.17,6.17,0,0,1-4.49-4.21l-.27-1a4.15,4.15,0,0,0-5.93-2.29,4.36,4.36,0,0,1-4.88-.59,5.61,5.61,0,0,0-7.43,0,4.34,4.34,0,0,1-4.87.59,4.16,4.16,0,0,0-5.94,2.29l-.27,1a6.15,6.15,0,0,1-4.49,4.21,3.7,3.7,0,0,0-2.49,5.52,4.76,4.76,0,0,1-1.66,6.63A4.9,4.9,0,0,0,145,196c0,.91.16,1.24,1.08,4.07a4.69,4.69,0,0,1-1,4.55,6.88,6.88,0,0,0-.42,8.67l.34.47a4,4,0,0,1-.23,5,4,4,0,0,0,.36,5.65c3.34,3.26,3.29,3.21,3.31,3.22a10.93,10.93,0,0,0-1.58,5.69v5.94a1.23,1.23,0,0,0,1.24,1.21H193.5a1.22,1.22,0,0,0,1.24-1.21V233.3a10.93,10.93,0,0,0-1.58-5.69s-.15.16,3.31-3.22a4,4,0,0,0,.36-5.65,4,4,0,0,1-1-2.64Z"/><path class="cls-18" d="M185,192.37a1.21,1.21,0,0,1,1.17,1.2v7.25a15,15,0,0,1-9.5,13.85c-10.09,4.08-21.27-3.17-21.27-13.85v-7.14a1.23,1.23,0,0,1,1.35-1.21,32.8,32.8,0,0,0,21-5.22,1.25,1.25,0,0,1,1.89.68,5.77,5.77,0,0,0,5.39,4.44Z"/><path class="cls-23" d="M196.53,204.61a6.88,6.88,0,0,1,.42,8.67,4.45,4.45,0,0,0-1.12,2.82,4,4,0,0,0,1,2.64,4,4,0,0,1-.36,5.65c-3.34,3.26-3.29,3.21-3.31,3.22a11.64,11.64,0,0,0-10-5.6,6.35,6.35,0,0,1-6.44-6.25v-1l0-.05a15,15,0,0,0,9.5-13.85v-7.25a1.21,1.21,0,0,0-1.17-1.2,5.76,5.76,0,0,1-5.39-4.44,1.25,1.25,0,0,0-1.89-.68,32.78,32.78,0,0,1-21,5.22,1.23,1.23,0,0,0-1.35,1.21v7.14a15,15,0,0,0,9.5,13.85l0,.05v1a6.35,6.35,0,0,1-6.44,6.25,11.64,11.64,0,0,0-10,5.6l-3.31-3.22a4,4,0,0,1-.36-5.65,4,4,0,0,0,.23-5l-.34-.47a6.88,6.88,0,0,1,.42-8.67,4.69,4.69,0,0,0,1-4.55c-.92-2.83-1.08-3.15-1.08-4.07a4.9,4.9,0,0,1,2.39-4.14,4.76,4.76,0,0,0,1.66-6.63,3.7,3.7,0,0,1,2.49-5.52,6.15,6.15,0,0,0,4.49-4.21l.27-1a4.16,4.16,0,0,1,5.94-2.29,4.34,4.34,0,0,0,4.87-.59,5.61,5.61,0,0,1,7.43,0,4.36,4.36,0,0,0,4.88.59,4.15,4.15,0,0,1,5.93,2.29l.27,1a6.17,6.17,0,0,0,4.49,4.21,3.85,3.85,0,0,1,3,3.65c0,1.85-1.27,2.14-1.27,4.36a4.9,4.9,0,0,0,2.39,4.14,4.81,4.81,0,0,1,2.16,5.56c-.92,2.83-1.08,3.15-1.08,4.07a4.72,4.72,0,0,0,1.2,3.13Z"/><path class="cls-24" d="M194.74,233.3v5.94a1.22,1.22,0,0,1-1.24,1.21H148.11a1.23,1.23,0,0,1-1.24-1.21V233.3A11.44,11.44,0,0,1,158.46,222a6.51,6.51,0,0,0,3.8-1.2l.28,1.76,7.5,5.66a1.31,1.31,0,0,0,1.53,0l7.5-5.66.28-1.76a6.53,6.53,0,0,0,3.8,1.2A11.44,11.44,0,0,1,194.74,233.3Z"/><path class="cls-23" d="M179.07,222.57l-2.83,17.88H165.37l-2.83-17.88,7.51,5.65a1.26,1.26,0,0,0,1.52,0Z"/><path class="cls-25" d="M163.15,226.4c-7.29.18-11.77,5.53-11.77,11.29v2.76h-3.27a1.23,1.23,0,0,1-1.24-1.21V233.3A11.44,11.44,0,0,1,158.46,222a6.51,6.51,0,0,0,3.8-1.2c.36,2.22.17,1.05.89,5.59Z"/><path class="cls-26" d="M178.46,226.4c7.29.18,11.78,5.53,11.78,11.29v2.76h3.26a1.22,1.22,0,0,0,1.24-1.21V233.3A11.44,11.44,0,0,0,183.15,222a6.53,6.53,0,0,1-3.8-1.2c-.35,2.22-.17,1.05-.89,5.59Z"/><path class="cls-27" d="M168.48,240.45h-3.11l-2.83-17.88,3.53,2.66Z"/><path class="cls-28" d="M176.89,217.21a15.84,15.84,0,0,1-12.17,0,9.16,9.16,0,0,0,.18-2.49l0-.05a15.86,15.86,0,0,0,11.77,0l0,.05A9.16,9.16,0,0,0,176.89,217.21Z"/><path class="cls-29" d="M185.33,174.52a1.62,1.62,0,0,1-1.08,2,4.66,4.66,0,0,0-.66.28,4.34,4.34,0,0,1-4.87-.59,5.61,5.61,0,0,0-7.43,0,4.36,4.36,0,0,1-4.88.59,4.15,4.15,0,0,0-5.93,2.29l-.27,1a6.16,6.16,0,0,1-4.49,4.21,3.7,3.7,0,0,0-2.49,5.52,4.77,4.77,0,0,1-1.67,6.63,4.92,4.92,0,0,0-2.39,4.14c0,.91.17,1.24,1.09,4.07a4.7,4.7,0,0,1-1,4.55,6.88,6.88,0,0,0-.42,8.67l.35.47a4,4,0,0,1-.23,5,4,4,0,0,0-.46.64,2.17,2.17,0,0,1-3.38.47,4,4,0,0,1-.36-5.65,4,4,0,0,0,.23-5l-.34-.47a6.88,6.88,0,0,1,.42-8.67,4.69,4.69,0,0,0,1-4.55c-.92-2.83-1.08-3.16-1.08-4.07a4.9,4.9,0,0,1,2.39-4.14,4.76,4.76,0,0,0,1.66-6.63,3.7,3.7,0,0,1,2.49-5.52,6.15,6.15,0,0,0,4.49-4.21l.27-1a4.16,4.16,0,0,1,5.94-2.29,4.34,4.34,0,0,0,4.87-.59,5.61,5.61,0,0,1,7.43,0,4.36,4.36,0,0,0,4.88.59,4.15,4.15,0,0,1,5.93,2.29Z"/><path class="cls-30" d="M167.86,210.86a2.32,2.32,0,0,1-2.09,4.11,14.93,14.93,0,0,1-10.35-14.15v-7.14a1.23,1.23,0,0,1,1.35-1.21c.59.06,1.25.1,1.95.12A2.33,2.33,0,0,1,161,194.9v3.5A14.82,14.82,0,0,0,167.86,210.86Z"/><path class="cls-17" d="M195.75,323.85v6.67a1.34,1.34,0,0,1-1.35,1.34H145.33a1.34,1.34,0,0,1-1.35-1.34v-6.67a12.56,12.56,0,0,1,12.6-12.46,7,7,0,0,0,4.26-1.51h0a6.91,6.91,0,0,0,2.62-5.43v-1.15l0-.06a16.64,16.64,0,0,1-10.27-15.38v-.53a4.15,4.15,0,0,1-4.21-4.12V270a16.14,16.14,0,0,1,16.14-16.13h9.58A16.13,16.13,0,0,1,190.85,270V283a4.36,4.36,0,0,1-4.37,4.37v.53a16.64,16.64,0,0,1-10.27,15.38l0,.06a7.46,7.46,0,0,0,2.64,6.6h0l0,0a7,7,0,0,0,4.26,1.51,12.56,12.56,0,0,1,12.6,12.46Z"/><path class="cls-23" d="M195.75,323.85v6.67a1.34,1.34,0,0,1-1.34,1.34H145.33a1.34,1.34,0,0,1-1.35-1.34v-6.67a12.56,12.56,0,0,1,12.6-12.46,7,7,0,0,0,4.26-1.5c1.35,1.35,3.49,3.15,4.1,6.81a12.91,12.91,0,0,0,9.84.08c.59-3.69,2.73-5.51,4.11-6.89a7,7,0,0,0,4.26,1.5A12.56,12.56,0,0,1,195.75,323.85Z"/><path class="cls-12" d="M186.48,287.87a16.64,16.64,0,1,1-33.27,0V283a1.36,1.36,0,0,1,.95-1.29,7.41,7.41,0,0,0,3.25-1.91c3.23-3.35,1.07-8.28,4.7-11.09a5.66,5.66,0,0,1,7-.28,1.34,1.34,0,0,0,1.53,0,5.65,5.65,0,0,1,7,.28c3.63,2.81,1.47,7.74,4.7,11.09a7.41,7.41,0,0,0,3.25,1.91,1.36,1.36,0,0,1,.95,1.29v4.89Z"/><path class="cls-31" d="M190.85,270V283a4.36,4.36,0,0,1-4.37,4.37V283a1.34,1.34,0,0,0-.95-1.28,7.51,7.51,0,0,1-3.25-1.92c-3.23-3.35-1.07-8.28-4.7-11.09a5.66,5.66,0,0,0-7-.28,1.34,1.34,0,0,1-1.53,0,5.66,5.66,0,0,0-7,.28c-3.63,2.81-1.47,7.74-4.7,11.09a7.51,7.51,0,0,1-3.25,1.92,1.34,1.34,0,0,0-.95,1.28v4.36a4.15,4.15,0,0,1-4.21-4.12V270a16.14,16.14,0,0,1,16.14-16.13h9.58A16.13,16.13,0,0,1,190.85,270Z"/><path class="cls-14" d="M174.78,316.78c-.17,1.08-.13.34-.13,15.08h-9.57c0-14.72,0-14-.14-15.16a12.91,12.91,0,0,0,9.84.08Z"/><path class="cls-22" d="M167.26,331.86h-2.18c0-14.72,0-14-.14-15.16a10.66,10.66,0,0,0,2.28.73c.06.68,0-.2,0,14.43Z"/><path class="cls-29" d="M160.93,315.76a12.51,12.51,0,0,0-12.58,12.42v3.68h-3a1.34,1.34,0,0,1-1.35-1.34v-6.66a12.56,12.56,0,0,1,12.6-12.47,7,7,0,0,0,4.26-1.5,25.7,25.7,0,0,1,2,2.07,2.32,2.32,0,0,1-1.89,3.8Z"/><path class="cls-27" d="M178.78,315.78a12.51,12.51,0,0,1,12.58,12.42v3.68h3a1.34,1.34,0,0,0,1.35-1.34v-6.66a12.56,12.56,0,0,0-12.6-12.47,7,7,0,0,1-4.26-1.5,25.7,25.7,0,0,0-2,2.07,2.32,2.32,0,0,0,1.89,3.8Z"/><path class="cls-32" d="M176.42,306.07a16.68,16.68,0,0,1-13.15,0,10.32,10.32,0,0,0,.19-2.76l0-.06a16.71,16.71,0,0,0,12.73,0l0,.06a10.32,10.32,0,0,0,.19,2.76Z"/><path class="cls-33" d="M180.63,255a2,2,0,0,1-.77,3.93h-9.68a16.13,16.13,0,0,0-16.13,16.13v5.69c0,1.23-.84,1.28-.84,2.22v.29c0,2.7-4.06,2.85-4.2.16,0-.16,0-13.56,0-13.4a16.14,16.14,0,0,1,16.14-16.13h9.58A16.13,16.13,0,0,1,180.63,255Z"/><path class="cls-16" d="M165.9,298.81a2.53,2.53,0,0,1-2.23,4.52,16.65,16.65,0,0,1-10.46-15.46V283a1.33,1.33,0,0,1,.93-1.28,8.28,8.28,0,0,0,2-.9,1,1,0,0,1,1.59.89v2.82a16.51,16.51,0,0,0,8.16,14.3Z"/><path class="cls-34" d="M342.44,180.5l-8.7,6.52c-.81-4.68-4.47-8.23-8.87-8.23H306.81c-5,0-9,4.55-9,10.16v20.3c0,5.61,4,10.16,9,10.16h18.06c4.4,0,8.06-3.54,8.87-8.23l8.7,6.52c6,4.5,14-.35,14-8.45V189C356.48,180.86,348.44,176,342.44,180.5Z"/></g></g></svg>