<?xml version="1.0" encoding="utf-8"?>
<!-- Generator: Adobe Illustrator 24.0.0, SVG Export Plug-In . SVG Version: 6.00 Build 0)  -->
<svg version="1.1" id="Layer_1" xmlns="http://www.w3.org/2000/svg" xmlns:xlink="http://www.w3.org/1999/xlink" x="0px" y="0px"
	 viewBox="0 0 1980 1980" style="enable-background:new 0 0 1980 1980;" xml:space="preserve">
<style type="text/css">
	.st0{opacity:0.3;fill:none;stroke:#4497FF;stroke-width:10;stroke-linecap:round;stroke-linejoin:round;stroke-miterlimit:10;}
	.st1{fill:none;stroke:#566ED1;stroke-width:40;stroke-linecap:round;stroke-miterlimit:10;}
	.st2{fill:none;stroke:#25497A;stroke-width:40;stroke-miterlimit:10;}
	.st3{fill:#26497A;}
	.st4{fill:#4497FF;}
	.st5{fill:#E4F2FF;}
	.st6{fill:none;stroke:#B7DFE6;stroke-width:20;stroke-linecap:round;stroke-miterlimit:10;}
	.st7{fill:none;stroke:#E4F2FF;stroke-width:8;stroke-linecap:round;stroke-linejoin:round;}
	.st8{fill:none;stroke:#E4F2FF;stroke-width:8;stroke-linecap:round;stroke-linejoin:round;stroke-dasharray:4.755,19.02;}
	.st9{fill:none;stroke:#25497A;stroke-width:8;stroke-linecap:round;stroke-linejoin:round;stroke-miterlimit:10;}
	.st10{fill:none;stroke:#E4F2FF;stroke-width:8;stroke-linecap:round;stroke-linejoin:round;stroke-dasharray:4.9167,19.6667;}
	.st11{opacity:0.3;}
	.st12{fill:none;}
	.st13{fill:#25497A;}
	.st14{fill:#B7DFE6;}
	.st15{fill:#D4F1FF;}
	.st16{fill:#E4F2FF;stroke:#E4F2FF;stroke-width:1.5;stroke-miterlimit:10;}
	.st17{fill:none;stroke:#4497FF;stroke-width:6;stroke-linecap:round;stroke-miterlimit:10;}
	.st18{fill:none;stroke:#4497FF;stroke-width:6;stroke-linecap:round;stroke-linejoin:round;}
</style>
<g>
	<g>
		<g id="组_38_21_">
			<circle id="椭圆_13-2_21_" class="st4" cx="990" cy="990" r="902"/>
		</g>
	</g>
	<g>
		<path class="st3" d="M1213.8,753.9c-122.2-122.2-321.1-122.2-443.3,0c-104.6,104.6-119.6,265.4-45.1,386.2l-255,255
			c-9.4,9.4-14.5,21.8-14.5,35.1c0,13.3,5.2,25.7,14.5,35.1c9.4,9.4,21.8,14.5,35.1,14.5c13.3,0,25.7-5.2,35.1-14.5l249.9-249.9
			c123,103.7,307.6,97.7,423.4-18.2C1336.1,1075,1336.1,876.1,1213.8,753.9z M1158.6,1142c-91.8,91.8-241,91.8-332.8,0
			c-91.8-91.8-91.8-241,0-332.8c91.8-91.8,241-91.8,332.8,0C1250.3,900.9,1250.3,1050.2,1158.6,1142z"/>
		<path class="st5" d="M1158.6,809.2c-91.9-91.9-240.9-91.9-332.8,0s-91.9,240.9,0,332.8s240.9,91.9,332.8,0
			C1250.5,1050.1,1250.5,901.1,1158.6,809.2z M1121.3,858.8c-8.2,8.2-21.6,8.2-29.8,0c-54.8-54.8-143.9-54.8-198.6,0
			c-4.1,4.1-9.5,6.2-14.9,6.2s-10.8-2.1-14.9-6.2c-8.2-8.2-8.2-21.6,0-29.8c71.2-71.2,187-71.2,258.2,0
			C1129.5,837.2,1129.5,850.5,1121.3,858.8z"/>
	</g>
</g>
</svg>
