<?xml version="1.0" encoding="utf-8"?>
<!-- Generator: Adobe Illustrator 24.0.0, SVG Export Plug-In . SVG Version: 6.00 Build 0)  -->
<svg version="1.1" id="Layer_1" xmlns="http://www.w3.org/2000/svg" xmlns:xlink="http://www.w3.org/1999/xlink" x="0px" y="0px"
	 viewBox="0 0 1980 1980" style="enable-background:new 0 0 1980 1980;" xml:space="preserve">
<style type="text/css">
	.st0{opacity:0.3;fill:none;stroke:#4497FF;stroke-width:10;stroke-linecap:round;stroke-linejoin:round;stroke-miterlimit:10;}
	.st1{fill:none;stroke:#566ED1;stroke-width:40;stroke-linecap:round;stroke-miterlimit:10;}
	.st2{fill:none;stroke:#25497A;stroke-width:40;stroke-miterlimit:10;}
	.st3{fill:#26497A;}
	.st4{fill:#4497FF;}
	.st5{fill:#E4F2FF;}
	.st6{fill:none;stroke:#B7DFE6;stroke-width:20;stroke-linecap:round;stroke-miterlimit:10;}
	.st7{fill:none;stroke:#E4F2FF;stroke-width:8;stroke-linecap:round;stroke-linejoin:round;}
	.st8{fill:none;stroke:#E4F2FF;stroke-width:8;stroke-linecap:round;stroke-linejoin:round;stroke-dasharray:4.755,19.02;}
	.st9{fill:none;stroke:#25497A;stroke-width:8;stroke-linecap:round;stroke-linejoin:round;stroke-miterlimit:10;}
	.st10{fill:none;stroke:#E4F2FF;stroke-width:8;stroke-linecap:round;stroke-linejoin:round;stroke-dasharray:4.9167,19.6667;}
	.st11{opacity:0.3;}
	.st12{fill:none;}
	.st13{fill:#25497A;}
	.st14{fill:#B7DFE6;}
	.st15{fill:#D4F1FF;}
	.st16{fill:#E4F2FF;stroke:#E4F2FF;stroke-width:1.5;stroke-miterlimit:10;}
	.st17{fill:none;stroke:#4497FF;stroke-width:6;stroke-linecap:round;stroke-miterlimit:10;}
	.st18{fill:none;stroke:#4497FF;stroke-width:6;stroke-linecap:round;stroke-linejoin:round;}
</style>
<g>
	<g>
		<g id="组_38_20_">
			<circle id="椭圆_13-2_20_" class="st4" cx="990" cy="990" r="891"/>
		</g>
	</g>
	<g id="组_37_2_" transform="translate(-446 75)">
		<g id="_21_2_" transform="translate(1744.565 1587.158)">
			<path class="st5" d="M-332-1134.6L-332-1134.6c-0.2,0-0.4,0-0.6,0c-0.2,0-0.4,0-0.6,0v0c-156.8,0.7-283.6,128.1-283.6,285
				c0,70.2,25.8,137.7,72.7,190c0,0,90.4,117.4,106.8,170.6h104.1h1.2h104.1c16.7-53.5,106.8-170.6,106.8-170.6
				c47.1-52.3,72.9-120.1,72.9-190C-48.1-1006.5-175.1-1133.9-332-1134.6z M-394.2-996.9c-49.8,0.1-90.4,40.8-90.5,90.7
				c0,17.5-14.2,31.6-31.6,31.6c0,0,0,0-0.1,0c-17.5,0-31.6-14.2-31.6-31.7c0.2-84.7,69.1-153.7,153.7-153.8c0,0,0,0,0.1,0
				c17.4,0,31.6,14.1,31.6,31.6C-362.6-1011.1-376.7-996.9-394.2-996.9z"/>
			<path id="路径_258_2_" class="st13" d="M-443.2-317c0,59.2,47.9,107.3,107.3,107.3c59.2,0,107.3-47.9,107.3-107.3
				s-47.9-107.3-107.3-107.3l0,0C-395.3-424.3-443.2-376.2-443.2-317z"/>
			<path class="st14" d="M-219.3-500.1h-113.7v0h-112.7c-20.1,0-36.6,16.5-36.6,36.6c0,20.1,16.5,36.6,36.6,36.6H-332v0h112.7
				c20.1,0,36.6-16.2,36.6-36.6C-182.7-483.7-199.1-500.1-219.3-500.1z"/>
			<path class="st14" d="M-219.5-356H-332h-1.2h-112.5c-20.1,0-36.6,16.5-36.6,36.6c0,20.1,16.5,36.6,36.6,36.6h112.5h1.2h112.5
				c20.1,0,36.6-16.5,36.6-36.6C-182.9-339.6-199.4-356-219.5-356z"/>
			<path class="st13" d="M-219.5-428H-332v-0.2h-113.7c-20.1,0-36.6,16.5-36.6,36.6c0,20.1,16.5,36.6,36.6,36.6h112.5v0.2h113.7
				c20.1,0,36.6-16.5,36.6-36.6C-182.9-411.5-199.4-428-219.5-428z"/>
		</g>
	</g>
</g>
</svg>
