<?xml version="1.0" encoding="utf-8"?>
<!-- Generator: Adobe Illustrator 24.0.0, SVG Export Plug-In . SVG Version: 6.00 Build 0)  -->
<svg version="1.1" id="Layer_1" xmlns="http://www.w3.org/2000/svg" xmlns:xlink="http://www.w3.org/1999/xlink" x="0px" y="0px"
	 viewBox="0 0 1980 1980" style="enable-background:new 0 0 1980 1980;" xml:space="preserve">
<style type="text/css">
	.st0{opacity:0.3;fill:none;stroke:#4497FF;stroke-width:10;stroke-linecap:round;stroke-linejoin:round;stroke-miterlimit:10;}
	.st1{fill:none;stroke:#566ED1;stroke-width:40;stroke-linecap:round;stroke-miterlimit:10;}
	.st2{fill:none;stroke:#25497A;stroke-width:40;stroke-miterlimit:10;}
	.st3{fill:#26497A;}
	.st4{fill:#4497FF;}
	.st5{fill:#E4F2FF;}
	.st6{fill:none;stroke:#B7DFE6;stroke-width:20;stroke-linecap:round;stroke-miterlimit:10;}
	.st7{fill:none;stroke:#E4F2FF;stroke-width:8;stroke-linecap:round;stroke-linejoin:round;}
	.st8{fill:none;stroke:#E4F2FF;stroke-width:8;stroke-linecap:round;stroke-linejoin:round;stroke-dasharray:4.755,19.02;}
	.st9{fill:none;stroke:#25497A;stroke-width:8;stroke-linecap:round;stroke-linejoin:round;stroke-miterlimit:10;}
	.st10{fill:none;stroke:#E4F2FF;stroke-width:8;stroke-linecap:round;stroke-linejoin:round;stroke-dasharray:4.9167,19.6667;}
	.st11{opacity:0.3;}
	.st12{fill:none;}
	.st13{fill:#25497A;}
	.st14{fill:#B7DFE6;}
	.st15{fill:#D4F1FF;}
	.st16{fill:#E4F2FF;stroke:#E4F2FF;stroke-width:1.5;stroke-miterlimit:10;}
	.st17{fill:none;stroke:#4497FF;stroke-width:6;stroke-linecap:round;stroke-miterlimit:10;}
	.st18{fill:none;stroke:#4497FF;stroke-width:6;stroke-linecap:round;stroke-linejoin:round;}
</style>
<path class="st0" d="M-3088.1,1754l5.6-16.2c179.2-519.6-2.1-1095.3-446.6-1418.6l0,0"/>
<path class="st0" d="M-3428.9,241.9l-21.1,27.3c-318.8,412.2-489.8,919.6-485.7,1440.7v0l0,0c147.1-225.8,336.2-418.1,554.8-568
	c189.6-130,401.4-228,627.2-288.1l67.4-17.9l-135.3,33.6c-459.3,114.1-941.8,92.6-1389.2-61.8l0,0l35.8,12.4l0,0
	c474.5,158.4,887.4,461.8,1180.2,867.4l37.2,51.5l-37.9-49.4"/>
<line class="st1" x1="-6374.9" y1="347.2" x2="-6374.9" y2="542.3"/>
<circle class="st2" cx="-6374.9" cy="206.7" r="140.5"/>
<g id="UOQK6S.tif">
	
		<image style="overflow:visible;" width="674" height="462" id="Layer_0_1_" xlink:href="AC24399E7AB571AC.png"  transform="matrix(0.5 0 0 0.5 -6991.4805 -176.5261)">
	</image>
</g>
<g>
	<path class="st3" d="M-6548.8,886.6c-4.4-4.4-10.4-6.9-16.6-6.9s-12.2,2.4-16.6,6.9l-127.9,127.9c-4.4,4.4-6.9,10.4-6.9,16.6
		c0,6.3,2.4,12.2,6.9,16.6c4.4,4.4,10.4,6.9,16.6,6.9s12.2-2.4,16.6-6.9l127.9-127.9c4.4-4.4,6.9-10.4,6.9-16.6
		S-6544.4,891-6548.8,886.6z"/>
	<g>
		<path class="st4" d="M-6567.6,920.6c-58-58-58-152.3,0-210.3c58-58,152.3-58,210.3,0c58,58,58,152.3,0,210.3
			C-6415.3,978.6-6509.6,978.6-6567.6,920.6z M-6383.5,736.5c-43.5-43.5-114.4-43.5-157.9,0c-43.5,43.5-43.5,114.4,0,157.9
			c43.5,43.5,114.4,43.5,157.9,0C-6340,850.8-6340,780-6383.5,736.5z"/>
	</g>
	<circle class="st5" cx="-6462.4" cy="815.4" r="111.6"/>
	<path class="st6" d="M-6516.6,752.9c29.9-29.9,78.5-29.9,108.4,0"/>
</g>
<g>
	<g>
		<g>
			<line class="st7" x1="-6347.5" y1="-625.5" x2="-6345.7" y2="-623.8"/>
			<polyline class="st8" points="-6332.3,-610.3 -6277.5,-555.5 -6150.5,-555.5 			"/>
			<line class="st7" x1="-6141" y1="-555.5" x2="-6138.5" y2="-555.5"/>
		</g>
	</g>
	<polygon class="st9" points="-6347.5,-625.5 -6347.5,-469.5 -6277.5,-399.5 -6121.5,-399.5 -6121.5,-555.5 -6191.5,-625.5 	"/>
	<g>
		<g>
			<line class="st7" x1="-6277.5" y1="-543.5" x2="-6277.5" y2="-541"/>
			<line class="st10" x1="-6277.5" y1="-521.4" x2="-6277.5" y2="-432.9"/>
			<line class="st7" x1="-6277.5" y1="-423" x2="-6277.5" y2="-420.5"/>
		</g>
	</g>
	<polyline class="st9" points="-6191.5,-625.5 -6191.5,-469.5 -6347.5,-469.5 	"/>
	<line class="st9" x1="-6191.5" y1="-469.5" x2="-6121.5" y2="-399.5"/>
</g>
<g>
	<path class="st0" d="M-5730.8,1078.7l10.8,0c347.9-0.1,654.9-227.5,756.5-560.2l0,0"/>
	<path class="st0" d="M-5673.1,1090.8l-21.7,32.9l23.1-32.9c182.2-259,278.5-568.7,275.2-885.3v0"/>
	<g class="st11">
		<path class="st12" d="M-4919.5,549.5"/>
	</g>
	<path class="st0" d="M-5396.5,211.5L-5396.5,211.5c0,299.6,86.8,592.7,249.9,844l48.1,74l-24.6-36.6
		c-82.6-122.7-185-229.2-301.9-315.8c-134.8-99.8-288.9-173.2-454.4-214.6l0,0l0,0c310.9-110.1,649.8-112.6,962.3-7l20.7,7"/>
	<g>
		<path class="st13" d="M-5396.6,218.1l470.8,342.1l-179.8,553.5h-582l-179.8-553.5L-5396.6,218.1 M-5396.6,205.7l-482.6,350.6
			l184.3,567.3h596.5l184.3-567.3L-5396.6,205.7L-5396.6,205.7z"/>
	</g>
	<g>
		<g>
			<g id="组_38">
				<circle id="椭圆_13-2" class="st4" cx="-5396.4" cy="211.4" r="89.5"/>
			</g>
		</g>
		<g>
			<path class="st3" d="M-5414.3,224.9c-0.9-0.9-2.2-1.4-3.5-1.4c-1.3,0-2.6,0.5-3.5,1.4l-26.7,26.7c-0.9,0.9-1.4,2.2-1.4,3.5
				c0,1.3,0.5,2.6,1.4,3.5c0.9,0.9,2.2,1.4,3.5,1.4s2.6-0.5,3.5-1.4l26.7-26.7c0.9-0.9,1.4-2.2,1.4-3.5S-5413.3,225.8-5414.3,224.9z
				"/>
			<g>
				<path class="st3" d="M-5418.2,232c-12.1-12.1-12.1-31.9,0-44c12.1-12.1,31.9-12.1,44,0c12.1,12.1,12.1,31.9,0,44
					C-5386.3,244.1-5406.1,244.1-5418.2,232z M-5379.7,193.5c-9.1-9.1-23.9-9.1-33,0c-9.1,9.1-9.1,23.9,0,33c9.1,9.1,23.9,9.1,33,0
					C-5370.6,217.4-5370.6,202.6-5379.7,193.5z"/>
			</g>
			<path class="st5" d="M-5379.7,193.5c-9.1-9.1-23.9-9.1-33,0c-9.1,9.1-9.1,23.9,0,33c9.1,9.1,23.9,9.1,33,0
				C-5370.6,217.4-5370.6,202.6-5379.7,193.5z M-5383.4,198.4c-0.8,0.8-2.1,0.8-3,0c-5.4-5.4-14.3-5.4-19.7,0
				c-0.4,0.4-0.9,0.6-1.5,0.6c-0.5,0-1.1-0.2-1.5-0.6c-0.8-0.8-0.8-2.1,0-3c7.1-7.1,18.6-7.1,25.6,0
				C-5382.6,196.2-5382.6,197.6-5383.4,198.4z"/>
		</g>
	</g>
	<g>
		<g>
			<g id="组_38_1_">
				<circle id="椭圆_13-2_1_" class="st4" cx="-4919.1" cy="568.7" r="89.5"/>
			</g>
		</g>
		<g id="组_37" transform="translate(-446 75)">
			<g id="_21" transform="translate(1744.565 1587.158)">
				<path class="st5" d="M-6220-1139.9L-6220-1139.9C-6220-1139.9-6220.1-1139.9-6220-1139.9c-0.1,0-0.1,0-0.1,0v0
					c-15.8,0.1-28.5,12.9-28.5,28.6c0,7.1,2.6,13.8,7.3,19.1c0,0,9.1,11.8,10.7,17.1h10.5h0.1h10.5c1.7-5.4,10.7-17.1,10.7-17.1
					c4.7-5.3,7.3-12.1,7.3-19.1C-6191.5-1127-6204.3-1139.8-6220-1139.9z M-6226.3-1126c-5,0-9.1,4.1-9.1,9.1c0,1.8-1.4,3.2-3.2,3.2
					c0,0,0,0,0,0c-1.8,0-3.2-1.4-3.2-3.2c0-8.5,6.9-15.4,15.4-15.4c0,0,0,0,0,0c1.8,0,3.2,1.4,3.2,3.2
					C-6223.1-1127.5-6224.5-1126-6226.3-1126z"/>
				<path id="路径_258" class="st13" d="M-6231.2-1057.8c0,5.9,4.8,10.8,10.8,10.8c5.9,0,10.8-4.8,10.8-10.8
					c0-6-4.8-10.8-10.8-10.8l0,0C-6226.4-1068.5-6231.2-1063.7-6231.2-1057.8z"/>
				<path class="st14" d="M-6208.7-1076.1h-11.4v0h-11.3c-2,0-3.7,1.7-3.7,3.7c0,2,1.7,3.7,3.7,3.7h11.4l0,0h11.3
					c2,0,3.7-1.6,3.7-3.7C-6205-1074.5-6206.7-1076.1-6208.7-1076.1z"/>
				<path class="st14" d="M-6208.7-1061.7h-11.3h-0.1h-11.3c-2,0-3.7,1.7-3.7,3.7s1.7,3.7,3.7,3.7h11.3h0.1h11.3
					c2,0,3.7-1.7,3.7-3.7C-6205.1-1060-6206.7-1061.7-6208.7-1061.7z"/>
				<path class="st13" d="M-6208.7-1068.9h-11.3v0h-11.4c-2,0-3.7,1.7-3.7,3.7c0,2,1.7,3.7,3.7,3.7h11.3v0h11.4c2,0,3.7-1.7,3.7-3.7
					C-6205.1-1067.2-6206.7-1068.9-6208.7-1068.9z"/>
				<path id="路径_265_1_" class="st15" d="M-6220.2-1125.8"/>
			</g>
		</g>
	</g>
	<g>
		<g>
			<g id="组_38_2_">
				<circle id="椭圆_13-2_2_" class="st4" cx="-5093" cy="1119.3" r="89.5"/>
			</g>
		</g>
		<g>
			<g>
				<path class="st16" d="M-5134.3,1084.2c-0.4,0-0.8-0.1-1.1-0.4l-0.7-0.7c-0.6-0.6-0.6-1.6,0-2.2c0.6-0.6,1.6-0.6,2.2,0l0.7,0.7
					c0.6,0.6,0.6,1.6,0,2.2C-5133.5,1084.1-5133.9,1084.2-5134.3,1084.2z"/>
			</g>
			<g>
				<path class="st16" d="M-5063,1110.4h-1.8c-0.8,0-1.5-0.7-1.5-1.5c0-0.8,0.7-1.5,1.5-1.5h1.8c0.8,0,1.5,0.7,1.5,1.5
					C-5061.5,1109.7-5062.2,1110.4-5063,1110.4z M-5072.1,1110.4h-1.8c-0.8,0-1.5-0.7-1.5-1.5c0-0.8,0.7-1.5,1.5-1.5h1.8
					c0.8,0,1.5,0.7,1.5,1.5C-5070.6,1109.7-5071.3,1110.4-5072.1,1110.4z M-5081.3,1110.4h-1.8c-0.8,0-1.5-0.7-1.5-1.5
					c0-0.8,0.7-1.5,1.5-1.5h1.8c0.8,0,1.5,0.7,1.5,1.5C-5079.7,1109.7-5080.4,1110.4-5081.3,1110.4z M-5090.4,1110.4h-1.8
					c-0.8,0-1.5-0.7-1.5-1.5c0-0.8,0.7-1.5,1.5-1.5h1.8c0.8,0,1.5,0.7,1.5,1.5C-5088.9,1109.7-5089.5,1110.4-5090.4,1110.4z
					 M-5099.5,1110.4h-1.8c-0.8,0-1.5-0.7-1.5-1.5c0-0.8,0.7-1.5,1.5-1.5h1.8c0.8,0,1.5,0.7,1.5,1.5
					C-5098,1109.7-5098.7,1110.4-5099.5,1110.4z M-5108.5,1110c-0.4,0-0.8-0.2-1.1-0.4l-1.3-1.3c-0.6-0.6-0.6-1.6,0-2.2
					c0.6-0.6,1.6-0.6,2.2,0l1.3,1.3c0.6,0.6,0.6,1.6,0,2.2C-5107.7,1109.9-5108.1,1110-5108.5,1110z M-5114.9,1103.6
					c-0.4,0-0.8-0.1-1.1-0.4l-1.3-1.3c-0.6-0.6-0.6-1.6,0-2.2c0.6-0.6,1.6-0.6,2.2,0l1.3,1.3c0.6,0.6,0.6,1.6,0,2.2
					C-5114.2,1103.4-5114.6,1103.6-5114.9,1103.6z M-5121.4,1097.1c-0.4,0-0.8-0.1-1.1-0.4l-1.3-1.3c-0.6-0.6-0.6-1.6,0-2.2
					c0.6-0.6,1.6-0.6,2.2,0l1.3,1.3c0.6,0.6,0.6,1.6,0,2.2C-5120.6,1097-5121,1097.1-5121.4,1097.1z M-5127.8,1090.7
					c-0.4,0-0.8-0.1-1.1-0.4l-1.3-1.3c-0.6-0.6-0.6-1.6,0-2.2c0.6-0.6,1.6-0.6,2.2,0l1.3,1.3c0.6,0.6,0.6,1.6,0,2.2
					C-5127.1,1090.5-5127.5,1090.7-5127.8,1090.7z"/>
			</g>
			<g>
				<path class="st16" d="M-5054.8,1110.4h-1c-0.8,0-1.5-0.7-1.5-1.5c0-0.8,0.7-1.5,1.5-1.5h1c0.8,0,1.5,0.7,1.5,1.5
					C-5053.2,1109.7-5053.9,1110.4-5054.8,1110.4z"/>
			</g>
		</g>
		<g>
			<g>
				<path class="st16" d="M-5108.1,1119.2c-0.8,0-1.5-0.7-1.5-1.5v-1c0-0.8,0.7-1.5,1.5-1.5c0.8,0,1.5,0.7,1.5,1.5v1
					C-5106.6,1118.5-5107.3,1119.2-5108.1,1119.2z"/>
			</g>
			<g>
				<path class="st16" d="M-5108.1,1155.6c-0.8,0-1.5-0.7-1.5-1.5v-1.9c0-0.8,0.7-1.5,1.5-1.5c0.8,0,1.5,0.7,1.5,1.5v1.9
					C-5106.6,1154.9-5107.3,1155.6-5108.1,1155.6z M-5108.1,1146.2c-0.8,0-1.5-0.7-1.5-1.5v-1.9c0-0.8,0.7-1.5,1.5-1.5
					c0.8,0,1.5,0.7,1.5,1.5v1.9C-5106.6,1145.5-5107.3,1146.2-5108.1,1146.2z M-5108.1,1136.8c-0.8,0-1.5-0.7-1.5-1.5v-1.9
					c0-0.8,0.7-1.5,1.5-1.5c0.8,0,1.5,0.7,1.5,1.5v1.9C-5106.6,1136.1-5107.3,1136.8-5108.1,1136.8z M-5108.1,1127.3
					c-0.8,0-1.5-0.7-1.5-1.5v-1.9c0-0.8,0.7-1.5,1.5-1.5c0.8,0,1.5,0.7,1.5,1.5v1.9C-5106.6,1126.6-5107.3,1127.3-5108.1,1127.3z"/>
			</g>
			<g>
				<path class="st16" d="M-5108.1,1163.5c-0.8,0-1.5-0.7-1.5-1.5v-1c0-0.8,0.7-1.5,1.5-1.5c0.8,0,1.5,0.7,1.5,1.5v1
					C-5106.6,1162.8-5107.3,1163.5-5108.1,1163.5z"/>
			</g>
		</g>
		<path class="st13" d="M-5046,1106.7l-26.7-26.7l-0.2-0.2l-0.1-0.1c-0.1-0.1-0.2-0.2-0.3-0.3c-0.1,0-0.1-0.1-0.2-0.1
			c-0.1-0.1-0.2-0.1-0.3-0.2c-0.1,0-0.2-0.1-0.2-0.1c-0.1,0-0.2-0.1-0.4-0.1c-0.2,0-0.4-0.1-0.6-0.1h-59.9c-1.7,0-3.1,1.4-3.1,3.1
			v59.9c0,0.2,0,0.4,0.1,0.6c0,0.1,0.1,0.2,0.1,0.3l0.1,0.2c0.1,0.1,0.1,0.2,0.2,0.4l0.1,0.2c0.1,0.2,0.2,0.3,0.4,0.5l26.9,26.9
			c0.6,0.6,1.4,0.9,2.2,0.9h59.9c0.2,0,0.4,0,0.6-0.1c0.1,0,0.2,0,0.3-0.1c0.1,0,0.2-0.1,0.3-0.1c0.1,0,0.2-0.1,0.3-0.1
			c0.1,0,0.2-0.1,0.3-0.1c0.2-0.1,0.3-0.2,0.5-0.4c0.1-0.1,0.3-0.3,0.4-0.5c0-0.1,0.1-0.2,0.1-0.3c0-0.1,0.1-0.2,0.1-0.3l0,0
			c0-0.1,0.1-0.2,0.1-0.3c0-0.1,0.1-0.2,0.1-0.3c0-0.2,0.1-0.4,0.1-0.6v-59.9C-5045.1,1108-5045.4,1107.3-5046,1106.7z
			 M-5072,1140.6v-51l20.6,20.6v51L-5072,1140.6z M-5078.2,1085.1v53.6h-53.6v-53.6H-5078.2z M-5076.4,1145l20.6,20.6h-51
			l-20.6-20.6H-5076.4z M-5074.6,1080.5C-5074.6,1080.5-5074.6,1080.5-5074.6,1080.5L-5074.6,1080.5L-5074.6,1080.5z
			 M-5136.4,1142.4L-5136.4,1142.4L-5136.4,1142.4L-5136.4,1142.4z M-5047.7,1170.2L-5047.7,1170.2L-5047.7,1170.2L-5047.7,1170.2z
			 M-5046.9,1169.4C-5046.9,1169.4-5046.9,1169.4-5046.9,1169.4L-5046.9,1169.4L-5046.9,1169.4z"/>
	</g>
	<g>
		<g>
			<g id="组_38_5_">
				<g id="椭圆_13-2_4_">
					<circle class="st4" cx="-5695.3" cy="1119" r="89.5"/>
				</g>
			</g>
		</g>
		<g>
			<g>
				<ellipse class="st5" cx="-5695.2" cy="1119" rx="39" ry="38.1"/>
			</g>
			<g>
				<path class="st5" d="M-5695.2,1081.3c21.3,0,38.6,16.9,38.6,37.7c0,20.8-17.3,37.7-38.6,37.7s-38.6-16.9-38.6-37.7
					C-5733.7,1098.2-5716.4,1081.3-5695.2,1081.3 M-5695.2,1080.5c-21.8,0-39.4,17.3-39.4,38.6s17.7,38.6,39.4,38.6
					s39.4-17.3,39.4-38.6S-5673.4,1080.5-5695.2,1080.5L-5695.2,1080.5z"/>
			</g>
		</g>
		<g>
			<path class="st13" d="M-5705.4,1153.6c-16.4-3.3-28.2-17.9-28.2-34.6c0-16.7,11.6-30.7,27.2-34.4l-3.3,3.3
				c-1.3,1.3-1.3,3.3,0,4.6c0.6,0.6,1.5,0.9,2.3,0.9s1.7-0.3,2.3-0.9l9.7-9.7c1.3-1.3,1.3-3.3,0-4.6l-9.7-9.7
				c-1.3-1.3-3.3-1.3-4.6,0c-1.3,1.3-1.3,3.3,0,4.6l4.6,4.6c-19.8,3.3-35,20.5-35,41.3c0,19.8,14,37,33.4,41c0.2,0,0.4,0.1,0.7,0.1
				c1.5,0,2.9-1.1,3.2-2.6C-5702.5,1155.7-5703.6,1154-5705.4,1153.6z"/>
			<path class="st13" d="M-5650.6,1119c0-19.8-14-37-33.4-41c-1.8-0.4-3.5,0.8-3.8,2.5c-0.4,1.8,0.8,3.5,2.5,3.8
				c16.4,3.3,28.2,17.9,28.2,34.6c0,16.7-11.6,30.7-27.2,34.4l3.3-3.3c1.3-1.3,1.3-3.3,0-4.6s-3.3-1.3-4.6,0l-9.7,9.7
				c-0.6,0.6-0.9,1.4-0.9,2.3c0,0.9,0.3,1.7,0.9,2.3l9.7,9.7c0.6,0.6,1.5,0.9,2.3,0.9c0.8,0,1.7-0.3,2.3-0.9c1.3-1.3,1.3-3.3,0-4.6
				l-4.6-4.6C-5665.7,1156.9-5650.6,1139.7-5650.6,1119z"/>
		</g>
	</g>
	<g>
		<g>
			<g id="组_38_6_">
				<circle id="椭圆_13-2_6_" class="st4" cx="-5873.3" cy="556.7" r="89.5"/>
			</g>
		</g>
		<g>
			<g>
				<polygon class="st5" points="-5930.1,550.3 -5828.6,525.2 -5862.5,588.2 				"/>
			</g>
			<g>
				<path class="st5" d="M-5829.5,525.9l-33.2,61.7l-66.2-37.2L-5829.5,525.9 M-5827.8,524.6l-103.5,25.6l68.9,38.7L-5827.8,524.6
					L-5827.8,524.6z"/>
			</g>
		</g>
		<path class="st13" d="M-5825.2,522.6c-0.8-1-2.1-1.5-3.3-1.2l-103.5,25.6c-1.3,0.3-2.3,1.4-2.4,2.7c-0.2,1.3,0.5,2.6,1.6,3.3
			l68.9,38.7c0.5,0.3,1,0.4,1.6,0.4c0.3,0,0.6,0,0.9-0.1c0.8-0.2,1.5-0.8,1.9-1.6l7.8-14.5h20.1c1.1,0,2.1-0.6,2.7-1.5
			c0.6-0.9,0.7-2.1,0.2-3.1l-9.3-21l13-24.2C-5824.3,525-5824.4,523.6-5825.2,522.6z M-5863.7,584.4l-55.2-31h71.8l-9.6,17.7
			c-0.2,0.3-0.3,0.6-0.3,0.9L-5863.7,584.4z M-5843.5,546.9h-61.2l70.6-17.4L-5843.5,546.9z"/>
	</g>
</g>
<g>
	<g class="st11">
		<path class="st12" d="M-5618.5-756.8"/>
	</g>
	<g>
		<g>
			<g id="组_38_9_">
				<circle id="椭圆_13-2_9_" class="st4" cx="-6388.4" cy="-334.7" r="89.5"/>
			</g>
		</g>
		<g>
			<path class="st3" d="M-6406.3-321.3c-0.9-0.9-2.2-1.4-3.5-1.4c-1.3,0-2.6,0.5-3.5,1.4l-26.7,26.7c-0.9,0.9-1.4,2.2-1.4,3.5
				s0.5,2.6,1.4,3.5s2.2,1.4,3.5,1.4s2.6-0.5,3.5-1.4l26.7-26.7c0.9-0.9,1.4-2.2,1.4-3.5C-6404.8-319.1-6405.3-320.4-6406.3-321.3z"
				/>
			<g>
				<path class="st3" d="M-6410.2-314.2c-12.1-12.1-12.1-31.9,0-44c12.1-12.1,31.9-12.1,44,0s12.1,31.9,0,44
					C-6378.3-302.1-6398.1-302.1-6410.2-314.2z M-6371.7-352.7c-9.1-9.1-23.9-9.1-33,0c-9.1,9.1-9.1,23.9,0,33
					c9.1,9.1,23.9,9.1,33,0C-6362.6-328.8-6362.6-343.6-6371.7-352.7z"/>
			</g>
			<path class="st5" d="M-6371.7-352.7c-9.1-9.1-23.9-9.1-33,0c-9.1,9.1-9.1,23.9,0,33c9.1,9.1,23.9,9.1,33,0
				C-6362.6-328.8-6362.6-343.6-6371.7-352.7z M-6375.4-347.8c-0.8,0.8-2.1,0.8-3,0c-5.4-5.4-14.3-5.4-19.7,0
				c-0.4,0.4-0.9,0.6-1.5,0.6c-0.5,0-1.1-0.2-1.5-0.6c-0.8-0.8-0.8-2.1,0-3c7.1-7.1,18.6-7.1,25.6,0
				C-6374.6-349.9-6374.6-348.6-6375.4-347.8z"/>
		</g>
	</g>
	<g>
		<g>
			<g id="组_38_8_">
				<circle id="椭圆_13-2_8_" class="st4" cx="-6051.1" cy="-667.3" r="89.5"/>
			</g>
		</g>
		<g id="组_37_1_" transform="translate(-446 75)">
			<g id="_21_1_" transform="translate(1744.565 1587.158)">
				<path class="st5" d="M-7352.1-2375.9L-7352.1-2375.9C-7352.1-2375.9-7352.1-2375.9-7352.1-2375.9c-0.1,0-0.1,0-0.1,0v0
					c-15.8,0.1-28.5,12.9-28.5,28.6c0,7.1,2.6,13.8,7.3,19.1c0,0,9.1,11.8,10.7,17.1h10.5h0.1h10.5c1.7-5.4,10.7-17.1,10.7-17.1
					c4.7-5.3,7.3-12.1,7.3-19.1C-7323.5-2363-7336.3-2375.8-7352.1-2375.9z M-7358.3-2368.4 M-7358.3-2368.4c1.8,0,3.2,1.4,3.2,3.2
					c0,1.8-1.4,3.2-3.2,3.2c-5,0-9.1,4.1-9.1,9.1c0,1.8-1.4,3.2-3.2,3.2c0,0,0,0,0,0c-1.8,0-3.2-1.4-3.2-3.2
					C-7373.7-2361.4-7366.8-2368.4-7358.3-2368.4C-7358.3-2368.4-7358.3-2368.4-7358.3-2368.4"/>
				<path id="路径_258_1_" class="st13" d="M-7363.2-2293.8c0,5.9,4.8,10.8,10.8,10.8c5.9,0,10.8-4.8,10.8-10.8
					s-4.8-10.8-10.8-10.8l0,0C-7358.4-2304.5-7363.2-2299.7-7363.2-2293.8z"/>
				<path class="st14" d="M-7340.7-2312.1h-11.4l0,0h-11.3c-2,0-3.7,1.7-3.7,3.7c0,2,1.7,3.7,3.7,3.7h11.4l0,0h11.3
					c2,0,3.7-1.6,3.7-3.7C-7337.1-2310.5-7338.7-2312.1-7340.7-2312.1z"/>
				<path class="st14" d="M-7340.8-2297.7h-11.3h-0.1h-11.3c-2,0-3.7,1.7-3.7,3.7s1.7,3.7,3.7,3.7h11.3h0.1h11.3
					c2,0,3.7-1.7,3.7-3.7S-7338.7-2297.7-7340.8-2297.7z"/>
				<path class="st13" d="M-7340.8-2304.9h-11.3v0h-11.4c-2,0-3.7,1.7-3.7,3.7c0,2,1.7,3.7,3.7,3.7h11.3v0h11.4c2,0,3.7-1.7,3.7-3.7
					C-7337.1-2303.2-7338.7-2304.9-7340.8-2304.9z"/>
				<path id="路径_265_2_" class="st15" d="M-7352.2-2361.8"/>
			</g>
		</g>
	</g>
	<g>
		<g>
			<g id="组_38_7_">
				<circle id="椭圆_13-2_7_" class="st4" cx="-5713.9" cy="-334.7" r="89.5"/>
			</g>
		</g>
		<g>
			<g>
				<path class="st16" d="M-5755.2-369.8c-0.4,0-0.8-0.1-1.1-0.4l-0.7-0.7c-0.6-0.6-0.6-1.6,0-2.2c0.6-0.6,1.6-0.6,2.2,0l0.7,0.7
					c0.6,0.6,0.6,1.6,0,2.2C-5754.4-369.9-5754.8-369.8-5755.2-369.8z"/>
			</g>
			<g>
				<path class="st16" d="M-5683.9-343.6h-1.8c-0.8,0-1.5-0.7-1.5-1.5s0.7-1.5,1.5-1.5h1.8c0.8,0,1.5,0.7,1.5,1.5
					S-5683.1-343.6-5683.9-343.6z M-5693-343.6h-1.8c-0.8,0-1.5-0.7-1.5-1.5s0.7-1.5,1.5-1.5h1.8c0.8,0,1.5,0.7,1.5,1.5
					S-5692.2-343.6-5693-343.6z M-5702.2-343.6h-1.8c-0.8,0-1.5-0.7-1.5-1.5s0.7-1.5,1.5-1.5h1.8c0.8,0,1.5,0.7,1.5,1.5
					S-5701.3-343.6-5702.2-343.6z M-5711.3-343.6h-1.8c-0.8,0-1.5-0.7-1.5-1.5s0.7-1.5,1.5-1.5h1.8c0.8,0,1.5,0.7,1.5,1.5
					S-5710.4-343.6-5711.3-343.6z M-5720.4-343.6h-1.8c-0.8,0-1.5-0.7-1.5-1.5s0.7-1.5,1.5-1.5h1.8c0.8,0,1.5,0.7,1.5,1.5
					S-5719.6-343.6-5720.4-343.6z M-5729.4-344c-0.4,0-0.8-0.1-1.1-0.4l-1.3-1.3c-0.6-0.6-0.6-1.6,0-2.2c0.6-0.6,1.6-0.6,2.2,0
					l1.3,1.3c0.6,0.6,0.6,1.6,0,2.2C-5728.6-344.1-5729-344-5729.4-344z M-5735.8-350.4c-0.4,0-0.8-0.1-1.1-0.4l-1.3-1.3
					c-0.6-0.6-0.6-1.6,0-2.2c0.6-0.6,1.6-0.6,2.2,0l1.3,1.3c0.6,0.6,0.6,1.6,0,2.2C-5735-350.6-5735.4-350.4-5735.8-350.4z
					 M-5742.3-356.9c-0.4,0-0.8-0.1-1.1-0.4l-1.3-1.3c-0.6-0.6-0.6-1.6,0-2.2c0.6-0.6,1.6-0.6,2.2,0l1.3,1.3c0.6,0.6,0.6,1.6,0,2.2
					C-5741.5-357-5741.9-356.9-5742.3-356.9z M-5748.7-363.3c-0.4,0-0.8-0.1-1.1-0.4l-1.3-1.3c-0.6-0.6-0.6-1.6,0-2.2
					c0.6-0.6,1.6-0.6,2.2,0l1.3,1.3c0.6,0.6,0.6,1.6,0,2.2C-5748-363.5-5748.3-363.3-5748.7-363.3z"/>
			</g>
			<g>
				<path class="st16" d="M-5675.6-343.6h-1c-0.8,0-1.5-0.7-1.5-1.5s0.7-1.5,1.5-1.5h1c0.8,0,1.5,0.7,1.5,1.5
					S-5674.8-343.6-5675.6-343.6z"/>
			</g>
		</g>
		<g>
			<g>
				<path class="st16" d="M-5729-334.8c-0.8,0-1.5-0.7-1.5-1.5v-1c0-0.8,0.7-1.5,1.5-1.5c0.8,0,1.5,0.7,1.5,1.5v1
					C-5727.5-335.5-5728.2-334.8-5729-334.8z"/>
			</g>
			<g>
				<path class="st16" d="M-5729-298.4c-0.8,0-1.5-0.7-1.5-1.5v-1.9c0-0.8,0.7-1.5,1.5-1.5c0.8,0,1.5,0.7,1.5,1.5v1.9
					C-5727.5-299.1-5728.2-298.4-5729-298.4z M-5729-307.8c-0.8,0-1.5-0.7-1.5-1.5v-1.9c0-0.8,0.7-1.5,1.5-1.5
					c0.8,0,1.5,0.7,1.5,1.5v1.9C-5727.5-308.5-5728.2-307.8-5729-307.8z M-5729-317.2c-0.8,0-1.5-0.7-1.5-1.5v-1.9
					c0-0.8,0.7-1.5,1.5-1.5c0.8,0,1.5,0.7,1.5,1.5v1.9C-5727.5-317.9-5728.2-317.2-5729-317.2z M-5729-326.7c-0.8,0-1.5-0.7-1.5-1.5
					v-1.9c0-0.8,0.7-1.5,1.5-1.5c0.8,0,1.5,0.7,1.5,1.5v1.9C-5727.5-327.4-5728.2-326.7-5729-326.7z"/>
			</g>
			<g>
				<path class="st16" d="M-5729-290.5c-0.8,0-1.5-0.7-1.5-1.5v-1c0-0.8,0.7-1.5,1.5-1.5c0.8,0,1.5,0.7,1.5,1.5v1
					C-5727.5-291.2-5728.2-290.5-5729-290.5z"/>
			</g>
		</g>
		<path class="st13" d="M-5666.9-347.3l-26.7-26.7l-0.2-0.2l-0.1-0.1c-0.1-0.1-0.2-0.2-0.3-0.3c-0.1,0-0.1-0.1-0.2-0.1
			c-0.1-0.1-0.2-0.1-0.3-0.2c-0.1,0-0.2-0.1-0.2-0.1c-0.1,0-0.2-0.1-0.4-0.1c-0.2,0-0.4-0.1-0.6-0.1h-59.9c-1.7,0-3.1,1.4-3.1,3.1
			v59.9c0,0.2,0,0.4,0.1,0.6c0,0.1,0.1,0.2,0.1,0.3l0.1,0.2c0.1,0.1,0.1,0.2,0.2,0.4l0.1,0.2c0.1,0.2,0.2,0.3,0.4,0.5l26.9,26.9
			c0.6,0.6,1.4,0.9,2.2,0.9h59.9c0.2,0,0.4,0,0.6-0.1c0.1,0,0.2,0,0.3-0.1c0.1,0,0.2-0.1,0.3-0.1c0.1,0,0.2-0.1,0.3-0.1
			c0.1,0,0.2-0.1,0.3-0.1c0.2-0.1,0.3-0.2,0.5-0.4c0.1-0.1,0.3-0.3,0.4-0.5c0-0.1,0.1-0.2,0.1-0.3c0-0.1,0.1-0.2,0.1-0.3l0,0
			c0-0.1,0.1-0.2,0.1-0.3c0-0.1,0.1-0.2,0.1-0.3c0-0.2,0.1-0.4,0.1-0.6v-59.9C-5666-346-5666.3-346.7-5666.9-347.3z M-5692.9-313.4
			v-51l20.6,20.6v51L-5692.9-313.4z M-5699.1-368.9v53.6h-53.6v-53.6H-5699.1z M-5697.3-309l20.6,20.6h-51l-20.6-20.6H-5697.3z
			 M-5695.5-373.5C-5695.5-373.5-5695.5-373.5-5695.5-373.5L-5695.5-373.5L-5695.5-373.5z M-5757.3-311.6L-5757.3-311.6
			L-5757.3-311.6L-5757.3-311.6z M-5668.6-283.8L-5668.6-283.8L-5668.6-283.8L-5668.6-283.8z M-5667.7-284.6
			C-5667.7-284.6-5667.7-284.6-5667.7-284.6L-5667.7-284.6L-5667.7-284.6z"/>
	</g>
	<g>
		<g>
			<g id="组_38_4_">
				<g id="椭圆_13-2_5_">
					<circle class="st4" cx="-5376.6" cy="-667.3" r="89.5"/>
				</g>
			</g>
		</g>
		<g>
			<g>
				<ellipse class="st5" cx="-5376.4" cy="-667.2" rx="39" ry="38.1"/>
			</g>
			<g>
				<path class="st5" d="M-5376.4-704.9c21.3,0,38.6,16.9,38.6,37.7c0,20.8-17.3,37.7-38.6,37.7s-38.6-16.9-38.6-37.7
					C-5415-688-5397.7-704.9-5376.4-704.9 M-5376.4-705.8c-21.8,0-39.4,17.3-39.4,38.6s17.7,38.6,39.4,38.6s39.4-17.3,39.4-38.6
					S-5354.6-705.8-5376.4-705.8L-5376.4-705.8z"/>
			</g>
		</g>
		<g>
			<path class="st13" d="M-5386.6-632.6c-16.4-3.3-28.2-17.9-28.2-34.6c0-16.7,11.6-30.7,27.2-34.4l-3.3,3.3c-1.3,1.3-1.3,3.3,0,4.6
				c0.6,0.6,1.5,0.9,2.3,0.9s1.7-0.3,2.3-0.9l9.7-9.7c1.3-1.3,1.3-3.3,0-4.6l-9.7-9.7c-1.3-1.3-3.3-1.3-4.6,0
				c-1.3,1.3-1.3,3.3,0,4.6l4.6,4.6c-19.8,3.3-35,20.5-35,41.3c0,19.8,14,37,33.4,41c0.2,0,0.4,0.1,0.7,0.1c1.5,0,2.9-1.1,3.2-2.6
				C-5383.7-630.5-5384.9-632.2-5386.6-632.6z"/>
			<path class="st13" d="M-5331.8-667.2c0-19.8-14-37-33.4-41c-1.8-0.4-3.5,0.8-3.8,2.5c-0.4,1.8,0.8,3.5,2.5,3.8
				c16.4,3.3,28.2,17.9,28.2,34.6c0,16.7-11.6,30.7-27.2,34.4l3.3-3.3c1.3-1.3,1.3-3.3,0-4.6c-1.3-1.3-3.3-1.3-4.6,0l-9.7,9.7
				c-0.6,0.6-0.9,1.4-0.9,2.3s0.3,1.7,0.9,2.3l9.7,9.7c0.6,0.6,1.5,0.9,2.3,0.9c0.8,0,1.7-0.3,2.3-0.9c1.3-1.3,1.3-3.3,0-4.6
				l-4.6-4.6C-5347-629.3-5331.8-646.5-5331.8-667.2z"/>
		</g>
	</g>
	<g>
		<g id="组_38_3_">
			<circle id="椭圆_13-2_3_" class="st4" cx="-5039.3" cy="-334.7" r="89.5"/>
		</g>
	</g>
	<g>
		<g>
			<polygon class="st5" points="-4986,-354.2 -5090.4,-351.7 -5041.2,-299.9 			"/>
		</g>
		<g>
			<path class="st5" d="M-5089.4-351.3l102.4-2.5l-54.1,53.3L-5089.4-351.3 M-5091.5-352.2l50.3,52.9l56.3-55.5L-5091.5-352.2
				L-5091.5-352.2z"/>
		</g>
	</g>
	<path class="st13" d="M-5093.8-349.9l19,19.9l-3.4,22.7c-0.2,1.1,0.2,2.2,1,2.9c0.8,0.7,1.9,1,3,0.7l19.4-5.3l11.3,11.9
		c0.6,0.6,1.4,1,2.3,1c0.3,0,0.6,0,0.9-0.1c0.5-0.1,1-0.4,1.4-0.8l56.3-55.5c0.9-0.9,1.2-2.3,0.7-3.6c-0.5-1.2-1.7-2-3.1-2
		l-106.6,2.6c-1.3,0-2.4,0.8-2.9,2C-5094.9-352.2-5094.7-350.9-5093.8-349.9z M-5050.8-314.1c-0.1-0.3-0.3-0.5-0.5-0.8l-13.9-14.6
		l69.3-18.9l-45.1,44.5L-5050.8-314.1z M-5084.1-349.1l72.7-1.7l-59,16.1L-5084.1-349.1z"/>
	<g class="st11">
		<g>
			<path class="st17" d="M-5809.7-443.2c-59.4-13-111.3-57.3-132.8-114.3"/>
			<g>
				<polygon class="st4" points="-5823.1,-472.1 -5828.1,-468.8 -5811.9,-444 -5837.8,-429.7 -5834.9,-424.4 -5803.3,-441.9 				"/>
			</g>
		</g>
	</g>
	<g class="st11">
		<g>
			<path class="st17" d="M-5645.5-518.5c-2.3-30.1,6.5-61,24.5-85.2c18-24.2,45-41.6,74.5-48.1"/>
			<g>
				<polygon class="st4" points="-5621.4,-539.4 -5625.9,-543.3 -5645.2,-520.8 -5666.2,-541.7 -5670.4,-537.4 -5644.8,-512 				"/>
			</g>
			<g>
				<polygon class="st4" points="-5559.6,-622.6 -5564.6,-625.9 -5548.7,-650.8 -5574.7,-664.9 -5571.9,-670.1 -5540.2,-653 				"/>
			</g>
		</g>
	</g>
	<g class="st11">
		<g>
			<path class="st17" d="M-5399.9-519.9c-8.2,55.7,8.9,114.8,46,157.3c38.5,44.1,97.7,69.3,156.2,66.4"/>
			<g>
				<polygon class="st4" points="-5426.5,-503.1 -5422.6,-498.5 -5399.9,-517.6 -5382.6,-493.6 -5377.8,-497.1 -5398.9,-526.3 				
					"/>
			</g>
		</g>
	</g>
	<g class="st11">
		<g>
			<path class="st17" d="M-6040.7-519.9c8.2,55.7-8.9,114.8-46,157.3c-37.1,42.4-93.4,67.4-149.7,66.6"/>
			<g>
				<polygon class="st4" points="-6062.9,-497.1 -6058,-493.6 -6040.7,-517.5 -6018,-498.5 -6014.2,-503.1 -6041.8,-526.3 				"/>
			</g>
			<g>
				<polygon class="st4" points="-6216.8,-321 -6212.7,-316.6 -6234.1,-296.3 -6212.3,-276.4 -6216.3,-271.9 -6243,-296.2 				"/>
			</g>
		</g>
	</g>
	<g class="st11">
		<g>
			<path class="st18" d="M-5897.5-227.5c0,0-193.2,74.5-396-6.5"/>
			<g>
				<polygon class="st4" points="-6266,-249.8 -6263.8,-244.3 -6291.3,-233.3 -6278.4,-206.7 -6283.8,-204.1 -6299.5,-236.5 				"/>
			</g>
		</g>
	</g>
	<g class="st11">
		<g>
			<path class="st18" d="M-5540.5-756.5c0,0-178.6-142.3-356.9-4"/>
			<g>
				<polygon class="st4" points="-5896.2,-792 -5890.3,-791 -5895.4,-761.8 -5866,-758.8 -5866.6,-752.8 -5902.5,-756.5 				"/>
			</g>
		</g>
	</g>
	<g class="st11">
		<g>
			<path class="st18" d="M-5575-298.8c27.6,27.8,180.7,166.1,405.5,71.3"/>
			<g>
				<polygon class="st4" points="-5577.7,-267.5 -5571.7,-267.8 -5573.2,-297.4 -5543.6,-296.7 -5543.5,-302.7 -5579.5,-303.5 				
					"/>
			</g>
		</g>
	</g>
</g>
<g>
	<path class="st13" d="M-3477,266c53.8,0,107.5,5.4,159.7,16.1c50.9,10.4,100.9,25.9,148.8,46.2c47,19.9,92.3,44.4,134.6,73.1
		c42,28.4,81.4,60.9,117.3,96.8c35.9,35.9,68.4,75.3,96.8,117.3c28.6,42.4,53.2,87.7,73.1,134.6c20.2,47.8,35.8,97.9,46.2,148.8
		c10.7,52.2,16.1,106,16.1,159.7s-5.4,107.5-16.1,159.7c-10.4,50.9-25.9,100.9-46.2,148.8c-19.9,47-44.4,92.3-73.1,134.6
		c-28.4,42-60.9,81.4-96.8,117.3c-35.9,35.9-75.3,68.4-117.3,96.8c-42.4,28.6-87.7,53.2-134.6,73.1c-47.8,20.2-97.9,35.8-148.8,46.2
		c-52.2,10.7-106,16.1-159.7,16.1s-107.5-5.4-159.7-16.1c-50.9-10.4-100.9-25.9-148.8-46.2c-47-19.9-92.3-44.4-134.6-73.1
		c-42-28.4-81.4-60.9-117.3-96.8c-35.9-35.9-68.4-75.3-96.8-117.3c-28.6-42.4-53.2-87.7-73.1-134.6c-20.2-47.8-35.8-97.9-46.2-148.8
		c-10.7-52.2-16.1-106-16.1-159.7s5.4-107.5,16.1-159.7c10.4-50.9,25.9-100.9,46.2-148.8c19.9-47,44.4-92.3,73.1-134.6
		c28.4-42,60.9-81.4,96.8-117.3c35.9-35.9,75.3-68.4,117.3-96.8c42.4-28.6,87.7-53.2,134.6-73.1c47.8-20.2,97.9-35.8,148.8-46.2
		C-3584.5,271.4-3530.8,266-3477,266 M-3477,256c-443.2,0-802.5,359.3-802.5,802.5s359.3,802.5,802.5,802.5s802.5-359.3,802.5-802.5
		S-3033.8,256-3477,256L-3477,256z"/>
</g>
<g>
	<g>
		<g id="组_38_19_">
			<circle id="椭圆_13-2_19_" class="st4" cx="-3476.9" cy="260.7" r="141.4"/>
		</g>
	</g>
	<g>
		<path class="st3" d="M-3441.8,223.6c-19.2-19.2-50.3-19.2-69.5,0c-16.4,16.4-18.7,41.6-7.1,60.5l-40,40c-1.5,1.5-2.3,3.4-2.3,5.5
			c0,2.1,0.8,4,2.3,5.5c1.5,1.5,3.4,2.3,5.5,2.3s4-0.8,5.5-2.3l39.2-39.2c19.3,16.2,48.2,15.3,66.4-2.8
			C-3422.7,274-3422.7,242.8-3441.8,223.6z M-3450.5,284.5c-14.4,14.4-37.8,14.4-52.2,0c-14.4-14.4-14.4-37.8,0-52.2
			c14.4-14.4,37.8-14.4,52.2,0C-3436.1,246.7-3436.1,270.1-3450.5,284.5z"/>
		<path class="st5" d="M-3450.5,232.3c-14.4-14.4-37.8-14.4-52.2,0c-14.4,14.4-14.4,37.8,0,52.2c14.4,14.4,37.8,14.4,52.2,0
			C-3436.1,270.1-3436.1,246.7-3450.5,232.3z M-3456.3,240.1c-1.3,1.3-3.4,1.3-4.7,0c-8.6-8.6-22.5-8.6-31.1,0c-0.6,0.6-1.5,1-2.3,1
			s-1.7-0.3-2.3-1c-1.3-1.3-1.3-3.4,0-4.7c11.2-11.2,29.3-11.2,40.5,0C-3455.1,236.7-3455.1,238.8-3456.3,240.1z"/>
	</g>
</g>
<g>
	<g>
		<g id="组_38_18_">
			<circle id="椭圆_13-2_18_" class="st4" cx="-2722.9" cy="825.2" r="141.4"/>
		</g>
	</g>
	<g id="组_37_3_" transform="translate(-446 75)">
		<g id="_21_3_" transform="translate(1744.565 1587.158)">
			<path class="st5" d="M-4025.1-910.4L-4025.1-910.4C-4025.2-910.4-4025.2-910.4-4025.1-910.4c-0.1,0-0.2,0-0.2,0v0
				c-24.9,0.1-45,20.3-45,45.2c0,11.1,4.1,21.9,11.5,30.2c0,0,14.3,18.6,16.9,27.1h16.5h0.2h16.5c2.6-8.5,16.9-27.1,16.9-27.1
				c7.5-8.3,11.6-19.1,11.6-30.2C-3980.1-890-4000.2-910.3-4025.1-910.4z M-4035-888.5c-7.9,0-14.4,6.5-14.4,14.4c0,2.8-2.3,5-5,5
				c0,0,0,0,0,0c-2.8,0-5-2.3-5-5c0-13.4,11-24.4,24.4-24.4c0,0,0,0,0,0c2.8,0,5,2.2,5,5C-4030-890.8-4032.2-888.5-4035-888.5z"/>
			<path id="路径_258_3_" class="st13" d="M-4042.8-780.6c0,9.4,7.6,17,17,17c9.4,0,17-7.6,17-17s-7.6-17-17-17l0,0
				C-4035.2-797.7-4042.8-790-4042.8-780.6z"/>
			<path class="st14" d="M-4007.2-809.7h-18v0h-17.9c-3.2,0-5.8,2.6-5.8,5.8c0,3.2,2.6,5.8,5.8,5.8h18v0h17.9c3.2,0,5.8-2.6,5.8-5.8
				C-4001.4-807.1-4004.1-809.7-4007.2-809.7z"/>
			<path class="st14" d="M-4007.3-786.8h-17.8h-0.2h-17.8c-3.2,0-5.8,2.6-5.8,5.8c0,3.2,2.6,5.8,5.8,5.8h17.8h0.2h17.8
				c3.2,0,5.8-2.6,5.8-5.8C-4001.5-784.2-4004.1-786.8-4007.3-786.8z"/>
			<path class="st13" d="M-4007.3-798.2h-17.8v0h-18c-3.2,0-5.8,2.6-5.8,5.8c0,3.2,2.6,5.8,5.8,5.8h17.8v0h18c3.2,0,5.8-2.6,5.8-5.8
				C-4001.5-795.6-4004.1-798.2-4007.3-798.2z"/>
			<path id="路径_265_4_" class="st15" d="M-4025.4-888.1"/>
		</g>
	</g>
</g>
<g>
	<g>
		<g id="组_38_17_">
			<circle id="椭圆_13-2_17_" class="st4" cx="-2997.5" cy="1694.9" r="141.4"/>
		</g>
	</g>
	<g>
		<g>
			<path class="st16" d="M-3062.8,1639.5c-0.6,0-1.2-0.2-1.7-0.7l-1.1-1.1c-0.9-0.9-0.9-2.5,0-3.4c0.9-0.9,2.5-0.9,3.4,0l1.1,1.1
				c0.9,0.9,0.9,2.5,0,3.4C-3061.6,1639.3-3062.2,1639.5-3062.8,1639.5z"/>
		</g>
		<g>
			<path class="st16" d="M-2950.2,1680.9h-2.9c-1.3,0-2.4-1.1-2.4-2.4c0-1.3,1.1-2.4,2.4-2.4h2.9c1.3,0,2.4,1.1,2.4,2.4
				C-2947.8,1679.8-2948.9,1680.9-2950.2,1680.9z M-2964.6,1680.9h-2.9c-1.3,0-2.4-1.1-2.4-2.4c0-1.3,1.1-2.4,2.4-2.4h2.9
				c1.3,0,2.4,1.1,2.4,2.4C-2962.2,1679.8-2963.3,1680.9-2964.6,1680.9z M-2979,1680.9h-2.9c-1.3,0-2.4-1.1-2.4-2.4
				c0-1.3,1.1-2.4,2.4-2.4h2.9c1.3,0,2.4,1.1,2.4,2.4C-2976.6,1679.8-2977.7,1680.9-2979,1680.9z M-2993.5,1680.9h-2.9
				c-1.3,0-2.4-1.1-2.4-2.4c0-1.3,1.1-2.4,2.4-2.4h2.9c1.3,0,2.4,1.1,2.4,2.4C-2991,1679.8-2992.1,1680.9-2993.5,1680.9z
				 M-3007.9,1680.9h-2.9c-1.3,0-2.4-1.1-2.4-2.4c0-1.3,1.1-2.4,2.4-2.4h2.9c1.3,0,2.4,1.1,2.4,2.4
				C-3005.5,1679.8-3006.5,1680.9-3007.9,1680.9z M-3022,1680.3c-0.6,0-1.2-0.2-1.7-0.7l-2-2c-0.9-0.9-0.9-2.5,0-3.4
				c0.9-0.9,2.5-0.9,3.4,0l2,2c0.9,0.9,0.9,2.5,0,3.4C-3020.8,1680.1-3021.4,1680.3-3022,1680.3z M-3032.2,1670.1
				c-0.6,0-1.2-0.2-1.7-0.7l-2-2c-0.9-0.9-0.9-2.5,0-3.4c0.9-0.9,2.5-0.9,3.4,0l2,2c0.9,0.9,0.9,2.5,0,3.4
				C-3031,1669.9-3031.6,1670.1-3032.2,1670.1z M-3042.4,1659.9c-0.6,0-1.2-0.2-1.7-0.7l-2-2c-0.9-0.9-0.9-2.5,0-3.4
				c0.9-0.9,2.5-0.9,3.4,0l2,2c0.9,0.9,0.9,2.5,0,3.4C-3041.2,1659.7-3041.8,1659.9-3042.4,1659.9z M-3052.6,1649.7
				c-0.6,0-1.2-0.2-1.7-0.7l-2-2c-0.9-0.9-0.9-2.5,0-3.4c0.9-0.9,2.5-0.9,3.4,0l2,2c0.9,0.9,0.9,2.5,0,3.4
				C-3051.4,1649.5-3052,1649.7-3052.6,1649.7z"/>
		</g>
		<g>
			<path class="st16" d="M-2937.2,1680.9h-1.5c-1.3,0-2.4-1.1-2.4-2.4c0-1.3,1.1-2.4,2.4-2.4h1.5c1.3,0,2.4,1.1,2.4,2.4
				C-2934.7,1679.8-2935.8,1680.9-2937.2,1680.9z"/>
		</g>
	</g>
	<g>
		<g>
			<path class="st16" d="M-3021.4,1694.7c-1.3,0-2.4-1.1-2.4-2.4v-1.5c0-1.3,1.1-2.4,2.4-2.4c1.3,0,2.4,1.1,2.4,2.4v1.5
				C-3019,1693.6-3020.1,1694.7-3021.4,1694.7z"/>
		</g>
		<g>
			<path class="st16" d="M-3021.4,1752.3c-1.3,0-2.4-1.1-2.4-2.4v-3c0-1.3,1.1-2.4,2.4-2.4c1.3,0,2.4,1.1,2.4,2.4v3
				C-3019,1751.3-3020.1,1752.3-3021.4,1752.3z M-3021.4,1737.4c-1.3,0-2.4-1.1-2.4-2.4v-3c0-1.3,1.1-2.4,2.4-2.4
				c1.3,0,2.4,1.1,2.4,2.4v3C-3019,1736.4-3020.1,1737.4-3021.4,1737.4z M-3021.4,1722.5c-1.3,0-2.4-1.1-2.4-2.4v-3
				c0-1.3,1.1-2.4,2.4-2.4c1.3,0,2.4,1.1,2.4,2.4v3C-3019,1721.4-3020.1,1722.5-3021.4,1722.5z M-3021.4,1707.6
				c-1.3,0-2.4-1.1-2.4-2.4v-3c0-1.3,1.1-2.4,2.4-2.4c1.3,0,2.4,1.1,2.4,2.4v3C-3019,1706.5-3020.1,1707.6-3021.4,1707.6z"/>
		</g>
		<g>
			<path class="st16" d="M-3021.4,1764.8c-1.3,0-2.4-1.1-2.4-2.4v-1.5c0-1.3,1.1-2.4,2.4-2.4c1.3,0,2.4,1.1,2.4,2.4v1.5
				C-3019,1763.7-3020.1,1764.8-3021.4,1764.8z"/>
		</g>
	</g>
	<path class="st13" d="M-2923.4,1675l-42.2-42.2l-0.3-0.3l-0.2-0.2c-0.2-0.2-0.4-0.3-0.5-0.4c-0.1-0.1-0.2-0.1-0.3-0.2
		c-0.2-0.1-0.4-0.2-0.6-0.3c-0.1-0.1-0.3-0.1-0.4-0.1c-0.2-0.1-0.4-0.1-0.6-0.2c-0.3-0.1-0.7-0.1-1-0.1h-94.6
		c-2.7,0-4.9,2.2-4.9,4.9v94.6c0,0.3,0,0.7,0.1,1c0,0.2,0.1,0.4,0.2,0.5l0.1,0.4c0.1,0.2,0.2,0.4,0.3,0.6l0.2,0.3
		c0.2,0.3,0.4,0.5,0.6,0.7l42.4,42.4c0.9,0.9,2.2,1.4,3.5,1.4h94.6c0.3,0,0.6,0,1-0.1c0.1,0,0.3-0.1,0.4-0.1c0.2,0,0.3-0.1,0.5-0.2
		c0.2-0.1,0.3-0.1,0.5-0.2c0.1-0.1,0.3-0.1,0.4-0.2c0.3-0.2,0.5-0.4,0.7-0.6c0.2-0.2,0.4-0.5,0.6-0.8c0.1-0.1,0.1-0.2,0.2-0.4
		c0.1-0.1,0.1-0.3,0.2-0.4l0,0c0.1-0.2,0.1-0.3,0.2-0.5c0-0.1,0.1-0.3,0.1-0.4c0.1-0.3,0.1-0.6,0.1-1v-94.6
		C-2921.9,1677.2-2922.4,1675.9-2923.4,1675z M-2964.4,1728.6V1648l32.6,32.6v80.6L-2964.4,1728.6z M-2974.2,1641v84.7h-84.7V1641
		H-2974.2z M-2971.3,1735.6l32.6,32.6h-80.6l-32.6-32.6H-2971.3z M-2968.6,1633.7C-2968.6,1633.7-2968.6,1633.7-2968.6,1633.7
		L-2968.6,1633.7L-2968.6,1633.7z M-3066.2,1731.4L-3066.2,1731.4L-3066.2,1731.4L-3066.2,1731.4z M-2926,1775.4L-2926,1775.4
		L-2926,1775.4L-2926,1775.4z M-2924.7,1774.1C-2924.7,1774.1-2924.7,1774.1-2924.7,1774.1L-2924.7,1774.1L-2924.7,1774.1z"/>
</g>
<g>
	<g>
		<g id="组_38_16_">
			<g id="椭圆_13-2_16_">
				<circle class="st4" cx="-5645.7" cy="1658" r="108.4"/>
			</g>
		</g>
	</g>
	<g>
		<g>
			<ellipse class="st5" cx="-5645.5" cy="1658" rx="47.2" ry="46.1"/>
		</g>
		<g>
			<path class="st5" d="M-5645.5,1612.4c25.7,0,46.7,20.5,46.7,45.6s-20.9,45.6-46.7,45.6c-25.7,0-46.7-20.5-46.7-45.6
				S-5671.3,1612.4-5645.5,1612.4 M-5645.5,1611.3c-26.4,0-47.7,20.9-47.7,46.7c0,25.8,21.4,46.7,47.7,46.7
				c26.4,0,47.7-20.9,47.7-46.7C-5597.8,1632.2-5619.1,1611.3-5645.5,1611.3L-5645.5,1611.3z"/>
		</g>
	</g>
	<g>
		<path class="st13" d="M-5657.9,1699.9c-19.8-4.1-34.2-21.7-34.2-41.9c0-20.2,14.1-37.2,33-41.7l-4,4c-1.5,1.5-1.5,4,0,5.5
			c0.8,0.8,1.8,1.1,2.8,1.1s2-0.4,2.8-1.1l11.7-11.7c1.5-1.5,1.5-4,0-5.5l-11.7-11.7c-1.5-1.5-4-1.5-5.5,0c-1.5,1.5-1.5,4,0,5.5
			l5.6,5.6c-24,4-42.4,24.9-42.4,50c0,24,17,44.8,40.4,49.6c0.3,0.1,0.5,0.1,0.8,0.1c1.8,0,3.5-1.3,3.8-3.1
			C-5654.4,1702.4-5655.7,1700.4-5657.9,1699.9z"/>
		<path class="st13" d="M-5591.5,1658c0-24-17-44.8-40.4-49.6c-2.1-0.4-4.2,0.9-4.6,3.1s0.9,4.2,3.1,4.6
			c19.8,4.1,34.2,21.7,34.2,41.9c0,20.2-14.1,37.2-33,41.7l4-4c1.5-1.5,1.5-4,0-5.5c-1.5-1.5-4-1.5-5.5,0l-11.7,11.7
			c-0.7,0.7-1.1,1.7-1.1,2.8c0,1,0.4,2,1.1,2.8l11.7,11.7c0.8,0.8,1.8,1.1,2.8,1.1s2-0.4,2.8-1.1c1.5-1.5,1.5-4,0-5.5l-5.5-5.5
			C-5609.9,1703.9-5591.5,1683.1-5591.5,1658z"/>
	</g>
</g>
<g>
	<g>
		<g id="组_38_15_">
			<circle id="椭圆_13-2_15_" class="st4" cx="-4829.2" cy="879.2" r="108.4"/>
		</g>
	</g>
	<g>
		<g>
			<polygon class="st5" points="-4898,871.4 -4775.1,841.1 -4816.2,917.3 			"/>
		</g>
		<g>
			<path class="st5" d="M-4776.2,841.9l-40.2,74.7l-80.1-45L-4776.2,841.9 M-4774.1,840.2l-125.3,30.9l83.4,46.9L-4774.1,840.2
				L-4774.1,840.2z"/>
		</g>
	</g>
	<path class="st13" d="M-4771,837.8c-1-1.2-2.5-1.8-4-1.4l-125.3,30.9c-1.6,0.4-2.7,1.7-2.9,3.3c-0.2,1.6,0.6,3.2,2,3.9l83.4,46.9
		c0.6,0.3,1.3,0.5,1.9,0.5c0.4,0,0.7-0.1,1.1-0.2c1-0.3,1.9-1,2.4-1.9l9.4-17.5h24.3c1.3,0,2.6-0.7,3.3-1.8c0.7-1.1,0.8-2.5,0.3-3.7
		l-11.2-25.4l15.8-29.3C-4769.9,840.7-4770,839.1-4771,837.8z M-4817.5,912.7l-66.9-37.6h87l-11.6,21.5c-0.2,0.3-0.3,0.7-0.4,1.1
		L-4817.5,912.7z M-4793.1,867.3h-74.1l85.5-21.1L-4793.1,867.3z"/>
</g>
<g>
	<g id="组_38_11_">
		<circle id="椭圆_13-2_11_" class="st4" cx="-4229.8" cy="806.2" r="141.4"/>
	</g>
</g>
<g>
	<g>
		<path class="st5" d="M-4520.5-655.5c-0.9,0.1-1.6,0.6-1.8,1.5c-0.1,0.5,0,1,0,1.5c0,6.1,0,12.2,0,18.3c0,6.4,0,12.8,0,19.2
			c0,1.4,0.7,2.2,2.2,2.2c11.8,0,23.7,0,35.5,0c0.4,0,0.6-0.1,0.7-0.6c0.3-2.5,0.7-4.9,0.9-7.4c0.3-3.2,0.6-6.3,0.6-9.5
			c0.1-5.2,0.1-10.4-0.4-15.6c-0.3-3-0.6-6-1.1-9c-0.1-0.5-0.3-0.7-0.8-0.7c-2.3,0-4.6,0-6.8,0L-4520.5-655.5z"/>
		<path class="st5" d="M-4451.9-650.4c-0.1-1.1-0.3-2.1-0.4-3.2c-0.3-3.5-0.9-6.9-1.5-10.3c-0.4-2.2-0.9-4.4-1.4-6.6
			c-0.1-0.3-0.1-0.5-0.5-0.3c-4.6,2.5-9.3,5.1-14,7.6c-4.6,2.5-9.2,5.1-13.9,7.6c-0.5,0.3-0.6,0.5-0.5,1c0.3,1.9,0.6,3.8,0.8,5.7
			c0.5,4,0.7,8.1,0.8,12.1c0.1,3.5,0,6.9-0.2,10.4c-0.1,2.3-0.3,4.5-0.6,6.8c-0.2,2.1-0.5,4.1-0.8,6.2c-0.1,0.4,0,0.6,0.4,0.8
			c1.4,0.8,2.9,1.5,4.3,2.3c3.7,2,7.3,4,11,6c4.2,2.3,8.3,4.5,12.4,6.8c0.4,0.2,0.6,0.2,0.7-0.3c0.5-2.3,0.9-4.6,1.3-6.9
			c0.5-3,1-6.1,1.3-9.1c0.3-2.8,0.6-5.6,0.8-8.4c0.3-3.4,0.4-6.9,0.5-10.4c0.1-5.4-0.1-10.8-0.5-16.1
			C-4451.8-649.3-4451.8-649.8-4451.9-650.4z"/>
		<path class="st9" d="M-4483.8-655.5c0.2,1.5,0.4,3.1,0.6,4.6c0.6,4.5,0.8,9.1,0.9,13.7c0.1,3.9,0,7.8-0.2,11.7
			c-0.1,2.6-0.4,5.1-0.7,7.7c-0.2,1.7-0.4,3.3-0.6,5"/>
		<path class="st13" d="M-4499.5-611.8c0-0.1,0-0.2,0-0.2c0,0,0,0,0,0c0-0.6,0-0.7-0.5-0.7c-0.1,0-0.2,0-0.3,0c-2.2,0-4.4,0-6.7,0
			c0,0,0,0,0,0c0,0,0,0,0,0c-2.2,0-4.4,0-6.7,0c-0.1,0-0.2,0-0.3,0c-0.5,0-0.5,0.1-0.5,0.7c0,0,0,0,0,0c0,0.1,0,0.2,0,0.2
			c0,4.8,0,9.6,0,14.4c0,4.9,0,9.8,0,14.6c0,1.1,0.5,1.6,1.5,1.6c1.4,0,4.1,0,4.1,0h3.7c0,0,2.7,0,4.1,0c1.1,0,1.5-0.5,1.5-1.6
			c0-4.9,0-9.8,0-14.6C-4499.5-602.2-4499.5-607-4499.5-611.8z"/>
		<path class="st13" d="M-4522.5-634.1c0-1.5,0-3,0-4.6c0-2.9,0-5.9,0-8.8c0-0.5-0.1-0.7-0.7-0.7c-0.5,0-1,0-1.5,0
			c-3.4,0-6.3,2.8-6.3,6.2c0,5.2,0,10.3,0,15.5c0,2.5,1.3,4.2,3.4,5.4c1.3,0.8,2.8,0.8,4.3,0.8c0.8,0,0.8,0,0.8-0.8
			C-4522.5-625.4-4522.5-629.8-4522.5-634.1z"/>
		<path class="st13" d="M-4450-652.4c0.1,0.6,0.1,1.2,0.1,1.7c0.5,4.3,0.7,8.6,0.8,12.9c0.1,3.7-0.1,7.4-0.3,11.1
			c0,1-0.1,1.9-0.2,2.9c-0.2,2-0.4,3.9-0.5,5.9c0,0.1-0.1,0.4,0.1,0.4c0.3,0.1,0.4-0.1,0.5-0.2c1.4-1,2.8-2.1,3.9-3.3
			c4.8-5,6.7-10.6,5.7-16.8c-0.8-4.7-3.3-8.8-7.4-12.3C-4448-651.1-4448.9-651.8-4450-652.4z"/>
	</g>
	<line class="st9" x1="-4429.5" y1="-634.1" x2="-4413.5" y2="-634.1"/>
	<line class="st9" x1="-4431.5" y1="-657.1" x2="-4419.5" y2="-669.1"/>
	<line class="st9" x1="-4431.5" y1="-611.1" x2="-4419.5" y2="-599.1"/>
</g>
<g>
	<g>
		<g>
			<path class="st13" d="M-4308.3,799.3c0-2,0-4,0-6c0-3.8,0-7.6,0-11.5c0-0.7-0.2-0.9-0.9-0.9c-0.7,0-1.3,0-2,0
				c-4.5,0-8.2,3.7-8.3,8.1c-0.1,6.7-0.1,13.5,0,20.2c0,3.2,1.7,5.5,4.5,7.1c1.7,1,3.6,1,5.6,1c1.1,0,1.1,0,1.1-1
				C-4308.3,810.7-4308.3,805-4308.3,799.3z"/>
		</g>
		<g>
			<path class="st13" d="M-4217.3,775.4c0.1,0.8,0.1,1.5,0.2,2.2c0.7,5.6,0.9,11.2,1.1,16.8c0.2,4.8-0.2,9.6-0.3,14.4
				c0,1.2-0.2,2.5-0.3,3.7c-0.2,2.6-0.5,5.1-0.7,7.7c0,0.2-0.1,0.5,0.1,0.6c0.3,0.1,0.5-0.2,0.7-0.3c1.9-1.3,3.6-2.7,5.2-4.3
				c6.3-6.5,8.8-13.9,7.5-21.9c-1-6.1-4.4-11.5-9.7-16.1C-4214.7,777.2-4215.8,776.2-4217.3,775.4z"/>
		</g>
		<g>
			<path class="st5" d="M-4262.8,820.1c0.4-3.8,0.7-6.9,0.9-9.8c0.2-4.1,0.5-9.5,0.3-14.9c-0.1-5.2-0.4-11.3-1.2-17.3l-0.1-1.1
				c-0.2-1.6-0.4-3.2-0.6-4.8c0-0.3,0-0.5,0-0.8c-1.7,0-3.3,0-5,0l-37.7,0c-1.2,0.1-2.1,0.8-2.4,2c-0.2,0.7,0,1.3,0,2
				c0,7.9,0,15.9,0,23.8c0,8.3,0,16.7,0,25c0,1.9,1,2.9,2.8,2.9c14.1,0,28.2,0,42.3,0c0-0.2,0-0.4,0-0.7
				C-4263.3,824-4263,822-4262.8,820.1z"/>
			<g>
				<path class="st5" d="M-4216.7,779.9c0-0.5-0.1-1.1-0.2-1.9c-0.2-1.4-0.4-2.8-0.5-4.2c-0.4-4.5-1.1-9-2-13.5
					c-0.5-2.9-1.1-5.8-1.8-8.7c-0.1-0.4-0.1-0.6-0.6-0.3c-6.1,3.3-12.1,6.6-18.2,9.9c-4.7,2.5-9.3,5.1-14,7.6
					c0.3,0.5,0.5,1.1,0.6,1.8c0.2,1.7,0.5,3.3,0.7,5l0.1,1.1c0.8,6.5,1.1,12.9,1.3,18.4c0.2,5.8-0.1,11.4-0.3,15.7
					c-0.2,3-0.5,6.3-0.9,10.3c-0.2,2-0.5,4.1-0.9,6.7c-0.1,0.6-0.3,1.2-0.5,1.7c0.4,0.2,0.8,0.4,1.2,0.6c4.8,2.6,9.6,5.2,14.4,7.8
					c5.4,3,10.8,5.9,16.2,8.9c0.6,0.3,0.7,0.2,0.9-0.4c0.6-3,1.2-6,1.7-9c0.7-3.9,1.3-7.9,1.8-11.9c0.4-3.7,0.8-7.3,1.1-11
					c0.3-4.5,0.6-9,0.7-13.5C-4215.9,794-4216.2,787-4216.7,779.9z"/>
				<path class="st13" d="M-4252.5,821.2c0.5-4,0.7-7.3,0.9-10.3c0.2-4.3,0.5-10,0.3-15.7c-0.2-5.4-0.4-11.8-1.3-18.4l-0.1-1.1
					c-0.2-1.7-0.4-3.3-0.7-5c-0.1-0.6-0.3-1.2-0.6-1.8c-1-1.8-3.1-2.9-5.3-2.6c-2.6,0.4-4.4,2.6-4.4,5.1c0,0.3,0,0.5,0,0.8
					c0.2,1.6,0.4,3.2,0.6,4.8l0.1,1.1c0.8,6.1,1,12.2,1.2,17.3c0.2,5.4-0.1,10.8-0.3,14.9c-0.2,2.8-0.4,5.9-0.9,9.8
					c-0.2,1.9-0.5,3.9-0.8,6.4c0,0.2,0,0.5,0,0.7c0,2.6,1.8,4.9,4.4,5.2c0.3,0,0.5,0.1,0.8,0.1c2,0,3.7-1.1,4.6-2.8
					c0.3-0.5,0.5-1.1,0.5-1.7C-4253,825.4-4252.7,823.2-4252.5,821.2z"/>
			</g>
		</g>
		<g>
			<path class="st13" d="M-4279,828.4c0-0.1,0-0.2,0-0.3c0,0,0,0,0,0c0-0.8,0-0.9-0.6-0.9c-0.1,0-0.2,0-0.4,0c-2.9,0-5.8,0-8.7,0
				c0,0,0,0,0,0c0,0,0,0,0,0c-2.9,0-5.8,0-8.7,0c-0.1,0-0.3,0-0.4,0c-0.6,0-0.6,0.2-0.6,0.9c0,0,0,0,0,0c0,0.1,0,0.2,0,0.3
				c0,6.2,0,12.5,0,18.7c0,6.4,0,12.7,0,19.1c0,1.5,0.6,2.1,2,2.1c1.8,0,5.3,0,5.3,0h4.8c0,0,3.6,0,5.3,0c1.4,0,2-0.6,2-2.1
				c0-6.4,0-12.7,0-19.1C-4279,840.9-4278.9,834.7-4279,828.4z"/>
		</g>
	</g>
	<g>
		<path class="st13" d="M-4166.7,804.6h-20.9c-2.9,0-5.2-2.3-5.2-5.2c0-2.9,2.3-5.2,5.2-5.2h20.9c2.9,0,5.2,2.3,5.2,5.2
			C-4161.5,802.2-4163.8,804.6-4166.7,804.6z"/>
	</g>
	<g>
		<path class="st13" d="M-4190.2,774.6c-1.3,0-2.7-0.5-3.7-1.5c-2-2-2-5.3,0-7.4l15.7-15.7c2-2,5.3-2,7.4,0c2,2,2,5.3,0,7.4
			l-15.7,15.7C-4187.5,774-4188.9,774.6-4190.2,774.6z"/>
	</g>
	<g>
		<path class="st13" d="M-4174.6,850.2c-1.3,0-2.7-0.5-3.7-1.5l-15.7-15.7c-2-2-2-5.3,0-7.4c2-2,5.3-2,7.4,0l15.7,15.7
			c2,2,2,5.3,0,7.4C-4171.9,849.7-4173.2,850.2-4174.6,850.2z"/>
	</g>
</g>
<text transform="matrix(1 0 0 1 -6375.752 -842.4768)" style="font-family:'GothamUltra'; font-size:114.1764px;">2</text>
<text transform="matrix(1 0 0 1 -6034.752 330.5232)" style="font-family:'GothamUltra'; font-size:114.1764px;">1</text>
<g>
	<g id="组_38_10_">
		<circle id="椭圆_13-2_10_" class="st4" cx="-3950.5" cy="1694.3" r="141.4"/>
	</g>
</g>
<g>
	<g>
		<path class="st5" d="M-3880.5,1623h-95.2c-5.5,0-10,4.5-10,10v18c15.1,3.1,26.4,16.4,26.4,32.4c0,9.4-3.9,17.9-10.3,23.9h89
			c5.5,0,10-4.5,10-10V1633C-3870.5,1627.5-3875,1623-3880.5,1623z"/>
	</g>
	<g>
		<rect x="-3951.6" y="1664.8" class="st13" width="12.5" height="27.2"/>
		<rect x="-3932.9" y="1646.4" class="st13" width="12.5" height="45.6"/>
		<rect x="-3914.1" y="1639.3" class="st13" width="12.5" height="52.7"/>
	</g>
	<path class="st13" d="M-4033.4,1763.7c-6,0-10.5-5.6-9.2-11.5c5.2-23,25.8-40.1,50.3-40.1s45.1,17.1,50.3,40.1
		c1.3,5.9-3.2,11.5-9.2,11.5H-4033.4z"/>
</g>
<g>
	<circle class="st13" cx="-3992.2" cy="1683.3" r="23.9"/>
</g>
<g>
	<g>
		<path class="st0" d="M984.1,4454.6l5.6-16.2c179.2-519.6-2.1-1095.3-446.6-1418.6l0,0"/>
		<path class="st0" d="M643.3,2942.5l-21.1,27.3C303.4,3382,132.4,3889.4,136.5,4410.5v0l0,0c147.1-225.8,336.2-418.1,554.8-568
			c189.6-130,401.4-228,627.2-288.1l67.4-17.9l-135.3,33.6c-459.3,114.1-941.8,92.6-1389.2-61.8l0,0l35.8,12.4l0,0
			C371.8,3679,784.6,3982.4,1077.5,4388l37.2,51.5l-37.9-49.4"/>
	</g>
	<g>
		<path class="st13" d="M595.2,2966.6c53.8,0,107.5,5.4,159.7,16.1c50.9,10.4,100.9,25.9,148.8,46.2c47,19.9,92.3,44.4,134.6,73.1
			c42,28.4,81.4,60.9,117.3,96.8c35.9,35.9,68.4,75.3,96.8,117.3c28.6,42.4,53.2,87.7,73.1,134.6c20.2,47.8,35.8,97.9,46.2,148.8
			c10.7,52.2,16.1,106,16.1,159.7s-5.4,107.5-16.1,159.7c-10.4,50.9-25.9,100.9-46.2,148.8c-19.9,47-44.4,92.3-73.1,134.6
			c-28.4,42-60.9,81.4-96.8,117.3c-35.9,35.9-75.3,68.4-117.3,96.8c-42.4,28.6-87.7,53.2-134.6,73.1
			c-47.8,20.2-97.9,35.8-148.8,46.2c-52.2,10.7-106,16.1-159.7,16.1c-53.8,0-107.5-5.4-159.7-16.1c-50.9-10.4-100.9-25.9-148.8-46.2
			c-47-19.9-92.3-44.4-134.6-73.1c-42-28.4-81.4-60.9-117.3-96.8c-35.9-35.9-68.4-75.3-96.8-117.3c-28.6-42.4-53.2-87.7-73.1-134.6
			c-20.2-47.8-35.8-97.9-46.2-148.8c-10.7-52.2-16.1-106-16.1-159.7s5.4-107.5,16.1-159.7c10.4-50.9,25.9-100.9,46.2-148.8
			c19.9-47,44.4-92.3,73.1-134.6c28.4-42,60.9-81.4,96.8-117.3c35.9-35.9,75.3-68.4,117.3-96.8c42.4-28.6,87.7-53.2,134.6-73.1
			c47.8-20.2,97.9-35.8,148.8-46.2C487.6,2972,541.4,2966.6,595.2,2966.6 M595.2,2956.6c-443.2,0-802.5,359.3-802.5,802.5
			s359.3,802.5,802.5,802.5c443.2,0,802.5-359.3,802.5-802.5S1038.4,2956.6,595.2,2956.6L595.2,2956.6z"/>
	</g>
</g>
<g>
	<g>
		<g id="组_38_21_">
			<circle id="椭圆_13-2_21_" class="st4" cx="3187" cy="2419.3" r="902"/>
		</g>
	</g>
	<g>
		<path class="st3" d="M3410.9,2183.2c-122.2-122.2-321.1-122.2-443.3,0c-104.6,104.6-119.6,265.4-45.1,386.2l-255,255
			c-9.4,9.4-14.5,21.8-14.5,35.1c0,13.3,5.2,25.7,14.5,35.1c9.4,9.4,21.8,14.5,35.1,14.5c13.3,0,25.7-5.2,35.1-14.5l249.9-249.9
			c123,103.7,307.6,97.7,423.4-18.2C3533.1,2504.3,3533.1,2305.4,3410.9,2183.2z M3355.6,2571.3c-91.8,91.8-241,91.8-332.8,0
			c-91.8-91.8-91.8-241,0-332.8c91.8-91.8,241-91.8,332.8,0C3447.3,2330.2,3447.3,2479.5,3355.6,2571.3z"/>
		<path class="st5" d="M3355.6,2238.5c-91.9-91.9-240.9-91.9-332.8,0s-91.9,240.9,0,332.8s240.9,91.9,332.8,0
			S3447.5,2330.4,3355.6,2238.5z M3318.3,2288.1c-8.2,8.2-21.6,8.2-29.8,0c-54.8-54.8-143.9-54.8-198.6,0c-4.1,4.1-9.5,6.2-14.9,6.2
			c-5.4,0-10.8-2.1-14.9-6.2c-8.2-8.2-8.2-21.6,0-29.8c71.2-71.2,187-71.2,258.2,0C3326.6,2266.5,3326.6,2279.9,3318.3,2288.1z"/>
	</g>
</g>
<g>
	<g>
		<g id="组_38_20_">
			<circle id="椭圆_13-2_20_" class="st4" cx="3077.7" cy="2909.1" r="891"/>
		</g>
	</g>
	<g id="组_37_2_" transform="translate(-446 75)">
		<g id="_21_2_" transform="translate(1744.565 1587.158)">
			<path class="st5" d="M1755.7,784.5L1755.7,784.5c-0.2,0-0.4,0-0.6,0c-0.2,0-0.4,0-0.6,0v0c-156.8,0.7-283.6,128.1-283.6,285
				c0,70.2,25.8,137.7,72.7,190c0,0,90.4,117.4,106.8,170.6h104.1h1.2h104.1c16.7-53.5,106.8-170.6,106.8-170.6
				c47.1-52.3,72.9-120.1,72.9-190C2039.6,912.6,1912.6,785.2,1755.7,784.5z M1693.5,922.2c-49.8,0.1-90.4,40.8-90.5,90.7
				c0,17.5-14.2,31.6-31.6,31.6c0,0,0,0-0.1,0c-17.5,0-31.6-14.2-31.6-31.7c0.2-84.7,69.1-153.7,153.7-153.8c0,0,0,0,0.1,0
				c17.4,0,31.6,14.1,31.6,31.6C1725.1,908,1711,922.2,1693.5,922.2z"/>
			<path id="路径_258_2_" class="st13" d="M1644.5,1602.1c0,59.2,47.9,107.3,107.3,107.3c59.2,0,107.3-47.9,107.3-107.3
				s-47.9-107.3-107.3-107.3l0,0C1692.4,1494.8,1644.5,1542.9,1644.5,1602.1z"/>
			<path class="st14" d="M1868.4,1418.9h-113.7v0h-112.7c-20.1,0-36.6,16.5-36.6,36.6c0,20.1,16.5,36.6,36.6,36.6h113.7v0h112.7
				c20.1,0,36.6-16.2,36.6-36.6C1905,1435.4,1888.6,1418.9,1868.4,1418.9z"/>
			<path class="st14" d="M1868.2,1563.1h-112.5h-1.2h-112.5c-20.1,0-36.6,16.5-36.6,36.6c0,20.1,16.5,36.6,36.6,36.6h112.5h1.2
				h112.5c20.1,0,36.6-16.5,36.6-36.6C1904.8,1579.5,1888.3,1563.1,1868.2,1563.1z"/>
			<path class="st13" d="M1868.2,1491.1h-112.5v-0.2h-113.7c-20.1,0-36.6,16.5-36.6,36.6c0,20.1,16.5,36.6,36.6,36.6h112.5v0.2
				h113.7c20.1,0,36.6-16.5,36.6-36.6C1904.8,1507.6,1888.3,1491.1,1868.2,1491.1z"/>
			<path id="路径_265_3_" class="st15" d="M1754.3,924.9"/>
		</g>
	</g>
</g>
<g>
	<g>
		<g id="组_38_14_">
			<circle id="椭圆_13-2_14_" class="st4" cx="990" cy="990" r="891"/>
		</g>
	</g>
	<g>
		<g>
			<path class="st16" d="M578.4,641.1c-3.9,0-7.8-1.5-10.8-4.5l-6.8-6.8c-6-6-6-15.7,0-21.6c6-6,15.7-6,21.6,0l6.8,6.8
				c6,6,6,15.7,0,21.6C586.3,639.6,582.4,641.1,578.4,641.1z"/>
		</g>
		<g>
			<path class="st16" d="M1288.2,901.8H1270c-8.4,0-15.3-6.8-15.3-15.3c0-8.4,6.8-15.3,15.3-15.3h18.2c8.4,0,15.3,6.8,15.3,15.3
				C1303.5,895,1296.6,901.8,1288.2,901.8z M1197.3,901.8h-18.2c-8.4,0-15.3-6.8-15.3-15.3c0-8.4,6.8-15.3,15.3-15.3h18.2
				c8.4,0,15.3,6.8,15.3,15.3C1212.6,895,1205.8,901.8,1197.3,901.8z M1106.5,901.8h-18.2c-8.4,0-15.3-6.8-15.3-15.3
				c0-8.4,6.8-15.3,15.3-15.3h18.2c8.4,0,15.3,6.8,15.3,15.3C1121.8,895,1114.9,901.8,1106.5,901.8z M1015.6,901.8h-18.2
				c-8.4,0-15.3-6.8-15.3-15.3c0-8.4,6.8-15.3,15.3-15.3h18.2c8.4,0,15.3,6.8,15.3,15.3C1030.9,895,1024,901.8,1015.6,901.8z
				 M924.7,901.8h-18.2c-8.4,0-15.3-6.8-15.3-15.3c0-8.4,6.8-15.3,15.3-15.3h18.2c8.4,0,15.3,6.8,15.3,15.3
				C940,895,933.2,901.8,924.7,901.8z M835.4,898.1c-3.9,0-7.8-1.5-10.8-4.5l-12.8-12.8c-6-6-6-15.6,0-21.6c6-6,15.7-6,21.6,0
				l12.8,12.8c6,6,6,15.6,0,21.6C843.3,896.6,839.4,898.1,835.4,898.1z M771.2,833.8c-3.9,0-7.8-1.5-10.8-4.5l-12.8-12.8
				c-6-6-6-15.6,0-21.6c6-6,15.7-6,21.6,0l12.8,12.8c6,6,6,15.6,0,21.6C779,832.3,775.1,833.8,771.2,833.8z M706.9,769.6
				c-3.9,0-7.8-1.5-10.8-4.5l-12.8-12.8c-6-6-6-15.6,0-21.6c6-6,15.7-6,21.6,0l12.8,12.8c6,6,6,15.6,0,21.6
				C714.8,768.1,710.9,769.6,706.9,769.6z M642.7,705.3c-3.9,0-7.8-1.5-10.8-4.5L619,688c-6-6-6-15.6,0-21.6c6-6,15.7-6,21.6,0
				l12.8,12.8c6,6,6,15.6,0,21.6C650.5,703.8,646.6,705.3,642.7,705.3z"/>
		</g>
		<g>
			<path class="st16" d="M1370.4,901.8h-9.6c-8.4,0-15.3-6.8-15.3-15.3c0-8.4,6.8-15.3,15.3-15.3h9.6c8.4,0,15.3,6.8,15.3,15.3
				C1385.7,895,1378.9,901.8,1370.4,901.8z"/>
		</g>
	</g>
	<g>
		<g>
			<path class="st16" d="M839.2,988.9c-8.4,0-15.3-6.8-15.3-15.3V964c0-8.4,6.8-15.3,15.3-15.3c8.4,0,15.3,6.8,15.3,15.3v9.6
				C854.5,982,847.7,988.9,839.2,988.9z"/>
		</g>
		<g>
			<path class="st16" d="M839.2,1352c-8.4,0-15.3-6.8-15.3-15.3v-18.8c0-8.4,6.8-15.3,15.3-15.3c8.4,0,15.3,6.8,15.3,15.3v18.8
				C854.5,1345.2,847.7,1352,839.2,1352z M839.2,1258.1c-8.4,0-15.3-6.8-15.3-15.3V1224c0-8.4,6.8-15.3,15.3-15.3
				c8.4,0,15.3,6.8,15.3,15.3v18.8C854.5,1251.2,847.7,1258.1,839.2,1258.1z M839.2,1164.1c-8.4,0-15.3-6.8-15.3-15.3V1130
				c0-8.4,6.8-15.3,15.3-15.3c8.4,0,15.3,6.8,15.3,15.3v18.8C854.5,1157.3,847.7,1164.1,839.2,1164.1z M839.2,1070.2
				c-8.4,0-15.3-6.8-15.3-15.3v-18.8c0-8.4,6.8-15.3,15.3-15.3c8.4,0,15.3,6.8,15.3,15.3v18.8
				C854.5,1063.3,847.7,1070.2,839.2,1070.2z"/>
		</g>
		<g>
			<path class="st16" d="M839.2,1430.4c-8.4,0-15.3-6.8-15.3-15.3v-9.6c0-8.4,6.8-15.3,15.3-15.3c8.4,0,15.3,6.8,15.3,15.3v9.6
				C854.5,1423.6,847.7,1430.4,839.2,1430.4z"/>
		</g>
	</g>
	<path class="st13" d="M1457.4,864.5l-265.7-265.7l-1.6-1.6l-1.4-1.3c-1.1-1-2.2-1.9-3.4-2.6c-0.6-0.4-1.3-0.8-1.9-1.1
		c-1.1-0.6-2.2-1.2-3.5-1.8c-0.8-0.3-1.6-0.6-2.3-0.8c-1.2-0.4-2.3-0.8-3.5-1c-2-0.4-4.1-0.6-6.2-0.6H571.7
		c-17.2,0-31.1,14-31.1,31.1v596.2c0,2,0.2,4.1,0.6,6.1c0.2,1.2,0.6,2.3,1,3.4l0.8,2.5c0.5,1.3,1.2,2.5,1.8,3.5l1.1,1.9
		c1.1,1.7,2.4,3.2,3.8,4.6l267.5,267.5c5.9,5.9,13.7,9.1,22,9.1h596.2c2,0,4.1-0.2,6.2-0.6c0.9-0.2,1.7-0.4,2.7-0.7c1-0.3,2-0.6,3-1
		c1-0.4,1.9-0.9,2.9-1.4c0.9-0.4,1.7-0.9,2.5-1.5c1.7-1.1,3.2-2.4,4.7-3.8c1.4-1.4,2.7-3,4-4.8c0.5-0.7,0.9-1.5,1.4-2.5
		c0.5-0.9,0.9-1.7,1.3-2.7l0-0.1c0.4-1,0.7-2,1-3.1c0.3-0.9,0.6-1.8,0.7-2.7c0.4-2,0.6-4.1,0.6-6.1V886.5
		C1466.5,878.2,1463.3,870.4,1457.4,864.5z M1199,1202.3V694.1l205.3,205.3v508.2L1199,1202.3z M1136.8,650.1v534h-534v-534H1136.8z
		 M1155,1246.3l205.3,205.3H852.1l-205.3-205.3H1155z M1172.4,604.5C1172.4,604.5,1172.4,604.5,1172.4,604.5L1172.4,604.5
		L1172.4,604.5z M557.3,1220.1L557.3,1220.1L557.3,1220.1L557.3,1220.1z M1440.5,1497.1L1440.5,1497.1L1440.5,1497.1L1440.5,1497.1z
		 M1449.1,1489.3C1449.1,1489.3,1449.1,1489.3,1449.1,1489.3L1449.1,1489.3L1449.1,1489.3z"/>
</g>
<g>
	<g>
		<g id="组_38_13_">
			<circle id="椭圆_13-2_13_" class="st4" cx="-157.6" cy="3506.8" r="141.4"/>
		</g>
	</g>
	<g>
		<g>
			<g>
				<path class="st13" d="M-236.2,3499.9c0-2,0-4,0-6c0-3.8,0-7.6,0-11.5c0-0.7-0.2-0.9-0.9-0.9c-0.7,0-1.3,0-2,0
					c-4.5,0-8.2,3.7-8.3,8.1c-0.1,6.7-0.1,13.5,0,20.2c0,3.2,1.7,5.5,4.5,7.1c1.7,1,3.6,1,5.6,1c1.1,0,1.1,0,1.1-1
					C-236.2,3511.3-236.2,3505.6-236.2,3499.9z"/>
			</g>
			<g>
				<path class="st13" d="M-145.2,3476c0.1,0.8,0.1,1.5,0.2,2.2c0.7,5.6,0.9,11.2,1.1,16.8c0.2,4.8-0.2,9.6-0.3,14.4
					c0,1.2-0.2,2.5-0.3,3.7c-0.2,2.6-0.5,5.1-0.7,7.7c0,0.2-0.1,0.5,0.1,0.6c0.3,0.1,0.5-0.2,0.7-0.3c1.9-1.3,3.6-2.7,5.2-4.3
					c6.3-6.5,8.8-13.9,7.5-21.9c-1-6.1-4.4-11.5-9.7-16.1C-142.5,3477.8-143.7,3476.8-145.2,3476z"/>
			</g>
			<g>
				<path class="st5" d="M-190.7,3520.6c0.4-3.8,0.7-6.9,0.9-9.8c0.2-4.1,0.5-9.5,0.3-14.9c-0.1-5.2-0.4-11.3-1.2-17.3l-0.1-1.1
					c-0.2-1.6-0.4-3.2-0.6-4.8c0-0.3,0-0.5,0-0.8c-1.7,0-3.3,0-5,0l-37.7,0c-1.2,0.1-2.1,0.8-2.4,2c-0.2,0.7,0,1.3,0,2
					c0,7.9,0,15.9,0,23.8c0,8.3,0,16.7,0,25c0,1.9,1,2.9,2.8,2.9c14.1,0,28.2,0,42.3,0c0-0.2,0-0.4,0-0.7
					C-191.1,3524.6-190.9,3522.6-190.7,3520.6z"/>
				<g>
					<path class="st5" d="M-144.5,3480.5c0-0.5-0.1-1.1-0.2-1.9c-0.2-1.4-0.4-2.8-0.5-4.2c-0.4-4.5-1.1-9-2-13.5
						c-0.5-2.9-1.1-5.8-1.8-8.7c-0.1-0.4-0.1-0.6-0.6-0.3c-6.1,3.3-12.1,6.6-18.2,9.9c-4.7,2.5-9.3,5.1-14,7.6
						c0.3,0.5,0.5,1.1,0.6,1.8c0.2,1.7,0.5,3.3,0.7,5l0.1,1.1c0.8,6.5,1.1,12.9,1.3,18.4c0.2,5.8-0.1,11.4-0.3,15.7
						c-0.2,3-0.5,6.3-0.9,10.3c-0.2,2-0.5,4.1-0.9,6.7c-0.1,0.6-0.3,1.2-0.5,1.7c0.4,0.2,0.8,0.4,1.2,0.6c4.8,2.6,9.6,5.2,14.4,7.8
						c5.4,3,10.8,5.9,16.2,8.9c0.6,0.3,0.7,0.2,0.9-0.4c0.6-3,1.2-6,1.7-9c0.7-3.9,1.3-7.9,1.8-11.9c0.4-3.7,0.8-7.3,1.1-11
						c0.3-4.5,0.6-9,0.7-13.5C-143.7,3494.6-144,3487.5-144.5,3480.5z"/>
					<path class="st13" d="M-180.3,3521.8c0.5-4,0.7-7.3,0.9-10.3c0.2-4.3,0.5-10,0.3-15.7c-0.2-5.4-0.4-11.8-1.3-18.4l-0.1-1.1
						c-0.2-1.7-0.4-3.3-0.7-5c-0.1-0.6-0.3-1.2-0.6-1.8c-1-1.8-3.1-2.9-5.3-2.6c-2.6,0.4-4.4,2.6-4.4,5.1c0,0.3,0,0.5,0,0.8
						c0.2,1.6,0.4,3.2,0.6,4.8l0.1,1.1c0.8,6.1,1,12.2,1.2,17.3c0.2,5.4-0.1,10.8-0.3,14.9c-0.2,2.8-0.4,5.9-0.9,9.8
						c-0.2,1.9-0.5,3.9-0.8,6.4c0,0.2,0,0.5,0,0.7c0,2.6,1.8,4.9,4.4,5.2c0.3,0,0.5,0.1,0.8,0.1c2,0,3.7-1.1,4.6-2.8
						c0.3-0.5,0.5-1.1,0.5-1.7C-180.8,3526-180.5,3523.8-180.3,3521.8z"/>
				</g>
			</g>
			<g>
				<path class="st13" d="M-206.8,3529c0-0.1,0-0.2,0-0.3c0,0,0,0,0,0c0-0.8,0-0.9-0.6-0.9c-0.1,0-0.2,0-0.4,0c-2.9,0-5.8,0-8.7,0
					c0,0,0,0,0,0c0,0,0,0,0,0c-2.9,0-5.8,0-8.7,0c-0.1,0-0.3,0-0.4,0c-0.6,0-0.6,0.2-0.6,0.9c0,0,0,0,0,0c0,0.1,0,0.2,0,0.3
					c0,6.2,0,12.5,0,18.7c0,6.4,0,12.7,0,19.1c0,1.5,0.6,2.1,2,2.1c1.8,0,5.3,0,5.3,0h4.8c0,0,3.6,0,5.3,0c1.4,0,2-0.6,2-2.1
					c0-6.4,0-12.7,0-19.1C-206.8,3541.5-206.8,3535.3-206.8,3529z"/>
			</g>
		</g>
		<g>
			<path class="st13" d="M-94.5,3505.1h-20.9c-2.9,0-5.2-2.3-5.2-5.2s2.3-5.2,5.2-5.2h20.9c2.9,0,5.2,2.3,5.2,5.2
				S-91.7,3505.1-94.5,3505.1z"/>
		</g>
		<g>
			<path class="st13" d="M-118,3475.1c-1.3,0-2.7-0.5-3.7-1.5c-2-2-2-5.3,0-7.4l15.7-15.7c2-2,5.3-2,7.4,0c2,2,2,5.3,0,7.4
				l-15.7,15.7C-115.4,3474.6-116.7,3475.1-118,3475.1z"/>
		</g>
		<g>
			<path class="st13" d="M-102.4,3550.8c-1.3,0-2.7-0.5-3.7-1.5l-15.7-15.7c-2-2-2-5.3,0-7.4c2-2,5.3-2,7.4,0l15.7,15.7
				c2,2,2,5.3,0,7.4C-99.7,3550.3-101,3550.8-102.4,3550.8z"/>
		</g>
	</g>
</g>
<g>
	<g>
		<g id="组_38_12_">
			<circle id="椭圆_13-2_12_" class="st4" cx="121.6" cy="4394.9" r="141.4"/>
		</g>
	</g>
	<g>
		<g>
			<path class="st5" d="M191.7,4323.6H96.5c-5.5,0-10,4.5-10,10v18c15.1,3.1,26.4,16.4,26.4,32.4c0,9.4-3.9,17.9-10.3,23.9h89
				c5.5,0,10-4.5,10-10v-64.3C201.7,4328.1,197.2,4323.6,191.7,4323.6z"/>
		</g>
		<g>
			<rect x="120.5" y="4365.4" class="st13" width="12.5" height="27.2"/>
			<rect x="139.3" y="4346.9" class="st13" width="12.5" height="45.6"/>
			<rect x="158.1" y="4339.9" class="st13" width="12.5" height="52.7"/>
		</g>
		<path class="st13" d="M38.8,4464.3c-6,0-10.5-5.6-9.2-11.5c5.2-23,25.8-40.1,50.3-40.1s45.1,17.1,50.3,40.1
			c1.3,5.9-3.2,11.5-9.2,11.5H38.8z"/>
	</g>
</g>
<g>
	<circle class="st13" cx="79.9" cy="4383.9" r="23.9"/>
</g>
</svg>
