<?xml version="1.0" encoding="utf-8"?>
<!-- Generator: Adobe Illustrator 24.0.0, SVG Export Plug-In . SVG Version: 6.00 Build 0)  -->
<svg version="1.1" id="Layer_1" xmlns="http://www.w3.org/2000/svg" xmlns:xlink="http://www.w3.org/1999/xlink" x="0px" y="0px"
	 viewBox="0 0 1980 1980" style="enable-background:new 0 0 1980 1980;" xml:space="preserve">
<style type="text/css">
	.st0{opacity:0.3;fill:none;stroke:#4497FF;stroke-width:10;stroke-linecap:round;stroke-linejoin:round;stroke-miterlimit:10;}
	.st1{fill:none;stroke:#566ED1;stroke-width:40;stroke-linecap:round;stroke-miterlimit:10;}
	.st2{fill:none;stroke:#25497A;stroke-width:40;stroke-miterlimit:10;}
	.st3{fill:#26497A;}
	.st4{fill:#4497FF;}
	.st5{fill:#E4F2FF;}
	.st6{fill:none;stroke:#B7DFE6;stroke-width:20;stroke-linecap:round;stroke-miterlimit:10;}
	.st7{fill:none;stroke:#E4F2FF;stroke-width:8;stroke-linecap:round;stroke-linejoin:round;}
	.st8{fill:none;stroke:#E4F2FF;stroke-width:8;stroke-linecap:round;stroke-linejoin:round;stroke-dasharray:4.755,19.02;}
	.st9{fill:none;stroke:#25497A;stroke-width:8;stroke-linecap:round;stroke-linejoin:round;stroke-miterlimit:10;}
	.st10{fill:none;stroke:#E4F2FF;stroke-width:8;stroke-linecap:round;stroke-linejoin:round;stroke-dasharray:4.9167,19.6667;}
	.st11{opacity:0.3;}
	.st12{fill:none;}
	.st13{fill:#25497A;}
	.st14{fill:#B7DFE6;}
	.st15{fill:#D4F1FF;}
	.st16{fill:#E4F2FF;stroke:#E4F2FF;stroke-width:1.5;stroke-miterlimit:10;}
	.st17{fill:none;stroke:#4497FF;stroke-width:6;stroke-linecap:round;stroke-miterlimit:10;}
	.st18{fill:none;stroke:#4497FF;stroke-width:6;stroke-linecap:round;stroke-linejoin:round;}
</style>
<g>
	<g>
		<g id="组_38_22_">
			<circle id="椭圆_13-2_22_" class="st4" cx="990" cy="990" r="888.9"/>
		</g>
	</g>
	<g>
		<g>
			<g>
				<path class="st13" d="M496.2,946.7c0-12.5,0-25,0-37.5c0-24-0.1-48,0.1-72.1c0-4.1-1.1-5.9-5.4-5.6c-4.1,0.3-8.3,0-12.5,0.1
					c-28,0.3-51.7,23.1-52,51.2c-0.4,42.4-0.4,84.9,0.1,127.3c0.2,20.2,10.8,34.6,28.1,44.4c11,6.2,22.9,6.4,35,6.3
					c6.6-0.1,6.7,0,6.7-6.6C496.2,1018.4,496.2,982.6,496.2,946.7z"/>
			</g>
			<g>
				<path class="st13" d="M1068.4,796.5c0.4,5.2,0.6,9.6,1.1,14c4.2,35.1,5.5,70.3,6.8,105.5c1.2,30.3-1,60.5-2.2,90.7
					c-0.3,7.8-1,15.7-1.7,23.5c-1.4,16.1-3,32.2-4.4,48.3c-0.1,1.2-0.9,2.9,0.8,3.5c2.1,0.8,3.2-1.1,4.4-2
					c11.8-8.4,22.8-17.2,32.4-27.2c39.7-41.1,55.3-87.3,47.2-138c-6.2-38.6-27.4-72.2-60.8-101.2
					C1085.2,807.6,1077.9,801.7,1068.4,796.5z"/>
			</g>
			<g>
				<path class="st5" d="M782.4,1077.3c2.7-24.1,4.4-43.6,5.4-61.3c1.4-25.8,2.9-59.8,1.9-93.5c-0.9-32.5-2.5-70.9-7.4-109.1
					l-0.9-7.2c-1.3-10-2.5-20-4-30c-0.2-1.7-0.2-3.4-0.2-5c-10.5,0-21,0-31.5,0l-236.9,0c-7.6,0.4-13.2,5.3-14.9,12.7
					c-1,4.2-0.2,8.3-0.2,12.4c-0.1,50,0,99.9,0,149.9c0,52.4,0,104.7,0,157.1c0,11.8,6.1,18.1,17.7,18.1c88.6,0,177.1,0,265.7,0.1
					c0-1.4,0-2.8,0.2-4.2C779.4,1102,781.1,1089.3,782.4,1077.3z"/>
				<g>
					<path class="st5" d="M1072.5,825.1c-0.2-3-0.5-6.8-1.1-12.3c-1-8.8-2.3-17.6-3.1-26.4c-2.6-28.4-7.2-56.5-12.3-84.6
						c-3.3-18.3-7-36.4-11.2-54.5c-0.5-2.3-0.7-4-4-2.2c-38.1,20.9-76.3,41.6-114.5,62.4c-29.3,16-58.5,32-87.8,47.9
						c1.9,3.4,3.3,7.1,3.9,11.2c1.5,10.4,2.8,20.9,4.2,31.3l0.9,7.1c5.2,41,6.9,81.4,7.9,115.5c1,36.2-0.5,71.9-2,99
						c-1,19-2.9,39.7-5.7,65c-1.4,12.7-3.2,26.1-5.5,42c-0.5,3.8-1.8,7.2-3.4,10.4c2.5,1.3,5,2.7,7.4,4
						c30.1,16.4,60.2,32.8,90.3,49.2c34.1,18.6,68.1,37.1,102.1,55.8c3.6,2,4.6,1.3,5.4-2.6c3.9-18.9,7.5-37.9,10.8-56.9
						c4.3-24.8,8.1-49.7,11.1-74.7c2.8-23,5.1-46.1,6.8-69.3c2.1-28.3,3.5-56.6,4.1-85C1077.7,913.3,1075.8,869.2,1072.5,825.1z"/>
					<path class="st13" d="M847.6,1084.6c2.8-25.4,4.7-46.1,5.7-65c1.5-27.1,3-62.8,2-99c-1-34.1-2.7-74.4-7.9-115.5l-0.9-7.1
						c-1.3-10.4-2.6-20.9-4.2-31.3c-0.6-4.1-2-7.8-3.9-11.2C832,743.9,819,737,805.2,739c-16.2,2.4-27.8,16.3-27.9,32.2
						c0,1.7,0,3.3,0.2,5c1.5,10,2.7,20,4,30l0.9,7.2c4.9,38.2,6.5,76.6,7.4,109.1c1,33.7-0.5,67.7-1.9,93.5
						c-1,17.7-2.7,37.2-5.4,61.3c-1.3,12-3,24.7-5.2,40c-0.2,1.4-0.2,2.8-0.2,4.2c-0.2,16.2,11.5,30.5,28,32.9
						c1.6,0.2,3.2,0.3,4.7,0.3c12.4,0,23.5-7,29-17.7c1.7-3.2,2.9-6.7,3.4-10.4C844.5,1110.7,846.2,1097.3,847.6,1084.6z"/>
				</g>
			</g>
			<g>
				<path class="st13" d="M681.1,1130c0-0.7,0-1.3,0-2c0-0.1,0-0.1,0-0.2c0-4.8-0.2-5.6-4-5.8c-0.7-0.1-1.5-0.1-2.4-0.1
					c-18.2,0.1-36.4,0.1-54.6,0.1c-0.1,0-0.2,0-0.3,0c-0.1,0-0.2,0-0.3,0c-18.2,0-36.4,0-54.6-0.1c-0.9,0-1.7,0-2.4,0.1
					c-3.8,0.1-4,1-4,5.8c0,0.1,0,0.1,0,0.2c0,0.7,0,1.3,0,2c0,39.3,0,78.5,0,117.8c0,40,0,80.1,0,120.1c0,9.1,3.9,13.1,12.7,13.2
					c11.2,0,33.6,0,33.6,0h30c0,0,22.4,0,33.6,0c8.8,0,12.7-4,12.7-13.2c0-40,0-80.1,0-120.1C681.1,1208.5,681.1,1169.3,681.1,1130z
					"/>
			</g>
		</g>
		<g>
			<path class="st13" d="M1386.7,979.9h-131.3c-18.1,0-32.8-14.7-32.8-32.8c0-18.1,14.7-32.8,32.8-32.8h131.3
				c18.1,0,32.8,14.7,32.8,32.8C1419.5,965.2,1404.8,979.9,1386.7,979.9z"/>
		</g>
		<g>
			<path class="st13" d="M1239,791.2c-8.4,0-16.8-3.2-23.2-9.6c-12.8-12.8-12.8-33.6,0-46.4l98.4-98.4c12.8-12.8,33.6-12.8,46.4,0
				c12.8,12.8,12.8,33.6,0,46.4l-98.4,98.4C1255.8,788,1247.4,791.2,1239,791.2z"/>
		</g>
		<g>
			<path class="st13" d="M1337.5,1267c-8.4,0-16.8-3.2-23.2-9.6l-98.4-98.4c-12.8-12.8-12.8-33.6,0-46.4c12.8-12.8,33.6-12.8,46.4,0
				l98.4,98.4c12.8,12.8,12.8,33.6,0,46.4C1354.3,1263.8,1345.9,1267,1337.5,1267z"/>
		</g>
	</g>
</g>
</svg>
