<?xml version="1.0" encoding="utf-8"?>
<!-- Generator: Adobe Illustrator 24.0.0, SVG Export Plug-In . SVG Version: 6.00 Build 0)  -->
<svg version="1.1" id="Layer_1" xmlns="http://www.w3.org/2000/svg" xmlns:xlink="http://www.w3.org/1999/xlink" x="0px" y="0px"
	 viewBox="0 0 1980 1980" style="enable-background:new 0 0 1980 1980;" xml:space="preserve">
<style type="text/css">
	.st0{opacity:0.3;fill:none;stroke:#4497FF;stroke-width:10;stroke-linecap:round;stroke-linejoin:round;stroke-miterlimit:10;}
	.st1{fill:none;stroke:#566ED1;stroke-width:40;stroke-linecap:round;stroke-miterlimit:10;}
	.st2{fill:none;stroke:#25497A;stroke-width:40;stroke-miterlimit:10;}
	.st3{fill:#26497A;}
	.st4{fill:#4497FF;}
	.st5{fill:#E4F2FF;}
	.st6{fill:none;stroke:#B7DFE6;stroke-width:20;stroke-linecap:round;stroke-miterlimit:10;}
	.st7{fill:none;stroke:#E4F2FF;stroke-width:8;stroke-linecap:round;stroke-linejoin:round;}
	.st8{fill:none;stroke:#E4F2FF;stroke-width:8;stroke-linecap:round;stroke-linejoin:round;stroke-dasharray:4.755,19.02;}
	.st9{fill:none;stroke:#25497A;stroke-width:8;stroke-linecap:round;stroke-linejoin:round;stroke-miterlimit:10;}
	.st10{fill:none;stroke:#E4F2FF;stroke-width:8;stroke-linecap:round;stroke-linejoin:round;stroke-dasharray:4.9167,19.6667;}
	.st11{opacity:0.3;}
	.st12{fill:none;}
	.st13{fill:#25497A;}
	.st14{fill:#B7DFE6;}
	.st15{fill:#D4F1FF;}
	.st16{fill:#E4F2FF;stroke:#E4F2FF;stroke-width:1.5;stroke-miterlimit:10;}
	.st17{fill:none;stroke:#4497FF;stroke-width:6;stroke-linecap:round;stroke-miterlimit:10;}
	.st18{fill:none;stroke:#4497FF;stroke-width:6;stroke-linecap:round;stroke-linejoin:round;}
</style>
<g>
	<g>
		<g>
			<g id="组_38_12_">
				<circle id="椭圆_13-2_12_" class="st4" cx="990" cy="990" r="888.9"/>
			</g>
		</g>
		<g>
			<g>
				<path class="st5" d="M1430.7,541.6H831.9c-34.6,0-62.7,28.1-62.7,62.7v112.9c94.7,19.3,166.3,103.2,166.3,203.6
					c0,59.1-24.8,112.4-64.6,150.3h559.8c34.6,0,62.7-28.1,62.7-62.7V604.3C1493.4,569.7,1465.3,541.6,1430.7,541.6z"/>
			</g>
			<g>
				<rect x="983.2" y="804.6" class="st13" width="78.6" height="170.8"/>
				<rect x="1101.1" y="688.5" class="st13" width="78.6" height="286.9"/>
				<rect x="1219" y="644.1" class="st13" width="78.6" height="331.3"/>
			</g>
			<path class="st13" d="M469.1,1426.3c-37.9,0-66.2-35.2-57.8-72.2c32.8-144.5,162-252.3,316.4-252.3s283.6,107.8,316.4,252.3
				c8.4,37-19.9,72.2-57.8,72.2H469.1z"/>
		</g>
	</g>
	<g>
		<circle class="st13" cx="727.8" cy="920.8" r="150.3"/>
	</g>
</g>
</svg>
