<svg xmlns="http://www.w3.org/2000/svg" xmlns:xlink="http://www.w3.org/1999/xlink" viewBox="0 0 1280 300"><defs><style>.cls-1,.cls-10,.cls-9{fill:none;}.cls-2{clip-path:url(#clip-path);}.cls-3{fill:#25497a;}.cls-4{fill:#4497ff;}.cls-5{fill:#e4f2ff;}.cls-6{fill:#ff6d6d;}.cls-7{fill:#b7dfe6;}.cls-8{fill:#566ed1;}.cls-9{stroke:#ff6d6d;}.cls-10,.cls-9{stroke-miterlimit:10;stroke-width:3px;}.cls-10{stroke:#566ed1;}</style><clipPath id="clip-path"><rect class="cls-1" x="0.5" y="-0.5" width="1283" height="301"/></clipPath></defs><title>workspace</title><g id="Layer_1" data-name="Layer 1"><g class="cls-2"><polygon class="cls-3" points="270.68 314.87 244.44 327.26 194.65 221.12 220.68 208.13 270.68 314.87"/><polygon class="cls-4" points="185.45 324.9 157.4 331.05 125 179.29 135.91 165.11 152.28 172.75 185.45 324.9"/><polygon class="cls-3" points="143 307.15 106.89 322.14 32.45 142.76 67.99 127.77 143 307.15"/><polygon class="cls-5" points="185.59 167.91 194.65 221.12 200.16 222.53 203.81 217.79 211.7 221.03 214.94 213.15 218.49 215.88 220.68 208.13 185.59 167.91"/><polygon class="cls-5" points="125 128 125 179.29 129.37 184.75 133.73 174.93 141.37 179.29 145.74 170.56 152.28 172.75 125 128"/><polygon class="cls-5" points="22 71.55 32.22 143.1 41.16 144.38 46.27 136.71 59.05 140.54 65.44 131.6 67.99 127.77 22 71.55"/><polygon class="cls-3" points="22 71.55 24.55 89.44 27.11 85.61 30.94 90.72 33.5 85.61 22 71.55"/><polygon class="cls-3" points="125 128 125 138.55 126.09 138.91 127.18 136.73 129.37 137.82 130.12 136.4 125 128"/><polygon class="cls-3" points="185.59 167.91 187.47 178.9 188.92 177.07 190.24 179.04 190.88 175.75 193.64 177.14 185.59 167.91"/><path class="cls-6" d="M632.81,391.28l26.9-154.93L915.87,272,898,477.22,711.71,452.8C668.41,438.73,634.53,417.22,632.81,391.28Z"/><path class="cls-7" d="M740.81,374.28l26.9-154.93L1023.87,255,1006,460.22,819.71,435.8C776.41,421.73,742.53,400.22,740.81,374.28Z"/><circle class="cls-7" cx="1276.1" cy="132.58" r="116.93"/><circle class="cls-8" cx="1275.66" cy="132.12" r="101.97"/><rect class="cls-7" x="1122.95" y="50.77" width="34.51" height="60.73" rx="10.74" transform="translate(1538.69 -990.24) rotate(106.33)"/><path class="cls-7" d="M1316.18,176.36s-53.18-4.4-61.52,10.16-1,21.75,11,20.44S1316.18,176.36,1316.18,176.36Z"/><path class="cls-7" d="M1275.32,134.79s-52-9.68-61.54.16-3.07,16.07,8.94,16.55S1275.32,134.79,1275.32,134.79Z"/><path class="cls-7" d="M1261.9,118.89s-35.3-18.92-45.39-11.38-7.2,14.67,1.5,17.37S1261.9,118.89,1261.9,118.89Z"/><path class="cls-7" d="M1254.33,98.64s9.12-33.33-6.17-37.44c-16.35-4.4-10.7,21.84-10.7,21.84s-27.29-12.47-19,9.22C1223.76,105.93,1254.33,98.64,1254.33,98.64Z"/><path class="cls-7" d="M1296.76,159.7s-50.85-16.16-62.23-3.83-5.86,21,6.2,22.39S1296.76,159.7,1296.76,159.7Z"/><path class="cls-7" d="M1279.18,129.56s12.32-53.78,25.76-58.85,16.71,3.77,12.17,15.46S1279.18,129.56,1279.18,129.56Z"/><path class="cls-7" d="M1270.15,114.2s-6.88-41.25,4-48.69,17-2.18,16.72,7.33S1270.15,114.2,1270.15,114.2Z"/><polygon class="cls-4" points="1105.2 409.69 1136.35 420.52 1165.36 274.42 1134.3 262.81 1105.2 409.69"/><polygon class="cls-5" points="1162.77 204.29 1165.36 274.42 1159.75 277.32 1154.72 271.94 1146.97 277.63 1141.65 268.13 1138.46 272.34 1134.3 262.81 1162.77 204.29"/><polygon class="cls-3" points="1162.77 204.29 1163.3 218.78 1161.31 216.71 1160.35 219.49 1158.89 215.4 1156.24 217.71 1162.77 204.29"/><polygon class="cls-3" points="1037.06 378.48 1083.47 383.36 1098.72 226.46 1052.3 220.74 1037.06 378.48"/><polygon class="cls-5" points="1082.46 154.48 1098.72 226.46 1091.23 230.59 1083.08 226.04 1073.05 233.5 1063.75 224.75 1059.94 229.75 1052.3 220.74 1082.46 154.48"/><polygon class="cls-3" points="1082.46 154.48 1085.82 169.35 1082.61 167.62 1081.72 170.69 1078.92 166.75 1075.54 169.68 1082.46 154.48"/><path class="cls-9" d="M1001.84,86.94,1036.26,46s12.79-15.88,3.58-23.65-20.86,6-20.86,6l-44.25,49s-5.61,8.23.47,14.82,22-8.11,22-8.11l31.43-36.42,4.63-6s5.66-9.29,2.57-11.53-11.78,3.76-11.78,3.76L981,78.71s-4.4,4.05-1.36,7.35c3.66,4,11.79-3.76,11.79-3.76l36.6-42.95"/><path class="cls-10" d="M1048.25,63.23l13.12,51.84s5.42,19.65,17.1,16.72,7.28-20.46,7.28-20.46L1071.82,46.8s-3.4-9.37-12.3-8.28-6.27,22.6-6.27,22.6l11.22,46.78,2.18,7.27s4.24,10,7.86,8.82,3.83-11.76,3.83-11.76l-11.25-61.09s-.73-5.93-5.18-5.39c-5.35.66-3.83,11.76-3.83,11.76l13.49,54.8"/><path class="cls-10" d="M955.73,32.51,907.11,54.76s-18.36,8.87-13.37,19.84,21.44,3.47,21.44,3.47l61-25.33s8.6-5,5.93-13.6-23.36-2.09-23.36-2.09l-44,19.47L908,60s-9.09,6-7.26,9.32S913,70.94,913,70.94L971,48.86s5.7-1.78,4.36-6.06c-1.6-5.14-12.25-1.65-12.25-1.65L911.66,64.3"/><path class="cls-9" d="M112.73,20.84l-46,21.06S49.34,50.3,54.06,60.67,74.35,64,74.35,64l57.7-24s8.14-4.76,5.61-12.86-22.1-2-22.1-2L73.92,43.56l-6.4,3.27s-8.61,5.66-6.88,8.82,11.6,1.56,11.6,1.56l55-20.89s5.4-1.69,4.13-5.74c-1.52-4.87-11.6-1.56-11.6-1.56L71,50.92"/><path class="cls-10" d="M178,83.4l-50.41-4.48S108.29,77.62,107.26,89s16,12.89,16,12.89l62,7.73s9.43-.12,11.24-8.41-18.23-12.66-18.23-12.66L133,83.94l-7.18-.33s-10.28.65-10.34,4.26S124.77,95,124.77,95l58.1,9.05s5.52,1.2,6.43-2.94c1.08-5-9.31-7.1-9.31-7.1L126.82,88.9"/><rect class="cls-1" x="730.5" y="-494.87" width="1160.21" height="271.93" transform="translate(1334.73 -1717.55) rotate(106.33)"/></g></g></svg>