<?xml version="1.0" encoding="utf-8"?>
<!-- Generator: Adobe Illustrator 24.0.2, SVG Export Plug-In . SVG Version: 6.00 Build 0)  -->
<svg version="1.1" id="Layer_1" xmlns="http://www.w3.org/2000/svg" xmlns:xlink="http://www.w3.org/1999/xlink" x="0px" y="0px"
	 viewBox="0 0 1280 240" style="enable-background:new 0 0 1280 240;" xml:space="preserve">
<style type="text/css">
	.st0{clip-path:url(#SVGID_2_);}
	.st1{clip-path:url(#SVGID_4_);}
	.st2{fill:#25497A;}
	.st3{fill:#4497FF;}
	.st4{fill:#E4F2FF;}
	.st5{fill:#FF6D6D;}
	.st6{fill:#B7DFE6;}
	.st7{fill:#566ED1;}
	.st8{fill:none;stroke:#FF6D6D;stroke-width:3;stroke-miterlimit:10;}
	.st9{fill:none;stroke:#566ED1;stroke-width:3;stroke-miterlimit:10;}
	.st10{display:none;fill:none;stroke:#566ED1;stroke-width:3;stroke-miterlimit:10;}
	.st11{fill:none;}
</style>
<title>workspace-01</title>
<g>
	<defs>
		<rect id="SVGID_1_" width="1280" height="240"/>
	</defs>
	<clipPath id="SVGID_2_">
		<use xlink:href="#SVGID_1_"  style="overflow:visible;"/>
	</clipPath>
	<g class="st0">
		<g>
			<defs>
				<rect id="SVGID_3_" x="0.5" y="-35.7" width="1283" height="301"/>
			</defs>
			<clipPath id="SVGID_4_">
				<use xlink:href="#SVGID_3_"  style="overflow:visible;"/>
			</clipPath>
			<g class="st1">
				<polygon class="st2" points="270.7,279.7 244.4,292.1 194.6,185.9 220.7,172.9 				"/>
				<polygon class="st3" points="185.4,289.7 157.4,295.9 125,144.1 135.9,129.9 152.3,137.6 				"/>
				<polygon class="st2" points="143,272 106.9,287 32.5,107.6 68,92.6 				"/>
				<polygon class="st4" points="185.6,132.7 194.6,185.9 200.2,187.4 203.8,182.6 211.7,185.9 214.9,178 218.5,180.7 220.7,172.9
									"/>
				<polygon class="st4" points="125,92.8 125,144.1 129.4,149.6 133.7,139.8 141.4,144.1 145.7,135.4 152.3,137.6 				"/>
				<polygon class="st4" points="22,36.4 32.2,107.9 41.2,109.2 46.3,101.5 59,105.4 65.4,96.4 68,92.6 				"/>
				<polygon class="st2" points="22,36.4 24.5,54.3 27.1,50.4 30.9,55.5 33.5,50.4 				"/>
				<polygon class="st2" points="125,92.8 125,103.4 126.1,103.7 127.2,101.6 129.4,102.6 130.1,101.2 				"/>
				<polygon class="st2" points="185.6,132.7 187.5,143.7 188.9,141.9 190.2,143.9 190.9,140.6 193.6,142 				"/>
				<path class="st5" d="M625.8,338.9l26.9-154.9l256.2,35.7L891,424.8l-186.3-24.4C661.4,386.3,627.6,364.8,625.8,338.9z"/>
				<path class="st6" d="M733.8,321.9l26.9-154.9l256.2,35.6L999,407.8l-186.3-24.4C769.4,369.3,735.6,347.8,733.8,321.9z"/>
				<circle class="st6" cx="1276.1" cy="97.4" r="116.9"/>
				<circle class="st7" cx="1275.7" cy="96.9" r="102"/>
				<path class="st6" d="M1109.3,43.7l3.7-12.5c1.7-5.7,7.6-9,13.3-7.3l37.7,11c5.7,1.7,9,7.6,7.3,13.3l-3.7,12.5
					c-1.7,5.7-7.6,9-13.3,7.3l-37.7-11C1110.9,55.4,1107.6,49.4,1109.3,43.7z"/>
				<path class="st6" d="M1316.2,141.2c0,0-53.2-4.4-61.5,10.2s-1,21.8,11,20.4S1316.2,141.2,1316.2,141.2z"/>
				<path class="st6" d="M1275.3,99.6c0,0-52-9.7-61.5,0.2s-3.1,16.1,8.9,16.6S1275.3,99.6,1275.3,99.6z"/>
				<path class="st6" d="M1261.9,83.7c0,0-35.3-18.9-45.4-11.4s-7.2,14.7,1.5,17.4S1261.9,83.7,1261.9,83.7z"/>
				<path class="st6" d="M1254.3,63.5c0,0,9.1-33.3-6.2-37.4c-16.3-4.4-10.7,21.8-10.7,21.8s-27.3-12.5-19,9.2
					C1223.8,70.8,1254.3,63.5,1254.3,63.5z"/>
				<path class="st6" d="M1296.8,124.5c0,0-50.8-16.2-62.2-3.8s-5.9,21,6.2,22.4S1296.8,124.5,1296.8,124.5z"/>
				<path class="st6" d="M1279.2,94.4c0,0,12.3-53.8,25.8-58.8s16.7,3.8,12.2,15.5S1279.2,94.4,1279.2,94.4z"/>
				<path class="st6" d="M1270.2,79c0,0-6.9-41.3,4-48.7s17-2.2,16.7,7.3S1270.2,79,1270.2,79z"/>
				<polygon class="st3" points="1105.2,374.5 1136.3,385.3 1165.4,239.2 1134.3,227.6 				"/>
				<polygon class="st4" points="1162.8,169.1 1165.4,239.2 1159.8,242.1 1154.7,236.8 1147,242.4 1141.7,232.9 1138.5,237.2
					1134.3,227.6 				"/>
				<polygon class="st2" points="1162.8,169.1 1163.3,183.6 1161.3,181.5 1160.3,184.3 1158.9,180.2 1156.2,182.5 				"/>
				<polygon class="st2" points="1037.1,343.3 1083.5,348.2 1098.7,191.3 1052.3,185.6 				"/>
				<polygon class="st4" points="1082.5,119.3 1098.7,191.3 1091.2,195.4 1083.1,190.9 1073.1,198.3 1063.8,189.6 1059.9,194.6
					1052.3,185.6 				"/>
				<polygon class="st2" points="1082.5,119.3 1085.8,134.2 1082.6,132.4 1081.7,135.5 1078.9,131.6 1075.5,134.5 				"/>
				<path class="st8" d="M1046.4,120.2l34.4-40.9c0,0,12.8-15.9,3.6-23.7s-20.9,6-20.9,6l-44.3,49c0,0-5.6,8.2,0.5,14.8
					s22-8.1,22-8.1l31.4-36.4l4.6-6c0,0,5.7-9.3,2.6-11.5s-11.8,3.8-11.8,3.8l-43,44.8c0,0-4.4,4-1.4,7.3c3.7,4,11.8-3.8,11.8-3.8
					l36.6-42.9"/>
				<path class="st9" d="M1105.2,97.3l13.1,51.8c0,0,5.4,19.6,17.1,16.7s7.3-20.5,7.3-20.5l-13.9-64.5c0,0-3.4-9.4-12.3-8.3
					s-6.3,22.6-6.3,22.6l11.2,46.8l2.2,7.3c0,0,4.2,10,7.9,8.8s3.8-11.8,3.8-11.8L1124,85.2c0,0-0.7-5.9-5.2-5.4
					c-5.3,0.7-3.8,11.8-3.8,11.8l13.5,54.8"/>
				<path class="st10" d="M1055,10l-48.6,22.3c0,0-18.4,8.9-13.4,19.8s21.4,3.5,21.4,3.5l61-25.3c0,0,8.6-5,5.9-13.6
					s-23.4-2.1-23.4-2.1L1014,34l-6.8,3.5c0,0-9.1,6-7.3,9.3s12.3,1.6,12.3,1.6l58-22.1c0,0,5.7-1.8,4.4-6.1
					c-1.6-5.1-12.3-1.6-12.3-1.6L1011,41.8"/>
				<path class="st8" d="M112.7,13.6l-46,21.1c0,0-17.4,8.4-12.7,18.8s20.3,3.3,20.3,3.3l57.7-24c0,0,8.1-4.8,5.6-12.9
					s-22.1-2-22.1-2L73.9,36.3l-6.4,3.3c0,0-8.6,5.7-6.9,8.8S72.2,50,72.2,50l55-20.9c0,0,5.4-1.7,4.1-5.7
					c-1.5-4.9-11.6-1.6-11.6-1.6L71,43.7"/>
				<path class="st9" d="M196.1,66l-49.2-12c0,0-18.9-4.3-21.6,6.8S139.2,76,139.2,76l60.1,17c0,0,9.3,1.3,12.4-6.6
					s-16.1-15.3-16.1-15.3l-44.1-11.4l-7-1.4c0,0-10.3-0.9-10.9,2.7c-0.6,3.6,8.1,8.4,8.1,8.4l56.1,17.7c0,0,5.3,2,6.8-1.9
					c1.8-4.8-8.1-8.4-8.1-8.4l-51.8-13.1"/>

					<rect x="730.6" y="-530.1" transform="matrix(0.2812 -0.9597 0.9597 0.2812 1320.3292 974.5039)" class="st11" width="1160.2" height="271.9"/>
			</g>
		</g>
	</g>
</g>
</svg>
