<svg id="Layer_1" data-name="Layer 1" xmlns="http://www.w3.org/2000/svg" xmlns:xlink="http://www.w3.org/1999/xlink" viewBox="0 0 1280 240"><defs><style>.cls-1,.cls-10,.cls-11{fill:none;}.cls-2{clip-path:url(#clip-path);}.cls-3{clip-path:url(#clip-path-2);}.cls-4{fill:#25497a;}.cls-5{fill:#4497ff;}.cls-6{fill:#e4f2ff;}.cls-7{fill:#ff6d6d;}.cls-8{fill:#b7dfe6;}.cls-9{fill:#566ed1;}.cls-10{stroke:#ff6d6d;}.cls-10,.cls-11{stroke-miterlimit:10;stroke-width:3px;}.cls-11{stroke:#566ed1;}</style><clipPath id="clip-path"><rect class="cls-1" width="1280" height="240"/></clipPath><clipPath id="clip-path-2"><rect class="cls-1" x="0.5" y="-35.68" width="1283" height="301"/></clipPath></defs><title>workspace-01</title><g class="cls-2"><g class="cls-3"><polygon class="cls-4" points="270.68 279.69 244.44 292.08 194.65 185.94 220.68 172.95 270.68 279.69"/><polygon class="cls-5" points="185.45 289.72 157.4 295.87 125 144.11 135.91 129.93 152.28 137.57 185.45 289.72"/><polygon class="cls-4" points="143 271.97 106.89 286.96 32.45 107.58 67.99 92.59 143 271.97"/><polygon class="cls-6" points="185.59 132.73 194.65 185.94 200.16 187.35 203.81 182.61 211.7 185.85 214.94 177.97 218.49 180.7 220.68 172.95 185.59 132.73"/><polygon class="cls-6" points="125 92.82 125 144.11 129.37 149.57 133.73 139.75 141.37 144.11 145.74 135.38 152.28 137.57 125 92.82"/><polygon class="cls-6" points="22 36.37 32.22 107.92 41.16 109.2 46.27 101.53 59.05 105.36 65.44 96.42 67.99 92.59 22 36.37"/><polygon class="cls-4" points="22 36.37 24.55 54.26 27.11 50.43 30.94 55.54 33.5 50.43 22 36.37"/><polygon class="cls-4" points="125 92.82 125 103.37 126.09 103.73 127.18 101.55 129.37 102.64 130.12 101.22 125 92.82"/><polygon class="cls-4" points="185.59 132.73 187.47 143.72 188.92 141.89 190.24 143.86 190.88 140.57 193.64 141.96 185.59 132.73"/><path class="cls-7" d="M625.84,338.86l26.9-154.93L908.9,219.58,891,424.8,704.74,400.38C661.44,386.31,627.56,364.8,625.84,338.86Z"/><path class="cls-8" d="M733.84,321.86l26.9-154.93,256.16,35.65L999,407.8,812.74,383.38C769.44,369.31,735.56,347.8,733.84,321.86Z"/><circle class="cls-8" cx="1276.1" cy="97.4" r="116.93"/><circle class="cls-9" cx="1275.66" cy="96.94" r="101.97"/><rect class="cls-8" x="1122.98" y="15.61" width="34.51" height="60.73" rx="10.74" transform="translate(775.52 1127.29) rotate(-73.67)"/><path class="cls-8" d="M1316.18,141.18s-53.18-4.4-61.52,10.16-1,21.75,11,20.44S1316.18,141.18,1316.18,141.18Z"/><path class="cls-8" d="M1275.32,99.61s-52-9.68-61.54.16-3.07,16.07,8.94,16.55S1275.32,99.61,1275.32,99.61Z"/><path class="cls-8" d="M1261.9,83.71s-35.3-18.92-45.39-11.38S1209.31,87,1218,89.7,1261.9,83.71,1261.9,83.71Z"/><path class="cls-8" d="M1254.33,63.46s9.12-33.33-6.17-37.44c-16.35-4.4-10.7,21.84-10.7,21.84s-27.29-12.47-19,9.22C1223.76,70.75,1254.33,63.46,1254.33,63.46Z"/><path class="cls-8" d="M1296.76,124.52s-50.85-16.16-62.23-3.83-5.86,21,6.2,22.39S1296.76,124.52,1296.76,124.52Z"/><path class="cls-8" d="M1279.18,94.38s12.32-53.78,25.76-58.85,16.71,3.77,12.17,15.46S1279.18,94.38,1279.18,94.38Z"/><path class="cls-8" d="M1270.15,79s-6.88-41.25,4-48.69,17-2.18,16.72,7.33S1270.15,79,1270.15,79Z"/><polygon class="cls-5" points="1105.2 374.51 1136.35 385.34 1165.36 239.24 1134.3 227.63 1105.2 374.51"/><polygon class="cls-6" points="1162.77 169.11 1165.36 239.24 1159.75 242.14 1154.72 236.76 1146.97 242.45 1141.65 232.95 1138.46 237.16 1134.3 227.63 1162.77 169.11"/><polygon class="cls-4" points="1162.77 169.11 1163.3 183.6 1161.31 181.53 1160.35 184.31 1158.89 180.22 1156.24 182.53 1162.77 169.11"/><polygon class="cls-4" points="1037.06 343.3 1083.47 348.18 1098.72 191.28 1052.3 185.56 1037.06 343.3"/><polygon class="cls-6" points="1082.46 119.3 1098.72 191.28 1091.23 195.41 1083.08 190.86 1073.05 198.32 1063.75 189.57 1059.94 194.57 1052.3 185.56 1082.46 119.3"/><polygon class="cls-4" points="1082.46 119.3 1085.82 134.17 1082.61 132.44 1081.72 135.51 1078.92 131.57 1075.54 134.5 1082.46 119.3"/><path class="cls-10" d="M1046.37,120.24l34.42-40.94s12.79-15.88,3.58-23.65-20.86,6-20.86,6l-44.25,49s-5.61,8.23.47,14.82,22-8.11,22-8.11l31.43-36.42,4.63-6s5.66-9.29,2.57-11.53-11.78,3.76-11.78,3.76l-43,44.84s-4.4,4-1.36,7.35c3.66,4,11.79-3.76,11.79-3.76l36.6-42.95"/><path class="cls-11" d="M1105.2,97.27l13.12,51.84s5.42,19.65,17.1,16.72,7.28-20.46,7.28-20.46l-13.93-64.53s-3.4-9.37-12.3-8.28-6.27,22.6-6.27,22.6l11.22,46.78,2.18,7.27s4.24,10,7.86,8.82,3.83-11.76,3.83-11.76L1124,85.18s-.73-5.93-5.18-5.39c-5.35.66-3.83,11.76-3.83,11.76l13.49,54.8"/><path class="cls-11" d="M1055,10l-48.62,22.25s-18.36,8.87-13.37,19.84,21.44,3.47,21.44,3.47l61-25.33s8.6-5,5.93-13.6-23.36-2.09-23.36-2.09l-44,19.47-6.75,3.48s-9.09,6-7.26,9.32,12.26,1.62,12.26,1.62l58-22.08s5.7-1.78,4.36-6.06c-1.6-5.14-12.25-1.65-12.25-1.65L1011,41.83"/><path class="cls-10" d="M112.73,13.62l-46,21.06s-17.39,8.4-12.67,18.77,20.29,3.33,20.29,3.33l57.7-24s8.14-4.76,5.61-12.86-22.1-2-22.1-2L73.92,36.34l-6.4,3.27s-8.61,5.66-6.88,8.82S72.24,50,72.24,50l55-20.89s5.4-1.69,4.13-5.74c-1.52-4.87-11.6-1.56-11.6-1.56L71,43.7"/><path class="cls-11" d="M196.08,66,146.93,54S128,49.75,125.3,60.85,139.17,76,139.17,76l60.12,17s9.34,1.31,12.38-6.61-16.1-15.27-16.1-15.27l-44.06-11.4-7-1.42S134.21,57.41,133.6,61s8.11,8.45,8.11,8.45l56.06,17.73s5.28,2,6.8-1.93c1.82-4.78-8.13-8.43-8.13-8.43L144.66,63.7"/><rect class="cls-1" x="730.55" y="-530.05" width="1160.21" height="271.93" transform="translate(1320.33 974.5) rotate(-73.67)"/></g></g></svg>