<svg id="Layer_1" data-name="Layer 1" xmlns="http://www.w3.org/2000/svg" xmlns:xlink="http://www.w3.org/1999/xlink" viewBox="0 0 1920 513.71"><defs><style>.cls-1{opacity:0.3;}.cls-2{fill:#224b80;}.cls-3{fill:#ff9696;}.cls-4{fill:#1f417a;}.cls-5{fill:#8fc0ff;}.cls-6{fill:#fda2a2;}.cls-7{fill:url(#linear-gradient);}.cls-8{fill:#4497ff;opacity:0.8;isolation:isolate;}.cls-9{fill:#fc6464;}.cls-10{fill:#25497a;}.cls-11{fill:#b7dfe6;}</style><linearGradient id="linear-gradient" x1="1313.1" y1="-334.79" x2="1313.1" y2="-596.09" gradientTransform="translate(0 1060)" gradientUnits="userSpaceOnUse"><stop offset="0.42" stop-color="#fff"/><stop offset="0.53" stop-color="#fff" stop-opacity="0.99"/><stop offset="0.6" stop-color="#fff" stop-opacity="0.95"/><stop offset="0.67" stop-color="#fff" stop-opacity="0.89"/><stop offset="0.73" stop-color="#fff" stop-opacity="0.8"/><stop offset="0.79" stop-color="#fff" stop-opacity="0.69"/><stop offset="0.85" stop-color="#fff" stop-opacity="0.54"/><stop offset="0.9" stop-color="#fff" stop-opacity="0.38"/><stop offset="0.96" stop-color="#fff" stop-opacity="0.19"/><stop offset="1" stop-color="#fff" stop-opacity="0"/></linearGradient></defs><title>home_landing_crop</title><g id="background"><g id="Group_80" data-name="Group 80" class="cls-1"><g id="Group_74" data-name="Group 74"><g id="Group_72" data-name="Group 72"><rect id="Rectangle_167" data-name="Rectangle 167" class="cls-2" x="1084.7" y="376.21" width="64.6" height="106.1"/><rect id="Rectangle_168" data-name="Rectangle 168" class="cls-2" x="1156.8" y="365.71" width="64.6" height="106.1"/><rect id="Rectangle_169" data-name="Rectangle 169" class="cls-2" x="1175.3" y="355.21" width="64.6" height="106.1"/><rect id="Rectangle_170" data-name="Rectangle 170" class="cls-2" x="1213.8" y="305.61" width="42.8" height="155.8"/><rect id="Rectangle_171" data-name="Rectangle 171" class="cls-2" x="1213.8" y="286.71" width="35.8" height="174.6"/><rect id="Rectangle_172" data-name="Rectangle 172" class="cls-2" x="1262.1" y="355.21" width="42.8" height="155.8"/><rect id="Rectangle_173" data-name="Rectangle 173" class="cls-2" x="1283.2" y="258.91" width="63.5" height="202.4"/><rect id="Rectangle_174" data-name="Rectangle 174" class="cls-2" x="1291.3" y="247.61" width="48.9" height="213.7"/><rect id="Rectangle_175" data-name="Rectangle 175" class="cls-2" x="1301.1" y="237.01" width="31" height="224.2"/><rect id="Rectangle_176" data-name="Rectangle 176" class="cls-2" x="1363.5" y="179.81" width="42.8" height="289.7"/><path id="Path_53" data-name="Path 53" class="cls-2" d="M1406.4,179.81l62.9,16.3v273.4h-62.9Z"/><path id="Path_54" data-name="Path 54" class="cls-2" d="M1392.1,106.21l13.1,58.7H1370Z"/><rect id="Rectangle_177" data-name="Rectangle 177" class="cls-2" x="1370" y="164.81" width="35.3" height="25.6"/><path id="Path_55" data-name="Path 55" class="cls-2" d="M1405.3,164.81l58.4,15.4v25.6l-58.4-15.4Z"/><path id="Path_56" data-name="Path 56" class="cls-2" d="M1391.9,106.21l53.5,20.1,18.2,54-58.6-15.5Z"/><rect id="Rectangle_178" data-name="Rectangle 178" class="cls-2" x="1469.3" y="312.31" width="49.4" height="179.9"/><rect id="Rectangle_179" data-name="Rectangle 179" class="cls-2" x="1516" y="368.01" width="43.4" height="57.9"/><rect id="Rectangle_180" data-name="Rectangle 180" class="cls-2" x="1525.7" y="347.71" width="12" height="57.9"/><rect id="Rectangle_181" data-name="Rectangle 181" class="cls-2" x="1544.6" y="172.31" width="109" height="253.6"/><rect id="Rectangle_182" data-name="Rectangle 182" class="cls-2" x="1544.6" y="152.01" width="33" height="273.9"/><path id="Path_57" data-name="Path 57" class="cls-2" d="M1570,48.11l52,13.6,31.7,110.7h-28.5L1544.5,152Z"/><rect id="Rectangle_183" data-name="Rectangle 183" class="cls-2" x="1544.6" y="152.01" width="100.9" height="39.2"/><path id="Path_58" data-name="Path 58" class="cls-2" d="M1648.7,151.91l5,20.6Z"/><rect id="Rectangle_184" data-name="Rectangle 184" class="cls-2" x="1544.6" y="364.21" width="584" height="61.7"/><rect id="Rectangle_185" data-name="Rectangle 185" class="cls-2" x="1660.2" y="349.91" width="18.5" height="61.7"/><rect id="Rectangle_186" data-name="Rectangle 186" class="cls-2" x="1686.3" y="338.71" width="11.4" height="61.7"/><rect id="Rectangle_187" data-name="Rectangle 187" class="cls-2" x="1702" y="314.61" width="43.9" height="61.7"/><rect id="Rectangle_188" data-name="Rectangle 188" class="cls-2" x="1706.4" y="319.01" width="43.9" height="61.7"/><rect id="Rectangle_189" data-name="Rectangle 189" class="cls-2" x="1907" y="358.21" width="8.1" height="61.7"/><rect id="Rectangle_164" data-name="Rectangle 164" class="cls-2" x="1062" y="462.81" width="1748.7" height="64"/><rect id="Rectangle_165" data-name="Rectangle 165" class="cls-2" x="1083.6" y="425.91" width="1715" height="100.8"/><rect id="Rectangle_227" data-name="Rectangle 227" class="cls-2" x="1249.6" y="365.71" width="42.8" height="136.9"/><rect id="Rectangle_228" data-name="Rectangle 228" class="cls-2" x="1340.2" y="408.61" width="42.8" height="46.7"/></g><g id="Group_63" data-name="Group 63"><g id="Group_61" data-name="Group 61"><g id="Group_60" data-name="Group 60"><g id="Group_58" data-name="Group 58"><path id="Path_142" data-name="Path 142" class="cls-2" d="M1975.4,400.41v-95.1h-11.5v-62.4h-47v62.4h-13.7l-8.4,18-68.3-46.4v123.5Z"/><path id="Path_145" data-name="Path 145" class="cls-2" d="M1940.2,209.81c13.1,0,23.7,14.7,23.7,32.9s-10.6,32.9-23.7,32.9c-13-.2-23.3-15-23.2-32.9C1916.8,224.61,1927.2,210,1940.2,209.81Z"/></g></g><rect id="Rectangle_517" data-name="Rectangle 517" class="cls-2" x="1822.1" y="256.01" width="9.1" height="40.6"/></g><g id="Group_62" data-name="Group 62"><g id="Group_60-2" data-name="Group 60-2"><g id="Group_58-2" data-name="Group 58-2"><path id="Path_142-2" data-name="Path 142-2" class="cls-2" d="M1677.7,400.41v-95.1h11.5v-62.4h47v62.4h13.7l8.4,18,68.4-46.4v123.5Z"/><path id="Path_145-2" data-name="Path 145-2" class="cls-2" d="M1712.9,209.81c-13.1,0-23.7,14.7-23.7,32.9s10.6,32.9,23.7,32.9c13-.2,23.3-15,23.2-32.9C1736.2,224.61,1725.8,210,1712.9,209.81Z"/><path id="Path_143-2" data-name="Path 143-2" class="cls-2" d="M1722,198.51h-18.2v30.8H1722Z"/><ellipse id="Ellipse_3-2" data-name="Ellipse 3-2" class="cls-2" cx="1712.9" cy="198.51" rx="9.1" ry="12.6"/><path id="Path_144-2" data-name="Path 144-2" class="cls-2" d="M1716.9,174.71h-7.1v30.8h7.1Z"/></g></g><rect id="Rectangle_517-2" data-name="Rectangle 517-2" class="cls-2" x="1821.9" y="256.01" width="9.1" height="40.6"/></g></g></g><g id="Group_75" data-name="Group 75"><g id="Group_73" data-name="Group 73"><g id="Group_76" data-name="Group 76"><rect id="Rectangle_521" data-name="Rectangle 521" class="cls-3" x="1802.3" y="371.41" width="43.7" height="24.6"/><rect id="Rectangle_522" data-name="Rectangle 522" class="cls-3" x="1850.9" y="371.41" width="23.8" height="24.6"/><path id="Path_148" data-name="Path 148" class="cls-3" d="M1802.3,320.21s6.5-5.6,22-5.7,21.8,5.7,21.8,5.7v45.4h-43.7v-45.4Z"/><rect id="Rectangle_523" data-name="Rectangle 523" class="cls-3" x="1773.6" y="371.41" width="23.3" height="24.6"/><path id="Path_149" data-name="Path 149" class="cls-3" d="M1773.6,341a100.89,100.89,0,0,1,23.3-17.5v42.1h-23.3Z"/><path id="Path_150" data-name="Path 150" class="cls-3" d="M1874.7,341a95.36,95.36,0,0,0-23.8-18.4v43.1h23.8Z"/></g><path id="Subtraction_4" data-name="Subtraction 4" class="cls-3" d="M1708.8,228.61c3.5.1,6.7,2.2,8.9,6a28.43,28.43,0,0,1,4,14.4h0v16.6h-13.1v-36.9l.2-.1Zm-3.9,1h0v35.9h-9v-16.6h0a29.67,29.67,0,0,1,2.7-12.1,14.62,14.62,0,0,1,6.3-7.2Zm3.7,42.5h13.1V298h-13.1Zm-12.7,0h9V298h-9Z"/><path id="Subtraction_5" data-name="Subtraction 5" class="cls-3" d="M1708.9,314.11c4.3.1,8.3,2.8,11.1,7.3a34.46,34.46,0,0,1,4.9,17.9h0v20.6h-16.2v-45.8Zm-4.8,1.2v44.5h-11.2v-20.6h0a37.69,37.69,0,0,1,3.4-15,18.59,18.59,0,0,1,7.8-8.9Zm4.6,52.8h16.2v32.1h-16.2v-32.1Zm-15.8,0h11.2v32.1h-11.2v-32.1Z"/></g><rect id="Rectangle_230" data-name="Rectangle 230" class="cls-3" x="1083" y="382.51" width="43.4" height="85.8"/><rect id="Rectangle_231" data-name="Rectangle 231" class="cls-3" x="1104.7" y="483.31" width="67.3" height="22.6"/><rect id="Rectangle_232" data-name="Rectangle 232" class="cls-3" x="1198.6" y="488.61" width="6.5" height="35.3"/><rect id="Rectangle_233" data-name="Rectangle 233" class="cls-3" x="1231.6" y="499.81" width="36.9" height="12"/><rect id="Rectangle_234" data-name="Rectangle 234" class="cls-3" x="1271.3" y="471.31" width="13.1" height="35.3"/><rect id="Rectangle_235" data-name="Rectangle 235" class="cls-3" x="1213.2" y="292.21" width="18.5" height="146.8"/><rect id="Rectangle_236" data-name="Rectangle 236" class="cls-3" x="1213.2" y="345.61" width="28.2" height="20.3"/><rect id="Rectangle_237" data-name="Rectangle 237" class="cls-3" x="1218.6" y="355.41" width="28.2" height="10.5"/><rect id="Rectangle_238" data-name="Rectangle 238" class="cls-3" x="1213.2" y="373.51" width="28.2" height="4.6"/><rect id="Rectangle_239" data-name="Rectangle 239" class="cls-3" x="1180.1" y="356.21" width="33" height="27.8"/><rect id="Rectangle_240" data-name="Rectangle 240" class="cls-3" x="1206.2" y="356.21" width="7" height="72.3"/><path id="Rectangle_241" data-name="Rectangle 241" class="cls-3" d="M1198,418.61h0c2.1,0,3.8,2.3,3.8,5.3v9.8c0,2.9-1.7,5.3-3.8,5.3h0c-2.1,0-3.8-2.3-3.8-5.3v-9.8C1194.2,421,1195.9,418.61,1198,418.61Z"/><path id="Rectangle_242" data-name="Rectangle 242" class="cls-3" d="M1088.5,488.61h0c3,0,5.4,3.3,5.4,7.5v7.5c0,4.2-2.4,7.5-5.4,7.5h0c-3,0-5.4-3.3-5.4-7.5v-7.5C1083,491.91,1085.4,488.61,1088.5,488.61Z"/><rect id="Rectangle_243" data-name="Rectangle 243" class="cls-3" x="1169.7" y="373.51" width="22.7" height="51.9"/><rect id="Rectangle_244" data-name="Rectangle 244" class="cls-3" x="1164.3" y="373.51" width="22.7" height="4.6"/><rect id="Rectangle_246" data-name="Rectangle 246" class="cls-3" x="1181.8" y="417.11" width="9.8" height="25.6"/><rect id="Rectangle_247" data-name="Rectangle 247" class="cls-3" x="1150.3" y="447.91" width="41.2" height="13.6"/><rect id="Rectangle_249" data-name="Rectangle 249" class="cls-3" x="1156.2" y="468.31" width="35.3" height="12.1"/><rect id="Rectangle_250" data-name="Rectangle 250" class="cls-3" x="1159" y="417.11" width="17.4" height="32.4"/><path id="Rectangle_252" data-name="Rectangle 252" class="cls-3" d="M1159.8,375.71h0c1.4,0,2.5,1.5,2.5,3.3v6.8c0,1.9-1.1,3.3-2.5,3.3h0c-1.4,0-2.5-1.5-2.5-3.3V379C1157.3,377.31,1158.4,375.71,1159.8,375.71Z"/><rect id="Rectangle_253" data-name="Rectangle 253" class="cls-3" x="1249.5" y="365.21" width="34.7" height="82.8"/><rect id="Rectangle_254" data-name="Rectangle 254" class="cls-3" x="1243.1" y="437.41" width="28.2" height="27.1"/><rect id="Rectangle_255" data-name="Rectangle 255" class="cls-3" x="1281" y="259.11" width="4.8" height="188.9"/><rect id="Rectangle_256" data-name="Rectangle 256" class="cls-3" x="1325.5" y="438.91" width="48.9" height="9"/><rect id="Rectangle_257" data-name="Rectangle 257" class="cls-3" x="1344" y="402.01" width="48.9" height="47.4"/><rect id="Rectangle_258" data-name="Rectangle 258" class="cls-3" x="1363.4" y="177.01" width="39.6" height="272.4"/><rect id="Rectangle_259" data-name="Rectangle 259" class="cls-3" x="1389" y="189.11" width="14.1" height="272.4"/><path id="Path_68" data-name="Path 68" class="cls-3" d="M1564,108.11l9,53.2-30.3-.1Z"/><path id="Path_152" data-name="Path 152" class="cls-3" d="M1370,161.21l20-45.7,10.4,45.7v39.2H1370Z"/><rect id="Rectangle_261" data-name="Rectangle 261" class="cls-3" x="1314.6" y="475.81" width="19" height="13.6"/><rect id="Rectangle_262" data-name="Rectangle 262" class="cls-3" x="1333.6" y="484.01" width="96.5" height="5.3"/><rect id="Rectangle_263" data-name="Rectangle 263" class="cls-3" x="1426.9" y="449.41" width="26" height="23.3"/><rect id="Rectangle_264" data-name="Rectangle 264" class="cls-3" x="1458.4" y="449.41" width="4.4" height="23.3"/><rect id="Rectangle_265" data-name="Rectangle 265" class="cls-3" x="1320.6" y="259.11" width="9.8" height="188.9"/><rect id="Rectangle_266" data-name="Rectangle 266" class="cls-3" x="1281" y="259.11" width="49.4" height="5.3"/><rect id="Rectangle_267" data-name="Rectangle 267" class="cls-3" x="1281" y="269.71" width="49.4" height="5.3"/><rect id="Rectangle_268" data-name="Rectangle 268" class="cls-3" x="1281" y="280.21" width="49.4" height="5.3"/><rect id="Rectangle_269" data-name="Rectangle 269" class="cls-3" x="1281" y="290.71" width="49.4" height="5.3"/><rect id="Rectangle_270" data-name="Rectangle 270" class="cls-3" x="1281" y="301.21" width="49.4" height="5.3"/><rect id="Rectangle_271" data-name="Rectangle 271" class="cls-3" x="1281" y="311.81" width="49.4" height="5.3"/><rect id="Rectangle_272" data-name="Rectangle 272" class="cls-3" x="1281" y="322.31" width="49.4" height="5.3"/><rect id="Rectangle_273" data-name="Rectangle 273" class="cls-3" x="1281" y="332.81" width="49.4" height="5.3"/><rect id="Rectangle_274" data-name="Rectangle 274" class="cls-3" x="1281" y="343.31" width="49.4" height="5.3"/><rect id="Rectangle_275" data-name="Rectangle 275" class="cls-3" x="1281" y="353.91" width="49.4" height="5.3"/><rect id="Rectangle_276" data-name="Rectangle 276" class="cls-3" x="1281" y="364.41" width="49.4" height="5.3"/><rect id="Rectangle_277" data-name="Rectangle 277" class="cls-3" x="1281" y="374.91" width="49.4" height="5.3"/><rect id="Rectangle_278" data-name="Rectangle 278" class="cls-3" x="1281" y="385.51" width="49.4" height="5.3"/><rect id="Rectangle_279" data-name="Rectangle 279" class="cls-3" x="1281" y="396.11" width="49.4" height="5.3"/><rect id="Rectangle_280" data-name="Rectangle 280" class="cls-3" x="1281" y="406.61" width="49.4" height="5.3"/><rect id="Rectangle_281" data-name="Rectangle 281" class="cls-3" x="1281" y="417.11" width="49.4" height="5.3"/><rect id="Rectangle_282" data-name="Rectangle 282" class="cls-3" x="1281" y="427.71" width="49.4" height="5.3"/><rect id="Rectangle_283" data-name="Rectangle 283" class="cls-3" x="1281" y="438.21" width="49.4" height="5.3"/><path id="Path_70" data-name="Path 70" class="cls-3" d="M1410.2,142.11l5.5,2.8,5.4,23.3-5.2-1.9Z"/><path id="Path_71" data-name="Path 71" class="cls-3" d="M1420,146.51l5.5,2.8,5.4,23.3-5.1-1.8Z"/><path id="Path_72" data-name="Path 72" class="cls-3" d="M1430.2,151.21l5.6,2.7,5.4,23.2-5.3-1.6Z"/><path id="Path_73" data-name="Path 73" class="cls-3" d="M1440.5,156.41l5.6,2.7,5.3,23-5.3-1.3Z"/><path id="Path_74" data-name="Path 74" class="cls-3" d="M1406,161.61l5.4,2.7.1,27.3-5.4-2.7Z"/><path id="Path_75" data-name="Path 75" class="cls-3" d="M1415.9,165.21l5.2,2.8.4,27.4-5.2-2.8Z"/><path id="Path_76" data-name="Path 76" class="cls-3" d="M1425.7,169.81l5.3,2.8.4,27.6-5.3-2.8Z"/><path id="Path_77" data-name="Path 77" class="cls-3" d="M1435.7,174.31l5.4,2.6.1,27.2-5.4-2.6Z"/><path id="Path_78" data-name="Path 78" class="cls-3" d="M1446.2,179.51l5.2,2.4-.1,25.6-5.2-2.4Z"/><rect id="Rectangle_284" data-name="Rectangle 284" class="cls-3" x="1458.4" y="489.31" width="23.8" height="23.3"/><rect id="Rectangle_285" data-name="Rectangle 285" class="cls-3" x="1497.5" y="471.31" width="23.8" height="11.3"/><rect id="Rectangle_286" data-name="Rectangle 286" class="cls-3" x="1467.6" y="312.01" width="47.2" height="15.6"/><rect id="Rectangle_287" data-name="Rectangle 287" class="cls-3" x="1467.6" y="314.81" width="10.9" height="128.7"/><rect id="Rectangle_288" data-name="Rectangle 288" class="cls-3" x="1467.6" y="402.01" width="35.8" height="41.4"/><rect id="Rectangle_289" data-name="Rectangle 289" class="cls-3" x="1503.4" y="311.81" width="11.4" height="97.8"/><path id="Rectangle_290" data-name="Rectangle 290" class="cls-3" d="M1526.1,376.41h0c2.7,0,4.8,3.1,4.8,6.8v12.1c0,3.7-2.2,6.8-4.8,6.8h0c-2.7,0-4.8-3.1-4.8-6.8v-12C1521.3,379.51,1523.5,376.41,1526.1,376.41Z"/><rect id="Rectangle_291" data-name="Rectangle 291" class="cls-3" x="1537.5" y="411.91" width="5.4" height="72.3"/><rect id="Rectangle_292" data-name="Rectangle 292" class="cls-3" x="1550.6" y="405.11" width="17.4" height="72.3"/><rect id="Rectangle_293" data-name="Rectangle 293" class="cls-3" x="1550.6" y="467.51" width="87.8" height="9.8"/><rect id="Rectangle_294" data-name="Rectangle 294" class="cls-3" x="1599.3" y="441.21" width="5.9" height="36.1"/><rect id="Rectangle_296" data-name="Rectangle 296" class="cls-3" x="1561.5" y="376.41" width="14.1" height="46.7"/><path id="Path_79" data-name="Path 79" class="cls-3" d="M1541.4,149.21l27.3-100.8h6.9v361.2h-34.2V149.21Z"/><path id="Path_80" data-name="Path 80" class="cls-3" d="M1602.6,115.71l17.4,56.8v250.6h-17.4Z"/><path id="Path_82" data-name="Path 82" class="cls-3" d="M1589.1,58.31l4.3,1.2,34.5,111.3h-4.2Z"/><path id="Path_83" data-name="Path 83" class="cls-3" d="M1595.6,60.61l4.9,1.3,33.4,108.9h-4.2Z"/><path id="Path_84" data-name="Path 84" class="cls-3" d="M1602.9,63.31l4.3,1.5,32.6,106h-4.2Z"/><path id="Path_85" data-name="Path 85" class="cls-3" d="M1609.3,66.31l4.6,1.2,31.8,103.3h-4.2Z"/><path id="Rectangle_297" data-name="Rectangle 297" class="cls-3" d="M1662,373.51h0c1.7,0,3,1.9,3,4.2v18c0,2.3-1.3,4.2-3,4.2h0c-1.7,0-3-1.9-3-4.2v-18C1659.1,375.31,1660.4,373.51,1662,373.51Z"/><rect id="Rectangle_300" data-name="Rectangle 300" class="cls-3" x="1673.1" y="447.91" width="77.4" height="10.5"/><path id="Rectangle_301" data-name="Rectangle 301" class="cls-3" d="M1843.5,415.81h14.1c3.9,0,7,4.4,7,9.8h0c0,5.4-3.2,9.8-7,9.8h-14.1c-3.9,0-7-4.4-7-9.8h0C1836.4,420.11,1839.6,415.81,1843.5,415.81Z"/><path id="Rectangle_303" data-name="Rectangle 303" class="cls-3" d="M1666.4,464.51h3.8c2.6,0,4.6,2.9,4.6,6.4h0c0,3.5-2.1,6.4-4.6,6.4h-3.8c-2.6,0-4.6-2.9-4.6-6.4h0C1661.7,467.41,1663.8,464.51,1666.4,464.51Z"/><path id="Rectangle_304" data-name="Rectangle 304" class="cls-3" d="M1645.7,491.61h3.8c2.6,0,4.6,2.9,4.6,6.4h0c0,3.5-2.1,6.4-4.6,6.4h-3.8c-2.6,0-4.6-2.9-4.6-6.4h0C1641.2,494.51,1643.2,491.61,1645.7,491.61Z"/><path id="Rectangle_305" data-name="Rectangle 305" class="cls-3" d="M1682.6,498.41h27.7c2.6,0,4.6,2.9,4.6,6.4h0c0,3.5-2.1,6.4-4.6,6.4h-27.7c-2.6,0-4.6-2.9-4.6-6.4h0C1678.1,501.21,1680,498.41,1682.6,498.41Z"/><rect id="Rectangle_306" data-name="Rectangle 306" class="cls-3" x="1719.9" y="485.41" width="69.9" height="10.5"/><rect id="Rectangle_309" data-name="Rectangle 309" class="cls-3" x="1645.2" y="281.71" width="23.3" height="85"/><path id="Rectangle_311" data-name="Rectangle 311" class="cls-3" d="M1712.8,428.31h7c2.6,0,4.6,2.9,4.6,6.4h0c0,3.5-2.1,6.4-4.6,6.4h-7c-2.6,0-4.6-2.9-4.6-6.4h0C1708.2,431.21,1710.3,428.31,1712.8,428.31Z"/><path id="Rectangle_312" data-name="Rectangle 312" class="cls-3" d="M1737.8,417.41h3.3c3.8,0,6.7,4.2,6.7,9.4h0c0,5.2-3.1,9.4-6.7,9.4h-3.3c-3.8,0-6.7-4.2-6.7-9.4h0C1731,421.51,1734,417.41,1737.8,417.41Z"/><rect id="Rectangle_313" data-name="Rectangle 313" class="cls-3" x="1807.6" y="465.11" width="50.4" height="26.6"/><rect id="Rectangle_314" data-name="Rectangle 314" class="cls-3" x="1875" y="436.41" width="48.7" height="21"/><path id="Rectangle_316" data-name="Rectangle 316" class="cls-3" d="M1899.3,360.51h0c2.9,0,5.2,3.3,5.2,7.3v24.7c0,4-2.4,7.3-5.2,7.3h0c-2.9,0-5.2-3.3-5.2-7.3v-24.7C1894.1,363.81,1896.4,360.51,1899.3,360.51Z"/><rect id="Rectangle_535" data-name="Rectangle 535" class="cls-3" x="1907.7" y="477.31" width="7.6" height="40.6"/><rect id="Rectangle_537" data-name="Rectangle 537" class="cls-3" x="1826" y="482.71" width="64" height="18"/><rect id="Rectangle_538" data-name="Rectangle 538" class="cls-3" x="1886" y="406.71" width="7.4" height="40.6"/><rect id="Rectangle_539" data-name="Rectangle 539" class="cls-3" x="1752.2" y="343.81" width="5.1" height="52.4"/><rect id="Rectangle_540" data-name="Rectangle 540" class="cls-3" x="1743.1" y="331.11" width="4.2" height="52.4"/></g></g><rect class="cls-4" x="323.9" y="463.31" width="98.5" height="15.6"/><rect class="cls-4" x="335" y="452.71" width="76.6" height="15.6"/><polygon class="cls-4" points="382.5 269.9 392.5 269.31 406.3 459.81 396.2 460.4 382.5 269.9"/><polygon class="cls-4" points="340.9 459.7 354.6 269.2 364.7 269.9 351 460.4 340.9 459.7"/><rect class="cls-4" x="783.6" y="463.31" width="98.4" height="15.6"/><rect class="cls-4" x="794.5" y="452.71" width="76.6" height="15.6"/><polygon class="cls-4" points="797.7 458.5 813.2 361.4 823.1 362.9 807.7 459.9 797.7 458.5"/><polygon class="cls-4" points="842.2 362.81 852.1 361.4 867.6 458.4 857.6 459.81 842.2 362.81"/><path class="cls-4" d="M794.5,345.61v19.5h28c.6-2.5,4.8-4.5,10-4.5s9.5,2,10,4.5H871v-19.5Z"/><rect class="cls-4" x="641.4" y="463.31" width="98.4" height="15.6"/><rect class="cls-4" x="652.4" y="452.71" width="76.6" height="15.6"/><polygon class="cls-4" points="655.6 458.5 671 361.4 681 362.9 665.5 459.9 655.6 458.5"/><polygon class="cls-4" points="700 362.81 710 361.4 725.5 458.4 715.5 459.81 700 362.81"/><path class="cls-4" d="M652.4,345.61v19.5h28c.6-2.5,4.8-4.5,10-4.5s9.5,2,10,4.5h28.5v-19.5Z"/><rect class="cls-4" x="486.3" y="463.31" width="98.4" height="15.6"/><rect class="cls-4" x="497.4" y="452.71" width="76.6" height="15.6"/><polygon class="cls-4" points="500.5 458.5 520.1 335.9 530 337.31 510.5 459.9 500.5 458.5"/><polygon class="cls-4" points="541.3 339.2 551.3 337.81 570.5 458.5 560.5 459.9 541.3 339.2"/><rect class="cls-4" x="153.2" y="463.31" width="98.5" height="15.6"/><rect class="cls-4" x="164.2" y="452.71" width="76.6" height="15.6"/><polygon class="cls-4" points="209 232.91 219.1 232.31 235.5 459.7 225.4 460.4 209 232.91"/><polygon class="cls-4" points="170.2 459.7 188.1 212.5 198.1 213.21 180.3 460.4 170.2 459.7"/><path class="cls-4" d="M-24.6,116.31S403,365,1103,332.51l-15.7,81.7S230.7,366.81-14.8,163.51c-18.7-15.5,25.3-20.7,13.5-38.2Z"/><g id="Group_80-2" data-name="Group 80-2"><g id="Group_74-2" data-name="Group 74-2"><g id="Group_72-2" data-name="Group 72-2"><rect id="Rectangle_189-2" data-name="Rectangle 189-2" class="cls-2" x="977.6" y="401.51" width="9.8" height="67.9"/><rect id="Rectangle_190-2" data-name="Rectangle 190-2" class="cls-2" x="999.8" y="401.51" width="13.1" height="67.9"/><rect id="Rectangle_191" data-name="Rectangle 191" class="cls-2" x="1020" y="380.01" width="15.6" height="67.9"/><path id="Path_151" data-name="Path 151" class="cls-2" d="M1071.5,285.71h129.8v188.2H1071.5Z"/><rect id="Rectangle_193" data-name="Rectangle 193" class="cls-2" x="1212.3" y="217.81" width="63.2" height="299.8"/><rect id="Rectangle_194" data-name="Rectangle 194" class="cls-2" x="1224.1" y="242.61" width="63.2" height="299.8"/><path id="Path_59" data-name="Path 59" class="cls-2" d="M1229.9,199.51l12.4-18.4h14.2l19.2,27v16.6l-45.8,35.2v-60.4Z"/><rect id="Rectangle_195" data-name="Rectangle 195" class="cls-2" x="1287.3" y="398.21" width="63.2" height="114.5"/><rect id="Rectangle_196" data-name="Rectangle 196" class="cls-2" x="1298.5" y="382.51" width="7.8" height="77.8"/><rect id="Rectangle_197" data-name="Rectangle 197" class="cls-2" x="1311.4" y="304.61" width="125.8" height="186.3"/><rect id="Rectangle_198" data-name="Rectangle 198" class="cls-2" x="1350.6" y="236.71" width="47.6" height="184.6"/><path id="Path_60" data-name="Path 60" class="cls-2" d="M1326.4,276.11c10.8-8.3,28.3-7.3,28.5,4.2s-4,18.9-14.4,27.3-28.8,6.4-28.9-2.7A36.06,36.06,0,0,1,1326.4,276.11Z"/><path id="Path_62" data-name="Path 62" class="cls-2" d="M1367.6,205.71c11.9-9.1,30.7-8.9,30.6,2.8s-4.8,19.7-16.4,28.9-31.3,8.1-31-1.3S1355.7,214.81,1367.6,205.71Z"/><rect id="Rectangle_199" data-name="Rectangle 199" class="cls-2" x="1370.2" y="206.11" width="28" height="184.6"/><path id="Path_64" data-name="Path 64" class="cls-2" d="M1326.4,294.31c10.8-8.3,28.3-7.3,28.5,4.2s-4,18.9-14.4,27.3-28.8,6.4-28.9-2.7A36.06,36.06,0,0,1,1326.4,294.31Z"/><path id="Path_65" data-name="Path 65" class="cls-2" d="M1409.1,270.31c10.8-8.3,28.3-7.3,28.5,4.2s-4,18.9-14.4,27.3-28.8,6.4-28.9-2.7A36.19,36.19,0,0,1,1409.1,270.31Z"/><rect id="Rectangle_200" data-name="Rectangle 200" class="cls-2" x="1410.5" y="282.31" width="26.7" height="208.7"/><rect id="Rectangle_201" data-name="Rectangle 201" class="cls-2" x="1410.5" y="398.21" width="72.4" height="92.7"/><rect id="Rectangle_202" data-name="Rectangle 202" class="cls-2" x="1449.7" y="145.71" width="95.8" height="337.8"/><path id="Path_66" data-name="Path 66" class="cls-2" d="M1496.8,88.51l40.8,37.3,8.4,19.9h-96.4l10.5-25.3Z"/><rect id="Rectangle_203" data-name="Rectangle 203" class="cls-2" x="1552.8" y="246.71" width="78.9" height="245.9"/><rect id="Rectangle_204" data-name="Rectangle 204" class="cls-2" x="1537.7" y="457.11" width="25.4" height="35.6"/><rect id="Rectangle_205" data-name="Rectangle 205" class="cls-2" x="1631.6" y="427.21" width="394.4" height="57.1"/><rect id="Rectangle_206" data-name="Rectangle 206" class="cls-2" x="1638.1" y="174.71" width="65.9" height="309.6"/><rect id="Rectangle_207" data-name="Rectangle 207" class="cls-2" x="1773.7" y="201.11" width="44.3" height="231"/><rect id="Rectangle_208" data-name="Rectangle 208" class="cls-2" x="1782.9" y="177.11" width="27.4" height="231"/><rect id="Rectangle_209" data-name="Rectangle 209" class="cls-2" x="1767.9" y="201.11" width="56.7" height="20.7"/><rect id="Rectangle_210" data-name="Rectangle 210" class="cls-2" x="1701.4" y="402.41" width="75.7" height="29.8"/><rect id="Rectangle_211" data-name="Rectangle 211" class="cls-2" x="1733.9" y="387.51" width="28.7" height="29.8"/><rect id="Rectangle_212" data-name="Rectangle 212" class="cls-2" x="1835" y="412.31" width="28.7" height="29.8"/><rect id="Rectangle_213" data-name="Rectangle 213" class="cls-2" x="1843.5" y="398.21" width="11.8" height="38.1"/><rect id="Rectangle_214" data-name="Rectangle 214" class="cls-2" x="1860.4" y="177.11" width="35.9" height="259.2"/><rect id="Rectangle_215" data-name="Rectangle 215" class="cls-2" x="1863.7" y="163.11" width="32.6" height="259.2"/><rect id="Rectangle_216" data-name="Rectangle 216" class="cls-2" x="1867" y="153.11" width="26.1" height="259.1"/><rect id="Rectangle_217" data-name="Rectangle 217" class="cls-2" x="1867" y="192.91" width="60" height="253.3"/><rect id="Rectangle_218" data-name="Rectangle 218" class="cls-2" x="1857.2" y="177.11" width="48.3" height="19.1"/><rect id="Rectangle_219" data-name="Rectangle 219" class="cls-2" x="1559.9" y="238.41" width="63.2" height="245.9"/><path id="Path_67" data-name="Path 67" class="cls-2" d="M1896.4,162.81l30.8,30.2h-30.8Z"/><rect id="Rectangle_164-2" data-name="Rectangle 164-2" class="cls-2" x="1563" y="465.21" width="438.1" height="58.2"/><rect id="Rectangle_164-4" data-name="Rectangle 164-4" class="cls-2" x="1887.3" y="472.41" width="49.8" height="71.2"/><rect id="Rectangle_164-5" data-name="Rectangle 164-5" class="cls-2" x="1463" y="466.51" width="122" height="65.4"/><rect id="Rectangle_164-6" data-name="Rectangle 164-6" class="cls-2" x="1359.5" y="513.11" width="127" height="29"/><rect id="Rectangle_164-7" data-name="Rectangle 164-7" class="cls-2" x="977.2" y="438.71" width="255.1" height="96.4"/><rect id="Rectangle_164-8" data-name="Rectangle 164-8" class="cls-2" x="1328.9" y="500.71" width="58.4" height="11.9"/></g></g><g id="Group_75-2" data-name="Group 75-2"><path id="Path_92" data-name="Path 92" class="cls-3" d="M1527.7,119.61h0l-4.6,26.5h-16.3Z"/><path id="Path_93" data-name="Path 93" class="cls-3" d="M1481.3,119.61l-2.3,2.9,27.9,23.6H1523l-39.9-31.8Z"/><path id="Path_95" data-name="Path 95" class="cls-3" d="M1527.7,119.61h0l-22.2,7.7-8.4-37.8Z"/><path id="Rectangle_318" data-name="Rectangle 318" class="cls-3" d="M1096.1,504.71h13.6c2.2,0,4,2.2,4,4.9h0c0,2.8-1.8,4.9-4,4.9h-13.6c-2.2,0-4-2.2-4-4.9h0C1092.2,506.91,1093.9,504.71,1096.1,504.71Z"/><rect id="Rectangle_319" data-name="Rectangle 319" class="cls-3" x="1070.2" y="300.21" width="86" height="194.6"/><rect id="Rectangle_320" data-name="Rectangle 320" class="cls-3" x="1070.2" y="279.41" width="86" height="10.8"/><rect id="Rectangle_323" data-name="Rectangle 323" class="cls-3" x="1176.3" y="490.61" width="35.2" height="19.1"/><path id="Rectangle_326" data-name="Rectangle 326" class="cls-3" d="M1200.1,431.81h0c3.5,0,6.2,3.5,6.2,7.9v24.8c0,4.4-2.8,7.9-6.2,7.9h0c-3.5,0-6.2-3.5-6.2-7.9v-24.8C1193.9,435.31,1196.7,431.81,1200.1,431.81Z"/><rect id="Rectangle_327" data-name="Rectangle 327" class="cls-3" x="1224.6" y="211.51" width="7.8" height="293.1"/><rect id="Rectangle_328" data-name="Rectangle 328" class="cls-3" x="1210.8" y="211.51" width="4.5" height="298.1"/><rect id="Rectangle_329" data-name="Rectangle 329" class="cls-3" x="1210.8" y="499.81" width="49.6" height="10"/><rect id="Rectangle_330" data-name="Rectangle 330" class="cls-3" x="1210.8" y="211.51" width="24.8" height="28.2"/><path id="Path_86" data-name="Path 86" class="cls-3" d="M1260.7,183.21l12.8,17.7v303.8h-13.1Z"/><path id="Path_87" data-name="Path 87" class="cls-3" d="M1227.2,193.41l12.1-16.7h4.8v44.9h-16.9Z"/><rect id="Rectangle_331" data-name="Rectangle 331" class="cls-3" x="1278" y="233.91" width="7.8" height="270.7"/><path id="Rectangle_332" data-name="Rectangle 332" class="cls-3" d="M1296.3,472.41h0c3.3,0,5.8,3.3,5.8,7.4V493c0,4.1-2.7,7.4-5.8,7.4h0c-3.3,0-5.8-3.3-5.8-7.4v-13.2C1290.5,475.81,1293,472.41,1296.3,472.41Z"/><path id="Rectangle_333" data-name="Rectangle 333" class="cls-3" d="M1299.3,509.61h0c1.6,0,3,1.7,3,3.7v9.1c0,2-1.3,3.7-3,3.7h0c-1.6,0-3-1.7-3-3.7v-9.1C1296.3,511.31,1297.6,509.61,1299.3,509.61Z"/><path id="Path_88" data-name="Path 88" class="cls-3" d="M1324.9,269.91c10.8-8.3,28.3-7.3,28.5,4.2s-4,18.9-14.4,27.3-28.8,6.4-28.9-2.7A35.91,35.91,0,0,1,1324.9,269.91Z"/><path id="Path_89" data-name="Path 89" class="cls-3" d="M1366.1,199.51c11.9-9.1,30.7-9,30.6,2.8s-4.8,19.7-16.4,28.9-31.3,8.1-31-1.3S1354.2,208.61,1366.1,199.51Z"/><path id="Path_90" data-name="Path 90" class="cls-3" d="M1407.7,264.11c10.8-8.3,28.3-7.3,28.5,4.2s-4,18.9-14.4,27.3-28.8,6.4-28.9-2.7A36.2,36.2,0,0,1,1407.7,264.11Z"/><rect id="Rectangle_335" data-name="Rectangle 335" class="cls-3" x="1312.6" y="300.21" width="16.3" height="57.1"/><rect id="Rectangle_336" data-name="Rectangle 336" class="cls-3" x="1349.1" y="228.91" width="20.2" height="44.7"/><rect id="Rectangle_337" data-name="Rectangle 337" class="cls-3" x="1353.7" y="228.91" width="15.6" height="66.2"/><rect id="Rectangle_338" data-name="Rectangle 338" class="cls-3" x="1392.8" y="291.11" width="12.4" height="66.2"/><path id="Path_91" data-name="Path 91" class="cls-3" d="M1363.9,339.41c10.8-8.3,28.3-7.3,28.5,4.2s-4,18.9-14.4,27.3-28.8,6.4-28.9-2.7A36.49,36.49,0,0,1,1363.9,339.41Z"/><rect id="Rectangle_339" data-name="Rectangle 339" class="cls-3" x="1349.1" y="369.71" width="20.2" height="57.9"/><rect id="Rectangle_340" data-name="Rectangle 340" class="cls-3" x="1392.8" y="291.11" width="5.8" height="136.6"/><rect id="Rectangle_341" data-name="Rectangle 341" class="cls-3" x="1312.6" y="357.31" width="36.5" height="8.3"/><rect id="Rectangle_342" data-name="Rectangle 342" class="cls-3" x="1312.6" y="375.51" width="36.5" height="5.8"/><rect id="Rectangle_343" data-name="Rectangle 343" class="cls-3" x="1319.1" y="388.71" width="30" height="5.8"/><rect id="Rectangle_344" data-name="Rectangle 344" class="cls-3" x="1309.3" y="402.01" width="39.8" height="5.8"/><rect id="Rectangle_345" data-name="Rectangle 345" class="cls-3" x="1309.3" y="415.21" width="39.8" height="5.8"/><rect id="Rectangle_346" data-name="Rectangle 346" class="cls-3" x="1309.3" y="428.51" width="39.8" height="5.8"/><rect id="Rectangle_347" data-name="Rectangle 347" class="cls-3" x="1309.3" y="441.71" width="39.8" height="5.8"/><rect id="Rectangle_348" data-name="Rectangle 348" class="cls-3" x="1309.3" y="455.01" width="39.8" height="5.8"/><rect id="Rectangle_349" data-name="Rectangle 349" class="cls-3" x="1309.3" y="468.21" width="39.8" height="5.8"/><rect id="Rectangle_350" data-name="Rectangle 350" class="cls-3" x="1349.1" y="434.31" width="51.5" height="7.4"/><rect id="Rectangle_351" data-name="Rectangle 351" class="cls-3" x="1349.1" y="447.61" width="51.5" height="7.4"/><rect id="Rectangle_352" data-name="Rectangle 352" class="cls-3" x="1349.1" y="460.81" width="51.5" height="7.4"/><rect id="Rectangle_353" data-name="Rectangle 353" class="cls-3" x="1349.1" y="474.11" width="51.5" height="7.4"/><rect id="Rectangle_354" data-name="Rectangle 354" class="cls-3" x="1398.7" y="361.51" width="35.2" height="4.2"/><rect id="Rectangle_355" data-name="Rectangle 355" class="cls-3" x="1398.7" y="373.01" width="35.2" height="5.8"/><rect id="Rectangle_356" data-name="Rectangle 356" class="cls-3" x="1398.7" y="388.71" width="35.2" height="5.8"/><rect id="Rectangle_357" data-name="Rectangle 357" class="cls-3" x="1398.7" y="402.01" width="35.2" height="5.8"/><rect id="Rectangle_358" data-name="Rectangle 358" class="cls-3" x="1398.7" y="415.21" width="35.2" height="5.8"/><rect id="Rectangle_359" data-name="Rectangle 359" class="cls-3" x="1398.7" y="428.51" width="35.2" height="5.8"/><rect id="Rectangle_360" data-name="Rectangle 360" class="cls-3" x="1398.7" y="441.71" width="35.2" height="5.8"/><rect id="Rectangle_361" data-name="Rectangle 361" class="cls-3" x="1398.7" y="455.01" width="35.2" height="5.8"/><rect id="Rectangle_362" data-name="Rectangle 362" class="cls-3" x="1353.7" y="294.41" width="35.6" height="5.8"/><rect id="Rectangle_363" data-name="Rectangle 363" class="cls-3" x="1353.7" y="307.61" width="35.6" height="5.8"/><rect id="Rectangle_364" data-name="Rectangle 364" class="cls-3" x="1353.7" y="320.81" width="35.6" height="5.8"/><rect id="Rectangle_365" data-name="Rectangle 365" class="cls-3" x="1353.7" y="334.11" width="35.6" height="5.8"/><rect id="Rectangle_366" data-name="Rectangle 366" class="cls-3" x="1330.2" y="498.91" width="117.4" height="15.7"/><rect id="Rectangle_367" data-name="Rectangle 367" class="cls-3" x="1506.9" y="146.21" width="16.3" height="318.8"/><rect id="Rectangle_368" data-name="Rectangle 368" class="cls-3" x="1449.5" y="146.21" width="4" height="318.8"/><path id="Path_94" data-name="Path 94" class="cls-3" d="M1481.3,119.61h0l-28,35.2-3.9-8.7v-7.7l10.1-24.8,35.6-31.2Z"/><path id="Rectangle_369" data-name="Rectangle 369" class="cls-3" d="M1522.9,482.31h0c3.1,0,5.5,3.2,5.5,7.1v18.2c0,3.9-2.5,7.09-5.5,7.09h0c-3.1,0-5.5-3.19-5.5-7.09v-18.2C1517.3,485.41,1519.8,482.31,1522.9,482.31Z"/><rect id="Rectangle_370" data-name="Rectangle 370" class="cls-3" x="1534.9" y="502.21" width="43" height="7.4"/><rect id="Rectangle_371" data-name="Rectangle 371" class="cls-3" x="1573.4" y="483.11" width="26.7" height="34.8"/><rect id="Rectangle_372" data-name="Rectangle 372" class="cls-3" x="1557.1" y="232.31" width="64.6" height="16.6"/><rect id="Rectangle_373" data-name="Rectangle 373" class="cls-3" x="1554.4" y="240.51" width="75" height="17.4"/><rect id="Rectangle_374" data-name="Rectangle 374" class="cls-3" x="1557.1" y="262.91" width="69.7" height="6.6"/><rect id="Rectangle_375" data-name="Rectangle 375" class="cls-3" x="1557.1" y="275.31" width="69.7" height="6.6"/><rect id="Rectangle_376" data-name="Rectangle 376" class="cls-3" x="1557.1" y="287.71" width="69.7" height="6.6"/><rect id="Rectangle_377" data-name="Rectangle 377" class="cls-3" x="1557.1" y="300.21" width="69.7" height="6.6"/><rect id="Rectangle_378" data-name="Rectangle 378" class="cls-3" x="1557.1" y="312.51" width="69.7" height="6.6"/><rect id="Rectangle_379" data-name="Rectangle 379" class="cls-3" x="1557.1" y="325.01" width="69.7" height="6.6"/><rect id="Rectangle_380" data-name="Rectangle 380" class="cls-3" x="1557.1" y="337.41" width="69.7" height="6.6"/><rect id="Rectangle_381" data-name="Rectangle 381" class="cls-3" x="1557.1" y="349.81" width="69.7" height="6.6"/><rect id="Rectangle_382" data-name="Rectangle 382" class="cls-3" x="1557.1" y="362.31" width="69.7" height="6.6"/><rect id="Rectangle_383" data-name="Rectangle 383" class="cls-3" x="1557.1" y="374.71" width="69.7" height="6.6"/><rect id="Rectangle_384" data-name="Rectangle 384" class="cls-3" x="1557.1" y="387.11" width="69.7" height="6.6"/><rect id="Rectangle_385" data-name="Rectangle 385" class="cls-3" x="1557.1" y="399.51" width="69.7" height="6.6"/><rect id="Rectangle_386" data-name="Rectangle 386" class="cls-3" x="1557.1" y="412.01" width="69.7" height="6.6"/><rect id="Rectangle_387" data-name="Rectangle 387" class="cls-3" x="1557.1" y="424.31" width="69.7" height="6.6"/><rect id="Rectangle_388" data-name="Rectangle 388" class="cls-3" x="1557.1" y="436.81" width="69.7" height="6.6"/><rect id="Rectangle_389" data-name="Rectangle 389" class="cls-3" x="1557.1" y="448.31" width="69.7" height="6.6"/><rect id="Rectangle_390" data-name="Rectangle 390" class="cls-3" x="1636.6" y="178.11" width="39.8" height="334.9"/><rect id="Rectangle_391" data-name="Rectangle 391" class="cls-3" x="1690.1" y="484.81" width="50.8" height="15.7"/><path id="Rectangle_392" data-name="Rectangle 392" class="cls-3" d="M1712.3,465h15.6c2.6,0,4.5,2.6,4.5,5.8h0c0,3.3-2.1,5.8-4.5,5.8h-15.6c-2.6,0-4.5-2.6-4.5-5.8h0C1707.7,467.51,1709.7,465,1712.3,465Z"/><path id="Rectangle_393" data-name="Rectangle 393" class="cls-3" d="M1705.1,442.61h3.3c2.6,0,4.5,2.6,4.5,5.8h0c0,3.2-2.1,5.8-4.5,5.8h-3.3c-2.6,0-4.5-2.6-4.5-5.8h0C1700.5,445.21,1702.6,442.61,1705.1,442.61Z"/><path id="Rectangle_394" data-name="Rectangle 394" class="cls-3" d="M1724.9,418.61h0c2.7,0,4.8,2.8,4.8,6.2v3.3c0,3.4-2.2,6.2-4.8,6.2h0c-2.7,0-4.8-2.8-4.8-6.2v-3.3C1720.1,421.41,1722.3,418.61,1724.9,418.61Z"/><rect id="Rectangle_395" data-name="Rectangle 395" class="cls-3" x="1756" y="500.51" width="47.6" height="12.4"/><rect id="Rectangle_397" data-name="Rectangle 397" class="cls-3" x="1742.9" y="390.41" width="13.1" height="24.8"/><rect id="Rectangle_398" data-name="Rectangle 398" class="cls-3" x="1783.3" y="175.21" width="22.2" height="12.4"/><rect id="Rectangle_399" data-name="Rectangle 399" class="cls-3" x="1782" y="208.31" width="24.8" height="14"/><rect id="Rectangle_400" data-name="Rectangle 400" class="cls-3" x="1782" y="195.01" width="5.2" height="25.7"/><rect id="Rectangle_401" data-name="Rectangle 401" class="cls-3" x="1801.6" y="195.01" width="5.2" height="25.7"/><rect id="Rectangle_402" data-name="Rectangle 402" class="cls-3" x="1787.3" y="227.31" width="14.3" height="5.8"/><rect id="Rectangle_403" data-name="Rectangle 403" class="cls-3" x="1787.3" y="238.01" width="14.3" height="5.8"/><rect id="Rectangle_404" data-name="Rectangle 404" class="cls-3" x="1810.1" y="227.31" width="6.5" height="5.8"/><rect id="Rectangle_405" data-name="Rectangle 405" class="cls-3" x="1810.1" y="238.01" width="6.5" height="5.8"/><rect id="Rectangle_406" data-name="Rectangle 406" class="cls-3" x="1772.2" y="227.31" width="6.5" height="5.8"/><rect id="Rectangle_407" data-name="Rectangle 407" class="cls-3" x="1772.2" y="238.01" width="6.5" height="5.8"/><rect id="Rectangle_408" data-name="Rectangle 408" class="cls-3" x="1787.3" y="248.81" width="14.3" height="5.8"/><rect id="Rectangle_409" data-name="Rectangle 409" class="cls-3" x="1787.3" y="259.61" width="14.3" height="5.8"/><rect id="Rectangle_410" data-name="Rectangle 410" class="cls-3" x="1810.1" y="248.81" width="6.5" height="5.8"/><rect id="Rectangle_411" data-name="Rectangle 411" class="cls-3" x="1810.1" y="259.61" width="6.5" height="5.8"/><rect id="Rectangle_412" data-name="Rectangle 412" class="cls-3" x="1772.2" y="248.81" width="6.5" height="5.8"/><rect id="Rectangle_413" data-name="Rectangle 413" class="cls-3" x="1772.2" y="259.61" width="6.5" height="5.8"/><rect id="Rectangle_414" data-name="Rectangle 414" class="cls-3" x="1787.3" y="270.31" width="14.3" height="5.8"/><rect id="Rectangle_415" data-name="Rectangle 415" class="cls-3" x="1787.3" y="281.11" width="14.3" height="5.8"/><rect id="Rectangle_416" data-name="Rectangle 416" class="cls-3" x="1810.1" y="270.31" width="6.5" height="5.8"/><rect id="Rectangle_417" data-name="Rectangle 417" class="cls-3" x="1810.1" y="281.11" width="6.5" height="5.8"/><rect id="Rectangle_418" data-name="Rectangle 418" class="cls-3" x="1772.2" y="270.31" width="6.5" height="5.8"/><rect id="Rectangle_419" data-name="Rectangle 419" class="cls-3" x="1772.2" y="281.11" width="6.5" height="5.8"/><rect id="Rectangle_420" data-name="Rectangle 420" class="cls-3" x="1787.3" y="291.91" width="14.3" height="5.8"/><rect id="Rectangle_421" data-name="Rectangle 421" class="cls-3" x="1787.3" y="302.71" width="14.3" height="5.8"/><rect id="Rectangle_422" data-name="Rectangle 422" class="cls-3" x="1810.1" y="291.91" width="6.5" height="5.8"/><rect id="Rectangle_423" data-name="Rectangle 423" class="cls-3" x="1810.1" y="302.71" width="6.5" height="5.8"/><rect id="Rectangle_424" data-name="Rectangle 424" class="cls-3" x="1772.2" y="291.91" width="6.5" height="5.8"/><rect id="Rectangle_425" data-name="Rectangle 425" class="cls-3" x="1772.2" y="302.71" width="6.5" height="5.8"/><rect id="Rectangle_426" data-name="Rectangle 426" class="cls-3" x="1810.1" y="216.61" width="6.5" height="5.8"/><rect id="Rectangle_427" data-name="Rectangle 427" class="cls-3" x="1772.2" y="216.61" width="6.5" height="5.8"/><rect id="Rectangle_428" data-name="Rectangle 428" class="cls-3" x="1787.3" y="313.41" width="14.3" height="5.8"/><rect id="Rectangle_429" data-name="Rectangle 429" class="cls-3" x="1810.1" y="313.41" width="6.5" height="5.8"/><rect id="Rectangle_430" data-name="Rectangle 430" class="cls-3" x="1772.2" y="313.41" width="6.5" height="5.8"/><rect id="Rectangle_431" data-name="Rectangle 431" class="cls-3" x="1787.3" y="324.21" width="14.3" height="5.8"/><rect id="Rectangle_432" data-name="Rectangle 432" class="cls-3" x="1787.3" y="334.91" width="14.3" height="5.8"/><rect id="Rectangle_433" data-name="Rectangle 433" class="cls-3" x="1810.1" y="324.21" width="6.5" height="5.8"/><rect id="Rectangle_434" data-name="Rectangle 434" class="cls-3" x="1810.1" y="334.91" width="6.5" height="5.8"/><rect id="Rectangle_435" data-name="Rectangle 435" class="cls-3" x="1772.2" y="324.21" width="6.5" height="5.8"/><rect id="Rectangle_436" data-name="Rectangle 436" class="cls-3" x="1772.2" y="334.91" width="6.5" height="5.8"/><rect id="Rectangle_437" data-name="Rectangle 437" class="cls-3" x="1787.3" y="345.71" width="14.3" height="5.8"/><rect id="Rectangle_438" data-name="Rectangle 438" class="cls-3" x="1810.1" y="345.71" width="6.5" height="5.8"/><rect id="Rectangle_439" data-name="Rectangle 439" class="cls-3" x="1772.2" y="345.71" width="6.5" height="5.8"/><rect id="Rectangle_440" data-name="Rectangle 440" class="cls-3" x="1787.3" y="356.41" width="14.3" height="5.8"/><rect id="Rectangle_441" data-name="Rectangle 441" class="cls-3" x="1787.3" y="367.21" width="14.3" height="5.8"/><rect id="Rectangle_442" data-name="Rectangle 442" class="cls-3" x="1810.1" y="356.41" width="6.5" height="5.8"/><rect id="Rectangle_443" data-name="Rectangle 443" class="cls-3" x="1810.1" y="367.21" width="6.5" height="5.8"/><rect id="Rectangle_444" data-name="Rectangle 444" class="cls-3" x="1772.2" y="356.41" width="6.5" height="5.8"/><rect id="Rectangle_445" data-name="Rectangle 445" class="cls-3" x="1772.2" y="367.21" width="6.5" height="5.8"/><rect id="Rectangle_446" data-name="Rectangle 446" class="cls-3" x="1787.3" y="378.01" width="14.3" height="5.8"/><rect id="Rectangle_447" data-name="Rectangle 447" class="cls-3" x="1810.1" y="378.01" width="6.5" height="5.8"/><rect id="Rectangle_448" data-name="Rectangle 448" class="cls-3" x="1772.2" y="378.01" width="6.5" height="5.8"/><rect id="Rectangle_449" data-name="Rectangle 449" class="cls-3" x="1787.3" y="388.71" width="14.3" height="5.8"/><rect id="Rectangle_450" data-name="Rectangle 450" class="cls-3" x="1787.3" y="399.51" width="14.3" height="5.8"/><rect id="Rectangle_451" data-name="Rectangle 451" class="cls-3" x="1810.1" y="388.71" width="6.5" height="5.8"/><rect id="Rectangle_452" data-name="Rectangle 452" class="cls-3" x="1810.1" y="399.51" width="6.5" height="5.8"/><rect id="Rectangle_453" data-name="Rectangle 453" class="cls-3" x="1772.2" y="388.71" width="6.5" height="5.8"/><rect id="Rectangle_454" data-name="Rectangle 454" class="cls-3" x="1772.2" y="399.51" width="6.5" height="5.8"/><rect id="Rectangle_455" data-name="Rectangle 455" class="cls-3" x="1787.3" y="410.31" width="14.3" height="5.8"/><rect id="Rectangle_456" data-name="Rectangle 456" class="cls-3" x="1810.1" y="410.31" width="6.5" height="5.8"/><rect id="Rectangle_457" data-name="Rectangle 457" class="cls-3" x="1772.2" y="410.31" width="6.5" height="5.8"/><rect id="Rectangle_458" data-name="Rectangle 458" class="cls-3" x="1787.3" y="421.11" width="14.3" height="5.8"/><rect id="Rectangle_459" data-name="Rectangle 459" class="cls-3" x="1787.3" y="431.81" width="14.3" height="5.8"/><rect id="Rectangle_460" data-name="Rectangle 460" class="cls-3" x="1810.1" y="421.11" width="6.5" height="5.8"/><rect id="Rectangle_461" data-name="Rectangle 461" class="cls-3" x="1810.1" y="431.81" width="6.5" height="5.8"/><rect id="Rectangle_462" data-name="Rectangle 462" class="cls-3" x="1772.2" y="421.11" width="6.5" height="5.8"/><rect id="Rectangle_463" data-name="Rectangle 463" class="cls-3" x="1772.2" y="431.81" width="6.5" height="5.8"/><rect id="Rectangle_464" data-name="Rectangle 464" class="cls-3" x="1787.3" y="442.61" width="14.3" height="5.8"/><rect id="Rectangle_465" data-name="Rectangle 465" class="cls-3" x="1810.1" y="442.61" width="6.5" height="5.8"/><rect id="Rectangle_466" data-name="Rectangle 466" class="cls-3" x="1772.2" y="442.61" width="6.5" height="5.8"/><rect id="Rectangle_467" data-name="Rectangle 467" class="cls-3" x="1787.3" y="453.31" width="14.3" height="5.8"/><rect id="Rectangle_468" data-name="Rectangle 468" class="cls-3" x="1787.3" y="464.11" width="14.3" height="5.8"/><rect id="Rectangle_469" data-name="Rectangle 469" class="cls-3" x="1810.1" y="453.31" width="6.5" height="5.8"/><rect id="Rectangle_470" data-name="Rectangle 470" class="cls-3" x="1810.1" y="464.11" width="6.5" height="5.8"/><rect id="Rectangle_471" data-name="Rectangle 471" class="cls-3" x="1772.2" y="453.31" width="6.5" height="5.8"/><rect id="Rectangle_472" data-name="Rectangle 472" class="cls-3" x="1772.2" y="464.11" width="6.5" height="5.8"/><path id="Rectangle_473" data-name="Rectangle 473" class="cls-3" d="M1792.8,479H1813c3.1,0,5.5,3.2,5.5,7.1h0c0,3.9-2.5,7.1-5.5,7.1h-20.2c-3.1,0-5.5-3.2-5.5-7.1h0C1787.3,482.21,1789.7,479,1792.8,479Z"/><path id="Rectangle_474" data-name="Rectangle 474" class="cls-3" d="M1831.3,423.51h12.4c2.4,0,4.3,2.4,4.3,5.4h0c0,3-1.9,5.4-4.3,5.4h-12.4c-2.4,0-4.3-2.4-4.3-5.4h0C1827,425.91,1828.9,423.51,1831.3,423.51Z"/><path id="Rectangle_475" data-name="Rectangle 475" class="cls-3" d="M1842.6,445.91h0c2.9,0,5.2,3,5.2,6.6v4.9c0,3.6-2.4,6.6-5.2,6.6h0c-2.9,0-5.2-3-5.2-6.6v-4.9C1837.5,448.91,1839.8,445.91,1842.6,445.91Z"/><rect id="Rectangle_476" data-name="Rectangle 476" class="cls-3" x="1824.4" y="488.11" width="120" height="19.1"/><rect id="Rectangle_477" data-name="Rectangle 477" class="cls-3" x="1827" y="493.11" width="10.5" height="29.9"/><rect id="Rectangle_478" data-name="Rectangle 478" class="cls-3" x="1857" y="493.11" width="43.7" height="29.9"/><rect id="Rectangle_479" data-name="Rectangle 479" class="cls-3" x="1912.5" y="493.11" width="13.1" height="23.2"/><rect id="Rectangle_483" data-name="Rectangle 483" class="cls-3" x="1860.2" y="192.61" width="35.1" height="5.8"/><rect id="Rectangle_484" data-name="Rectangle 484" class="cls-3" x="1860.2" y="203.31" width="35.1" height="5.8"/><rect id="Rectangle_485" data-name="Rectangle 485" class="cls-3" x="1860.2" y="214.01" width="35.1" height="5.8"/><rect id="Rectangle_486" data-name="Rectangle 486" class="cls-3" x="1860.2" y="224.81" width="35.1" height="5.8"/><rect id="Rectangle_487" data-name="Rectangle 487" class="cls-3" x="1860.2" y="235.51" width="35.1" height="5.8"/><rect id="Rectangle_488" data-name="Rectangle 488" class="cls-3" x="1860.2" y="245.71" width="35.1" height="5.8"/><rect id="Rectangle_489" data-name="Rectangle 489" class="cls-3" x="1860.2" y="256.31" width="35.1" height="5.8"/><rect id="Rectangle_490" data-name="Rectangle 490" class="cls-3" x="1860.2" y="266.91" width="35.1" height="5.8"/><rect id="Rectangle_491" data-name="Rectangle 491" class="cls-3" x="1860.2" y="277.61" width="35.1" height="5.8"/><rect id="Rectangle_492" data-name="Rectangle 492" class="cls-3" x="1860.2" y="288.21" width="35.1" height="5.8"/><rect id="Rectangle_493" data-name="Rectangle 493" class="cls-3" x="1860.2" y="298.81" width="35.1" height="5.8"/><rect id="Rectangle_494" data-name="Rectangle 494" class="cls-3" x="1860.2" y="309.41" width="35.1" height="5.8"/><rect id="Rectangle_495" data-name="Rectangle 495" class="cls-3" x="1860.2" y="320.11" width="35.1" height="5.8"/><rect id="Rectangle_496" data-name="Rectangle 496" class="cls-3" x="1860.2" y="330.71" width="35.1" height="5.8"/><rect id="Rectangle_497" data-name="Rectangle 497" class="cls-3" x="1860.2" y="341.31" width="35.1" height="5.8"/><rect id="Rectangle_498" data-name="Rectangle 498" class="cls-3" x="1860.2" y="351.91" width="35.1" height="5.8"/><rect id="Rectangle_499" data-name="Rectangle 499" class="cls-3" x="1860.2" y="362.61" width="35.1" height="5.8"/><rect id="Rectangle_500" data-name="Rectangle 500" class="cls-3" x="1860.2" y="373.21" width="35.1" height="5.8"/><rect id="Rectangle_501" data-name="Rectangle 501" class="cls-3" x="1860.2" y="383.81" width="35.1" height="5.8"/><rect id="Rectangle_502" data-name="Rectangle 502" class="cls-3" x="1860.2" y="394.41" width="35.1" height="5.8"/><rect id="Rectangle_503" data-name="Rectangle 503" class="cls-3" x="1860.2" y="404.51" width="35.1" height="5.8"/><rect id="Rectangle_504" data-name="Rectangle 504" class="cls-3" x="1860.2" y="415.21" width="35.1" height="5.8"/><rect id="Rectangle_505" data-name="Rectangle 505" class="cls-3" x="1860.2" y="426.01" width="35.1" height="5.8"/><rect id="Rectangle_506" data-name="Rectangle 506" class="cls-3" x="1860.2" y="436.81" width="35.1" height="5.8"/><path id="Path_96" data-name="Path 96" class="cls-3" d="M1904,195l-28.8-35.7,38.6,35.7v259.2H1904V195Z"/><rect id="Rectangle_508" data-name="Rectangle 508" class="cls-3" x="1860.2" y="447.61" width="35.1" height="5.8"/></g></g><rect class="cls-5" x="-34.4" y="462.91" width="2662.6" height="261.3"/><rect class="cls-4" x="323.9" y="459.81" width="98.5" height="15.6"/><rect class="cls-4" x="335" y="470.41" width="76.6" height="15.6"/><polygon class="cls-4" points="382.6 668.71 396.3 478.2 406.4 478.9 392.6 669.4 382.6 668.71"/><polygon class="cls-4" points="341 478.9 351.1 478.31 364.8 668.8 354.8 669.4 341 478.9"/><rect class="cls-4" x="783.6" y="459.81" width="98.4" height="15.6"/><rect class="cls-4" x="794.5" y="470.41" width="76.6" height="15.6"/><polygon class="cls-4" points="797.7 480.2 807.6 478.81 823.1 575.8 813.1 577.21 797.7 480.2"/><polygon class="cls-4" points="842.1 575.9 857.5 478.81 867.5 480.2 852 577.3 842.1 575.9"/><rect class="cls-4" x="641.4" y="459.81" width="98.4" height="15.6"/><rect class="cls-4" x="652.4" y="470.41" width="76.6" height="15.6"/><polygon class="cls-4" points="658.2 479.9 668.1 478.5 683.8 575.71 673.8 577.11 658.2 479.9"/><polygon class="cls-4" points="700 575.9 715.5 478.9 725.5 480.31 710 577.3 700 575.9"/><rect class="cls-4" x="486.3" y="459.81" width="98.4" height="15.6"/><rect class="cls-4" x="497.4" y="470.41" width="76.6" height="15.6"/><polygon class="cls-4" points="500.5 480.2 510.5 478.81 530 601.4 520 602.8 500.5 480.2"/><polygon class="cls-4" points="541.2 599.4 560.4 478.81 570.4 480.2 551.2 600.8 541.2 599.4"/><rect class="cls-4" x="153.2" y="459.81" width="98.5" height="15.6"/><rect class="cls-4" x="164.2" y="470.41" width="76.6" height="15.6"/><polygon class="cls-4" points="209.2 705.71 225.6 478.2 235.7 478.9 219.3 706.3 209.2 705.71"/><polygon class="cls-4" points="170.3 478.9 180.4 478.2 198.2 725.4 188.2 726.11 170.3 478.9"/><polygon class="cls-2" points="1320.9 443.7 1320.9 447.4 1380.9 447.4 1407.7 447.4 1407.7 447.4 1407.7 447.4 1433.4 447.4 1433.4 443.7 1320.9 443.7"/><rect class="cls-4" x="947.9" y="501.91" width="9.8" height="38.9"/><rect class="cls-2" x="970.1" y="501.91" width="13.1" height="38.9"/><rect class="cls-2" x="990.4" y="501.91" width="15.6" height="61.4"/><path class="cls-2" d="M1164.2,502h-37.7v144.8h-84.9v10.4h84.9v4.7h44.9V509c-.4.1-.7.1-1.1.2C1167.3,509.21,1164.6,506.11,1164.2,502Z"/><polygon class="cls-2" points="1194.4 707 1194.4 501.9 1185.8 501.9 1185.8 709.9 1194.9 709.9 1194.9 707 1194.4 707"/><polygon class="cls-2" points="1257.6 443.7 1256.1 443.7 1256.1 707 1257.6 707 1257.6 544.3 1257.6 544.3 1257.6 443.7"/><polygon class="cls-2" points="1243.8 443.7 1243.8 707 1245.9 707 1248.3 707 1248.3 443.7 1243.8 443.7"/><polygon class="cls-2" points="1202.7 690.71 1222.9 707 1231 707 1230.8 443.7 1202.7 443.7 1202.7 690.71"/><rect class="cls-2" x="1194.4" y="501.91" width="0.5" height="205"/><path class="cls-2" d="M1279.7,540.41v-6h2.2v-7.8h-2.2v-6h2.2V512.8h-2.2v-6h2.2V499h-2.2v-6h2.2v-7.8h-2.2v-6h2.2v-7.8h-2.2v-6h2.2V447.7h39.2V444h-48.6a7.57,7.57,0,0,1,.1,1.5v13.9c0,4.3-2.7,7.8-5.8,7.8s-5.8-3.4-5.8-7.8V445.6a7.57,7.57,0,0,1,.1-1.5h-3.2V544.6H1269V479.7h7.8v64.9h5.2v-3.9h-2.3Z"/><polygon class="cls-2" points="1268.8 479.4 1268.8 544.3 1268.8 560.8 1276.6 560.8 1276.6 544.3 1276.6 479.4 1268.8 479.4"/><rect class="cls-2" x="1371" y="498.81" width="10" height="7.8"/><rect class="cls-2" x="1371" y="485.01" width="10" height="7.8"/><polygon class="cls-2" points="1369 506.61 1319.4 506.61 1319.4 512.71 1281.7 512.71 1281.7 520.5 1319.4 520.5 1319.4 513.5 1339.6 513.5 1339.6 520.11 1363.1 520.11 1363.1 513.5 1369 513.5 1369 520.5 1380.9 520.5 1380.9 512.71 1369 512.71 1369 506.61"/><polygon class="cls-2" points="1320.9 447.4 1281.7 447.4 1281.7 465.11 1319.4 465.11 1319.4 457.31 1371 457.31 1371 465.11 1319.4 465.11 1319.4 471.11 1371 471.11 1371 478.9 1380.9 478.9 1380.9 447.4 1380.9 447.4 1320.9 447.4"/><rect class="cls-2" x="1281.7" y="471.11" width="37.7" height="7.8"/><rect class="cls-2" x="1281.7" y="485.01" width="37.7" height="7.8"/><rect class="cls-2" x="1281.7" y="498.81" width="37.7" height="7.8"/><rect class="cls-2" x="1319.4" y="478.91" width="49.6" height="6"/><rect class="cls-2" x="1319.4" y="492.81" width="49.6" height="6"/><polygon class="cls-2" points="1420 474.61 1420 455.2 1433.4 455.2 1433.4 447.4 1407.7 447.4 1380.9 447.4 1380.9 478.9 1404.2 478.9 1404.2 485 1380.9 485 1380.9 492.81 1404.2 492.81 1404.2 498.81 1380.9 498.81 1380.9 506.61 1404.2 506.61 1404.2 512.71 1380.9 512.71 1380.9 520.5 1404.2 520.5 1404.2 526.5 1380.9 526.5 1380.9 534.4 1404.2 534.4 1404.2 540.4 1380.9 540.4 1380.9 544.3 1407.7 544.3 1419.8 544.3 1419.8 474.61 1420 474.61"/><polygon class="cls-2" points="1508 473 1433.4 473 1433.4 455.2 1420 455.2 1420 474.61 1423.8 474.61 1423.8 798.61 1431 808.21 1476.7 808.21 1477.2 807.71 1477.1 807.71 1477.2 807.71 1477.2 474.61 1493.5 474.61 1493.5 807.71 1493.4 807.71 1493.5 808.21 1515.9 808.21 1515.9 482.9 1508 482.9 1508 473"/><polygon class="cls-2" points="1593.4 485 1597.2 485 1597.2 491.9 1593.4 491.9 1593.4 497.11 1597.2 497.11 1597.2 504 1593.4 504 1593.4 510.11 1597.2 510.11 1597.2 517.11 1593.4 517.11 1593.4 523.11 1597.2 523.11 1597.2 530 1593.4 530 1593.4 536 1597.2 536 1597.2 543 1593.4 543 1593.4 549 1597.2 549 1597.2 555.9 1593.4 555.9 1593.4 562 1597.2 562 1597.2 568.9 1593.4 568.9 1593.4 575 1597.2 575 1597.2 581.9 1593.4 581.9 1593.4 587.9 1597.2 587.9 1597.2 594.9 1593.4 594.9 1593.4 600.9 1597.2 600.9 1597.2 607.8 1593.4 607.8 1593.4 613.9 1597.2 613.9 1597.2 620.8 1593.4 620.8 1593.4 626.9 1597.2 626.9 1597.2 633.8 1593.4 633.8 1593.4 639.8 1597.2 639.8 1597.2 646.8 1593.4 646.8 1593.4 652.8 1597.2 652.8 1597.2 659.71 1593.4 659.71 1593.4 665.8 1597.2 665.8 1597.2 672.71 1593.4 672.71 1593.4 678.8 1597.2 678.8 1597.2 685.71 1593.4 685.71 1593.4 690.9 1599.8 690.9 1599.8 702.61 1601.9 702.61 1601.9 474.31 1593.4 474.31 1593.4 485"/><polygon class="cls-2" points="1530.2 690.9 1530.2 685.71 1527.4 685.71 1527.4 678.8 1530.2 678.8 1530.2 672.71 1527.4 672.71 1527.4 665.8 1530.2 665.8 1530.2 659.71 1527.4 659.71 1527.4 652.8 1530.2 652.8 1530.2 646.8 1527.4 646.8 1527.4 639.8 1530.2 639.8 1530.2 633.8 1527.4 633.8 1527.4 626.9 1530.2 626.9 1530.2 620.8 1527.4 620.8 1527.4 613.9 1530.2 613.9 1530.2 607.8 1527.4 607.8 1527.4 600.9 1530.2 600.9 1530.2 594.9 1527.4 594.9 1527.4 587.9 1530.2 587.9 1530.2 581.9 1527.4 581.9 1527.4 575 1530.2 575 1530.2 568.9 1527.4 568.9 1527.4 562 1530.2 562 1530.2 555.9 1527.4 555.9 1527.4 549 1530.2 549 1530.2 543 1527.4 543 1527.4 536 1530.2 536 1530.2 530 1527.4 530 1527.4 523.11 1530.2 523.11 1530.2 517.11 1527.4 517.11 1527.4 510.11 1530.2 510.11 1530.2 504 1527.4 504 1527.4 497.11 1530.2 497.11 1530.2 491.9 1527.4 491.9 1527.4 485 1530.2 485 1530.2 482.9 1523.1 482.9 1523.1 702.61 1524.8 702.61 1524.8 690.9 1530.2 690.9"/><polygon class="cls-2" points="1530.2 473 1508 473 1508 482.9 1515.9 482.9 1523.1 482.9 1530.2 482.9 1530.2 473"/><rect class="cls-2" x="1834" y="504.01" width="3.3" height="0.5"/><rect class="cls-2" x="1601.9" y="474.31" width="5" height="39.7"/><path class="cls-2" d="M1927.7,474.61v-.3H1786.9v1.2h-6.5v-1.2h-8.5v1.2h-14.3v-1.2h-8.4v1.2h-6.5v-1.2h-42.9a4,4,0,0,1-1.5.3h-15.5a4,4,0,0,1-1.5-.3h-6.8V486a5.16,5.16,0,0,1,1.1-.2h3.2c2.6,0,4.5,2.7,4.5,6s-2.1,6-4.5,6h-3.3a3.59,3.59,0,0,1-1.1-.2v11.1h17.3a4.42,4.42,0,0,1,3.7-2.2h0a4.42,4.42,0,0,1,3.7,2.2h43.6V503h6.5v5.7h8.4V503h14.3v5.7h8.5V503h6.5v5.7h1.6v5.2h9.2a5.54,5.54,0,0,1-.2-1.8c0-3.1,1.9-5.6,4.3-5.6h3.8v-8.2h25.1v-.5h6.8V494h37V485.7h9.8V494h13.3v19.9h44.3v-39.2ZM1749.1,498h-6.5v-6h6.5Zm0-11.3h-6.5v-6h6.5Zm22.7,11.3h-14.3v-6h14.3Zm0-11.3h-14.3v-6h14.3Zm15.1,11.3h-6.5v-6h6.5Zm0-11.3h-6.5v-6h6.5Zm31.3.9c0,3.8-2.4,6.9-5.2,6.9h0c-2.9,0-5.2-3.1-5.2-6.9v-5.2c0-3.8,2.4-6.9,5.2-6.9h0c2.9,0,5.2,3.1,5.2,6.9Zm47.4,5.2h-35.1v-6h35.1Zm41.9,13.4c0,1.7-1,3.1-2.3,3.1s-2.3-1.4-2.3-3.1v-7.8c0-1.7,1-3,2.3-3s2.3,1.4,2.3,3Zm14.4,1.3c0,3.3-2.1,6-4.5,6s-4.5-2.7-4.5-6v-1.8c0-3.3,2.1-6,4.5-6s4.5,2.7,4.5,6Z"/><path class="cls-2" d="M1671.7,508.91h2.6v-11.1c-2-.7-3.5-3.1-3.5-5.9s1.5-5.2,3.5-5.9v-11.7h-27.6v300h-38.3v3.4h65.9V539.91h-2.6Z"/><path class="cls-2" d="M1787,508.91v.4h-6.5v-.4H1772v.4h-14.3v-.4h-8.4v.4h-1.8v5.2h1.8v6h-1.8v5.19h1.8v6.1h-1.8V537h1.8v6h-5v5.2h5v6h-5v5.2h5v6h-5v5.2h5v6h-5v5.2h5v6h-5v5.1h5v6h-5v5.2h5v6h-5v5.2h5v6h-5v5.2h5v6h-5v5.2h5v6h-5v5.2h5v6h-5v5.2h5v6h-5v5.2h5v6h-5v5.2h5v6h-5v5.2h5v6h-5v5.2h5v6h-5V716h5v6h-5v5.2h5v.5h3.3v-.5h.8V533h27.3v3h6.3v6h-6.3v5.2h6.3v6h-6.3v5.2h6.3v6h-6.3v5.2h6.3v6h-6.3v5.2h6.3v6h-6.3V592h6.3v6h-6.3v5.2h6.3v6h-6.3v5.2h6.3v6h-6.3v5.2h6.3v6h-6.3v5.2h6.3v6h-6.3V648h6.3v6h-6.3v5.2h6.3v6h-6.3v5.2h6.3v6h-6.3v5.2h6.3v6h-6.3v5.2h6.3v6h-6.3V704h6.3v6h-6.3v5.1h6.3v6h-6.3v5.2h6.3v.5h1.6V507.1l-1.6,1.81Zm-15.1,22.8h-14.3v-6h14.3Zm0-11.2h-14.3v-6h14.3Zm15.1,11.2h-6.5v-6h6.5Zm0-11.2h-6.5v-6h6.5Z"/><path class="cls-2" d="M1747.3,536.91v-5.1h-4.7v-6h4.7v-5.2h-4.7v-6h4.7v-5.2h-4.7V509H1699a7.39,7.39,0,0,1,1.2,4.3v3.4c0,3.5-2.2,6.5-4.8,6.5h0c-2.7,0-4.8-2.9-4.8-6.5v-3.4a8.21,8.21,0,0,1,1.2-4.3h-19.9v31.2h32.6v-15.5h28.7v15.5h9.6v-3.1Z"/><polygon class="cls-2" points="1830.5 526.5 1830.5 520.5 1830.8 520.5 1830.8 515.3 1830.5 515.3 1830.5 509.2 1830.8 509.2 1830.8 504.5 1834 504.5 1834 504 1830.5 504 1830.5 498.5 1805.4 498.5 1805.4 506.61 1813.9 506.61 1813.9 504.5 1825.5 504.5 1825.5 529.61 1830.8 529.61 1830.8 526.5 1830.5 526.5"/><path class="cls-2" d="M1825.5,504.51h-11.8v2.1h.1c2.4,0,4.3,2.5,4.3,5.6s-1.9,5.6-4.3,5.6h-.1v26.4h11.8v-39.7Z"/><polygon class="cls-2" points="1837.3 509.2 1837.3 504.5 1834 504.5 1830.8 504.5 1830.8 509.2 1837.3 509.2"/><polygon class="cls-2" points="1865.6 504 1837.3 504 1837.3 504.5 1837.3 509.2 1865.6 509.2 1865.6 515.3 1837.3 515.3 1837.3 519.21 1837.3 520.5 1865.6 520.5 1865.6 526.5 1837.3 526.5 1837.3 529.61 1837.3 531.71 1865.6 531.71 1865.6 537.8 1837.3 537.8 1837.3 542.3 1865.6 542.3 1865.6 548.3 1837.3 548.3 1837.3 553.3 1865.6 553.3 1865.6 559.4 1837.3 559.4 1837.3 564.5 1865.6 564.5 1865.6 570.5 1837.3 570.5 1837.3 575.61 1865.6 575.61 1865.6 581.61 1837.3 581.61 1837.3 586.61 1865.6 586.61 1865.6 592.71 1837.3 592.71 1837.3 597.8 1865.6 597.8 1865.6 603.8 1837.3 603.8 1837.3 608.8 1865.6 608.8 1865.6 614.9 1837.3 614.9 1837.3 619.9 1865.6 619.9 1865.6 626 1837.3 626 1837.3 631.11 1865.6 631.11 1865.6 637.11 1837.3 637.11 1837.3 642.11 1865.6 642.11 1865.6 648.21 1837.3 648.21 1837.3 653.3 1865.6 653.3 1865.6 659.3 1837.3 659.3 1837.3 664.4 1865.6 664.4 1865.6 670.4 1837.3 670.4 1837.3 675.4 1865.6 675.4 1865.6 681.5 1837.3 681.5 1837.3 686.61 1865.6 686.61 1865.6 692.61 1837.3 692.61 1837.3 697.71 1865.6 697.71 1865.6 703.71 1837.3 703.71 1837.3 708.21 1865.6 708.21 1865.6 714.21 1837.3 714.21 1837.3 719.4 1865.6 719.4 1865.6 725.5 1837.3 725.5 1837.3 730.71 1865.6 730.71 1865.6 736.71 1837.3 736.71 1837.3 741.9 1865.6 741.9 1865.6 748 1837.3 748 1837.3 753.21 1865.6 753.21 1865.6 755.3 1874.3 755.3 1874.3 494.2 1837.3 494.2 1837.3 498 1865.6 498 1865.6 504"/><polygon class="cls-2" points="1884.1 494.2 1884.1 756.61 1881.9 758.71 1897.3 758.71 1897.3 514 1897.3 494.2 1884.1 494.2"/><rect class="cls-2" x="1530.2" y="491.91" width="63.2" height="5.2"/><rect class="cls-2" x="1530.2" y="504.01" width="63.2" height="6"/><polygon class="cls-2" points="1530.2 482.9 1530.2 485 1593.4 485 1593.4 474.31 1533.4 474.31 1533.4 473 1530.2 473 1530.2 482.9"/><path class="cls-2" d="M1927.7,443.71h-13.1v6.7h-7.2v16.4h-49.8v-16.4h-62.9v-6.7h-83.5v10.1h-50.8v-10.1h-13.6v30.6h34.4c-1.8-.8-3.2-3.1-3.2-5.8,0-3.31,2.1-6,4.5-6h15.6c2.6,0,4.5,2.69,4.5,6a6.23,6.23,0,0,1-3.2,5.8h42.9v-4.8h6.5v4.8h8.4v-4.8h14.3v4.8h8.5v-4.8h6.5v4.8h140.8v-30.6Zm-144.4,16.2h-20.2c-3.1,0-5.5-3.3-5.5-7.3s2.5-7.3,5.5-7.3h20.2c3.1,0,5.5,3.3,5.5,7.3s-2.4,7.3-5.5,7.3Z"/><polygon class="cls-2" points="1607 443.7 1570.5 443.7 1570.5 455.61 1555.2 455.61 1555.2 473 1533.4 473 1533.4 474.31 1593.4 474.31 1601.9 474.31 1601.9 474.31 1607 474.31 1607 443.7"/><rect class="cls-2" x="1857.6" y="450.41" width="49.8" height="16.4"/><path class="cls-2" d="M1543.7,443.71h-45v5.4c0,4.1-2.5,7.3-5.5,7.3s-5.5-3.3-5.5-7.3v-5.4h-54.3V473h121.9v-17.4h-11.6v-11.9Z"/><polygon class="cls-4" points="947.5 443.7 947.5 501.9 947.9 501.9 957.7 501.9 970.1 501.9 983.1 501.9 990.4 501.9 1006 501.9 1040.5 501.9 1040.5 443.7 947.5 443.7"/><path class="cls-2" d="M1146.6,447.81v-4.1h-20V502h37.7v-26.9c0-4.6,2.8-8.2,6.2-8.2s6.2,3.7,6.2,8.2v26.8h4.5v-54.1Z"/><polygon class="cls-2" points="1194.9 501.9 1194.9 443.7 1185.8 443.7 1185.8 501.9 1194.4 501.9 1194.9 501.9"/><polygon class="cls-3" points="1126.7 501.9 1126.7 443.7 1040.5 443.7 1040.5 501.9 1040.5 646.8 1041.8 646.8 1126.7 646.8 1126.7 501.9"/><rect class="cls-3" x="1146.6" y="443.71" width="34.5" height="4.1"/><path class="cls-3" d="M1176.6,475c0-4.6-2.8-8.2-6.2-8.2s-6.2,3.7-6.2,8.2v26.8c.4,4.1,3,7.3,6.1,7.3a4.25,4.25,0,0,0,1.1-.2c2.7-.7,4.7-3.5,5-7.2v-.9Z"/><polygon class="cls-3" points="1194.9 443.7 1194.9 501.9 1194.9 707 1194.9 709.9 1202.7 709.9 1202.7 690.71 1202.7 443.7 1194.9 443.7"/><polygon class="cls-3" points="1185.8 709.9 1185.8 501.9 1185.8 443.7 1181.2 443.7 1181.2 447.81 1181.2 501.9 1181.2 709.9 1185.8 709.9"/><polygon class="cls-3" points="1243.8 723.71 1243.8 707 1243.8 443.7 1230.8 443.7 1231 707 1231 713.5 1231 765 1231 769 1243.8 750.61 1243.8 746.3 1243.8 723.71"/><polygon class="cls-3" points="1248.3 443.7 1248.3 707 1248.3 716 1256.1 716 1256.1 707 1256.1 443.7 1248.3 443.7"/><path class="cls-3" d="M1260.8,445.31v13.9c0,4.3,2.7,7.8,5.8,7.8s5.8-3.4,5.8-7.8v-13.9a7.57,7.57,0,0,0-.1-1.5h-11.5Z"/><polygon class="cls-3" points="1339.6 574.11 1339.6 568.4 1339.6 520.11 1339.6 513.5 1319.4 513.5 1319.4 520.5 1319.4 520.5 1319.4 526.5 1319.4 526.5 1319.4 534.4 1319.4 534.4 1319.4 540.4 1319.4 540.4 1319.4 548.11 1319.4 548.11 1319.4 554.3 1319.4 554.3 1319.4 574.11 1319.7 574.11 1339.6 574.11"/><polygon class="cls-3" points="1369 587.11 1369 582.71 1369 578.4 1369 570.61 1369 564.61 1369 554.3 1369 548.11 1369 540.4 1369 534.4 1369 526.5 1369 520.5 1369 513.5 1363.1 513.5 1363.1 520.11 1363.1 552.11 1363.1 587.11 1363.1 656.3 1363.2 656.3 1369 656.3 1369 587.11"/><polygon class="cls-3" points="1319.4 506.61 1319.4 506.61 1281.7 506.61 1279.7 506.61 1279.7 512.71 1281.7 512.71 1319.4 512.71 1319.4 506.61"/><polygon class="cls-3" points="1319.4 498.81 1319.4 498.81 1319.4 492.81 1319.4 492.81 1281.7 492.81 1279.7 492.81 1279.7 498.81 1281.7 498.81 1319.4 498.81"/><polygon class="cls-3" points="1319.4 485 1319.4 478.9 1319.4 478.9 1281.7 478.9 1279.7 478.9 1279.7 485 1281.7 485 1319.4 485"/><polygon class="cls-3" points="1319.4 471.11 1319.4 465.11 1319.4 465.11 1281.7 465.11 1279.7 465.11 1279.7 471.11 1281.7 471.11 1319.4 471.11"/><polygon class="cls-3" points="1319.4 498.81 1319.4 498.81 1319.4 498.81 1319.4 506.61 1319.4 506.61 1369 506.61 1371 506.61 1371 498.81 1369 498.81 1369 498.81 1319.4 498.81"/><polygon class="cls-3" points="1319.4 485 1319.4 485 1319.4 492.81 1319.4 492.81 1369 492.81 1371 492.81 1371 485 1369 485 1319.4 485"/><polygon class="cls-3" points="1319.4 478.9 1319.4 478.9 1369 478.9 1371 478.9 1371 471.11 1319.4 471.11 1319.4 471.11 1319.4 478.9"/><polygon class="cls-3" points="1371 465.11 1371 457.31 1319.4 457.31 1319.4 465.11 1319.4 465.11 1371 465.11"/><polygon class="cls-3" points="1369 506.61 1369 512.71 1380.9 512.71 1404.2 512.71 1404.2 506.61 1380.9 506.61 1371 506.61 1369 506.61"/><polygon class="cls-3" points="1369 492.81 1369 498.81 1369 498.81 1371 498.81 1380.9 498.81 1404.2 498.81 1404.2 492.81 1380.9 492.81 1371 492.81 1369 492.81"/><polygon class="cls-3" points="1369 478.9 1369 485 1371 485 1380.9 485 1404.2 485 1404.2 478.9 1380.9 478.9 1371 478.9 1369 478.9"/><polygon class="cls-3" points="1477.2 807.71 1493.4 807.71 1493.4 807.71 1493.5 807.71 1493.5 474.61 1477.2 474.61 1477.2 807.71"/><polygon class="cls-3" points="1423.7 798.5 1423.8 798.61 1423.8 474.61 1420 474.61 1419.8 474.61 1419.8 544.3 1419.8 807.71 1423.7 798.5"/><path class="cls-3" d="M1493.2,456.41c3.1,0,5.5-3.3,5.5-7.3v-5.4h-11.1v5.4C1487.7,453.21,1490.1,456.41,1493.2,456.41Z"/><polygon class="cls-3" points="1543.7 443.7 1543.7 455.61 1555.2 455.61 1570.5 455.61 1570.5 443.7 1543.7 443.7"/><polygon class="cls-3" points="1527.4 510.11 1527.4 517.11 1530.2 517.11 1593.4 517.11 1597.2 517.11 1597.2 510.11 1593.4 510.11 1530.2 510.11 1527.4 510.11"/><polygon class="cls-3" points="1527.4 497.11 1527.4 504 1530.2 504 1593.4 504 1597.2 504 1597.2 497.11 1593.4 497.11 1530.2 497.11 1527.4 497.11"/><polygon class="cls-3" points="1527.4 485 1527.4 491.9 1530.2 491.9 1593.4 491.9 1597.2 491.9 1597.2 485 1593.4 485 1530.2 485 1527.4 485"/><polygon class="cls-3" points="1646.7 474.31 1646.7 443.7 1607 443.7 1607 474.31 1607 514 1607 774.3 1608.4 774.3 1646.7 774.3 1646.7 474.31"/><rect class="cls-6" x="1660.5" y="443.71" width="50.8" height="10.1"/><path class="cls-3" d="M1702.8,468.61c0-3.3-2.1-6-4.5-6h-15.6c-2.6,0-4.5,2.7-4.5,6a6.22,6.22,0,0,0,3.2,5.8,4,4,0,0,0,1.5.3h15.6a4,4,0,0,0,1.5-.3A7,7,0,0,0,1702.8,468.61Z"/><path class="cls-3" d="M1670.8,491.91c0,2.8,1.5,5.2,3.5,5.9a5.16,5.16,0,0,0,1.1.2h3.3c2.6,0,4.5-2.7,4.5-6s-2.1-6-4.5-6h-3.3a3.94,3.94,0,0,0-1.1.19C1672.3,486.71,1670.8,489.11,1670.8,491.91Z"/><path class="cls-3" d="M1690.4,516.61c0,3.5,2.2,6.5,4.8,6.5h0c2.7,0,4.8-2.9,4.8-6.5v-3.4a8.21,8.21,0,0,0-1.2-4.3,4.42,4.42,0,0,0-3.7-2.2h0a4.42,4.42,0,0,0-3.7,2.2,7.39,7.39,0,0,0-1.2,4.3l.2,3.4Z"/><polygon class="cls-3" points="1771.9 509.2 1771.9 508.9 1771.9 503.2 1757.6 503.2 1757.6 508.9 1757.6 509.2 1771.9 509.2"/><polygon class="cls-3" points="1787 509.2 1787 508.9 1787 503.2 1780.4 503.2 1780.4 508.9 1780.4 509.2 1787 509.2"/><polygon class="cls-3" points="1747.3 509.2 1749.1 509.2 1749.1 508.9 1749.1 503.2 1742.6 503.2 1742.6 508.9 1742.6 509.2 1747.3 509.2"/><rect class="cls-3" x="1757.6" y="491.91" width="14.3" height="6"/><rect class="cls-3" x="1780.4" y="491.91" width="6.5" height="6"/><rect class="cls-3" x="1742.6" y="491.91" width="6.5" height="6"/><rect class="cls-3" x="1757.6" y="480.71" width="14.3" height="6"/><polygon class="cls-3" points="1757.6 469.4 1757.6 474.31 1757.6 475.5 1771.9 475.5 1771.9 474.31 1771.9 469.4 1757.6 469.4"/><rect class="cls-3" x="1780.4" y="480.71" width="6.5" height="6"/><polygon class="cls-3" points="1780.4 469.4 1780.4 474.31 1780.4 475.5 1787 475.5 1787 474.31 1787 469.4 1780.4 469.4"/><rect class="cls-3" x="1742.6" y="480.71" width="6.5" height="6"/><polygon class="cls-3" points="1742.6 469.4 1742.6 474.31 1742.6 475.5 1749.1 475.5 1749.1 474.31 1749.1 469.4 1742.6 469.4"/><path class="cls-3" d="M1788.8,452.61c0-4.1-2.5-7.3-5.5-7.3h-20.2c-3.1,0-5.5,3.3-5.5,7.3s2.5,7.3,5.5,7.3h20.2C1786.4,459.91,1788.8,456.61,1788.8,452.61Z"/><path class="cls-3" d="M1814,517.91c2.4,0,4.3-2.5,4.3-5.6s-1.9-5.6-4.3-5.6h-12.4c-2.4,0-4.3,2.5-4.3,5.6a11,11,0,0,0,.2,1.8c.6,2.2,2.2,3.8,4.1,3.8Z"/><path class="cls-3" d="M1813,475.51h0c-2.9,0-5.2,3.1-5.2,6.9v5.2c0,3.8,2.4,6.9,5.2,6.9h0c2.9,0,5.2-3.1,5.2-6.9v-5.2C1818.2,478.51,1815.8,475.51,1813,475.51Z"/><polygon class="cls-3" points="1857.6 450.4 1907.4 450.4 1914.7 450.4 1914.7 443.7 1895.9 443.7 1895.9 445.31 1882.8 445.31 1882.8 443.7 1871 443.7 1871 445.31 1827.3 445.31 1827.3 443.7 1807.8 443.7 1807.8 445.31 1797.3 445.31 1797.3 443.7 1794.8 443.7 1794.8 450.4 1857.6 450.4"/><rect class="cls-6" x="1797.3" y="443.71" width="10.5" height="1.5"/><rect class="cls-6" x="1827.3" y="443.71" width="43.7" height="1.5"/><rect class="cls-6" x="1882.8" y="443.71" width="13.1" height="1.5"/><polygon class="cls-3" points="1837.3 515.3 1865.6 515.3 1865.6 509.2 1837.3 509.2 1830.8 509.2 1830.5 509.2 1830.5 515.3 1830.8 515.3 1837.3 515.3"/><polygon class="cls-3" points="1834 504 1837.3 504 1865.6 504 1865.6 498 1837.3 498 1830.5 498 1830.5 498.5 1830.5 504 1834 504"/><polygon class="cls-3" points="1874.3 755.3 1874.3 756.61 1872.7 758.71 1866.7 766.4 1860 775.21 1845.5 793.9 1863.4 776.61 1864.8 775.21 1866.7 773.4 1881.9 758.71 1884.1 756.61 1884.1 494.2 1884.1 485.9 1874.3 485.9 1874.3 494.2 1874.3 755.3"/><rect class="cls-3" x="1830.5" y="486.71" width="35.1" height="6"/><path class="cls-3" d="M1905.3,495.41c-1.3,0-2.3,1.4-2.3,3v7.8c0,1.7,1,3.1,2.3,3.1s2.3-1.4,2.3-3.1v-7.8C1907.5,496.81,1906.5,495.41,1905.3,495.41Z"/><path class="cls-3" d="M1917.3,499.81c-2.6,0-4.5,2.7-4.5,6v1.8c0,3.3,2.1,6,4.5,6s4.5-2.7,4.5-6v-1.8C1921.9,502.51,1919.8,499.81,1917.3,499.81Z"/></g><g id="water"><rect class="cls-7" x="-32.9" y="463.91" width="2692" height="261.3"/><rect class="cls-8" x="-32.9" y="463.91" width="2692" height="261.3"/></g><g id="steamboat-top"><rect class="cls-9" x="389.7" y="348.61" width="106.2" height="34.2"/><rect class="cls-9" x="323.1" y="382.81" width="250.9" height="34.2"/><rect class="cls-9" x="303.4" y="416.91" width="270.4" height="34.2"/><rect class="cls-9" x="352.1" y="293.01" width="20.8" height="89.9"/><path class="cls-6" d="M569.7,427.91h0c3.5,0,6.4,3.1,6.4,7.1v2.6c0,3.9-2.9,7.1-6.4,7.1h0c-3.5,0-6.4-3.1-6.4-7.1V435C563.3,431,566.2,427.91,569.7,427.91Z"/><path class="cls-6" d="M323.8,424.41h0c3.5,0,6.4,3.1,6.4,7.1v2.6c0,3.9-2.9,7.1-6.4,7.1h0c-3.5,0-6.4-3.1-6.4-7.1v-2.6C317.3,427.51,320.1,424.41,323.8,424.41Z"/><path class="cls-6" d="M346.4,424.41h0c3.5,0,6.4,3.1,6.4,7.1v2.6c0,3.9-2.9,7.1-6.4,7.1h0c-3.5,0-6.4-3.1-6.4-7.1v-2.6C340,427.51,342.8,424.41,346.4,424.41Z"/><path class="cls-6" d="M369.1,424.41h0c3.5,0,6.4,3.1,6.4,7.1v2.6c0,3.9-2.9,7.1-6.4,7.1h0c-3.5,0-6.4-3.1-6.4-7.1v-2.6C362.6,427.51,365.4,424.41,369.1,424.41Z"/><path class="cls-6" d="M391.7,424.41h0c3.5,0,6.4,3.1,6.4,7.1v2.6c0,3.9-2.9,7.1-6.4,7.1h0c-3.5,0-6.4-3.1-6.4-7.1v-2.6C385.3,427.51,388.2,424.41,391.7,424.41Z"/><path class="cls-6" d="M414.4,424.41h0c3.5,0,6.4,3.1,6.4,7.1v2.6c0,3.9-2.9,7.1-6.4,7.1h0c-3.5,0-6.4-3.1-6.4-7.1v-2.6A6.62,6.62,0,0,1,414.4,424.41Z"/><path class="cls-6" d="M437,424.41h0c3.5,0,6.4,3.1,6.4,7.1v2.6c0,3.9-2.9,7.1-6.4,7.1h0c-3.5,0-6.4-3.1-6.4-7.1v-2.6C430.6,427.51,433.5,424.41,437,424.41Z"/><path class="cls-6" d="M459.6,424.41h0c3.5,0,6.4,3.1,6.4,7.1v2.6c0,3.9-2.9,7.1-6.4,7.1h0c-3.5,0-6.4-3.1-6.4-7.1v-2.6C453.2,427.51,456.1,424.41,459.6,424.41Z"/><path class="cls-6" d="M482.3,424.41h0c3.5,0,6.4,3.1,6.4,7.1v2.6c0,3.9-2.9,7.1-6.4,7.1h0c-3.5,0-6.4-3.1-6.4-7.1v-2.6C475.9,427.51,478.8,424.41,482.3,424.41Z"/><path class="cls-6" d="M504.9,424.41h0c3.5,0,6.4,3.1,6.4,7.1v2.6c0,3.9-2.9,7.1-6.4,7.1h0c-3.5,0-6.4-3.1-6.4-7.1v-2.6C498.5,427.51,501.4,424.41,504.9,424.41Z"/><path class="cls-6" d="M527.6,424.41h0c3.5,0,6.4,3.1,6.4,7.1v2.6c0,3.9-2.9,7.1-6.4,7.1h0c-3.5,0-6.4-3.1-6.4-7.1v-2.6C521.2,427.51,524.1,424.41,527.6,424.41Z"/><path class="cls-6" d="M550.2,424.41h0c3.5,0,6.4,3.1,6.4,7.1v2.6c0,3.9-2.9,7.1-6.4,7.1h0c-3.5,0-6.4-3.1-6.4-7.1v-2.6C543.8,427.51,546.7,424.41,550.2,424.41Z"/><path class="cls-6" d="M338.6,391h0c3.5,0,6.4,3.1,6.4,7.1v2.6c0,3.9-2.9,7.1-6.4,7.1h0c-3.5,0-6.4-3.1-6.4-7.1v-2.6C332.2,394.11,335,391,338.6,391Z"/><path class="cls-6" d="M361.3,391h0c3.5,0,6.4,3.1,6.4,7.1v2.6c0,3.9-2.9,7.1-6.4,7.1h0c-3.5,0-6.4-3.1-6.4-7.1v-2.6C354.9,394.11,357.7,391,361.3,391Z"/><path class="cls-6" d="M384,391h0c3.5,0,6.4,3.1,6.4,7.1v2.6c0,3.9-2.9,7.1-6.4,7.1h0c-3.5,0-6.4-3.1-6.4-7.1v-2.6C377.5,394.11,380.3,391,384,391Z"/><path class="cls-6" d="M406.6,391h0c3.5,0,6.4,3.1,6.4,7.1v2.6c0,3.9-2.9,7.1-6.4,7.1h0c-3.5,0-6.4-3.1-6.4-7.1v-2.6C400.2,394.11,403,391,406.6,391Z"/><path class="cls-6" d="M429.3,391h0c3.5,0,6.4,3.1,6.4,7.1v2.6c0,3.9-2.9,7.1-6.4,7.1h0c-3.5,0-6.4-3.1-6.4-7.1v-2.6C422.8,394.11,425.6,391,429.3,391Z"/><path class="cls-6" d="M451.9,391h0c3.5,0,6.4,3.1,6.4,7.1v2.6c0,3.9-2.9,7.1-6.4,7.1h0c-3.5,0-6.4-3.1-6.4-7.1v-2.6C445.5,394.11,448.3,391,451.9,391Z"/><path class="cls-6" d="M474.5,391h0c3.5,0,6.4,3.1,6.4,7.1v2.6c0,3.9-2.9,7.1-6.4,7.1h0c-3.5,0-6.4-3.1-6.4-7.1v-2.6C468.1,394.11,471,391,474.5,391Z"/><path class="cls-6" d="M497.2,391h0c3.5,0,6.4,3.1,6.4,7.1v2.6c0,3.9-2.9,7.1-6.4,7.1h0c-3.5,0-6.4-3.1-6.4-7.1v-2.6C490.8,394.11,493.7,391,497.2,391Z"/><path class="cls-6" d="M519.8,391h0c3.5,0,6.4,3.1,6.4,7.1v2.6c0,3.9-2.9,7.1-6.4,7.1h0c-3.5,0-6.4-3.1-6.4-7.1v-2.6C513.4,394.11,516.3,391,519.8,391Z"/><path class="cls-6" d="M542.5,391h0c3.5,0,6.4,3.1,6.4,7.1v2.6c0,3.9-2.9,7.1-6.4,7.1h0c-3.5,0-6.4-3.1-6.4-7.1v-2.6A6.69,6.69,0,0,1,542.5,391Z"/><path class="cls-6" d="M565.1,391h0c3.5,0,6.4,3.1,6.4,7.1v2.6c0,3.9-2.9,7.1-6.4,7.1h0c-3.5,0-6.4-3.1-6.4-7.1v-2.6C558.7,394.11,561.6,391,565.1,391Z"/><path class="cls-6" d="M407.6,357.51h0c3.5,0,6.4,3.1,6.4,7.1v2.6c0,3.9-2.9,7.1-6.4,7.1h0c-3.5,0-6.4-3.1-6.4-7.1v-2.6A6.68,6.68,0,0,1,407.6,357.51Z"/><path class="cls-6" d="M430.2,357.51h0c3.5,0,6.4,3.1,6.4,7.1v2.6c0,3.9-2.9,7.1-6.4,7.1h0c-3.5,0-6.4-3.1-6.4-7.1v-2.6C423.8,360.71,426.7,357.51,430.2,357.51Z"/><path class="cls-6" d="M452.9,357.51h0c3.5,0,6.4,3.1,6.4,7.1v2.6c0,3.9-2.9,7.1-6.4,7.1h0c-3.5,0-6.4-3.1-6.4-7.1v-2.6A6.68,6.68,0,0,1,452.9,357.51Z"/><path class="cls-6" d="M475.5,357.51h0c3.5,0,6.4,3.1,6.4,7.1v2.6c0,3.9-2.9,7.1-6.4,7.1h0c-3.5,0-6.4-3.1-6.4-7.1v-2.6C469.1,360.71,472,357.51,475.5,357.51Z"/><rect class="cls-10" x="295" y="414.01" width="283.7" height="5.9"/><rect class="cls-10" x="315" y="381.31" width="263.8" height="5.9"/><rect class="cls-10" x="381.9" y="345.71" width="119.7" height="5.9"/><path class="cls-10" d="M566.1,479.71c39.6-22.4,53.8-50.3,53.8-50.3H555.4l-28.8,19.1L333,450.31l-97.8-20.8s23.7,27.9,74.5,50.3Z"/><ellipse class="cls-11" cx="380.79" cy="275.9" rx="15.4" ry="11" transform="translate(-36.31 58.76) rotate(-8.42)"/><ellipse class="cls-11" cx="413.61" cy="256.81" rx="15.4" ry="11.8" transform="translate(-30.66 57.69) rotate(-7.69)"/><ellipse class="cls-11" cx="452.11" cy="237.11" rx="18.1" ry="12.7" transform="translate(-46.98 129.73) rotate(-15.53)"/><ellipse class="cls-11" cx="499.6" cy="217.01" rx="23.8" ry="16" transform="translate(-39.74 140.83) rotate(-15.44)"/></g></svg>