<svg xmlns="http://www.w3.org/2000/svg" width="83" height="51" viewBox="0 0 83 51">
    <g fill="none" fill-rule="evenodd">
        <path fill="#643900" stroke="#6A3700" stroke-width=".7" d="M8.406 3.5L1 22.484h1.12l2.562-6.552h8.61l2.579 6.568H17l-7.465-19H8.406zm.573 1.373l3.968 10.1H5.061l3.918-10.1zM19.052 21.396V7.363h.987v2.404s1.387-2.75 4.886-2.75c3.5 0 5 2.645 5.315 3.683 0 0 .406 1 .388 3.188h-.996s.39-2.756-1.268-4.436c-1.66-1.681-4.505-1.978-6.478-.458 0 0-1.659 1.137-1.853 3.67v8.726l-.98.006zM33.15 21.394V1.16h.97v14.204l8.168-8.041h1.356l-5.23 5.158 5.872 8.922h-1.199L37.7 13.184l-3.548 3.51v4.696z"/>
        <path fill="#B19726" stroke="#B49700" stroke-width=".7" d="M67.473 17.884l-.008-.019V7.363h-.96v8.223l-.002-.005c-.21 5.455-5.035 5.13-5.035 5.13-4.468-.21-4.583-4.45-4.583-4.45V7.363h-.987l.012 8.96c.4 5.388 5.647 5.4 5.647 5.4 3.753-.049 4.944-2.681 4.944-2.681l.004-.005v2.34h.96v-3.483l.008-.01zM77.012 21.71a8.05 8.05 0 0 1-.435-.012c-3.356-.181-5.423-.926-6.375-4.366l1.009-.008c1.015 2.815 2.299 3.218 5.418 3.387 1.643.089 3.083-.414 3.858-1.345.541-.65.726-1.465.535-2.356-.454-2.116-3.52-2.55-6.226-2.933l-.489-.07c-2.624-.38-3.304-2.257-3.298-3.205-.019-.95.282-1.752.894-2.384 1.417-1.462 4.014-1.453 4.124-1.45 2.763.054 4.17 1.074 4.864 1.919.78.95.897 2.02.9 2.06l-.997-.03c-.01-.117-.326-2.873-4.782-2.96-.017-.003-2.296-.007-3.422 1.158-.427.442-.627.99-.612 1.673v.016c0 .073.038 1.873 2.465 2.224l.487.07c2.869.406 6.44.912 7.038 3.7.255 1.187-.01 2.326-.743 3.208-.91 1.094-2.43 1.704-4.213 1.704"/>
        <path fill="#643900" stroke="#6A3700" stroke-width=".7" d="M40.641 28.331s-5.65.231-5.472 5.174c0 0 0 1.047.823 3.172 0 0 3.196 8.033 3.318 8.997 0 0 .799 2.843-.57 4.61 0 0 1.579-1.503.933-4.667 0 0-.5-2.456-1.89-5.883l-1.614-4.268s-1.76-3.542 1.114-5.717c0 0 1.082-1.039 3.358-1.418"/>
        <path fill="#B19726" stroke="#B49800" stroke-width=".5" d="M40.884 42.47s.016-1.105.58-1.22c.566-.115 1.115.857 1.325 3.23l.29 5.85s.307-3.856.081-6.345c0 0-.29-3.328-1.711-2.982 0 0-.76.14-.565 1.466"/>
        <path fill="#643900" stroke="#6A3700" stroke-width=".7" d="M49.238 30.93s1.175-1.013 1.913-1.087c0 0-1.114 2.921-1.388 3.547 0 0-4.811 11.798-1.808 16.923 0 0-1.889-1.92-1.405-6.987.485-5.067 3.487-11.889 4.141-13.1 0 0-.896.276-1.453.705"/>
        <path fill="#643900" d="M46.583 28.216s.234-.849.92-.684c0 0 .387.033.234.354-.153.322-.44.577-.719.684 0 0-.65.285-.435-.354M50.15 3.829s.097-1.014.146-1.912c.048-.898.67-1.433 1.154-1.31.485.124.178 1.22-.258 1.73-.436.511-1.041 1.492-1.041 1.492M52 2.725s.169-.528.29-.948c.12-.42.621-.94.952-.667.331.272-.371.914-.726 1.153-.355.24-.517.462-.517.462M49.957 5.378s.59-.618.864-1.088c.274-.47 1.428-1.516 1.945-.882 0 0 .581.717-1.372 1.41l-1.437.56zM48.645 5.855s-.472-1.767-.37-2.54c.104-.772.691-.413.848.168.158.58.315 1.408.315 1.408s-1.108-1.167-.793.964M49.065 6.576s.847.511 1.033.215c.186-.297-.266-1.109-.266-1.109s.686.552.549 1.26c0 0-.198.792-1.316-.366"/>
        <path fill="#B19726" d="M49.856 27.656s-.218.432.206.741c.424.31.872-.05 1.041-.272.17-.222 1.26-2.162 1.09-3.485 0 0-.02-.092-.125.019s-.42.6-.602.933c-.181.334-.793 1-1.023 1.254 0 0-.381.422-.587.81M53.121 26.939s.832-1.631.888-3.024c0 0 .218-1.145.59-.914.37.23-.574 3.295-1.478 3.938"/>
        <path fill="#643900" stroke="#6A3700" stroke-width=".7" d="M49.347 8.037s-.769 1.458-.502 2.706c.266 1.248.563 1.761 1.677 3.145 1.114 1.385 2.712 3.374 3.293 6.204 0 0 .642 2.954-.605 6.18 0 0 1.03-3.35.339-6.093 0 0-.484-2.583-2.446-5.042l-1.332-1.743s-2.18-2.546-.424-5.357"/>
        <path fill="#B19726" stroke="#B49800" stroke-width=".5" d="M48.9 7.437s-1.623 2.052-.872 4.079c.75 2.026 3.39 6.352 3.802 7.34.411.99 1.404 2.967.411 4.623 0 0 .864-1.376-.815-4.688l-1.824-3.197s-2.309-3.526-2.018-5.487c0 0 .14-1.384 1.315-2.67"/>
        <path fill="#643900" stroke="#6A3700" stroke-width=".7" d="M49.723 23.33s.944-1.273.593-3.151c-.351-1.879-2.01-4.054-2.01-4.054s-2.131-2.73-1.756-6.154c0 0 .23-1.36.485-2.163.202-.64.871-3.572.968-4.597 0 0-.92 3.151-1.259 4.251-.332 1.077-.98 3.485-.52 5.215.46 1.73.799 2.064 1.634 3.522 0 0 1.84 2.769 2.155 4.042 0 0 .388 1.322-.29 3.09"/>
        <path fill="#B19726" stroke="#B49800" stroke-width=".5" d="M49.093 23.182s-6.587 1.36-7.531 6.253c0 0-.92 4.598 3.317 5.166 0 0 1.865.284 2.749-.68 0 0-.097-.729-1.284-1.853-1.186-1.125-1.404-2.287-1.283-3.115 0 0 .145-.438-.121-.778s-.842-1.267-2.07-.661c0 0 .61-.513 1.404-.161.793.352 1.09 1.118 1.09 1.118s.066.118-.006.408c-.073.29-.121.853.109 1.335.23.482.423.884 1.083 1.477.66.593 1.344 1.31 1.496 2.039 0 0 .13.402-.152.606 0 0-1.223 1.18-3.515.743 0 0-3.576-.667-3.398-4.902 0 0-.037-3.14 3.172-5.141 0 0 2.288-1.421 4.94-1.854"/>
    </g>
</svg>
