<?xml version="1.0" encoding="utf-8"?>
<!-- Generator: Adobe Illustrator 23.0.4, SVG Export Plug-In . SVG Version: 6.00 Build 0)  -->
<svg version="1.1" id="Layer_1" xmlns="http://www.w3.org/2000/svg" xmlns:xlink="http://www.w3.org/1999/xlink" x="0px" y="0px"
	 viewBox="0 0 896 896" style="enable-background:new 0 0 896 896;" xml:space="preserve">
<style type="text/css">
	.st0{clip-path:url(#SVGID_2_);}
	.st1{fill:#B7DFE6;}
	.st2{fill:#8D5524;}
	.st3{fill:#FFDBAC;}
	.st4{fill:#E0AC69;}
</style>
<g>
	<g>
		<defs>
			<circle id="SVGID_1_" cx="448" cy="448" r="448"/>
		</defs>
		<clipPath id="SVGID_2_">
			<use xlink:href="#SVGID_1_"  style="overflow:visible;"/>
		</clipPath>
		<g class="st0">
			<circle class="st1" cx="448" cy="448" r="448"/>
			<g>
				<path class="st2" d="M293.7,546.9L293.7,546.9L292,432.6c0-9.9-2.7-36.8-12.1-36.8s-13,9-13,18.8L263.4,515c0,1.6-2.1,5.9-3.7,6
					c-3,0.2-2.9-10.5-2.9-12.2l-2.1-123c0-9.9-8.3-44.3-18-44.3c-9.7,0-17.6,16.4-17.6,26.2v126c0,2.6-3,7.9-5.2,7.7
					c-2.7-0.2-5.1-4.6-5.7-10.3l-0.7-139.4c0-9.9-7.9-35.5-17.6-35.5l0,0c-9.7,0-14,26.3-14,36.1l-3.6,156c0,2.9-2.1,5.6-5.1,5.8
					c-3.2,0.2-3.5-9.5-3.5-11.8c-0.4-32.1-4.3-117.2-4.3-117.2c0-9.9-6.4-29.1-15.9-29.1l0,0c-9.5,0-15.6,35.4-15.6,45.2l-1.6,136.8
					c0,0.6-0.1,1.3-0.3,1.9c-0.9,3-1.8,12.4-5.6,12.6c-3.9,0.2-5.6-13.6-5.6-15v-38.3c0-9.2-6.7-36.5-15.8-37.5
					c-10.8-1.2-15.6,30.8-15.6,41.3l0.1,90.7c0,23.7,2.1,51.5,8.1,58.8c0.3,0.4,0.6,0.9,0.8,1.4c2.4,4.9,13.9,27.5,16.4,30.7
					c5.5,6.8,11.5,19.4,13.4,27.6c2.1,9.3-0.4,53.9-0.4,53.9c0,1.6,0.7,3.2,1.9,4.3c8.1,7.6,40.8,37.8,54,47.1
					c11.7,8.1,40.1,23.2,59.7,33.3c8.8,4.5,19.1-2.3,18.4-12.1c-1.9-26-4.3-68.4-2.2-93.3c2.4-28.5,18.1-61.8,22.7-76
					c7.8-24.2,18-49.4,18.6-81.2C295.1,562,293.7,546.9,293.7,546.9z"/>
				<path class="st3" d="M645.8,588.9L645.8,588.9l1.4-98.5c0-8.5,2.3-31.8,10.5-31.8c8.1,0,11.2,7.8,11.2,16.2l3,86.6
					c0,1.3,1.8,5.1,3.2,5.2c2.6,0.1,2.5-9.1,2.5-10.5l1.8-106.1c0-8.5,7.2-38.2,15.6-38.2c8.4,0,15.2,14.2,15.2,22.6v108.7
					c0,2.2,2.6,6.8,4.5,6.7c2.3-0.2,4.4-4,4.9-8.9l0.6-120.2c0-8.5,6.8-30.6,15.2-30.6l0,0c8.4,0,12.1,22.7,12.1,31.1l3.1,134.5
					c0,2.5,1.8,4.9,4.4,5c2.8,0.1,3-8.2,3-10.2c0.3-27.7,3.7-101.1,3.7-101.1c0-8.5,5.5-25.1,13.7-25.1l0,0c8.2,0,13.4,30.5,13.4,39
					l1.4,118c0,0.5,0.1,1.1,0.2,1.6c0.8,2.6,1.5,10.7,4.9,10.8c3.4,0.1,4.8-11.7,4.8-12.9v-33c0-7.9,5.8-31.5,13.6-32.4
					c9.3-1,13.5,26.6,13.5,35.7l-0.1,78.2c0,20.4-1.8,44.4-7,50.7c-0.3,0.4-0.5,0.8-0.7,1.2c-2.1,4.2-12,23.7-14.2,26.5
					c-4.7,5.9-9.9,16.7-11.5,23.8c-1.8,8,0.4,46.5,0.4,46.5c0,1.4-0.6,2.7-1.6,3.7c-7,6.5-35.2,32.6-46.6,40.6
					c-10.1,7-34.6,20-51.5,28.7c-7.6,3.9-16.5-2-15.9-10.5c1.6-22.4,3.7-59,1.9-80.5c-2.1-24.5-15.6-53.3-19.6-65.6
					c-6.8-20.9-15.5-42.6-16-70C644.6,601.9,645.8,588.9,645.8,588.9z"/>
				<path class="st4" d="M613.8,357.9L613.8,357.9l-2.3-142.4c0-12.3-3.8-45.9-16.9-45.9c-13.1,0-18.1,11.2-18.1,23.4l-4.9,125.2
					c0,1.9-2.9,7.4-5.2,7.5c-4.1,0.2-4-13.1-4-15.2L559.5,157c0-12.3-11.6-55.2-25.2-55.2s-24.5,20.5-24.5,32.7v157.1
					c0,3.2-4.2,9.9-7.2,9.7c-3.7-0.3-7.2-5.8-7.9-12.8l-1-173.8c0-12.3-11-44.3-24.5-44.3l0,0c-13.5,0-19.6,32.8-19.6,45l-5,194.5
					c0,3.7-3,7-7.1,7.2c-4.5,0.2-4.9-11.9-4.9-14.7c-0.5-40.1-5.9-146.1-5.9-146.1c0-12.3-9-36.2-22.2-36.2l0,0
					c-13.2,0-21.7,44.1-21.7,56.3l-2.2,170.5c0,0.8-0.1,1.6-0.4,2.3c-1.3,3.8-2.5,15.5-7.8,15.7c-5.5,0.2-7.8-16.9-7.8-18.7v-47.8
					c0-11.5-9.3-45.6-22-46.8c-15.1-1.5-21.8,38.5-21.8,51.6l0.2,113.1c0,29.5,3,64.2,11.3,73.4c0.5,0.5,0.8,1.1,1.2,1.7
					c3.4,6.1,19.3,34.3,22.9,38.3c7.6,8.5,16.1,24.1,18.6,34.4c2.9,11.6-0.6,67.2-0.6,67.2c0,2-8.1,263.3-6.5,264.7
					c11.3,9.5,74.6-5.3,93,6.3c16.3,10.2,70.7-18.9,98-6.3c12.2,5.6,3.2-162.1,2.2-174.3c-2.6-32.4-6-85.3-3-116.4
					c3.4-35.5,25.3-77,31.7-94.8c10.9-30.2,25-61.6,25.9-101.3C615.8,376.7,613.8,357.9,613.8,357.9z"/>
			</g>
		</g>
	</g>
</g>
</svg>
